<svg id="ecc5d355-4b3e-4f12-8fdc-9798217cb155" data-name="katman 1" xmlns="http://www.w3.org/2000/svg" viewBox="0 0 841 595"><path d="M104.46,306.88h25.13v-9H106.1a9.65,9.65,0,0,1-.46-19.27c.27,0,18.82,0,24,0v-9c-6.52,0-25.36,0-25.84,0-9.41.63-16.85,9-16.85,18.55C86.9,298.07,94.72,306.65,104.46,306.88Z" fill="#004187" fill-rule="evenodd"/><path d="M162.17,297.52H150.28a9.23,9.23,0,0,1-.46-18.45c.17,0,12.64,0,12.81,0a9.23,9.23,0,0,1-.46,18.45Zm1.94-27.81c-.45,0-15.32,0-15.78,0-9.4.63-16.85,9-16.85,18.57,0,9.8,7.83,18.37,17.57,18.61H163.4c9.74-.24,17.57-8.81,17.57-18.61C181,278.73,173.52,270.34,164.11,269.71Z" fill="#004187"/><polygon points="424.14 297.92 394.63 297.92 394.63 269.69 384.85 269.69 384.85 306.89 424.14 306.89 424.14 297.92" fill="#004187"/><polygon points="229.88 306.89 239.7 306.89 239.7 269.69 229.92 269.69 229.92 292.81 207.47 269.75 197.28 269.69 197.28 306.86 207.06 306.86 207.06 283.74 229.88 306.89" fill="#004187"/><rect x="184.24" y="269.69" width="9.78" height="37.2" fill="#004187"/><polygon points="269.18 306.89 269.18 278.65 285.63 278.65 285.63 269.69 242.94 269.69 242.94 278.65 259.39 278.65 259.39 306.89 269.18 306.89" fill="#004187"/><path d="M298.7,278.77h19.17a5.17,5.17,0,0,1,5.23,5.17c0,2.85-2.31,4.21-5.16,4.21H298.7Zm0,19.13h10.35l8.88,9h13.68L322,297.16a14.1,14.1,0,0,0-4.2-27.47H288.92v37.2h9.78Z" fill="#004187"/><path d="M358.15,279l4.82,9.2h-9.63Zm-9.5,19.32h19l4.51,8.61h11.1l-19.52-37.2H352.57L333,306.89h11.11Z" fill="#004187"/><path d="M428,304.51h.4a.3.3,0,0,1,.14.05c.05,0,.07.08.07.17a.21.21,0,0,1,0,.12.12.12,0,0,1-.06.06s0,0-.07,0H428Zm0,1.29v-.45h.24l.17.23a1.84,1.84,0,0,1,.17.22h.5l-.19-.26c-.07-.08-.13-.17-.2-.26a.54.54,0,0,0,.23-.22.58.58,0,0,0,.09-.33.64.64,0,0,0-.17-.45.6.6,0,0,0-.44-.16h-.8v1.68Zm.26-2.28a1.38,1.38,0,0,0-.56.12,1.57,1.57,0,0,0-.45.31,1.33,1.33,0,0,0-.31.46,1.3,1.3,0,0,0-.12.55,1.44,1.44,0,0,0,.43,1,1.57,1.57,0,0,0,.45.31,1.36,1.36,0,0,0,.56.11,1.3,1.3,0,0,0,.56-.11,1.49,1.49,0,0,0,.46-.31,1.38,1.38,0,0,0,.42-1,1.46,1.46,0,0,0-.11-.55,1.45,1.45,0,0,0-.77-.77A1.31,1.31,0,0,0,428.23,303.52Zm0,3.37a1.93,1.93,0,0,1-.75-.15,2.11,2.11,0,0,1-.61-.41,2,2,0,0,1-.41-.62,1.92,1.92,0,0,1,.41-2.1,1.93,1.93,0,0,1,.61-.41,1.78,1.78,0,0,1,.75-.16,1.71,1.71,0,0,1,.75.16,1.82,1.82,0,0,1,.61.41,1.75,1.75,0,0,1,.42.61,1.93,1.93,0,0,1,0,1.49,1.89,1.89,0,0,1-.42.62,2,2,0,0,1-.61.41A1.86,1.86,0,0,1,428.23,306.89Z" fill="#004187" fill-rule="evenodd"/><rect x="59.6" y="267.2" width="15.46" height="15.47" rx="1.77" transform="translate(-174.68 128.13) rotate(-45)" fill="#004187"/><rect x="45.93" y="280.85" width="15.46" height="15.47" rx="1.77" transform="translate(-188.34 122.47) rotate(-45)" fill="#009cde"/><rect x="59.66" y="294.58" width="15.46" height="15.47" rx="1.77" transform="translate(-194.03 136.2) rotate(-45)" fill="#004187"/><g opacity="0.5"><path d="M445.93,307.38h-1.18V269.86h1.18Z" fill="#134383"/></g><path d="M466.18,293.83h-2.54v13.06h-3.91V278h3.91v12.78h2.14L476.5,278h4.4l0,.1-11.7,13.67,12.54,15,0,.1H477Z" fill="#134383"/><path d="M495.19,288.87l-2-.12a4.46,4.46,0,0,0-2.61.74,4.65,4.65,0,0,0-1.64,2.06v15.34H485V285.42h3.49l.38,3.13a7.58,7.58,0,0,1,2.25-2.6,5.29,5.29,0,0,1,3.09-.93,4.43,4.43,0,0,1,.83.07c.27.05.48.1.66.15Z" fill="#134383"/><path d="M507.77,307.31a9.09,9.09,0,0,1-7.21-3,11.35,11.35,0,0,1-2.59-7.78v-.87a11.15,11.15,0,0,1,2.67-7.65,8.36,8.36,0,0,1,6.52-3q4.3,0,6.46,2.68a11.07,11.07,0,0,1,2.15,7.12v2.07H502l-.06.1a8.85,8.85,0,0,0,1.43,5.25,5,5,0,0,0,4.36,2,9.77,9.77,0,0,0,3.48-.57,7.61,7.61,0,0,0,2.57-1.55l1.53,2.54a9.49,9.49,0,0,1-3,1.87A12.13,12.13,0,0,1,507.77,307.31Zm-.61-19.21a4.26,4.26,0,0,0-3.39,1.57,7.45,7.45,0,0,0-1.63,4l0,.1h9.68v-.32a6.19,6.19,0,0,0-1.15-3.86A4.16,4.16,0,0,0,507.16,288.1Z" fill="#134383"/><path d="M519.26,296.55a14.34,14.34,0,0,1,2.21-8.35,7.14,7.14,0,0,1,6.2-3.18,7.6,7.6,0,0,1,3.35.7,6.81,6.81,0,0,1,2.49,2V275.93h3.91v31h-3l-.59-2.72a7.07,7.07,0,0,1-2.6,2.34,7.79,7.79,0,0,1-3.6.8,7.37,7.37,0,0,1-6.15-2.85,11.85,11.85,0,0,1-2.22-7.49Zm3.91.42a9.1,9.1,0,0,0,1.33,5.21,4.65,4.65,0,0,0,4.13,1.95,5.15,5.15,0,0,0,2.93-.79,5.88,5.88,0,0,0,2-2.22v-10a6,6,0,0,0-2-2.11,5.17,5.17,0,0,0-2.88-.78,4.46,4.46,0,0,0-4.16,2.32,12,12,0,0,0-1.34,6Z" fill="#134383"/><path d="M547.48,279.92h-3.91v-4h3.91Zm0,27h-3.91V285.42h3.91Z" fill="#134383"/><path d="M570.58,293.83H568v13.06h-3.91V278H568v12.78h2.14L580.89,278h4.41l0,.1-11.71,13.67,12.54,15,0,.1h-4.74Z" fill="#134383"/><path d="M602.62,306.89c-.13-.65-.23-1.22-.3-1.72a10.59,10.59,0,0,1-.13-1.5,9,9,0,0,1-2.85,2.59,7.23,7.23,0,0,1-3.78,1.05,7,7,0,0,1-5.11-1.72,6.31,6.31,0,0,1-1.76-4.73,5.56,5.56,0,0,1,2.49-4.82,11.71,11.71,0,0,1,6.76-1.73h4.25v-2.12a4,4,0,0,0-1.15-3,4.52,4.52,0,0,0-3.26-1.1,4.73,4.73,0,0,0-3.07.95,2.84,2.84,0,0,0-1.17,2.28l-3.72,0,0-.12A5.12,5.12,0,0,1,592,287a9.06,9.06,0,0,1,6-2,8.85,8.85,0,0,1,5.87,1.86,6.58,6.58,0,0,1,2.23,5.35v10.33c0,.77,0,1.51.11,2.23a11.71,11.71,0,0,0,.44,2.1ZM596.13,304a6.91,6.91,0,0,0,3.83-1.09,5.23,5.23,0,0,0,2.23-2.5V297H597.8a5.67,5.67,0,0,0-3.78,1.19,3.58,3.58,0,0,0-1.42,2.8,2.94,2.94,0,0,0,.9,2.26A3.74,3.74,0,0,0,596.13,304Z" fill="#134383"/><path d="M621.93,288.87l-2-.12a4.46,4.46,0,0,0-2.61.74,4.65,4.65,0,0,0-1.64,2.06v15.34h-3.91V285.42h3.49l.38,3.13a7.58,7.58,0,0,1,2.25-2.6A5.29,5.29,0,0,1,621,285a4.43,4.43,0,0,1,.83.07c.27.05.48.1.66.15Z" fill="#134383"/><path d="M631.77,280.24v5.18h4.07v2.9h-4.07v13a2.91,2.91,0,0,0,.63,2.13,2.27,2.27,0,0,0,1.66.61,3.62,3.62,0,0,0,.75-.09,4.68,4.68,0,0,0,.69-.19l.54,2.68a3.38,3.38,0,0,1-1.29.59,6.61,6.61,0,0,1-1.69.23,5.07,5.07,0,0,1-3.79-1.44,6.26,6.26,0,0,1-1.41-4.52v-13h-3.41v-2.9h3.41v-5.18Z" fill="#134383"/><path d="M644.14,306.89h-3.91V285.42h3.91Z" fill="#134383"/></svg>