<?xml version="1.0" encoding="utf-8"?>
<!-- Generator: Adobe Illustrator 24.2.3, SVG Export Plug-In . SVG Version: 6.00 Build 0)  -->
<svg version="1.0" id="katman_1" xmlns="http://www.w3.org/2000/svg" xmlns:xlink="http://www.w3.org/1999/xlink" x="0px" y="0px"
	 viewBox="0 0 128 128" style="enable-background:new 0 0 128 128;" xml:space="preserve">
<g id="XMLID_135_">
	<path id="XMLID_141_" style="fill:#1291C7;stroke:#05425B;stroke-miterlimit:10;" d="M114.2,105.9c6.1,0,11.1-4.9,11.1-11l0.2-61.3
		c0-6.1-4.9-11.1-11-11.1L13.8,22.1c0,0,0,0,0,0c-6.1,0-11.1,4.9-11.1,11L2.5,94.4c0,3,1.1,5.7,3.2,7.8c2.1,2.1,4.9,3.3,7.8,3.3
		L114.2,105.9C114.2,105.9,114.2,105.9,114.2,105.9z M17.7,100.9h-3.9v-0.1h-0.3c-1.7,0-3.3-0.7-4.5-1.9c-1.2-1.2-1.9-2.8-1.9-4.5
		l0.2-61.3c0-3.5,2.9-6.4,6.4-6.4c0,0,0,0,0,0l100.6,0.3c3.5,0,6.4,2.9,6.4,6.4l-0.2,61.3c0,3.5-2.9,6.4-6.4,6.4c0,0,0,0,0,0
		L17.7,100.9L17.7,100.9z"/>
	<path id="XMLID_138_" style="fill:#1291C7;stroke:#05425B;stroke-miterlimit:10;" d="M108.5,31.8H85.2c-0.6,0-1.2,0.5-1.2,1.2v31
		c0,0.6,0.5,1.2,1.2,1.2h23.3c0.6,0,1.2-0.5,1.2-1.2V33C109.7,32.4,109.2,31.8,108.5,31.8z M107.4,62.8h-21V34.2h21V62.8z"/>
	<path id="XMLID_137_" style="fill:#1291C7;stroke:#05425B;stroke-miterlimit:10;" d="M21.6,74h36.2c1.3,0,2.3-1,2.3-2.3
		c0-1.3-1-2.3-2.3-2.3H21.6c-1.3,0-2.3,1-2.3,2.3C19.3,72.9,20.3,74,21.6,74z"/>
	<path id="XMLID_136_" style="fill:#1291C7;stroke:#05425B;stroke-miterlimit:10;" d="M74.7,82.7H21.6c-1.3,0-2.3,1-2.3,2.3
		c0,1.3,1,2.3,2.3,2.3h53.1c1.3,0,2.3-1,2.3-2.3C77,83.8,76,82.7,74.7,82.7z"/>
</g>
</svg>
