<svg xmlns="http://www.w3.org/2000/svg" width="73.142" height="73.078" viewBox="0 0 73.142 73.078">
  <g id="Group_5814" data-name="Group 5814" transform="translate(1653.198 -1609.169)">
    <g id="Group_5808" data-name="Group 5808">
      <g id="Component_25_1" data-name="Component 25 – 1" transform="translate(-1653.198 1609.169)">
        <path id="Path_8573" data-name="Path 8573" d="M-1599.071,1641.667c2.242-2.28,4.471-4.572,6.729-6.837,2.891-2.9,5.579-2.9,8.471-.029.714.709,1.435,1.413,2.134,2.137a4.936,4.936,0,0,1,.018,7.408c-3.287,3.356-6.629,6.659-9.95,9.981-2.3,2.305-4.648,4.573-6.894,6.934a3.211,3.211,0,0,0-.8,1.98c-.073,4.217-.03,8.436-.043,12.655a6.068,6.068,0,0,1-6.314,6.343q-20.565.015-41.131,0a6.01,6.01,0,0,1-6.329-6.3q-.009-25.6-.014-51.2a6.131,6.131,0,0,1,1.815-4.531q4.561-4.592,9.149-9.156a6.284,6.284,0,0,1,4.654-1.883c10.594.022,21.189,0,31.783.014a6.075,6.075,0,0,1,6.387,6.416q.016,11.865,0,23.729v2.142Zm-50.073-16.707v1.475q0,24.383,0,48.765c0,2.345.638,2.984,2.986,2.986q10.213.006,20.426,0,9.781,0,19.563,0c1.338,0,2.557-.362,2.615-1.847.126-3.231.039-6.471.039-9.708l-.353-.218c-1.079,1.12-2.1,2.309-3.263,3.332a3.807,3.807,0,0,1-2.107.951c-2.151.123-4.313.056-6.471.036-1.763-.016-2.417-.653-2.444-2.436-.031-2.013.043-4.028-.01-6.041a3.5,3.5,0,0,1,1.151-2.792c4.2-4.138,8.339-8.343,12.534-12.487a3.045,3.045,0,0,0,1-2.38c-.037-9.541-.025-19.083-.026-28.624,0-2.05-.682-2.741-2.783-2.742q-14.96-.01-29.92,0c-.368,0-.735.065-1.208.109,0,3,.008,5.92,0,8.839-.008,2.054-.717,2.763-2.766,2.77C-1643.1,1624.968-1646.02,1624.961-1649.144,1624.961Zm54.62,17.465a13.064,13.064,0,0,1-1.095,1.473c-5.544,5.572-11,11.237-16.716,16.629-2,1.884-1.81,3.836-1.623,6.143a21.049,21.049,0,0,0,2.941-.034,3.679,3.679,0,0,0,1.976-.808c6.036-5.961,12.021-11.973,18.017-17.975.323-.323.62-.671.884-.958Zm7.66,1.623a30.5,30.5,0,0,0,2.2-2.6,1.631,1.631,0,0,0,.086-1.478c-2.653-3.786-3.5-3.83-6.551-.473a.287.287,0,0,0-.051.177Zm-54.82-27.154-3.925,3.829h3.925Z" transform="translate(1653.198 -1609.169)"/>
      </g>
    </g>
    <path id="Path_8574" data-name="Path 8574" d="M-1606.41,1688.827c5.512,0,11.024.009,16.537-.007,1.111,0,1.987.468,2.106,1.523a3.665,3.665,0,0,1-.755,2.122c-.191.295-.855.393-1.306.394q-16.537.027-33.074,0a2.081,2.081,0,0,1-2.324-2c-.024-1.21.94-2.036,2.422-2.037q8.2-.009,16.393,0Z" transform="translate(-19.892 -56.645)"/>
    <path id="Path_8575" data-name="Path 8575" d="M-1606.366,1732.7q-8.2,0-16.391,0c-1.482,0-2.436-.822-2.426-2.043s.951-2.015,2.456-2.016q16.32-.01,32.639,0c1.514,0,2.471.781,2.51,1.971.04,1.239-.945,2.078-2.539,2.082C-1595.535,1732.711-1600.951,1732.7-1606.366,1732.7Z" transform="translate(-19.923 -84.962)"/>
    <path id="Path_8576" data-name="Path 8576" d="M-1573.723,1649.01q5.311,0,10.621,0c1.607,0,2.585.785,2.561,2.033-.024,1.212-.961,2-2.462,2q-10.836.014-21.672,0c-1.507,0-2.477-.789-2.5-1.97-.028-1.24.989-2.077,2.548-2.078q5.454-.006,10.908,0Z" transform="translate(-46.949 -28.325)"/>
    <path id="Path_8577" data-name="Path 8577" d="M-1613.7,1808.272c2.971,0,5.943-.01,8.914,0,1.548.006,2.495.744,2.536,1.927.044,1.263-.932,2.12-2.5,2.123q-8.986.016-17.972,0c-1.506,0-2.445-.8-2.456-2.014s.911-2.023,2.422-2.031C-1619.742,1808.261-1616.723,1808.272-1613.7,1808.272Z" transform="translate(-19.923 -141.592)"/>
    <path id="Path_8578" data-name="Path 8578" d="M-1613.8,1772.522q-4.458,0-8.916,0c-1.5,0-2.475-.766-2.513-1.96-.039-1.219.888-2.079,2.381-2.084q9.131-.028,18.261,0a2.031,2.031,0,0,1,2.3,2.008,2.092,2.092,0,0,1-2.307,2.02c-3.068.018-6.136.006-9.2.006Z" transform="translate(-19.892 -113.285)"/>
  </g>
</svg>
