<svg id="Group_5848" data-name="Group 5848" xmlns="http://www.w3.org/2000/svg" width="118.712" height="122.032" viewBox="0 0 118.712 122.032">
  <path id="Path_8621" data-name="Path 8621" d="M2205.552,456.334c.174-1.277.277-2.568.535-3.828a28.169,28.169,0,0,1,15.6-20.474,26.784,26.784,0,0,1,13.953-2.843,28.79,28.79,0,0,1,26.994,24.384,28.453,28.453,0,0,1-.887,12.427c-.061.211-.123.421-.18.633a1.225,1.225,0,0,0-.021.188c19.386,2.182,38.3-10.682,43.636-29.671-.45.279-.825.51-1.2.744-2.53,1.583-5.05,3.182-7.592,4.745a3.274,3.274,0,1,1-3.5-5.533c2.986-1.887,5.991-3.742,8.986-5.615,2.083-1.3,4.156-2.621,6.242-3.919a3.286,3.286,0,0,1,5.006,1.124q4.765,7.578,9.489,15.182a3.228,3.228,0,0,1-1.012,4.644,3.261,3.261,0,0,1-4.582-1.265c-1.772-2.848-3.557-5.689-5.4-8.628-.292.886-.544,1.688-.818,2.482a48.111,48.111,0,0,1-36.634,31.711,50,50,0,0,1-11.6.76c-1.093-.051-2.183-.208-3.27-.347a1.055,1.055,0,0,0-1.2.5,28.157,28.157,0,0,1-18.891,12.374c-1.094.2-2.211.29-3.318.43h-3.3a5.049,5.049,0,0,0-.635-.122,26.938,26.938,0,0,1-7.179-1.492,28.642,28.642,0,0,1-18.71-21.8c-.214-1.2-.35-2.416-.523-3.625Zm28.6-20.657A22.142,22.142,0,1,0,2256.36,457.5,22.076,22.076,0,0,0,2234.154,435.677Z" transform="translate(-2205.552 -364.505)" fill="#fff"/>
  <path id="Path_8622" data-name="Path 8622" d="M2339.2-15.544c-.217,1.446-.354,2.91-.665,4.336a28.07,28.07,0,0,1-13.309,18.69,27.06,27.06,0,0,1-12.287,3.907,28.09,28.09,0,0,1-22.306-7.913,28.036,28.036,0,0,1-8.3-15.381,28.287,28.287,0,0,1,.862-13.963c.051-.162.076-.332.13-.577a40.306,40.306,0,0,0-25.831,6.672,41.219,41.219,0,0,0-17.141,23.259c3.1-1.822,6.078-3.584,9.069-5.33a3.248,3.248,0,0,1,4.756,1.454,3.257,3.257,0,0,1-1.438,4.2c-2.773,1.646-5.558,3.273-8.337,4.908-2.287,1.346-4.583,2.676-6.856,4.044-1.341.807-2.684,1.111-4.06.161a3.43,3.43,0,0,1-.981-1.04c-3.09-5.23-6.148-10.479-9.232-15.713a3.294,3.294,0,0,1,1.181-4.66,3.16,3.16,0,0,1,4.342,1.2c1.592,2.653,3.143,5.329,4.712,8,.162.274.328.545.523.868.563-1.566,1.04-3.061,1.631-4.51a47.857,47.857,0,0,1,18.654-22.579,47.511,47.511,0,0,1,18.139-7,44.416,44.416,0,0,1,13.443-.2.652.652,0,0,0,.729-.373,28.147,28.147,0,0,1,9.789-9.114A27.571,27.571,0,0,1,2306.9-45.63c.652-.074,1.3-.166,1.952-.25h3.3c1.084.137,2.176.227,3.25.419a28.131,28.131,0,0,1,13.931,6.649,28.14,28.14,0,0,1,9.233,15.831c.279,1.366.426,2.759.634,4.139Zm-28.59,20.5A22.063,22.063,0,0,0,2332.6-18.636a22.127,22.127,0,0,0-23.5-20.643,22.02,22.02,0,0,0-20.667,23.5A22.03,22.03,0,0,0,2310.611,4.958Z" transform="translate(-2220.489 45.88)" fill="#fff"/>
  <path id="Path_8623" data-name="Path 8623" d="M2340.473,548.357h3.837v3.672h2.5v-3.664h3.865c0,1.148.014,2.283-.006,3.417-.007.412.085.586.546.694a5.713,5.713,0,0,1,4.177,3.2,5.2,5.2,0,0,1-2.6,6.669c-.366.185-.746.343-.978.449a16.8,16.8,0,0,1,3.083,1.725,5.571,5.571,0,0,1-.772,8.718,12.7,12.7,0,0,1-2.913,1.307c-.405.144-.509.287-.5.668.017,1.159.007,2.318.007,3.519h-3.865v-3.709h-2.487v3.705h-3.884v-3.754h-5.9V571.82c.423,0,.855.011,1.288,0,.983-.03,1.349-.393,1.35-1.374q.007-6.892,0-13.785c0-1-.28-1.307-1.259-1.384-.435-.034-.875-.005-1.362-.005v-3.2h5.888ZM2343,564.6c0,2.192-.014,4.184.025,6.175a.757.757,0,0,0,.543.5,42.608,42.608,0,0,0,4.533-.153,3.137,3.137,0,0,0,2.594-3.187,2.676,2.676,0,0,0-2.468-2.961C2346.519,564.726,2344.78,564.715,2343,564.6Zm-.056-3.2c.966,0,1.865,0,2.763,0a4.225,4.225,0,0,0,.789-.024,11.925,11.925,0,0,0,2.219-.51,2.489,2.489,0,0,0,1.533-2.587,2.434,2.434,0,0,0-2.072-2.3,8.606,8.606,0,0,0-1.626-.2c-1.193-.029-2.387-.009-3.606-.009Z" transform="translate(-2317.553 -469.968)" fill="#fff"/>
  <g id="Group_5848-2" data-name="Group 5848" transform="translate(-809.333 -82.58)">
    <path id="Path_13832" data-name="Path 13832" d="M888.487,110.242q4.818-7.587,9.638-15.173c.368-.578.91-.543,1.3.078l8.051,12.666c.445.7.892,1.4,1.333,2.1a.7.7,0,0,1-.272,1.132q-4.688,2.69-9.38,5.373a.781.781,0,0,1-.849-.017c-3.059-1.758-6.124-3.505-9.18-5.27a3.994,3.994,0,0,1-.645-.589Zm10.967-12.487c-.014.154-.022.2-.022.243,0,2.53,0,5.061-.007,7.591,0,.233.12.291.289.363q2.82,1.2,5.637,2.416l1.054.452.043-.059Zm-8.448,11.083c.145-.047.2-.061.255-.084,2.189-.937,4.375-1.88,6.568-2.807.225-.1.245-.231.245-.432q-.006-3.7,0-7.4c0-.09-.017-.18-.033-.344Zm8.443,5.822,7.308-4.181-7.308-3.139Zm-8.7-4.181,7.3,4.178v-7.312Z" transform="translate(0 0)" fill="#fff" stroke="#fff" stroke-width="1"/>
    <path id="Path_13833" data-name="Path 13833" d="M888.487,338.911c.4-.607.653-.667,1.3-.3q4.332,2.477,8.66,4.962a.527.527,0,0,0,.609,0q4.374-2.521,8.76-5.022c.538-.308,1.087-.14,1.142.389a1.214,1.214,0,0,1-.264.743c-1.47,2.025-2.959,4.037-4.443,6.053l-4.809,6.533c-.483.656-.9.65-1.392-.014q-4.594-6.246-9.189-12.49c-.132-.18-.25-.371-.375-.557Zm17.254,2.479a1.379,1.379,0,0,0-.19.056c-1.972,1.127-3.946,2.251-5.909,3.393a.565.565,0,0,0-.2.421c-.016,1.233-.009,2.466-.009,3.7v.882l.076.02Zm-13.892.013-.04.05,6.262,8.51v-.41c0-1.423-.008-2.846.007-4.269a.521.521,0,0,0-.317-.525c-1.868-1.059-3.73-2.13-5.594-3.2C892.063,341.5,891.955,341.455,891.849,341.4Z" transform="translate(0 -225.269)" fill="#fff" stroke="#fff" stroke-width="1"/>
  </g>
</svg>
