<svg xmlns="http://www.w3.org/2000/svg" width="12.885" height="14.8" viewBox="0 0 12.885 14.8">
  <path id="Path_7224" data-name="Path 7224" d="M2965.689,325.99c-.027.01-3.545-.017-5.227-1.7a.7.7,0,0,0-.492-.213h-.017a.67.67,0,0,0-.472.209c-1.683,1.683-5.212,1.7-5.248,1.7a.709.709,0,0,0-.706.706v5.733c0,2.2,2.043,4.316,6.074,6.284l.059.04a.485.485,0,0,0,.3.125,4.125,4.125,0,0,0,.428-.09c3.984-2.047,6.029-4.193,6.029-6.359V326.7A.777.777,0,0,0,2965.689,325.99Zm-.69,6.44c0,1.5-1.7,3.2-4.912,4.9l-.117.063-.117-.063c-3.26-1.732-4.914-3.382-4.914-4.9v-5.106l.233-.017a10.432,10.432,0,0,0,4.668-1.491l.13-.079.13.079a10.414,10.414,0,0,0,4.667,1.491l.232.017Z" transform="translate(-2953.527 -324.079)" fill="#50c5fd"/>
</svg>
