<svg xmlns="http://www.w3.org/2000/svg" xmlns:xlink="http://www.w3.org/1999/xlink" width="29" height="29" viewBox="0 0 29 29">
  <defs>
    <radialGradient id="radial-gradient" cx="0.274" cy="0.704" r="0" gradientUnits="objectBoundingBox">
      <stop offset="0" stop-color="#fff" stop-opacity="0.102"/>
      <stop offset="1" stop-color="#fff" stop-opacity="0"/>
    </radialGradient>
  </defs>
  <g id="Group_5289" data-name="Group 5289" transform="translate(0 0.057)">
    <g id="Group_5288" data-name="Group 5288" transform="translate(1.79 1.636)">
      <circle id="Ellipse_622" data-name="Ellipse 622" cx="0.981" cy="0.981" r="0.981" transform="translate(0 11.778)" fill="#bdbdbd"/>
      <circle id="Ellipse_623" data-name="Ellipse 623" cx="0.981" cy="0.981" r="0.981" transform="translate(11.778)" fill="#bdbdbd"/>
      <circle id="Ellipse_624" data-name="Ellipse 624" cx="0.981" cy="0.981" r="0.981" transform="translate(11.778 23.555)" fill="#bdbdbd"/>
      <circle id="Ellipse_625" data-name="Ellipse 625" cx="0.981" cy="0.981" r="0.981" transform="translate(3.436 3.45)" fill="#bdbdbd"/>
      <circle id="Ellipse_626" data-name="Ellipse 626" cx="0.981" cy="0.981" r="0.981" transform="translate(3.436 20.12)" fill="#bdbdbd"/>
    </g>
    <circle id="Ellipse_627" data-name="Ellipse 627" cx="0.981" cy="0.981" r="0.981" transform="translate(21.909 21.756)" fill="#757575"/>
    <path id="Path_8547" data-name="Path 8547" d="M1156.508,1155.364h11.777a1.306,1.306,0,0,1,1.3,1.227c0-.028,0-.055,0-.082a1.308,1.308,0,0,0-1.308-1.308h-11.777a1.308,1.308,0,0,0-1.308,1.308.647.647,0,0,0,0,.082A1.305,1.305,0,0,1,1156.508,1155.364Z" transform="translate(-1141.96 -1142.114)" fill="rgba(255,255,255,0.2)"/>
    <path id="Path_8548" data-name="Path 8548" d="M1169.589,1275a1.31,1.31,0,0,1-1.3,1.227h-11.777a1.306,1.306,0,0,1-1.3-1.227.635.635,0,0,0,0,.081,1.308,1.308,0,0,0,1.308,1.308h11.777a1.308,1.308,0,0,0,1.308-1.308A.658.658,0,0,0,1169.589,1275Z" transform="translate(-1141.96 -1260.524)" fill="rgba(33,33,33,0.2)"/>
    <path id="Path_8549" data-name="Path 8549" d="M487.46,391.583a9.135,9.135,0,0,1,6.477,2.683l3.781-3.784-.081-.082-3.7,3.7a9.16,9.16,0,0,0-15.637,6.477c0,.028,0,.055,0,.082a9.159,9.159,0,0,1,9.159-9.078Z" transform="translate(-472.911 -386.185)" fill="rgba(33,33,33,0.1)"/>
    <circle id="Ellipse_628" data-name="Ellipse 628" cx="14.5" cy="14.5" r="14.5" transform="translate(0 -0.057)" fill="url(#radial-gradient)"/>
  </g>
</svg>
