<svg xmlns="http://www.w3.org/2000/svg" width="25" height="25" viewBox="0 0 25 25">
  <g id="Group_5757" data-name="Group 5757" transform="translate(-259 -232)">
    <path id="_8eadefd1-507f-4caf-bec5-9d1092736d64" data-name="8eadefd1-507f-4caf-bec5-9d1092736d64" d="M8.75,6.875a.625.625,0,0,1,.625-.625h6.25a.625.625,0,0,1,0,1.25H9.375A.625.625,0,0,1,8.75,6.875ZM9.375,10h6.25a.625.625,0,0,0,0-1.25H9.375a.625.625,0,0,0,0,1.25Zm5,1.25h-3.75a.625.625,0,0,0,0,1.25h3.75a.625.625,0,0,0,0-1.25ZM25,10.937V21.875A3.125,3.125,0,0,1,21.981,25l-.105,0H3.125c-.035,0-.07,0-.1,0A3.125,3.125,0,0,1,0,21.875V10.937a3.125,3.125,0,0,1,1.25-2.5l2.5-2.083V5.312A2.815,2.815,0,0,1,6.563,2.5H8.377L10.54.7A3.1,3.1,0,0,1,14.46.7l2.162,1.8h1.815A2.815,2.815,0,0,1,21.25,5.312V6.355l2.5,2.083A3.125,3.125,0,0,1,25,10.937ZM21.924,23.749c.049,0,.1-.007.154-.012a1.693,1.693,0,0,0,.429-.11l-8.761-6.953a2.046,2.046,0,0,0-2.493,0L2.49,23.626a1.693,1.693,0,0,0,.429.11c.049,0,.1.01.154.012h18.85ZM1.5,22.815,8.331,17.4,3.75,13.648v-.017l-2.5-2.051V21.875a1.863,1.863,0,0,0,.253.94Zm21.993,0a1.863,1.863,0,0,0,.254-.94V11.582l-2.5,2.051v.017L16.669,17.4ZM21.25,7.982v4.034l2.285-1.874.027-.02A1.876,1.876,0,0,0,23,9.438q-.025-.019-.049-.04ZM10.33,2.5h4.339L13.66,1.66a1.85,1.85,0,0,0-2.332.009ZM5,5.312v7.728l4.086,3.351a.629.629,0,0,1,.059.056l.188.154,1.143-.907a3.3,3.3,0,0,1,4.047,0l1.143.907.188-.154a.629.629,0,0,1,.059-.056L20,13.041V5.312A1.562,1.562,0,0,0,18.437,3.75H6.563A1.563,1.563,0,0,0,5,5.312ZM1.438,10.122l.027.02L3.75,12.015V7.982L2.051,9.4,2,9.437a1.875,1.875,0,0,0-.563.684Z" transform="translate(259 232)" fill="#141f38"/>
  </g>
</svg>
