<svg id="Sms_Verification" data-name="Sms Verification" xmlns="http://www.w3.org/2000/svg" width="20.597" height="29.344" viewBox="0 0 20.597 29.344">
  <path id="Path_8534" data-name="Path 8534" d="M-633.8,351.963q0-5.855,0-11.71a2.813,2.813,0,0,1,2.955-2.972c4.079,0,8.157.009,12.236,0a2.83,2.83,0,0,1,2.87,2.879c-.014.27,0,.541,0,.811a.735.735,0,0,1-.711.728.752.752,0,0,1-.74-.709c-.014-.281,0-.564,0-.846a1.321,1.321,0,0,0-1.4-1.391q-6.189,0-12.377,0a1.3,1.3,0,0,0-1.36,1.382q-.005,8.377,0,16.754c0,2.246.026,4.492-.014,6.736a1.467,1.467,0,0,0,1.555,1.54q6.012-.047,12.024,0a1.458,1.458,0,0,0,1.582-1.584c-.045-.891-.01-1.786-.008-2.68a2.116,2.116,0,0,1,.029-.385.7.7,0,0,1,.753-.591.69.69,0,0,1,.665.689c.008,1.164.034,2.329-.01,3.491a2.786,2.786,0,0,1-2.793,2.511q-4.708.008-9.415,0c-1,0-2,0-3,0a2.8,2.8,0,0,1-2.836-2.84q0-5.908,0-11.815Z" transform="translate(633.799 -337.279)" fill="#141f38"/>
  <path id="Path_8535" data-name="Path 8535" d="M-571.957,430.165V416.53h-14.376v11.155h8.123c.67,0,1.07.521.8,1.051a.762.762,0,0,1-.753.42c-1.928-.005-3.855,0-5.783,0-1.011,0-2.022,0-3.032,0a.739.739,0,0,1-.843-.844q0-6.207,0-12.415c0-.6.26-.855.862-.855q7.828,0,15.656.011a.736.736,0,0,1,.827.823q0,7.777,0,15.554a.762.762,0,0,1-.4.764.765.765,0,0,1-.827-.091c-.935-.63-1.876-1.251-2.811-1.88a.731.731,0,0,1-.292-1.055.749.749,0,0,1,1.109-.151C-573.123,429.384-572.562,429.761-571.957,430.165Z" transform="translate(591.067 -409.542)" fill="#141f38"/>
  <path id="Path_8536" data-name="Path 8536" d="M-540.359,542.95c1.633,0,3.265,0,4.9,0a.725.725,0,0,1,.7,1.1.793.793,0,0,1-.751.366q-2.2,0-4.4,0-2.643,0-5.286,0a.774.774,0,0,1-.846-.587.731.731,0,0,1,.79-.879q2.449,0,4.9,0Z" transform="translate(552.262 -528.416)" fill="#141f38"/>
  <path id="Path_8537" data-name="Path 8537" d="M-527.5,656.052a2.215,2.215,0,0,1-2.226,2.2,2.21,2.21,0,0,1-2.212-2.25,2.215,2.215,0,0,1,2.241-2.188A2.218,2.218,0,0,1-527.5,656.052Zm-2.209.74a.731.731,0,0,0,.744-.764.735.735,0,0,0-.765-.744.731.731,0,0,0-.743.764A.733.733,0,0,0-529.714,656.792Z" transform="translate(539.139 -631.451)" fill="#141f38"/>
  <path id="Path_8538" data-name="Path 8538" d="M-541.264,461.116q1.92,0,3.84,0c.521,0,.848.288.848.734s-.326.732-.851.732q-3.876,0-7.751,0a.738.738,0,0,1-.809-.736.736.736,0,0,1,.812-.732q1.955,0,3.911,0Z" transform="translate(552.191 -452.363)" fill="#141f38"/>
  <path id="Path_8539" data-name="Path 8539" d="M-542.78,503.523q-1.161,0-2.322,0c-.55,0-.882-.274-.887-.729s.326-.739.872-.739q2.34,0,4.679,0c.557,0,.873.273.869.74,0,.444-.328.724-.853.726C-541.208,503.525-541.994,503.523-542.78,503.523Z" transform="translate(552.193 -490.412)" fill="#141f38"/>
</svg>
