<svg id="f0606ed4-078e-4bc5-9b99-03230ef3ea0a" data-name="katman 1" xmlns="http://www.w3.org/2000/svg" viewBox="0 0 841 595"><path d="M104.46,306.88h25.13v-9H106.1a9.65,9.65,0,0,1-.46-19.27c.27,0,18.82,0,24,0v-9c-6.52,0-25.36,0-25.84,0-9.41.63-16.85,9-16.85,18.55C86.9,298.07,94.72,306.65,104.46,306.88Z" fill="#004187" fill-rule="evenodd"/><path d="M162.17,297.52H150.28a9.23,9.23,0,0,1-.46-18.45c.17,0,12.64,0,12.81,0a9.23,9.23,0,0,1-.46,18.45Zm1.94-27.81c-.45,0-15.32,0-15.78,0-9.4.63-16.85,9-16.85,18.57,0,9.8,7.83,18.37,17.57,18.61H163.4c9.74-.24,17.57-8.81,17.57-18.61C181,278.73,173.52,270.34,164.11,269.71Z" fill="#004187"/><polygon points="424.14 297.92 394.63 297.92 394.63 269.69 384.85 269.69 384.85 306.89 424.14 306.89 424.14 297.92" fill="#004187"/><polygon points="229.88 306.89 239.7 306.89 239.7 269.69 229.92 269.69 229.92 292.81 207.47 269.75 197.28 269.69 197.28 306.86 207.06 306.86 207.06 283.74 229.88 306.89" fill="#004187"/><rect x="184.24" y="269.69" width="9.78" height="37.2" fill="#004187"/><polygon points="269.18 306.89 269.18 278.65 285.63 278.65 285.63 269.69 242.94 269.69 242.94 278.65 259.39 278.65 259.39 306.89 269.18 306.89" fill="#004187"/><path d="M298.7,278.77h19.17a5.17,5.17,0,0,1,5.23,5.17c0,2.85-2.31,4.21-5.16,4.21H298.7Zm0,19.13h10.35l8.88,9h13.68L322,297.16a14.1,14.1,0,0,0-4.2-27.47H288.92v37.2h9.78Z" fill="#004187"/><path d="M358.15,279l4.82,9.2h-9.63Zm-9.5,19.32h19l4.51,8.61h11.1l-19.52-37.2H352.57L333,306.89h11.11Z" fill="#004187"/><path d="M428,304.51h.4a.3.3,0,0,1,.14.05c.05,0,.07.08.07.17a.21.21,0,0,1,0,.12.12.12,0,0,1-.06.06s0,0-.07,0H428Zm0,1.29v-.45h.24l.17.23a1.84,1.84,0,0,1,.17.22h.5l-.19-.26c-.07-.08-.13-.17-.2-.26a.54.54,0,0,0,.23-.22.58.58,0,0,0,.09-.33.64.64,0,0,0-.17-.45.6.6,0,0,0-.44-.16h-.8v1.68Zm.26-2.28a1.38,1.38,0,0,0-.56.12,1.57,1.57,0,0,0-.45.31,1.33,1.33,0,0,0-.31.46,1.3,1.3,0,0,0-.12.55,1.44,1.44,0,0,0,.43,1,1.57,1.57,0,0,0,.45.31,1.36,1.36,0,0,0,.56.11,1.3,1.3,0,0,0,.56-.11,1.49,1.49,0,0,0,.46-.31,1.38,1.38,0,0,0,.42-1,1.46,1.46,0,0,0-.11-.55,1.45,1.45,0,0,0-.77-.77A1.31,1.31,0,0,0,428.23,303.52Zm0,3.37a1.93,1.93,0,0,1-.75-.15,2.11,2.11,0,0,1-.61-.41,2,2,0,0,1-.41-.62,1.92,1.92,0,0,1,.41-2.1,1.93,1.93,0,0,1,.61-.41,1.78,1.78,0,0,1,.75-.16,1.71,1.71,0,0,1,.75.16,1.82,1.82,0,0,1,.61.41,1.75,1.75,0,0,1,.42.61,1.93,1.93,0,0,1,0,1.49,1.89,1.89,0,0,1-.42.62,2,2,0,0,1-.61.41A1.86,1.86,0,0,1,428.23,306.89Z" fill="#004187" fill-rule="evenodd"/><rect x="59.6" y="267.2" width="15.46" height="15.47" rx="1.77" transform="translate(-174.68 128.13) rotate(-45)" fill="#004187"/><rect x="45.93" y="280.85" width="15.46" height="15.47" rx="1.77" transform="translate(-188.34 122.47) rotate(-45)" fill="#009cde"/><rect x="59.66" y="294.58" width="15.46" height="15.47" rx="1.77" transform="translate(-194.03 136.2) rotate(-45)" fill="#004187"/><g opacity="0.5"><path d="M445.93,307.38h-1.18V269.86h1.18Z" fill="#134383"/></g><path d="M474.65,299.45H463.78l-2.58,7.44h-4L467.63,278H471l10.2,28.89h-4Zm-9.74-3.28h8.63l-4.21-12.4h-.11Z" fill="#134383"/><path d="M489.12,306.89h-3.91v-31h3.91Z" fill="#134383"/><path d="M500.57,280.24v5.18h4.07v2.9h-4.07v13a3,3,0,0,0,.62,2.13,2.27,2.27,0,0,0,1.66.61,3.47,3.47,0,0,0,.75-.09,5.24,5.24,0,0,0,.7-.19l.53,2.68a3.38,3.38,0,0,1-1.29.59,6.54,6.54,0,0,1-1.68.23,5.06,5.06,0,0,1-3.79-1.44,6.26,6.26,0,0,1-1.41-4.52v-13h-3.41v-2.9h3.41v-5.18Z" fill="#134383"/><path d="M512.93,306.89H509V285.42h3.91Z" fill="#134383"/><path d="M522.54,285.42l.27,3.19A7.92,7.92,0,0,1,525.5,286a7.27,7.27,0,0,1,3.68-.94,7,7,0,0,1,5.38,2c1.27,1.35,1.9,3.45,1.9,6.28v13.55h-3.9V293.42a5.78,5.78,0,0,0-1.13-4A4.44,4.44,0,0,0,528,288.2a6.08,6.08,0,0,0-3.06.72,5.23,5.23,0,0,0-2,2v15.93H519V285.42Z" fill="#134383"/></svg>