<?xml version="1.0" encoding="utf-8"?>
<!-- Generator: Adobe Illustrator 24.2.3, SVG Export Plug-In . SVG Version: 6.00 Build 0)  -->
<svg version="1.0" id="Capa_1" xmlns="http://www.w3.org/2000/svg" xmlns:xlink="http://www.w3.org/1999/xlink" x="0px" y="0px"
	 viewBox="0 0 457.6 457.6" style="enable-background:new 0 0 457.6 457.6;" xml:space="preserve">
<g>
	<path style="fill:#1291C7;stroke:#05425B;stroke-miterlimit:10;" d="M457.1,265l-27.4-54c-0.4-0.7-1-1.3-1.7-1.7l-50.2-26.6l13.3-8
		c1-0.6,1.7-1.7,1.9-2.9c0.2-1.2-0.2-2.4-1.1-3.3c0,0-40.8-42.6-40.9-42.7L304,83.3c-1.3-1.2-3.2-1.4-4.7-0.5l-52.1,30.6l-54.6-28.9
		c-1.1-0.6-2.5-0.6-3.7,0l-55.8,28.3c-0.7,0.4-1.3,0.9-1.7,1.6L104,164c-1.1,1.9-0.4,4.3,1.5,5.4l23.4,13.6L11.7,251.9
		c-1,0.6-1.7,1.6-1.9,2.7l-9.7,53.1c-0.2,1.2,0.1,2.4,0.9,3.3l54,62.8c0.8,0.9,1.9,1.4,3,1.4c0.7,0,1.4-0.2,2.1-0.6l195.4-118.1
		l116.4,67.7c0.6,0.4,1.3,0.5,2,0.5c0.8,0,1.6-0.2,2.2-0.7l79.6-54C457.5,269,458,266.8,457.1,265z M418.2,213.2l-47.9,30.4
		l-48.4-27.1l47.9-29L418.2,213.2z M382.6,170.4l-321,194l-3.1-60.8l289-169.7L382.6,170.4z M300.8,91.2l40.7,36.8L55.3,296.2
		l-35.3-39.9L300.8,91.2z M190.7,92.6l48.4,25.7l-45.2,26.6l-50.4-28.2L190.7,92.6z M112.9,164.5l23.6-42.6l49.4,27.7l-49.1,28.8
		L112.9,164.5z M16.2,264.1l34.3,38.8l2.9,56.8L8.3,307.3L16.2,264.1z M314,221.2l52.5,29.4l3.1,63l-106.3-61.8L314,221.2z
		 M377.6,313.5l-3.1-63.1l50.1-31.8l23.8,46.9L377.6,313.5z"/>
</g>
</svg>
