<svg id="ec9e83b5-34f0-4c7f-81d9-156c47017213" data-name="katman 1" xmlns="http://www.w3.org/2000/svg" viewBox="0 0 841 595"><path d="M104.46,301.8h25.13v-9H106.1a9.65,9.65,0,0,1-.46-19.27c.27,0,18.82,0,24,0v-9c-6.52,0-25.36,0-25.84,0-9.41.63-16.85,9-16.85,18.55C86.9,293,94.72,301.57,104.46,301.8Z" fill="#004187" fill-rule="evenodd"/><path d="M162.17,292.44H150.28a9.23,9.23,0,0,1-.46-18.45c.17,0,12.64,0,12.81,0a9.23,9.23,0,0,1-.46,18.45Zm1.94-27.81c-.45,0-15.32,0-15.78,0-9.4.63-16.85,9-16.85,18.57,0,9.8,7.83,18.37,17.57,18.61H163.4C173.14,301.57,181,293,181,283.2,181,273.65,173.52,265.26,164.11,264.63Z" fill="#004187"/><polygon points="424.14 292.85 394.63 292.85 394.63 264.61 384.85 264.61 384.85 301.81 424.14 301.81 424.14 292.85" fill="#004187"/><polygon points="229.88 301.81 239.7 301.81 239.7 264.61 229.92 264.61 229.92 287.73 207.47 264.67 197.28 264.61 197.28 301.77 207.06 301.77 207.06 278.67 229.88 301.81" fill="#004187"/><rect x="184.24" y="264.61" width="9.78" height="37.2" fill="#004187"/><polygon points="269.18 301.81 269.18 273.57 285.63 273.57 285.63 264.61 242.94 264.61 242.94 273.57 259.39 273.57 259.39 301.81 269.18 301.81" fill="#004187"/><path d="M298.7,273.69h19.17a5.17,5.17,0,0,1,5.23,5.17c0,2.85-2.31,4.21-5.16,4.21H298.7Zm0,19.13h10.35l8.88,9h13.68L322,292.08a14.1,14.1,0,0,0-4.2-27.47H288.92v37.2h9.78Z" fill="#004187"/><path d="M358.15,273.88l4.82,9.2h-9.63Zm-9.5,19.32h19l4.51,8.61h11.1l-19.52-37.2H352.57L333,301.81h11.11Z" fill="#004187"/><path d="M428,299.43h.4a.3.3,0,0,1,.14.05c.05,0,.07.08.07.17a.21.21,0,0,1,0,.12.12.12,0,0,1-.06.06s0,0-.07,0H428Zm0,1.29v-.45h.24l.17.23a1.84,1.84,0,0,1,.17.22h.5l-.19-.26c-.07-.08-.13-.17-.2-.26a.54.54,0,0,0,.23-.22.58.58,0,0,0,.09-.33.64.64,0,0,0-.17-.45.6.6,0,0,0-.44-.16h-.8v1.68Zm.26-2.28a1.38,1.38,0,0,0-.56.12,1.57,1.57,0,0,0-.45.31,1.33,1.33,0,0,0-.31.46,1.3,1.3,0,0,0-.12.55,1.44,1.44,0,0,0,.43,1,1.57,1.57,0,0,0,.45.31,1.36,1.36,0,0,0,.56.11,1.3,1.3,0,0,0,.56-.11,1.49,1.49,0,0,0,.46-.31,1.38,1.38,0,0,0,.42-1,1.46,1.46,0,0,0-.11-.55,1.45,1.45,0,0,0-.77-.77A1.31,1.31,0,0,0,428.23,298.44Zm0,3.37a1.93,1.93,0,0,1-.75-.15,2.11,2.11,0,0,1-.61-.41,2,2,0,0,1-.41-.62,1.92,1.92,0,0,1,.41-2.1,1.93,1.93,0,0,1,.61-.41,1.78,1.78,0,0,1,.75-.16,1.71,1.71,0,0,1,.75.16,1.82,1.82,0,0,1,.61.41,1.75,1.75,0,0,1,.42.61,1.93,1.93,0,0,1,0,1.49,1.89,1.89,0,0,1-.42.62,2,2,0,0,1-.61.41A1.86,1.86,0,0,1,428.23,301.81Z" fill="#004187" fill-rule="evenodd"/><rect x="59.6" y="262.12" width="15.46" height="15.47" rx="1.77" transform="translate(-171.09 126.64) rotate(-45)" fill="#004187"/><rect x="45.93" y="275.77" width="15.46" height="15.47" rx="1.77" transform="translate(-184.75 120.98) rotate(-45)" fill="#009cde"/><rect x="59.66" y="289.5" width="15.46" height="15.47" rx="1.77" transform="translate(-190.44 134.71) rotate(-45)" fill="#004187"/><g opacity="0.5"><path d="M438.62,301.63h-1.18V264.11h1.18Z" fill="#134383"/></g><path d="M467.37,297.31a9.34,9.34,0,0,1-3.63,3,14.17,14.17,0,0,1-6.7,1.37,11.27,11.27,0,0,1-8.38-3.36,11.82,11.82,0,0,1-3.32-8.68v-6a12.1,12.1,0,0,1,3.2-8.69,12.24,12.24,0,0,1,16-.75,8.33,8.33,0,0,1,2.75,6.62l0,.12h-3.8a6.11,6.11,0,0,0-1.73-4.45,6.53,6.53,0,0,0-4.9-1.78,6.63,6.63,0,0,0-5.41,2.52,9.7,9.7,0,0,0-2.05,6.37v6.07a9.47,9.47,0,0,0,2.17,6.42,7,7,0,0,0,5.55,2.52,10.29,10.29,0,0,0,4.11-.67,5.86,5.86,0,0,0,2.26-1.6v-6.59h-6.63v-3.1h10.59Z" fill="#134383"/><path d="M487,301.25c-.13-.66-.23-1.24-.31-1.74a12.81,12.81,0,0,1-.13-1.52,9.21,9.21,0,0,1-2.88,2.62,7.35,7.35,0,0,1-3.83,1.06,7.11,7.11,0,0,1-5.18-1.74,6.38,6.38,0,0,1-1.78-4.79,5.62,5.62,0,0,1,2.52-4.88,11.84,11.84,0,0,1,6.85-1.76h4.3v-2.15a4,4,0,0,0-1.16-3,4.57,4.57,0,0,0-3.3-1.12,4.75,4.75,0,0,0-3.12,1,2.88,2.88,0,0,0-1.18,2.31l-3.76,0,0-.12a5.2,5.2,0,0,1,2.22-4.35,9.22,9.22,0,0,1,6.1-2A9,9,0,0,1,488.3,281a6.67,6.67,0,0,1,2.25,5.42v10.48a20.65,20.65,0,0,0,.12,2.25,11.22,11.22,0,0,0,.45,2.13Zm-6.57-2.9a7,7,0,0,0,3.88-1.1,5.26,5.26,0,0,0,2.25-2.54v-3.53h-4.44a5.78,5.78,0,0,0-3.83,1.2,3.62,3.62,0,0,0-1.44,2.84,3,3,0,0,0,.91,2.29A3.78,3.78,0,0,0,480.46,298.35Z" fill="#134383"/><path d="M502.65,293.19l.71,2.73h.12l5.34-16.42h4.41l-9.15,25.09a11.28,11.28,0,0,1-2.36,3.81,5.43,5.43,0,0,1-4.15,1.63,7.9,7.9,0,0,1-1.23-.11,10.07,10.07,0,0,1-1.14-.21l.4-3.11a3.83,3.83,0,0,1,.71,0l1.06.06a2.46,2.46,0,0,0,2.07-1.13,11.86,11.86,0,0,0,1.34-2.49l1-2.27-8.08-21.31h4.42Z" fill="#134383"/><path d="M527,283l-2-.12a4.52,4.52,0,0,0-2.65.75,4.7,4.7,0,0,0-1.65,2.09v15.54h-4V279.5h3.53l.39,3.17a7.47,7.47,0,0,1,2.28-2.63,5.31,5.31,0,0,1,3.12-1,4.63,4.63,0,0,1,.85.08,3.63,3.63,0,0,1,.66.15Z" fill="#134383"/><path d="M535.4,273.93h-4v-4h4Zm0,27.32h-4V279.5h4Z" fill="#134383"/><path d="M545,279.5l.28,2.85A7.36,7.36,0,0,1,548,280a8.11,8.11,0,0,1,3.81-.86,6.72,6.72,0,0,1,3.72,1,6.14,6.14,0,0,1,2.35,3,8.07,8.07,0,0,1,2.72-2.95,7.11,7.11,0,0,1,3.93-1.08,6.53,6.53,0,0,1,5.25,2.29q1.94,2.28,1.93,6.86v13h-4V288.2c0-2.14-.37-3.66-1.11-4.55a4,4,0,0,0-3.29-1.34,4.19,4.19,0,0,0-3.29,1.41,6.12,6.12,0,0,0-1.48,3.56v14h-4V288.2a7.16,7.16,0,0,0-1.13-4.47,3.94,3.94,0,0,0-3.27-1.42,5.42,5.42,0,0,0-3,.75,4.77,4.77,0,0,0-1.79,2.09v16.1h-4V279.5Z" fill="#134383"/><path d="M586.48,301.67a9.2,9.2,0,0,1-7.3-3,11.55,11.55,0,0,1-2.63-7.89v-.88a11.25,11.25,0,0,1,2.71-7.75,8.48,8.48,0,0,1,6.6-3.07q4.36,0,6.54,2.72a11.14,11.14,0,0,1,2.18,7.22v2.09H580.67l-.06.1a9,9,0,0,0,1.45,5.31,5.06,5.06,0,0,0,4.42,2A10,10,0,0,0,590,298a7.81,7.81,0,0,0,2.6-1.58l1.55,2.58a9.63,9.63,0,0,1-3.07,1.9A12.42,12.42,0,0,1,586.48,301.67Zm-.62-19.46a4.31,4.31,0,0,0-3.43,1.6,7.58,7.58,0,0,0-1.66,4.09l0,.1h9.81v-.32a6.38,6.38,0,0,0-1.16-3.92A4.23,4.23,0,0,0,585.86,282.21Z" fill="#134383"/><path d="M602.57,279.5l.27,3.23a8,8,0,0,1,2.73-2.68,7.22,7.22,0,0,1,3.73-1,7.1,7.1,0,0,1,5.45,2.07c1.28,1.37,1.93,3.49,1.93,6.36v13.73h-4V287.6q0-2.88-1.14-4.08a4.53,4.53,0,0,0-3.47-1.21,6.21,6.21,0,0,0-3.1.73,5.29,5.29,0,0,0-2,2.07v16.14h-4V279.5Z" fill="#134383"/><path d="M628.44,291.22h-2v10h-4V269.89h4v18.17h2l6.53-8.56h4.74l-7.9,10,8.59,11.72h-4.69Z" fill="#134383"/><path d="M657.35,298a7.44,7.44,0,0,1-2.64,2.7,7.19,7.19,0,0,1-3.72.94,7,7,0,0,1-5.54-2.27c-1.33-1.52-2-3.87-2-7.08V279.5h4v12.86c0,2.32.34,3.92,1,4.79a3.81,3.81,0,0,0,3.2,1.3,6.54,6.54,0,0,0,3.49-.85,5.42,5.42,0,0,0,2.08-2.42V279.5h4v21.75h-3.56Z" fill="#134383"/><path d="M671.22,301.25h-4V269.89h4Z" fill="#134383"/></svg>