<?xml version="1.0" encoding="utf-8"?>
<!-- Generator: Adobe Illustrator 24.2.3, SVG Export Plug-In . SVG Version: 6.00 Build 0)  -->
<svg version="1.1" id="fc79b5bc-c9e7-4920-afb5-9e44c6b9f053"
	 xmlns="http://www.w3.org/2000/svg" xmlns:xlink="http://www.w3.org/1999/xlink" x="0px" y="0px" viewBox="0 0 841 595"
	 style="enable-background:new 0 0 841 595;" xml:space="preserve">
<style type="text/css">
	.st0{fill-rule:evenodd;clip-rule:evenodd;fill:#004187;}
	.st1{fill:#004187;}
	.st2{fill:#009CDE;}
	.st3{opacity:0.5;}
	.st4{fill:#134383;}
	.st5{fill:#004186;}
</style>
<path class="st0" d="M195.2,308h25.1v-9h-23.5c-5.3-0.1-9.5-4.6-9.4-9.9c0.1-5,4-9,8.9-9.4c0.3,0,18.8,0,24,0v-9
	c-6.5,0-25.4,0-25.8,0c-9.4,0.6-16.9,9-16.9,18.5C177.6,299.1,185.4,307.7,195.2,308z"/>
<path class="st1" d="M252.9,298.6H241c-5.1,0-9.2-4.1-9.3-9.2c0-4.9,3.9-9,8.8-9.3c0.2,0,12.6,0,12.8,0c5.1,0.2,9,4.6,8.8,9.6
	C261.9,294.7,257.8,298.6,252.9,298.6L252.9,298.6z M254.8,270.8c-0.4,0-15.3,0-15.8,0c-9.4,0.6-16.9,9-16.9,18.6
	c0,9.8,7.8,18.4,17.6,18.6h14.4c9.7-0.2,17.6-8.8,17.6-18.6C271.7,279.8,264.2,271.4,254.8,270.8z"/>
<polygon class="st1" points="514.9,299 485.3,299 485.3,270.8 475.6,270.8 475.6,308 514.9,308 "/>
<polygon class="st1" points="320.6,308 330.4,308 330.4,270.8 320.6,270.8 320.6,293.9 298.2,270.8 288,270.8 288,307.9 
	297.8,307.9 297.8,284.8 "/>
<rect x="275" y="270.8" class="st1" width="9.8" height="37.2"/>
<polygon class="st1" points="359.9,308 359.9,279.7 376.3,279.7 376.3,270.8 333.7,270.8 333.7,279.7 350.1,279.7 350.1,308 "/>
<path class="st1" d="M389.4,279.8h19.2c2.9,0,5.2,2.3,5.2,5.1c0,0,0,0,0,0.1c0,2.9-2.3,4.2-5.2,4.2h-19.2V279.8z M389.4,299h10.4
	l8.9,9h13.7l-9.6-9.7c7.4-2.5,11.4-10.5,8.9-17.8c-1.9-5.7-7.1-9.5-13.1-9.6h-28.9V308h9.8V299z"/>
<path class="st1" d="M448.9,280.1l4.8,9.2h-9.6L448.9,280.1z M439.4,299.4h19l4.5,8.6H474l-19.5-37.2h-11.2L423.7,308h11.1
	L439.4,299.4z"/>
<path class="st0" d="M518.7,305.6h0.4c0.1,0,0.1,0,0.1,0c0,0,0.1,0.1,0.1,0.2c0,0,0,0.1,0,0.1c0,0,0,0-0.1,0.1c0,0,0,0-0.1,0h-0.5
	V305.6z M518.7,306.9v-0.5h0.2l0.2,0.2c0.1,0.1,0.1,0.1,0.2,0.2h0.5l-0.2-0.3c-0.1-0.1-0.1-0.2-0.2-0.3c0.1,0,0.2-0.1,0.2-0.2
	c0.1-0.1,0.1-0.2,0.1-0.3c0-0.2-0.1-0.3-0.2-0.5c-0.1-0.1-0.3-0.2-0.4-0.2h-0.8v1.7L518.7,306.9z M519,304.6c-0.2,0-0.4,0-0.6,0.1
	c-0.2,0.1-0.3,0.2-0.5,0.3c-0.1,0.1-0.2,0.3-0.3,0.5c-0.1,0.2-0.1,0.4-0.1,0.5c0,0.4,0.2,0.7,0.4,1c0.1,0.1,0.3,0.2,0.5,0.3
	c0.2,0.1,0.4,0.1,0.6,0.1c0.2,0,0.4,0,0.6-0.1c0.2-0.1,0.3-0.2,0.5-0.3c0.3-0.3,0.4-0.6,0.4-1c0-0.2,0-0.4-0.1-0.5
	c-0.1-0.3-0.4-0.6-0.8-0.8C519.3,304.6,519.1,304.6,519,304.6L519,304.6z M519,308c-0.3,0-0.5-0.1-0.8-0.1c-0.2-0.1-0.4-0.2-0.6-0.4
	c-0.2-0.2-0.3-0.4-0.4-0.6c-0.3-0.7-0.1-1.5,0.4-2.1c0.2-0.2,0.4-0.3,0.6-0.4c0.2-0.1,0.5-0.2,0.8-0.2c0.3,0,0.5,0.1,0.8,0.2
	c0.2,0.1,0.4,0.2,0.6,0.4c0.2,0.2,0.3,0.4,0.4,0.6c0.2,0.5,0.2,1,0,1.5c-0.1,0.2-0.2,0.4-0.4,0.6c-0.2,0.2-0.4,0.3-0.6,0.4
	C519.5,307.9,519.2,308,519,308L519,308z"/>
<path class="st1" d="M148.4,274.8l8.4-8.4c0.7-0.7,1.8-0.7,2.5,0l8.4,8.4c0.7,0.7,0.7,1.8,0,2.5l-8.4,8.4c-0.7,0.7-1.8,0.7-2.5,0
	l-8.4-8.4C147.7,276.6,147.7,275.4,148.4,274.8z"/>
<path class="st2" d="M134.7,288.4l8.4-8.4c0.7-0.7,1.8-0.7,2.5,0l8.4,8.4c0.7,0.7,0.7,1.8,0,2.5l-8.4,8.4c-0.7,0.7-1.8,0.7-2.5,0
	l-8.4-8.4C134,290.2,134,289.1,134.7,288.4z"/>
<path class="st1" d="M148.4,302.1l8.4-8.4c0.7-0.7,1.8-0.7,2.5,0l8.4,8.4c0.7,0.7,0.7,1.8,0,2.5l-8.4,8.4c-0.7,0.7-1.8,0.7-2.5,0
	l-8.4-8.4C147.7,304,147.7,302.8,148.4,302.1z"/>
<g class="st3">
	<path class="st4" d="M536.6,308.5h-1.2v-37.5h1.2V308.5z"/>
</g>
<g>
	<path class="st5" d="M551.3,296.2v12.1h-3.8v-27.9h9.6c3.1,0,5.4,0.7,7,2c1.6,1.4,2.4,3.3,2.4,5.9c0,1.4-0.4,2.7-1.1,3.7
		c-0.7,1.1-1.8,1.9-3.3,2.5c1.5,0.5,2.6,1.3,3.3,2.4c0.7,1.1,1,2.5,1,4.2v2.6c0,0.9,0.1,1.7,0.3,2.3c0.2,0.7,0.5,1.3,1,1.7v0.5h-3.9
		c-0.5-0.4-0.8-1.1-1-1.9c-0.1-0.8-0.2-1.7-0.2-2.6v-2.6c0-1.5-0.4-2.7-1.3-3.6c-0.9-0.9-2.1-1.4-3.6-1.4H551.3z M551.3,293.2h5.4
		c2.1,0,3.7-0.4,4.6-1.2c0.9-0.8,1.4-2.1,1.4-3.7c0-1.6-0.5-2.8-1.4-3.7c-0.9-0.9-2.3-1.3-4.3-1.3h-5.8V293.2z"/>
	<path class="st5" d="M580.7,308.7c-3,0-5.3-1-7-2.9c-1.7-1.9-2.5-4.4-2.5-7.5v-0.8c0-3,0.9-5.4,2.6-7.4c1.7-2,3.8-2.9,6.3-2.9
		c2.8,0,4.9,0.9,6.2,2.6c1.4,1.7,2.1,4,2.1,6.9v2h-13.3l-0.1,0.1c0,2.1,0.5,3.8,1.4,5.1c0.9,1.3,2.3,1.9,4.2,1.9
		c1.3,0,2.4-0.2,3.4-0.5s1.8-0.9,2.5-1.5l1.5,2.5c-0.7,0.7-1.7,1.3-2.9,1.8C583.8,308.4,582.4,308.7,580.7,308.7z M580.1,290.1
		c-1.3,0-2.4,0.5-3.3,1.5c-0.9,1-1.4,2.3-1.6,3.9l0,0.1h9.4v-0.3c0-1.5-0.4-2.8-1.1-3.7C582.8,290.6,581.6,290.1,580.1,290.1z"/>
	<path class="st5" d="M605.4,308.3c-0.1-0.6-0.2-1.2-0.3-1.7c-0.1-0.5-0.1-1-0.1-1.4c-0.7,1-1.6,1.8-2.8,2.5c-1.1,0.7-2.4,1-3.7,1
		c-2.2,0-3.8-0.6-4.9-1.7c-1.1-1.1-1.7-2.6-1.7-4.6c0-2,0.8-3.5,2.4-4.7c1.6-1.1,3.8-1.7,6.5-1.7h4.1v-2.1c0-1.2-0.4-2.2-1.1-2.9
		c-0.7-0.7-1.8-1.1-3.1-1.1c-1.2,0-2.2,0.3-3,0.9c-0.8,0.6-1.1,1.3-1.1,2.2l-3.6,0l0-0.1c-0.1-1.5,0.6-2.9,2.1-4.1
		c1.5-1.3,3.4-1.9,5.8-1.9c2.4,0,4.2,0.6,5.7,1.8c1.4,1.2,2.1,2.9,2.1,5.2v10c0,0.7,0,1.5,0.1,2.1s0.2,1.4,0.4,2H605.4z
		 M599.1,305.5c1.4,0,2.6-0.4,3.7-1.1c1.1-0.7,1.8-1.5,2.1-2.4v-3.4h-4.2c-1.5,0-2.7,0.4-3.7,1.2c-0.9,0.8-1.4,1.7-1.4,2.7
		c0,0.9,0.3,1.7,0.9,2.2C597.1,305.2,598,305.5,599.1,305.5z"/>
	<path class="st5" d="M618.3,308.3h-3.8v-29.9h3.8V308.3z"/>
	<path class="st5" d="M629.4,282.5v5h3.9v2.8h-3.9v12.6c0,1,0.2,1.7,0.6,2.1s0.9,0.6,1.6,0.6c0.2,0,0.5,0,0.7-0.1
		c0.3-0.1,0.5-0.1,0.7-0.2l0.5,2.6c-0.3,0.2-0.7,0.4-1.2,0.6c-0.6,0.1-1.1,0.2-1.6,0.2c-1.5,0-2.8-0.5-3.7-1.4
		c-0.9-0.9-1.4-2.4-1.4-4.4v-12.6h-3.3v-2.8h3.3v-5H629.4z"/>
	<path class="st5" d="M643.7,300.6l0.7,2.6h0.1l5.1-15.7h4.2l-8.7,24c-0.5,1.4-1.3,2.6-2.3,3.6c-1,1-2.3,1.6-4,1.6
		c-0.3,0-0.7,0-1.2-0.1c-0.5-0.1-0.8-0.1-1.1-0.2l0.4-3c-0.1,0,0.2,0,0.7,0c0.5,0,0.9,0.1,1,0.1c0.8,0,1.5-0.4,2-1.1
		c0.5-0.7,0.9-1.5,1.3-2.4l0.9-2.2l-7.7-20.3h4.2L643.7,300.6z"/>
</g>
</svg>
