<svg xmlns="http://www.w3.org/2000/svg" width="408.465" height="275.467" viewBox="0 0 408.465 275.467">
  <g id="Group_5897" data-name="Group 5897" transform="translate(531.661 -6380.314)">
    <path id="Path_9106" data-name="Path 9106" d="M1784.385-921.331c1.24.095,2.481.272,3.721.273,23.214.017,46.428-.02,69.641.068a5.634,5.634,0,0,0,5.04-2.5q18.343-23.964,36.877-47.782c1.427-1.83,1.256-2.641-.542-4-8.457-6.374-16.779-12.925-25.2-19.351-1.713-1.308-2.373-1.958.27-3.034q49.208-20.054,98.354-40.261c1.054-.432,2.131-.808,3.683-1.394-5.049,37.361-10.047,74.348-15.116,111.862l-14.509-11.161c-4.35-3.347-8.762-6.617-13.017-10.08-1.789-1.456-2.7-1.2-4.061.594-5.705,7.5-11.579,14.874-17.39,22.294-.032-2.542.932-5.018.5-7.585a8.557,8.557,0,0,0,4.533-5.679c.466-2.071.112-4.11-2.206-5.065-2.114-.871-3.561.381-4.667,1.886a11.56,11.56,0,0,0-2.292,7.005,4.826,4.826,0,0,0-2.4,3.035q-2.688,7.709-5.561,15.352c-1.03,2.74-2.33,5.4-1.223,8.434-5.858,7.62-11.772,15.2-17.529,22.891a5.276,5.276,0,0,1-4.834,2.276q-44-.1-88.006-.054c-2.015,0-4.03-.1-6.044-.158.935-1.783,1.163-3.8-.406-5.068-4.067-3.274-6.042-8.125-9.447-11.843-1.748-1.908-1.777-3.389-.593-5.584,2.59-4.8,5.589-9.444,6.837-14.871C1780.643-921.163,1782.579-920.523,1784.385-921.331Z" transform="translate(-2099.429 7419.62)" fill="#b6e2f4"/>
    <path id="Path_9107" data-name="Path 9107" d="M1264.937-588.663c-2.69-.354-.763-1.5-.277-2.131,5.483-7.074,11.02-14.106,16.543-21.149q51.034-65.089,102.024-130.212a5.368,5.368,0,0,1,4.838-2.29c12.228.092,24.456.051,36.684.04,1.051,0,2.1-.112,3.155-.171,2.8.8,5.726-.089,8.536.61-.123,3.414,1.61,5.923,3.829,8.3,2.864,3.075,5.531,6.332,8.343,9.455,1.112,1.235,1.19,2.315-.043,3.451a71.866,71.866,0,0,0-30.791-1.88,68.341,68.341,0,0,0-55.166,50.674c-1.829,7.441-2.233,14.981-2.257,22.58q-13.638,17.346-27.269,34.7c-6.221,7.943-12.389,15.927-18.581,23.893-2.136,3.783-5.508,4.5-9.5,4a42.855,42.855,0,0,0-5.475-.035Q1282.233-588.749,1264.937-588.663Z" transform="translate(-1795.197 7242.976)" fill="#b6e2f4"/>
    <path id="Path_9108" data-name="Path 9108" d="M2089.173-752.736c-1.108-3.033.193-5.694,1.223-8.434q2.871-7.642,5.561-15.352a4.825,4.825,0,0,1,2.4-3.035,8.956,8.956,0,0,1,4.633,1.853c.435,2.567-.529,5.043-.5,7.585q-1.25,5.031-2.5,10.06a5.323,5.323,0,0,0,2.065,5.876,60.634,60.634,0,0,0,8.891,5.867c3.358,1.788,6.452,2.34,9.1-1.128,3.012.759,6.011-.922,9.024-.049,2.248,1.647,4.382,3.484,6.767,4.9,4.686,2.783,7.075,7.13,8.765,12.019,4.787,13.851,5.911,28.16,5.225,42.68a13.889,13.889,0,0,1-.71,2.775,4.555,4.555,0,0,1-5.424.008c-1.53-2.316-1.548-4.876-1.293-7.514a47.9,47.9,0,0,0-1.9-19.41c-.234-.732-.5-1.455-.8-2.163-.1-.233-.341-.405-.8-.921a64.723,64.723,0,0,0,.84,18.508c.639,3.909,1.689,7.917.937,11.749-1.554,7.923-1.023,15.877-1.208,23.819-.326,13.966.225,27.921.924,41.868a29.648,29.648,0,0,1-.388,6.882c-.533,6.4-.529,6.2-4.771,6.1-2.73-.069-3.5-1.081-2.984-3.591a12.491,12.491,0,0,0,.006-2.548c-.789-8.1-1.487-16.214-2.639-24.28-1.705-11.941-3.227-23.909-5.51-36.464-.326,1.511-.543,2.34-.679,3.182-2,12.327-3.833,24.677-5.355,37.073q-1.227,9.99-2.431,19.983c-.1.947-.21,1.892-.3,2.84-.369,4.068-.364,3.882-4.371,3.816-2.781-.046-3.751-1.043-3.244-3.727a17.365,17.365,0,0,0,.079-2.854c.974-.722.969-1.774,1.038-2.846.38-5.864.356-11.728.207-17.6-.317-12.4-1.253-24.805-.267-37.213.526-6.622,1.291-13.179.352-19.883-.523-3.736.207-7.669.541-11.5.586-6.707,1.479-13.4.811-20.151-.53-5.361-1.868-10.111-6.544-13.754-4.922-3.834-9-8.665-12.88-13.6C2090.6-751.92,2090.349-752.987,2089.173-752.736Z" transform="translate(-2289.785 7263.94)" fill="#2e3b41"/>
    <path id="Path_9110" data-name="Path 9110" d="M1682.318-829.6c-2.809-.7-5.733.189-8.536-.611.53-1.021,1.044-2.049,1.594-3.059,1.39-2.553,3.35-4.943,1.006-8.082-.573-.767-.282-2.24-.254-3.384a201.3,201.3,0,0,1,1.7-20.576,10.781,10.781,0,0,1,6.312-8.669c2.4-1.212,4.769-2.484,7.188-3.654,2.125-1.027,2.709-2.512,1.632-4.625a2.421,2.421,0,0,0,1.66-2.721c-.1-1.821.971-2.285,2.532-2.352,3.833-.164,7.71-.606,10.9,2.284a5.867,5.867,0,0,1-.066,2.007c-1.661,4.027.845,5.407,3.955,6.586a36.332,36.332,0,0,1,4.646,2.321c3.09,1.714,5.379,4.132,5.789,7.776.771,6.855,1.858,13.683,1.951,20.6a6.752,6.752,0,0,1-.645,3.356c-2.926,5.56-2.405,8.179,2.356,12.078-1.806.807-3.742.167-5.591.5-.182-2.791-1.317-4.362-4.474-4.2-2.076.106-2.99-1.574-3.173-3.445s-.637-4.374,1.682-4.965c2.723-.694,2.473-2.365,2.422-4.277-.038-1.44-.054-2.882-.007-4.321.085-2.623-1.04-3.947-3.772-3.848-2.3.083-4.62-.1-6.915.057-1.9.131-2.406-.636-2.1-2.333a17.971,17.971,0,0,0,.319-2.275c.255-4.859,1.987-9.606,1.113-14.55.076-.746.354-1.5-.125-2.222-4.255,2.66-4.909,2.655-9.124-.327-1.448-1.025-1.6-.283-1.482.968-1.982.86-1.849,2.75-2,4.392-.317,3.533-.41,7.085-.7,10.62-.472,5.7-.509,5.7-6.132,5.689-1.057,0-2.114-.026-3.17,0-3.091.075-3.9.859-3.917,3.985-.033,5.377.01,10.754-.018,16.13-.011,2.168.535,3.826,3.085,3.95C1683.22-830.729,1682.89-830.209,1682.318-829.6Z" transform="translate(-2041.077 7328.613)" fill="#d9d9d8"/>
    <path id="Path_9111" data-name="Path 9111" d="M2171.666-758.63c2.912-2.9,6.8-2.864,10.9.087,3.9,2.809,5.265,7.154,3.169,10.812a18.084,18.084,0,0,1-6.208,6.679,4.244,4.244,0,0,0-.858-.076c-4.276.486-4.266.49-3.9-3.564.085-.956.113-1.92.113-2.88,0-1.312-.5-2.355-1.972-2.3-1.863.072-1.169-.921-.863-1.783C2172.889-754.033,2173.778-756.411,2171.666-758.63Z" transform="translate(-2339.477 7252.687)" fill="#2e3b41"/>
    <path id="Path_9112" data-name="Path 9112" d="M1733.63-902.6c-3.186-2.89-7.063-2.449-10.9-2.284-1.561.067-2.631.532-2.532,2.352a2.421,2.421,0,0,1-1.66,2.721c-2.948-3.767-2.237-7.955-1.023-11.986.941-3.125,3.521-4.712,6.794-4.915a9.849,9.849,0,0,1,9.674,5.061C1735.678-908.731,1735.224-905.561,1733.63-902.6Z" transform="translate(-2066.659 7346.159)" fill="#2e3b41"/>
    <path id="Path_9113" data-name="Path 9113" d="M2162.359-755.415c2.112,2.219,1.223,4.6.376,6.977-.307.862-1,1.855.863,1.783,1.469-.057,1.972.986,1.972,2.3,0,.96-.028,1.924-.113,2.88-.361,4.054-.372,4.05,3.9,3.564a4.249,4.249,0,0,1,.858.076q-.373,1.408-.752,2.815c-3.016-.875-6.015.807-9.027.047a10.949,10.949,0,0,0-2.376-4.53,6.839,6.839,0,0,1-1.254-7.768C2158.134-750.328,2159.3-753.523,2162.359-755.415Z" transform="translate(-2330.169 7249.471)" fill="#7cd8fe"/>
    <path id="Path_9114" data-name="Path 9114" d="M2224-548.826a4.555,4.555,0,0,0,5.424-.008c1.688,2.5,1.368,5.314,1.038,8.029-.216,1.786-1.739,2.557-3.452,2.238-1.73-.321-3.974-.463-4.194-2.755A12.923,12.923,0,0,1,2224-548.826Z" transform="translate(-2370.078 7125.658)" fill="#7cd8fe"/>
    <path id="Path_9115" data-name="Path 9115" d="M1731.666-774.644l-1.149.764c-3.024.536-5.743,2-8.748,2.709-6.057,1.422-6.057,1.615-5.082-4.857.371-2.462-1.519-3.5-2.945-4.479-1.385-.95-1.47,1.23-2.32,1.8-2.145,1.43-2,3.237-.827,5.2a3.463,3.463,0,0,1,.373,2.5,6.535,6.535,0,0,1-6.2.675,35.923,35.923,0,0,0-4.677-1.281c-3.17-.651-4.489-2.586-4.23-5.726,1.161-1.236,3.282-2.185,3.288-3.768.014-3.549,1.832-6.365,2.914-9.48,1.233-1.136,1.155-2.216.043-3.451-2.812-3.124-5.479-6.381-8.343-9.455-2.219-2.381-3.952-4.891-3.829-8.3.571-.6.9-1.124-.361-1.186-2.55-.124-3.1-1.782-3.085-3.95.029-5.376-.015-10.754.018-16.13.02-3.126.826-3.911,3.917-3.985,1.056-.025,2.114,0,3.17,0,5.623.006,5.66.009,6.132-5.689.293-3.535.386-7.087.7-10.62.148-1.641.016-3.531,2-4.392.314,3.545,2.018,5.771,4.8,6.275,2.615.473,4.363-.911,5.93-4.694.873,4.944-.858,9.691-1.113,14.55a17.975,17.975,0,0,1-.319,2.274c-.31,1.7.2,2.464,2.1,2.333,2.295-.159,4.612.026,6.915-.057,2.732-.1,3.857,1.226,3.772,3.848-.047,1.439-.032,2.882.007,4.321.051,1.912.3,3.582-2.422,4.277-2.319.591-1.867,3.079-1.682,4.965s1.1,3.551,3.173,3.445c3.156-.161,4.292,1.409,4.474,4.2-1.247,5.427-4.246,10.069-6.836,14.871-1.184,2.2-1.155,3.676.593,5.584,3.4,3.717,5.38,8.568,9.447,11.843C1732.829-778.449,1732.6-776.427,1731.666-774.644Z" transform="translate(-2048.691 7310.804)" fill="#2e3b41"/>
    <path id="Path_9116" data-name="Path 9116" d="M2117.371-791.434a8.957,8.957,0,0,0-4.633-1.853,11.56,11.56,0,0,1,2.292-7.005c1.107-1.5,2.553-2.758,4.667-1.886,2.319.956,2.672,2.994,2.207,5.065A8.558,8.558,0,0,1,2117.371-791.434Z" transform="translate(-2304.163 7277.67)" fill="#7cd8fe"/>
    <path id="Path_9117" data-name="Path 9117" d="M1593.4-694.249c-1.083,3.115-2.9,5.93-2.914,9.48-.006,1.583-2.127,2.531-3.288,3.767-3.376.108-6.648-.87-9.977-1.048-15.358-.821-28.874,3.932-39.983,14.517-12.7,12.1-18.433,26.979-16.46,44.659,1.628,14.58,8.254,26.309,19.466,35.628a51.954,51.954,0,0,0,28.569,11.819c13.646,1.325,26.239-2.58,37.331-10.842a4.661,4.661,0,0,0,2.02-4.186c-.131-4.908-.041-9.822-.045-14.734,0-4.339-.8-5.3-5.021-5.236-2.159.032-2.564-.855-2.524-2.741.1-4.62.057-9.245,0-13.867-.008-.725.467-1.74-.773-2.23a5.16,5.16,0,0,0-.358,2.855q-.03,6.5,0,13c.01,1.6.2,3.008-2.253,3-2.286,0-2.432-1.111-2.409-2.87.067-5.1.011-10.208.028-15.312.011-3.336.5-3.819,3.883-3.827,9.154-.021,18.308,0,27.462-.068.978-.007,2.692.695,2.637-1.2-.047-1.612-1.622-1.081-2.526-1.01-2.43.19-3.226-.812-3.147-3.19.143-4.329.053-8.666.028-13,0-.687.253-1.509-.568-2.066-.973.817-.552,1.837-.564,2.71-.051,3.852.064,7.707-.063,11.555-.054,1.623,1.142,4.049-2.347,4.006-3.3-.041-2.154-2.327-2.2-3.864-.124-4.041-.046-8.088-.04-12.133,0-1.71-.266-3.435,1.272-4.815.971-.871.073-1.711-.434-2.527a48.271,48.271,0,0,0-13.458-14.055c-.96-.674-2.414-1.005-2.444-2.6a3.462,3.462,0,0,0-.373-2.5c-1.171-1.968-1.319-3.774.826-5.2.849-.566.934-2.745,2.32-1.8,1.426.978,3.316,2.017,2.945,4.479-.975,6.472-.975,6.279,5.082,4.857,3-.705,5.724-2.173,8.748-2.709a70.677,70.677,0,0,1,13.746,19.823c.854,1.915,2.325,1.676,3.847,1.674q34.093-.059,68.184-.109c1.15,0,2.3.107,3.451.164-.008,6.162-.1,12.326.021,18.487.04,2.117-.54,2.866-2.749,2.841-2.1-.023-2.611-.789-2.565-2.726.109-4.524.053-9.052.014-13.578-.006-.772.391-2.083-.87-2.041-1.2.041-.787,1.339-.8,2.121-.044,3.37-.02,6.741-.02,10.112,0,6.167,0,6.09-6.081,6.082-1.986,0-2.714-.558-2.657-2.612.129-4.619.05-9.244.026-13.866,0-.716.263-1.813-.8-1.859-1.114-.049-.87,1.06-.876,1.768-.028,3.467-.013,6.934-.013,10.4,0,6.329,0,6.253-6.286,6.171-1.931-.025-2.481-.684-2.442-2.53.1-4.716.04-9.437.019-14.156,0-.631.2-1.563-.718-1.639-1.2-.1-.953.974-.96,1.669-.032,3.563-.016,7.126-.016,10.689,0,6.271,0,6.211-6.208,5.956-1.9-.078-2.528-.844-2.5-2.647.065-4.14.047-8.282,0-12.423-.012-1.04.353-2.212-.474-3.232-.3.272-.544.388-.547.508-.056,3.848-.076,7.7-.127,11.545-.092,7,1.119,6.133-6.679,6.23-1.849.023-2.607-.687-2.578-2.553.069-4.333.042-8.667.006-13-.007-.873.325-1.87-.488-2.691-1.029.694-.629,1.633-.64,2.406-.049,3.274-.021,6.548-.021,9.823,0,6.137,0,6.052-6.118,6.044-2.048,0-2.658-.672-2.609-2.662.116-4.716.04-9.437.028-14.156,0-.66.065-1.547-.847-1.549s-.843.889-.844,1.547c-.012,4.527,0,9.053-.016,13.579,0,.861.219,1.937-.2,2.547-2.224,3.251.135,2.954,2.168,2.954,10.311,0,20.621.035,30.931-.026,2.02-.012,3.024.523,2.981,2.758-.1,5.391-.086,10.786-.009,16.178.031,2.171-1.113,2.518-2.922,2.523-1.825,0-2.943-.381-2.9-2.538.084-4.525.05-9.052,0-13.578-.01-.867.418-1.893-.658-2.756-.748.872-.461,1.853-.47,2.729-.034,3.37-.014,6.741-.014,10.112,0,6.116,0,6.025-6.121,6.045-2.285.007-3.136-.885-3.119-3.04q.053-6.5-.016-13c-.009-.729.446-1.73-1.142-2.412,0,5.045,0,9.81,0,14.574,0,3.874,0,3.872-3.7,3.833a21.483,21.483,0,0,0-2.6.014c-1.956.219-2.47-.687-2.433-2.515.1-4.717.039-9.437.02-14.156,0-.633.189-1.566-.722-1.64-1.2-.1-.948.98-.955,1.673-.033,3.563-.017,7.126-.017,10.69,0,6.1,0,6-6.187,5.985-2.138-.006-2.578-.834-2.536-2.733.1-4.524.066-9.052,0-13.578-.012-.846.6-2.4-.668-2.408-1.406-.011-.98,1.6-.993,2.574-.047,3.37-.018,6.741-.018,10.112,0,6.126,0,6.038-6.143,6.03-2.076,0-2.637-.717-2.583-2.682.118-4.331.054-8.667.022-13a3.5,3.5,0,0,0-1.15-3.274v12.4c0,6.7,0,6.638-6.762,6.55-1.851-.024-2.557-.53-2.511-2.458.111-4.716.061-9.437.007-14.156-.008-.718.516-1.765-.849-2.176a6.128,6.128,0,0,0-.268,1.108c-.288,6.235.48,12.493-.439,18.719-.2,1.379.958,1.249,1.77,1.2,5.491-.36,10.929.617,16.407.595,8.576-.034,17.152-.009,25.728-.009s17.152.02,25.727-.018c1.546-.007,2.559.165,2.526,2.133-.093,5.68-.053,11.363-.024,17.045.014,2.607-1.841,2.133-3.443,2.253-1.71.129-2.415-.451-2.374-2.269.1-4.524.05-9.052.015-13.578-.008-.966.289-2.036-.464-3.021-1.081.865-.651,1.89-.665,2.758-.056,3.37-.022,6.741-.022,10.112,0,6.13,0,6.042-6.134,6.03-2.066,0-2.64-.708-2.594-2.679.113-4.813.046-9.63.024-14.445,0-.715.231-1.817-.863-1.792-1.073.024-.813,1.123-.818,1.839-.026,3.659-.014,7.319-.014,10.978,0,6.18,0,6.1-6.072,6.092-1.979,0-2.721-.547-2.66-2.609.133-4.522.062-9.051.024-13.577-.007-.871.353-1.883-.7-2.845-1.54,4.394-.9,8.7-.964,12.938-.089,6.176-.023,6.1-6.1,6.094-1.974,0-2.723-.536-2.663-2.6.133-4.619.058-9.244.025-13.866-.006-.773.3-1.688-.661-2.463a4.11,4.11,0,0,0-.479,2.815c-.028,3.274-.012,6.548-.012,9.823,0,6.62,0,6.565-6.728,6.288-1.88-.077-2.547-.8-2.522-2.624.064-4.622.037-9.245,0-13.867-.006-.766.319-1.691-.569-2.343-.948.863-.543,1.875-.557,2.758-.053,3.37-.022,6.741-.022,10.111,0,6.013,0,5.883-5.9,5.992-2.444.045-2.892-.9-2.832-3.037.126-4.523.043-9.052.032-13.578,0-.851.132-2.124-.889-2.158-1.294-.042-.77,1.305-.78,2.044-.055,4.429,0,8.86-.044,13.289-.012,1.354.39,2.735-1.286,3.77-.95.586-.49,1.767.895,1.885.766.065,1.541.028,2.312.028,15.9,0,31.8.049,47.7-.052,2.421-.016,3.14.7,3.063,3.091-.167,5.2-.14,10.4-.006,15.6.055,2.127-.56,2.853-2.757,2.834-2.118-.018-2.594-.825-2.55-2.741.1-4.524.052-9.052.014-13.578-.006-.775.382-2.085-.871-2.043-1.2.04-.788,1.337-.8,2.121-.043,3.37-.017,6.741-.017,10.112,0,6.185,0,6.11-6.065,6.1-1.97,0-2.734-.532-2.667-2.6.137-4.233.091-8.475,0-12.71-.021-1.033.689-2.89-.756-2.942-1.594-.058-.841,1.808-.877,2.8-.111,3.078-.041,6.162-.041,9.244,0,6.354,0,6.281-6.247,6.209-1.889-.022-2.523-.6-2.478-2.49.109-4.524.062-9.052.006-13.578-.009-.718.517-1.766-1.139-2.257v11.594c0,7.145,0,7.089-7.164,6.727-1.695-.086-2.114-.744-2.093-2.283.063-4.622.037-9.245.008-13.867-.005-.875.28-1.858-.417-2.664-1.008.465-.711,1.228-.716,1.824-.031,3.852-.017,7.7-.017,11.556,0,5.429,0,5.28-5.565,5.461-2.641.086-3.29-.8-3.177-3.288.191-4.229.074-8.473.036-12.71-.009-1,.4-2.666-.847-2.711-1.463-.053-.783,1.62-.808,2.51-.093,3.368-.038,6.74-.038,10.111,0,6.285,0,6.225-6.389,6.06-1.742-.045-2.373-.569-2.339-2.338.092-4.717.042-9.437.019-14.156,0-.717.258-1.814-.8-1.855-1.105-.042-.825,1.062-.881,1.776-.5,6.352,1.329,12.907-1.673,19.039a202.239,202.239,0,0,1-21.55.083c.1-2.507-1.51-2.819-3.422-2.571-2.3.3-3-.639-2.9-2.9.17-3.827.079-7.667.029-11.5-.018-1.438.31-2.947-.428-4.619-1.035,1.03-.7,2.025-.708,2.894-.036,4.5-.1,9.013.023,13.515.056,2-.571,2.859-2.6,2.61a15.679,15.679,0,0,0-2.012,0c-.2-1.6.406-3.739-2.734-2.481q-27.177,10.892-54.05-.891c-1.553-.037-2.566-1.211-3.8-1.879-16.843-9.123-28.155-22.77-33.725-41.16-1.335-4.408-1.618-9.01-2.9-13.41.024-7.6.427-15.138,2.257-22.58a68.341,68.341,0,0,1,55.166-50.674A71.863,71.863,0,0,1,1593.4-694.249Zm20.513,88.006a3.741,3.741,0,0,0-1.149,3.47c-.042,4.325-.09,8.653.013,12.977.049,2.035-.211,3.442-2.754,3.049-.583-.09-1.579-.274-1.591.685a1.6,1.6,0,0,0,1.548,1.48c2.88.09,5.765.056,8.648.025.7-.007.988-.511.946-1.179a.916.916,0,0,0-.871-.961,12.719,12.719,0,0,0-2.3-.062c-1.837.192-2.656-.462-2.518-2.412.136-1.913.029-3.843.029-5.766Z" transform="translate(-1940.029 7214.468)" fill="#31718d"/>
    <path id="Path_9120" data-name="Path 9120" d="M1747.822-359.883l.506.626Z" transform="translate(-2085.452 7012.411)" fill="#eebd59"/>
    <path id="Path_9121" data-name="Path 9121" d="M2024.787-356.519l.72-.2Z" transform="translate(-2251.45 7010.518)" fill="#eebd59"/>
    <path id="Path_9122" data-name="Path 9122" d="M1736.953-858.335c-1.567,3.783-3.315,5.167-5.93,4.694-2.784-.5-4.487-2.73-4.8-6.275-.113-1.25.034-1.992,1.483-.967,4.215,2.982,4.869,2.987,9.124.327C1737.307-859.838,1737.029-859.08,1736.953-858.335Z" transform="translate(-2072.488 7312.973)" fill="#7cd8fe"/>
    <path id="Path_9123" data-name="Path 9123" d="M1625.06-652.423c.03,1.594,1.484,1.925,2.444,2.6a48.27,48.27,0,0,1,13.458,14.055c.508.816,1.405,1.656.434,2.527-1.538,1.38-1.27,3.106-1.273,4.815-.006,4.045-.084,8.092.04,12.133.047,1.537-1.1,3.823,2.2,3.864,3.49.043,2.294-2.383,2.347-4.006.127-3.848.012-7.7.063-11.555.011-.874-.409-1.893.564-2.71.821.557.563,1.38.568,2.066.026,4.333.116,8.671-.028,13-.079,2.378.717,3.379,3.147,3.19.9-.07,2.479-.6,2.526,1.01.055,1.9-1.66,1.195-2.637,1.2-9.154.065-18.308.047-27.462.068-3.382.008-3.872.491-3.883,3.827-.017,5.1.039,10.209-.028,15.312-.023,1.759.123,2.866,2.409,2.87,2.455,0,2.263-1.407,2.253-3q-.038-6.5,0-13a5.161,5.161,0,0,1,.358-2.855c1.24.49.765,1.505.773,2.23.052,4.622.093,9.247,0,13.867-.04,1.886.365,2.773,2.524,2.741,4.221-.062,5.018.9,5.021,5.236,0,4.912-.086,9.826.045,14.734a4.661,4.661,0,0,1-2.021,4.186c-11.092,8.262-23.685,12.167-37.331,10.842A51.954,51.954,0,0,1,1563-565c-11.211-9.319-17.838-21.048-19.465-35.628-1.973-17.68,3.759-32.555,16.46-44.659,11.109-10.585,24.625-15.338,39.983-14.517,3.329.178,6.6,1.156,9.977,1.049-.258,3.14,1.061,5.075,4.23,5.726a35.91,35.91,0,0,1,4.676,1.281A6.535,6.535,0,0,0,1625.06-652.423Zm-42.791,57.268c-1.348,0-2.7.019-4.045-.006-1.226-.022-1.724.474-1.587,1.754.845,7.938,5.574,14.506,13.243,15.656,3.294.494,3.763,2.346,3.381,5.013-.339,2.366.57,3.149,3.009,3.14,2.345-.009,3.225-.793,2.835-3-.551-3.118.567-4.614,3.839-5.163a13.423,13.423,0,0,0,9.727-7.025c4.367-7.925,1.714-16.981-6.387-21.45-4.193-2.314-8.686-4.078-12.941-6.288-2.893-1.5-3.927-4.712-3.021-8.2a5.573,5.573,0,0,1,5.546-4.491c3.608-.114,5.9,1.443,7.011,4.768,1.5,4.468,1.5,4.469,6.182,4.468,1.156,0,2.312-.028,3.467,0,1.643.044,2.291-.805,2.11-2.343-.8-6.8-4.627-13.158-11.077-14.695-2.786-.664-3.793-2.076-3.364-4.8a14.423,14.423,0,0,0,.006-2.595,1.439,1.439,0,0,0-.708-1.441,3.681,3.681,0,0,0-5.612,3.164,3.169,3.169,0,0,0,0,.577c.552,3-.533,4.456-3.72,4.911a12.821,12.821,0,0,0-8.945,6.182c-4.277,6.638-3.631,17.446,6.906,22.877,3.495,1.8,7.219,3.153,10.759,4.872,3.978,1.93,5.281,4.862,4.213,8.909-.857,3.247-3.212,4.548-8.024,4.433-3.331-.08-6.74-2.52-6.773-5.832-.035-3.535-1.745-3.681-4.3-3.41C1583.431-595.107,1582.848-595.159,1582.27-595.154Z" transform="translate(-1962.783 7192.221)" fill="#e3f6fe"/>
    <path id="Path_9118" data-name="Path 9118" d="M1822.159-499.393c3-6.132,1.177-12.687,1.673-19.039.056-.714-.224-1.818.881-1.776,1.061.041.8,1.138.8,1.855.022,4.719.073,9.439-.019,14.156-.034,1.77.6,2.293,2.339,2.338,6.39.164,6.388.225,6.389-6.06,0-3.371-.055-6.743.038-10.111.025-.889-.655-2.563.808-2.51,1.25.045.838,1.713.847,2.711.038,4.237.155,8.481-.036,12.71-.113,2.484.536,3.374,3.177,3.288,5.56-.181,5.565-.032,5.565-5.461,0-3.852-.014-7.7.017-11.556,0-.6-.292-1.359.716-1.824.7.807.412,1.789.417,2.664.029,4.622.055,9.245-.008,13.867-.021,1.539.4,2.2,2.093,2.283,7.167.362,7.164.418,7.164-6.727v-11.594c1.656.491,1.13,1.539,1.139,2.257.055,4.525.1,9.054-.006,13.578-.045,1.889.589,2.468,2.478,2.49,6.248.073,6.247.145,6.247-6.209,0-3.081-.071-6.166.04-9.243.036-1-.717-2.862.877-2.8,1.445.053.734,1.909.756,2.942.086,4.235.132,8.477,0,12.71-.067,2.069.7,2.6,2.667,2.6,6.065.01,6.065.085,6.065-6.1,0-3.371-.026-6.741.017-10.112.01-.784-.4-2.081.8-2.121,1.253-.042.865,1.268.871,2.043.038,4.526.091,9.054-.014,13.578-.045,1.917.431,2.723,2.55,2.741,2.2.019,2.812-.707,2.757-2.834-.134-5.2-.161-10.4.006-15.6.077-2.393-.643-3.107-3.063-3.091-15.9.1-31.8.053-47.7.052-.771,0-1.546.036-2.311-.028-1.385-.117-1.845-1.3-.895-1.885,1.677-1.035,1.274-2.416,1.286-3.77.04-4.43-.011-8.86.044-13.289.009-.739-.514-2.087.78-2.045,1.021.034.887,1.306.889,2.158.011,4.526.094,9.055-.032,13.578-.06,2.137.389,3.083,2.832,3.037,5.9-.109,5.9.021,5.9-5.992,0-3.37-.031-6.741.022-10.111.014-.883-.391-1.9.557-2.758.888.652.563,1.577.569,2.343.035,4.622.063,9.246,0,13.867-.025,1.822.643,2.547,2.522,2.624,6.73.277,6.727.332,6.728-6.288,0-3.275-.016-6.549.012-9.823a4.11,4.11,0,0,1,.479-2.815c.965.775.655,1.69.661,2.463.032,4.622.108,9.247-.025,13.866-.06,2.068.69,2.6,2.663,2.6,6.075.007,6.009.082,6.1-6.094.061-4.234-.576-8.544.964-12.938,1.054.962.694,1.974.7,2.845.038,4.526.109,9.055-.024,13.577-.06,2.062.682,2.605,2.66,2.609,6.072.011,6.072.088,6.072-6.092,0-3.659-.012-7.319.014-10.978.005-.716-.254-1.815.818-1.839,1.094-.025.86,1.077.863,1.792.022,4.815.089,9.632-.024,14.445-.046,1.971.528,2.674,2.594,2.679,6.135.012,6.135.1,6.135-6.03,0-3.371-.034-6.742.022-10.112.014-.868-.416-1.893.665-2.758.753.985.456,2.055.464,3.021.035,4.526.086,9.054-.015,13.578-.041,1.818.664,2.4,2.374,2.269,1.6-.12,3.456.353,3.443-2.253-.03-5.682-.069-11.365.024-17.045.032-1.968-.981-2.139-2.526-2.133-8.576.038-17.152.018-25.727.018s-17.152-.025-25.728.009c-5.478.022-10.916-.955-16.407-.595-.812.053-1.974.183-1.771-1.2.919-6.226.151-12.484.439-18.719a6.139,6.139,0,0,1,.268-1.108c1.364.411.841,1.458.849,2.176.055,4.718.1,9.439-.007,14.155-.046,1.928.66,2.435,2.511,2.458,6.763.087,6.762.151,6.762-6.55v-12.4a3.5,3.5,0,0,1,1.15,3.274c.031,4.333.1,8.669-.022,13-.054,1.964.507,2.679,2.583,2.682,6.143.008,6.143.1,6.143-6.03,0-3.371-.029-6.742.018-10.112.013-.976-.413-2.585.993-2.574,1.265.01.656,1.561.668,2.408.064,4.525.1,9.054,0,13.578-.043,1.9.4,2.728,2.536,2.733,6.188.017,6.187.113,6.187-5.985,0-3.563-.016-7.127.017-10.69.006-.693-.247-1.771.955-1.673.91.075.719,1.007.722,1.64.019,4.719.076,9.439-.02,14.156-.037,1.829.477,2.734,2.433,2.515a21.47,21.47,0,0,1,2.6-.014c3.7.04,3.7.042,3.7-3.833,0-4.765,0-9.529,0-14.574,1.587.682,1.133,1.683,1.142,2.412q.077,6.5.016,13c-.018,2.155.834,3.047,3.119,3.04,6.121-.019,6.121.072,6.121-6.045,0-3.371-.02-6.741.014-10.112.009-.876-.278-1.857.47-2.729,1.076.863.649,1.888.658,2.756.049,4.526.083,9.054,0,13.578-.04,2.157,1.078,2.543,2.9,2.538,1.809,0,2.953-.353,2.922-2.523-.077-5.392-.094-10.787.009-16.178.042-2.235-.961-2.77-2.981-2.758-10.31.061-20.62.03-30.931.026-2.033,0-4.392.3-2.168-2.954.417-.61.2-1.686.2-2.547.016-4.526,0-9.052.016-13.579,0-.658-.072-1.548.844-1.547s.845.889.847,1.549c.012,4.719.088,9.439-.029,14.156-.049,1.99.561,2.66,2.61,2.662,6.117.008,6.117.093,6.117-6.044,0-3.275-.028-6.549.021-9.823.012-.772-.388-1.712.64-2.406.813.821.48,1.817.488,2.691.036,4.333.063,8.668-.006,13-.029,1.865.728,2.575,2.578,2.553,7.8-.1,6.587.765,6.679-6.23.051-3.848.071-7.7.127-11.545,0-.119.244-.235.546-.508.827,1.02.462,2.192.474,3.232.05,4.14.068,8.283,0,12.423-.028,1.8.6,2.569,2.5,2.647,6.211.255,6.208.315,6.208-5.956,0-3.563-.016-7.127.016-10.689.006-.7-.244-1.77.96-1.669.917.076.716,1.009.718,1.639.021,4.719.08,9.439-.019,14.156-.039,1.846.511,2.5,2.442,2.53,6.286.082,6.285.158,6.286-6.171,0-3.467-.014-6.934.013-10.4.006-.709-.238-1.817.876-1.768,1.062.046.8,1.143.8,1.859.024,4.622.1,9.247-.026,13.866-.057,2.054.671,2.61,2.657,2.612,6.081.007,6.081.085,6.081-6.082,0-3.371-.025-6.742.02-10.112.01-.782-.406-2.08.8-2.121,1.261-.043.864,1.268.87,2.041.039,4.526.095,9.054-.014,13.578-.046,1.937.467,2.7,2.565,2.726,2.209.024,2.789-.725,2.749-2.841-.116-6.16-.028-12.324-.02-18.487,5.39-.046,10.781-.125,16.172-.125,2.365,0,3.5,1.367,3.512,3.665.024,5.487.014,10.975.015,16.463,0,2.7-1.478,3.742-4.041,3.726-5.587-.035-11.174.02-16.761-.024-1.53-.012-2.111-.019-2.01,2.093.318,6.721.221,13.472-.023,20.2-.054,1.5.04,1.809,1.431,1.783,2.889-.054,5.784.086,8.668-.039,2.46-.107,3.5.819,3.46,3.343q-.146,8.663,0,17.329c.036,2.369-.93,3.5-3.259,3.163-2.436-.352-2.8.407-2.6,2.853.414,5.166.229,10.379.29,15.573-.814,1.7,1.03,4.331-1.851,5.316l-.72.2c-1.152.052-2.3.151-3.456.151q-35.11.013-70.222,0C1824.642-499.15,1823.4-499.308,1822.159-499.393Z" transform="translate(-2126.225 7153.293)" fill="#e3f6fe"/>
    <path id="Path_9119" data-name="Path 9119" d="M1747.82-391.118a15.683,15.683,0,0,1,2.012,0c2.027.249,2.654-.614,2.6-2.61-.126-4.5-.058-9.01-.023-13.515.007-.869-.327-1.864.708-2.894.738,1.672.41,3.181.428,4.619.05,3.833.141,7.674-.029,11.5-.1,2.262.594,3.2,2.9,2.9,1.912-.248,3.526.064,3.422,2.571-2.978.057-5.955.134-8.932.16a2.9,2.9,0,0,1-2.577-.99l-.506-.626Q1747.82-390.561,1747.82-391.118Z" transform="translate(-2085.451 7042.532)" fill="#e3f6fe"/>
    <path id="Path_9124" data-name="Path 9124" d="M1768.36-470.458v11.307c0,1.923.107,3.853-.029,5.766-.139,1.95.68,2.6,2.518,2.412a12.716,12.716,0,0,1,2.3.062.917.917,0,0,1,.871.961c.042.668-.248,1.172-.946,1.179-2.883.03-5.768.065-8.648-.025a1.6,1.6,0,0,1-1.548-1.48c.012-.96,1.008-.776,1.591-.686,2.544.393,2.8-1.013,2.755-3.049-.1-4.324-.056-8.652-.013-12.977A3.741,3.741,0,0,1,1768.36-470.458Z" transform="translate(-2094.476 7078.684)" fill="#e3f6fe"/>
    <path id="Path_9125" data-name="Path 9125" d="M1632.33-568.932a17.092,17.092,0,0,0,1.732-.011c2.556-.27,4.267-.125,4.3,3.41.033,3.313,3.442,5.753,6.773,5.832,4.812.115,7.167-1.186,8.023-4.433,1.068-4.048-.235-6.979-4.213-8.909-3.541-1.718-7.264-3.07-10.759-4.872-10.537-5.431-11.184-16.239-6.906-22.877a12.821,12.821,0,0,1,8.945-6.182c3.188-.455,4.273-1.912,3.721-4.911a3.181,3.181,0,0,1,0-.577,3.681,3.681,0,0,1,5.612-3.164,1.439,1.439,0,0,1,.708,1.441,14.447,14.447,0,0,1-.006,2.6c-.429,2.724.578,4.136,3.364,4.8,6.45,1.536,10.278,7.9,11.077,14.695.181,1.538-.467,2.387-2.11,2.343-1.155-.031-2.311,0-3.466,0-4.685,0-4.685,0-6.182-4.468-1.114-3.325-3.4-4.882-7.011-4.768a5.573,5.573,0,0,0-5.546,4.491c-.906,3.486.128,6.695,3.021,8.2,4.255,2.21,8.748,3.974,12.941,6.288,8.1,4.47,10.754,13.526,6.387,21.45a13.423,13.423,0,0,1-9.727,7.025c-3.272.549-4.39,2.045-3.839,5.163.39,2.21-.491,2.994-2.835,3-2.439.009-3.348-.774-3.009-3.14.382-2.667-.087-4.519-3.381-5.013-7.669-1.15-12.4-7.718-13.243-15.656-.136-1.28.361-1.776,1.587-1.754C1629.634-568.911,1630.982-568.929,1632.33-568.932Z" transform="translate(-2012.844 7165.996)" fill="#31718d"/>
  </g>
</svg>
