<svg xmlns="http://www.w3.org/2000/svg" width="353.288" height="350.84" viewBox="0 0 353.288 350.84">
  <g id="Group_5896" data-name="Group 5896" transform="translate(2192.502 -7455.015)">
    <path id="Path_8993" data-name="Path 8993" d="M1527.053,82.312a63.034,63.034,0,0,0,.366-9.351q.44-12.6.878-25.209.86-25.87,1.688-51.741c.122-3.874.721-4.775,4.437-6.118a46.816,46.816,0,0,1,8.2-.251c9.154,0,18.308.052,27.462.085l0,92.586Z" transform="translate(-3711.15 7723.542)" fill="#4ccafd"/>
    <path id="Path_8994" data-name="Path 8994" d="M2202.972,82.207c.279-9.513.489-19.029.859-28.539.3-7.831.525-15.663.769-23.5.237-7.583.574-15.163.728-22.75.092-4.534.425-9.062.566-13.595.074-2.424,1.718-3.289,3.619-3.895a21.007,21.007,0,0,1,2.932-.513q6.712.045,13.425.089,9.882.055,19.764.1-.005,46.3-.01,92.6Z" transform="translate(-4134.149 7723.647)" fill="#456b7b"/>
    <path id="Path_8995" data-name="Path 8995" d="M2316.959,82.214q0-46.3.009-92.6c2.982-.03,5.965-.074,8.947-.089q11.84-.058,23.68-.1c.353.115.7.253,1.058.341,3.51.862,4.672,2.269,4.792,5.842.173,5.166.316,10.334.512,15.5q.741,19.505,1.52,39.009.554,14.092,1.125,28.182c.053,1.3.172,2.607.26,3.91Z" transform="translate(-4205.483 7723.641)" fill="#375865"/>
    <path id="Path_8996" data-name="Path 8996" d="M1642.039,82.263q0-46.293,0-92.586c1.924-.027,3.848-.07,5.772-.078q12.482-.053,24.963-.09c.8.1,1.611.178,2.412.3,3.4.516,4.859,2.173,4.991,5.6q.972,25.216,1.952,50.431.71,18.21,1.436,36.42Z" transform="translate(-3783.11 7723.592)" fill="#25abe4"/>
    <path id="Path_8997" data-name="Path 8997" d="M2270.272-236.868q-11.84.047-23.681.1c-2.982.015-5.964.058-8.946.089q-9.882-.049-19.764-.1-6.712-.038-13.424-.089a7.166,7.166,0,0,1,.1-.736c.949-3.905,1-6.982-3.114-9.853-4.923-3.439-7.439-9.206-10.132-14.552-.3-.606-.451-1.3-1.107-1.668,1.928-.02,3.857-.05,5.785-.058q12.6-.048,25.192-.084,14.288.041,28.577.079c6.807.012,10.507-3.682,10.508-10.469,0-14.944-.04-29.889.031-44.833a39.411,39.411,0,0,0-1.333-10.871c-2.118-7.615-3.33-15.427-4.809-23.18l.008-6.955a17.622,17.622,0,0,1,6.252-8.369A47.9,47.9,0,0,1,2268-371.98c1.36-.445,1.846-.173,2.18,1.2,2.707,11.119,5.5,22.218,8.2,33.338.547,2.251,1.458,4.358,2.181,6.538,3.051,9.2,4.511,18.719,5.677,28.3a67.349,67.349,0,0,1,.154,16.738c-.025.249-.05.5-.075.746l-.117,1.118q-.093.528-.186,1.055-.065.409-.133.818a87.646,87.646,0,0,1-7,20.2,44.751,44.751,0,0,1-4.01,7.145c-2.438,3.172-3.268,6.71-3.608,10.532C2271.052-241.781,2270.614-239.329,2270.272-236.868Z" transform="translate(-4126.161 7949.939)" fill="#b6e2f4"/>
    <path id="Path_8998" data-name="Path 8998" d="M1721.211-411.057q-.014,3.563-.028,7.125c-2.16,1.3-4.087,3.028-6.613,3.676q.032-16.9.064-33.794c.006-3.37-.276-3.646-3.583-3.654q-15.5-.033-31-.073,0-1.906.007-3.812c3.479-.026,6.956-.058,10.435-.076,2.3-.012,4.6.024,6.9-.019a2.067,2.067,0,0,0,2.261-2.193,2.1,2.1,0,0,0-2.107-2.18,14.039,14.039,0,0,0-1.676-.029l-15.837-.1q.014-2.521.028-5.043l12.967-.122a56.354,56.354,0,0,0,7.683.006l3.553.029c.751.632,1.458.157,2.174-.087,1.671.046,3.343.111,5.014.136a9.378,9.378,0,0,1,9.682,9.792c.01,2.3.049,4.592.074,6.887Q1721.212-422.824,1721.211-411.057Z" transform="translate(-3806.89 7999.522)" fill="#020202"/>
    <path id="Path_8999" data-name="Path 8999" d="M1744.125-321.553c2.525-.648,4.452-2.372,6.612-3.676a6.3,6.3,0,0,1,7.769,2.63,68.2,68.2,0,0,1,3.56,5.9c2.029,3.78,1.126,6.775-2.519,8.97-2.976,1.792-5.918,3.637-8.876,5.459l-6.572,3.967c-1.3.731-2.618,1.432-3.9,2.2a5.426,5.426,0,0,1-6.979-.78,25.155,25.155,0,0,1-5.45-8.609c-1.172-2.927-.277-5.638,2.066-7.019,3.1-1.83,6.217-3.652,9.25-5.6C1740.8-319.207,1742.817-319.869,1744.125-321.553Z" transform="translate(-3836.443 7920.818)" fill="#b6e2f4"/>
    <path id="Path_9000" data-name="Path 9000" d="M2130.46-315.924c1.46-2.282,2.856-4.607,4.4-6.834,1.955-2.824,4.411-3.592,7.577-2.545,2.162,1.322,4.12,3.007,6.625,3.718a50.429,50.429,0,0,0,10.738,6.49,8.9,8.9,0,0,0,2.717,1.933c3.3,1.976,4.389,4.769,2.753,8.241a27.1,27.1,0,0,1-5.491,8.393,6.446,6.446,0,0,1-7.93-.266,26.3,26.3,0,0,0-2.737-1.56,57.838,57.838,0,0,0-6.5-3.99c-2.993-1.841-5.946-3.754-8.994-5.5a6.157,6.157,0,0,1-3.483-5.09q.052-.923.105-1.847A1.357,1.357,0,0,0,2130.46-315.924Z" transform="translate(-4088.565 7920.885)" fill="#b6e2f4"/>
    <path id="Path_9001" data-name="Path 9001" d="M2204.224-118.769q-12.6.041-25.193.084c-1.928.007-3.856.038-5.785.058-2.312-.2-4.583-.159-6.587-1.886a8.794,8.794,0,0,1-3.505-6.625c-.1-4.415-.015-8.835-.009-13.252,2.451.629,4.414,2.205,6.451,3.549,2.269,1.5,4.447,2.118,6.957.837,1.238.02,2.476.054,3.714.059q11.986.046,23.973.081l-.083,2.995c-3.624.083-5.933,1.836-6.286,4.769-.427,3.56,2.045,6.025,6.172,6.154Zm-8.3-8.57a2.081,2.081,0,0,0-2.032-2.2,2.055,2.055,0,0,0-2.3,1.953,2.14,2.14,0,0,0,2.1,2.348A2.143,2.143,0,0,0,2195.925-127.34Z" transform="translate(-4109.2 7804.884)" fill="#3c3e3d"/>
    <path id="Path_9002" data-name="Path 9002" d="M1763.136-243.643a56.5,56.5,0,0,0-6.8,4.152,39.067,39.067,0,0,0-6.59,4.04,5.183,5.183,0,0,0-1.843.864c-2.512,1.575-4.479,1.417-6.528-.687a25.028,25.028,0,0,1-4.677-7.561,5.1,5.1,0,0,1-.341-2.717c.333-2.614,2.415-3.42,4.231-4.574,3.082-1.958,6.432-3.5,9.208-5.933a20.3,20.3,0,0,0,6.633-4c4.469-.905,5.8-.324,8.283,3.671.823,1.321,1.694,2.623,2.39,4.01,1.569,3.127.806,5.67-2.121,7.492C1764.352-244.493,1763.75-244.058,1763.136-243.643Z" transform="translate(-3842.104 7880.005)" fill="#b6e2f4"/>
    <path id="Path_9003" data-name="Path 9003" d="M2156.039-172.347c-2.51,1.28-4.687.658-6.956-.837-2.038-1.343-4-2.92-6.451-3.549-2.433-2.267-5.456-3.646-8.233-5.383-4.512-2.822-5.174-5.07-2.489-9.627.536-.911,1.075-1.821,1.629-2.722,2.662-4.335,4.487-4.91,9.028-2.851a38.515,38.515,0,0,0,6.562,3.935,101.351,101.351,0,0,0,9.49,5.9c3.166,1.922,4.068,5,2.14,8.238C2159.335-176.851,2158.068-174.334,2156.039-172.347Z" transform="translate(-4088.686 7841.226)" fill="#b6e2f4"/>
    <path id="Path_9004" data-name="Path 9004" d="M2144.041-239.738q-4.354-2.713-8.708-5.425c-2.519-1.56-3.458-3.846-2.338-6.538a26.022,26.022,0,0,1,4.236-7c1.968-2.289,3.866-2.6,6.672-1.358,2.129,1.417,4.168,2.992,6.644,3.806a4.447,4.447,0,0,0,1.724,1.388c2.9,1.8,5.818,3.56,8.734,5.33,3.143,1.908,3.874,4.219,2.212,7.5a39.078,39.078,0,0,1-3.1,5.291c-1.977,2.731-5.165,4.271-8.13,1.662a4.611,4.611,0,0,0-1.361-.561A36.261,36.261,0,0,0,2144.041-239.738Z" transform="translate(-4090.063 7880.228)" fill="#b6e2f4"/>
    <path id="Path_9005" data-name="Path 9005" d="M1790.075-394.547q0-11.767,0-23.534c3.541-1.958,7.071-3.938,10.627-5.87,3.815-2.073,7.564-1.109,9.83,2.572,1.174,1.907,2.276,3.868,3.271,5.875a6.733,6.733,0,0,1-2.522,9.126C1804.255-402.36,1797.149-398.482,1790.075-394.547Z" transform="translate(-3875.753 7983.012)" fill="#b6e2f4"/>
    <path id="Path_9006" data-name="Path 9006" d="M1663.583-561.148c-.716.244-1.423.719-2.174.086.025-.559.073-1.119.073-1.678q-.042-29.992-.059-59.983c0-1.627-.575-1.954-2.058-1.943q-21.862.17-43.724.192c-1.681,0-2.057.472-2.049,2.092q.146,30.645.163,61.292a3.93,3.93,0,0,1-2-.056l-.069-.391q-.048-22.276-.094-44.552v-1.063q-.019-6.933-.038-13.866a40.875,40.875,0,0,0,.066-4.1c-.116-1.489.677-1.554,1.806-1.552,8.977.013,17.954-.014,26.932-.027,6.982-.01,13.965.037,20.946-.062,1.619-.023,2.1.352,2.1,2.039-.036,18.389.013,36.778.053,55.168C1663.457-566.755,1663.537-563.952,1663.583-561.148Z" transform="translate(-3764.031 8109.264)" fill="#ebf4f4"/>
    <path id="Path_9007" data-name="Path 9007" d="M2163.135-204.54a36.237,36.237,0,0,1,6.581,4.1q-.057,1.631-.115,3.262a38.581,38.581,0,0,1-6.562-3.935Z" transform="translate(-4109.158 7845.03)" fill="#3c3e3d"/>
    <path id="Path_9008" data-name="Path 9008" d="M2169.57-257.767c-2.475-.815-4.515-2.39-6.644-3.807q.1-.81.206-1.623a57.8,57.8,0,0,1,6.5,3.99Q2169.6-258.487,2169.57-257.767Z" transform="translate(-4109.088 7881.738)" fill="#3c3e3d"/>
    <path id="Path_9009" data-name="Path 9009" d="M1778.928-261.786a20.277,20.277,0,0,1-6.633,4l-.035-1.434,6.572-3.967Q1778.881-262.488,1778.928-261.786Z" transform="translate(-3864.604 7881.734)" fill="#020202"/>
    <path id="Path_9010" data-name="Path 9010" d="M1838.232-669.2a.828.828,0,0,1-.866-.689c-.261-.854.525-.926.958-1.053.819-.24,1.485-1.3,2.479-.6.247.174.5.754.149.971C1840.062-670.031,1839.088-669.625,1838.232-669.2Z" transform="translate(-3905.315 8137.435)" fill="#ebf4f4"/>
    <path id="Path_9011" data-name="Path 9011" d="M1788.478-640.917c-.913.638-1.694,1.566-2.847,1.851-.357.088-.745-.4-.757-.886a6.821,6.821,0,0,1,2.909-2.052A1.124,1.124,0,0,1,1788.478-640.917Z" transform="translate(-3872.498 8118.805)" fill="#ebf4f4"/>
    <path id="Path_9012" data-name="Path 9012" d="M1802.607-650.163c-.634-.189-.955-.537-.919-1.084.028-.419,2.736-1.982,3.077-1.78.374.221.819.755.511,1.025A24.389,24.389,0,0,1,1802.607-650.163Z" transform="translate(-3883.02 8125.71)" fill="#ebf4f4"/>
    <path id="Path_9013" data-name="Path 9013" d="M1754.83-613.084a1.031,1.031,0,0,1-.775-.9,6.793,6.793,0,0,1,2.522-2.345.915.915,0,0,1,.809.882A7.245,7.245,0,0,1,1754.83-613.084Z" transform="translate(-3853.211 8102.733)" fill="#ebf4f4"/>
    <path id="Path_9014" data-name="Path 9014" d="M1819.162-661.043c.094-.728.7-.861,1.174-1.066.688-.3,1.249-1.094,2.124-.7.314.14.648.688.4.912a6.694,6.694,0,0,1-3.027,1.594C1819.431-660.221,1819.345-660.773,1819.162-661.043Z" transform="translate(-3893.956 8131.887)" fill="#ebf4f4"/>
    <path id="Path_9015" data-name="Path 9015" d="M1771.368-629.784c.661-.047.968.351.982.62.059,1.1-1.087,1.29-1.643,1.938-.286.333-.672.815-1.239.4-.286-.211-.715-.561-.412-.879C1769.8-628.493,1770.669-629.169,1771.368-629.784Z" transform="translate(-3862.534 8111.155)" fill="#ebf4f4"/>
    <path id="Path_9016" data-name="Path 9016" d="M1876.8-685.391c.674.156,1.654-.5,1.926.722-.682,1.288-2.105.926-3.161,1.376-.357.152-.543-.394-.651-.741a.556.556,0,0,1,.378-.724C1875.794-684.975,1876.3-685.181,1876.8-685.391Z" transform="translate(-3928.826 8145.978)" fill="#ebf4f4"/>
    <path id="Path_9017" data-name="Path 9017" d="M1857.011-676.936c-.739.012-1-.569-.9-.832.487-1.277,1.852-1.138,2.864-1.542a.608.608,0,0,1,.767.755C1859.288-677.2,1857.758-677.615,1857.011-676.936Z" transform="translate(-3917.068 8142.172)" fill="#ebf4f4"/>
    <path id="Path_9018" data-name="Path 9018" d="M2128.734-296.434q-.053.924-.1,1.847C2127.448-295.272,2127.375-295.894,2128.734-296.434Z" transform="translate(-4087.061 7902.538)" fill="#5576e0"/>
    <path id="Path_9019" data-name="Path 9019" d="M2169.583-400.21c-2.505-.711-4.463-2.4-6.625-3.718l-.028-7.136q.233-11.749,0-23.5c.021-2.3.051-4.607.062-6.91.03-5.819,4.034-9.83,9.9-9.843,9.281-.021,18.563,0,27.844-.007.747,0,1.493-.043,2.238-.065l1.187.222-.072,5.009c-2.74.029-5.481.069-8.222.083-2.993.016-5.985-.028-8.978.024-1.445.025-2.433.793-2.366,2.309.061,1.4,1.009,2.063,2.4,2.073.5,0,1,0,1.5,0l15.705.072-.01,3.827c-.683.025-1.366.073-2.049.073q-14.754.007-29.508.007c-2.484,0-3,.5-3,2.929Q2169.557-417.483,2169.583-400.21Z" transform="translate(-4109.09 7999.508)" fill="#3c3e3d"/>
    <path id="Path_9020" data-name="Path 9020" d="M2272.965-437.823l.01-3.827c1.055-.021,2.109-.058,3.164-.06,4.037-.007,8.074.009,12.111-.011a2.074,2.074,0,0,0,2.335-2.116c.052-1.424-.831-2.134-2.187-2.277-.492-.052-.993-.016-1.49-.018l-13.968-.082q.036-2.5.072-5.009l1.259-.257a2.129,2.129,0,0,0,1.7.037q8.875.058,17.751.118c3.3.025,6.6.065,9.9.1l.722.111c4.869,1.087,7.635,4.494,7.737,9.566.055,2.734.071,5.469.1,8.2a84.488,84.488,0,0,0,0,11.412,15.565,15.565,0,0,0,0,3.883,17.634,17.634,0,0,0-6.252,8.369q-.011-12.328-.023-24.657c0-3.077-.336-3.4-3.443-3.412Q2287.721-437.784,2272.965-437.823Z" transform="translate(-4177.937 7999.567)" fill="#020202"/>
    <path id="Path_9021" data-name="Path 9021" d="M2377.53-391.605a84.447,84.447,0,0,1,0-11.412,1.776,1.776,0,0,1,.784,1.595c-.015,2.74-.011,5.48,0,8.22A1.745,1.745,0,0,1,2377.53-391.605Z" transform="translate(-4243.268 7969.239)" fill="#ebf4f4"/>
    <path id="Path_9022" data-name="Path 9022" d="M2200.753-616.4c-.179.55-.444.883-.906.952-.407.061-2.664-2.144-2.543-2.491.146-.414.513-.9.936-.717A8.064,8.064,0,0,1,2200.753-616.4Z" transform="translate(-4130.6 8104.215)" fill="#ebf4f4"/>
    <path id="Path_9023" data-name="Path 9023" d="M2169.224-642.106c-.162.653-.391,1.02-.849,1.129-.419.1-2.941-1.8-2.835-2.133.128-.4.452-1,.846-.8A28.9,28.9,0,0,1,2169.224-642.106Z" transform="translate(-4110.721 8120.02)" fill="#ebf4f4"/>
    <path id="Path_9024" data-name="Path 9024" d="M2151.2-652.079c-.855-.612-2.126-.808-2.661-1.934-.147-.308.232-.812.729-.893.443-.073,2.972,1.676,2.9,2.012A.965.965,0,0,1,2151.2-652.079Z" transform="translate(-4100.067 8126.875)" fill="#ebf4f4"/>
    <path id="Path_9025" data-name="Path 9025" d="M2276.2-475.974c.161.861-.118,1.419-.8,1.212-1.344-.4-.68-1.751-1.008-2.644-.23-.626.1-1.224.808-1.027C2276.6-478.045,2275.809-476.653,2276.2-475.974Z" transform="translate(-4178.795 8016.459)" fill="#ebf4f4"/>
    <path id="Path_9026" data-name="Path 9026" d="M2266.869-515.3c.1.726-.384,1.033-.756.911-1.365-.447-1.1-1.871-1.52-2.878-.232-.561.417-.879.749-.782C2266.769-517.635,2266.271-516.092,2266.869-515.3Z" transform="translate(-4172.681 8041.241)" fill="#ebf4f4"/>
    <path id="Path_9027" data-name="Path 9027" d="M2258.7-533.241c-.957-.343-.942-1.348-1.338-2.039-.246-.43-.678-.992-.032-1.476a1.047,1.047,0,0,1,.668-.228c.613.076,1.778,2.9,1.387,3.345A2.687,2.687,0,0,1,2258.7-533.241Z" transform="translate(-4167.953 8053.08)" fill="#ebf4f4"/>
    <path id="Path_9028" data-name="Path 9028" d="M2248.692-555.44c.844.326.966,1.227,1.385,1.856.278.418.826.9.348,1.49-.225.278-.673.562-.984.274a6.593,6.593,0,0,1-1.6-2.885C2247.713-555.077,2248.344-555.145,2248.692-555.44Z" transform="translate(-4162.215 8064.626)" fill="#ebf4f4"/>
    <path id="Path_9029" data-name="Path 9029" d="M2228.191-586.686c.082.661-.27.933-.6.984-1.038.162-1.236-.849-1.705-1.417-.341-.412-1.1-.821-.535-1.56.217-.287.6-.643.93-.3C2227-588.222,2227.628-587.373,2228.191-586.686Z" transform="translate(-4148.028 8085.705)" fill="#ebf4f4"/>
    <path id="Path_9030" data-name="Path 9030" d="M2184.472-628.729a8.239,8.239,0,0,1-2.652-2.12c-.268-.313.239-.785.623-.967s2.751,1.629,2.782,2.135A.88.88,0,0,1,2184.472-628.729Z" transform="translate(-4120.865 8112.433)" fill="#ebf4f4"/>
    <path id="Path_9031" data-name="Path 9031" d="M2272.388-495.809c.107.733-.163,1.233-.748,1.052-1.36-.422-.886-1.823-1.263-2.772a.633.633,0,0,1,.785-.879C2272.576-498.015,2271.9-496.555,2272.388-495.809Z" transform="translate(-4176.291 8028.953)" fill="#ebf4f4"/>
    <path id="Path_9032" data-name="Path 9032" d="M2214.955-601.669c-.136.414-.512.881-.9.668a5.388,5.388,0,0,1-2.322-2.507c-.15-.335.464-.679.918-.714A6.354,6.354,0,0,1,2214.955-601.669Z" transform="translate(-4139.619 8095.157)" fill="#ebf4f4"/>
    <path id="Path_9033" data-name="Path 9033" d="M2239.336-568.969c-.541,0-2.2-2.63-1.911-3.072.2-.307.579-.642.92-.408a5.229,5.229,0,0,1,1.846,2.671C2240.341-569.359,2239.74-569.128,2239.336-568.969Z" transform="translate(-4155.689 8075.32)" fill="#ebf4f4"/>
    <path id="Path_9034" data-name="Path 9034" d="M2133.993-661.913c-.7-.351-1.387-.717-2.094-1.05-1.1-.516-1.2-1.1-.151-1.784.7.348,1.392.713,2.1,1.042C2134.972-663.183,2135-662.595,2133.993-661.913Z" transform="translate(-4089.119 8133.032)" fill="#ebf4f4"/>
    <path id="Path_9035" data-name="Path 9035" d="M2278.078-455.535a2.13,2.13,0,0,1-1.7-.037c.362-.812-.766-2.39.711-2.445C2278.667-458.076,2277.711-456.381,2278.078-455.535Z" transform="translate(-4180.037 8003.659)" fill="#ebf4f4"/>
    <path id="Path_9036" data-name="Path 9036" d="M2355.685-450.822l-.722-.111A.61.61,0,0,1,2355.685-450.822Z" transform="translate(-4229.266 7999.274)" fill="#3c3e3d"/>
    <path id="Path_9037" data-name="Path 9037" d="M1586.76-236.833q-12.481.044-24.963.09c-1.924.008-3.848.051-5.772.078-9.154-.033-18.308-.086-27.462-.085a46.812,46.812,0,0,0-8.2.251c-.325-4.084-.693-8.166-.95-12.254a5.88,5.88,0,0,0-1.013-3.109,87.636,87.636,0,0,1-11.812-25.867c-2.413-8.559-2.365-17.157-1.306-25.862a147.886,147.886,0,0,1,5.931-28.637c1.515-2.509,1.84-5.394,2.535-8.154q3.8-15.12,7.475-30.273c.391-1.628,1.036-1.757,2.432-1.25a46.017,46.017,0,0,1,7.239,3.445,17.619,17.619,0,0,1,6.365,8.429,44.627,44.627,0,0,1-.06,6.282,144.1,144.1,0,0,1-3.393,17.976,81.947,81.947,0,0,0-2.76,24.175c.223,12.648.047,25.3.065,37.953.007,5.4,3.572,9.754,8.489,9.825,10.216.147,20.437.012,30.656-.008.744.03,1.488.085,2.232.088q14.188.04,28.375.066a60.247,60.247,0,0,1-8.347,13.841,22.14,22.14,0,0,1-5.545,4.933,1.655,1.655,0,0,0-.9,1.962C1586.377-240.914,1586.541-238.869,1586.76-236.833Z" transform="translate(-3697.093 7949.934)" fill="#b6e2f4"/>
    <path id="Path_9038" data-name="Path 9038" d="M1581.251-409.656a17.622,17.622,0,0,0-6.365-8.429q.04-2,.079-3.995c.346-3.687.049-7.384.16-11.074q.041-5.133.081-10.265l0,.018c1.278-5.283,4.713-7.963,10.2-7.971,1,0,1.992-.033,2.988-.051l.405-.018a3.93,3.93,0,0,0,2,.056,12.274,12.274,0,0,0,3.587-.08,49.406,49.406,0,0,0,7.7.1l12.168.092q-.014,2.521-.028,5.043c-.679.036-1.358.1-2.037.1-4.285.01-8.57-.014-12.854.014-1.864.012-2.964,1.038-2.712,2.5.262,1.511,1.326,1.912,2.734,1.912,4.965,0,9.931.046,14.9.075q0,1.906-.007,3.812-14.949.038-29.9.078c-2.574.007-3.078.5-3.082,3.04Q1581.255-422.176,1581.251-409.656Z" transform="translate(-3741.085 7999.558)" fill="#3c3e3d"/>
    <path id="Path_9039" data-name="Path 9039" d="M1574.079-402.537c-.111,3.691.186,7.387-.16,11.074a1.12,1.12,0,0,1-.7-1.019q-.018-4.561,0-9.122C1573.228-402.144,1573.388-402.6,1574.079-402.537Z" transform="translate(-3740.038 7968.942)" fill="#ebf4f4"/>
    <path id="Path_9040" data-name="Path 9040" d="M1611.276-574.351v1.063A.739.739,0,0,1,1611.276-574.351Z" transform="translate(-3763.718 8076.462)" fill="#4d6ed8"/>
    <path id="Path_9041" data-name="Path 9041" d="M1575.745-429.944l0-.018Z" transform="translate(-3741.62 7986.101)" fill="#81b97c"/>
    <path id="Path_9042" data-name="Path 9042" d="M1611.412-452.055l-.405.018.337-.409Z" transform="translate(-3763.69 8000.171)" fill="#4d6ed8"/>
    <path id="Path_9043" data-name="Path 9043" d="M1710.672-119.088q-14.188-.031-28.375-.066c-.744,0-1.488-.057-2.232-.088q.005-1.6.011-3.193l.7.043c.137.253.274.252.411,0,3.907-.581,6.114-3.632,5.1-7.046-.736-2.472-2.729-3.718-6.23-3.9l.024-2.978c.807-.027,1.615-.076,2.422-.078q12.606-.041,25.212-.069c2.552,1.3,4.8.717,7.064-.869,2.011-1.41,4.216-2.545,6.335-3.8.009,3.971.028,7.942.026,11.913,0,6.112-3.662,9.888-9.729,10.059C1711.163-119.153,1710.918-119.112,1710.672-119.088Zm-20-6.568a2.151,2.151,0,0,0,2.058-2.318,2.024,2.024,0,0,0-2.192-2.04,2.015,2.015,0,0,0-2.128,2.274C1688.461-126.471,1689.3-125.774,1690.672-125.655Z" transform="translate(-3806.902 7805.348)" fill="#020202"/>
    <path id="Path_9044" data-name="Path 9044" d="M1757.88-177c-2.119,1.257-4.323,2.391-6.335,3.8-2.263,1.587-4.512,2.167-7.063.869a33.644,33.644,0,0,1-4.7-6.907c-1.538-2.659-1.533-6.315,2.122-8.281a64.872,64.872,0,0,0,9.5-5.869,41.116,41.116,0,0,0,6.582-3.9c4.318-2.109,6.552-1.43,9.084,2.768.835,1.385,1.742,2.736,2.463,4.179,1.58,3.164.764,5.757-2.254,7.594Q1762.567-179.889,1757.88-177Z" transform="translate(-3843.668 7841.219)" fill="#b6e2f4"/>
    <path id="Path_9045" data-name="Path 9045" d="M1778.887-201.062a41.077,41.077,0,0,1-6.582,3.9q-.042-1.638-.084-3.276a39.056,39.056,0,0,1,6.59-4.04Q1778.85-202.769,1778.887-201.062Z" transform="translate(-3864.581 7844.99)" fill="#020202"/>
    <path id="Path_9046" data-name="Path 9046" d="M2121.654-418.024q.22,11.749,0,23.5c-7.069-3.954-14.2-7.8-21.177-11.912a6.628,6.628,0,0,1-2.619-9.171,51.392,51.392,0,0,1,3.811-6.362,6.719,6.719,0,0,1,8.895-2.127C2114.294-422.141,2117.959-420.054,2121.654-418.024Z" transform="translate(-4067.811 7982.972)" fill="#b6e2f4"/>
    <path id="Path_9047" data-name="Path 9047" d="M2017.068-696.508c-.718-.342-2.021.324-2.169-1.036-.1-.914.8-.89,1.35-.679.862.326,2.4-.453,2.49,1.1C2018.8-696.1,2017.7-696.656,2017.068-696.508Z" transform="translate(-4016.445 8154.058)" fill="#ebf4f4"/>
    <path id="Path_9048" data-name="Path 9048" d="M1976.3-698.558c-.437-.135-1.5.468-1.536-.736s1.03-.723,1.668-.843a7.661,7.661,0,0,1,1.1-.07c.508-.021,1-.046,1.047.683s-.309,1-.991.969C1977.222-698.571,1976.853-698.558,1976.3-698.558Z" transform="translate(-3991.333 8155.229)" fill="#ebf4f4"/>
    <path id="Path_9049" data-name="Path 9049" d="M1916.607-695c.682-.158.876.345,1.019.814.2.665-.394.669-.77.753-.782.174-1.583.262-2.37.417-.613.12-.7-.351-.872-.723-.368-.776.349-.616.667-.708C1915.046-694.675,1915.832-694.826,1916.607-695Z" transform="translate(-3953.002 8151.987)" fill="#ebf4f4"/>
    <path id="Path_9050" data-name="Path 9050" d="M1895.283-688.976c-.677.067-1.351-.008-1.175-.641.4-1.423,1.9-.948,2.874-1.395.508-.233,1.165.146,1.044.682C1897.668-688.758,1896.05-689.541,1895.283-688.976Z" transform="translate(-3940.84 8149.514)" fill="#ebf4f4"/>
    <path id="Path_9051" data-name="Path 9051" d="M2113.552-673.215c.854.651,2.322.451,2.853,1.7a.647.647,0,0,1-.774.8c-1.076-.35-2.369-.446-2.94-1.623C2112.55-672.629,2112.912-673.162,2113.552-673.215Z" transform="translate(-4077.632 8138.333)" fill="#ebf4f4"/>
    <path id="Path_9052" data-name="Path 9052" d="M1936.279-697.461c.5.137,1.375-.337,1.5.531.15,1.006-.779.861-1.413.975a4.047,4.047,0,0,0-.685.231c-.863.323-1.731.241-1.9-.74-.2-1.169.928-.761,1.531-.926A4.957,4.957,0,0,1,1936.279-697.461Z" transform="translate(-3965.677 8153.511)" fill="#ebf4f4"/>
    <path id="Path_9053" data-name="Path 9053" d="M1956.156-697.775c-.551-.056-1.556.455-1.549-.785.006-1.068.975-.652,1.563-.776a4.6,4.6,0,0,1,.922-.033c.6,0,1.332-.168,1.323.8-.009.886-.742.621-1.234.708C1956.88-697.808,1956.569-697.808,1956.156-697.775Z" transform="translate(-3978.72 8154.708)" fill="#ebf4f4"/>
    <path id="Path_9054" data-name="Path 9054" d="M2055.585-691.483c.836.311,2.046.025,2.585.963.266.462.108,1.441-1,1.123-.535-.154-1.051-.38-1.588-.522-.579-.152-1.395-.055-1.287-.968C2054.372-691.529,2055.039-691.4,2055.585-691.483Z" transform="translate(-4041.1 8149.764)" fill="#ebf4f4"/>
    <path id="Path_9055" data-name="Path 9055" d="M2075.574-686.42c.666.208,1.374.421,2.075.653.3.1.627.28.486.64-.123.315-.2.768-.641.828a5.481,5.481,0,0,1-2.938-.8c-.317-.138-.321-.523-.247-.821C2074.483-686.615,2075.078-686.337,2075.574-686.42Z" transform="translate(-4053.605 8146.596)" fill="#ebf4f4"/>
    <path id="Path_9056" data-name="Path 9056" d="M2097.7-679.042c-.089.652-.389,1.047-.875.864-.99-.375-2.335-.208-2.811-1.428a.659.659,0,0,1,.913-.787C2095.909-680.038,2097.093-680,2097.7-679.042Z" transform="translate(-4065.937 8142.857)" fill="#ebf4f4"/>
    <path id="Path_9057" data-name="Path 9057" d="M2037.344-693.616c-.713-.33-1.775.043-2.41-.788a.882.882,0,0,1,.232-.818c.825-.561,1.641.039,2.468.119.624.06,1.127.185.991.964C2038.5-693.422,2037.935-693.6,2037.344-693.616Z" transform="translate(-4028.966 8152.252)" fill="#ebf4f4"/>
    <path id="Path_9058" data-name="Path 9058" d="M1997.144-699.564c.6.329,1.889-.458,1.807.879-.076,1.243-1.251.65-1.936.64-.624-.01-1.737.432-1.737-.721C1995.28-700.132,1996.483-699.294,1997.144-699.564Z" transform="translate(-4004.173 8154.83)" fill="#ebf4f4"/>
    <path id="Path_9059" data-name="Path 9059" d="M2446.763-138.41q.058-.559.117-1.118c.3.066.614.139.621.526C2447.51-138.508,2447.134-138.453,2446.763-138.41Z" transform="translate(-4286.716 7804.344)" fill="#5b7de7"/>
    <path id="Path_9060" data-name="Path 9060" d="M2445.912-132.9q.067-.409.133-.818c.235.083.518.215.436.474C2446.43-133.086,2446.111-133.013,2445.912-132.9Z" transform="translate(-4286.184 7800.709)" fill="#5b7de7"/>
    <path id="Path_9061" data-name="Path 9061" d="M2215.163-414.983q14.756.037,29.513.073c3.106.007,3.439.335,3.442,3.412q.011,12.328.023,24.657,0,3.478-.008,6.955c-.007.933-.02,1.866-.02,2.8q0,32.892,0,65.784c0,3.04-.5,3.523-3.6,3.53l-29.34.065q-11.987-.039-23.973-.081c-1.238,0-2.476-.039-3.714-.059,2.029-1.987,3.3-4.5,4.72-6.9,1.928-3.242,1.025-6.317-2.14-8.238a101.319,101.319,0,0,1-9.49-5.9q.057-1.631.115-3.261a4.614,4.614,0,0,1,1.361.561c2.965,2.609,6.154,1.069,8.13-1.662a39,39,0,0,0,3.1-5.291c1.662-3.286.931-5.6-2.211-7.5-2.916-1.77-5.836-3.531-8.734-5.33a4.446,4.446,0,0,1-1.723-1.388q.031-.719.062-1.44a26.262,26.262,0,0,1,2.738,1.56,6.444,6.444,0,0,0,7.928.266c0,1.4,0,2.8,0,4.363a3.967,3.967,0,0,0,.74-.388q7.381-7.386,14.749-14.784a2.586,2.586,0,0,1,1.576,1.506l-15.3,15.349h43.5l-15.269-15.39c.247-.747.841-1.3.863-2.207a8.119,8.119,0,0,0-7.368-8.187c-4.772-.331-7.96,2.482-9.024,7.96l-1.63-1.292c.023-5.1.071-10.2.049-15.3,0-1.1.255-1.684,1.447-1.924a4.364,4.364,0,0,0,3.48-3.507c.246-1.033.679-1.438,1.767-1.395,2.051.081,4.111.091,6.16,0,1.1-.052,1.532.367,1.756,1.386a4.19,4.19,0,0,0,3.327,3.426c1.57.278,1.658,1.039,1.658,2.276,0,5.412.068,10.824.111,16.235-.943.752-.823,1.352.039,2.2,4.5,4.406,8.926,8.882,13.386,13.325.233.232.4.675.927.435,0-8.9-.01-17.806.017-26.715a2.175,2.175,0,0,0-.985-1.86c-3.169-2.523-6.3-5.089-9.471-7.615-.347-.277-.626-.821-1.243-.6q0,8.628,0,17.214c0,.849.21,1.813-.944,2.17-.032-7.224-.107-14.449-.062-21.673.01-1.52-.355-2.022-1.949-2q-9.621.148-19.247.024c-1.575-.02-1.98.451-1.964,1.99.071,6.787.016,13.576.006,20.365-1-.44-.968-1.318-.966-2.21.011-3.854,0-7.708,0-11.562v-3.384a60.6,60.6,0,0,1-6.023,4.777c-3.285,1.987-4.789,4.618-4.1,8.429a50.446,50.446,0,0,1-10.739-6.49q-.014-17.272-.022-34.546c0-2.431.518-2.927,3-2.929q14.754-.013,29.508-.007C2213.8-414.91,2214.479-414.958,2215.163-414.983Zm18.99,80.793c.43-4.244-2.667-7.427-7.343-7.448-7.354-.033-14.709-.015-22.063,0a25.388,25.388,0,0,0-3.355.141,6.687,6.687,0,0,0-5.853,7.2,6.519,6.519,0,0,0,6.372,6.649q12.982.128,25.965.006A6.478,6.478,0,0,0,2234.153-334.19Zm-24.83-56.371h10.871c-5.023-4.83-5.022-4.829-10.077-.556C2209.975-391,2209.812-390.9,2209.323-390.561Z" transform="translate(-4120.134 7976.728)" fill="#edf3f6"/>
    <path id="Path_9062" data-name="Path 9062" d="M2272.706-249.009l29.34-.065c3.106-.007,3.6-.49,3.6-3.53q0-32.892,0-65.784c0-.932.013-1.865.02-2.8,1.479,7.753,2.691,15.565,4.809,23.18a39.448,39.448,0,0,1,1.332,10.871c-.071,14.944-.028,29.888-.031,44.832,0,6.787-3.7,10.481-10.508,10.469q-14.289-.025-28.577-.079l-.182-3.177a5.627,5.627,0,0,0,4.305-3.489c1.24-3.156-.395-6.036-4.191-7.435Zm10.673,8.517a2.092,2.092,0,0,0-2.2-2.2,2.006,2.006,0,0,0-2.138,2.084,2.005,2.005,0,0,0,2.171,2.225A2.069,2.069,0,0,0,2283.378-240.492Z" transform="translate(-4177.666 7918.029)" fill="#020202"/>
    <path id="Path_9063" data-name="Path 9063" d="M1659.272-332.174q.041,1.638.083,3.276a64.825,64.825,0,0,1-9.495,5.869c-3.655,1.966-3.659,5.622-2.122,8.281a33.644,33.644,0,0,0,4.7,6.907q-12.606.033-25.212.069c-.808,0-1.615.051-2.422.078-.682-.031-1.365-.09-2.047-.09q-13.834-.009-27.667,0c-2.766,0-3.275-.5-3.277-3.227q-.007-11.963,0-23.926-.03-22.8-.077-45.6a44.7,44.7,0,0,0,.06-6.282q.01-12.521.021-25.041c0-2.537.508-3.033,3.082-3.04q14.949-.043,29.9-.078,15.5.037,31,.073c3.307.007,3.589.284,3.583,3.654q-.029,16.9-.064,33.794c-1.308,1.684-3.326,2.346-5.034,3.441-3.033,1.944-6.146,3.766-9.25,5.6-2.343,1.381-3.238,4.092-2.066,7.019a25.158,25.158,0,0,0,5.45,8.609,5.426,5.426,0,0,0,6.979.78c1.278-.768,2.6-1.469,3.9-2.2q.017.717.035,1.434c-2.777,2.432-6.126,3.976-9.208,5.934-1.816,1.154-3.9,1.96-4.231,4.574a5.1,5.1,0,0,0,.341,2.717A25.033,25.033,0,0,0,1650.9-332c2.049,2.1,4.016,2.262,6.528.687A5.182,5.182,0,0,1,1659.272-332.174Zm-14.627,1.838.066-.053-.086-.018c-1.017-3.128-3.2-4.949-6.448-4.991q-12.762-.163-25.527,0a6.675,6.675,0,0,0-6.5,7.142,6.647,6.647,0,0,0,6.765,6.888c8.385.1,16.771.069,25.156.011,3.7-.026,7.193-3.481,6.783-6.941A3.819,3.819,0,0,0,1644.645-330.336Zm-19.386-10.409a9.019,9.019,0,0,1,1.308.01c1.536.228,2.159-.35,1.983-1.938-.123-1.108.024-2.244-.04-3.363-.062-1.085.2-1.679,1.43-1.916a14.582,14.582,0,0,0,5.6-2.481,11.782,11.782,0,0,0-.122-19.368,30.052,30.052,0,0,0-6.569-3.117,30.611,30.611,0,0,1-5.743-2.695,3.239,3.239,0,0,1-1.674-3.964c.658-2.075,2.528-2.464,4.349-2.625a19.112,19.112,0,0,1,9.646,1.716c1.027.464,1.431.254,1.656-.816a45.367,45.367,0,0,1,1.229-4.888c.381-1.156.107-1.676-1.024-2.058a23,23,0,0,0-6.91-1.481c-1.082-.021-1.525-.327-1.53-1.506-.007-1.461.741-3.451-.378-4.252-1.006-.719-2.885-.159-4.369-.285-1.413-.12-2.1.277-1.918,1.829.12,1.046-.04,2.122.041,3.175a1.384,1.384,0,0,1-1.255,1.688,15.253,15.253,0,0,0-4.477,1.844,11.053,11.053,0,0,0-2.946,16.893c1.991,2.259,4.682,3.462,7.4,4.579,2.129.874,4.4,1.405,6.4,2.59,2.118,1.254,3.058,2.852,2.656,4.7-.454,2.082-2.078,2.854-3.944,3.189-4.344.78-8.409-.264-12.3-2.111-.988-.469-1.419-.367-1.666.725-.4,1.761-.811,3.524-1.36,5.241-.383,1.2.1,1.675,1.119,2.1a26.707,26.707,0,0,0,7.018,1.864c2.982.367,2.985.343,2.985,3.255C1621.851-340.746,1621.851-340.746,1625.258-340.746Z" transform="translate(-3751.63 7976.728)" fill="#ebf4f4"/>
    <path id="Path_9064" data-name="Path 9064" d="M1634.567-551.464a49.393,49.393,0,0,1-7.7-.1c.015-.623.045-1.246.043-1.869-.032-15.025-.046-30.051-.134-45.076-.009-1.486.279-2.163,1.9-2.42a9.664,9.664,0,0,0,8.429-8.317c.267-1.937,1.161-2.12,2.629-2.119,4.988,0,9.977.041,14.963-.053,1.37-.026,1.738.4,1.939,1.731a9.946,9.946,0,0,0,8.532,8.679c1.834.193,2.156.911,2.152,2.577-.03,15.649.025,31.3.056,46.946a56.356,56.356,0,0,1-7.682-.006q.568-.846,1.137-1.693a16.309,16.309,0,0,0,1.571-16.342,16.682,16.682,0,0,0-19.815-9.342,16.741,16.741,0,0,0-12.06,18.3A19.966,19.966,0,0,0,1634.567-551.464Z" transform="translate(-3773.56 8099.662)" fill="#ebf4f4"/>
    <path id="Path_9065" data-name="Path 9065" d="M1661.266-557.58c-.031-15.648-.086-31.3-.056-46.946,0-1.666-.318-2.383-2.152-2.577a9.946,9.946,0,0,1-8.532-8.679c-.2-1.328-.57-1.757-1.939-1.731-4.987.094-9.976.058-14.963.053-1.469,0-2.363.182-2.629,2.119a9.664,9.664,0,0,1-8.429,8.317c-1.625.257-1.913.934-1.9,2.42.087,15.025.1,30.05.134,45.076,0,.623-.028,1.246-.043,1.869a12.271,12.271,0,0,1-3.587.08q-.063-30.646-.162-61.292c-.007-1.62.369-2.093,2.049-2.092q21.862,0,43.724-.192c1.483-.012,2.06.316,2.058,1.943q-.03,29.991.06,59.983c0,.559-.047,1.119-.073,1.678Z" transform="translate(-3767.441 8105.753)" fill="#81acbe"/>
    <path id="Path_9066" data-name="Path 9066" d="M1640.609-498.061a19.966,19.966,0,0,1-4.031-9.108,16.741,16.741,0,0,1,12.06-18.3,16.682,16.682,0,0,1,19.815,9.342,16.308,16.308,0,0,1-1.571,16.342q-.567.848-1.137,1.692l-12.967.122Zm8.968-4.137a5,5,0,0,0,4.736-3.143c.754-1.5,1.363-3.071,2.07-4.595.385-.829.929-1.538,1.991-1.346,1.157.209,1.366,1.15,1.449,2.113a8.274,8.274,0,0,1-.408,3.5c-.318.9-.8,1.768.774,2.023,1.215.2,2.5.942,2.844-1.067.094-.552.258-1.094.311-1.648.1-1.025.485-1.628,1.648-1.454,1.33.2,1.278-.7,1.329-1.635.062-1.136-.336-1.647-1.485-1.478-1.1.162-1.65-.275-1.995-1.376a5.4,5.4,0,0,0-5.241-4.063c-2.479-.1-4.037,1.38-5.037,3.511-.4.844-.706,1.728-1.062,2.591a15.4,15.4,0,0,1-.741,1.712,2.112,2.112,0,0,1-2.232,1.358c-1.032-.17-1.353-1-1.569-1.877a8.079,8.079,0,0,1,.4-4.406c.685-2.2.668-2.1-1.531-2.736-1.237-.358-1.742.056-2.018,1.127a16.473,16.473,0,0,0-.538,2.36c-.127,1.227-.51,2-1.953,1.748-1.3-.226-1.311.635-1.342,1.6-.034,1.092.254,1.7,1.449,1.5,1.318-.211,1.94.3,2.36,1.628A5.629,5.629,0,0,0,1649.576-502.2Z" transform="translate(-3779.603 8046.259)" fill="#81acbe"/>
    <path id="Path_9067" data-name="Path 9067" d="M1650.562-432.864c-4.965-.029-9.931-.077-14.9-.075-1.408,0-2.473-.4-2.734-1.912-.252-1.458.847-2.484,2.712-2.5,4.285-.028,8.57,0,12.854-.014.679,0,1.358-.067,2.037-.1l15.837.1a14.065,14.065,0,0,1,1.676.029,2.1,2.1,0,0,1,2.107,2.18,2.067,2.067,0,0,1-2.261,2.193c-2.3.043-4.6.007-6.9.019C1657.518-432.922,1654.04-432.89,1650.562-432.864Z" transform="translate(-3777.389 7990.797)" fill="#ebf4f4"/>
    <path id="Path_9068" data-name="Path 9068" d="M2209.135-319.362c-.687-3.811.817-6.442,4.1-8.429a60.721,60.721,0,0,0,6.023-4.777v3.384c0,3.854.006,7.708-.005,11.562,0,.892-.037,1.77.966,2.21l1.737,1.547,1.63,1.292,1.015.969q-7.373,7.395-14.75,14.785a3.978,3.978,0,0,1-.74.388c0-1.566,0-2.964,0-4.363a27.088,27.088,0,0,0,5.491-8.393c1.635-3.472.545-6.265-2.753-8.241A8.9,8.9,0,0,1,2209.135-319.362Z" transform="translate(-4137.904 7925.152)" fill="#4ccafd"/>
    <path id="Path_9069" data-name="Path 9069" d="M2262.221-120.292c3.8,1.4,5.431,4.279,4.191,7.435a5.628,5.628,0,0,1-4.306,3.489c-4.126-.129-6.6-2.594-6.171-6.154C2256.288-118.456,2258.6-120.209,2262.221-120.292Z" transform="translate(-4167.264 7792.306)" fill="#ebf4f4"/>
    <path id="Path_9070" data-name="Path 9070" d="M2243.538-109.2a2.143,2.143,0,0,1-2.229,2.105,2.139,2.139,0,0,1-2.1-2.348,2.054,2.054,0,0,1,2.3-1.953A2.08,2.08,0,0,1,2243.538-109.2Z" transform="translate(-4156.813 7786.74)" fill="#ebf4f4"/>
    <path id="Path_9071" data-name="Path 9071" d="M2240.213-437.407l13.968.082c.5,0,1-.034,1.49.018,1.355.143,2.238.852,2.186,2.277a2.073,2.073,0,0,1-2.334,2.116c-4.037.021-8.074,0-12.111.011-1.055,0-2.109.039-3.164.06l-15.705-.072c-.5,0-1,0-1.5,0-1.389-.01-2.337-.673-2.4-2.073-.066-1.516.921-2.284,2.366-2.309,2.992-.051,5.985-.008,8.978-.024C2234.733-437.338,2237.473-437.378,2240.213-437.407Z" transform="translate(-4145.209 7990.76)" fill="#ebf4f4"/>
    <path id="Path_9072" data-name="Path 9072" d="M1581.413-322.942q.04,22.8.078,45.6.016,11.963,0,23.926c0,2.727.511,3.226,3.277,3.227q13.834,0,27.667,0c.682,0,1.365.059,2.047.09l-.024,2.978c-3.125,1.267-4.565,3.086-4.476,5.653q.127,3.672,4.5,5.247-.006,1.6-.011,3.193c-10.219.019-20.439.155-30.656.008-4.917-.071-8.482-4.427-8.489-9.825-.018-12.651.159-25.305-.065-37.953a81.947,81.947,0,0,1,2.76-24.175A144.1,144.1,0,0,0,1581.413-322.942ZM1608.1-241.39a2.263,2.263,0,0,0-2.073-2.429,2.187,2.187,0,0,0-2.239,2.24,2.02,2.02,0,0,0,2.162,2.1A2.033,2.033,0,0,0,1608.1-241.39Z" transform="translate(-3741.307 7919.127)" fill="#3c3e3d"/>
    <path id="Path_9073" data-name="Path 9073" d="M1672.583-109.395q-4.366-1.572-4.5-5.247c-.089-2.568,1.352-4.387,4.476-5.653,3.5.178,5.494,1.425,6.23,3.9,1.017,3.414-1.19,6.465-5.1,7.046h-.411Z" transform="translate(-3799.408 7792.308)" fill="#ebf4f4"/>
    <path id="Path_9074" data-name="Path 9074" d="M1704.637-107.062c-1.369-.118-2.212-.816-2.264-2.084a2.015,2.015,0,0,1,2.129-2.274,2.023,2.023,0,0,1,2.192,2.04A2.15,2.15,0,0,1,1704.637-107.062Z" transform="translate(-3820.867 7786.754)" fill="#ebf4f4"/>
    <path id="Path_9075" data-name="Path 9075" d="M1681.986-91.05h.411C1682.26-90.8,1682.123-90.8,1681.986-91.05Z" transform="translate(-3808.11 7774.006)" fill="#3c3e3d"/>
    <path id="Path_9076" data-name="Path 9076" d="M2242.313-272.626l15.269,15.39h-43.5l15.295-15.348a22.755,22.755,0,0,1,4.914,3.837c1.321,1.193,2.111.879,3.268-.094A34.663,34.663,0,0,1,2242.313-272.626Z" transform="translate(-4141.099 7887.639)" fill="#4ccafd"/>
    <path id="Path_9077" data-name="Path 9077" d="M2297.093-315.773c1.154-.357.943-1.321.944-2.17q.011-8.6,0-17.214c.617-.225.9.319,1.243.6,3.166,2.526,6.3,5.092,9.47,7.615a2.174,2.174,0,0,1,.985,1.86c-.028,8.909-.017,17.817-.017,26.715-.523.24-.695-.2-.927-.435-4.461-4.443-8.889-8.919-13.386-13.325-.862-.844-.982-1.445-.039-2.2A3.411,3.411,0,0,0,2297.093-315.773Z" transform="translate(-4191.561 7926.805)" fill="#4ccafd"/>
    <path id="Path_9078" data-name="Path 9078" d="M2220.55-211.667a6.685,6.685,0,0,1,5.851-7.2,25.381,25.381,0,0,1,3.355-.141c7.354-.011,14.709-.03,22.063,0,4.676.021,7.772,3.2,7.343,7.446a53.5,53.5,0,0,0-7.748-.072,8.155,8.155,0,0,1-.358-1.221c-.281-2.063-1.273-2.646-3.857-2.723-2.171-.065-1.5,1.445-1.665,2.534-.074.491-.114.987-.169,1.481l-.908-.162c-.019-.935-.032-1.869-.059-2.8-.013-.429.029-.915-.609-.946-.7-.034-.815.43-.818.976-.006.721,0,1.441,0,2.161a10.051,10.051,0,0,1-1.83-2.552c-.38-.7-1-.684-1.621-.573-.722.129-.473.762-.508,1.215-.057.744-.069,1.491-.1,2.237a1.208,1.208,0,0,1-1.01,0c-.05-.538-.205-.945-.87-.972-.569-.023-1.466.219-1.44-.684.027-.937.946-.486,1.484-.581.444-.079.908-.08.86-.7-.037-.494-.44-.491-.812-.553-2.736-.458-3.172-.107-3.258,2.623-.013.431-.087.861-.133,1.291l-.6-.021c-.535-.409-1.052-.845-1.611-1.218-.437-.291-1.272-.307-1.141-.992.135-.707.889-.465,1.415-.431.432.027.748-.1.816-.532.1-.608-.372-.707-.811-.75-1.066-.1-2.13-.125-2.847.879-.748,1.047-.179,1.851.531,2.616a3.123,3.123,0,0,1-1.954.323C2225.2-211.69,2222.875-211.681,2220.55-211.667Z" transform="translate(-4145.144 7854.093)" fill="#bf8700"/>
    <path id="Path_9079" data-name="Path 9079" d="M2233.14-201.288l.6.019c.5.767-.6,2.182.9,2.484a13.624,13.624,0,0,0,2.795.034c.33,0,.623-.117.671-.5.061-.485-.258-.595-.659-.705-.626-.172-1.77.474-1.771-.708,0-1.3,1.316-.42,1.909-.84.1-.071.215-.125.323-.186a1.2,1.2,0,0,0,1.009,0q.057.912.113,1.826c.029.484-.04,1.052.672,1.08.832.033.786-.6.8-1.153.015-.855.007-1.71.008-2.565l.033-.035c.808.641.95,1.679,1.474,2.492.435.674.76,1.514,1.771,1.258.965-.244.444-1.114.575-1.706a8.211,8.211,0,0,0,.1-.91c.3.054.605.108.907.16.526.775-.645,2.345,1.107,2.512a5.948,5.948,0,0,0,3.287-.4c.931-.458,1.119-1.444,1.656-2.18a53.491,53.491,0,0,1,7.748.072,6.479,6.479,0,0,1-6.277,6.544q-12.982.116-25.965-.006a6.517,6.517,0,0,1-6.371-6.648c2.326-.013,4.652-.022,6.977-.043a3.113,3.113,0,0,0,1.952-.324c.688.291,1.839.269,1.668,1.308-.147.89-1.126.373-1.745.424-.409.033-.738.15-.741.617,0,.362.285.477.587.6C2231.132-198.006,2232.787-199.073,2233.14-201.288Z" transform="translate(-4145.155 7843.775)" fill="#81b97c"/>
    <path id="Path_9080" data-name="Path 9080" d="M2262.238-322.855a3.413,3.413,0,0,1-1.723,1.447c-.042-5.412-.108-10.824-.11-16.236,0-1.237-.089-2-1.659-2.276a4.19,4.19,0,0,1-3.327-3.426c-.225-1.018-.652-1.437-1.756-1.386-2.049.1-4.109.086-6.16,0-1.087-.043-1.521.361-1.767,1.395a4.363,4.363,0,0,1-3.48,3.507c-1.192.24-1.452.824-1.447,1.924.022,5.1-.025,10.2-.049,15.3l-1.738-1.548c.01-6.788.065-13.577-.006-20.364-.016-1.539.389-2.009,1.964-1.99q9.623.121,19.247-.024c1.594-.024,1.958.477,1.949,2C2262.131-337.3,2262.206-330.08,2262.238-322.855Z" transform="translate(-4156.706 7933.886)" fill="#81acbe"/>
    <path id="Path_9081" data-name="Path 9081" d="M2263.564-290.053a34.631,34.631,0,0,0-4.759,3.784c-1.158.973-1.948,1.287-3.268.094a22.76,22.76,0,0,0-4.914-3.837,2.579,2.579,0,0,0-1.574-1.507l-1.014-.97c1.064-5.478,4.253-8.29,9.025-7.96a8.119,8.119,0,0,1,7.367,8.187C2264.405-291.355,2263.811-290.8,2263.564-290.053Zm-4.167-.763c-.249.7-.127,1.092.535,1.219.56.107.975,0,1.171-.6.159-.49,0-1.079.734-1.36,1.221-.466,1.35-1.1-.027-1.571a1.5,1.5,0,0,1-.869-.895,2.646,2.646,0,0,0-2.647-1.694c-1.4.073-1.992,1.044-2.544,2.152-.4.806-.333,2.388-1.7,2-1.348-.387-.707-1.746-.59-2.746a1.743,1.743,0,0,1,.119-.353.642.642,0,0,0-.554-.949c-.43-.087-.912-.178-1.15.315a2.744,2.744,0,0,0-.364,1.242c.062,1.151-1.769.573-1.551,1.751.18.974,1.57.4,1.877,1.526a2.58,2.58,0,0,0,2.9,1.864c1.363-.113,1.986-1.142,2.483-2.258.152-.34.254-.7.414-1.039.238-.5.452-1.153,1.135-1.047.8.124.8.851.781,1.48A6.443,6.443,0,0,1,2259.4-290.816Z" transform="translate(-4162.349 7905.065)" fill="#81acbe"/>
    <path id="Path_9082" data-name="Path 9082" d="M2257.4-355.9c.489-.341.652-.436.794-.556,5.054-4.273,5.054-4.274,10.076.556Z" transform="translate(-4168.209 7942.062)" fill="#4ccafd"/>
    <path id="Path_9083" data-name="Path 9083" d="M2294.307-109.22a2.069,2.069,0,0,1-2.162,2.106,2.006,2.006,0,0,1-2.172-2.225,2.007,2.007,0,0,1,2.138-2.084A2.093,2.093,0,0,1,2294.307-109.22Z" transform="translate(-4188.593 7786.756)" fill="#ebf4f4"/>
    <path id="Path_9084" data-name="Path 9084" d="M1656.806-308.764c-3.407,0-3.407,0-3.407-3.47,0-2.912,0-2.888-2.985-3.255a26.708,26.708,0,0,1-7.018-1.864c-1.018-.423-1.5-.9-1.118-2.1.549-1.717.962-3.48,1.36-5.241.247-1.092.678-1.193,1.666-.725,3.893,1.847,7.957,2.891,12.3,2.111,1.866-.335,3.49-1.107,3.944-3.189.4-1.845-.538-3.443-2.656-4.7-2-1.185-4.271-1.716-6.4-2.591-2.721-1.117-5.412-2.32-7.4-4.579a11.054,11.054,0,0,1,2.947-16.893,15.254,15.254,0,0,1,4.477-1.844,1.384,1.384,0,0,0,1.255-1.688c-.081-1.053.079-2.129-.041-3.175-.178-1.552.505-1.949,1.918-1.829,1.484.126,3.363-.434,4.369.285,1.119.8.371,2.791.378,4.252.005,1.179.448,1.485,1.53,1.506a23,23,0,0,1,6.91,1.481c1.131.383,1.405.9,1.024,2.058a45.31,45.31,0,0,0-1.229,4.888c-.225,1.07-.629,1.28-1.656.816a19.114,19.114,0,0,0-9.647-1.716c-1.82.161-3.69.55-4.348,2.625a3.239,3.239,0,0,0,1.674,3.964,30.62,30.62,0,0,0,5.743,2.695,30.047,30.047,0,0,1,6.569,3.117,11.782,11.782,0,0,1,.122,19.368,14.581,14.581,0,0,1-5.6,2.48c-1.23.237-1.492.831-1.43,1.916.064,1.118-.083,2.255.04,3.363.176,1.588-.447,2.166-1.983,1.938A9.019,9.019,0,0,0,1656.806-308.764Z" transform="translate(-3783.177 7944.747)" fill="#81acbe"/>
    <path id="Path_9085" data-name="Path 9085" d="M1668.95-187.055c.41,3.458-3.078,6.913-6.783,6.939-8.385.058-16.772.091-25.157-.011a6.647,6.647,0,0,1-6.765-6.89l3.108-.09c.033.427.059.855.1,1.281.035.35-.044.8.445.882.626.1.656-.368.7-.815.027-.271-.094-.622.3-.744.387.052.461.363.59.637.221.47.323,1.254,1.074.894.6-.286.08-.864.019-1.313-.025-.181-.048-.362-.072-.543l.951-.312c.237.723-.365,1.814.541,2.156a1.944,1.944,0,0,0,2.428-.361c-.484-.7-1.647.026-1.748-.839-.125-1.073,1.181-.209,1.491-.854.053-.11.1-.222.155-.333l.571-.021c.4,2.419,1.764,3.218,3.444,1.967-.713-.526-2.163-.079-2.111-1.574h2.822c.233,2.452,1.035,2.888,2.993,1.615-.366-.642-1.642.012-1.6-.9s1.229-.2,1.668-.755l.667-.316c.325.784-.516,2.222.651,2.329,1,.092.288-1.326.649-1.977l.967-.043c.152.332.295.67.46,1,.236.465.215,1.141.979,1.179.887.044.917-.687,1.106-1.239.359-1.051.674-2.118,1.007-3.178l.558.061a18.087,18.087,0,0,0,.052,2.21c.1.709-.531,1.968.523,2,1.072.034.34-1.324.692-1.974L1657-187c.325.66-.434,2.015.665,1.979,1.026-.033.289-1.366.583-2.058a1.792,1.792,0,0,1,.2-.236c.284.507.541.979.811,1.443s.471,1.115,1.2.943c.684-.163.406-.8.476-1.251.047-.306.065-.616.1-.925l.486.1c.347,1.7,1.422,2.278,3.091,2.176s.916-1.428,1.237-2.211Z" transform="translate(-3775.729 7835.484)" fill="#81b97c"/>
    <path id="Path_9086" data-name="Path 9086" d="M1657-195.278l-.574.012q-.059-.831-.117-1.661c-.058-.844-.533-.85-1.15-.575l-.559-.061c-1.992-.584-.977,1.762-2.042,2.085a1.432,1.432,0,0,1-.249-.183c-.553-.62-.04-2.342-1.357-1.937-.916.281.287,1.471.1,2.278l-.966.041c-.479-.744.646-2.273-.777-2.336-.908-.04-.252,1.314-.523,1.985l-.667.315a.638.638,0,0,0-.5-.464c-.426-.136-1.152.265-1.245-.424-.128-.942.723-.549,1.182-.672.242-.065.5-.121.5-.424.005-.433-.355-.413-.646-.471-1.805-.365-2.1-.055-2.355,2.5q-1.41,0-2.822,0c-.167-1.1.342-1.609,1.414-1.624.363,0,.831.047.793-.471-.032-.432-.5-.529-.856-.517a2.481,2.481,0,0,0-2.684,2.22l-.571.019a1.844,1.844,0,0,0-.276-.235c-.439-.25-1.339.211-1.342-.59,0-.71.814-.223,1.2-.438.146-.08.342-.21.365-.342.047-.271-.158-.4-.416-.5-1.59-.581-2.29.094-2.4,2.336-.317.1-.634.208-.952.31.425-2.183,0-2.793-1.849-2.761-1.984.035-.91,1.637-1.306,2.483l-3.108.09a6.675,6.675,0,0,1,6.5-7.141q12.762-.154,25.528,0c3.251.042,5.431,1.862,6.448,4.99l.02.071a3.821,3.821,0,0,1,.208,2.036q-1.554.01-3.108.016c-.377-.745-1.071-.628-1.606-.41-.637.26-.209.665.056,1.013.063.082-.041.424-.078.425a1.3,1.3,0,0,1-.7-.083,1.305,1.305,0,0,1-.652-1.417c.179-.9.865-1.116,1.681-1.093.357.01.845.1.831-.43-.013-.462-.514-.461-.86-.515-1.531-.241-2.486.577-3,2.547l-.486-.1c-.326-.735.53-2.046-.576-2.205-.811-.117-.242,1.1-.475,1.667-.034.085-.147.137-.233.213-.861-.506-.695-2.32-2.07-1.974C1656.489-197.385,1657.364-196.061,1657-195.278Z" transform="translate(-3775.725 7843.76)" fill="#bf8700"/>
    <path id="Path_9087" data-name="Path 9087" d="M1733.1-188.887l-.02-.072.086.019Z" transform="translate(-3840.083 7835.279)" fill="#81b97c"/>
    <path id="Path_9088" data-name="Path 9088" d="M1655.5-485.943a5.629,5.629,0,0,1-5.788-4.044c-.42-1.329-1.042-1.839-2.36-1.628-1.194.191-1.483-.412-1.449-1.5.031-.968.039-1.829,1.342-1.6,1.443.25,1.826-.521,1.953-1.748a16.475,16.475,0,0,1,.538-2.36c.275-1.071.781-1.485,2.018-1.127,2.2.636,2.215.534,1.531,2.736a8.081,8.081,0,0,0-.4,4.406c.216.876.537,1.707,1.569,1.877a2.112,2.112,0,0,0,2.232-1.358,15.4,15.4,0,0,0,.741-1.711c.356-.863.666-1.747,1.062-2.591,1-2.131,2.558-3.611,5.037-3.511a5.4,5.4,0,0,1,5.241,4.063c.345,1.1.895,1.538,1.995,1.376,1.149-.169,1.547.342,1.485,1.478-.052.937,0,1.834-1.329,1.635-1.163-.174-1.551.429-1.648,1.454-.053.554-.218,1.1-.312,1.648-.341,2.009-1.629,1.263-2.844,1.067-1.578-.255-1.092-1.123-.774-2.023a8.273,8.273,0,0,0,.408-3.5c-.084-.963-.292-1.9-1.449-2.113-1.062-.192-1.606.517-1.991,1.346-.707,1.524-1.315,3.1-2.07,4.595A5,5,0,0,1,1655.5-485.943Z" transform="translate(-3785.528 8030.003)" fill="#ebf4f4"/>
    <path id="Path_9089" data-name="Path 9089" d="M1655.837-109.065a2.033,2.033,0,0,1-2.15,1.905,2.02,2.02,0,0,1-2.162-2.1,2.187,2.187,0,0,1,2.239-2.24A2.263,2.263,0,0,1,1655.837-109.065Z" transform="translate(-3789.044 7786.802)" fill="#ebf4f4"/>
    <path id="Path_9090" data-name="Path 9090" d="M2275.18-205.854a8.212,8.212,0,0,1-.1.91c-.132.592.39,1.462-.576,1.706-1.011.256-1.336-.584-1.771-1.258-.525-.813-.666-1.851-1.474-2.492l-.164-.143.131.178c0,.855.008,1.71-.008,2.565-.01.55.036,1.186-.8,1.153-.713-.028-.643-.6-.672-1.08q-.055-.914-.113-1.826c.031-.745.043-1.492.1-2.236.035-.453-.213-1.086.508-1.215.618-.111,1.24-.128,1.62.573a10.052,10.052,0,0,0,1.83,2.552c0-.72,0-1.441,0-2.161,0-.546.122-1.01.819-.976.638.031.6.516.609.946C2275.148-207.723,2275.161-206.788,2275.18-205.854Z" transform="translate(-4175.867 7848.227)" fill="#ebf4f4"/>
    <path id="Path_9091" data-name="Path 9091" d="M2292.932-205.866c-.537.736-.725,1.721-1.656,2.18a5.948,5.948,0,0,1-3.287.4c-1.752-.167-.581-1.737-1.107-2.512.055-.492.1-.989.169-1.48.164-1.089-.506-2.6,1.665-2.534,2.584.077,3.577.66,3.857,2.723A8.216,8.216,0,0,0,2292.932-205.866Zm-4.455-.716c.958.3-.822,2.051,1.073,2,1.228-.033,1.55-1.114,1.574-2.134a1.614,1.614,0,0,0-1.658-1.823C2288.011-208.6,2288.744-207.457,2288.477-206.582Z" transform="translate(-4186.661 7848.329)" fill="#ebf4f4"/>
    <path id="Path_9092" data-name="Path 9092" d="M2259.965-206.4c-.108.061-.222.115-.323.186-.592.42-1.909-.461-1.908.84,0,1.182,1.144.537,1.771.708.4.11.719.22.658.705-.048.382-.342.5-.671.5a13.626,13.626,0,0,1-2.8-.034c-1.5-.3-.4-1.717-.9-2.484.046-.429.12-.858.134-1.29.086-2.731.521-3.082,3.258-2.623.371.062.774.06.812.553.047.622-.416.623-.861.7-.538.1-1.457-.355-1.484.582-.026.9.871.661,1.44.684C2259.76-207.343,2259.914-206.936,2259.965-206.4Z" transform="translate(-4167.207 7848.484)" fill="#ebf4f4"/>
    <path id="Path_9093" data-name="Path 9093" d="M2246.6-205.842c-.353,2.216-2.007,3.282-3.88,2.52-.3-.123-.59-.238-.588-.6,0-.467.333-.584.741-.617.619-.05,1.6.466,1.746-.424.171-1.039-.98-1.017-1.668-1.308-.708-.763-1.278-1.568-.529-2.615.717-1,1.781-.982,2.847-.879.439.042.906.142.811.749-.068.436-.385.56-.816.533-.526-.034-1.28-.276-1.415.431-.131.684.705.7,1.141.992C2245.549-206.687,2246.066-206.251,2246.6-205.842Z" transform="translate(-4158.617 7848.329)" fill="#ebf4f4"/>
    <path id="Path_9094" data-name="Path 9094" d="M2262.586-282.868a6.478,6.478,0,0,0,.149-.966c.015-.628.017-1.355-.781-1.48-.684-.106-.9.548-1.136,1.047-.16.336-.262.7-.413,1.039-.5,1.115-1.121,2.145-2.483,2.257a2.579,2.579,0,0,1-2.9-1.864c-.308-1.121-1.7-.551-1.878-1.526-.217-1.178,1.613-.6,1.551-1.751a2.753,2.753,0,0,1,.364-1.242c.239-.494.721-.4,1.15-.315a.642.642,0,0,1,.555.949,1.741,1.741,0,0,0-.119.353c-.117,1-.758,2.358.59,2.746,1.368.393,1.3-1.19,1.7-2,.552-1.108,1.14-2.08,2.544-2.152a2.646,2.646,0,0,1,2.647,1.694,1.5,1.5,0,0,0,.869.895c1.377.472,1.248,1.105.026,1.571-.736.281-.574.87-.734,1.36-.2.6-.61.707-1.171.6C2262.458-281.776,2262.337-282.165,2262.586-282.868Z" transform="translate(-4165.538 7897.117)" fill="#ebf4f4"/>
    <path id="Path_9095" data-name="Path 9095" d="M1638.556-187.615c.4-.846-.678-2.448,1.306-2.483,1.85-.033,2.274.578,1.849,2.761.025.183.048.364.073.545.062.449.578,1.027-.018,1.313-.751.36-.854-.423-1.075-.894-.129-.274-.2-.585-.589-.637-.392.122-.271.472-.3.744-.045.447-.074.919-.7.815-.489-.081-.411-.532-.445-.882C1638.616-186.76,1638.589-187.188,1638.556-187.615Z" transform="translate(-3780.932 7835.992)" fill="#ebf4f4"/>
    <path id="Path_9096" data-name="Path 9096" d="M1701.758-187.277c.364-.783-.511-2.107.671-2.4,1.375-.347,1.209,1.468,2.07,1.974.086-.076.2-.128.233-.213.233-.568-.336-1.783.475-1.667,1.107.159.25,1.471.576,2.205-.031.309-.05.619-.1.925-.07.453.209,1.088-.476,1.251-.725.172-.921-.472-1.2-.943s-.527-.936-.811-1.443a1.79,1.79,0,0,0-.2.236c-.295.691.443,2.024-.583,2.058C1701.324-185.262,1702.083-186.616,1701.758-187.277Z" transform="translate(-3820.482 7835.758)" fill="#ebf4f4"/>
    <path id="Path_9097" data-name="Path 9097" d="M1713.812-187.517c.516-1.969,1.47-2.788,3-2.547.346.054.847.052.86.515.015.534-.474.44-.831.43-.816-.022-1.5.192-1.681,1.093a1.305,1.305,0,0,0,.652,1.417,1.3,1.3,0,0,0,.7.083c.038,0,.141-.344.078-.425-.266-.348-.693-.753-.057-1.013.535-.218,1.229-.334,1.606.41-.321.783.434,2.109-1.237,2.211S1714.16-185.82,1713.812-187.517Z" transform="translate(-3828.026 7835.996)" fill="#ebf4f4"/>
    <path id="Path_9098" data-name="Path 9098" d="M1685.108-187.207c.189-.807-1.013-2-.1-2.278,1.318-.4.8,1.318,1.358,1.937a1.421,1.421,0,0,0,.249.183c1.065-.323.049-2.669,2.042-2.085-.333,1.061-.647,2.127-1.006,3.178-.188.552-.219,1.283-1.106,1.239-.763-.038-.743-.714-.979-1.179C1685.4-186.537,1685.26-186.874,1685.108-187.207Z" transform="translate(-3809.785 7835.646)" fill="#ebf4f4"/>
    <path id="Path_9099" data-name="Path 9099" d="M1669.826-187.555c.257-2.553.549-2.863,2.355-2.5.291.059.651.039.646.471,0,.3-.259.359-.5.424-.458.123-1.31-.27-1.182.672.094.688.819.287,1.245.424a.637.637,0,0,1,.5.464c-.439.559-1.624-.159-1.668.755s1.233.259,1.6.9C1670.862-184.667,1670.059-185.1,1669.826-187.555Z" transform="translate(-3800.5 7836.042)" fill="#ebf4f4"/>
    <path id="Path_9100" data-name="Path 9100" d="M1658.723-187.934a2.48,2.48,0,0,1,2.684-2.22c.354-.012.824.085.856.517.038.518-.43.466-.793.471-1.072.015-1.581.525-1.414,1.624-.052,1.5,1.4,1.05,2.111,1.576C1660.487-184.716,1659.124-185.514,1658.723-187.934Z" transform="translate(-3793.552 7836.027)" fill="#ebf4f4"/>
    <path id="Path_9101" data-name="Path 9101" d="M1649.533-187.784c.113-2.242.813-2.917,2.4-2.336.258.094.462.227.416.5-.023.133-.219.262-.365.342-.39.215-1.207-.272-1.2.438,0,.8.9.34,1.342.59a1.854,1.854,0,0,1,.276.235c-.052.112-.1.224-.155.335-.311.645-1.617-.219-1.491.854.1.865,1.264.137,1.748.839a1.944,1.944,0,0,1-2.428.361C1649.168-185.97,1649.77-187.06,1649.533-187.784Z" transform="translate(-3787.799 7836.129)" fill="#ebf4f4"/>
    <path id="Path_9102" data-name="Path 9102" d="M1696.76-189.4c.617-.275,1.092-.269,1.15.575q.057.83.117,1.661c-.352.651.38,2.009-.692,1.975-1.054-.034-.425-1.293-.523-2A18.135,18.135,0,0,1,1696.76-189.4Z" transform="translate(-3817.327 7835.653)" fill="#ebf4f4"/>
    <path id="Path_9103" data-name="Path 9103" d="M1679.8-187.444c.271-.672-.385-2.026.523-1.985,1.423.063.3,1.593.777,2.336-.361.652.351,2.07-.649,1.978C1679.28-185.223,1680.121-186.661,1679.8-187.444Z" transform="translate(-3806.738 7835.574)" fill="#ebf4f4"/>
    <path id="Path_9104" data-name="Path 9104" d="M2273.661-202.74l-.131-.178.164.143Z" transform="translate(-4178.305 7844.015)" fill="#81b97c"/>
    <path id="Path_9105" data-name="Path 9105" d="M2291.143-204.457c.268-.876-.465-2.015.989-1.957a1.614,1.614,0,0,1,1.659,1.823c-.024,1.02-.347,2.1-1.575,2.134C2290.322-202.406,2292.1-204.161,2291.143-204.457Z" transform="translate(-4189.328 7846.204)" fill="#bf8700"/>
    <rect id="Rectangle_2102" data-name="Rectangle 2102" width="41.909" height="19.832" transform="translate(-2148.195 7639.756)" fill="#ebf4f4"/>
    <rect id="Rectangle_2103" data-name="Rectangle 2103" width="41.909" height="19.832" transform="translate(-1924.805 7634.518)" fill="#ebf4f4"/>
  </g>
</svg>
