<svg xmlns="http://www.w3.org/2000/svg" width="359.498" height="338.727" viewBox="0 0 359.498 338.727">
  <g id="Group_5895" data-name="Group 5895" transform="translate(748.437 -7494.666)">
    <path id="Path_8874" data-name="Path 8874" d="M969.667,412.928q-90.183,0-180.366,0c-9.118,0-13.757-3.231-17.211-11.908a2.93,2.93,0,0,0-.582-2.441q-.024-.836-.05-1.673a67.318,67.318,0,0,0-.009-16.21q-.032-7.143-.062-14.284c.125-1.656.382-3.314.355-4.968-.2-12.7.493-25.4-.351-38.092q-.014-5.068-.03-10.137c.667-13.182.643-26.364,0-39.545q.071-19.4.14-38.789a27.788,27.788,0,0,1,4.031-8.635c3.615-2.7,7.369-5.081,12.086-5.238l8.122.019,36.4.1,66.589-.041c1.867,1.722,16.938,3.284,21.374-.084l38.682.128c-.547,4.441-1.079,8.883-1.642,13.321q-3.226,25.427-6.476,50.85c-1.249,9.672-1.778,19.223,2.065,28.58q4.081,9.936,8.83,19.544c3.478,7.037,8.088,13.462,11.07,20.756-1.529.122-3.057.346-4.587.352-9.68.033-19.36-.013-29.04.031-4.946.023-7.74,2.79-7.951,7.751-.065,1.541-.052,3.087,0,4.629.164,5.34,3.331,8.593,8.727,8.635q16.623.132,33.248.008c3.852-.023,7.184-1.219,8.881-5.115.824,1.407.4,2.989.638,4.477.9,5.609.338,11.362,1.711,16.921-1,2.429-1.849,4.867,1.948,5.535,1.465.258,1.71,1.086,1.738,2.315.055,2.338.182,4.675.279,7.012C982.683,410.744,976.035,411.415,969.667,412.928ZM832.134,287.882q-10.746,0-21.493,0c-6.706.009-9.4,2.292-9.551,8.883-.216,9.267-.178,18.544-.006,27.813.094,5.032,2.945,7.9,7.946,7.94q22.756.189,45.514-.009c5.046-.047,7.233-2.627,7.256-7.811q.065-14.539,0-29.079c-.028-5.285-2.456-7.686-7.748-7.722C846.744,287.849,839.439,287.886,832.134,287.882Zm-5.117,66.668c-6.045,0-12.09-.011-18.135.008a6.692,6.692,0,0,0-4.042.832c-3.382,2.294-4.86,7.81-3.486,13.468,1.11,4.572,3.318,6.607,8.388,6.684,11.1.17,22.215.206,33.315-.051,3.206-.073,7.011-.22,8.444-4.226a19.233,19.233,0,0,0,.269-11.977c-.921-3.209-3.2-4.776-6.617-4.747C839.107,354.595,833.061,354.557,827.016,354.549Zm64.923,0c-5.892,0-11.786.057-17.677-.025-2.739-.038-5.146.757-6.56,3.043-2.526,4.083-2.172,8.566-.922,12.971,1.2,4.222,4.975,4.885,8.415,4.959q16.828.364,33.667.03c5.778-.121,8.46-3.376,8.536-9.247.018-1.4.066-2.81-.013-4.208-.267-4.739-3.034-7.454-7.77-7.5C903.725,354.5,897.832,354.549,891.94,354.547ZM846.995,243.879v-.015c-13.086,0-26.173.059-39.259-.041-3.353-.025-6.018.72-6.444,4.432-.36,3.129,2.116,4.991,6.385,4.995q39.258.041,78.517.005c4.272,0,6.762-1.814,6.445-4.943-.376-3.706-3.006-4.5-6.386-4.476C873.167,243.942,860.081,243.879,846.995,243.879Z" transform="translate(-1465.812 7416.931)" fill="#e3f6fe"/>
    <path id="Path_8875" data-name="Path 8875" d="M1043.974,219.477c.937,2.137,2.86,1.384,4.413,1.389,17.713.046,35.427.017,53.14.038,10.443.012,17.107,6.6,17.113,17.13q.054,78.868-.009,157.735c-.008,10.244-6.741,16.928-16.892,16.915-15.739-.02-31.479-.13-47.217-.2a48.272,48.272,0,0,1,9.125-8.541c1.035-.809,2.865-1.879,1.708-3.29-2.032-2.482-3.658-5.782-7.627-5.828a5.19,5.19,0,0,1-1.3-.95c-1.722-2.4-6.467-3.738-2.864-8.18.223-.275.7-4.706-3.085-3.409-.091-2.573-2.4-4.272-2.675-6.771.841-.049,1.683-.139,2.523-.139,9.843-.011,19.686.093,29.527-.043,6.976-.1,9.446-3.291,9.352-11.509-.079-6.8-2.722-9.494-9.408-9.5-11.107-.019-22.215.012-33.323-.021a11.6,11.6,0,0,0-5.718,1.071c-.469-14.172-.148-28.333.128-42.51.4-20.494.816-40.979,1.828-61.453C1043.242,240.765,1043.562,230.119,1043.974,219.477Zm44.5,48.523c2.492-14.1-16.755-24.953-28.335-17.417-2.4,1.559-3.153,2.163-1.069,4.882,6.183,8.072,5.848,17.5-.6,25.507-2.648,3.288.411,3.969,2.082,4.78C1074.539,292.543,1090.5,280.448,1088.474,268Z" transform="translate(-1507.606 7417.167)" fill="#e3f6fe"/>
    <path id="Path_8876" data-name="Path 8876" d="M943.508,189.358c-4.437,3.369-9.834,2.292-14.807,3.126-2.7.454-4.7-1.319-6.567-3.042,3.744-2.626,7.752-4.518,12.47-4.2a5.335,5.335,0,0,0,4.418-1.946c7.144-7.325,14.935-14,21.693-21.716,5.777-6.593,8.171-14.973,11.941-22.623a2.211,2.211,0,0,0-.068-1.99c-2.458-2.244-.856-4.513.031-6.551,2.674-6.145,4.69-12.641,8.995-17.967.912-1.129,12.99-3.682,13-4.908.036-6.608.789-.891.652-7.5-.053-2.587-4.238-.871-5.651-5.133s-2.108-11.933,0-11.916c1.8.014.745.634-1.2-1.558-2.018-2.275,1.215-8.75,1.2-11.942-.228,1.648,37.628-12.162,32.612-3.292-1.826,3.229-3.806-7.271-4.48-3.416-4.319.475-8.642.929-12.957,1.438-1.281.15-3.045.477-3.568-.525-1.365-2.614-2.52-1.33-3.645-.093-.743.818-1.417,1.62-2.31.541-.7-.846-.155-3.165-2.485-1.58-1.411.959-3,1.722-3.166,3.634a3.116,3.116,0,0,0,2.711,3.292c3.309.737,6.094,3.152,10.068,2,3.141-.914,6.705-.107,9.849,1.286,2.384,1.057,3.581,2.5,1.7,5.2a12.571,12.571,0,0,0-2.071,10.343c4.758-3.584,4.758-3.584,9.27-2.51.178,2.555-.289,5.079-2.931,5.927-5.359,1.719-3.6,5.976-3.579,9.462.021,3.833,2.729,5.59,6.158,6.341,2.723.6,5.478,1.561,8.2,1.511,3.741-.068,5.649,2.167,7.33,4.72,4.032,6.128,7.308,12.777,8.682,19.925,2.521,13.11,1.761,25.712-8.524,35.994-3.323,3.322-5.564,7.77-10.282,9.594a9.519,9.519,0,0,0-2.031-.233c-3.223.316-7.044,4.593-9.295-1.469-.066-.179-.783-.169-1.2-.161-9.9.179-19.806-.431-29.7.316-2.044-8.876-1.581-18.043-2.908-27.644-4.849,8.266-8.558,16.552-15.8,22.262S950.763,183.694,943.508,189.358Zm82.532-43.09v23.675c3.542-5.44,6.8-10.777,8.819-16.726,1.154-3.408.911-8.711-1.544-9.042-3.637-.49-4.613-3.182-6.989-4.461-.211-3.851-2.445-6.89-4.1-10.189C1022.785,135.285,1023.646,140.95,1026.041,146.268Zm-26.553,20.788c8.182-17.587,4.556-35.994,5.94-53.952l-2.365-.212C1001.621,130.844,992.057,148.067,999.487,167.056Zm-18.7-26.47c.625-3.07,2.07-6.05.988-10.055C980.83,134.337,977.917,137.092,980.791,140.586Z" transform="translate(-1489.223 7448.57)" fill="#50c5fd"/>
    <path id="Path_8877" data-name="Path 8877" d="M993.35,207.175c9.893-.747,19.8-.137,29.7-.316.412-.008,1.129-.018,1.2.161,2.25,6.062,6.072,1.785,9.295,1.469a9.52,9.52,0,0,1,2.031.233q-.3,4.389-.6,8.783c-.413,10.644-.733,21.29-1.259,31.927-1.012,20.474-1.429,40.959-1.828,61.453-.276,14.177-.6,28.338-.129,42.51-1.741,8.147,3.321,13.913,7.048,20.147.278,2.5,2.583,4.2,2.674,6.77-6.378,7.739-13.857,12.6-24.438,9.349-1.374-5.558-.816-11.312-1.711-16.921-.237-1.488.187-3.07-.639-4.476-1.375-6.407-5.6-11.193-9.273-16.293-2.982-7.294-7.592-13.718-11.07-20.756q-4.757-9.627-8.83-19.544c-3.844-9.356-3.315-18.908-2.065-28.58q3.28-25.42,6.476-50.85c.563-4.438,1.1-8.881,1.643-13.321Zm15.763,81.251c-2.3,5.918-1.6,11.726.985,18.579C1010.411,300.034,1008.77,294.3,1009.112,288.426Z" transform="translate(-1498.601 7419.136)" fill="#0c465e"/>
    <path id="Path_8878" data-name="Path 8878" d="M822.211,209.759q-18.2-.051-36.4-.1c-.5-2.183-.981-4.371-1.5-6.549-1.245-5.228-2.353-5.887-7.661-4.665-6.966,1.6-13.95,3.129-20.894,4.818-1.967.478-3.292,1.005-3.859-1.861-.5-2.509.209-3.089,2.476-3.561,6.857-1.428,13.652-3.156,20.486-4.7,3.06-.691,6.841-1.064,5.843-5.4-1.026-4.453-4.787-2.808-7.665-2.193-8.123,1.735-8.109,1.8-10.183-5.929a13.438,13.438,0,0,0-.519-1.6c-.857-2.1-2.389-3.164-4.638-2.489a3.74,3.74,0,0,0-2.8,4.545c.433,3.006,2.916,6.529,1.178,8.8-1.781,2.331-5.918,1.914-9.037,2.629-3.638.834-4.817,3-3.932,6.516.786,3.126,1.53,6.263,2.263,9.4,1.125,4.813,2.3,5.606,7.014,4.54,7.244-1.638,14.527-3.14,21.7-5.057,2.937-.785,3.5.376,3.607,2.732-4.717.157-8.471,2.538-12.086,5.238-4.625.994-9.268,1.916-13.869,3.011a3.566,3.566,0,0,0-2.841,4.775c.574,2.258,2.339,3.069,4.523,2.667,2.737-.505,5.438-1.2,8.156-1.819q-.07,19.394-.14,38.788c-4.039.085-7.9-1.1-11.847-1.662l-8.15-2.905-13.492-8.324c-9.556-8.911-16.338-19.37-19.184-32.358-7.907-36.1,21.046-70.67,57.941-69.188,11.74.472,22.145,4.422,31.878,10.644a7.994,7.994,0,0,0,3.277,2.521c9.594,8.9,16.424,19.411,19.1,32.4A76.14,76.14,0,0,1,822.211,209.759Z" transform="translate(-1455.889 7428.293)" fill="#ebf2f5"/>
    <path id="Path_8879" data-name="Path 8879" d="M836.43,123.561c.188-23.432,19.98-40.126,40.479-39.71a40.056,40.056,0,0,1,39.642,40.765c-.261,21.758-18.44,39.177-40.31,39.31C855.832,164.051,835.035,145.493,836.43,123.561Zm33.237-13.839c-2.68-.545-3.814.672-4.344,2.689-.607,2.3-1.161,4.622-1.75,6.931-.694,2.713.252,4.2,3.082,4.816,4.655,1.018,9.273,2.228,13.859,3.522,1.182.334,3.446-.251,2.789,2.528-.69,2.917-2.57,1.458-3.925,1.157q-6.774-1.5-13.467-3.365c-2.1-.579-4.206-.915-4.794,1.634-.6,2.613,1.66,3.091,3.653,3.593,5.514,1.39,5.513,1.423,4.631,7.2-.279,1.828-.143,3.5,2.029,3.954,1.926.4,2.784-.873,3.214-2.535.211-.814.477-1.619.615-2.445.391-2.346,1.247-3.24,3.971-2.527,7.589,1.983,7.629,1.825,9.54-6.035.2-.817.456-1.62.658-2.437.662-2.677-.237-4.23-3.063-4.866-4.785-1.074-9.528-2.349-14.269-3.612-1.167-.311-2.995.085-2.457-2.368.556-2.542,2.081-1.655,3.486-1.312q7.561,1.842,15.1,3.765c1.8.455,3.181-.144,3.681-1.849.539-1.838-.716-2.853-2.321-3.417-.525-.185-1.1-.218-1.644-.365-5.531-1.5-5.571-1.508-4.537-7.082.352-1.9.122-3.512-1.929-4.011-2.17-.528-3.272,1.124-3.39,2.835-.363,5.247-3.11,5.7-7.2,4A10.949,10.949,0,0,0,869.667,109.722Z" transform="translate(-1475.906 7438.227)" fill="#0c465e"/>
    <path id="Path_8883" data-name="Path 8883" d="M769.123,342.138c.845,12.69.147,25.4.351,38.092.027,1.654-.23,3.312-.355,4.968-3.742-.25-8.475,1.57-10.976-.756-2.561-2.385-.778-7.171-.841-10.893-.151-8.966.086-17.94-.121-26.9-.078-3.369.725-4.958,4.379-4.562A70.953,70.953,0,0,0,769.123,342.138Z" transform="translate(-1463.545 7398.139)" fill="#dfdfdf"/>
    <path id="Path_8885" data-name="Path 8885" d="M1033.537,94.05c-4.513-1.074-4.513-1.074-9.27,2.51a12.571,12.571,0,0,1,2.071-10.343c1.884-2.7.687-4.146-1.7-5.2-3.144-1.393-6.709-2.2-9.849-1.286-3.974,1.156-6.76-1.259-10.068-2a3.116,3.116,0,0,1-2.711-3.292c.161-1.912,1.755-2.675,3.166-3.634,2.331-1.586,1.787.734,2.485,1.58.893,1.079,1.567.276,2.31-.541,1.125-1.237,2.28-2.521,3.645.093.523,1,2.288.675,3.568.525,4.316-.509,8.638-.963,12.957-1.438,6.852.951,5.186,1.448,7.288,8.491C1039.443,86.252,1035.872,89.537,1033.537,94.05Z" transform="translate(-1501.624 7440.335)" fill="#14254f"/>
    <path id="Path_8886" data-name="Path 8886" d="M1052.37,427.053c3.97.046,5.6,3.346,7.628,5.828,1.156,1.411-.673,2.481-1.708,3.29a48.268,48.268,0,0,0-9.125,8.541c-3.762,3.639-8.4,3.822-13.285,3.719-8.544-.179-17.1-.029-25.646.024-2.455.015-4.678-.1-4.131-3.533,6.367-1.512,13.016-2.184,18.548-6.2,2.574,1.1,5.2.67,7.817.251.389.391.922.715,1.141,1.185,1.849,3.951,2.987,4.241,6.628,1.52a6.881,6.881,0,0,0,3.023-5.227c.464-.924,2.246-1.17,1.422-2.759l.35-1.789A17.791,17.791,0,0,0,1052.37,427.053Z" transform="translate(-1502.249 7384.936)" fill="#14254f"/>
    <path id="Path_8887" data-name="Path 8887" d="M747.257,116.882c-16.123,1.118-31.624-14.644-31.891-31.535-.289-18.263,13.858-34.2,32.428-33.943-17.981,5.814-27.082,17.524-26.161,35.045C722.448,101.934,731.843,111.779,747.257,116.882Z" transform="translate(-1457.117 7443.264)" fill="#dfdfdf"/>
    <path id="Path_8888" data-name="Path 8888" d="M818.6,155.224a7.994,7.994,0,0,1-3.277-2.521c.014-12.9.005-25.81.077-38.714.007-1.35-.786-3.551,1.66-3.549s1.662,2.2,1.662,3.552C818.726,127.736,818.653,141.48,818.6,155.224Z" transform="translate(-1472.632 7434.097)" fill="#dfdfdf"/>
    <path id="Path_8889" data-name="Path 8889" d="M760.427,85.012c.821-4.566,1.7-9.36,2.536-14.164.261-1.509,1.283-1.676,2.483-1.571,1.586.138,1.609,1.069,1.332,2.387-.572,2.723-.413,5.746-1.554,8.175-2.52,5.364.092,8.1,4.3,10.448,1.1.612,2.115,1.365,3.168,2.056,1.239.813,1.085,1.8.383,2.881a1.6,1.6,0,0,1-2.8.242c-2.2-2.458-5.276-3.653-7.822-5.616A4.62,4.62,0,0,1,760.427,85.012Z" transform="translate(-1464.104 7440.493)" fill="#dfdfdf"/>
    <path id="Path_8890" data-name="Path 8890" d="M837.571,300.177c7.305,0,14.61-.035,21.915.014,5.292.035,7.72,2.437,7.748,7.722q.079,14.54,0,29.079c-.023,5.184-2.211,7.764-7.256,7.811q-22.755.214-45.514.009c-5-.041-7.852-2.908-7.946-7.94-.172-9.268-.21-18.546.006-27.813.154-6.591,2.846-8.874,9.551-8.883Q826.825,300.162,837.571,300.177Z" transform="translate(-1471.25 7404.638)" fill="#0c465e"/>
    <path id="Path_8891" data-name="Path 8891" d="M832.436,379.1c6.045,0,12.091.041,18.135-.011,3.414-.03,5.7,1.537,6.617,4.747a19.233,19.233,0,0,1-.269,11.977c-1.433,4.007-5.238,4.153-8.444,4.226-11.1.257-22.212.22-33.315.051-5.07-.077-7.278-2.113-8.388-6.684-1.374-5.658.1-11.174,3.486-13.468a6.691,6.691,0,0,1,4.042-.832C820.346,379.086,826.391,379.1,832.436,379.1Z" transform="translate(-1471.232 7392.383)" fill="#0c465e"/>
    <path id="Path_8892" data-name="Path 8892" d="M909.3,379.091c5.893,0,11.786-.046,17.678.017,4.736.051,7.5,2.766,7.77,7.5.079,1.4.03,2.805.013,4.208-.076,5.871-2.758,9.126-8.536,9.247q-16.828.352-33.667-.03c-3.44-.074-7.216-.737-8.415-4.959-1.25-4.4-1.6-8.888.922-12.971,1.414-2.286,3.822-3.081,6.56-3.043C897.517,379.147,903.411,379.09,909.3,379.091Z" transform="translate(-1483.175 7392.387)" fill="#0c465e"/>
    <path id="Path_8893" data-name="Path 8893" d="M1001.971,378.657c3.673,5.1,7.9,9.886,9.273,16.293-1.7,3.9-5.029,5.091-8.881,5.114q-16.624.1-33.248-.008c-5.4-.042-8.563-3.294-8.727-8.635-.047-1.542-.061-3.088,0-4.629.211-4.961,3.005-7.728,7.951-7.751,9.68-.044,19.36,0,29.04-.031C998.914,379,1000.442,378.78,1001.971,378.657Z" transform="translate(-1495.157 7392.45)" fill="#0c465e"/>
    <path id="Path_8894" data-name="Path 8894" d="M852.491,248.075c13.086,0,26.172.063,39.258-.043,3.38-.027,6.01.77,6.386,4.476.317,3.13-2.173,4.94-6.445,4.943q-39.258.032-78.517-.005c-4.268,0-6.744-1.866-6.385-4.995.426-3.713,3.091-4.458,6.444-4.432,13.086.1,26.172.041,39.259.041Z" transform="translate(-1471.308 7412.735)" fill="#0c465e"/>
    <path id="Path_8895" data-name="Path 8895" d="M784.195,214.7c-.106-2.356-.67-3.517-3.607-2.732-7.171,1.917-14.453,3.419-21.7,5.057-4.714,1.065-5.889.273-7.014-4.54-.733-3.139-1.477-6.275-2.263-9.4-.884-3.517.294-5.682,3.932-6.516,3.119-.715,7.255-.3,9.037-2.629,1.738-2.274-.745-5.8-1.178-8.8a3.74,3.74,0,0,1,2.8-4.545c2.249-.674,3.78.39,4.638,2.489a13.438,13.438,0,0,1,.519,1.6c2.075,7.724,2.06,7.664,10.183,5.929,2.878-.615,6.64-2.26,7.665,2.193,1,4.335-2.783,4.709-5.843,5.4-6.835,1.542-13.629,3.27-20.486,4.7-2.267.472-2.973,1.053-2.476,3.561.567,2.866,1.891,2.339,3.859,1.861,6.944-1.689,13.929-3.215,20.894-4.818,5.308-1.221,6.416-.563,7.661,4.665.52,2.179,1,4.366,1.5,6.549Z" transform="translate(-1462.392 7423.237)" fill="#0c465e"/>
    <path id="Path_8896" data-name="Path 8896" d="M1035.008,436.627c-2.621.419-5.243.85-7.817-.251-.1-2.339-.225-4.676-.28-7.014-.029-1.228-.274-2.057-1.738-2.315-3.8-.667-2.945-3.106-1.948-5.535,10.582,3.248,18.061-1.611,24.439-9.349,3.782-1.3,3.308,3.135,3.085,3.41-3.6,4.442,1.142,5.783,2.864,8.18a5.19,5.19,0,0,0,1.3.95,17.822,17.822,0,0,1-7.337,4.854c-1.529-1.863-2.6-4.995-5.274-4.685-6.1.708-7.672,3.018-7.474,9.249C1034.852,434.958,1034.946,435.792,1035.008,436.627Z" transform="translate(-1504.788 7387.285)" fill="#51a8df"/>
    <path id="Path_8897" data-name="Path 8897" d="M769.162,235.839c-2.717.615-5.419,1.314-8.156,1.819-2.184.4-3.949-.409-4.523-2.667a3.566,3.566,0,0,1,2.841-4.775c4.6-1.1,9.244-2.017,13.869-3.011A27.788,27.788,0,0,0,769.162,235.839Z" transform="translate(-1463.475 7415.967)" fill="#0c465e"/>
    <path id="Path_8898" data-name="Path 8898" d="M1047.786,400.293c-3.727-6.234-8.789-12-7.048-20.147a11.606,11.606,0,0,1,5.719-1.071c11.107.033,22.215,0,33.323.021,6.686.011,9.329,2.707,9.408,9.5.094,8.218-2.376,11.412-9.352,11.509-9.84.136-19.684.032-29.527.043C1049.468,400.154,1048.627,400.244,1047.786,400.293Z" transform="translate(-1507.585 7392.386)" fill="#0c465e"/>
    <path id="Path_8899" data-name="Path 8899" d="M1091.581,273.264c2.023,12.448-13.935,24.544-27.925,17.752-1.672-.812-4.73-1.493-2.082-4.78,6.45-8.007,6.785-17.434.6-25.507-2.083-2.718-1.326-3.322,1.069-4.882C1074.826,248.311,1094.073,259.165,1091.581,273.264Z" transform="translate(-1510.714 7411.902)" fill="#0c465e"/>
    <path id="Path_8900" data-name="Path 8900" d="M1013.192,184.64c-7.43-18.989,2.134-36.212,3.575-54.164l2.365.212C1017.748,148.646,1021.374,167.053,1013.192,184.64Z" transform="translate(-1502.928 7430.986)" fill="#0c465e"/>
    <path id="Path_8901" data-name="Path 8901" d="M1044.724,160.355q-.142,3.278-.285,6.555c-2.4-5.318-3.256-10.984-3.817-16.744C1042.279,153.466,1044.513,156.5,1044.724,160.355Z" transform="translate(-1507.621 7427.929)" fill="#a1c3d2"/>
    <path id="Path_8902" data-name="Path 8902" d="M991.346,161.412c-2.874-3.494.039-6.248.988-10.055C993.416,155.362,991.971,158.342,991.346,161.412Z" transform="translate(-1499.778 7427.744)" fill="#ebebeb"/>
    <path id="Path_8903" data-name="Path 8903" d="M1013.743,303.431c-.342,5.878,1.3,11.608.985,18.579C1012.143,315.157,1011.445,309.349,1013.743,303.431Z" transform="translate(-1503.232 7404.131)" fill="#a1c3d2"/>
    <path id="Path_8904" data-name="Path 8904" d="M874.2,113.277a10.949,10.949,0,0,1,1.221.393c4.087,1.7,6.834,1.251,7.2-4,.118-1.711,1.22-3.363,3.39-2.835,2.051.5,2.282,2.108,1.929,4.011-1.034,5.574-.994,5.584,4.537,7.082.542.147,1.118.18,1.644.365,1.606.563,2.86,1.579,2.321,3.417-.5,1.7-1.886,2.3-3.681,1.849q-7.544-1.913-15.1-3.765c-1.4-.343-2.93-1.23-3.486,1.312-.537,2.453,1.29,2.057,2.457,2.368,4.741,1.263,9.484,2.538,14.269,3.612,2.826.635,3.725,2.189,3.063,4.866-.2.817-.46,1.62-.658,2.437-1.912,7.859-1.951,8.018-9.54,6.035-2.724-.712-3.58.182-3.971,2.527-.138.826-.4,1.631-.615,2.445-.43,1.662-1.288,2.934-3.214,2.535-2.172-.449-2.308-2.126-2.029-3.954.882-5.776.884-5.81-4.631-7.2-1.993-.5-4.255-.98-3.653-3.593.588-2.549,2.7-2.213,4.794-1.634q6.689,1.847,13.467,3.365c1.355.3,3.234,1.76,3.925-1.157.657-2.779-1.607-2.195-2.789-2.528-4.586-1.294-9.2-2.5-13.859-3.522-2.83-.619-3.775-2.1-3.082-4.816.59-2.309,1.144-4.627,1.75-6.931C870.385,113.95,871.519,112.732,874.2,113.277Z" transform="translate(-1480.437 7434.672)" fill="#fff"/>
    <path id="Path_8905" data-name="Path 8905" d="M1037.293,439c-.062-.835-.156-1.668-.183-2.5-.2-6.231,1.372-8.541,7.474-9.249,2.674-.31,3.745,2.821,5.274,4.685q-.176.892-.349,1.79c-2.009-.808-3.977.4-4.263,1.738-.345,1.606,1.82.678,2.84,1.018a6.881,6.881,0,0,1-3.023,5.227c-3.641,2.721-4.779,2.431-6.628-1.52C1038.215,439.717,1037.682,439.394,1037.293,439Z" transform="translate(-1507.073 7384.909)" fill="#a1c3d2"/>
    <path id="Path_8906" data-name="Path 8906" d="M1049.578,437.626c-1.02-.34-3.185.588-2.84-1.018.286-1.336,2.254-2.547,4.263-1.738C1051.824,436.456,1050.043,436.7,1049.578,437.626Z" transform="translate(-1508.565 7383.763)" fill="#a1c3d2"/>
  </g>
</svg>
