<svg xmlns="http://www.w3.org/2000/svg" width="13.149" height="9.033" viewBox="0 0 13.149 9.033">
  <g id="Group_5834" data-name="Group 5834" transform="translate(-9055.179 -1988.461)">
    <g id="Group_5834-2" data-name="Group 5834">
      <g id="Path_1531" data-name="Path 1531">
        <g id="Group_5837" data-name="Group 5837">
          <path id="Path_13826" data-name="Path 13826" d="M9059.7,1988.461h4.114a4.517,4.517,0,0,1,0,9.033H9059.7a4.517,4.517,0,0,1,0-9.033Z" fill="none"/>
        </g>
        <g id="Group_5838" data-name="Group 5838">
          <path id="Path_13827" data-name="Path 13827" d="M9059.7,1989.461a3.516,3.516,0,1,0,0,7.033h4.114a3.516,3.516,0,1,0,0-7.033H9059.7m0-1h4.114a4.516,4.516,0,1,1,0,9.033H9059.7a4.516,4.516,0,1,1,0-9.033Z" fill="#778090"/>
        </g>
      </g>
    </g>
    <path id="Path_13828" data-name="Path 13828" d="M9065.675,1992.8a1.267,1.267,0,0,0-.094-.125,7.1,7.1,0,0,0-1.726-1.687,3.707,3.707,0,0,0-2.042-.655h0a3.605,3.605,0,0,0-1.807.5,6.822,6.822,0,0,0-2.052,1.941.407.407,0,0,0,0,.495,7.227,7.227,0,0,0,1.808,1.8,3.776,3.776,0,0,0,1.721.638c.111.01.222.016.332.016a3.459,3.459,0,0,0,1.679-.435,6.748,6.748,0,0,0,2.184-2.017A.4.4,0,0,0,9065.675,1992.8Zm-.9.225a5.706,5.706,0,0,1-1.627,1.471,2.6,2.6,0,0,1-1.6.365,2.807,2.807,0,0,1-1.089-.361,5.654,5.654,0,0,1-1.588-1.428l-.043-.05.048-.061a5.974,5.974,0,0,1,1.393-1.3,2.634,2.634,0,0,1,3.055,0A6.005,6.005,0,0,1,9064.773,1993.024Z" fill="#778090"/>
    <path id="Path_13829" data-name="Path 13829" d="M9061.8,1991.652h0a1.371,1.371,0,1,0,0,2.742h0a1.374,1.374,0,0,0,1.371-1.37h0A1.387,1.387,0,0,0,9061.8,1991.652Zm.526,1.387a.526.526,0,0,1-.525.513h-.012a.529.529,0,0,1-.372-.162.529.529,0,0,1,.381-.9h.009a.529.529,0,0,1,.52.538l.149,0h0Z" fill="#778090"/>
  </g>
</svg>
