<svg xmlns="http://www.w3.org/2000/svg" width="16.578" height="16.582" viewBox="0 0 16.578 16.582">
  <g id="Group_5225" data-name="Group 5225" transform="translate(-1621.243 -443.186)">
    <path id="Path_1874" data-name="Path 1874" d="M-124.85-200.577h-4.894a1.717,1.717,0,0,1-1.711-1.7q-.005-4.92,0-9.84a1.721,1.721,0,0,1,1.732-1.678q3.237-.007,6.474,0h3.229a1.73,1.73,0,0,1,1.725,1.346,1.815,1.815,0,0,1,.049.415q0,4.836,0,9.672a1.727,1.727,0,0,1-1.781,1.783Zm5.445-6.606c0-1.592-.009-3.184.006-4.776a.622.622,0,0,0-.666-.676c-3.195.009-6.389.005-9.584.005a.582.582,0,0,0-.656.649q0,4.8,0,9.6a.589.589,0,0,0,.659.651q4.775,0,9.55,0a.628.628,0,0,0,.7-.7C-119.415-204.01-119.405-205.6-119.405-207.183Z" transform="translate(1752.95 660.095)" fill="#1ba4e8" stroke="#1ba4e8" stroke-width="0.5"/>
    <path id="Path_1875" data-name="Path 1875" d="M-56.5-298.826h5.129a1.722,1.722,0,0,1,1.762,1.764q0,5.113,0,10.226a1.724,1.724,0,0,1-1.562,1.792.592.592,0,0,1-.725-.679.58.58,0,0,1,.539-.472.583.583,0,0,0,.6-.675q0-5.062,0-10.125a.6.6,0,0,0-.681-.68H-61.563a.584.584,0,0,0-.673.6.578.578,0,0,1-.623.547.585.585,0,0,1-.535-.651,1.73,1.73,0,0,1,1.715-1.645q2.59,0,5.179,0Z" transform="translate(1687.182 742.262)" fill="#1ba4e8" stroke="#1ba4e8" stroke-width="0.5"/>
  </g>
</svg>
