<svg xmlns="http://www.w3.org/2000/svg" width="7.894" height="5.385" viewBox="0 0 7.894 5.385">
  <g id="Group_5808" data-name="Group 5808" transform="translate(-585.764 -209.943)">
    <path id="Path_1529" data-name="Path 1529" d="M3.8,0A3.57,3.57,0,0,1,5.761.629,6.959,6.959,0,0,1,7.451,2.28c.029.038.061.075.086.116a.251.251,0,0,1,0,.3A6.539,6.539,0,0,1,5.4,4.672a3.318,3.318,0,0,1-1.921.4,3.628,3.628,0,0,1-1.651-.612A7.1,7.1,0,0,1,.059,2.7a.259.259,0,0,1,0-.317A6.721,6.721,0,0,1,2.071.478,3.455,3.455,0,0,1,3.8,0ZM3.794.542a3,3,0,0,0-1.616.515A6.1,6.1,0,0,0,.751,2.387c-.125.153-.125.155,0,.3A5.787,5.787,0,0,0,2.375,4.145a2.961,2.961,0,0,0,1.149.382,2.778,2.778,0,0,0,1.689-.385,5.882,5.882,0,0,0,1.71-1.562A.09.09,0,0,0,6.918,2.5,6.154,6.154,0,0,0,5.4,1.055,3,3,0,0,0,3.794.542Z" transform="translate(585.92 210.093)" fill="#778090" stroke="#778090" stroke-width="0.3"/>
    <path id="Path_1530" data-name="Path 1530" d="M153.612,78.941a1.221,1.221,0,1,1-1.21-1.222A1.228,1.228,0,0,1,153.612,78.941Zm-.543.011a.679.679,0,1,0-.69.667A.675.675,0,0,0,153.069,78.953Z" transform="translate(437.32 133.694)" fill="#778090" stroke="#778090" stroke-width="0.3"/>
  </g>
</svg>
