<svg id="Group_2771" data-name="Group 2771" xmlns="http://www.w3.org/2000/svg" width="16.775" height="19.999" viewBox="0 0 16.775 19.999">
  <path id="Path_1890" data-name="Path 1890" d="M2179.658,131.455a6.5,6.5,0,0,1,.557.413,9.092,9.092,0,0,0,5.087,2.361c.573.074,1.154.1,1.732.126s.83.271.835.845c.011,1.3.042,2.606.029,3.909a18.632,18.632,0,0,1-.575,4.659,10.308,10.308,0,0,1-5.575,6.8c-.632.318-1.3.572-1.955.831a.827.827,0,0,1-.527.021,13.347,13.347,0,0,1-4.108-2.2,10.157,10.157,0,0,1-3.39-5.154,15.281,15.281,0,0,1-.621-4.022c-.036-1.654-.012-3.309-.008-4.963a.705.705,0,0,1,.754-.724c.5-.027,1-.036,1.5-.089a9.209,9.209,0,0,0,5.382-2.39,6.816,6.816,0,0,1,.571-.426Zm-7.119,4.323c0,.063-.009.127-.01.192-.011.847-.028,1.693-.03,2.54a20.142,20.142,0,0,0,.395,4.386,9.041,9.041,0,0,0,2.394,4.569,11.091,11.091,0,0,0,4.148,2.532.265.265,0,0,0,.183-.017c.729-.341,1.483-.642,2.179-1.042a8.592,8.592,0,0,0,3.49-3.666,11.948,11.948,0,0,0,1.156-4.884c.065-1.476.025-2.956.03-4.434,0-.063-.008-.127-.012-.188-.5-.057-1-.1-1.485-.169a10.188,10.188,0,0,1-5.282-2.335c-.147-.124-.232-.13-.383,0a10.076,10.076,0,0,1-4.857,2.268C2173.829,135.637,2173.193,135.695,2172.539,135.778Z" transform="translate(-2171.126 -131.455)" fill="#1ba6de"/>
  <path id="Path_1891" data-name="Path 1891" d="M2295.557,323.38l1.034-1.036c.778-.778,1.553-1.558,2.335-2.333a.7.7,0,0,1,1.2.239.664.664,0,0,1-.1.629,1.666,1.666,0,0,1-.171.188l-3.659,3.66a.732.732,0,0,1-1.209,0q-.9-.9-1.809-1.809a.686.686,0,0,1-.19-.716.664.664,0,0,1,.536-.484.7.7,0,0,1,.668.235c.414.415.83.828,1.242,1.244A1.351,1.351,0,0,1,2295.557,323.38Z" transform="translate(-2288.177 -312.394)" fill="#1ba6de"/>
</svg>
