<svg xmlns="http://www.w3.org/2000/svg" width="500" height="63.59" viewBox="0 0 170.999 21.737">
  <g id="Logo" transform="translate(0.467 0.473)">
    <g id="Foreground" transform="translate(-0.467 -0.473)">
      <path id="Path_1" data-name="Path 1" d="M35.106,19.546H46.19V15.587H35.828a4.253,4.253,0,0,1-.2-8.5H46.19V3.13H34.79A8.234,8.234,0,0,0,35.1,19.546Z" transform="translate(-7.861 -0.606)" fill="#fff" fill-rule="evenodd"/>
      <path id="Path_2" data-name="Path 2" d="M69.856,3.14H62.892a8.232,8.232,0,0,0,.315,16.409h6.306A8.232,8.232,0,0,0,69.856,3.14Zm-.862,12.275H63.746a4.086,4.086,0,1,1-.2-8.169H69.2a4.078,4.078,0,0,1-.2,8.148Z" transform="translate(-16.281 -0.609)" fill="#fff"/>
      <path id="Path_3" data-name="Path 3" d="M232.4,15.587H219.373V3.13H215.05V19.546H232.4Z" transform="translate(-64.053 -0.606)" fill="#fff"/>
      <path id="Path_4" data-name="Path 4" d="M111.281,19.546h4.33V3.13h-4.316v10.2L101.388,3.15l-4.5-.021v16.4H101.2V9.331Z" transform="translate(-28.679 -0.606)" fill="#fff"/>
      <rect id="Rectangle_1" data-name="Rectangle 1" width="4.316" height="16.416" transform="translate(62.459 2.524)" fill="#fff"/>
      <path id="Path_5" data-name="Path 5" d="M137.234,19.546V7.082H144.5V3.13H125.66V7.082h7.258V19.546Z" transform="translate(-37.292 -0.606)" fill="#fff"/>
      <path id="Path_6" data-name="Path 6" d="M158.951,15.583h4.568l3.917,3.973h6.039l-4.2-4.3a6.222,6.222,0,0,0-1.85-12.121H154.67V19.549h4.316Zm0-8.408h8.464a2.277,2.277,0,0,1,2.3,2.277c0,1.261-1.016,1.864-2.277,1.864h-8.492Z" transform="translate(-45.977 -0.609)" fill="#fff"/>
      <path id="Path_7" data-name="Path 7" d="M189.319,15.748h8.408l1.99,3.8h4.9L195.982,3.13h-4.9L182.46,19.546h4.9Zm4.2-8.534,2.1,4.064H191.38Z" transform="translate(-54.297 -0.606)" fill="#fff"/>
      <path id="Path_8" data-name="Path 8" d="M242.021,25.835a.89.89,0,0,1-.329-.063.994.994,0,0,1-.266-.182.872.872,0,0,1-.182-.932.813.813,0,0,1,.182-.273,1,1,0,0,1,.266-.182.89.89,0,0,1,.329-.063.834.834,0,0,1,.329.063.932.932,0,0,1,.273.182.812.812,0,0,1,.182.273.7.7,0,0,1,.07.329.77.77,0,0,1-.07.329.89.89,0,0,1-.182.273.931.931,0,0,1-.273.182.834.834,0,0,1-.329.063Zm0-1.485a.589.589,0,0,0-.245.049.805.805,0,0,0-.2.14.6.6,0,0,0-.133.2.568.568,0,0,0-.049.245.589.589,0,0,0,.049.245.7.7,0,0,0,.133.2.785.785,0,0,0,.2.133.589.589,0,0,0,.245.049.6.6,0,0,0,.252-.049.785.785,0,0,0,.182-.126.7.7,0,0,0,.133-.2.589.589,0,0,0,.049-.245.567.567,0,0,0-.049-.245.6.6,0,0,0-.133-.2.806.806,0,0,0-.2-.14.6.6,0,0,0-.234-.056Zm-.112,1v-.2h.1a1.2,1.2,0,0,0,.077.1l.07.1h.224l-.084-.112a1.281,1.281,0,0,0-.091-.112.35.35,0,0,0,.1-.1.252.252,0,0,0,0-.147.259.259,0,0,0-.07-.2.273.273,0,0,0-.2-.077h-.294v.743Zm0-.568h.175a.112.112,0,0,1,.063,0v.126h-.231Z" transform="translate(-71.876 -6.896)" fill="#fff" fill-rule="evenodd"/>
      <rect id="Rectangle_2" data-name="Rectangle 2" width="6.824" height="6.824" rx="1.12" transform="translate(6.035 4.825) rotate(-45)" fill="#fff"/>
      <path id="Path_9" data-name="Path 9" d="M.785,0H6.046a.785.785,0,0,1,.785.785V6.046a.778.778,0,0,1-.778.778H.785A.785.785,0,0,1,0,6.039V.785A.778.778,0,0,1,.778.007Z" transform="translate(0 10.862) rotate(-45)" fill="#00a6de"/>
      <rect id="Rectangle_3" data-name="Rectangle 3" width="6.824" height="6.824" rx="1.12" transform="translate(6.067 16.911) rotate(-45)" fill="#fff"/>
    </g>
  </g>
</svg>
