<svg xmlns="http://www.w3.org/2000/svg" width="63.998" height="90" viewBox="0 0 63.998 90">
  <g id="Group_5813" data-name="Group 5813" transform="translate(-1257 -635)">
    <g id="Component_25_1" data-name="Component 25 – 1" transform="translate(1257 635)">
      <g id="Group_5812" data-name="Group 5812" transform="translate(-1257 -635)">
        <g id="Group_1945" data-name="Group 1945" transform="translate(1257 635)" opacity="0.504">
          <g id="Group_5811" data-name="Group 5811">
            <g id="Rectangle_538" data-name="Rectangle 538" transform="translate(0 0)" fill="none" stroke="#9d9d9d" stroke-width="2" stroke-dasharray="5">
              <rect width="56" height="83" rx="4" stroke="none"/>
              <rect x="1" y="1" width="54" height="81" rx="3" fill="none"/>
            </g>
          </g>
        </g>
        <circle id="Ellipse_573" data-name="Ellipse 573" cx="11.5" cy="11.5" r="11.5" transform="translate(1297.998 702)" fill="#1ba4e8"/>
      </g>
    </g>
    <path id="Path_7093" data-name="Path 7093" d="M.165-8.5H-.975l-.089-7.138H.261ZM-1.112-6.331a.742.742,0,0,1,.188-.516.711.711,0,0,1,.557-.208.723.723,0,0,1,.56.208.734.734,0,0,1,.191.516.71.71,0,0,1-.191.509.736.736,0,0,1-.56.2.725.725,0,0,1-.557-.2A.717.717,0,0,1-1.112-6.331Z" transform="translate(1309.777 724.175)" fill="#fff"/>
  </g>
</svg>
