<svg xmlns="http://www.w3.org/2000/svg" width="17.506" height="18.559" viewBox="0 0 17.506 18.559">
  <path id="Path_1" data-name="Path 1" d="M1338.552,222.044h-4.891a1.081,1.081,0,0,1-.843-1.254v-6.325h-4.048v.259q0,3.1,0,6.193a1.5,1.5,0,0,1-.023.314,1.069,1.069,0,0,1-.819.814h-4.892a1.187,1.187,0,0,1-.843-.8V210.45a1.458,1.458,0,0,1,.488-.69q3.3-2.67,6.593-5.353a2.29,2.29,0,0,1,3.046,0q3.311,2.691,6.624,5.38a1.141,1.141,0,0,1,.455.945q-.006,5.1,0,10.2a1.412,1.412,0,0,1-.024.293A1.069,1.069,0,0,1,1338.552,222.044Zm-10.795-1.019v-.269q0-3.1,0-6.2a1.015,1.015,0,0,1,1.126-1.117h3.815a1.02,1.02,0,0,1,1.13,1.136q0,3.1,0,6.2v.245h4.547c0-.056.007-.1.007-.152q0-5.037-.005-10.075a.38.38,0,0,0-.13-.255q-3.291-2.684-6.589-5.359a1.27,1.27,0,0,0-1.728,0q-3.288,2.671-6.577,5.34a.361.361,0,0,0-.153.316q.006,4.985,0,9.97v.223Z" transform="translate(-1322.042 -203.636)" fill="#858e9d" stroke="#858e9d" stroke-width="0.3"/>
</svg>
