<svg xmlns="http://www.w3.org/2000/svg" width="17.927" height="17.982" viewBox="0 0 17.927 17.982">
  <g id="Group_7" data-name="Group 7" transform="translate(-380 -393)">
    <g id="Group_6" data-name="Group 6" transform="translate(-1137.993 -16.791)">
      <path id="Path_6" data-name="Path 6" d="M1526.99,411.222h-.005a3.7,3.7,0,1,0,.005,0Z" fill="none"/>
      <path id="Path_7" data-name="Path 7" d="M1532.771,419.633l-.8.8,1.75,1.75h-1.531a4.395,4.395,0,0,0-4.382,4.38v1.21h1.127v-1.21a3.268,3.268,0,0,1,3.256-3.25h1.6l-1.823,1.823.8.8,3.149-3.148Z" fill="#858e9d"/>
      <path id="Path_8" data-name="Path 8" d="M1530.614,411.3a5.107,5.107,0,0,0-3.63-1.505h0a5.134,5.134,0,0,0-2.9,9.367l.245.168-.281.1a9.015,9.015,0,0,0-6.048,8.35h1.128a7.883,7.883,0,0,1,7.86-7.711,5.137,5.137,0,0,0,3.633-8.766Zm-3.633,7.638a4.006,4.006,0,0,1,0-8.012h.005a4.006,4.006,0,1,1-.009,8.012Z" fill="#858e9d"/>
    </g>
  </g>
</svg>
