<svg xmlns="http://www.w3.org/2000/svg" width="17.24" height="20.528" viewBox="0 0 17.24 20.528">
  <g id="Group_3" data-name="Group 3" transform="translate(-321.507 -382.256)">
    <g id="Group_2" data-name="Group 2" transform="translate(-991.115 218.683)">
      <path id="Path_2" data-name="Path 2" d="M1321.072,183.951c-.663-.282-1.342-.532-1.988-.85a10.468,10.468,0,0,1-5.828-7.219,15.834,15.834,0,0,1-.468-3.473c-.03-1.671-.011-3.342-.007-5.013a.712.712,0,0,1,.762-.731c.505-.028,1.013-.036,1.516-.089a9.259,9.259,0,0,0,5.4-2.391c.083-.075.163-.154.246-.228a.722.722,0,0,1,1.043,0c.442.373.876.759,1.35,1.088a8.806,8.806,0,0,0,3.967,1.488c.586.075,1.179.1,1.769.13s.839.274.844.854c.011,1.323.042,2.646.029,3.968a18.778,18.778,0,0,1-.581,4.686,10.408,10.408,0,0,1-5.631,6.869c-.684.344-1.406.611-2.111.913ZM1314.2,168.1c0,.062-.009.127-.01.192-.011.849-.027,1.7-.03,2.546a19.817,19.817,0,0,0,.442,4.643,8.989,8.989,0,0,0,2.7,4.737,11.509,11.509,0,0,0,3.843,2.237.319.319,0,0,0,.221-.016c.726-.337,1.474-.637,2.167-1.033a8.707,8.707,0,0,0,3.543-3.714,12.062,12.062,0,0,0,1.168-4.933c.066-1.5.025-3,.03-4.5,0-.057-.009-.115-.014-.172-.507-.057-1-.1-1.5-.17a10.286,10.286,0,0,1-5.32-2.345c-.16-.134-.249-.148-.418-.006a10.153,10.153,0,0,1-4.89,2.28C1315.5,167.955,1314.858,168.013,1314.2,168.1Z" transform="translate(0)" fill="#858e9d" stroke="#fff" stroke-width="0.3"/>
      <path id="Path_3" data-name="Path 3" d="M1437.161,355.654l.942-.944q1.234-1.235,2.47-2.469a.7.7,0,0,1,1.208.241.672.672,0,0,1-.1.635,1.713,1.713,0,0,1-.172.189l-3.7,3.7a.739.739,0,0,1-1.222,0q-.914-.913-1.828-1.828a.692.692,0,0,1-.192-.723.67.67,0,0,1,.541-.489.712.712,0,0,1,.676.237c.417.419.838.836,1.254,1.257A1.08,1.08,0,0,1,1437.161,355.654Z" transform="translate(-116.947 -180.816)" fill="#858e9d"/>
    </g>
  </g>
</svg>
