<svg xmlns="http://www.w3.org/2000/svg" width="18.293" height="18.291" viewBox="0 0 18.293 18.291">
  <g id="Group_5" data-name="Group 5" transform="translate(-1278.018 -170.829)">
    <path id="Path_4" data-name="Path 4" d="M1278.018,179.066a3.412,3.412,0,0,1,.223-.476,1.27,1.27,0,0,1,.9-.513c.536-.1,1.069-.21,1.606-.305a.262.262,0,0,0,.248-.221.131.131,0,0,1,.017-.052c.211-.3.112-.547-.094-.814-.29-.379-.543-.786-.809-1.183a1.12,1.12,0,0,1,.152-1.558q.467-.469.936-.936a1.1,1.1,0,0,1,1.5-.153q.743.492,1.476,1a.312.312,0,0,0,.286.033.724.724,0,0,0,.6-.737c.046-.455.163-.9.253-1.353a1.131,1.131,0,0,1,1.166-.964c.46-.006.92,0,1.379,0a1.182,1.182,0,0,1,1.225,1.021c.111.571.218,1.142.338,1.711a.363.363,0,0,0,.154.192.738.738,0,0,0,.978-.095c.334-.276.714-.5,1.074-.74a1.142,1.142,0,0,1,1.633.151c.3.3.6.6.9.9a1.152,1.152,0,0,1,.153,1.551c-.329.495-.668.983-.993,1.48a.376.376,0,0,0-.028.246.717.717,0,0,0,.754.625c.443.041.878.161,1.316.247a1.073,1.073,0,0,1,.95,1.124q.01.745,0,1.489a1.1,1.1,0,0,1-.982,1.159c-.577.11-1.154.22-1.729.34-.067.014-.128.089-.176.149s-.036.119-.07.168c-.176.254-.09.458.077.685.3.408.576.838.859,1.26a1.086,1.086,0,0,1-.134,1.5q-.475.486-.962.962a1.138,1.138,0,0,1-1.535.146q-.734-.489-1.46-.99a.222.222,0,0,0-.281-.029.423.423,0,0,1-.167.073c-.3.042-.371.241-.411.507-.078.508-.189,1.01-.29,1.515a1.11,1.11,0,0,1-1.14.943q-.745.007-1.489,0a1.065,1.065,0,0,1-1.117-.914c-.125-.593-.24-1.188-.35-1.783a.211.211,0,0,0-.176-.2.234.234,0,0,1-.086-.032.616.616,0,0,0-.815.094c-.378.29-.785.544-1.183.809a1.125,1.125,0,0,1-1.559-.152q-.463-.46-.923-.923a1.151,1.151,0,0,1-.148-1.566c.325-.483.649-.966.98-1.444a.266.266,0,0,0,.033-.286c-.205-.5-.2-.5-.733-.6-.433-.082-.864-.174-1.3-.251a1.131,1.131,0,0,1-1-.916.2.2,0,0,0-.026-.048Zm6.249,5.871c.1.03.171.045.238.073.338.142.673.291,1.013.429a.566.566,0,0,1,.375.456c.127.686.267,1.37.395,2.056.025.133.078.192.216.191q.68-.006,1.361,0a.177.177,0,0,0,.207-.173c.126-.686.265-1.37.395-2.056a.6.6,0,0,1,.4-.483c.3-.117.607-.233.895-.378a.643.643,0,0,1,.72.043c.576.395,1.162.774,1.74,1.166a.183.183,0,0,0,.281-.025c.288-.3.58-.6.885-.883.139-.13.132-.227.031-.375-.388-.566-.762-1.142-1.146-1.71a.619.619,0,0,1-.032-.688,7.462,7.462,0,0,0,.373-.876.605.605,0,0,1,.511-.434c.675-.121,1.346-.263,2.019-.387a.225.225,0,0,0,.21-.264c0-.429-.005-.858,0-1.287a.173.173,0,0,0-.169-.207c-.674-.124-1.345-.264-2.019-.387a.643.643,0,0,1-.538-.459,6.907,6.907,0,0,0-.357-.843.64.64,0,0,1,.042-.72c.388-.566.76-1.143,1.147-1.709a.205.205,0,0,0-.034-.314c-.313-.3-.623-.608-.922-.924a.2.2,0,0,0-.31-.029c-.577.393-1.161.776-1.741,1.166a.607.607,0,0,1-.656.04c-.3-.145-.613-.276-.927-.395a.579.579,0,0,1-.4-.476c-.127-.686-.269-1.369-.393-2.056-.026-.144-.092-.177-.221-.176-.442,0-.883.006-1.324,0-.151,0-.215.049-.243.2-.122.668-.261,1.333-.384,2a.631.631,0,0,1-.45.523,7.022,7.022,0,0,0-.843.358.651.651,0,0,1-.736-.047c-.564-.389-1.141-.761-1.709-1.146a.208.208,0,0,0-.316.028c-.279.293-.563.581-.859.857a.249.249,0,0,0-.041.388c.39.565.763,1.14,1.146,1.71a.592.592,0,0,1,.063.623c-.147.322-.289.647-.418.977a.557.557,0,0,1-.446.384c-.686.128-1.369.269-2.055.395-.151.028-.207.092-.205.243.006.435.007.871,0,1.306,0,.154.055.212.205.239.681.124,1.358.264,2.038.392a.619.619,0,0,1,.51.441,6.122,6.122,0,0,0,.359.843.655.655,0,0,1-.05.752c-.389.565-.76,1.143-1.148,1.709a.2.2,0,0,0,.035.31c.3.284.589.573.871.871a.234.234,0,0,0,.36.035q.85-.581,1.713-1.142A2.293,2.293,0,0,1,1284.267,184.938Z" transform="translate(0)" fill="#858e9d"/>
    <path id="Path_5" data-name="Path 5" d="M1448.857,338.534a3.094,3.094,0,1,1-3.1-3.09A3.1,3.1,0,0,1,1448.857,338.534Zm-3.092,2.1a2.091,2.091,0,1,0-2.1-2.093A2.1,2.1,0,0,0,1445.765,340.63Z" transform="translate(-158.583 -158.548)" fill="#858e9d"/>
  </g>
</svg>
