<svg xmlns="http://www.w3.org/2000/svg" width="29" height="29" viewBox="0 0 29 29">
  <g id="Group_5839" data-name="Group 5839" transform="translate(-250 -366)">
    <g id="Path_13830" data-name="Path 13830" transform="translate(250 366)" fill="none">
      <path d="M14.5,0A14.5,14.5,0,1,1,0,14.5,14.5,14.5,0,0,1,14.5,0Z" stroke="none"/>
      <path d="M 14.5 0.5 C 10.76045989990234 0.5 7.244760513305664 1.956249237060547 4.600500106811523 4.600500106811523 C 1.956249237060547 7.244760513305664 0.5 10.76045989990234 0.5 14.5 C 0.5 18.23954010009766 1.956249237060547 21.75523948669434 4.600500106811523 24.39949989318848 C 7.244760513305664 27.04375076293945 10.76045989990234 28.5 14.5 28.5 C 18.23954010009766 28.5 21.75523948669434 27.04375076293945 24.39949989318848 24.39949989318848 C 27.04375076293945 21.75523948669434 28.5 18.23954010009766 28.5 14.5 C 28.5 10.76045989990234 27.04375076293945 7.244760513305664 24.39949989318848 4.600500106811523 C 21.75523948669434 1.956249237060547 18.23954010009766 0.5 14.5 0.5 M 14.5 0 C 22.50812911987305 0 29 6.491870880126953 29 14.5 C 29 22.50812911987305 22.50812911987305 29 14.5 29 C 6.491870880126953 29 0 22.50812911987305 0 14.5 C 0 6.491870880126953 6.491870880126953 0 14.5 0 Z" stroke="none" fill="#1ba6de"/>
    </g>
    <path id="Path_13831" data-name="Path 13831" d="M2.393-2.926a3.833,3.833,0,0,1,.226-1.449A3.8,3.8,0,0,1,3.51-5.561a6.8,6.8,0,0,0,.844-.919,1.614,1.614,0,0,0,.273-.9,1.381,1.381,0,0,0-.318-.981A1.219,1.219,0,0,0,3.377-8.7a1.34,1.34,0,0,0-.947.332,1.164,1.164,0,0,0-.359.9H.41a2.444,2.444,0,0,1,.824-1.914,3.151,3.151,0,0,1,2.143-.7,3.075,3.075,0,0,1,2.143.7,2.5,2.5,0,0,1,.769,1.948A3.189,3.189,0,0,1,5.25-5.25l-.841.827a2.251,2.251,0,0,0-.465,1.5ZM2.276-.8a.876.876,0,0,1,.253-.653.931.931,0,0,1,.684-.25.926.926,0,0,1,.69.256A.882.882,0,0,1,4.156-.8a.866.866,0,0,1-.246.629.928.928,0,0,1-.7.253.917.917,0,0,1-.694-.253A.873.873,0,0,1,2.276-.8Z" transform="translate(261 386)" fill="#1ba6de"/>
  </g>
</svg>
