<svg xmlns="http://www.w3.org/2000/svg" width="19.769" height="11.166" viewBox="0 0 19.769 11.166">
  <g id="Group_11" data-name="Group 11" transform="translate(-1728.979 -358.559)">
    <path id="Path_11" data-name="Path 11" d="M1472.4,240.565c0,2.664,0,5.229,0,7.793a3.045,3.045,0,0,0,.008.375.657.657,0,0,0,.629.586.643.643,0,0,0,.719-.518,2.633,2.633,0,0,0,.035-.522q0-3.6,0-7.207v-.492c.148.134.237.208.319.289.87.864,1.736,1.733,2.608,2.594a.705.705,0,0,0,1.058.08.733.733,0,0,0-.074-1.069q-2.025-2.036-4.061-4.061a.708.708,0,0,0-1.095,0q-2.049,2.039-4.085,4.09a.707.707,0,0,0-.055,1.038.694.694,0,0,0,1.032-.049c.874-.86,1.738-1.73,2.607-2.6C1472.146,240.8,1472.245,240.715,1472.4,240.565Z" transform="translate(260.768 120.404)" fill="#858e9d"/>
    <path id="Path_15" data-name="Path 15" d="M1472.4,240.565c0,2.664,0,5.229,0,7.793a3.045,3.045,0,0,0,.008.375.657.657,0,0,0,.629.586.643.643,0,0,0,.719-.518,2.633,2.633,0,0,0,.035-.522q0-3.6,0-7.207v-.492c.148.134.237.208.319.289.87.864,1.736,1.733,2.608,2.594a.705.705,0,0,0,1.058.08.733.733,0,0,0-.074-1.069q-2.025-2.036-4.061-4.061a.708.708,0,0,0-1.095,0q-2.049,2.039-4.085,4.09a.707.707,0,0,0-.055,1.038.694.694,0,0,0,1.032-.049c.874-.86,1.738-1.73,2.607-2.6C1472.146,240.8,1472.245,240.715,1472.4,240.565Z" transform="translate(3216.96 607.88) rotate(180)" fill="#858e9d"/>
  </g>
</svg>
