<svg xmlns="http://www.w3.org/2000/svg" width="72.914" height="72.913" viewBox="0 0 72.914 72.913">
  <g id="Group_5490" data-name="Group 5490" transform="translate(-2166.209 195.255)">
    <path id="Path_8618" data-name="Path 8618" d="M2200.964-195.255h3.484a3.414,3.414,0,0,0,.352.07c.832.08,1.667.135,2.5.235a34.977,34.977,0,0,1,12.744,4.1,36.223,36.223,0,0,1,15.4,16.083,35.1,35.1,0,0,1,3.455,11.984c.079.761.153,1.523.229,2.284v3.4c-.023.13-.055.26-.069.391-.142,1.286-.223,2.582-.43,3.858a35.7,35.7,0,0,1-6.937,16.106,36.168,36.168,0,0,1-13.3,10.843,35.253,35.253,0,0,1-11.729,3.329c-.763.079-1.526.153-2.289.229h-3.4c-.481-.05-.962-.109-1.444-.147a34.193,34.193,0,0,1-9.631-2.165,36.172,36.172,0,0,1-19.685-17.56,34.736,34.736,0,0,1-3.77-12.635q-.112-1.083-.225-2.167V-160.5c.023-.131.055-.261.067-.393.082-.859.134-1.721.241-2.577a35.319,35.319,0,0,1,5.048-14.348,36.2,36.2,0,0,1,16.746-14.5,34.924,34.924,0,0,1,10.364-2.715C2199.438-195.105,2200.2-195.179,2200.964-195.255Zm1.688,69.268a32.852,32.852,0,0,0,32.824-32.779,32.848,32.848,0,0,0-32.8-32.844,32.851,32.851,0,0,0-32.824,32.778A32.852,32.852,0,0,0,2202.653-125.987Z" transform="translate(0 0)" fill="#1ab31d"/>
    <path id="Path_8619" data-name="Path 8619" d="M2384.61,117.264l-11.731-11.743a1.773,1.773,0,0,1,.021-2.528h0a1.773,1.773,0,0,1,2.487.02l10.242,10.248a.018.018,0,0,0,.026,0L2408.831,90.1a1.78,1.78,0,0,1,2.532.016l0,0a1.778,1.778,0,0,1-.015,2.5l-24.645,24.649A1.481,1.481,0,0,1,2384.61,117.264Z" transform="translate(-189.45 -261.757)" fill="#1ab31d"/>
  </g>
</svg>
