<svg id="Component_30_1" data-name="Component 30 – 1" xmlns="http://www.w3.org/2000/svg" width="32" height="32" viewBox="0 0 32 32">
  <g id="Component_27_1" data-name="Component 27 – 1">
    <g id="Group_5820" data-name="Group 5820" transform="translate(-445 -355)">
      <g id="Group_5819" data-name="Group 5819">
        <g id="Group_5809" data-name="Group 5809">
          <g id="Group_5818" data-name="Group 5818">
            <g id="Group_5813" data-name="Group 5813">
              <g id="Group_5808" data-name="Group 5808">
                <g id="Component_25_1" data-name="Component 25 – 1" transform="translate(445 355)">
                  <g id="Group_5804" data-name="Group 5804" transform="translate(-445 -355)">
                    <g id="Group_5807" data-name="Group 5807">
                      <g id="Group_5811" data-name="Group 5811">
                        <g id="Group_5816" data-name="Group 5816">
                          <g id="Group_5815" data-name="Group 5815">
                            <g id="Group_5810" data-name="Group 5810">
                              <g id="Path_13827" data-name="Path 13827" transform="translate(445 355)" fill="none">
                                <path d="M16,0A16,16,0,1,1,0,16,16,16,0,0,1,16,0Z" stroke="none"/>
                                <path d="M 16 1 C 11.99334907531738 1 8.226520538330078 2.560270309448242 5.393400192260742 5.393400192260742 C 2.560270309448242 8.226520538330078 1 11.99334907531738 1 16 C 1 20.00664901733398 2.560270309448242 23.77347946166992 5.393400192260742 26.60659980773926 C 8.226520538330078 29.43972969055176 11.99334907531738 31 16 31 C 20.00664901733398 31 23.77347946166992 29.43972969055176 26.60659980773926 26.60659980773926 C 29.43972969055176 23.77347946166992 31 20.00664901733398 31 16 C 31 11.99334907531738 29.43972969055176 8.226520538330078 26.60659980773926 5.393400192260742 C 23.77347946166992 2.560270309448242 20.00664901733398 1 16 1 M 16 0 C 24.8365592956543 0 32 7.163440704345703 32 16 C 32 24.8365592956543 24.8365592956543 32 16 32 C 7.163440704345703 32 0 24.8365592956543 0 16 C 0 7.163440704345703 7.163440704345703 0 16 0 Z" stroke="none" fill="#1ba4e8"/>
                              </g>
                            </g>
                          </g>
                        </g>
                      </g>
                    </g>
                  </g>
                </g>
              </g>
            </g>
          </g>
        </g>
      </g>
    </g>
  </g>
  <g id="Component_28_1" data-name="Component 28 – 1" transform="translate(10.598 17.215)">
    <g id="Group_5805" data-name="Group 5805" transform="translate(-455.597 -372.215)">
      <path id="Path_7202" data-name="Path 7202" d="M-699.421,464.294h-10.33a.9.9,0,0,1-.945-.683.89.89,0,0,1,.674-1.093,1.67,1.67,0,0,1,.336-.029q6.174,0,12.348,0a1.47,1.47,0,0,1,.417.048.9.9,0,0,1,.457,1.39,1.521,1.521,0,0,1-.154.174q-1.741,1.741-3.482,3.482a.918.918,0,0,1-.96.28.9.9,0,0,1-.37-1.51c.613-.623,1.236-1.234,1.856-1.85.055-.054.115-.1.173-.155Z" transform="translate(1166.322 -90.272)" fill="#1ba4e8"/>
    </g>
  </g>
  <g id="Component_29_1" data-name="Component 29 – 1" transform="translate(7 10)">
    <path id="Path_7203" data-name="Path 7203" d="M-792.45,295.967h.225q5.021,0,10.042,0a1.5,1.5,0,0,1,.4.042.887.887,0,0,1,.64.911.892.892,0,0,1-.724.825,1.587,1.587,0,0,1-.294.025q-6.194,0-12.388,0c-.653,0-1.079-.4-1.011-.99a1.01,1.01,0,0,1,.258-.556q1.784-1.816,3.6-3.6a.9.9,0,0,1,1.274,0,.893.893,0,0,1-.007,1.288c-.614.621-1.236,1.234-1.856,1.849-.055.054-.119.1-.179.149Z" transform="translate(795.572 -292.356)" fill="#1ba4e8"/>
  </g>
</svg>
