<svg xmlns="http://www.w3.org/2000/svg" width="20.635" height="14.356" viewBox="0 0 20.635 14.356">
  <g id="Group_10" data-name="Group 10" transform="translate(-1729 -405)">
    <g id="Group_9" data-name="Group 9" transform="translate(219.83 58.665)">
      <path id="Path_12" data-name="Path 12" d="M1524.231,348.746c-.155.15-.254.235-.355.327l.355-.287Z" fill="none"/>
      <path id="Path_13" data-name="Path 13" d="M1518.669,353.169a.7.7,0,0,0-.986.141c-.872.861-1.738,1.73-2.609,2.594-.081.081-.17.155-.318.289v-7.7a2.676,2.676,0,0,0-.036-.522.642.642,0,0,0-.719-.518.655.655,0,0,0-.628.586,2.932,2.932,0,0,0-.009.375v7.793c-.155-.151-.254-.24-.355-.327-.868-.87-1.732-1.74-2.606-2.6a.682.682,0,0,0-.051-.056.694.694,0,0,0-.981.007.522.522,0,0,0-.039.042.708.708,0,0,0,.094,1q2.035,2.051,4.084,4.09a.711.711,0,0,0,1.095,0q2.037-2.025,4.061-4.061l.039-.033a.733.733,0,0,0,.035-1.036A.518.518,0,0,0,1518.669,353.169Z" fill="#858e9d"/>
      <path id="Path_14" data-name="Path 14" d="M1524.943,348.062l.749.761c.1.092.183.161.249.227.871.864,1.736,1.733,2.609,2.594a.7.7,0,0,0,.986.141.608.608,0,0,0,.071-.061.733.733,0,0,0-.035-1.036c-.013-.011-.025-.023-.039-.033q-2.023-2.035-4.061-4.061a.708.708,0,0,0-1-.1.774.774,0,0,0-.1.1q-2.049,2.039-4.085,4.09a.707.707,0,0,0-.093.995.525.525,0,0,0,.039.043.693.693,0,0,0,.981.007c.018-.018.035-.037.051-.056.874-.86,1.738-1.73,2.606-2.6.1-.092.2-.177.355-.327" fill="#858e9d"/>
      <g id="Group_8" data-name="Group 8">
        <g id="Group_3" data-name="Group 3">
          <path id="Path_4" data-name="Path 4" d="M1527.31,352.177l.48-.586.247,1.768-1.768-.262.562-.45c-.038-.025-.066-.045-.094-.062a4,4,0,1,0,1.9,4.31,3.917,3.917,0,0,0,.06-1.344,1.173,1.173,0,0,1-.011-.132.313.313,0,0,1,.279-.321.305.305,0,0,1,.345.258,5.249,5.249,0,0,1,.054.707,4.641,4.641,0,1,1-5.2-4.619,4.553,4.553,0,0,1,3.05.687l.066.041.027.005Z" fill="#858e9d"/>
        </g>
        <path id="Path_6" data-name="Path 6" d="M1524.65,356.09l.086-.086,1.44-1.44a.362.362,0,0,1,.518.505c-.085.086-.171.171-.256.256l-1.506,1.506a.364.364,0,0,1-.512.054.4.4,0,0,1-.051-.05l-1.749-1.749a.364.364,0,0,1-.045-.512l.023-.024a.367.367,0,0,1,.519.006l.018.02,1.427,1.427Z" fill="#858e9d"/>
      </g>
    </g>
  </g>
</svg>
