<svg xmlns="http://www.w3.org/2000/svg" width="14.488" height="14.486" viewBox="0 0 14.488 14.486">
  <path id="Path_1845" data-name="Path 1845" d="M-194.037,312.275h-.113a.382.382,0,0,1-.257-.419c0-1.009.02-2.019-.006-3.027a1.575,1.575,0,0,1,.463-1.189q3.078-3.319,6.13-6.663c.023-.025.043-.054.064-.08a.273.273,0,0,0-.1.058q-3.987,3.28-7.972,6.563a.234.234,0,0,1-.263.047q-1.624-.577-3.252-1.139a.791.791,0,0,1-.5-.4v-.2a1.97,1.97,0,0,1,.357-.343q6.729-3.791,13.465-7.569a1.1,1.1,0,0,1,.274-.109.286.286,0,0,1,.377.241.649.649,0,0,1,.008.224q-.268,1.8-.542,3.606-.29,1.922-.58,3.843c-.21,1.393-.416,2.786-.628,4.179a.62.62,0,0,1-.9.5c-.056-.024-.112-.049-.17-.069q-1.819-.638-3.638-1.277a.161.161,0,0,0-.233.082q-.772,1.268-1.558,2.526C-193.743,311.871-193.895,312.07-194.037,312.275Z" transform="translate(199.839 -297.789)" fill="#1ba4e8"/>
</svg>
