<svg xmlns="http://www.w3.org/2000/svg" width="23.233" height="21.311" viewBox="0 0 23.233 21.311">
  <g id="Group_6" data-name="Group 6" transform="translate(-2837 -595)">
    <g id="Group_1" data-name="Group 1" transform="translate(1350.952 184.244)">
      <g id="Group_5" data-name="Group 5">
        <g id="Group_3" data-name="Group 3">
          <path id="Path_4" data-name="Path 4" d="M1496.937,419.229l.724-.885.372,2.667-2.667-.395.849-.679c-.058-.038-.1-.068-.143-.093a6.035,6.035,0,1,0,2.874,6.5,5.9,5.9,0,0,0,.09-2.026,1.722,1.722,0,0,1-.016-.2.473.473,0,0,1,.421-.484.461.461,0,0,1,.52.39,8.127,8.127,0,0,1,.082,1.066,7,7,0,1,1-7.847-6.968,6.867,6.867,0,0,1,4.6,1.037l.1.062A.327.327,0,0,0,1496.937,419.229Z" fill="#858e9d"/>
        </g>
        <g id="Group_4" data-name="Group 4">
          <path id="Path_5" data-name="Path 5" d="M1507.276,414.1h-8.945l7.608-2.006v1.336h1.338v-1.337a1.354,1.354,0,0,0-1.359-1.338,1.276,1.276,0,0,0-.314.042l-10.873,2.863a2.024,2.024,0,0,0-1.5,1.944v1.458c.15-.02.3-.042.448-.063h.87l.019,0v-.9a.657.657,0,0,1,.647-.669h12.061a.658.658,0,0,1,.669.647V424.8a.659.659,0,0,1-.647.669h-6.213a6.789,6.789,0,0,1-.4,1.34h6.594a2.017,2.017,0,0,0,2.006-2.006v-8.7A2.017,2.017,0,0,0,1507.276,414.1Z" fill="#858e9d"/>
          <circle id="Ellipse_2" data-name="Ellipse 2" cx="1" cy="1" r="1" transform="translate(1504.604 419.451)" fill="#858e9d"/>
        </g>
      </g>
      <path id="Path_6" data-name="Path 6" d="M1492.924,425.13l.131-.13q1.084-1.086,2.172-2.172a.545.545,0,1,1,.78.762c-.127.13-.257.258-.386.387l-2.271,2.271a.549.549,0,0,1-.849.006q-1.32-1.318-2.638-2.638a.548.548,0,0,1-.034-.809.554.554,0,0,1,.811.04q1.077,1.076,2.152,2.152Z" fill="#858e9d"/>
    </g>
  </g>
</svg>
