<svg xmlns="http://www.w3.org/2000/svg" width="16.052" height="16.052" viewBox="0 0 16.052 16.052"><defs><style>.a{fill:#88909e;}</style></defs><path class="a" d="M16.687,4a1.309,1.309,0,0,0-.314.042L5.5,6.905A2.024,2.024,0,0,0,4,8.849v9.2a2.017,2.017,0,0,0,2.006,2.006H18.045a2.017,2.017,0,0,0,2.006-2.006V9.351a2.017,2.017,0,0,0-2.006-2.006H9.1l7.608-2.006V6.675h1.338V5.338A1.354,1.354,0,0,0,16.687,4ZM6.006,8.682H18.045a.658.658,0,0,1,.669.669v8.695a.658.658,0,0,1-.669.669H6.006a.658.658,0,0,1-.669-.669V9.351A.658.658,0,0,1,6.006,8.682Zm10.367,4.013a1,1,0,1,0,1,1A1,1,0,0,0,16.373,12.695Z" transform="translate(-4 -4)"/></svg>