<?xml version="1.0" encoding="utf-8"?>
<!-- Generator: Adobe Illustrator 24.2.3, SVG Export Plug-In . SVG Version: 6.00 Build 0)  -->
<svg version="1.0" id="katman_1" xmlns="http://www.w3.org/2000/svg" xmlns:xlink="http://www.w3.org/1999/xlink" x="0px" y="0px"
	 viewBox="0 0 128 128" style="enable-background:new 0 0 128 128;" xml:space="preserve">
<g id="XMLID_28_">
	<path id="XMLID_35_" style="fill:#1291C7;stroke:#05425B;stroke-miterlimit:10;" d="M124.2,51.7l-14.9-3.4V23.8
		c0-1.2-1-2.1-2.1-2.1H4.3c-1.2,0-2.1,0.9-2.1,2.1v55.2c0,1.2,1,2.1,2.1,2.1h9l-0.1,0.2c-0.1,0.5,0,1.1,0.3,1.6
		c0.3,0.5,0.8,0.8,1.3,0.9l1.1,0.3l95.8,22c0.1,0,0.2,0,0.3,0c0.9,0,1.8-0.6,2-1.6l9.6-41.5l2-8.9c0.1-0.5,0-1.1-0.3-1.6
		C125.2,52.2,124.7,51.9,124.2,51.7z M109.3,67.4C109.3,67.4,109.3,67.4,109.3,67.4v0.2V67.4z M70,83.9c3,0,5.9-0.8,8.4-2.4
		c0.2-0.1,0.3-0.2,0.5-0.3h27.2l-1,4.5c-0.3,0-0.7,0-1-0.1c-4.2-0.1-8.1,2.2-10.2,5.9c-0.3,0.5-0.6,1.1-0.8,1.7L41,81.2h20
		c0.4,0.3,0.8,0.5,1.2,0.8c0.3,0.2,0.6,0.3,1,0.5c1,0.5,2,0.8,3.1,1.1C67.6,83.8,68.8,83.9,70,83.9z M67.5,81.2h5
		C70.9,81.5,69.2,81.5,67.5,81.2z M6.4,76.9V26H105v51H6.4z M110.5,101.6L21.7,81.2h13.4c0.1,0.4,0.3,0.7,0.7,0.8l57.8,13.3
		c0.1,0,0.1,0,0.2,0c0.4,0,0.8-0.3,1-0.7c1.2-4.2,4.9-7,9.1-7c0.6,0,1.2,0,1.8,0.1c0.5,0.1,1-0.2,1.1-0.8l1.4-6.1
		c0.2-0.1,0.3-0.2,0.4-0.3c0.4-0.4,0.6-0.9,0.6-1.5v-2.6l2.2-9.5c0.1-0.5-0.2-1-0.7-1.2c-0.5-0.1-1-0.3-1.5-0.6V52.7l11.9,2.7
		L110.5,101.6z"/>
	<path id="XMLID_32_" style="fill:#1291C7;stroke:#05425B;stroke-miterlimit:10;" d="M96.9,39.4c-5.1-0.3-9.2-4.5-9.4-9.8
		c0-0.6-0.5-1-1-1H25c-0.6,0-1,0.4-1,1c-0.3,5.3-4.3,9.5-9.4,9.8c-0.6,0-1,0.5-1,1v22c0,0.6,0.4,1,1,1c5.1,0.3,9.2,4.5,9.4,9.8
		c0,0.6,0.5,1,1,1h61.4c0.6,0,1-0.4,1-1c0.3-5.3,4.3-9.5,9.4-9.8c0.6,0,1-0.5,1-1l0-22C97.9,39.9,97.4,39.4,96.9,39.4z M95.8,61.5
		c-5.4,0.7-9.6,5.1-10.3,10.7H26c-0.7-5.6-4.9-9.9-10.3-10.7V41.4c5.4-0.7,9.6-5.1,10.3-10.7h59.5c0.7,5.6,4.9,9.9,10.3,10.7
		L95.8,61.5z"/>
	<path id="XMLID_29_" style="fill:#1291C7;stroke:#05425B;stroke-miterlimit:10;" d="M56.3,34.4c-9.1,0-16.6,7.6-16.6,17
		c0,9.4,7.4,17,16.6,17c9.1,0,16.6-7.6,16.6-17C72.8,42,65.4,34.4,56.3,34.4z M56.3,65.9c-7.7,0-13.9-6.5-13.9-14.4
		c0-7.9,6.2-14.4,13.9-14.4c7.7,0,13.9,6.5,13.9,14.4C70.2,59.4,63.9,65.9,56.3,65.9z"/>
</g>
</svg>
