<svg xmlns="http://www.w3.org/2000/svg" width="16.568" height="20.359" viewBox="0 0 16.568 20.359">
  <g id="Group_5805" data-name="Group 5805" transform="translate(17078.566 24136.48)">
    <g id="Group_5153" data-name="Group 5153" transform="translate(-15667.256 -23682.342)">
      <path id="Path_8512" data-name="Path 8512" d="M-1405.7-384.351h-.724a5.292,5.292,0,0,1-2.472-2.153,11.8,11.8,0,0,1-2.318-8.54,5.42,5.42,0,0,1,2.182-3.767,4.424,4.424,0,0,1,4.776-.438,2.85,2.85,0,0,0,2.585.035,5.33,5.33,0,0,1,3.073-.527,4.523,4.523,0,0,1,3.3,1.952,4.558,4.558,0,0,0,.551,8.063,12.66,12.66,0,0,1-1.948,3.63,3.934,3.934,0,0,1-2.312,1.745h-.543c-.58-.187-1.171-.348-1.739-.566a3.831,3.831,0,0,0-2.638-.044C-1404.517-384.767-1405.106-384.555-1405.7-384.351Z" transform="translate(0 -49.428)" fill="#90dafe"/>
      <path id="Path_8513" data-name="Path 8513" d="M-1316.2-454.138c.256,2.45-1.85,4.913-4.045,4.667a3.523,3.523,0,0,1,.3-1.867,4.605,4.605,0,0,1,3.225-2.713c.086-.023.168-.057.252-.086Z" transform="translate(-82.806 0)" fill="#90dafe"/>
    </g>
  </g>
</svg>
