<svg xmlns="http://www.w3.org/2000/svg" width="16.906" height="18.652" viewBox="0 0 16.906 18.652">
  <path id="Path_8518" data-name="Path 8518" d="M-420.718-203.268h.343a.325.325,0,0,0,.053.017,1.737,1.737,0,0,1,1.145.668,1.681,1.681,0,0,1,.286,1.613c-.065.212-.055.206.158.293a8.61,8.61,0,0,1,.938.41,5,5,0,0,1,2.447,3.154,23.658,23.658,0,0,1,.63,3.336,8.315,8.315,0,0,0,.532,2.053,2.813,2.813,0,0,0,.889,1.21c.186.143.361.3.538.453a1.816,1.816,0,0,1,.611,1.149c.026.172.037.345.055.518v.285c-.006.053-.016.106-.019.159a1.19,1.19,0,0,1-.271.725.6.6,0,0,1-.453.245c-.244.005-.488.02-.732.022q-2.032.01-4.064.015h-.561c-.031.178-.052.342-.089.5a2.307,2.307,0,0,1-2.793,1.769,2.268,2.268,0,0,1-1.485-1.1,2.516,2.516,0,0,1-.32-1.064c-.009-.082-.036-.1-.116-.1q-1.437,0-2.875-.006c-.758,0-1.517-.011-2.275-.024a.734.734,0,0,1-.74-.543,1.176,1.176,0,0,1-.056-.2c-.023-.137-.039-.275-.058-.412v-.342c.012-.113.022-.225.038-.338a1.9,1.9,0,0,1,.555-1.188c.1-.1.216-.186.322-.282a9.677,9.677,0,0,0,.749-.7,3.143,3.143,0,0,0,.565-1.1,11.843,11.843,0,0,0,.474-2.273,19.266,19.266,0,0,1,.576-2.835,5.194,5.194,0,0,1,1.146-2.088,5.258,5.258,0,0,1,2.281-1.422c.167-.056.167-.054.107-.227A1.76,1.76,0,0,1-421-203.2C-420.911-203.231-420.814-203.247-420.718-203.268Zm-7.147,15.155h14.61a2,2,0,0,0-.109-.836.563.563,0,0,0-.138-.21c-.141-.132-.29-.256-.442-.375a4.055,4.055,0,0,1-1.319-1.722,9.118,9.118,0,0,1-.522-1.8c-.1-.608-.174-1.222-.271-1.832a14.508,14.508,0,0,0-.457-2.046,3.774,3.774,0,0,0-2.186-2.483,4.749,4.749,0,0,0-2.874-.247,3.745,3.745,0,0,0-2.993,2.691,15.579,15.579,0,0,0-.6,2.993,11.082,11.082,0,0,1-.561,2.457,3.952,3.952,0,0,1-1.017,1.639c-.232.215-.479.416-.729.61a.749.749,0,0,0-.305.5C-427.815-188.564-427.837-188.344-427.865-188.113Zm6.15,1.179a1.2,1.2,0,0,0,1.2,1.152,1.217,1.217,0,0,0,1.133-1.152Zm1.745-14.581a.587.587,0,0,0-.594-.589.58.58,0,0,0-.56.591.6.6,0,0,0,.6.571A.6.6,0,0,0-419.97-201.515Z" transform="translate(429 203.268)" fill="#50c5fd"/>
</svg>
