<svg xmlns="http://www.w3.org/2000/svg" width="19.047" height="20.297" viewBox="0 0 19.047 20.297">
  <g id="Group_5806" data-name="Group 5806" transform="translate(17079.289 24086.297)">
    <g id="Group_5155" data-name="Group 5155" transform="translate(-15653.349 -23632.82)">
      <path id="Path_8514" data-name="Path 8514" d="M-1410.345-325.391l-.835-.307,9.3-9.3,3.729,3.44c-1.109.615-2.191,1.218-3.276,1.816q-3.465,1.912-6.935,3.817c-.376.206-.782.359-1.173.536Z" transform="translate(-13.428 -107.788)" fill="#afc2cb"/>
      <path id="Path_8515" data-name="Path 8515" d="M-1410.033-453.477c1.443.755,2.894,1.494,4.325,2.27,2.095,1.136,4.175,2.3,6.211,3.422l-3.078,3.073-9.155-8.447.885-.318Z" transform="translate(-12.928)" fill="#afc2cb"/>
      <path id="Path_8516" data-name="Path 8516" d="M-1425.714-423.026a7.334,7.334,0,0,1-.214-1.25q-.023-7.577,0-15.154a8.617,8.617,0,0,1,.265-1.439l9.255,8.537Z" transform="translate(0 -11.47)" fill="#afc2cb"/>
      <path id="Path_8517" data-name="Path 8517" d="M-1298.516-379.173l3.331-3.338c1.07.608,2.209,1.155,3.236,1.866a2.316,2.316,0,0,1-.18,3.9c-.684.431-1.408.8-2.122,1.178a.5.5,0,0,1-.35-.007c-.091-.031-.16-.131-.237-.2Z" transform="translate(-115.929 -64.564)" fill="#afc2cb"/>
    </g>
  </g>
</svg>
