<svg xmlns="http://www.w3.org/2000/svg" width="13.303" height="10.396" viewBox="0 0 13.303 10.396">
  <path id="Path_8491" data-name="Path 8491" d="M4.277,14.688h9.613a1.728,1.728,0,0,0,1.3-.479,1.975,1.975,0,0,0,.464-1.426V6.2a1.921,1.921,0,0,0-.486-1.422,1.959,1.959,0,0,0-1.438-.483H4.12a1.721,1.721,0,0,0-1.3.483A1.977,1.977,0,0,0,2.354,6.2v6.586a1.919,1.919,0,0,0,.486,1.426A1.967,1.967,0,0,0,4.277,14.688ZM4.265,13.66a.907.907,0,0,1-.659-.224.9.9,0,0,1-.23-.672V6.217a.888.888,0,0,1,.23-.665.907.907,0,0,1,.659-.224h9.481a.909.909,0,0,1,.656.224.89.89,0,0,1,.233.672v6.548a.881.881,0,0,1-.233.665.909.909,0,0,1-.656.224ZM9.015,11.1a1.569,1.569,0,0,0,.637-.139,2.116,2.116,0,0,0,.631-.454L15.1,5.769l-.669-.681L9.715,9.743a1.365,1.365,0,0,1-.36.271.779.779,0,0,1-.341.082.756.756,0,0,1-.341-.085,1.5,1.5,0,0,1-.36-.268L3.577,5.063,2.9,5.744l4.838,4.763a2.209,2.209,0,0,0,.634.454A1.561,1.561,0,0,0,9.015,11.1Zm5.343,2.744.675-.681L11.2,9.371l-.675.675ZM2.991,13.162l.675.681,3.835-3.8-.675-.675Z" transform="translate(-2.354 -4.293)" fill="#90dafe"/>
</svg>
