<svg xmlns="http://www.w3.org/2000/svg" width="20.55" height="21.96" viewBox="0 0 20.55 21.96"><defs><style>.a{fill:#90dafe;stroke:#90dafe;stroke-width:0.5px;}</style></defs><path class="a" d="M19.158,21.414a.885.885,0,0,1-.426-.247.793.793,0,0,1-.179-.47,8.209,8.209,0,0,0-1.538-4.228,8.392,8.392,0,0,0-5.7-3.539,8.56,8.56,0,0,0-8.728,4.1,8.242,8.242,0,0,0-1.146,3.423c-.012.113-.016.228-.037.34a.707.707,0,0,1-.541.6.535.535,0,0,0-.056.022H.566a1.906,1.906,0,0,1-.286-.132.746.746,0,0,1-.3-.752,10.291,10.291,0,0,1,.7-2.924,10.094,10.094,0,0,1,5.921-5.674c.024-.01.049-.022.081-.037a6.372,6.372,0,0,1-3.11-5.417A6.128,6.128,0,0,1,5.471,1.824a6.4,6.4,0,0,1,9.266.237,6.2,6.2,0,0,1,1.6,3.36,6.323,6.323,0,0,1-.544,3.7,6.49,6.49,0,0,1-2.512,2.772c.049.022.081.037.113.049a10.04,10.04,0,0,1,6.423,7.405c.081.4.118.806.176,1.207,0,.027.015.054.022.081v.024a.807.807,0,0,0-.022.105.586.586,0,0,1-.189.414,3,3,0,0,1-.4.24ZM9.985,11.346A4.966,4.966,0,1,0,6.463,9.9a4.978,4.978,0,0,0,3.522,1.45Z" transform="translate(0.288 0.296)"/></svg>