<svg xmlns="http://www.w3.org/2000/svg" width="16.878" height="18.03" viewBox="0 0 16.878 18.03">
  <g id="Group_5160" data-name="Group 5160" transform="translate(-1552.246 -18.044)">
    <path id="Path_1774" data-name="Path 1774" d="M15.643,17.483a.723.723,0,0,1-.348-.2.648.648,0,0,1-.146-.384,6.706,6.706,0,0,0-1.256-3.454A6.855,6.855,0,0,0,9.24,10.552,6.992,6.992,0,0,0,2.111,13.9a6.733,6.733,0,0,0-.936,2.8c-.01.092-.013.186-.03.278a.577.577,0,0,1-.442.488.437.437,0,0,0-.046.018h-.2a1.557,1.557,0,0,1-.234-.108.609.609,0,0,1-.244-.614,8.406,8.406,0,0,1,.576-2.388A8.245,8.245,0,0,1,5.391,9.738c.02-.008.04-.018.066-.03a5.205,5.205,0,0,1-2.54-4.425,5.005,5.005,0,0,1,1.546-3.8,5.227,5.227,0,0,1,7.569.194,5.066,5.066,0,0,1,1.3,2.744,5.165,5.165,0,0,1-.444,3.018A5.3,5.3,0,0,1,10.84,9.7c.04.018.066.03.092.04a8.2,8.2,0,0,1,5.247,6.049c.066.326.1.658.144.986,0,.022.012.044.018.066v.02a.66.66,0,0,0-.018.086.479.479,0,0,1-.154.338,2.451,2.451,0,0,1-.328.2ZM8.15,9.26A4.056,4.056,0,1,0,5.273,8.075,4.067,4.067,0,0,0,8.15,9.26Z" transform="translate(1552.533 18.34)" fill="#fff" stroke="#fff" stroke-width="0.5"/>
    <path id="Path_8520" data-name="Path 8520" d="M-13618.9-23780.73h15.387l-.905-3.441-1.358-1.771s-.911-.936-1.059-1.059a10.114,10.114,0,0,0-1.654-.752c-.462-.145-2.891-.76-3-.754s-2.765.52-2.837.549a3.008,3.008,0,0,0-1.423.682c-.971.684-1.446.918-1.637,1.334a22,22,0,0,0-.906,2.143,11.733,11.733,0,0,0-.164,1.412C-13618.522-23781.963-13618.9-23780.73-13618.9-23780.73Z" transform="translate(15171.891 23816.766)" fill="#fff"/>
  </g>
</svg>
