<svg xmlns="http://www.w3.org/2000/svg" width="87" height="72" viewBox="0 0 87 72">
  <g id="Group_5317" data-name="Group 5317" transform="translate(8204 7787)">
    <rect id="Rectangle_1626" data-name="Rectangle 1626" width="86" height="3" transform="translate(-8204 -7787)" fill="#212833"/>
    <g id="Group_5314" data-name="Group 5314">
      <rect id="Rectangle_1627" data-name="Rectangle 1627" width="3" height="3" transform="translate(-8204 -7782)" fill="#212833"/>
      <rect id="Rectangle_1628" data-name="Rectangle 1628" width="3" height="3" transform="translate(-8204 -7776)" fill="#212833"/>
      <rect id="Rectangle_1629" data-name="Rectangle 1629" width="3" height="3" transform="translate(-8204 -7770)" fill="#212833"/>
      <rect id="Rectangle_1630" data-name="Rectangle 1630" width="3" height="3" transform="translate(-8204 -7764)" fill="#212833"/>
      <rect id="Rectangle_1631" data-name="Rectangle 1631" width="3" height="3" transform="translate(-8204 -7758)" fill="#212833"/>
    </g>
    <g id="Group_5315" data-name="Group 5315" transform="translate(83)">
      <rect id="Rectangle_1627-2" data-name="Rectangle 1627" width="3" height="3" transform="translate(-8204 -7782)" fill="#212833"/>
      <rect id="Rectangle_1628-2" data-name="Rectangle 1628" width="3" height="3" transform="translate(-8204 -7776)" fill="#212833"/>
      <rect id="Rectangle_1629-2" data-name="Rectangle 1629" width="3" height="3" transform="translate(-8204 -7770)" fill="#212833"/>
      <rect id="Rectangle_1630-2" data-name="Rectangle 1630" width="3" height="3" transform="translate(-8204 -7764)" fill="#212833"/>
      <rect id="Rectangle_1631-2" data-name="Rectangle 1631" width="3" height="3" transform="translate(-8204 -7758)" fill="#212833"/>
    </g>
    <rect id="Rectangle_1632" data-name="Rectangle 1632" width="2" height="2" transform="translate(-8162 -7747)" fill="#4d525b"/>
    <g id="Group_5316" data-name="Group 5316" transform="translate(-15944.928 474) rotate(90)">
      <rect id="Rectangle_1629-3" data-name="Rectangle 1629" width="3" height="3" transform="translate(-8204 -7769.928)" fill="#212833"/>
      <rect id="Rectangle_1630-3" data-name="Rectangle 1630" width="3" height="3" transform="translate(-8204 -7764.928)" fill="#212833"/>
      <rect id="Rectangle_1631-3" data-name="Rectangle 1631" width="3" height="3" transform="translate(-8204 -7759.928)" fill="#212833"/>
    </g>
    <g id="Rectangle_1633" data-name="Rectangle 1633" transform="translate(-8197 -7777)" fill="none" stroke="#212833" stroke-width="3">
      <rect width="31" height="57" stroke="none"/>
      <rect x="1.5" y="1.5" width="28" height="54" fill="none"/>
    </g>
    <g id="Rectangle_1634" data-name="Rectangle 1634" transform="translate(-8204 -7753)" fill="none" stroke="#212833" stroke-width="3">
      <rect width="10" height="13" stroke="none"/>
      <rect x="1.5" y="1.5" width="7" height="10" fill="none"/>
    </g>
    <g id="Rectangle_1635" data-name="Rectangle 1635" transform="translate(-8169 -7753)" fill="none" stroke="#212833" stroke-width="3">
      <rect width="51" height="13" stroke="none"/>
      <rect x="1.5" y="1.5" width="48" height="10" fill="none"/>
    </g>
    <circle id="Ellipse_633" data-name="Ellipse 633" cx="16.5" cy="16.5" r="16.5" transform="translate(-8150 -7748)" fill="#90dafe"/>
    <rect id="Rectangle_1636" data-name="Rectangle 1636" width="18" height="2" transform="translate(-8143 -7732)" fill="#212833"/>
  </g>
</svg>
