<svg xmlns="http://www.w3.org/2000/svg" width="63.152" height="54.504" viewBox="0 0 63.152 54.504">
  <g id="Group_5806" data-name="Group 5806" transform="translate(-6140.002 18849.613)">
    <path id="Path_7094" data-name="Path 7094" d="M-1028.967-54.682a17.742,17.742,0,0,1,2.644-5.33q11.291-18.7,22.585-37.389a7.356,7.356,0,0,1,4.082-3.511,6.287,6.287,0,0,1,7.238,2.948c1.205,1.913,2.355,3.862,3.524,5.8q10.432,17.267,20.863,34.535a6.784,6.784,0,0,1,.923,5.784,6.113,6.113,0,0,1-5.931,4.082q-10.679.006-21.357,0-14.137,0-28.274-.005a6.16,6.16,0,0,1-5.883-3.716c-.166-.408-.277-.838-.413-1.257Zm31.052,3.031v0h15.17c3.115,0,6.23.008,9.344-.007,2.414-.011,3.339-1.634,2.148-3.734-.06-.105-.122-.209-.185-.313q-12.03-19.913-24.072-39.82a5.108,5.108,0,0,0-1.143-1.309,1.846,1.846,0,0,0-2.411-.045,5.374,5.374,0,0,0-1.26,1.439q-6.33,10.4-12.616,20.835-5.782,9.567-11.556,19.138a2.516,2.516,0,0,0-.305,2.738,2.6,2.6,0,0,0,2.493,1.072Q-1010.111-51.645-997.915-51.65Z" transform="translate(7169.469 -18747.848)" fill="#90dafe" stroke="#fff" stroke-width="1"/>
    <path id="Path_7095" data-name="Path 7095" d="M-785.574,36.088q0,3.61,0,7.219a1.936,1.936,0,0,1-1.972,2.066,1.946,1.946,0,0,1-1.913-2.069q0-7.159,0-14.317a1.978,1.978,0,0,1,1.946-2.108,1.97,1.97,0,0,1,1.938,2.111Q-785.57,32.539-785.574,36.088Z" transform="translate(6959.085 -18860.342)" fill="#28303f" stroke="#fff" stroke-width="1"/>
    <path id="Path_7096" data-name="Path 7096" d="M-794.543,224.222a2.88,2.88,0,0,1-2.871-2.957,2.863,2.863,0,0,1,2.951-2.871,2.876,2.876,0,0,1,2.877,2.95A2.89,2.89,0,0,1-794.543,224.222Z" transform="translate(6966.072 -19028.568)" fill="#28303f" stroke="#fff" stroke-width="1"/>
  </g>
</svg>
