<svg xmlns="http://www.w3.org/2000/svg" width="22.457" height="25.693" viewBox="0 0 22.457 25.693">
  <g id="Group_5804" data-name="Group 5804" transform="translate(-590.86 -636.925)">
    <g id="Group_5584" data-name="Group 5584" transform="translate(-867.267 795.886)">
      <path id="Path_8659" data-name="Path 8659" d="M1471-158.961c.177.18.353.362.532.541q2.877,2.879,5.757,5.755a.332.332,0,0,1,.107.262c-.011,1.258-.018,2.517-.027,3.775,0,.077-.014.154-.023.248-.173-.076-.326-.149-.483-.21-.312-.12-.625-.24-.943-.347-.1-.033-.138-.067-.136-.177.006-.546,0-1.092,0-1.639v-.181c-.266,0-.518,0-.77,0-1.437-.008-2.875-.014-4.312-.028a.932.932,0,0,1-.357-.093,1.84,1.84,0,0,1-.943-1.024.481.481,0,0,1-.022-.18q-.016-2.464-.03-4.929c0-.052,0-.1,0-.164h-9.619v22.485h.15q3.257,0,6.514,0a.285.285,0,0,1,.228.092,11.648,11.648,0,0,0,1.636,1.478c-.079.006-.123.011-.168.012q-3.283.007-6.566.012c-.682,0-1.363-.011-2.045-.012a.7.7,0,0,1-.359-.092,2.266,2.266,0,0,1-.634-.478,1.407,1.407,0,0,1-.338-.951c-.007-2.285-.028-4.57-.029-6.855q0-7.341.009-14.682c0-.384.016-.769.023-1.153a1.461,1.461,0,0,1,.628-1.152,1.517,1.517,0,0,1,.973-.283c.323,0,.647-.008.97-.014a1.223,1.223,0,0,0,.128-.015Zm-.027,6.427c1.588-.016,3.164.024,4.739-.033l.02-.043-4.758-4.673Z" transform="translate(0 0)" fill="#919191"/>
      <path id="Path_8660" data-name="Path 8660" d="M1778.89,276.852a7.2,7.2,0,1,1-7.567-7.166A7.252,7.252,0,0,1,1778.89,276.852Zm-7.189-5.558a5.611,5.611,0,1,0,5.6,5.791A5.589,5.589,0,0,0,1771.7,271.294Z" transform="translate(-298.311 -417.391)" fill="#919191"/>
      <path id="Path_8661" data-name="Path 8661" d="M1920.128,426.983c-.227,0-.44.005-.653,0-.375-.011-.75-.031-1.125-.043a.693.693,0,0,1-.6-.646.888.888,0,0,1,.113-.553.739.739,0,0,1,.673-.328l1.441-.029c.047,0,.094,0,.156-.007,0-.058,0-.109,0-.16.008-.489.011-.979.026-1.467a.753.753,0,0,1,.968-.737.676.676,0,0,1,.576.706q.025.76.032,1.52c0,.112.029.148.147.149.485,0,.97.013,1.454.027a.726.726,0,0,1,.624.265.845.845,0,0,1,.1.856.666.666,0,0,1-.664.423c-.494.009-.987.025-1.48.028-.133,0-.179.032-.179.173,0,.48-.022.961-.026,1.441a.69.69,0,0,1-.43.712.831.831,0,0,1-.9-.136.758.758,0,0,1-.221-.607c-.016-.485-.02-.97-.03-1.455C1920.135,427.078,1920.132,427.044,1920.128,426.983Z" transform="translate(-447.56 -566.673)" fill="#919191"/>
    </g>
  </g>
</svg>
