<svg xmlns="http://www.w3.org/2000/svg" xmlns:xlink="http://www.w3.org/1999/xlink" width="29" height="29" viewBox="0 0 29 29">
  <defs>
    <radialGradient id="radial-gradient" cx="0.274" cy="0.704" r="0" gradientUnits="objectBoundingBox">
      <stop offset="0" stop-color="#fff" stop-opacity="0.102"/>
      <stop offset="1" stop-color="#fff" stop-opacity="0"/>
    </radialGradient>
  </defs>
  <g id="Group_5810" data-name="Group 5810" transform="translate(-257 -418)">
    <g id="google-authenticator-2" transform="translate(230.154 391.057)">
      <circle id="Ellipse_621" data-name="Ellipse 621" cx="14.5" cy="14.5" r="14.5" transform="translate(26.846 26.943)" fill="#616161"/>
      <path id="Path_8540" data-name="Path 8540" d="M41.395,50.555a9.16,9.16,0,1,1,6.477-15.637l3.7-3.7a14.393,14.393,0,1,0,0,20.358l-3.7-3.7A9.144,9.144,0,0,1,41.395,50.555Z" transform="translate(0 0)" fill="#9e9e9e"/>
      <path id="Path_8541" data-name="Path 8541" d="M886.84,877.681H882.26a4.58,4.58,0,1,0-7.881,3.174l0,0,5.671,5.671h0a9.163,9.163,0,0,0,6.793-8.849Z" transform="translate(-836.286 -836.286)" fill="#424242"/>
      <path id="Path_8542" data-name="Path 8542" d="M1484.126,1268h-5.235a9.165,9.165,0,0,1-6.791,8.849l4.042,4.042A14.394,14.394,0,0,0,1484.126,1268Z" transform="translate(-1428.338 -1226.606)" fill="#616161"/>
      <path id="Path_8543" data-name="Path 8543" d="M41.395,1275.213A14.4,14.4,0,0,1,27,1260.9c0,.028,0,.055,0,.083a14.395,14.395,0,0,0,28.789,0c0-.028,0-.055,0-.083a14.4,14.4,0,0,1-14.393,14.313Z" transform="translate(0 -1219.588)" fill="rgba(33,33,33,0.1)"/>
      <path id="Path_8544" data-name="Path 8544" d="M1472.2,1276.849l.128.127a9.161,9.161,0,0,0,6.664-8.813V1268a9.164,9.164,0,0,1-6.791,8.849Z" transform="translate(-1428.437 -1226.606)" fill="rgba(255,255,255,0.05)"/>
      <g id="Group_5287" data-name="Group 5287" transform="translate(40.085 40.086)">
        <path id="Path_8545" data-name="Path 8545" d="M931.786,918.7H920.008a1.308,1.308,0,1,0,0,2.617h11.777a1.308,1.308,0,0,0,0-2.617Z" transform="translate(-918.7 -918.7)" fill="#9e9e9e"/>
        <path id="Path_8546" data-name="Path 8546" d="M931.786,918.7H920.008a1.308,1.308,0,1,0,0,2.617h11.777a1.308,1.308,0,0,0,0-2.617Z" transform="translate(-918.7 -918.7)" fill="#bdbdbd" opacity="0.5"/>
      </g>
      <g id="Group_5808" data-name="Group 5808">
        <g id="Group_5289" data-name="Group 5289" transform="translate(26.846 27)">
          <g id="Group_5288" data-name="Group 5288" transform="translate(1.79 1.636)">
            <circle id="Ellipse_622" data-name="Ellipse 622" cx="0.981" cy="0.981" r="0.981" transform="translate(0 11.778)" fill="#bdbdbd"/>
            <circle id="Ellipse_623" data-name="Ellipse 623" cx="0.981" cy="0.981" r="0.981" transform="translate(11.778)" fill="#bdbdbd"/>
            <circle id="Ellipse_624" data-name="Ellipse 624" cx="0.981" cy="0.981" r="0.981" transform="translate(11.778 23.555)" fill="#bdbdbd"/>
            <circle id="Ellipse_625" data-name="Ellipse 625" cx="0.981" cy="0.981" r="0.981" transform="translate(3.436 3.45)" fill="#bdbdbd"/>
            <circle id="Ellipse_626" data-name="Ellipse 626" cx="0.981" cy="0.981" r="0.981" transform="translate(3.436 20.12)" fill="#bdbdbd"/>
          </g>
          <circle id="Ellipse_627" data-name="Ellipse 627" cx="0.981" cy="0.981" r="0.981" transform="translate(21.909 21.756)" fill="#757575"/>
          <path id="Path_8547" data-name="Path 8547" d="M1156.508,1155.364h11.777a1.306,1.306,0,0,1,1.3,1.227c0-.028,0-.055,0-.082a1.308,1.308,0,0,0-1.308-1.308h-11.777a1.308,1.308,0,0,0-1.308,1.308.647.647,0,0,0,0,.082A1.305,1.305,0,0,1,1156.508,1155.364Z" transform="translate(-1141.96 -1142.114)" fill="rgba(255,255,255,0.2)"/>
          <path id="Path_8548" data-name="Path 8548" d="M1169.589,1275a1.31,1.31,0,0,1-1.3,1.227h-11.777a1.306,1.306,0,0,1-1.3-1.227.635.635,0,0,0,0,.081,1.308,1.308,0,0,0,1.308,1.308h11.777a1.308,1.308,0,0,0,1.308-1.308A.658.658,0,0,0,1169.589,1275Z" transform="translate(-1141.96 -1260.524)" fill="rgba(33,33,33,0.2)"/>
          <path id="Path_8549" data-name="Path 8549" d="M487.46,391.583a9.135,9.135,0,0,1,6.477,2.683l3.781-3.784-.081-.082-3.7,3.7a9.16,9.16,0,0,0-15.637,6.477c0,.028,0,.055,0,.082a9.159,9.159,0,0,1,9.159-9.078Z" transform="translate(-472.911 -386.185)" fill="rgba(33,33,33,0.1)"/>
          <circle id="Ellipse_628" data-name="Ellipse 628" cx="14.5" cy="14.5" r="14.5" transform="translate(0 -0.057)" fill="url(#radial-gradient)"/>
        </g>
      </g>
    </g>
  </g>
</svg>
