<svg xmlns="http://www.w3.org/2000/svg" width="321.686" height="325.305" viewBox="0 0 321.686 325.305">
  <g id="Group_5899" data-name="Group 5899" transform="translate(-501.185 -7484.643)">
    <g id="Group_5898" data-name="Group 5898">
      <path id="Path_1" data-name="Path 1" d="M271.139,13.648l-1.819-.808,2.821-1.617h0l.129-.073a1.9,1.9,0,0,1,1.617.234l102.132,58.2a6.649,6.649,0,0,1,2.773,5.287l.21,45.593.089,16.6.073,12.756a2.425,2.425,0,0,1-1,2.28h0l-2.934,1.665.113-2.425L274.292,93.776a6.572,6.572,0,0,1-2.765-5.287l-.04-12.765h-.057l-.089-16.6h.057Z" transform="translate(443.688 7480.874)" fill="#2198ca"/>
      <path id="Path_2" data-name="Path 2" d="M373.517,153.882l-102.132-58.2a6.632,6.632,0,0,1-2.773-5.246l-.412-74.9c0-2.037,1.2-3.023,2.724-2.158l102.14,58.2a6.6,6.6,0,0,1,2.765,5.246l.42,74.9C376.314,153.834,375.037,154.691,373.517,153.882Z" transform="translate(443.902 7480.491)" fill="#43c7fd"/>
      <path id="Path_3" data-name="Path 3" d="M376.293,150.416,268.607,89.034l-.1-16.6L376.2,133.811Z" transform="translate(443.843 7469.116)" fill="#082242"/>
      <path id="Path_4" data-name="Path 4" d="M278.751,68.265c0,.582-.348.647-.7.808a2.9,2.9,0,0,1,.889,1.94c0,.986-.639.954-1.4.55a2.425,2.425,0,0,1-1.407-2.134c0-.7.34-.938.865-.913a2.733,2.733,0,0,1-.7-1.56c0-.76.631-.728,1.221-.348a2.069,2.069,0,0,1,1.229,1.657Zm-.4,2.272a2.8,2.8,0,0,0-.808-1.52c-.4,0-.808,0-.808.517a1.544,1.544,0,0,0,.808,1.229C277.951,71.054,278.363,71.062,278.355,70.537Zm-1.471-3.306a2.425,2.425,0,0,0,.647,1.148c.234,0,.639,0,.639-.372a1.075,1.075,0,0,0-.647-.857C277.231,66.931,276.884,66.826,276.884,67.23Z" transform="translate(442.381 7470.282)" fill="#f7f9fc"/>
      <path id="Path_5" data-name="Path 5" d="M283.875,70.8a6.379,6.379,0,0,1,.186,1.778c0,.582,0,1.859-.4,2.037a1.69,1.69,0,0,1-1-.267,2.934,2.934,0,0,1-.994-.808,6.467,6.467,0,0,1-.42-2.506,4.665,4.665,0,0,1,.17-1.617c.17-.558.639-.372,1.221,0a2.134,2.134,0,0,1,1.237,1.382Zm-1.981-.7a9.662,9.662,0,0,0-.057,1.277,6.38,6.38,0,0,0,.186,1.77,1.7,1.7,0,0,0,.647.566c.178.081.525.307.639.21a5.7,5.7,0,0,0,.17-1.544,10.778,10.778,0,0,0-.065-1.35c-.065-.534-.3-.687-.768-.986S281.951,69.586,281.894,70.1Z" transform="translate(441.404 7469.761)" fill="#f7f9fc"/>
      <path id="Path_6" data-name="Path 6" d="M288.937,73.715a6.29,6.29,0,0,1,.186,1.77c0,.582,0,1.867-.4,2.037a1.69,1.69,0,0,1-.994-.267,3.007,3.007,0,0,1-.994-.808,6.548,6.548,0,0,1-.42-2.514,4.688,4.688,0,0,1,.17-1.617c.17-.558.639-.372,1.221,0A2.013,2.013,0,0,1,288.937,73.715Zm-1.924-.7a8.29,8.29,0,0,0-.048,1.269,6.468,6.468,0,0,0,.178,1.778,1.673,1.673,0,0,0,.647.558c.178.089.525.315.639.21a5.743,5.743,0,0,0,.17-1.544,10.943,10.943,0,0,0-.065-1.35c-.065-.534-.3-.679-.76-.986S287.069,72.559,287.013,73.02Z" transform="translate(440.433 7469.205)" fill="#f7f9fc"/>
      <path id="Path_7" data-name="Path 7" d="M294.079,76.956c0,.582-.348.647-.7.808a2.894,2.894,0,0,1,.881,1.94c0,.986-.639.954-1.4.55a2.482,2.482,0,0,1-1.407-2.134c0-.7.348-.938.873-.913a2.692,2.692,0,0,1-.711-1.56c0-.76.639-.719,1.221-.348a2.191,2.191,0,0,1,1.237,1.657Zm-.4,2.328a2.854,2.854,0,0,0-.808-1.52c-.412,0-.808,0-.808.517a1.56,1.56,0,0,0,.808,1.229C293.279,79.81,293.683,79.81,293.683,79.284ZM292.2,75.978a2.426,2.426,0,0,0,.647,1.148c.234,0,.647,0,.639-.372a1.051,1.051,0,0,0-.639-.808C292.551,75.687,292.2,75.574,292.2,75.978Z" transform="translate(439.445 7468.616)" fill="#f7f9fc"/>
      <path id="Path_8" data-name="Path 8" d="M297.376,79.349l.113.073a3,3,0,0,1,1.617,2.425c0,1.617-1.617.865-2.15.55l-.178-.081v-.606l.356.226c.639.323,1.4.558,1.39-.38a1.714,1.714,0,0,0-1.051-1.5l-.7-.331.105-2.2,2.1,1.188v.639l-1.617-.873Z" transform="translate(438.428 7468.139)" fill="#f7f9fc"/>
      <path id="Path_9" data-name="Path 9" d="M304.269,82.795c0,.582-.348.647-.7.808a2.894,2.894,0,0,1,.881,1.94c0,.986-.631.954-1.39.55a2.482,2.482,0,0,1-1.415-2.134c0-.7.348-.938.873-.922a2.716,2.716,0,0,1-.711-1.56c0-.752.639-.719,1.221-.34a2.078,2.078,0,0,1,1.237,1.657Zm-.4,2.272a2.853,2.853,0,0,0-.808-1.52c-.412,0-.808,0-.808.517a1.617,1.617,0,0,0,.808,1.229c.4.291.808.3.808-.226Zm-1.479-3.282a2.425,2.425,0,0,0,.647,1.14c.234,0,.647,0,.639-.364a1.067,1.067,0,0,0-.639-.857C302.741,81.461,302.394,81.413,302.394,81.784Z" transform="translate(437.493 7467.498)" fill="#f7f9fc"/>
      <path id="Path_10" data-name="Path 10" d="M309.408,85.3l-1.051.606a2.676,2.676,0,0,1,1.237,2.1c0,1.051-.752,1.108-1.617.631a5.028,5.028,0,0,1-1.059-.857v-.7a2.951,2.951,0,0,0,1.051.913c.525.307,1.051.331,1.051-.372a1.69,1.69,0,0,0-.946-1.415l-.461-.251v-.493l1.043-.655-1.746-1.019V83.21l2.514,1.423Z" transform="translate(436.485 7467.05)" fill="#f7f9fc"/>
      <path id="Path_11" data-name="Path 11" d="M314.425,91.737v.639L312,90.929v-.348c0-1.107.348-1.407,1.164-1.512.283-.073.752-.121.752-.59a1.431,1.431,0,0,0-.647-1.083,1.843,1.843,0,0,0-1.229-.186v-.752c.291-.137.76.048,1.108.218A2.571,2.571,0,0,1,314.5,88.8c0,.873-.517.905-1.1.994-.348.129-.808.234-.808.752v.121Z" transform="translate(435.51 7466.437)" fill="#f7f9fc"/>
      <path id="Path_12" data-name="Path 12" d="M317.4,94.141a3.347,3.347,0,0,0,1.39-1.075h0a.7.7,0,0,1-.461-.129A2.854,2.854,0,0,1,317,90.649c0-.986.582-1.253,1.4-.808a2.886,2.886,0,0,1,1.407,2.482,2.849,2.849,0,0,1-1.617,2.263Zm.154-3.234a1.617,1.617,0,0,0,.808,1.407c.469.243.808.065.808-.461a1.617,1.617,0,0,0-.808-1.407c-.55-.372-.808-.186-.808.453Z" transform="translate(434.552 7465.82)" fill="#f7f9fc"/>
      <path id="Path_13" data-name="Path 13" d="M324.646,94.01a6.692,6.692,0,0,1,.186,1.778c0,.582,0,1.859-.4,2.029-.234.089-.647-.089-.994-.259a2.935,2.935,0,0,1-.994-.808,6.338,6.338,0,0,1-.42-2.506,4.735,4.735,0,0,1,.162-1.617c.17-.55.639-.364,1.229,0A2.167,2.167,0,0,1,324.646,94.01Zm-1.924-.631a9.459,9.459,0,0,0-.057,1.269,6.089,6.089,0,0,0,.186,1.77,1.7,1.7,0,0,0,.647.566c.17.081.525.307.639.21a5.7,5.7,0,0,0,.17-1.544,12.679,12.679,0,0,0-.065-1.35c-.065-.534-.3-.687-.768-.986s-.663-.453-.752.065Z" transform="translate(433.591 7465.312)" fill="#f7f9fc"/>
      <path id="Path_14" data-name="Path 14" d="M327.594,99.933a3.274,3.274,0,0,0,1.39-1.067h0a1.215,1.215,0,0,1-.461-.129,2.829,2.829,0,0,1-1.293-2.288c0-.994.574-1.253,1.39-.808a2.886,2.886,0,0,1,1.415,2.482,2.853,2.853,0,0,1-1.617,2.255Zm.162-3.234a1.665,1.665,0,0,0,.808,1.407c.469.243.808.057.808-.461a1.617,1.617,0,0,0-.808-1.407C328.038,95.891,327.747,96.093,327.755,96.7Z" transform="translate(432.592 7464.708)" fill="#f7f9fc"/>
      <path id="Path_15" data-name="Path 15" d="M277.761,43.675l9.927,5.659c1.116.631,1.981-.057,1.973-1.512L289.6,37.046a4.85,4.85,0,0,0-2-3.791l-9.927-5.61c-1.116-.631-1.981.057-1.973,1.512l.057,10.776a4.624,4.624,0,0,0,2,3.743Z" transform="translate(442.465 7477.742)" fill="#f7f9fc"/>
      <path id="Path_16" data-name="Path 16" d="M346.388,70.8l.639.388-1.091,1.754v2.1l-.582-.323V72.623L344.23,69.6l.647.388.808,2.094Z" transform="translate(429.334 7469.658)" fill="#f7f9fc"/>
      <path id="Path_17" data-name="Path 17" d="M352.175,76.443c0,.994-.4,2.037-1.39,1.479s-1.407-2.126-1.415-3.12.4-2.037,1.39-1.479S352.167,75.57,352.175,76.443Zm-2.158-1.2c0,.582.121,1.706.768,2.094s.752-.639.752-1.221-.129-1.77-.808-2.094c-.663-.453-.719.622-.711,1.221Z" transform="translate(428.349 7468.975)" fill="#f7f9fc"/>
      <path id="Path_18" data-name="Path 18" d="M355.141,75.783v2.91a1.35,1.35,0,0,0,.711,1.39c.582.315.7,0,.7-.6v-2.91l.582.315v2.975c0,.986-.4,1.334-1.277.857a2.425,2.425,0,0,1-1.293-2.288V75.46Z" transform="translate(427.356 7468.535)" fill="#f7f9fc"/>
      <path id="Path_19" data-name="Path 19" d="M360.522,83.37l-.582-.323V78.56l1.108.631a2.328,2.328,0,0,1,1.237,1.989c0,.582-.283.889-.752.76l1,2.538-.7-.4-.881-2.344-.469-.243v1.8Zm.4-2.272c.469.243.76.291.76-.291a1.237,1.237,0,0,0-.768-1.108l-.4-.234v1.4Z" transform="translate(426.324 7467.941)" fill="#f7f9fc"/>
      <path id="Path_20" data-name="Path 20" d="M371.921,85.33l.525.315v4.479l-.639-.388-1.423-4.163h0v3.379l-.525-.315V84.15l.7.4,1.366,3.985h0Z" transform="translate(424.423 7466.87)" fill="#f7f9fc"/>
      <path id="Path_21" data-name="Path 21" d="M375.695,90.8l-.283,1.124-.582-.323,1.027-3.864.76.469,1.075,5.044-.582-.315-.3-1.447Zm.574-2.183h0l-.4,1.754.873.534Z" transform="translate(423.471 7466.182)" fill="#f7f9fc"/>
      <path id="Path_22" data-name="Path 22" d="M381.906,91.108l.93.55v4.487l-.582-.323V92.094h0l-.509,1.981-.469-.251-.534-2.579h0v3.727l-.582-.323V90.17l.93.542.477,2h0Z" transform="translate(422.45 7465.717)" fill="#f7f9fc"/>
      <path id="Path_23" data-name="Path 23" d="M386.084,95.3l1.52.873v.639l-1.52-.865v1.4L387.9,98.37v.639l-2.425-1.35V93.18l2.336,1.334v.639l-1.754-1.019Z" transform="translate(421.432 7465.14)" fill="#f7f9fc"/>
      <path id="Path_24" data-name="Path 24" d="M99.34,53.551,188.627,2.04,252.821,39.1,163.534,90.616Z" transform="translate(476.257 7482.603)" fill="#edf1f7"/>
      <path id="Path_25" data-name="Path 25" d="M211.061,212.01,300.348,160.5,268.037,47.89,178.75,99.4Z" transform="translate(461.041 7473.818)" fill="#a5c0d6"/>
      <path id="Path_26" data-name="Path 26" d="M308.007,280.648,218.72,332.159V238.7l89.287-51.511Z" transform="translate(453.383 7447.127)" fill="#a1c3d2"/>
      <path id="Path_27" data-name="Path 27" d="M207.013,167.665l57.178-32.99L247.538,76.64,190.36,109.622Z" transform="translate(458.817 7468.309)" fill="#edf1f7"/>
      <path id="Path_28" data-name="Path 28" d="M291.961,132.524l-3.137-10.929L272.172,63.56,253.845,74.134,270.5,132.168l9.959,34.72-57.178,32.99.711,2.466,67.97-39.215,7.534-4.349Z" transform="translate(452.509 7470.815)" fill="#0c465e"/>
      <path id="Path_29" data-name="Path 29" d="M268.138,148.43,210.96,181.42l9.959,34.72L278.1,183.15Z" transform="translate(454.87 7454.554)" fill="#7491a5"/>
      <path id="Path_30" data-name="Path 30" d="M195.846,215.434,163.534,102.825,99.34,65.76V253.178l96.506,55.714Z" transform="translate(476.257 7470.394)" fill="#0c465e"/>
      <path id="Path_31" data-name="Path 31" d="M297.135,175.042l-29-26.612L210.96,181.42l10.671,37.186,57.138-32.968,2.2-1.268Z" transform="translate(454.87 7454.554)" fill="#7193a2"/>
      <path id="Path_32" data-name="Path 32" d="M237.518,131.189l-1.318-4.6-7-24.389-7.7,4.446L197.47,120.51l6.993,24.389,4.487,15.634,28.569-16.483,3.169-1.827Z" transform="translate(457.455 7463.412)" fill="#0c465e"/>
      <path id="Path_33" data-name="Path 33" d="M244.713,103.453l1.431,5a.719.719,0,0,0,1.051.42l9.6-5.537a.808.808,0,0,0,.364-.9l-1.471-5.117a.566.566,0,0,0-.808-.331l-9.838,5.659A.687.687,0,0,0,244.713,103.453Z" transform="translate(448.408 7464.422)" fill="#7491a5"/>
      <path id="Path_34" data-name="Path 34" d="M256.559,100.34l-10.929,6.305.113.4,10.938-6.314Z" transform="translate(448.227 7463.768)" fill="#163f68"/>
      <path id="Path_35" data-name="Path 35" d="M240.118,131.189l-1.318-4.6-7-24.389-1.471.849,6.491,22.619,1.318,4.592,3.169,11.043-3.169,1.827-27.1,15.626.509,1.778,28.569-16.483,3.169-1.827Z" transform="translate(454.854 7463.412)" fill="#082242"/>
      <path id="Path_9213" data-name="Path 9213" d="M21.867,0C33.944,0,43.734,16.956,43.734,37.873s-9.79,37.873-21.867,37.873S0,58.79,0,37.873,9.79,0,21.867,0Z" transform="translate(580.244 7622.562) rotate(-30)" fill="#0e6c9a"/>
      <path id="Path_36" data-name="Path 36" d="M155.473,186.8l1.617-4.907-3.234-2.854-1.471,4.85c-.881-.808-1.722-1.512-2.6-2.312l1.471-4.988-3.234-2.854-1.617,4.907c-.752-.59-1.342-1.261-2.094-1.884l-4.2-3.9-1.01,3.314a27.592,27.592,0,0,1,2.352,2.183,3.921,3.921,0,0,1,1.423,2.975l-1.762,5.659a1.026,1.026,0,0,1,.38.372,1.083,1.083,0,0,1-.38-.372L138.691,195c-.121.331-.671.711-1.552-.129l-2.344-2.183L133,195.778l4.236,3.735c.752.76,1.471,1.342,2.223,2.1l-1.617,5.028,3.234,2.854,1.617-5.028a33.2,33.2,0,0,0,2.595,2.3l-1.617,4.907,3.234,2.854,1.617-5.036c5.449,4.535,9.6,6.718,11.576,2.312,1.552-3.525.129-7.09-2.684-10.509,2.142.808,3.816.3,4.317-2.643.752-3.589-2.191-7.655-6.257-11.851Zm-1.617,19.046c-1.172,3.775-7.841-2.773-10.065-4.85l2.053-6.71c2.247,1.908,9.208,7.534,8.035,11.56Zm1.423-10.905c-1,3.436-6.58-2.142-8.432-3.735l1.916-6.111c1.843,1.746,7.72,6.362,6.54,9.846Z" transform="translate(469.808 7449.873)" fill="#fff"/>
      <path id="Path_37" data-name="Path 37" d="M232.959,185.458l-3.824,2.207a.954.954,0,0,0-.21,1.617l3.169,2.749a2.134,2.134,0,0,0,2.312.178L238.23,190a.946.946,0,0,0,.218-1.617l-3.177-2.757A2.134,2.134,0,0,0,232.959,185.458Z" transform="translate(451.496 7447.509)" fill="#edf1f7"/>
      <path id="Path_38" data-name="Path 38" d="M241.868,180.289l-3.824,2.207a.954.954,0,0,0-.218,1.617L241,186.861a2.134,2.134,0,0,0,2.312.178l3.824-2.207a.954.954,0,0,0,.218-1.617l-3.177-2.749A2.134,2.134,0,0,0,241.868,180.289Z" transform="translate(449.79 7448.499)" fill="#edf1f7"/>
      <path id="Path_39" data-name="Path 39" d="M250.826,175.119,247,177.326a.946.946,0,0,0-.218,1.617l3.177,2.757a2.134,2.134,0,0,0,2.312.178l3.824-2.207a.954.954,0,0,0,.21-1.617l-3.169-2.748a2.134,2.134,0,0,0-2.312-.186Z" transform="translate(448.075 7449.489)" fill="#edf1f7"/>
      <path id="Path_40" data-name="Path 40" d="M240.289,191.858l-3.824,2.207a.954.954,0,0,0-.21,1.617l3.169,2.749a2.15,2.15,0,0,0,2.32.178l3.816-2.207a.946.946,0,0,0,.218-1.617l-3.177-2.757a2.134,2.134,0,0,0-2.312-.17Z" transform="translate(450.092 7446.283)" fill="#edf1f7"/>
      <path id="Path_41" data-name="Path 41" d="M249.247,186.689l-3.824,2.207a.946.946,0,0,0-.21,1.617l3.169,2.757a2.134,2.134,0,0,0,2.312.178l3.824-2.207a.954.954,0,0,0,.218-1.617l-3.177-2.749A2.134,2.134,0,0,0,249.247,186.689Z" transform="translate(448.377 7447.272)" fill="#edf1f7"/>
      <path id="Path_42" data-name="Path 42" d="M258.206,181.518l-3.824,2.215a.946.946,0,0,0-.218,1.617l3.177,2.757a2.134,2.134,0,0,0,2.28.226l3.824-2.207a.954.954,0,0,0,.218-1.617l-3.177-2.749A2.15,2.15,0,0,0,258.206,181.518Z" transform="translate(446.661 7448.256)" fill="#edf1f7"/>
      <path id="Path_43" data-name="Path 43" d="M247.671,198.258l-3.808,2.207a.946.946,0,0,0-.21,1.617l3.177,2.757a2.134,2.134,0,0,0,2.312.178l3.824-2.207a.954.954,0,0,0,.21-1.617L250,198.444a2.134,2.134,0,0,0-2.328-.186Z" transform="translate(448.675 7445.056)" fill="#edf1f7"/>
      <path id="Path_44" data-name="Path 44" d="M256.627,193.089,252.8,195.3a.946.946,0,0,0-.21,1.617l3.169,2.757a2.134,2.134,0,0,0,2.312.178l3.824-2.207a.954.954,0,0,0,.218-1.617l-3.177-2.749A2.134,2.134,0,0,0,256.627,193.089Z" transform="translate(446.962 7446.045)" fill="#edf1f7"/>
      <path id="Path_45" data-name="Path 45" d="M265.588,187.939l-3.824,2.207a.954.954,0,0,0-.218,1.617l3.177,2.757a2.134,2.134,0,0,0,2.312.178l3.824-2.207a.954.954,0,0,0,.218-1.617l-3.177-2.749A2.126,2.126,0,0,0,265.588,187.939Z" transform="translate(445.245 7447.033)" fill="#edf1f7"/>
      <path id="Path_56" data-name="Path 56" d="M354.973,322.2v3.985l-3.4.59.534-3.767Z" transform="translate(427.928 7421.258)" fill="#ba6d11"/>
      <path id="Path_9224" data-name="Path 9224" d="M24.51,0c13.537,0,24.51,6.337,24.51,14.155S38.047,28.31,24.51,28.31,0,21.973,0,14.155,10.974,0,24.51,0Z" transform="translate(733.88 7733.151)" fill="#2198ca"/>
      <path id="Path_9223" data-name="Path 9223" d="M24.51,0c13.537,0,24.51,6.337,24.51,14.155S38.047,28.31,24.51,28.31,0,21.973,0,14.155,10.974,0,24.51,0Z" transform="translate(733.88 7729.295)" fill="#43c7fd"/>
      <path id="Path_57" data-name="Path 57" d="M318.629,313.446l-2.369-2.336-2.425.881,2.361,2.247c-.687.218-1.293.485-1.981.7l-2.425-2.288-2.425.881,2.36,2.328c-.534.226-1.067.356-1.617.574h0l-3.3,1.051,1.617,1.544a17.908,17.908,0,0,1,1.827-.614,2.53,2.53,0,0,1,2.061.129l2.732,2.66a.517.517,0,0,1,.307-.089.558.558,0,0,1-.307.089l3.888,3.743c.154.17.234.566-.453.808l-1.819.622,1.3,1.892,3.234-1.14c.606-.178,1.14-.4,1.754-.574l2.425,2.377,2.425-.881-2.425-2.377c.687-.218,1.374-.445,1.981-.7l2.361,2.328,2.425-.881-2.425-2.377c3.969-1.617,6.257-3.169,4.276-5.546-1.617-1.892-3.969-2.2-6.637-1.714.994-.93,1.148-1.981-.38-3.128C325.1,312.137,322.056,312.492,318.629,313.446Zm10.372,6.6c1.827,1.762-3.589,3.387-5.343,3.961l-3.234-3.128c1.633-.647,6.588-2.716,8.577-.865Zm-5.8-4.042c1.673,1.617-2.9,2.9-4.276,3.436l-2.967-2.862c1.447-.525,5.554-2.288,7.243-.614Z" transform="translate(436.504 7423.383)" fill="#fff"/>
      <path id="Path_58" data-name="Path 58" d="M354.973,313.64v3.985l-3.4.59.534-3.767Z" transform="translate(427.928 7422.898)" fill="#ba6d11"/>
      <path id="Path_9228" data-name="Path 9228" d="M24.51,0c13.537,0,24.51,6.337,24.51,14.155S38.047,28.31,24.51,28.31,0,21.973,0,14.155,10.974,0,24.51,0Z" transform="translate(733.88 7726.231)" fill="#2198ca"/>
      <path id="Path_9222" data-name="Path 9222" d="M24.51,0c13.537,0,24.51,6.337,24.51,14.155S38.047,28.31,24.51,28.31,0,21.973,0,14.155,10.974,0,24.51,0Z" transform="translate(733.88 7722.375)" fill="#43c7fd"/>
      <path id="Path_59" data-name="Path 59" d="M318.634,304.846l-2.369-2.336-2.425.881,2.361,2.247c-.687.218-1.293.477-1.981.7l-2.425-2.288-2.425.873,2.361,2.336c-.534.218-1.067.356-1.617.574h0l-3.274,1.1,1.617,1.544s1.754-.663,1.827-.622a2.49,2.49,0,0,1,2.061.137l2.708,2.611a.582.582,0,0,1,.307-.081.558.558,0,0,1-.307.081l3.888,3.743c.154.178.234.574-.453.808l-1.835.622,1.3,1.892,3.234-1.148c.606-.178,1.14-.4,1.754-.574l2.425,2.377,2.425-.873-2.425-2.425a20.187,20.187,0,0,0,1.981-.7l2.361,2.336,2.425-.881-2.425-2.377c3.969-1.617,6.257-3.169,4.276-5.546-1.617-1.892-3.969-2.2-6.637-1.722.994-.922,1.148-1.981-.38-3.12C325.11,303.569,322.062,303.917,318.634,304.846Zm10.372,6.6c1.827,1.762-3.589,3.4-5.343,3.969l-3.234-3.129c1.633-.614,6.588-2.684,8.577-.841Zm-5.8-4.042c1.673,1.617-2.9,2.91-4.276,3.436l-2.967-2.862c1.447-.493,5.554-2.255,7.243-.582Z" transform="translate(436.498 7425.031)" fill="#fff"/>
      <path id="Path_60" data-name="Path 60" d="M354.973,305.07v3.985l-3.4.59.534-3.767Z" transform="translate(427.928 7424.54)" fill="#ba6d11"/>
      <path id="Path_9227" data-name="Path 9227" d="M24.51,0c13.537,0,24.51,6.337,24.51,14.155S38.047,28.31,24.51,28.31,0,21.973,0,14.155,10.974,0,24.51,0Z" transform="translate(733.88 7719.311)" fill="#2198ca"/>
      <path id="Path_9221" data-name="Path 9221" d="M24.51,0c13.537,0,24.51,6.337,24.51,14.155S38.047,28.31,24.51,28.31,0,21.973,0,14.155,10.974,0,24.51,0Z" transform="translate(733.88 7715.447)" fill="#43c7fd"/>
      <path id="Path_61" data-name="Path 61" d="M318.634,296.288,316.266,294l-2.425.873,2.361,2.247c-.687.218-1.293.485-1.981.7l-2.425-2.288-2.425.881,2.361,2.336c-.534.218-1.067.348-1.617.566h0l-3.274,1.107,1.617,1.536s1.754-.655,1.827-.614a2.53,2.53,0,0,1,2.061.129l2.741,2.643a.573.573,0,0,1,.307-.089.494.494,0,0,1-.307.089l3.888,3.743c.154.178.234.574-.453.808l-1.835.614,1.3,1.892,3.234-1.14c.606-.178,1.14-.4,1.754-.574l2.425,2.377,2.425-.881-2.425-2.377a20.2,20.2,0,0,0,1.981-.7l2.3,2.288,2.425-.881-2.425-2.377c3.969-1.617,6.257-3.177,4.276-5.554-1.617-1.892-3.969-2.2-6.637-1.714.994-.922,1.148-1.981-.38-3.128C325.11,295.01,322.062,295.366,318.634,296.288Zm10.372,6.6c1.827,1.762-3.589,3.387-5.343,3.961l-3.234-3.128C322.062,303.111,327.017,301.041,329.006,302.892Zm-5.8-4.042c1.673,1.617-2.9,2.9-4.276,3.436l-2.967-2.862C317.414,298.931,321.52,297.169,323.21,298.85Z" transform="translate(436.498 7426.661)" fill="#fff"/>
      <path id="Path_62" data-name="Path 62" d="M354.973,296.51V300.5l-3.4.59.534-3.767Z" transform="translate(427.928 7426.18)" fill="#ba6d11"/>
      <path id="Path_9226" data-name="Path 9226" d="M24.51,0c13.537,0,24.51,6.337,24.51,14.155S38.047,28.31,24.51,28.31,0,21.973,0,14.155,10.974,0,24.51,0Z" transform="translate(733.88 7712.383)" fill="#2198ca"/>
      <path id="Path_9220" data-name="Path 9220" d="M24.51,0c13.537,0,24.51,6.337,24.51,14.155S38.047,28.31,24.51,28.31,0,21.973,0,14.155,10.974,0,24.51,0Z" transform="translate(733.88 7708.527)" fill="#43c7fd"/>
      <path id="Path_63" data-name="Path 63" d="M318.634,287.716l-2.369-2.336-2.425.881,2.361,2.247c-.687.218-1.293.485-1.981.7l-2.425-2.288-2.425.881,2.361,2.328c-.534.226-1.067.356-1.617.574h0l-3.274,1.1,1.617,1.544a17.9,17.9,0,0,1,1.827-.614,2.5,2.5,0,0,1,2.061.129l2.74,2.643a.517.517,0,0,1,.307-.089.558.558,0,0,1-.307.089l3.888,3.743c.154.17.234.566-.453.808l-1.835.614,1.3,1.892,3.234-1.148c.606-.17,1.14-.4,1.754-.566l2.425,2.377,2.425-.881-2.425-2.377c.687-.226,1.374-.445,1.981-.7l2.361,2.328,2.425-.881-2.425-2.377c3.969-1.617,6.257-3.169,4.276-5.546-1.617-1.892-3.969-2.2-6.637-1.714.994-.93,1.148-1.981-.38-3.128C325.11,286.439,322.062,286.787,318.634,287.716Zm10.372,6.6c1.827,1.754-3.589,3.387-5.343,3.961l-3.234-3.129c1.633-.614,6.588-2.684,8.577-.833Zm-5.8-4.042c1.673,1.617-2.9,2.9-4.276,3.428l-2.967-2.862c1.447-.485,5.554-2.247,7.243-.574Z" transform="translate(436.498 7428.313)" fill="#fff"/>
      <path id="Path_64" data-name="Path 64" d="M349.021,282.58v3.985l-3.411.59.534-3.767Z" transform="translate(429.07 7428.85)" fill="#ba6d11"/>
      <path id="Path_9225" data-name="Path 9225" d="M24.51,0c13.537,0,24.51,6.337,24.51,14.155S38.047,28.31,24.51,28.31,0,21.973,0,14.155,10.974,0,24.51,0Z" transform="translate(729.062 7701.123)" fill="#2198ca"/>
      <path id="Path_9219" data-name="Path 9219" d="M24.51,0c13.537,0,24.51,6.337,24.51,14.155S38.047,28.31,24.51,28.31,0,21.973,0,14.155,10.974,0,24.51,0Z" transform="translate(729.062 7697.267)" fill="#43c7fd"/>
      <path id="Path_65" data-name="Path 65" d="M312.676,273.786l-2.361-2.336-2.425.881,2.361,2.247c-.687.218-1.293.485-1.981.7l-2.425-2.288-2.425.881,2.369,2.328c-.534.226-1.067.356-1.617.574h0l-3.282,1.1,1.617,1.544a17.921,17.921,0,0,1,1.827-.614,2.531,2.531,0,0,1,2.061.129l2.668,2.66a.484.484,0,0,1,.3-.089.526.526,0,0,1-.3.089l3.888,3.743c.154.17.226.566-.461.808l-1.827.614,1.293,1.892,3.234-1.148c.614-.17,1.148-.4,1.754-.566l2.425,2.377,2.425-.881-2.425-2.377c.687-.218,1.374-.445,1.981-.7l2.369,2.328,2.425-.881-2.425-2.377c3.961-1.617,6.249-3.169,4.268-5.546-1.617-1.892-3.969-2.2-6.637-1.714.994-.93,1.148-1.981-.38-3.128C319.16,272.509,316.1,272.857,312.676,273.786Zm10.372,6.6c1.827,1.762-3.589,3.387-5.335,3.961l-3.282-3.128C316.1,280.609,321.068,278.54,323.048,280.391Zm-5.8-4.042c1.673,1.617-2.894,2.9-4.268,3.428l-2.975-2.862c1.479-.485,5.562-2.247,7.243-.574Z" transform="translate(437.638 7430.982)" fill="#fff"/>
      <path id="Path_66" data-name="Path 66" d="M329.1,250.95v3.985l-3.411.59.542-3.775Z" transform="translate(432.887 7434.91)" fill="#ba6d11"/>
      <path id="Path_9218" data-name="Path 9218" d="M24.51,0c13.537,0,24.51,6.337,24.51,14.155S38.047,28.31,24.51,28.31,0,21.973,0,14.155,10.974,0,24.51,0Z" transform="translate(712.967 7675.553)" fill="#2198ca"/>
      <path id="Path_9217" data-name="Path 9217" d="M24.51,0c13.537,0,24.51,6.337,24.51,14.155S38.047,28.31,24.51,28.31,0,21.973,0,14.155,10.974,0,24.51,0Z" transform="translate(712.967 7671.697)" fill="#43c7fd"/>
      <path id="Path_67" data-name="Path 67" d="M292.751,242.148l-2.361-2.328-2.425.881,2.361,2.247c-.687.218-1.293.477-1.981.7l-2.425-2.3-2.425.881,2.344,2.336c-.534.218-1.067.356-1.617.574h0l-3.282,1.1,1.617,1.544s1.754-.663,1.835-.622a2.474,2.474,0,0,1,2.053.137l2.749,2.635a.558.558,0,0,1,.307-.089.517.517,0,0,1-.307.089l3.888,3.743c.154.178.226.574-.461.808l-1.827.622,1.293,1.892,3.234-1.148c.614-.178,1.148-.4,1.754-.574l2.425,2.377,2.425-.881L299.5,254.4a20.213,20.213,0,0,0,1.981-.7l2.369,2.336,2.425-.881-2.425-2.377c3.961-1.617,6.249-3.169,4.268-5.546-1.617-1.892-3.961-2.207-6.637-1.722.994-.922,1.148-1.981-.38-3.12C299.234,240.879,296.186,241.227,292.751,242.148Zm10.372,6.6c1.827,1.762-3.581,3.4-5.335,3.961l-3.282-3.12c1.681-.614,6.637-2.684,8.617-.841Zm-5.8-4.042c1.681,1.617-2.894,2.91-4.268,3.436l-2.975-2.862c1.415-.469,5.57-2.255,7.243-.582Z" transform="translate(441.461 7437.042)" fill="#fff"/>
      <path id="Path_68" data-name="Path 68" d="M289.536,213l-45.5,26.265v-9.28l45.5-26.265Z" transform="translate(448.531 7443.959)" fill="#446172"/>
      <path id="Path_69" data-name="Path 69" d="M298.415,203.72l-8.035,4.64,7.963,4.681.073-.04Z" transform="translate(439.652 7443.959)" fill="#2c414c"/>
      <path id="Path_70" data-name="Path 70" d="M306.391,224.15v3.985l-3.411.59.542-3.767Z" transform="translate(437.238 7440.045)" fill="#2198ca"/>
      <path id="Path_72" data-name="Path 72" d="M294.761,213.056l-8.609-6.726L245.49,229.773c2.078,1.892,5,4.535,7.922,7.13,5.157,4.567,10.331,8.973,10.946,8.82,1.261-.315,36.378-12.934,36.378-12.934l1.892-13.6Z" transform="translate(448.254 7443.459)" fill="none"/>
      <g id="Group_5897" data-name="Group 5897">
        <g id="Group_5896" data-name="Group 5896">
          <path id="Path_9216" data-name="Path 9216" d="M24.51,0c13.537,0,24.51,6.337,24.51,14.155S38.047,28.31,24.51,28.31,0,21.973,0,14.155,10.974,0,24.51,0Z" transform="translate(694.609 7653.888)" fill="#2198ca"/>
          <ellipse id="Ellipse_24" data-name="Ellipse 24" cx="24.51" cy="14.155" rx="24.51" ry="14.155" transform="translate(694.609 7650.032)" fill="#43c7fd"/>
          <path id="Path_71" data-name="Path 71" d="M270.039,215.352,267.678,213l-2.425.881,2.361,2.247c-.679.218-1.293.485-1.981.7l-2.425-2.288-2.425.881,2.361,2.328c-.534.218-1.067.356-1.617.574h0l-3.306,1.14,1.617,1.544a17.413,17.413,0,0,1,1.835-.614,2.482,2.482,0,0,1,2.053.129l2.749,2.643a.493.493,0,0,1,.307-.089.574.574,0,0,1-.307.089l3.888,3.743c.154.17.226.566-.461.808l-1.827.614,1.293,1.892,3.234-1.148c.606-.17,1.14-.4,1.754-.566l2.425,2.377,2.425-.881-2.425-2.377c.687-.226,1.374-.445,1.989-.7l2.361,2.328,2.425-.881L281.13,226c3.961-1.617,6.249-3.169,4.268-5.546-1.617-1.892-3.961-2.2-6.629-1.714.986-.93,1.14-1.981-.388-3.129C276.522,214.075,273.474,214.423,270.039,215.352Zm10.372,6.6c1.827,1.754-3.581,3.387-5.335,3.961l-3.29-3.128c1.69-.614,6.645-2.684,8.626-.833Zm-5.8-4.042c1.681,1.617-2.894,2.9-4.268,3.428l-2.975-2.862c1.447-.493,5.57-2.247,7.243-.574Z" transform="translate(445.814 7442.182)" fill="#fff"/>
          <path id="Path_73" data-name="Path 73" d="M252.484,238.653v-3.832a17.224,17.224,0,0,1-2.652-2.231l-1.972,1.14A14.316,14.316,0,0,0,252.484,238.653Z" transform="translate(447.799 7438.428)" fill="#18769e"/>
          <path id="Path_74" data-name="Path 74" d="M252.982,230.255l34.51-19.927a28.8,28.8,0,0,0-3.872-1.528l-33.29,19.224a17.226,17.226,0,0,0,2.652,2.231Zm11.948-7.938a.493.493,0,0,1,.307-.089A.574.574,0,0,1,264.93,222.316Z" transform="translate(447.326 7442.986)" fill="#2198ca" opacity="0.5"/>
        </g>
      </g>
      <path id="Path_75" data-name="Path 75" d="M219.334,123.888c-4.85,3.145-7.615,10.792-6.265,17.081s6.346,8.836,11.156,5.659,7.615-10.792,6.265-17.081S224.144,120.735,219.334,123.888Z" transform="translate(454.531 7459.516)" fill="#fff"/>
      <path id="Path_76" data-name="Path 76" d="M224.259,147.727c-5.416,3.541-11.043.671-12.57-6.419s1.617-15.707,7.065-19.248,11.051-.671,12.57,6.419S229.651,144.178,224.259,147.727Zm2.813-19.539a.954.954,0,0,0-.259-1.172l-1.14-.582c-.323-.162-.719.1-.9.582L220.5,138.665l-3.549-1.811c-.315-.162-.719.1-.9.582l-.639,1.754a.962.962,0,0,0,.251,1.172l5.271,2.692c.315.162.719-.1.9-.582Z" transform="translate(454.804 7459.897)" fill="#2091c1"/>
      <path id="Path_77" data-name="Path 77" d="M-3276.864,141a22.084,22.084,0,0,1-4.429.932c.068-1.541.532-3.017.741-4.533s.739-2.974.529-4.535c-.738,1.969-1.249,4.009-2.044,5.932-.51,1.235-.622,2.709-1.789,3.633a31.577,31.577,0,0,1-6.082,1.286c-3.879.667-7.784,1.189-11.687,1.71-4.6.614-9.22.98-13.857,1.148a12.459,12.459,0,0,0-6.976,2.578,21.692,21.692,0,0,0-4.922,5.915,21.988,21.988,0,0,0-3.49,10.117q-7.8,0-15.6-.007c-.3,0-.833.249-.69-.458.979-2.891,1.588-5.881,2.332-8.834q2.734-10.854,5.446-21.714a2.263,2.263,0,0,1,.2-.417,17.9,17.9,0,0,1,3.381-3.6,14.793,14.793,0,0,1,5.958-2.857,28.266,28.266,0,0,1,7.894-.568,74.96,74.96,0,0,1,10.552,1.726c1.889.4,3.708,1.134,5.595,1.555a81.811,81.811,0,0,1,7.878,2.422c2.793.927,5.587,1.851,8.368,2.816.732.254,1.2.105,1.486-.6.643-1.6,1.83-2.925,2.338-4.594a1.24,1.24,0,0,0,.647-.635c.827-2.016,2.069-3.812,3.052-5.742,1.5-2.954,3.172-5.751,5.847-7.812a6.55,6.55,0,0,0,.042,3.763,6.606,6.606,0,0,1-.4,2.5c-.729,2.185-1.488,4.36-2.221,6.544-.085.254-.43.605.021.781.323.126.408-.273.526-.5a28.4,28.4,0,0,1,3.344-4.815c1.777-2.166,3.709-4.209,5.471-6.395a16.778,16.778,0,0,1,6.7-2.54c.114.272.5.38.186.866-.973,1.5-1.966,2.995-2.917,4.511-1.674,2.671-3.209,5.424-4.891,8.088-.229.363-.65.7-.527,1.229-.208.213-.574.33-.5.77a1.528,1.528,0,0,0,1.227-.7,78.035,78.035,0,0,0,7.283-4.569c2-1.263,3.8-2.887,5.89-3.972a14.987,14.987,0,0,1,8.674-1.828c.112.737.9.252,1.195.663-1.348,1.517-3.131,2.488-4.7,3.729-2.57,2.036-5.183,4.017-7.941,6.148a7.737,7.737,0,0,0,2.846-.171c4.757-.573,9.467-1.535,14.273-1.712a8.218,8.218,0,0,1,3.738.611,1.229,1.229,0,0,1,.841,1.02c.019.513-.554.47-.885.574-4.681,1.475-9.351,2.99-14.062,4.365-4.974,1.452-9.988,2.766-14.986,4.135a3.209,3.209,0,0,1-.566.053,1.1,1.1,0,0,1,.369-.909c1.55-1.395,3.06-2.834,4.577-4.265.4-.381,1.09-.514,1.117-1.237.273-.024.531-.081.6-.4a.154.154,0,0,0-.195-.195c-.318.068-.377.324-.4.6-.649-.094-.953.413-1.352.766a50.671,50.671,0,0,1-6.687,5.3c-.308.192-.7.449-.329.926a26.025,26.025,0,0,1-4.451,1.034c-.023-.333-.3-.615-.114-1,.437-.9.835-1.817,1.239-2.731.494-1.12.978-2.244,1.56-3.583a1.9,1.9,0,0,0-1.006,1.006,68.494,68.494,0,0,1-3.521,6.324C-3277.306,140.926-3277.037,140.951-3276.864,141Z" transform="translate(3848.367 7644.725)" fill="#43c7fd"/>
      <path id="Path_78" data-name="Path 78" d="M-2461.838-198.524c-.293-.41-1.083.075-1.194-.663.442-.011.677-.343.944-.617,1.342-1.372,2.714-2.707,4.016-4.126,4.167-4.543,6.921-9.913,9.15-15.543a46.036,46.036,0,0,0,2.508-9.415c.606-3.656.847-7.344,1.092-11.035.067-1.015-.333-1.222-1.262-1.208-3.295.05-6.591.046-9.886,0a7.11,7.11,0,0,1-2.636-.274c2.341-1.323,4.639-2.506,7.539-2.317,3.693.24,7.414.058,11.122.058v5.352a26.479,26.479,0,0,0-.641,4.641,52.86,52.86,0,0,1-11.015,26.3A40.054,40.054,0,0,1-2461.838-198.524Z" transform="translate(3063.13 7963.515)" fill="#30c2fd"/>
      <path id="Path_79" data-name="Path 79" d="M-3201.363,414.214a21.982,21.982,0,0,1,3.49-10.117,21.674,21.674,0,0,1,4.922-5.915,12.457,12.457,0,0,1,6.975-2.578q-.8,8.667-1.6,17.335c-.039.423-.038.85-.055,1.276Z" transform="translate(3718.861 7395.698)" fill="#2198ca"/>
      <path id="Path_80" data-name="Path 80" d="M-2780.257-711.069q.012,6.856.024,13.713c0,1.351.005,1.338,1.26,1.031,7.207-1.764,14.422-3.5,21.619-5.305.857-.215.922.056.92.723-.013,3.215-.026,6.431,0,9.646a1.1,1.1,0,0,1-.76,1.144c-1.16.527-2.3,1.1-3.448,1.655l-.31.132-.444.063c0-3.281-.037-6.562.019-9.842.017-1-.354-1.256-1.228-1.035-2.6.658-5.2,1.334-7.8,1.988q-6.7,1.685-13.4,3.346c-1.318.324-1.329.29-1.33-1.1,0-4.259-.012-8.518.007-12.777,0-.686-.093-1.081-.931-1.055-3.672.115-7.348-.151-11.019.136a1.217,1.217,0,0,1-1.139-.419c1.2-.775,2.632-1.137,3.769-2.038Z" transform="translate(3360.821 8378.564)" fill="#30c2fd"/>
      <path id="Path_81" data-name="Path 81" d="M-2986.286-692.853a1.217,1.217,0,0,0,1.139.419c3.671-.287,7.348-.021,11.019-.136.839-.026.934.369.931,1.055-.02,4.259-.009,8.518-.007,12.778,0,1.4.011,1.429,1.329,1.1q6.707-1.651,13.4-3.346c2.6-.654,5.2-1.33,7.8-1.988.874-.221,1.245.039,1.228,1.035-.056,3.28-.02,6.561-.019,9.842a54.857,54.857,0,0,1-6.375,1.67c-3.895,1-7.805,1.945-11.707,2.922a4.761,4.761,0,0,0-.736.319c-1.357-.16-2.581.5-3.892.633-.793.078-1.062.526-1.05,1.344.047,3.061.016,6.123.021,9.184,0,1.208.172,1.342,1.367,1.035,3.463-.89,6.916-1.823,10.387-2.679,3.729-.919,7.481-1.745,11.21-2.665.905-.223.779.314.77.81-.059,3.173.154,6.35-.115,9.518-.048.559.315.4.571.477q-6.567,1.651-13.134,3.3c-2.059.521-4.113,1.063-6.169,1.6a16.129,16.129,0,0,0-3.733.728c-.843.167-1.18.574-1.178,1.5q.048,21,.022,42c0,.116.007.233,0,.349-.049.714.269.878.927.69.777-.221,1.572-.375,2.359-.559-1.762,2.185-3.694,4.229-5.471,6.394a28.39,28.39,0,0,0-3.344,4.815c-.119.227-.2.626-.527.5-.451-.176-.106-.527-.021-.781.734-2.184,1.492-4.359,2.221-6.544a6.6,6.6,0,0,0,.4-2.5.652.652,0,0,0,.68-.625,16.824,16.824,0,0,1,.472-1.9c.146-.525.8-1.053.268-1.572-.506-.5-.934.349-1.461.335-2.675,2.062-4.344,4.859-5.848,7.812-.982,1.929-2.224,3.725-3.051,5.742a1.241,1.241,0,0,1-.647.635l-.729-.029q.013-9.008.024-18.017.006-16.568,0-33.135c0-1.352,0-1.359-1.354-1.039-6.806,1.613-13.615,3.213-20.413,4.862-.913.221-1.271.123-1.255-.907.047-3.1.029-6.2.02-9.3,0-.548.011-1.031.723-1.071.646.475,1.146-.089,1.716-.223,3.66-.86,7.331-1.68,10.99-2.547,2.882-.683,5.746-1.443,8.632-2.109,1.173-.271,1.315-.4.966-1.606-.011-2.945-.07-5.891-.007-8.833.022-1.043-.363-1.182-1.219-.973q-4.954,1.212-9.915,2.4c-3.682.88-7.372,1.729-11.048,2.633-.667.164-.847-.037-.844-.647q.022-5,.024-10c0-.467.114-.763.655-.676.04.146.1.382.246.327a66.313,66.313,0,0,1,8.418-2.171c4.113-.932,8.146-2.2,12.318-2.884.953-.156,1.71-.56,1.367-1.766q-.012-8.214-.023-16.428C-2986.957-692.251-2987.033-692.8-2986.286-692.853Z" transform="translate(3548.885 8362.386)" fill="#6bd3fd"/>
      <path id="Path_82" data-name="Path 82" d="M-3222.937,131.464l.729.029c-.508,1.669-1.695,2.993-2.338,4.594-.284.708-.754.857-1.486.6-2.781-.965-5.575-1.889-8.368-2.816a81.815,81.815,0,0,0-7.878-2.422c-1.887-.421-3.7-1.153-5.595-1.555a74.956,74.956,0,0,0-10.551-1.726,28.266,28.266,0,0,0-7.894.568,14.789,14.789,0,0,0-5.958,2.857,17.921,17.921,0,0,0-3.381,3.6c1.658-8.833,8.248-17.28,18.583-18.2,1.318-.117,2.628-.147,3.943-.148,9.652-.01,19.3,0,28.956-.023.905,0,1.189.159.851,1.114a6.68,6.68,0,0,1-6.535,4.471c-3.177.037-6.35.111-9.513.446a6.479,6.479,0,0,0-1.8.4c-1.8.737-1.96,1.708-.492,2.962a14.386,14.386,0,0,0,4.114,2.35A45.468,45.468,0,0,0-3222.937,131.464Z" transform="translate(3784.844 7643.287)" fill="#2198ca"/>
      <path id="Path_83" data-name="Path 83" d="M-2981.432-536.136c.343,1.206-.415,1.61-1.367,1.766-4.171.682-8.2,1.952-12.318,2.884a66.33,66.33,0,0,0-8.418,2.171c-.15.055-.206-.181-.246-.327a20.991,20.991,0,0,1,7.441-2.991C-2991.362-533.765-2986.4-534.965-2981.432-536.136Z" transform="translate(3543.383 8223.201)" fill="#30c2fd"/>
      <path id="Path_84" data-name="Path 84" d="M-2981.03-334.2c.349,1.2.207,1.336-.966,1.607-2.886.666-5.75,1.427-8.633,2.109-3.659.867-7.329,1.687-10.99,2.547-.57.134-1.071.7-1.716.223,2.822-1.955,6.1-2.635,9.361-3.4C-2989.655-332.119-2985.344-333.165-2981.03-334.2Z" transform="translate(3542.987 8043.853)" fill="#30c2fd"/>
      <path id="Path_85" data-name="Path 85" d="M-2781.132,282.619c1.167-.923,1.279-2.4,1.79-3.633.794-1.923,1.306-3.963,2.044-5.932.211,1.561-.321,3.031-.529,4.535s-.673,2.992-.741,4.533Z" transform="translate(3345.643 7504.538)" fill="#2198ca"/>
      <path id="Path_86" data-name="Path 86" d="M-2665.772,277.663c-.371-.477.021-.734.329-.926a50.691,50.691,0,0,0,6.687-5.3c.4-.353.7-.86,1.351-.766l0,0c-.027.723-.712.855-1.117,1.237-1.517,1.43-3.027,2.87-4.577,4.265a1.1,1.1,0,0,0-.369.909A8.529,8.529,0,0,1-2665.772,277.663Z" transform="translate(3243.323 7506.668)" fill="#2198ca"/>
      <path id="Path_87" data-name="Path 87" d="M-2721.127,284.831c-.173-.052-.443-.077-.247-.346a68.5,68.5,0,0,0,3.522-6.324,1.9,1.9,0,0,1,1.006-1.006c-.582,1.339-1.066,2.463-1.56,3.583-.4.915-.8,1.833-1.239,2.732-.187.385.091.667.114,1l-.809.171-.328.122Z" transform="translate(3292.631 7500.896)" fill="#2198ca"/>
      <path id="Path_88" data-name="Path 88" d="M-2714.523,344.185l.328-.122Z" transform="translate(3286.485 7441.473)" fill="#ed8b61"/>
      <path id="Path_89" data-name="Path 89" d="M-2638.518-222.847a7.109,7.109,0,0,0,2.635.274c3.3.043,6.592.047,9.886,0,.929-.014,1.329.193,1.262,1.208-.244,3.691-.486,7.379-1.092,11.035a46,46,0,0,1-2.508,9.415c-2.229,5.63-4.983,11-9.15,15.543-1.3,1.419-2.674,2.754-4.016,4.126-.268.273-.5.606-.944.617a14.989,14.989,0,0,0-8.674,1.828c-2.087,1.085-3.886,2.71-5.89,3.972a78.025,78.025,0,0,1-7.281,4.568l-.732-.068c-.123-.534.3-.867.527-1.229,1.682-2.665,3.217-5.418,4.891-8.088.95-1.516,1.943-3.009,2.917-4.511.315-.486-.071-.594-.185-.866-.134-.34-.453-.232-.7-.292,6.651-2.987,10.8-8.373,13.936-14.676a46.929,46.929,0,0,0,4.519-17.272c.127-1.545.161-3.085.216-4.629C-2638.893-222.256-2639.079-222.708-2638.518-222.847Z" transform="translate(3242.542 7944.961)" fill="#6bd3fd"/>
      <path id="Path_90" data-name="Path 90" d="M-2672.18-219.868c.25.06.569-.048.7.292a16.781,16.781,0,0,0-6.7,2.541c-.787.183-1.582.338-2.358.559-.658.188-.976.024-.927-.69.008-.116,0-.233,0-.349q0-21-.022-42c0-.93.335-1.337,1.178-1.5a16.135,16.135,0,0,1,3.733-.728q.009,20.68.019,41.361c0,1.6,0,1.6,1.575,1.228C-2674.044-219.379-2673.113-219.629-2672.18-219.868Z" transform="translate(3257.146 7979.509)" fill="#30c2fd"/>
      <path id="Path_91" data-name="Path 91" d="M-2657.251-445.9c-.256-.076-.618.081-.571-.477.269-3.168.056-6.345.115-9.518.009-.5.135-1.033-.77-.81-3.729.92-7.481,1.746-11.21,2.665-3.472.855-6.924,1.789-10.387,2.679-1.195.307-1.365.173-1.367-1.035,0-3.062.026-6.124-.021-9.185-.012-.818.257-1.266,1.05-1.344,1.312-.13,2.535-.793,3.892-.633-.006,2.944.025,5.889-.036,8.832-.022,1.065.374,1.1,1.244.877q10.538-2.651,21.094-5.233c1.467-.362,1.475-.346,1.475,1.185,0,2.905-.039,5.811.012,8.716a1.5,1.5,0,0,1-1.073,1.652C-2654.981-447.058-2656.1-446.452-2657.251-445.9Z" transform="translate(3257.123 8158.767)" fill="#30c2fd"/>
      <path id="Path_92" data-name="Path 92" d="M-2465.117-508.869l.31-.132Z" transform="translate(3064.981 8199.103)" fill="#ffad38"/>
      <path id="Path_93" data-name="Path 93" d="M-2714.655,117.189c.527.015.955-.83,1.46-.335.53.519-.121,1.047-.267,1.572a16.781,16.781,0,0,0-.473,1.9.651.651,0,0,1-.68.625A6.548,6.548,0,0,1-2714.655,117.189Z" transform="translate(3286.838 7643.402)" fill="#eb905b"/>
      <path id="Path_94" data-name="Path 94" d="M-2668.871,246.562l.732.068a1.531,1.531,0,0,1-1.228.7C-2669.444,246.892-2669.079,246.775-2668.871,246.562Z" transform="translate(3246.39 7528.066)" fill="#fffefd"/>
      <path id="Path_95" data-name="Path 95" d="M-2589.812,265.967c.022-.274.081-.53.4-.6a.154.154,0,0,1,.2.195c-.067.319-.325.376-.6.4Z" transform="translate(3175.73 7511.369)" fill="#d67851"/>
      <path id="Path_9214" data-name="Path 9214" d="M692.571,7674.049l47.788-27.614-9.739-4.527-47.065,27.04-3.094,9.73Z" fill="#a5c0d6"/>
      <path id="Path_9215" data-name="Path 9215" d="M683.63,7669.193v-8.606l20.787-11.169,31.765-10.839" fill="#7491a5"/>
    </g>
  </g>
</svg>
