<svg xmlns="http://www.w3.org/2000/svg" width="61" height="55.81" viewBox="0 0 61 55.81">
  <g id="Group_5897" data-name="Group 5897" transform="translate(5 -9071.19)">
    <path id="Path_8868" data-name="Path 8868" d="M428.193,9885.4H377.9" transform="translate(-372.193 -807)" fill="none" stroke="#fff" stroke-width="2" stroke-dasharray="2"/>
    <path id="Path_8869" data-name="Path 8869" d="M373,9893.216s.624-7.868,8.789-7.835" transform="translate(-377 -807)" fill="none" stroke="#bebfc1" stroke-width="2" stroke-dasharray="2"/>
    <path id="Path_8870" data-name="Path 8870" d="M0,0H48V11.81H0Z" transform="translate(3 9071.19)" fill="#1aa4df"/>
    <g id="Rectangle_2090" data-name="Rectangle 2090" transform="translate(-5 9086)" fill="none" stroke="#fff" stroke-width="2" stroke-dasharray="2">
      <path d="M0,0H61a0,0,0,0,1,0,0V41a0,0,0,0,1,0,0H8a8,8,0,0,1-8-8V0A0,0,0,0,1,0,0Z" stroke="none"/>
      <path d="M2,1H59a1,1,0,0,1,1,1V39a1,1,0,0,1-1,1H8a7,7,0,0,1-7-7V2A1,1,0,0,1,2,1Z" fill="none"/>
    </g>
    <g id="Rectangle_2091" data-name="Rectangle 2091" transform="translate(36 9097)" fill="none" stroke="#fff" stroke-width="2">
      <rect width="20" height="20" stroke="none"/>
      <rect x="1" y="1" width="18" height="18" fill="none"/>
    </g>
    <g id="Ellipse_46" data-name="Ellipse 46" transform="translate(42 9103)" fill="none" stroke="#fff" stroke-width="2">
      <circle cx="4" cy="4" r="4" stroke="none"/>
      <circle cx="4" cy="4" r="3" fill="none"/>
    </g>
  </g>
</svg>
