<?xml version="1.0" encoding="utf-8"?>
<!-- Generator: Adobe Illustrator 24.2.3, SVG Export Plug-In . SVG Version: 6.00 Build 0)  -->
<svg version="1.0" id="Capa_1" xmlns="http://www.w3.org/2000/svg" xmlns:xlink="http://www.w3.org/1999/xlink" x="0px" y="0px"
	 viewBox="0 0 446.9 446.9" style="enable-background:new 0 0 446.9 446.9;" xml:space="preserve">
<g>
	<path style="fill:#1291C7;stroke:#05425B;stroke-miterlimit:10;" d="M444.3,93.4c-2.6-3.7-6.7-5.9-11.1-6.1L155.9,75.3
		c-8-0.3-14.6,5.8-14.9,13.7c-0.3,7.9,5.8,14.6,13.7,14.9l258.4,11.1l-50.8,158.5H136.2L95.4,51.2c-0.9-4.9-4.2-8.9-8.9-10.8
		L19.6,14.1C12.2,11.3,3.9,14.9,1,22.2c-2.9,7.4,0.7,15.7,8.1,18.6l59.5,23.4l41.6,226.3c1.3,6.8,7.2,11.7,14.1,11.7h6.9L115.4,346
		c-1.3,3.7-0.8,7.7,1.5,10.9c2.2,3.2,5.9,5.1,9.8,5.1h11c-6.8,7.6-11,17.6-11,28.7c0,23.7,19.3,43,43,43s43-19.3,43-43
		c0-11-4.2-21.1-11-28.7h93.8c-6.8,7.6-11,17.6-11,28.7c0,23.7,19.3,43,43,43c23.7,0,43-19.3,43-43c0-11-4.2-21.1-11-28.7h13.4
		c6.6,0,11.9-5.3,11.9-11.9c0-6.6-5.3-11.9-11.9-11.9H143.7l12.9-35.8h216.2c6.2,0,11.8-4,13.7-10l59.7-186.4
		C447.5,101.7,446.8,97,444.3,93.4z M169.7,409.8c-10.5,0-19.1-8.6-19.1-19.1s8.6-19.1,19.1-19.1s19.1,8.6,19.1,19.1
		S180.2,409.8,169.7,409.8z M327.4,409.8c-10.5,0-19.1-8.6-19.1-19.1s8.6-19.1,19.1-19.1s19.1,8.6,19.1,19.1
		S337.9,409.8,327.4,409.8z"/>
</g>
</svg>
