<svg xmlns="http://www.w3.org/2000/svg" width="87" height="72" viewBox="0 0 87 72">
  <g id="Group_5804" data-name="Group 5804" transform="translate(-917 -523)">
    <g id="Group_5340" data-name="Group 5340" transform="translate(579)">
      <rect id="Rectangle_1668" data-name="Rectangle 1668" width="3" height="3" transform="translate(338 552)" fill="#212833"/>
      <rect id="Rectangle_1669" data-name="Rectangle 1669" width="3" height="3" transform="translate(338 546)" fill="#212833"/>
      <rect id="Rectangle_1670" data-name="Rectangle 1670" width="3" height="3" transform="translate(338 540)" fill="#212833"/>
      <rect id="Rectangle_1671" data-name="Rectangle 1671" width="3" height="3" transform="translate(338 534)" fill="#212833"/>
      <rect id="Rectangle_1672" data-name="Rectangle 1672" width="3" height="3" transform="translate(338 528)" fill="#212833"/>
      <rect id="Rectangle_1673" data-name="Rectangle 1673" width="87" height="3" transform="translate(338 523)" fill="#212833"/>
      <rect id="Rectangle_1674" data-name="Rectangle 1674" width="3" height="3" transform="translate(422 552)" fill="#212833"/>
      <rect id="Rectangle_1675" data-name="Rectangle 1675" width="3" height="3" transform="translate(422 546)" fill="#212833"/>
      <rect id="Rectangle_1676" data-name="Rectangle 1676" width="3" height="3" transform="translate(422 540)" fill="#212833"/>
      <rect id="Rectangle_1677" data-name="Rectangle 1677" width="3" height="3" transform="translate(422 534)" fill="#212833"/>
      <rect id="Rectangle_1678" data-name="Rectangle 1678" width="3" height="3" transform="translate(422 528)" fill="#212833"/>
      <g id="Rectangle_1679" data-name="Rectangle 1679" transform="translate(338 557)" fill="none" stroke="#212833" stroke-width="3">
        <rect width="87" height="13" stroke="none"/>
        <rect x="1.5" y="1.5" width="84" height="10" fill="none"/>
      </g>
      <g id="Rectangle_1680" data-name="Rectangle 1680" transform="translate(346 533)" fill="#fff" stroke="#212833" stroke-width="3">
        <rect width="30" height="57" stroke="none"/>
        <rect x="1.5" y="1.5" width="27" height="54" fill="none"/>
      </g>
      <g id="Group_5340-2" data-name="Group 5340" transform="translate(1)">
        <rect id="Rectangle_1665" data-name="Rectangle 1665" width="3" height="3" transform="translate(354 580)" fill="#212833"/>
        <rect id="Rectangle_1666" data-name="Rectangle 1666" width="3" height="3" transform="translate(359 580)" fill="#212833"/>
        <rect id="Rectangle_1667" data-name="Rectangle 1667" width="3" height="3" transform="translate(364 580)" fill="#212833"/>
      </g>
      <circle id="Ellipse_644" data-name="Ellipse 644" cx="16.5" cy="16.5" r="16.5" transform="translate(392 562)" fill="#90dafe"/>
      <rect id="Rectangle_1682" data-name="Rectangle 1682" width="19" height="2" transform="translate(399 578)" fill="#212833"/>
    </g>
  </g>
</svg>
