<svg id="Group_5471" data-name="Group 5471" xmlns="http://www.w3.org/2000/svg" width="68" height="46" viewBox="0 0 68 46">
  <g id="Rectangle_1781" data-name="Rectangle 1781" fill="none" stroke="#1ca4e8" stroke-width="2">
    <rect width="68" height="46" rx="3" stroke="none"/>
    <rect x="1" y="1" width="66" height="44" rx="2" fill="none"/>
  </g>
  <g id="Group_5476" data-name="Group 5476" transform="translate(24 13)">
    <path id="Path_8593" data-name="Path 8593" d="M2382.675,26.672v-1.36c-.28,0-.54.014-.8,0a2,2,0,0,1-1.9-1.983q-.023-1.437,0-2.875a2,2,0,0,1,1.9-1.9q1.507-.025,3.015,0a1.982,1.982,0,0,1,1.832,1.75c.037,1.064.038,2.13,0,3.194a1.973,1.973,0,0,1-1.795,1.807c-.286.021-.575,0-.9,0v1.367l.005,0h-1.373Zm.681-6.776v0c-.442,0-.885,0-1.327,0a.64.64,0,0,0-.7.683q-.011,1.337,0,2.674a.665.665,0,0,0,.721.711q1.307.006,2.614,0a.683.683,0,0,0,.737-.743q.007-1.3,0-2.594a.674.674,0,0,0-.739-.734C2384.227,19.894,2383.791,19.9,2383.356,19.9Z" transform="translate(-2379.968 -18.538)" fill="#1ca4e8"/>
    <path id="Path_8594" data-name="Path 8594" d="M2687.7,26.667h-1.382V25.332c-.275,0-.528.006-.78,0a2.026,2.026,0,0,1-1.934-2c-.008-.965-.019-1.931.015-2.895a1.978,1.978,0,0,1,1.926-1.869q1.468-.021,2.936,0a2,2,0,0,1,1.893,1.886q.025,1.508,0,3.016a2.014,2.014,0,0,1-1.781,1.849c-.293.019-.588,0-.894,0,0,.474,0,.912,0,1.351Zm-.682-6.752v0c-.449,0-.9,0-1.347,0a.667.667,0,0,0-.718.715q-.007,1.317,0,2.634a.677.677,0,0,0,.737.721q1.3.006,2.594,0a.672.672,0,0,0,.743-.713q.016-1.337,0-2.674a.639.639,0,0,0-.7-.681C2687.894,19.912,2687.458,19.915,2687.022,19.915Z" transform="translate(-2671.388 -18.553)" fill="#1ca4e8"/>
    <path id="Path_8595" data-name="Path 8595" d="M2383.388,322.26h1.227a2.026,2.026,0,0,1,2.171,2.077c.025.951.014,1.9-.019,2.854a1.986,1.986,0,0,1-1.911,1.842c-.979.013-1.958.018-2.935,0a2,2,0,0,1-1.908-1.912q-.025-1.5,0-3a2,2,0,0,1,1.786-1.842c.528-.027,1.058,0,1.587,0Zm-2.028,3.392h0c0,.429,0,.858,0,1.287a.659.659,0,0,0,.719.748q1.307.017,2.613,0a.682.682,0,0,0,.739-.76q0-1.277,0-2.553a.692.692,0,0,0-.758-.762q-1.277,0-2.554,0a.681.681,0,0,0-.762.752C2381.357,324.794,2381.36,325.223,2381.36,325.651Z" transform="translate(-2380 -310.044)" fill="#1ca4e8"/>
    <path id="Path_8596" data-name="Path 8596" d="M2550.383,254.9h1.361v1.351h2.707v1.345h-5.4v-1.336h1.333Z" transform="translate(-2542.249 -245.392)" fill="#1ca4e8"/>
    <path id="Path_8597" data-name="Path 8597" d="M2553.094,190.4v-1.347h-4.064v-1.338h5.41V190.4Z" transform="translate(-2542.23 -180.91)" fill="#1ca4e8"/>
    <path id="Path_8598" data-name="Path 8598" d="M2583.978,55.349h-1.363V54h1.345V52.648h1.355V56.7h-1.337Z" transform="translate(-2574.464 -51.276)" fill="#1ca4e8"/>
    <path id="Path_8599" data-name="Path 8599" d="M2582.6,356.14h1.34V360.2h-1.34Z" transform="translate(-2574.446 -342.562)" fill="#1ca4e8"/>
    <path id="Path_8600" data-name="Path 8600" d="M2481.138,220.676h1.352v1.363h-1.353l.006.006q0-.687,0-1.373Z" transform="translate(-2477.069 -212.541)" fill="#1ca4e8"/>
    <path id="Path_8601" data-name="Path 8601" d="M2448.495,254.663v1.353h-1.362v-1.352l-.006.005h1.374Z" transform="translate(-2444.426 -245.166)" fill="#1ca4e8"/>
    <path id="Path_8602" data-name="Path 8602" d="M2752.523,254.961l-.011,1.362.005-.006h-1.373l.006.006v-1.356h1.379Z" transform="translate(-2736.215 -245.452)" fill="#1ca4e8"/>
    <path id="Path_8603" data-name="Path 8603" d="M2752.844,391.45l-1.356.012.005,0V390.1h1.345v1.36Z" transform="translate(-2736.544 -375.152)" fill="#1ca4e8"/>
    <path id="Path_8604" data-name="Path 8604" d="M2785.432,221.689q0-.7,0-1.4l0,0,1.06.021c.08,0,.16,0,.259,0v1.37h-1.324Z" transform="translate(-2769.118 -212.173)" fill="#1ca4e8"/>
    <path id="Path_8605" data-name="Path 8605" d="M2719.032,290.055h-1.351v-1.362h1.352l-.006-.006v1.374Z" transform="translate(-2704.098 -277.821)" fill="#1ca4e8"/>
    <path id="Path_8606" data-name="Path 8606" d="M2785.148,288.694h1.352c0,.424,0,.843-.006,1.261,0,.03-.093.083-.143.084-.314.007-.629,0-.943,0-.086,0-.173.01-.259.015l.005.006v-1.374Z" transform="translate(-2768.852 -277.823)" fill="#1ca4e8"/>
    <path id="Path_8607" data-name="Path 8607" d="M2718.108,424.052v1.329h-1.4v-1.324l0,0,1.4,0Z" transform="translate(-2703.165 -407.742)" fill="#1ca4e8"/>
    <path id="Path_8608" data-name="Path 8608" d="M2785.076,423.769h1.357c0,.183,0,.366,0,.549,0,.22,0,.441-.008.661,0,.046-.064.127-.1.128-.406.009-.813.006-1.243.006v-1.349Z" transform="translate(-2768.782 -407.465)" fill="#1ca4e8"/>
    <path id="Path_8609" data-name="Path 8609" d="M2685.4,391.38l-1.06-.022c-.08,0-.159,0-.255,0v-1.351h1.313c0,.462,0,.919,0,1.376Z" transform="translate(-2671.853 -375.065)" fill="#1ca4e8"/>
    <path id="Path_8610" data-name="Path 8610" d="M2415.444,222.028h-1.334v-1.364h1.333l-.006,0q0,.687,0,1.374Z" transform="translate(-2412.737 -212.531)" fill="#1ca4e8"/>
    <path id="Path_8611" data-name="Path 8611" d="M2752.507,322.707v1.318h-1.363v-1.318l-.005.005h1.374Z" transform="translate(-2736.21 -310.473)" fill="#1ca4e8"/>
    <path id="Path_8612" data-name="Path 8612" d="M2449.023,87.655h-1.338V86.316h1.338Z" transform="translate(-2444.961 -83.59)" fill="#1ca4e8"/>
    <path id="Path_8613" data-name="Path 8613" d="M2752.927,87.483h-1.334V86.137h1.334Z" transform="translate(-2736.646 -83.418)" fill="#1ca4e8"/>
    <path id="Path_8614" data-name="Path 8614" d="M2447.513,391.409V390.07h1.34v1.339Z" transform="translate(-2444.796 -375.127)" fill="#1ca4e8"/>
  </g>
</svg>
