<svg xmlns="http://www.w3.org/2000/svg" width="74.53" height="76.981" viewBox="0 0 74.53 76.981">
  <g id="Group_5487" data-name="Group 5487" transform="translate(-1486.659 -522.219)">
    <path id="Path_8616" data-name="Path 8616" d="M2452.209,106.374a17.509,17.509,0,0,1,.642-1.79,5.761,5.761,0,0,1,4.949-3.473c.372-.033.746-.053,1.234-.087.024-.438.064-.838.065-1.237.005-3.07,0-6.14.005-9.21.008-2.724,1.321-4.031,4.056-4.032q13.983-.008,27.967,0c2.653,0,3.963,1.32,3.979,3.991.014,2.16,0,4.321,0,6.481v.944c1.665,0,3.262-.3,4.688.066a5.553,5.553,0,0,1,4.232,5.086c1.019,8.912,2.034,17.825,2.9,26.752a78.388,78.388,0,0,1,.086,8.635,6.463,6.463,0,0,0,2.07,4.955c5.528,5.459,11,10.975,16.488,16.473a6.714,6.714,0,0,1,.834.927,1.558,1.558,0,0,1-.227,2.159,1.627,1.627,0,0,1-2.181.164,5.5,5.5,0,0,1-.832-.768c-5.413-5.411-10.824-10.823-16.344-16.342l-17.694,11.8c.973.916,1.845,1.7,2.669,2.523a1.726,1.726,0,1,1-2.4,2.436c-2.453-2.424-4.908-4.846-7.32-7.311a7.35,7.35,0,0,0-5.377-2.292,9.021,9.021,0,0,1-6.179-2.48c-1.855-1.731-3.6-3.581-5.435-5.334a2.316,2.316,0,0,0-1.346-.641c-3.625-.173-4.63-1.177-4.642-4.767,0-.376,0-.751,0-1.171a5.988,5.988,0,0,0-.711-.126c-3.272-.159-5.18-1.743-6-4.983a1.059,1.059,0,0,0-.179-.277v-1.365l1.546-3.623c-.512-1.21-1.029-2.432-1.546-3.655v-1.365c.54-1.213,1.08-2.426,1.574-3.534l-1.574-3.517v-1.365l1.549-3.7-1.549-3.578Zm10.485-16.349v51.143H2491.5V90.025Zm41.535,53.616c-.227-2.16-.5-4.011-.6-5.87-.161-3.1-.048-6.216-.334-9.3-.636-6.856-1.448-13.7-2.188-20.542-.151-1.392-.3-2.784-.459-4.175a2.79,2.79,0,0,0-2.878-2.63,2.7,2.7,0,0,0-2.65,2.819c-.018.378-.01.758-.01,1.136q0,17.675,0,35.351c0,3.018-1.282,4.306-4.276,4.306q-10,0-20,0c-.392,0-.786.034-1.511.067a38.474,38.474,0,0,0,4.13,3.782,7.291,7.291,0,0,0,3.581,1.177,10.6,10.6,0,0,1,7.471,3.309c.723.757,1.438,1.522,2.152,2.279Zm-45.191-30.506a2.648,2.648,0,0,0-2.921,1.211,2.413,2.413,0,0,0,.091,2.688,2.782,2.782,0,0,0,2.83,1.116Zm.021,8.523a2.667,2.667,0,0,0-2.971,1.306,2.381,2.381,0,0,0,.229,2.765,2.482,2.482,0,0,0,2.741.849Zm-.017,8.607a2.586,2.586,0,0,0-2.933,1.206,2.387,2.387,0,0,0,.112,2.677,2.594,2.594,0,0,0,2.821,1.049Zm-.006-20.741v-4.909a2.535,2.535,0,0,0-2.823,1.036,2.373,2.373,0,0,0-.1,2.674A2.568,2.568,0,0,0,2459.036,109.524Z" transform="translate(-965.55 435.678)" fill="#1ba4e8"/>
    <path id="Path_8617" data-name="Path 8617" d="M2521.5,169.173a6.873,6.873,0,0,1,9.519-9.867c2.329,1.967,3.78,5.928.7,9.925.232.178.458.364.7.533a10.3,10.3,0,0,1,4.5,8.269c.056,1.1.034,2.2.01,3.3-.032,1.39-.656,2.032-2.02,2.036q-8.3.019-16.6,0c-1.174,0-1.945-.56-1.946-1.613a34.278,34.278,0,0,1,.3-5.879,9.446,9.446,0,0,1,4.092-6.064c.214-.154.433-.3.646-.459C2521.428,169.332,2521.438,169.289,2521.5,169.173Zm-1.62,10.727h13.456c.348-2.948-.294-5.474-2.8-7.21a6.468,6.468,0,0,0-7.362-.295C2520.344,174.037,2519.565,176.684,2519.881,179.9Zm10.1-15.288a3.363,3.363,0,1,0-6.726-.109,3.363,3.363,0,1,0,6.726.109Z" transform="translate(-1015.064 380.75)" fill="#1ba4e8"/>
  </g>
</svg>
