<svg xmlns="http://www.w3.org/2000/svg" width="18" height="18" viewBox="0 0 18 18">
  <g id="Group_8032" data-name="Group 8032" transform="translate(-154 -544)">
    <path id="Path_8719" data-name="Path 8719" d="M172,544a8.853,8.853,0,0,1-.33,2.407h-4.38c.071-.782.1-1.594.1-2.407s-.03-1.615-.1-2.407h4.382A8.892,8.892,0,0,1,172,544Zm-4.927-4.207a15.119,15.119,0,0,0-1.265-4.35,9.015,9.015,0,0,1,5.143,4.35Zm0,8.414h3.878a9.015,9.015,0,0,1-5.143,4.35A15.119,15.119,0,0,0,167.073,548.207Zm-1.583-6.614c.06.74.1,1.543.1,2.407s-.041,1.656-.1,2.407h-4.978q-.1-1.2-.1-2.407c0-.854.041-1.656.1-2.407h4.979Zm-.248-1.8h-4.484c.493-2.931,1.46-4.587,2.108-4.793h.268C163.782,535.206,164.749,536.862,165.242,539.793Zm0,8.414c-.493,2.931-1.46,4.587-2.108,4.793h-.268c-.648-.206-1.615-1.862-2.108-4.793Zm-5.05-12.765a15.135,15.135,0,0,0-1.265,4.351h-3.878a9.015,9.015,0,0,1,5.143-4.35Zm-1.265,12.765a15.119,15.119,0,0,0,1.265,4.35,9.015,9.015,0,0,1-5.143-4.35Zm-.217-1.8h-4.38a8.943,8.943,0,0,1,0-4.814h4.38c-.07.8-.1,1.6-.1,2.407s.03,1.615.1,2.407Z" transform="translate(0 9)" fill="#848e9c"/>
  </g>
</svg>
