<svg xmlns="http://www.w3.org/2000/svg" width="16.9" height="17" viewBox="0 0 16.9 17">
  <g id="Group_8031" data-name="Group 8031" transform="translate(-154.5 -307.5)">
    <path id="Path_8736" data-name="Path 8736" d="M154.5,310.5h5v2h-3v3h-2Zm16.9,12v5h-5v-2h3v-3Zm-11-5.8a4.9,4.9,0,1,0,4.9,4.9A4.908,4.908,0,0,0,160.4,316.7Zm0,2a2.9,2.9,0,1,1-2.9,2.9A2.9,2.9,0,0,1,160.4,318.7Zm5.1-7.2a4.879,4.879,0,0,0-4.6,3.2,4.552,4.552,0,0,1,2,.5,2.979,2.979,0,0,1,2.6-1.7,2.9,2.9,0,0,1,2.9,2.9,2.761,2.761,0,0,1-1.7,2.6,6.529,6.529,0,0,1,.5,2,4.879,4.879,0,0,0,3.2-4.6A4.784,4.784,0,0,0,165.5,311.5Z" transform="translate(0 -3)" fill="#848e9c"/>
  </g>
</svg>
