<svg xmlns="http://www.w3.org/2000/svg" width="18" height="13" viewBox="0 0 18 13">
  <g id="Group_8024" data-name="Group 8024" transform="translate(7318 -645)">
    <path id="Path_8757" data-name="Path 8757" d="M544.715,288.012h-8.176v-.676a1.353,1.353,0,0,1,1.373-1.312h5.429a1.354,1.354,0,0,1,1.373,1.312v.676Zm-1.373-3.975h-5.43a3.371,3.371,0,0,0-3.436,3.3V290h12.3v-2.664a3.373,3.373,0,0,0-3.437-3.3Zm-2.715-1.173a2.934,2.934,0,1,0-3.044-2.932A2.99,2.99,0,0,0,540.627,282.864Zm9.4,2.445h-2.064v-2.346H545.52v-1.987h2.446V278.62h2.064v2.356h2.446v1.987H550.03Z" transform="translate(-7852.477 368)" fill="#fff" opacity="0.6"/>
  </g>
</svg>
