<svg xmlns="http://www.w3.org/2000/svg" width="16.89" height="16.89" viewBox="0 0 16.89 16.89">
  <g id="Group_8026" data-name="Group 8026" transform="translate(-154.12 -27.601)">
    <g id="wallet" transform="translate(150.32 23.801)" fill="#848e9c">
      <path d="M 18.42853355407715 20.58969306945801 L 6.061213970184326 20.58969306945801 C 4.869513988494873 20.58969306945801 3.900003910064697 19.62017440795898 3.900003910064697 18.42847442626953 L 3.900003910064697 12.71718311309814 L 3.900003910064697 8.981223106384277 C 3.900003910064697 7.99932336807251 4.566373825073242 7.138443470001221 5.520493984222412 6.887703418731689 L 16.68537330627441 3.94619345664978 C 16.7960147857666 3.917093515396118 16.91248321533203 3.901533365249634 17.03158378601074 3.899953365325928 L 17.0504035949707 3.899823427200317 C 17.85163307189941 3.899823427200317 18.52853393554688 4.574963569641113 18.52853393554688 5.374093532562256 L 18.52853393554688 6.74824333190918 L 18.52853393554688 6.848243713378906 L 18.42853355407715 6.848243713378906 L 17.05438423156738 6.848243713378906 L 16.95438385009766 6.848243713378906 L 16.95438385009766 6.74824333190918 L 16.95438385009766 5.50388240814209 L 10.01021575927734 7.335313320159912 L 18.42853355407715 7.335313320159912 C 19.6202335357666 7.335313320159912 20.58974456787109 8.30483341217041 20.58974456787109 9.496533393859863 L 20.58974456787109 18.42847442626953 C 20.58974456787109 19.62017440795898 19.6202335357666 20.58969306945801 18.42853355407715 20.58969306945801 Z M 6.061213970184326 8.909453392028809 C 5.726533889770508 8.909453392028809 5.474143981933594 9.161843299865723 5.474143981933594 9.496533393859863 L 5.474143981933594 18.42847442626953 C 5.474143981933594 18.76316261291504 5.726533889770508 19.01555442810059 6.061213970184326 19.01555442810059 L 18.42853355407715 19.01555442810059 C 18.76321411132812 19.01555442810059 19.01560401916504 18.76316261291504 19.01560401916504 18.42847442626953 L 19.01560401916504 9.496533393859863 C 19.01560401916504 9.161843299865723 18.76321411132812 8.909453392028809 18.42853355407715 8.909453392028809 L 6.061213970184326 8.909453392028809 Z M 15.71085357666016 15.09311389923096 C 15.08742427825928 15.09311389923096 14.58023357391357 14.58592319488525 14.58023357391357 13.96250343322754 C 14.58023357391357 13.33908367156982 15.08742427825928 12.83189392089844 15.71085357666016 12.83189392089844 C 16.33426475524902 12.83189392089844 16.84145355224609 13.33908367156982 16.84145355224609 13.96250343322754 C 16.84145355224609 14.58592319488525 16.33426475524902 15.09311389923096 15.71085357666016 15.09311389923096 Z" stroke="none"/>
      <path d="M 17.05040740966797 3.999828338623047 C 17.04456329345703 3.999826431274414 17.03876686096191 3.999866485595703 17.03291320800781 3.999942779541016 C 16.92752456665039 4.0013427734375 16.81766510009766 4.014793395996094 16.71085357666016 4.042882919311523 L 5.545913696289062 6.98442268371582 C 4.643484115600586 7.221572875976562 4.000003814697266 8.048282623291016 4.000003814697266 8.981223106384277 L 4.000003814697266 12.71718311309814 L 4.000003814697266 18.42847442626953 C 4.000003814697266 19.55869293212891 4.931003570556641 20.48969268798828 6.061214447021484 20.48969268798828 L 18.42853355407715 20.48969268798828 C 19.55874443054199 20.48969268798828 20.48974418640137 19.55869293212891 20.48974418640137 18.42847442626953 L 20.48974418640137 9.496533393859863 C 20.48974418640137 8.366313934326172 19.55874443054199 7.435314178466797 18.42853355407715 7.435314178466797 L 9.238933563232422 7.435314178466797 L 17.05438423156738 5.374094009399414 L 17.05438423156738 6.74824333190918 L 18.42853355407715 6.74824333190918 L 18.42853355407715 5.374094009399414 C 18.42853355407715 4.607048034667969 17.78096199035645 3.999855041503906 17.05040740966797 3.999828338623047 M 18.42853355407715 19.11555290222168 L 6.061214447021484 19.11555290222168 C 5.673004150390625 19.11555290222168 5.374143600463867 18.81669235229492 5.374143600463867 18.42847442626953 L 5.374143600463867 9.496533393859863 C 5.374143600463867 9.10831356048584 5.673004150390625 8.809453010559082 6.061214447021484 8.809453010559082 L 18.42853355407715 8.809453010559082 C 18.81674385070801 8.809453010559082 19.11560440063477 9.10831356048584 19.11560440063477 9.496533393859863 L 19.11560440063477 18.42847442626953 C 19.11560440063477 18.81669235229492 18.81674385070801 19.11555290222168 18.42853355407715 19.11555290222168 M 15.71085357666016 12.93189334869385 C 15.1416540145874 12.93189334869385 14.6802339553833 13.39331340789795 14.6802339553833 13.96250343322754 C 14.6802339553833 14.53169345855713 15.1416540145874 14.99311351776123 15.71085357666016 14.99311351776123 C 16.28003311157227 14.99311351776123 16.741455078125 14.53169345855713 16.741455078125 13.96250343322754 C 16.741455078125 13.39331340789795 16.28003311157227 12.93189334869385 15.71085357666016 12.93189334869385 M 17.0504035949707 3.799823760986328 L 17.0504150390625 3.799823760986328 C 17.90584373474121 3.799863815307617 18.6285343170166 4.520784378051758 18.6285343170166 5.374094009399414 L 18.6285343170166 6.74824333190918 L 18.6285343170166 6.948244094848633 L 18.42853355407715 6.948244094848633 L 17.05438423156738 6.948244094848633 L 16.85438346862793 6.948244094848633 L 16.85438346862793 6.74824333190918 L 16.85438346862793 5.633682250976562 L 10.78153610229492 7.235313415527344 L 18.42853355407715 7.235313415527344 C 19.67537307739258 7.235313415527344 20.68974304199219 8.249692916870117 20.68974304199219 9.496533393859863 L 20.68974304199219 18.42847442626953 C 20.68974304199219 19.67531394958496 19.67537307739258 20.68969345092773 18.42853355407715 20.68969345092773 L 6.061214447021484 20.68969345092773 C 4.814374923706055 20.68969345092773 3.800003051757812 19.67531394958496 3.800003051757812 18.42847442626953 L 3.800003051757812 12.71718311309814 L 3.800003051757812 8.981223106384277 C 3.800003051757812 7.953924179077148 4.497043609619141 7.053262710571289 5.495084762573242 6.790992736816406 L 16.65990447998047 3.849483489990234 C 16.7784538269043 3.818304061889648 16.90302467346191 3.801652908325195 17.03025436401367 3.799962997436523 L 17.0504035949707 3.799823760986328 Z M 18.42853355407715 18.91555404663086 C 18.70621490478516 18.91555404663086 18.91560363769531 18.70615386962891 18.91560363769531 18.42847442626953 L 18.91560363769531 9.496533393859863 C 18.91560363769531 9.218853950500488 18.70621490478516 9.009453773498535 18.42853355407715 9.009453773498535 L 6.061214447021484 9.009453773498535 C 5.783533096313477 9.009453773498535 5.57414436340332 9.218853950500488 5.57414436340332 9.496533393859863 L 5.57414436340332 18.42847442626953 C 5.57414436340332 18.70615386962891 5.783533096313477 18.91555404663086 6.061214447021484 18.91555404663086 L 18.42853355407715 18.91555404663086 Z M 15.71085357666016 12.73189353942871 C 16.38941383361816 12.73189353942871 16.94145393371582 13.28394317626953 16.94145393371582 13.96250343322754 C 16.94145393371582 14.64106369018555 16.38941383361816 15.19311332702637 15.71085357666016 15.19311332702637 C 15.03228378295898 15.19311332702637 14.48023414611816 14.64106369018555 14.48023414611816 13.96250343322754 C 14.48023414611816 13.28394317626953 15.03228378295898 12.73189353942871 15.71085357666016 12.73189353942871 Z" stroke="none" fill="#848e9c"/>
    </g>
  </g>
</svg>
