<?xml version="1.0" encoding="utf-8"?>
<!-- Generator: Adobe Illustrator 24.2.3, SVG Export Plug-In . SVG Version: 6.00 Build 0)  -->
<svg version="1.0" id="katman_1" xmlns="http://www.w3.org/2000/svg" xmlns:xlink="http://www.w3.org/1999/xlink" x="0px" y="0px"
	 viewBox="0 0 128 128" style="enable-background:new 0 0 128 128;" xml:space="preserve">
<g id="XMLID_100_">
	<path id="XMLID_101_" style="fill:#1291C7;stroke:#05425B;stroke-miterlimit:10;" d="M80.6,11.6H47.4c-8.6,0-15.6,7-15.6,15.6v3.6
		H14c-6.8,0-12.3,5.5-12.3,12.3v60.9c0,6.8,5.5,12.3,12.3,12.3h22.9H114c6.8,0,12.3-5.5,12.3-12.3V43.1c0-6.8-5.5-12.3-12.3-12.3
		H96.2v-3.6C96.2,18.6,89.2,11.6,80.6,11.6z M52.1,111h-3.5V34.6h3.5V111z M73.3,111H54.7V34.6h18.7V111z M79.4,111h-3h-0.5V34.6
		h0.5h3V111z M81.4,30.8H46.7v-3.6c0-0.4,0.3-0.7,0.7-0.7h33.3c0.4,0,0.7,0.3,0.7,0.7V30.8z M114,35.9c4,0,7.3,3.3,7.3,7.3v60.9
		c0,4-3.3,7.3-7.3,7.3H81.9V35.9h2c1.4,0,2.5-1.1,2.5-2.5v-6.1c0-3.2-2.6-5.8-5.8-5.8H47.4c-3.2,0-5.8,2.6-5.8,5.8v6.1
		c0,1.4,1.1,2.5,2.5,2.5h2v75.5H14c-4,0-7.3-3.3-7.3-7.3V43.1c0-4,3.3-7.3,7.3-7.3h20.4c1.4,0,2.5-1.1,2.5-2.5v-6.1
		c0-5.8,4.7-10.5,10.5-10.5h33.3c5.8,0,10.5,4.7,10.5,10.5v6.1c0,1.4,1.1,2.5,2.5,2.5H114z"/>
</g>
</svg>
