<?xml version="1.0" encoding="utf-8"?>
<!-- Generator: Adobe Illustrator 24.2.3, SVG Export Plug-In . SVG Version: 6.00 Build 0)  -->
<svg version="1.0" id="katman_1" xmlns="http://www.w3.org/2000/svg" xmlns:xlink="http://www.w3.org/1999/xlink" x="0px" y="0px"
	 viewBox="0 0 128 128" style="enable-background:new 0 0 128 128;" xml:space="preserve">
<g id="XMLID_157_">
	<path id="XMLID_167_" style="fill:#1291C7;stroke:#05425B;stroke-miterlimit:10;" d="M18.9,49.1h50.8c0.8,0,1.5-0.7,1.5-1.5
		c0-0.8-0.7-1.5-1.5-1.5H18.9c-0.8,0-1.5,0.7-1.5,1.5C17.4,48.4,18.1,49.1,18.9,49.1z"/>
	<path id="XMLID_166_" style="fill:#1291C7;stroke:#05425B;stroke-miterlimit:10;" d="M69.7,87.7H18.9c-0.8,0-1.5,0.7-1.5,1.5
		c0,0.8,0.7,1.5,1.5,1.5h50.8c0.8,0,1.5-0.7,1.5-1.5C71.2,88.4,70.5,87.7,69.7,87.7z"/>
	<path id="XMLID_159_" style="fill:#1291C7;stroke:#05425B;stroke-miterlimit:10;" d="M122.6,20.2c0,0-0.1-0.1-0.1-0.1
		c-2-2-4.1-3-6.4-2.9c-3.6,0-6.1,2.5-6.3,2.7L90.1,39.5c-0.3,0.3-0.4,0.7-0.4,1.1c0,0.1,0,0.3,0.1,0.4l-1.2,1.2l-0.5-0.5L86,43.6
		V16.7H2.6v94.5H86V69.5l15-15l-0.5-0.5l1.2-1.2c0.1,0,0.3,0.1,0.4,0.1c0.4,0,0.8-0.1,1.1-0.4l19.3-19.3c0.1-0.1,2.9-2.8,3-6.6
		C125.4,24.2,124.5,22.1,122.6,20.2z M83,72.5v35.7H5.6V19.8H83v26.9L66.1,63.5l1.2,1.2l-0.4,2.4h-48c-0.8,0-1.5,0.7-1.5,1.5
		c0,0.8,0.7,1.5,1.5,1.5h47.5l-1.3,7.4l12.8-2.2l1.2,1.2L83,72.5l1.5-1.5L83,72.5z M69.1,76l-2.8,0.5l-0.2,0l0.5-3l0.7,0.7l1.4-8.2
		l7.9,7.9l-8.2,1.4L69.1,76z M79.1,72.2l-8.7-8.7l17.7-17.7l8.7,8.7L79.1,72.2z M98.9,53.4l-9.7-9.7l1-1l9.7,9.7L98.9,53.4z
		 M120.3,30.9L102,49.2l-8.7-8.7L111.9,22c0,0,0,0,0,0c0,0,1.8-1.8,4.2-1.8c1.5,0,2.9,0.7,4.3,2c0,0,0.1,0.1,0.1,0.1
		c1.3,1.3,1.9,2.7,1.9,4.1C122.4,28.9,120.3,30.9,120.3,30.9z"/>
	<path id="XMLID_158_" style="fill:#1291C7;stroke:#05425B;stroke-miterlimit:10;" d="M90.1,35.6c0.5,0.5,1.4,0.5,1.9,0l13.9-13.9
		c0.5-0.5,0.5-1.4,0-1.9l0,0c-0.5-0.5-1.4-0.5-1.9,0L90.1,33.7C89.6,34.2,89.6,35.1,90.1,35.6L90.1,35.6z"/>
</g>
</svg>
