<?xml version="1.0" encoding="utf-8"?>
<!-- Generator: Adobe Illustrator 24.2.3, SVG Export Plug-In . SVG Version: 6.00 Build 0)  -->
<svg version="1.1" id="fc79b5bc-c9e7-4920-afb5-9e44c6b9f053"
	 xmlns="http://www.w3.org/2000/svg" xmlns:xlink="http://www.w3.org/1999/xlink" x="0px" y="0px" viewBox="0 0 841 595"
	 style="enable-background:new 0 0 841 595;" xml:space="preserve">
<style type="text/css">
	.st0{fill-rule:evenodd;clip-rule:evenodd;fill:#004187;}
	.st1{fill:#004187;}
	.st2{fill:#009CDE;}
	.st3{opacity:0.5;}
	.st4{fill:#134383;}
	.st5{fill:#004186;}
</style>
<path class="st0" d="M195.2,308h25.1v-9h-23.5c-5.3-0.1-9.5-4.6-9.4-9.9c0.1-5,4-9,8.9-9.4c0.3,0,18.8,0,24,0v-9
	c-6.5,0-25.4,0-25.8,0c-9.4,0.6-16.9,9-16.9,18.5C177.6,299.1,185.4,307.7,195.2,308z"/>
<path class="st1" d="M252.9,298.6H241c-5.1,0-9.2-4.1-9.3-9.2c0-4.9,3.9-9,8.8-9.3c0.2,0,12.6,0,12.8,0c5.1,0.2,9,4.6,8.8,9.6
	C261.9,294.7,257.8,298.6,252.9,298.6L252.9,298.6z M254.8,270.8c-0.4,0-15.3,0-15.8,0c-9.4,0.6-16.9,9-16.9,18.6
	c0,9.8,7.8,18.4,17.6,18.6h14.4c9.7-0.2,17.6-8.8,17.6-18.6C271.7,279.8,264.2,271.4,254.8,270.8z"/>
<polygon class="st1" points="514.9,299 485.3,299 485.3,270.8 475.6,270.8 475.6,308 514.9,308 "/>
<polygon class="st1" points="320.6,308 330.4,308 330.4,270.8 320.6,270.8 320.6,293.9 298.2,270.8 288,270.8 288,307.9 
	297.8,307.9 297.8,284.8 "/>
<rect x="275" y="270.8" class="st1" width="9.8" height="37.2"/>
<polygon class="st1" points="359.9,308 359.9,279.7 376.3,279.7 376.3,270.8 333.7,270.8 333.7,279.7 350.1,279.7 350.1,308 "/>
<path class="st1" d="M389.4,279.8h19.2c2.9,0,5.2,2.3,5.2,5.1c0,0,0,0,0,0.1c0,2.9-2.3,4.2-5.2,4.2h-19.2V279.8z M389.4,299h10.4
	l8.9,9h13.7l-9.6-9.7c7.4-2.5,11.4-10.5,8.9-17.8c-1.9-5.7-7.1-9.5-13.1-9.6h-28.9V308h9.8V299z"/>
<path class="st1" d="M448.9,280.1l4.8,9.2h-9.6L448.9,280.1z M439.4,299.4h19l4.5,8.6H474l-19.5-37.2h-11.2L423.7,308h11.1
	L439.4,299.4z"/>
<path class="st0" d="M518.7,305.6h0.4c0.1,0,0.1,0,0.1,0c0,0,0.1,0.1,0.1,0.2c0,0,0,0.1,0,0.1c0,0,0,0-0.1,0.1c0,0,0,0-0.1,0h-0.5
	V305.6z M518.7,306.9v-0.5h0.2l0.2,0.2c0.1,0.1,0.1,0.1,0.2,0.2h0.5l-0.2-0.3c-0.1-0.1-0.1-0.2-0.2-0.3c0.1,0,0.2-0.1,0.2-0.2
	c0.1-0.1,0.1-0.2,0.1-0.3c0-0.2-0.1-0.3-0.2-0.5c-0.1-0.1-0.3-0.2-0.4-0.2h-0.8v1.7L518.7,306.9z M519,304.6c-0.2,0-0.4,0-0.6,0.1
	c-0.2,0.1-0.3,0.2-0.5,0.3c-0.1,0.1-0.2,0.3-0.3,0.5c-0.1,0.2-0.1,0.4-0.1,0.5c0,0.4,0.2,0.7,0.4,1c0.1,0.1,0.3,0.2,0.5,0.3
	c0.2,0.1,0.4,0.1,0.6,0.1c0.2,0,0.4,0,0.6-0.1c0.2-0.1,0.3-0.2,0.5-0.3c0.3-0.3,0.4-0.6,0.4-1c0-0.2,0-0.4-0.1-0.5
	c-0.1-0.3-0.4-0.6-0.8-0.8C519.3,304.6,519.1,304.6,519,304.6L519,304.6z M519,308c-0.3,0-0.5-0.1-0.8-0.1c-0.2-0.1-0.4-0.2-0.6-0.4
	c-0.2-0.2-0.3-0.4-0.4-0.6c-0.3-0.7-0.1-1.5,0.4-2.1c0.2-0.2,0.4-0.3,0.6-0.4c0.2-0.1,0.5-0.2,0.8-0.2c0.3,0,0.5,0.1,0.8,0.2
	c0.2,0.1,0.4,0.2,0.6,0.4c0.2,0.2,0.3,0.4,0.4,0.6c0.2,0.5,0.2,1,0,1.5c-0.1,0.2-0.2,0.4-0.4,0.6c-0.2,0.2-0.4,0.3-0.6,0.4
	C519.5,307.9,519.2,308,519,308L519,308z"/>
<path class="st1" d="M148.4,274.8l8.4-8.4c0.7-0.7,1.8-0.7,2.5,0l8.4,8.4c0.7,0.7,0.7,1.8,0,2.5l-8.4,8.4c-0.7,0.7-1.8,0.7-2.5,0
	l-8.4-8.4C147.7,276.6,147.7,275.4,148.4,274.8z"/>
<path class="st2" d="M134.7,288.4l8.4-8.4c0.7-0.7,1.8-0.7,2.5,0l8.4,8.4c0.7,0.7,0.7,1.8,0,2.5l-8.4,8.4c-0.7,0.7-1.8,0.7-2.5,0
	l-8.4-8.4C134,290.2,134,289.1,134.7,288.4z"/>
<path class="st1" d="M148.4,302.1l8.4-8.4c0.7-0.7,1.8-0.7,2.5,0l8.4,8.4c0.7,0.7,0.7,1.8,0,2.5l-8.4,8.4c-0.7,0.7-1.8,0.7-2.5,0
	l-8.4-8.4C147.7,304,147.7,302.8,148.4,302.1z"/>
<g class="st3">
	<path class="st4" d="M536.6,308.5h-1.2v-37.5h1.2V308.5z"/>
</g>
<g>
	
		<image style="overflow:visible;" width="2030" height="799" xlink:href="93860A5D1009B15A.png"  transform="matrix(0.1112 0 0 0.1112 -439.9969 -80.7265)">
	</image>
	
		<text transform="matrix(1 0 0 1 -214.3517 -23.313)" style="opacity:0.5;fill:#004186; font-family:'Roboto-Thin'; font-size:44.51px;">|</text>
	<text transform="matrix(1 0 0 1 -199.708 -28.6236)" class="st5" style="font-family:'Roboto-Regular'; font-size:25px;">Cash</text>
</g>
<g>
	
		<image style="overflow:visible;" width="2030" height="799" xlink:href="93860A5D1009B15E.png"  transform="matrix(0.1112 0 0 0.1112 -439.9969 8.0864)">
	</image>
	
		<text transform="matrix(1 0 0 1 -214.3517 65.5)" style="opacity:0.5;fill:#004186; font-family:'Roboto-Thin'; font-size:44.51px;">|</text>
	<text transform="matrix(1 0 0 1 -199.708 59.9827)" class="st5" style="font-family:'Roboto-Regular'; font-size:25px;">OTC</text>
</g>
<g>
	
		<image style="overflow:visible;" width="2030" height="799" xlink:href="93860A5D1009B159.png"  transform="matrix(0.1112 0 0 0.1112 -439.9969 96.8994)">
	</image>
	
		<text transform="matrix(1 0 0 1 -214.3517 154.3129)" style="opacity:0.5;fill:#004186; font-family:'Roboto-Thin'; font-size:44.51px;">|</text>
	<text transform="matrix(1 0 0 1 -199.7083 148.4883)" class="st5" style="font-family:'Roboto-Regular'; font-size:25px;">Branch</text>
</g>
<g>
	
		<image style="overflow:visible;" width="2030" height="799" xlink:href="93860A5D1009B15B.png"  transform="matrix(0.1112 0 0 0.1112 -439.9969 185.7123)">
	</image>
	
		<text transform="matrix(1 0 0 1 -214.3517 243.1257)" style="opacity:0.5;fill:#004186; font-family:'Roboto-Thin'; font-size:44.51px;">|</text>
	<text transform="matrix(1 0 0 1 -199.7078 237.742)" class="st5" style="font-family:'Roboto-Regular'; font-size:25px;">P2P</text>
</g>
<g>
	
		<image style="overflow:visible;" width="2030" height="799" xlink:href="93860A5D1009B158.png"  transform="matrix(0.1112 0 0 0.1112 -439.9969 274.5252)">
	</image>
	
		<text transform="matrix(1 0 0 1 -214.3517 331.9387)" style="opacity:0.5;fill:#004186; font-family:'Roboto-Thin'; font-size:44.51px;">|</text>
	<text transform="matrix(1 0 0 1 -199.7081 326.4745)" class="st5" style="font-family:'Roboto-Regular'; font-size:25px;">Corporate</text>
</g>
<g>
	
		<image style="overflow:visible;" width="2030" height="799" xlink:href="93860A5D1009B166.png"  transform="matrix(0.1112 0 0 0.1112 -439.9969 363.3382)">
	</image>
	
		<text transform="matrix(1 0 0 1 -214.3517 420.7516)" style="opacity:0.5;fill:#004186; font-family:'Roboto-Thin'; font-size:44.51px;">|</text>
	<text transform="matrix(1 0 0 1 -199.2925 415.2933)" class="st5" style="font-family:'Roboto-Regular'; font-size:25px;">Shop</text>
</g>
<g>
	
		<image style="overflow:visible;" width="2030" height="799" xlink:href="93860A5D1009B169.png"  transform="matrix(0.1112 0 0 0.1112 -439.9969 452.9585)">
	</image>
	
		<text transform="matrix(1 0 0 1 -214.3517 510.3718)" style="opacity:0.5;fill:#004186; font-family:'Roboto-Thin'; font-size:44.51px;">|</text>
	<text transform="matrix(1 0 0 1 -199.7076 504.9665)" class="st5" style="font-family:'Roboto-Regular'; font-size:25px;">Credit card</text>
</g>
<g>
	
		<image style="overflow:visible;" width="2030" height="799" xlink:href="93860A5D1009B16A.png"  transform="matrix(0.1112 0 0 0.1112 -439.9969 541.7714)">
	</image>
	
		<text transform="matrix(1 0 0 1 -214.3517 599.1848)" style="opacity:0.5;fill:#004186; font-family:'Roboto-Thin'; font-size:44.51px;">|</text>
	<text transform="matrix(1 0 0 1 -199.7075 593.7544)" class="st5" style="font-family:'Roboto-Regular'; font-size:25px;">Swap</text>
</g>
<g>
	
		<image style="overflow:visible;" width="2030" height="799" xlink:href="93860A5D1009B168.png"  transform="matrix(0.1112 0 0 0.1112 -439.9969 630.5844)">
	</image>
	
		<text transform="matrix(1 0 0 1 -214.3517 687.9977)" style="opacity:0.5;fill:#004186; font-family:'Roboto-Thin'; font-size:44.51px;">|</text>
	<text transform="matrix(1 0 0 1 -199.2924 682.5433)" class="st5" style="font-family:'Roboto-Regular'; font-size:25px;">Gold</text>
</g>
<g>
	<path class="st5" d="M567.3,298.6l0,0.1c0.1,2.8-0.9,5.1-2.9,7s-4.7,2.8-8,2.8c-3.4,0-6.1-1.2-8.2-3.6c-2.1-2.4-3.2-5.4-3.2-9.1
		v-5.3c0-3.7,1.1-6.7,3.2-9.1c2.1-2.4,4.9-3.6,8.2-3.6s6,0.9,8,2.7c2,1.8,3,4.2,2.9,7.1l0,0.1h-3.9c0-2.1-0.6-3.7-1.8-5
		c-1.2-1.2-3-1.8-5.2-1.8c-2.2,0-4,0.9-5.4,2.7c-1.3,1.8-2,4.1-2,6.8v5.3c0,2.7,0.7,5,2,6.8c1.3,1.8,3.1,2.7,5.4,2.7
		c2.2,0,4-0.6,5.2-1.8c1.2-1.2,1.8-2.9,1.8-5H567.3z"/>
	<path class="st5" d="M571.1,296.8c0-3.3,0.9-6,2.7-8.1c1.8-2.1,4.2-3.2,7.2-3.2c3.1,0,5.5,1.1,7.3,3.2c1.8,2.1,2.7,4.8,2.7,8.1v0.4
		c0,3.3-0.9,6-2.7,8.1c-1.8,2.1-4.2,3.2-7.2,3.2s-5.5-1.1-7.3-3.2c-1.8-2.1-2.7-4.8-2.7-8.1V296.8z M575.1,297.3
		c0,2.3,0.5,4.3,1.5,5.8c1,1.5,2.5,2.3,4.4,2.3c1.9,0,3.4-0.8,4.4-2.3c1-1.5,1.5-3.5,1.5-5.8v-0.4c0-2.3-0.5-4.2-1.5-5.8
		c-1-1.5-2.5-2.3-4.4-2.3c-1.9,0-3.4,0.8-4.4,2.3c-1,1.5-1.5,3.5-1.5,5.8V297.3z"/>
	<path class="st5" d="M606.3,289.5l-2.1-0.1c-1.1,0-2,0.3-2.7,0.8c-0.7,0.5-1.3,1.2-1.7,2.1v15.8h-4V286h3.6l0.4,3.2
		c0.6-1.1,1.4-2,2.3-2.7c0.9-0.6,2-1,3.2-1c0.3,0,0.6,0,0.9,0.1c0.3,0,0.5,0.1,0.7,0.2L606.3,289.5z"/>
	<path class="st5" d="M629.4,297.9c0,3.2-0.8,5.8-2.3,7.7s-3.6,2.9-6.3,2.9c-1.4,0-2.6-0.2-3.6-0.7c-1-0.5-1.9-1.1-2.6-2.1v10.8h-4
		V286h3.1l0.6,2.9c0.7-1.1,1.6-1.9,2.7-2.4c1.1-0.6,2.3-0.8,3.8-0.8c2.7,0,4.9,1.1,6.4,3.3c1.5,2.2,2.3,5,2.3,8.6V297.9z
		 M625.3,297.5c0-2.5-0.5-4.6-1.5-6.2c-1-1.6-2.4-2.4-4.4-2.4c-1.2,0-2.1,0.3-3,0.8s-1.5,1.2-2,2.2v10.7c0.5,0.9,1.2,1.6,2,2.1
		c0.8,0.5,1.8,0.8,3,0.8c1.9,0,3.4-0.7,4.3-2.1c1-1.4,1.5-3.2,1.5-5.4V297.5z"/>
	<path class="st5" d="M633.4,296.8c0-3.3,0.9-6,2.7-8.1c1.8-2.1,4.2-3.2,7.2-3.2c3.1,0,5.5,1.1,7.3,3.2c1.8,2.1,2.7,4.8,2.7,8.1v0.4
		c0,3.3-0.9,6-2.7,8.1c-1.8,2.1-4.2,3.2-7.2,3.2s-5.5-1.1-7.3-3.2c-1.8-2.1-2.7-4.8-2.7-8.1V296.8z M637.4,297.3
		c0,2.3,0.5,4.3,1.5,5.8c1,1.5,2.5,2.3,4.4,2.3c1.9,0,3.4-0.8,4.4-2.3c1-1.5,1.5-3.5,1.5-5.8v-0.4c0-2.3-0.5-4.2-1.5-5.8
		c-1-1.5-2.5-2.3-4.4-2.3c-1.9,0-3.4,0.8-4.4,2.3c-1,1.5-1.5,3.5-1.5,5.8V297.3z"/>
	<path class="st5" d="M668.6,289.5l-2.1-0.1c-1.1,0-2,0.3-2.7,0.8c-0.7,0.5-1.3,1.2-1.7,2.1v15.8h-4V286h3.6l0.4,3.2
		c0.6-1.1,1.4-2,2.3-2.7c0.9-0.6,2-1,3.2-1c0.3,0,0.6,0,0.9,0.1c0.3,0,0.5,0.1,0.7,0.2L668.6,289.5z"/>
	<path class="st5" d="M686.4,308.1c-0.1-0.7-0.2-1.3-0.3-1.8s-0.1-1-0.1-1.5c-0.8,1.1-1.7,2-2.9,2.7c-1.2,0.7-2.5,1.1-3.9,1.1
		c-2.3,0-4.1-0.6-5.3-1.8s-1.8-2.8-1.8-4.9c0-2.1,0.9-3.8,2.6-5c1.7-1.2,4-1.8,7-1.8h4.4V293c0-1.3-0.4-2.3-1.2-3.1
		s-1.9-1.1-3.4-1.1c-1.3,0-2.4,0.3-3.2,1c-0.8,0.7-1.2,1.4-1.2,2.4l-3.8,0l0-0.1c-0.1-1.6,0.7-3.1,2.3-4.4s3.7-2,6.2-2
		c2.5,0,4.5,0.6,6.1,1.9c1.5,1.3,2.3,3.1,2.3,5.5v10.7c0,0.8,0,1.6,0.1,2.3c0.1,0.7,0.2,1.5,0.5,2.2H686.4z M679.7,305.2
		c1.5,0,2.8-0.4,3.9-1.1s1.9-1.6,2.3-2.6v-3.6h-4.5c-1.6,0-2.9,0.4-3.9,1.2c-1,0.8-1.5,1.8-1.5,2.9c0,1,0.3,1.8,0.9,2.3
		C677.6,304.9,678.5,305.2,679.7,305.2z"/>
	<path class="st5" d="M701.4,280.6v5.3h4.2v3h-4.2v13.4c0,1,0.2,1.8,0.6,2.2s1,0.6,1.7,0.6c0.2,0,0.5,0,0.8-0.1
		c0.3-0.1,0.5-0.1,0.7-0.2l0.6,2.8c-0.3,0.2-0.7,0.4-1.3,0.6c-0.6,0.2-1.2,0.2-1.7,0.2c-1.6,0-2.9-0.5-3.9-1.5c-1-1-1.5-2.5-1.5-4.7
		V289h-3.5v-3h3.5v-5.3H701.4z"/>
	<path class="st5" d="M719.1,308.5c-3.2,0-5.7-1-7.4-3c-1.8-2-2.7-4.7-2.7-8v-0.9c0-3.2,0.9-5.8,2.8-7.9s4.1-3.1,6.7-3.1
		c3,0,5.2,0.9,6.7,2.8c1.5,1.8,2.2,4.3,2.2,7.3v2.1h-14.2l-0.1,0.1c0,2.2,0.5,4,1.5,5.4c1,1.4,2.5,2.1,4.5,2.1
		c1.4,0,2.6-0.2,3.6-0.6c1-0.4,1.9-0.9,2.6-1.6l1.6,2.6c-0.8,0.8-1.8,1.4-3.1,1.9C722.5,308.3,720.9,308.5,719.1,308.5z
		 M718.5,288.7c-1.4,0-2.6,0.5-3.5,1.6c-0.9,1.1-1.5,2.5-1.7,4.2l0,0.1h10v-0.3c0-1.6-0.4-2.9-1.2-4
		C721.3,289.3,720.1,288.7,718.5,288.7z"/>
</g>
</svg>
