<svg id="a26792d1-acce-4231-8754-8fd1e36fabf9" data-name="katman 1" xmlns="http://www.w3.org/2000/svg" viewBox="0 0 841 595"><path d="M104.46,306.88h25.13v-9H106.1a9.65,9.65,0,0,1-.46-19.27c.27,0,18.82,0,24,0v-9c-6.52,0-25.36,0-25.84,0-9.41.63-16.85,9-16.85,18.55C86.9,298.07,94.72,306.65,104.46,306.88Z" fill="#004187" fill-rule="evenodd"/><path d="M162.17,297.52H150.28a9.23,9.23,0,0,1-.46-18.45c.17,0,12.64,0,12.81,0a9.23,9.23,0,0,1-.46,18.45Zm1.94-27.81c-.45,0-15.32,0-15.78,0-9.4.63-16.85,9-16.85,18.57,0,9.8,7.83,18.37,17.57,18.61H163.4c9.74-.24,17.57-8.81,17.57-18.61C181,278.73,173.52,270.34,164.11,269.71Z" fill="#004187"/><polygon points="424.14 297.92 394.63 297.92 394.63 269.69 384.85 269.69 384.85 306.89 424.14 306.89 424.14 297.92" fill="#004187"/><polygon points="229.88 306.89 239.7 306.89 239.7 269.69 229.92 269.69 229.92 292.81 207.47 269.75 197.28 269.69 197.28 306.86 207.06 306.86 207.06 283.74 229.88 306.89" fill="#004187"/><rect x="184.24" y="269.69" width="9.78" height="37.2" fill="#004187"/><polygon points="269.18 306.89 269.18 278.65 285.63 278.65 285.63 269.69 242.94 269.69 242.94 278.65 259.39 278.65 259.39 306.89 269.18 306.89" fill="#004187"/><path d="M298.7,278.77h19.17a5.17,5.17,0,0,1,5.23,5.17c0,2.85-2.31,4.21-5.16,4.21H298.7Zm0,19.13h10.35l8.88,9h13.68L322,297.16a14.1,14.1,0,0,0-4.2-27.47H288.92v37.2h9.78Z" fill="#004187"/><path d="M358.15,279l4.82,9.2h-9.63Zm-9.5,19.32h19l4.51,8.61h11.1l-19.52-37.2H352.57L333,306.89h11.11Z" fill="#004187"/><path d="M428,304.51h.4a.3.3,0,0,1,.14.05c.05,0,.07.08.07.17a.21.21,0,0,1,0,.12.12.12,0,0,1-.06.06s0,0-.07,0H428Zm0,1.29v-.45h.24l.17.23a1.84,1.84,0,0,1,.17.22h.5l-.19-.26c-.07-.08-.13-.17-.2-.26a.54.54,0,0,0,.23-.22.58.58,0,0,0,.09-.33.64.64,0,0,0-.17-.45.6.6,0,0,0-.44-.16h-.8v1.68Zm.26-2.28a1.38,1.38,0,0,0-.56.12,1.57,1.57,0,0,0-.45.31,1.33,1.33,0,0,0-.31.46,1.3,1.3,0,0,0-.12.55,1.44,1.44,0,0,0,.43,1,1.57,1.57,0,0,0,.45.31,1.36,1.36,0,0,0,.56.11,1.3,1.3,0,0,0,.56-.11,1.49,1.49,0,0,0,.46-.31,1.38,1.38,0,0,0,.42-1,1.46,1.46,0,0,0-.11-.55,1.45,1.45,0,0,0-.77-.77A1.31,1.31,0,0,0,428.23,303.52Zm0,3.37a1.93,1.93,0,0,1-.75-.15,2.11,2.11,0,0,1-.61-.41,2,2,0,0,1-.41-.62,1.92,1.92,0,0,1,.41-2.1,1.93,1.93,0,0,1,.61-.41,1.78,1.78,0,0,1,.75-.16,1.71,1.71,0,0,1,.75.16,1.82,1.82,0,0,1,.61.41,1.75,1.75,0,0,1,.42.61,1.93,1.93,0,0,1,0,1.49,1.89,1.89,0,0,1-.42.62,2,2,0,0,1-.61.41A1.86,1.86,0,0,1,428.23,306.89Z" fill="#004187" fill-rule="evenodd"/><rect x="59.6" y="267.2" width="15.46" height="15.47" rx="1.77" transform="translate(-174.68 128.13) rotate(-45)" fill="#004187"/><rect x="45.93" y="280.85" width="15.46" height="15.47" rx="1.77" transform="translate(-188.34 122.47) rotate(-45)" fill="#009cde"/><rect x="59.66" y="294.58" width="15.46" height="15.47" rx="1.77" transform="translate(-194.03 136.2) rotate(-45)" fill="#004187"/><g opacity="0.5"><path d="M445.93,307.38h-1.18V269.86h1.18Z" fill="#134383"/></g><path d="M466.18,293.83h-2.54v13.06h-3.91V278h3.91v12.78h2.14L476.5,278h4.4l0,.1-11.7,13.67,12.54,15,0,.1H477Z" fill="#134383"/><path d="M498.21,303.71a7.22,7.22,0,0,1-2.6,2.66,7,7,0,0,1-3.67.94,6.9,6.9,0,0,1-5.48-2.25q-2-2.24-2-7V285.42h3.9v12.7c0,2.29.34,3.86,1,4.72a3.74,3.74,0,0,0,3.15,1.29,6.42,6.42,0,0,0,3.44-.84,5.24,5.24,0,0,0,2.06-2.39V285.42H502v21.47h-3.52Z" fill="#134383"/><path d="M517.83,288.87l-2-.12a4.49,4.49,0,0,0-2.61.74,4.65,4.65,0,0,0-1.64,2.06v15.34h-3.91V285.42h3.5l.37,3.13a7.58,7.58,0,0,1,2.25-2.6,5.32,5.32,0,0,1,3.09-.93,4.43,4.43,0,0,1,.83.07q.4.07.66.15Z" fill="#134383"/><path d="M535.53,303.71a7.15,7.15,0,0,1-2.6,2.66,7,7,0,0,1-3.67.94,6.86,6.86,0,0,1-5.47-2.25q-2-2.24-2-7V285.42h3.91v12.7c0,2.29.34,3.86,1,4.72a3.78,3.78,0,0,0,3.16,1.29,6.45,6.45,0,0,0,3.44-.84,5.22,5.22,0,0,0,2-2.39V285.42h3.91v21.47h-3.51Z" fill="#134383"/><path d="M548.49,285.42l.28,2.82a7.24,7.24,0,0,1,2.67-2.37,7.9,7.9,0,0,1,3.76-.85,6.66,6.66,0,0,1,3.68,1,6.11,6.11,0,0,1,2.31,3,8,8,0,0,1,2.69-2.91,7.09,7.09,0,0,1,3.88-1.06,6.44,6.44,0,0,1,5.18,2.25c1.27,1.51,1.9,3.76,1.9,6.78v12.84h-3.91V294c0-2.12-.36-3.61-1.09-4.49a4,4,0,0,0-3.25-1.32,4.14,4.14,0,0,0-3.25,1.39,6.09,6.09,0,0,0-1.46,3.51v13.79H558V294a7,7,0,0,0-1.13-4.41,3.86,3.86,0,0,0-3.22-1.4,5.39,5.39,0,0,0-2.94.73,4.81,4.81,0,0,0-1.76,2.06v15.9H545V285.42Z" fill="#134383"/><path d="M593,301.12a2.61,2.61,0,0,0-1-2.11,9.58,9.58,0,0,0-3.72-1.43,15.59,15.59,0,0,1-5.83-2.28,4.62,4.62,0,0,1-2-3.93,5.65,5.65,0,0,1,2.23-4.48,8.7,8.7,0,0,1,5.79-1.87,8.61,8.61,0,0,1,5.91,2,5.66,5.66,0,0,1,2.16,4.62l0,.12h-3.73a3.38,3.38,0,0,0-1.22-2.52,4.32,4.32,0,0,0-3.08-1.13,4.46,4.46,0,0,0-3.09.93,2.9,2.9,0,0,0-1,2.22,2.36,2.36,0,0,0,.88,2,9.94,9.94,0,0,0,3.64,1.27,15.27,15.27,0,0,1,6,2.36,4.75,4.75,0,0,1,2,4,5.65,5.65,0,0,1-2.31,4.66,9.59,9.59,0,0,1-6.05,1.81,9.46,9.46,0,0,1-6.47-2.09,6,6,0,0,1-2.24-4.86l0-.12h3.73a3.65,3.65,0,0,0,1.55,3.05,6,6,0,0,0,3.39,1,5.36,5.36,0,0,0,3.27-.88A2.69,2.69,0,0,0,593,301.12Z" fill="#134383"/><path d="M615,306.89c-.14-.65-.24-1.22-.31-1.72a12.3,12.3,0,0,1-.13-1.5,9,9,0,0,1-2.85,2.59,7.23,7.23,0,0,1-3.78,1.05,7,7,0,0,1-5.11-1.72,6.3,6.3,0,0,1-1.75-4.73,5.56,5.56,0,0,1,2.49-4.82,11.67,11.67,0,0,1,6.75-1.73h4.25v-2.12a3.93,3.93,0,0,0-1.15-3,4.5,4.5,0,0,0-3.26-1.1,4.73,4.73,0,0,0-3.07.95,2.87,2.87,0,0,0-1.17,2.28l-3.71,0,0-.12a5.14,5.14,0,0,1,2.19-4.28,9.06,9.06,0,0,1,6-2,8.87,8.87,0,0,1,5.88,1.86,6.57,6.57,0,0,1,2.22,5.35v10.33a20.14,20.14,0,0,0,.12,2.23,11.68,11.68,0,0,0,.43,2.1ZM608.48,304a7,7,0,0,0,3.83-1.09,5.21,5.21,0,0,0,2.22-2.5V297h-4.39a5.67,5.67,0,0,0-3.78,1.19,3.57,3.57,0,0,0-1.41,2.8,2.93,2.93,0,0,0,.89,2.26A3.75,3.75,0,0,0,608.48,304Z" fill="#134383"/><path d="M628.34,306.89h-3.91v-31h3.91Z" fill="#134383"/></svg>