<svg id="fc79b5bc-c9e7-4920-afb5-9e44c6b9f053" data-name="katman 1" xmlns="http://www.w3.org/2000/svg" viewBox="0 0 841 595"><path d="M104.46,306.88h25.13v-9H106.1a9.65,9.65,0,0,1-.46-19.27c.27,0,18.82,0,24,0v-9c-6.52,0-25.36,0-25.84,0-9.41.63-16.85,9-16.85,18.55C86.9,298.07,94.72,306.65,104.46,306.88Z" fill="#004187" fill-rule="evenodd"/><path d="M162.17,297.52H150.28a9.23,9.23,0,0,1-.46-18.45c.17,0,12.64,0,12.81,0a9.23,9.23,0,0,1-.46,18.45Zm1.94-27.81c-.45,0-15.32,0-15.78,0-9.4.63-16.85,9-16.85,18.57,0,9.8,7.83,18.37,17.57,18.61H163.4c9.74-.24,17.57-8.81,17.57-18.61C181,278.73,173.52,270.34,164.11,269.71Z" fill="#004187"/><polygon points="424.14 297.92 394.63 297.92 394.63 269.69 384.85 269.69 384.85 306.89 424.14 306.89 424.14 297.92" fill="#004187"/><polygon points="229.88 306.89 239.7 306.89 239.7 269.69 229.92 269.69 229.92 292.81 207.47 269.75 197.28 269.69 197.28 306.86 207.06 306.86 207.06 283.74 229.88 306.89" fill="#004187"/><rect x="184.24" y="269.69" width="9.78" height="37.2" fill="#004187"/><polygon points="269.18 306.89 269.18 278.65 285.63 278.65 285.63 269.69 242.94 269.69 242.94 278.65 259.39 278.65 259.39 306.89 269.18 306.89" fill="#004187"/><path d="M298.7,278.77h19.17a5.17,5.17,0,0,1,5.23,5.17c0,2.85-2.31,4.21-5.16,4.21H298.7Zm0,19.13h10.35l8.88,9h13.68L322,297.16a14.1,14.1,0,0,0-4.2-27.47H288.92v37.2h9.78Z" fill="#004187"/><path d="M358.15,279l4.82,9.2h-9.63Zm-9.5,19.32h19l4.51,8.61h11.1l-19.52-37.2H352.57L333,306.89h11.11Z" fill="#004187"/><path d="M428,304.51h.4a.3.3,0,0,1,.14.05c.05,0,.07.08.07.17a.21.21,0,0,1,0,.12.12.12,0,0,1-.06.06s0,0-.07,0H428Zm0,1.29v-.45h.24l.17.23a1.84,1.84,0,0,1,.17.22h.5l-.19-.26c-.07-.08-.13-.17-.2-.26a.54.54,0,0,0,.23-.22.58.58,0,0,0,.09-.33.64.64,0,0,0-.17-.45.6.6,0,0,0-.44-.16h-.8v1.68Zm.26-2.28a1.38,1.38,0,0,0-.56.12,1.57,1.57,0,0,0-.45.31,1.33,1.33,0,0,0-.31.46,1.3,1.3,0,0,0-.12.55,1.44,1.44,0,0,0,.43,1,1.57,1.57,0,0,0,.45.31,1.36,1.36,0,0,0,.56.11,1.3,1.3,0,0,0,.56-.11,1.49,1.49,0,0,0,.46-.31,1.38,1.38,0,0,0,.42-1,1.46,1.46,0,0,0-.11-.55,1.45,1.45,0,0,0-.77-.77A1.31,1.31,0,0,0,428.23,303.52Zm0,3.37a1.93,1.93,0,0,1-.75-.15,2.11,2.11,0,0,1-.61-.41,2,2,0,0,1-.41-.62,1.92,1.92,0,0,1,.41-2.1,1.93,1.93,0,0,1,.61-.41,1.78,1.78,0,0,1,.75-.16,1.71,1.71,0,0,1,.75.16,1.82,1.82,0,0,1,.61.41,1.75,1.75,0,0,1,.42.61,1.93,1.93,0,0,1,0,1.49,1.89,1.89,0,0,1-.42.62,2,2,0,0,1-.61.41A1.86,1.86,0,0,1,428.23,306.89Z" fill="#004187" fill-rule="evenodd"/><rect x="59.6" y="267.2" width="15.46" height="15.47" rx="1.77" transform="translate(-174.68 128.13) rotate(-45)" fill="#004187"/><rect x="45.93" y="280.85" width="15.46" height="15.47" rx="1.77" transform="translate(-188.34 122.47) rotate(-45)" fill="#009cde"/><rect x="59.66" y="294.58" width="15.46" height="15.47" rx="1.77" transform="translate(-194.03 136.2) rotate(-45)" fill="#004187"/><g opacity="0.5"><path d="M445.93,307.38h-1.18V269.86h1.18Z" fill="#134383"/></g><path d="M474.65,299.45H463.78l-2.58,7.44h-4L467.63,278H471l10.2,28.89h-4Zm-9.74-3.28h8.63l-4.21-12.4h-.11Z" fill="#134383"/><path d="M489.12,306.89h-3.91v-31h3.91Z" fill="#134383"/><path d="M499.24,306.89h-3.91V285.42h3.91Z" fill="#134383"/><path d="M517.83,301.12a2.58,2.58,0,0,0-1-2.11,9.45,9.45,0,0,0-3.72-1.43,15.47,15.47,0,0,1-5.82-2.28,4.61,4.61,0,0,1-2-3.93,5.68,5.68,0,0,1,2.23-4.48,8.7,8.7,0,0,1,5.79-1.87,8.61,8.61,0,0,1,5.91,2,5.69,5.69,0,0,1,2.17,4.62l0,.12h-3.74a3.35,3.35,0,0,0-1.22-2.52,4.32,4.32,0,0,0-3.08-1.13,4.46,4.46,0,0,0-3.09.93,2.9,2.9,0,0,0-1,2.22,2.39,2.39,0,0,0,.88,2,10,10,0,0,0,3.65,1.27,15.33,15.33,0,0,1,6,2.36,4.76,4.76,0,0,1,2,4,5.65,5.65,0,0,1-2.31,4.66,9.55,9.55,0,0,1-6,1.81,9.43,9.43,0,0,1-6.47-2.09,5.93,5.93,0,0,1-2.24-4.86l0-.12h3.73a3.6,3.6,0,0,0,1.55,3.05,6,6,0,0,0,3.39,1,5.31,5.31,0,0,0,3.26-.88A2.69,2.69,0,0,0,517.83,301.12Zm-3.19,5.93-.24,1a4,4,0,0,1,2.14,1,3.16,3.16,0,0,1,.86,2.4,3.59,3.59,0,0,1-1.57,3,7.63,7.63,0,0,1-4.49,1.13l-.13-2.16a4.79,4.79,0,0,0,2.3-.49,1.57,1.57,0,0,0,.87-1.46,1.38,1.38,0,0,0-.71-1.33,6.88,6.88,0,0,0-2.45-.51l.64-2.68Z" fill="#134383"/><path d="M533.77,300.56l.33,1.51h.12l.38-1.51,4.94-15.14h4l-7.9,21.47h-3l-8-21.47h4Z" fill="#134383"/><path d="M555.67,307.31a9.09,9.09,0,0,1-7.21-3,11.35,11.35,0,0,1-2.59-7.78v-.87a11.15,11.15,0,0,1,2.67-7.65,8.36,8.36,0,0,1,6.52-3q4.31,0,6.46,2.68a11.07,11.07,0,0,1,2.15,7.12v2.07H549.94l-.06.1a8.93,8.93,0,0,0,1.43,5.25,5,5,0,0,0,4.36,2,9.78,9.78,0,0,0,3.49-.57,7.71,7.71,0,0,0,2.57-1.55l1.52,2.54a9.38,9.38,0,0,1-3,1.87A12.09,12.09,0,0,1,555.67,307.31Zm-.61-19.21a4.24,4.24,0,0,0-3.38,1.57,7.46,7.46,0,0,0-1.64,4l0,.1h9.68v-.32a6.19,6.19,0,0,0-1.15-3.86A4.16,4.16,0,0,0,555.06,288.1Z" fill="#134383"/><path d="M578.22,288.87l-2-.12a4.49,4.49,0,0,0-2.61.74,4.63,4.63,0,0,0-1.63,2.06v15.34h-3.91V285.42h3.49l.38,3.13a7.48,7.48,0,0,1,2.25-2.6,5.26,5.26,0,0,1,3.08-.93,4.61,4.61,0,0,1,.84.07c.26.05.48.1.65.15Z" fill="#134383"/><path d="M586.51,279.92H582.6v-4h3.91Zm0,27H582.6V285.42h3.91Z" fill="#134383"/><path d="M605,301.12a2.58,2.58,0,0,0-1-2.11,9.45,9.45,0,0,0-3.72-1.43,15.47,15.47,0,0,1-5.82-2.28,4.61,4.61,0,0,1-2-3.93,5.66,5.66,0,0,1,2.24-4.48,9.82,9.82,0,0,1,11.69.12,5.69,5.69,0,0,1,2.17,4.62l0,.12h-3.73a3.38,3.38,0,0,0-1.22-2.52,4.36,4.36,0,0,0-3.09-1.13,4.43,4.43,0,0,0-3.08.93,2.88,2.88,0,0,0-1,2.22,2.37,2.37,0,0,0,.89,2,9.87,9.87,0,0,0,3.64,1.27,15.27,15.27,0,0,1,6,2.36,4.76,4.76,0,0,1,2,4,5.65,5.65,0,0,1-2.31,4.66,9.55,9.55,0,0,1-6,1.81,9.44,9.44,0,0,1-6.47-2.09,6,6,0,0,1-2.24-4.86l0-.12h3.73a3.6,3.6,0,0,0,1.55,3.05,6,6,0,0,0,3.39,1,5.31,5.31,0,0,0,3.26-.88A2.69,2.69,0,0,0,605,301.12Zm-3.19,5.93-.24,1a3.92,3.92,0,0,1,2.14,1,3.16,3.16,0,0,1,.86,2.4,3.59,3.59,0,0,1-1.57,3,7.6,7.6,0,0,1-4.48,1.13l-.14-2.16a4.76,4.76,0,0,0,2.3-.49,1.57,1.57,0,0,0,.87-1.46,1.38,1.38,0,0,0-.71-1.33,6.86,6.86,0,0,0-2.44-.51l.63-2.68Z" fill="#134383"/></svg>