<svg id="b9a166e5-55e6-4d81-802f-36fb6cb8d143" data-name="katman 1" xmlns="http://www.w3.org/2000/svg" viewBox="0 0 841 595"><path d="M104.46,306.88h25.13v-9H106.1a9.65,9.65,0,0,1-.46-19.27c.27,0,18.82,0,24,0v-9c-6.52,0-25.36,0-25.84,0-9.41.63-16.85,9-16.85,18.55C86.9,298.07,94.72,306.65,104.46,306.88Z" fill="#004187" fill-rule="evenodd"/><path d="M162.17,297.52H150.28a9.23,9.23,0,0,1-.46-18.45c.17,0,12.64,0,12.81,0a9.23,9.23,0,0,1-.46,18.45Zm1.94-27.81c-.45,0-15.32,0-15.78,0-9.4.63-16.85,9-16.85,18.57,0,9.8,7.83,18.37,17.57,18.61H163.4c9.74-.24,17.57-8.81,17.57-18.61C181,278.73,173.52,270.34,164.11,269.71Z" fill="#004187"/><polygon points="424.14 297.92 394.63 297.92 394.63 269.69 384.85 269.69 384.85 306.89 424.14 306.89 424.14 297.92" fill="#004187"/><polygon points="229.88 306.89 239.7 306.89 239.7 269.69 229.92 269.69 229.92 292.81 207.47 269.75 197.28 269.69 197.28 306.86 207.06 306.86 207.06 283.74 229.88 306.89" fill="#004187"/><rect x="184.24" y="269.69" width="9.78" height="37.2" fill="#004187"/><polygon points="269.18 306.89 269.18 278.65 285.63 278.65 285.63 269.69 242.94 269.69 242.94 278.65 259.39 278.65 259.39 306.89 269.18 306.89" fill="#004187"/><path d="M298.7,278.77h19.17a5.17,5.17,0,0,1,5.23,5.17c0,2.85-2.31,4.21-5.16,4.21H298.7Zm0,19.13h10.35l8.88,9h13.68L322,297.16a14.1,14.1,0,0,0-4.2-27.47H288.92v37.2h9.78Z" fill="#004187"/><path d="M358.15,279l4.82,9.2h-9.63Zm-9.5,19.32h19l4.51,8.61h11.1l-19.52-37.2H352.57L333,306.89h11.11Z" fill="#004187"/><path d="M428,304.51h.4a.3.3,0,0,1,.14.05c.05,0,.07.08.07.17a.21.21,0,0,1,0,.12.12.12,0,0,1-.06.06s0,0-.07,0H428Zm0,1.29v-.45h.24l.17.23a1.84,1.84,0,0,1,.17.22h.5l-.19-.26c-.07-.08-.13-.17-.2-.26a.54.54,0,0,0,.23-.22.58.58,0,0,0,.09-.33.64.64,0,0,0-.17-.45.6.6,0,0,0-.44-.16h-.8v1.68Zm.26-2.28a1.38,1.38,0,0,0-.56.12,1.57,1.57,0,0,0-.45.31,1.33,1.33,0,0,0-.31.46,1.3,1.3,0,0,0-.12.55,1.44,1.44,0,0,0,.43,1,1.57,1.57,0,0,0,.45.31,1.36,1.36,0,0,0,.56.11,1.3,1.3,0,0,0,.56-.11,1.49,1.49,0,0,0,.46-.31,1.38,1.38,0,0,0,.42-1,1.46,1.46,0,0,0-.11-.55,1.45,1.45,0,0,0-.77-.77A1.31,1.31,0,0,0,428.23,303.52Zm0,3.37a1.93,1.93,0,0,1-.75-.15,2.11,2.11,0,0,1-.61-.41,2,2,0,0,1-.41-.62,1.92,1.92,0,0,1,.41-2.1,1.93,1.93,0,0,1,.61-.41,1.78,1.78,0,0,1,.75-.16,1.71,1.71,0,0,1,.75.16,1.82,1.82,0,0,1,.61.41,1.75,1.75,0,0,1,.42.61,1.93,1.93,0,0,1,0,1.49,1.89,1.89,0,0,1-.42.62,2,2,0,0,1-.61.41A1.86,1.86,0,0,1,428.23,306.89Z" fill="#004187" fill-rule="evenodd"/><rect x="59.6" y="267.2" width="15.46" height="15.47" rx="1.77" transform="translate(-174.68 128.13) rotate(-45)" fill="#004187"/><rect x="45.93" y="280.85" width="15.46" height="15.47" rx="1.77" transform="translate(-188.34 122.47) rotate(-45)" fill="#009cde"/><rect x="59.66" y="294.58" width="15.46" height="15.47" rx="1.77" transform="translate(-194.03 136.2) rotate(-45)" fill="#004187"/><g opacity="0.5"><path d="M445.93,307.38h-1.18V269.86h1.18Z" fill="#134383"/></g><path d="M481.58,306.89h-3.91V294.13h-14v12.76h-3.91V278h3.91v13.05h14V278h3.91Z" fill="#134383"/><path d="M491.9,306.89H488V285.42h3.91Z" fill="#134383"/><path d="M501.7,303.83h12.4v3.06H497v-2.74l11.6-15.64H497.17v-3.09h16.26v2.66Z" fill="#134383"/><path d="M522.67,306.89h-3.9v-31h3.9Z" fill="#134383"/><path d="M532.79,306.89h-3.9V285.42h3.9Z" fill="#134383"/><path d="M569.74,281.07h-9.52v25.82h-3.91V281.07H546.9V278h22.84Z" fill="#134383"/><path d="M584.27,306.89c-.13-.65-.24-1.22-.31-1.72a12.3,12.3,0,0,1-.13-1.5,9,9,0,0,1-2.85,2.59,7.23,7.23,0,0,1-3.78,1.05,7,7,0,0,1-5.11-1.72,6.3,6.3,0,0,1-1.75-4.73,5.56,5.56,0,0,1,2.49-4.82,11.67,11.67,0,0,1,6.75-1.73h4.25v-2.12a3.93,3.93,0,0,0-1.15-3,4.49,4.49,0,0,0-3.25-1.1,4.76,4.76,0,0,0-3.08.95,2.87,2.87,0,0,0-1.17,2.28l-3.71,0,0-.12a5.14,5.14,0,0,1,2.19-4.28,9.08,9.08,0,0,1,6-2,8.85,8.85,0,0,1,5.88,1.86,6.57,6.57,0,0,1,2.22,5.35v10.33a20.14,20.14,0,0,0,.12,2.23,10.9,10.9,0,0,0,.44,2.1ZM577.78,304a7,7,0,0,0,3.83-1.09,5.16,5.16,0,0,0,2.22-2.5V297h-4.38a5.63,5.63,0,0,0-3.78,1.19,3.55,3.55,0,0,0-1.42,2.8,2.93,2.93,0,0,0,.89,2.26A3.78,3.78,0,0,0,577.78,304Z" fill="#134383"/><path d="M599.35,297h-2v9.9h-3.9v-31h3.9v17.94h2l6.45-8.45h4.68l-7.8,9.9,8.48,11.57h-4.63Z" fill="#134383"/><path d="M627.45,306.89c-.13-.65-.24-1.22-.31-1.72a12.3,12.3,0,0,1-.13-1.5,9,9,0,0,1-2.85,2.59,7.23,7.23,0,0,1-3.78,1.05,7,7,0,0,1-5.11-1.72,6.3,6.3,0,0,1-1.75-4.73A5.56,5.56,0,0,1,616,296a11.67,11.67,0,0,1,6.75-1.73H627v-2.12a3.93,3.93,0,0,0-1.15-3,4.49,4.49,0,0,0-3.25-1.1,4.76,4.76,0,0,0-3.08.95,2.87,2.87,0,0,0-1.17,2.28l-3.71,0,0-.12A5.14,5.14,0,0,1,616.8,287a9.08,9.08,0,0,1,6-2,8.85,8.85,0,0,1,5.88,1.86,6.57,6.57,0,0,1,2.22,5.35v10.33a20.14,20.14,0,0,0,.12,2.23,10.9,10.9,0,0,0,.44,2.1ZM621,304a7,7,0,0,0,3.83-1.09,5.16,5.16,0,0,0,2.22-2.5V297h-4.38a5.63,5.63,0,0,0-3.78,1.19,3.55,3.55,0,0,0-1.42,2.8,2.93,2.93,0,0,0,.89,2.26A3.76,3.76,0,0,0,621,304Z" fill="#134383"/><path d="M649.08,301.12a2.59,2.59,0,0,0-1-2.11,9.45,9.45,0,0,0-3.72-1.43,15.61,15.61,0,0,1-5.82-2.28,4.6,4.6,0,0,1-2-3.93,5.65,5.65,0,0,1,2.23-4.48,9.83,9.83,0,0,1,11.7.12,5.71,5.71,0,0,1,2.16,4.62l0,.12h-3.73a3.38,3.38,0,0,0-1.22-2.52,4.35,4.35,0,0,0-3.09-1.13,4.45,4.45,0,0,0-3.08.93,2.91,2.91,0,0,0-1,2.22,2.37,2.37,0,0,0,.89,2,9.94,9.94,0,0,0,3.64,1.27,15.27,15.27,0,0,1,6,2.36,4.77,4.77,0,0,1,2,4,5.66,5.66,0,0,1-2.32,4.66,9.55,9.55,0,0,1-6,1.81,9.44,9.44,0,0,1-6.47-2.09,6,6,0,0,1-2.24-4.86l0-.12h3.73a3.62,3.62,0,0,0,1.55,3.05,6,6,0,0,0,3.39,1,5.36,5.36,0,0,0,3.27-.88A2.72,2.72,0,0,0,649.08,301.12Z" fill="#134383"/></svg>