<?xml version="1.0" encoding="utf-8"?>
<!-- Generator: Adobe Illustrator 24.2.3, SVG Export Plug-In . SVG Version: 6.00 Build 0)  -->
<svg version="1.0" id="Capa_1" xmlns="http://www.w3.org/2000/svg" xmlns:xlink="http://www.w3.org/1999/xlink" x="0px" y="0px"
	 viewBox="0 0 355.8 355.8" style="enable-background:new 0 0 355.8 355.8;" xml:space="preserve">
<g>
	<g>
		<path style="fill:#1291C7;stroke:#05425B;stroke-miterlimit:10;" d="M204.9,137.9c4.6-3.4,7.3-8.5,7.3-13.8
			c0-5.3-2.6-10.3-7.3-13.8l-69-51.8c-3.2-2.4-6.5-3.6-9.9-3.6c-6.5,0-13.1,5.2-13.1,15.1v10.5c0,1.6-1.3,2.9-2.9,2.9H22.1
			C11,83.4,2,92.5,2,103.6v40.1c0,11.1,9,20.1,20.1,20.1h88.1c0.8,0,1.4,0.3,2,0.8c0.5,0.5,0.8,1.2,0.8,2l-0.1,11.5
			c-0.1,6,2.2,9.6,4.1,11.6c2.4,2.4,5.5,3.7,8.9,3.7c3.3,0,6.7-1.2,9.9-3.6L204.9,137.9z M110.2,146.6H22.1c-1.6,0-2.9-1.3-2.9-2.9
			v-40.1c0-1.6,1.3-2.9,2.9-2.9h88.1c11.1,0,20.1-9,20.1-20.1c0,0,0-1.1,0-2.4c0-1.3,2.8-0.3,6.3,2.4l51.7,38.8
			c3.5,2.6,3.5,6.9,0,9.5l-51.8,38.8c-3.5,2.6-6.3,3.5-6.3,1.9l0-2.8c0.1-5.4-2-10.5-5.8-14.3C120.6,148.7,115.5,146.6,110.2,146.6z
			"/>
		<path style="fill:#1291C7;stroke:#05425B;stroke-miterlimit:10;" d="M240.8,166.1c-2.4-2.4-5.5-3.7-8.9-3.7
			c-3.3,0-6.7,1.2-9.9,3.6l-69.2,51.8c-4.6,3.4-7.3,8.5-7.3,13.8c0,5.3,2.6,10.4,7.3,13.8l69,51.8c3.2,2.4,6.6,3.6,9.9,3.6
			c6.5,0,13.1-5.2,13.1-15.1v-10.5c0-1.6,1.3-2.9,2.9-2.9h88.1c11.1,0,20.1-9,20.1-20.1v-40.1c0-11.1-9-20.1-20.1-20.1h-88.1
			c-0.8,0-1.4-0.3-2-0.8c-0.5-0.5-0.8-1.2-0.8-2l0.1-11.5C245,171.6,242.7,168,240.8,166.1z M335.7,209.2c1.6,0,2.9,1.3,2.9,2.9
			v40.1c0,1.6-1.3,2.9-2.9,2.9h-88.1c-11.1,0-20.1,9-20.1,20.1c0,0,0,1.1,0,2.4c0,1.3-2.8,0.3-6.3-2.4l-51.7-38.8
			c-3.5-2.6-3.5-6.9,0-9.5l51.8-38.8c3.5-2.6,6.3-3.5,6.3-1.9l0,2.8c-0.1,5.4,2,10.4,5.8,14.3c3.8,3.8,8.9,5.9,14.2,5.9L335.7,209.2
			L335.7,209.2L335.7,209.2z"/>
	</g>
</g>
<path style="fill-rule:evenodd;clip-rule:evenodd;fill:#1291C7;stroke:#05425B;stroke-miterlimit:10;" d="M268,157.5l9.5,0l1.7,0
	l0,6.4l8.5,0l0-6.4l5.9,0l0,6.4l8.3,0l0-6.9c17.3-2.1,20.6-13.2,20.6-21.8c0-16.5-9-19.1-14.9-19.9l0-0.2
	c7.8-1.4,12.5-8.8,12.5-18.2c0-11.8-7.1-18.2-18.2-19.4l0-6.9l-8.3,0l0,6.6l-5.9,0l0-6.6l-8.5,0l0,6.6l-1.7,0l-9.5,0l-9.5,0l0,13.9
	l9.5,0l0,52.2l-9.5,0l0,13.9L268,157.5z M286.9,91.3l5.2,0c6.9,0,9.2,4.5,9.2,8.5c0,5.7-2.8,9.5-9.2,9.5l-5.2,0L286.9,91.3z
	 M286.9,121.8l6.1,0c5.7,0,9.7,3.3,9.7,11.3c0,5.4-2.6,10.4-10.2,10.4l-5.7,0L286.9,121.8z"/>
<g>
	<path style="fill-rule:evenodd;clip-rule:evenodd;fill:#1291C7;stroke:#05425B;stroke-miterlimit:10;" d="M70.1,185.5l-31.4,51.1
		L69.9,255l31.3-18.3L70.1,185.5z M36,241.5l33.7,45.7l34.2-45.5l-34,19.8L36,241.5z"/>
	<path style="fill-rule:evenodd;clip-rule:evenodd;fill:#1291C7;stroke:#05425B;stroke-miterlimit:10;" d="M69.8,286.2l34.1-44.5
		l-34,19.8L69.8,286.2z M101.2,236.7l-30.9-50.1L70,254.4L101.2,236.7z"/>
</g>
</svg>
