<?xml version="1.0" encoding="utf-8"?>
<!-- Generator: Adobe Illustrator 23.0.1, SVG Export Plug-In . SVG Version: 6.00 Build 0)  -->
<svg version="1.1" id="katman_1" xmlns="http://www.w3.org/2000/svg" xmlns:xlink="http://www.w3.org/1999/xlink" x="0px" y="0px"
	 viewBox="0 0 62.56 67.98" style="enable-background:new 0 0 62.56 67.98;" xml:space="preserve">
<style type="text/css">
	.st0{fill:#5D9EF0;}
	.st1{fill:#5E9EF0;}
</style>
<g>
	<path class="st0" d="M28.3,65.99c-7.04-3.71-14.06-7.48-21.14-11.12c-4.14-2.13-6.13-5.31-5.94-10.03c0.09-2.29,0.28-3.92,3.19-3.7
		c2.32,0.17,4.95-0.41,4.72,3.32c-0.09,1.39,0.18,2.67,1.58,3.39c5.27,2.73,10.55,5.46,16.29,8.43c0.4-4.67,1.47-8.3-3.68-10.87
		c-5.47-2.73-7.5-9.61-5.85-15.65c1.6-5.89,7.6-10.48,13.73-10.52c5.8-0.04,11.72,4.29,13.64,9.98c1.93,5.73,0.14,12.89-5.3,15.81
		c-4.87,2.61-4.73,6.05-3.92,11.16c5.7-2.97,11.19-5.8,16.64-8.68c1-0.53,1.24-1.6,1.1-2.61c-0.61-4.47,2.53-3.65,5.11-3.74
		c3.68-0.14,2.7,2.56,2.75,4.53c0.13,4.57-2.52,7.3-6.28,9.35c-6.84,3.73-14.14,6.59-20.64,10.94C32.3,65.99,30.3,65.99,28.3,65.99z
		 M31.28,40.13c3.71-0.01,6.88-3.06,6.52-6.61c-0.38-3.74-2.54-6.1-6.39-6.39c-3.42-0.25-6.85,3.14-6.85,6.51
		C24.55,37.34,27.45,40.14,31.28,40.13z"/>
	<path class="st1" d="M33.3,1.99c7.24,3.69,14.47,7.38,21.71,11.08c3.64,1.86,6.26,4.52,6.19,8.88c-0.03,2.03,1.27,5.03-2.82,4.95
		c-2.7-0.05-5.63,0.52-5.03-3.84c0.25-1.8-1.06-2.6-2.48-3.32c-5.78-2.95-11.59-5.87-17.29-8.96c-1.91-1.03-3.38-0.65-5.12,0.28
		c-4.54,2.45-9.17,4.73-13.75,7.11c-2.87,1.49-6.06,2.33-5.83,6.95c0.14,2.93-3.1,1.43-4.84,1.72c-1.77,0.29-2.67-0.5-2.81-2.49
		c-0.35-4.98,1.25-8.81,5.86-11.13C14.5,9.49,21.9,5.74,29.3,1.99C30.63,1.99,31.97,1.99,33.3,1.99z"/>
</g>
</svg>
