<?xml version="1.0" encoding="utf-8"?>
<!-- Generator: Adobe Illustrator 23.0.1, SVG Export Plug-In . SVG Version: 6.00 Build 0)  -->
<svg version="1.1" id="katman_1" xmlns="http://www.w3.org/2000/svg" xmlns:xlink="http://www.w3.org/1999/xlink" x="0px" y="0px"
	 viewBox="0 0 92.4 93" style="enable-background:new 0 0 92.4 93;" xml:space="preserve">
<style type="text/css">
	.st0{fill:#5269FF;}
</style>
<title>Group 2 Copy</title>
<desc>Created with Sketch.</desc>
<path id="Shape" class="st0" d="M46.2,0C20.68,0,0,20.68,0,46.2s20.68,46.2,46.2,46.2s46.2-20.68,46.2-46.2
	C92.4,20.68,71.72,0,46.2,0z M65.2,65.5L45.9,76.66v0h-0.01L26.57,65.5V26.86l0.02,0.01l19.29-11.14l12.38,6.91h0v17.44l-6.02-3.46
	v-10.5l-6.35-3.62l-13.3,7.69v32.02l13.3,7.69l13.3-7.66l0.06-13.16L40.36,38.12l6.07-3.19L65.25,45.9L65.2,65.5L65.2,65.5z
	 M49.53,44.94l4.65,2.68l-13.82,7.87V39.62l4.86,2.86v4.76L49.53,44.94L49.53,44.94z"/>
</svg>
