<?xml version="1.0" encoding="utf-8"?>
<!-- Generator: Adobe Illustrator 23.0.1, SVG Export Plug-In . SVG Version: 6.00 Build 0)  -->
<svg version="1.1" id="layer" xmlns="http://www.w3.org/2000/svg" xmlns:xlink="http://www.w3.org/1999/xlink" x="0px" y="0px"
	 viewBox="0 0 253 307" style="enable-background:new 0 0 253 307;" xml:space="preserve">
<style type="text/css">
	.st0{fill:#8F8E8A;}
	.st1{fill:#413B38;}
	.st2{fill:#77CBEC;}
	.st3{fill:#5E5957;}
	.st4{fill:#FFFFFF;}
</style>
<g>
	<path class="st0" d="M27.35,141.9v6.7c-0.3,52.3,15.1,83.2,28.4,100.2l24.6-6.8l12.1-3.3l-1.8-2.6L27.35,141.9z"/>
	<path class="st0" d="M161.85,219.6L161.85,219.6l0.4-1.4l32.1-108.9c-28.5-52.2-76.1-83-78.1-84.3l-4.3-2.7l47.8,197.9
		L161.85,219.6z"/>
	<path class="st1" d="M155.85,226.9l-54.7,15.1l17,25.4l11.6,17.3c4.5-0.2,8.9-0.8,13.3-1.7l12.3-41.8l2.1-7.1L155.85,226.9z"/>
	<path class="st1" d="M59.65,253.4c8.5,9.6,16.6,14.8,20.9,17.1c13.2,8.7,27.9,13.6,42.9,14.1l-27.7-41.2l-9.4,2.6L59.65,253.4z"/>
	<path class="st2" d="M154.55,221.6l-43.2-178.8l-4.5,3.7c-44.8,36.8-61.2,76.7-67.1,104.1l58.2,86.6L154.55,221.6z"/>
	<path class="st3" d="M214.05,205.2c4.4-21.1,6.1-54.5-9.8-96.9l-2.1-5.7L171.85,205l-3.8,12.8l37.3-10.3L214.05,205.2z"/>
	<path class="st1" d="M163.25,234.2L163.25,234.2l4.7,19.6l4.2,17.5c14.4-8.9,34.1-26.3,51.3-59.4l2.2-4.2l-12.1,3.4V211l-32.4,8.9
		l-15,4.1L163.25,234.2z"/>
	<path class="st1" d="M163.25,234.2"/>
	<path class="st1" d="M163.25,234.2"/>
	<path class="st1" d="M153.15,280.2c3.2-1,8.1-2.8,14.1-6l-4.6-19.3l-2.5-10.3l-3,10.3l-7.8,26.5
		C150.55,281,151.85,280.6,153.15,280.2"/>
	<path class="st1" d="M149.25,281.4l7.8-26.5L149.25,281.4z"/>
	<path class="st4" d="M157.65,234"/>
	<path class="st4" d="M155.85,226.9"/>
</g>
</svg>
