<?xml version="1.0" encoding="utf-8"?>
<!-- Generator: Adobe Illustrator 23.0.1, SVG Export Plug-In . SVG Version: 6.00 Build 0)  -->
<svg version="1.1" id="katman_1" xmlns="http://www.w3.org/2000/svg" xmlns:xlink="http://www.w3.org/1999/xlink" x="0px" y="0px"
	 viewBox="0 0 121.94 134.99" style="enable-background:new 0 0 121.94 134.99;" xml:space="preserve">
<style type="text/css">
	.st0{fill:#249DFD;}
	.st1{fill:#1AB1FC;}
	.st2{fill:#1FA6FD;}
	.st3{fill:#5F27D3;}
	.st4{fill:#328DFB;}
	.st5{fill:#1CBEFC;}
	.st6{fill:#4744E2;}
	.st7{fill:#3A5CED;}
	.st8{fill:#326BF4;}
	.st9{fill:#F7C233;}
</style>
<g>
	<path class="st0" d="M96.41,31.39c2.36,1,3.94,2.89,5.46,4.84c-7.03,0.02-14.07,0.06-21.1,0.04c-1.83-0.01-3.65,0.63-5.52-0.36
		c-0.81-0.43-2.26-0.47-2.9,0.89c-2.51-0.28-5.02-0.52-7.55-0.37c-0.2-0.04-0.39-0.08-0.59-0.12c-0.5-0.81-1.04-1.43-1.94-0.44
		c-7.78-0.15-15.58-0.51-23.29,1.04c-1.96-1.45-4.32-1.65-6.6-2.09c0.84-2.02,2.81-2.79,4.4-3.99c0.1,0.46,0.13,0.95,0.81,0.97
		c3.36,0.05,6.71,0.17,10.07,0.18c14.21,0.02,28.41,0.03,42.62-0.02C92.31,31.94,94.36,31.59,96.41,31.39z"/>
	<path class="st0" d="M72.84,98.02c0.48-0.1,0.96-0.19,1.43-0.29c2.97,0,5.94-0.01,8.92,0c5.32,0.02,10.65-0.17,15.97,0.44
		c1.04,0.12,1.6,0.5,1.96,1.39c-1.5,1.08-2.28,3-4.21,3.57c-1.61-0.04-3.23-0.09-4.84-0.13c-11.86-0.27-23.73,0.37-35.6-0.39
		c-5.61-0.36-11.28,0.22-16.92,0.41c-1.03,0.03-2.06,0.22-2.79,1.09c-1.16-0.57-2.08-1.41-2.86-2.43c0.12-1.35,1.01-1.63,2.16-1.57
		c2.31,0.13,4.39-0.78,6.53-1.42c0.47,0.07,0.95,0.13,1.42,0.2c0.2,0.61,0.47,0.94,0.99,0.25c0.63,0.05,1.27,0.09,1.9,0.14
		c1.49,1.59,3.16,0.92,4.81,0.36c1.12,0,2.24,0,3.36,0c1.65,0.57,3.31,1.21,4.81-0.34c0.8-0.05,1.59-0.09,2.39-0.14
		c1.27,0.84,2.3,0.01,3.37-0.48c0.95-0.01,1.9-0.02,2.85-0.02c0.37,0.61,0.69,0.53,0.97-0.07c0.76-0.4,1.58-0.42,2.4-0.36
		C72.34,98.85,72.63,98.63,72.84,98.02z"/>
	<path class="st1" d="M94,105.51c-2.54,2.22-5.38,3.89-8.64,4.8c-1.38-1.43-2.53,0.04-3.67,0.4c-4.57,1.43-9.27,0.53-13.89,0.89
		c-2.84,0.22-5.74-0.33-8.54-0.2c-3.32,0.16-6.4-0.17-9.48-1.32c-1.05-0.39-2.28-1.21-3.46-0.12c-2.77-1.16-5.55-2.29-7.73-4.46
		c1.47-1.16,2.67,0.4,4.06,0.45c2.57,0.09,5.05-0.55,7.6-0.55c10.92,0.01,21.85,0,32.77,0.01c0.87,0,1.74,0.08,2.61,0.18
		c2.42,0.29,4.85,0.89,7.17-0.5C93.24,104.82,93.72,105.02,94,105.51z"/>
	<path class="st2" d="M96.41,31.39c-2.05,0.19-4.09,0.55-6.14,0.55c-14.21,0.05-28.41,0.04-42.62,0.02c-3.36,0-6.71-0.12-10.07-0.18
		c-0.68-0.01-0.71-0.5-0.81-0.97c1.06-1.24,2.42-2.08,3.84-2.83c0.62,1.71,1.88,0.6,2.85,0.61c15.85,0.15,31.71-0.27,47.55,0.26
		c0.8,0.03,0.98-0.25,1.07-0.86C93.7,28.9,95.49,29.59,96.41,31.39z"/>
	<path class="st1" d="M92.08,27.99c-0.1,0.61-0.27,0.89-1.07,0.86c-15.85-0.52-31.7-0.1-47.55-0.26c-0.96-0.01-2.23,1.1-2.85-0.61
		c2.28-1.51,4.61-2.92,7.27-3.69c0.19,1.2,1.13,1.09,1.84,0.85c1.34-0.45,2.68-0.32,4.03-0.38c5.11-0.25,10.19,0.96,15.29,0.44
		c3.98-0.4,7.95-0.43,11.94-0.44c1.56,0,3.13,0.71,4.66-0.12C88.01,25.32,90.13,26.49,92.08,27.99z"/>
	<path class="st2" d="M94,105.51c-0.28-0.49-0.76-0.69-1.21-0.42c-2.32,1.39-4.75,0.79-7.17,0.5c-0.87-0.1-1.74-0.18-2.61-0.18
		c-10.92-0.01-21.85,0-32.77-0.01c-2.54,0-5.03,0.64-7.6,0.55c-1.38-0.05-2.58-1.61-4.06-0.45c-0.79-0.23-1.36-0.74-1.83-1.38
		c0.73-0.87,1.76-1.06,2.79-1.09c5.64-0.19,11.31-0.77,16.92-0.41c11.87,0.76,23.74,0.12,35.6,0.39c1.61,0.04,3.23,0.08,4.84,0.13
		C96.28,104.35,95.12,104.9,94,105.51z"/>
	<path class="st3" d="M38.97,36.91c7.71-1.55,15.5-1.19,23.29-1.04c0.54,0.6,1.25,0.46,1.94,0.44c0.2,0.04,0.39,0.08,0.59,0.12
		c-2.55,0.54-5.12,0.98-7.65,1.62c-3.72,0.95-6.98,2.9-10.17,4.97c-4.89-0.73-9.82-0.65-14.72-0.36c-1.65,0.1-1.74-0.35-1.64-1.56
		c0,0,0-0.01,0-0.01c0.16-0.13,0.32-0.27,0.48-0.4c0.68-0.51,1.44-0.87,2.21-1.26C35.15,38.5,37.35,38.33,38.97,36.91z"/>
	<path class="st4" d="M72.34,36.8c0.64-1.36,2.09-1.32,2.9-0.89c1.87,0.99,3.69,0.36,5.52,0.36c7.03,0.02,14.07-0.02,21.1-0.04
		c1.72,1.44,0.75,2.46-0.57,3.34c-5.68,3.83-11.75,4.28-17.93,1.58C79.73,39.58,76.19,37.82,72.34,36.8z"/>
	<path class="st3" d="M62.27,99.16c-0.8,0.05-1.59,0.09-2.39,0.14c-1.61,0-3.26-0.45-4.81,0.34c-1.12,0-2.24,0-3.36,0
		c-1.56-0.77-3.2-0.34-4.81-0.36c-0.63-0.05-1.27-0.09-1.9-0.14c-0.26-0.36-0.61-0.38-0.99-0.25c-0.47-0.07-0.95-0.13-1.42-0.2
		c-4.39-1.22-8.85-2.27-12.49-5.27c0.1-0.82,0.54-0.96,1.33-0.83c4.15,0.7,8.34,0.19,12.51,0.28c0.91,0.02,1.88-0.24,2.55-1.02
		c1.68,0.4,2.84,1.7,4.27,2.52c4.15,2.39,8.74,3.26,13.36,4.08C63.54,98.81,62.71,98.47,62.27,99.16z"/>
	<path class="st5" d="M85.63,24.65c-1.53,0.83-3.11,0.12-4.66,0.12c-3.98,0-7.96,0.03-11.94,0.44c-5.09,0.51-10.17-0.69-15.29-0.44
		c-1.35,0.07-2.69-0.07-4.03,0.38c-0.72,0.24-1.66,0.35-1.84-0.85c4.51-2.51,9.51-3.24,14.51-3.65c7.48-0.61,14.83,0.3,21.85,3.14
		C84.75,24,85.31,24.13,85.63,24.65z"/>
	<path class="st6" d="M46.48,91.87c-0.67,0.78-1.64,1.04-2.55,1.02c-4.17-0.09-8.36,0.43-12.51-0.28c-0.79-0.13-1.23,0.01-1.33,0.83
		c-2.03-0.69-3.1-2.8-5.14-3.47c-0.86-1.1-1.49-2.31-1.83-3.67c5.84-0.4,11.73,0.46,17.55-0.55C42.62,87.79,44.55,89.83,46.48,91.87
		z"/>
	<path class="st4" d="M101.11,99.57c-0.35-0.89-0.91-1.27-1.96-1.39c-5.31-0.61-10.64-0.41-15.97-0.44c-2.97-0.01-5.94,0-8.92,0
		c4.89-1.37,8.99-4.77,14.18-5.42c4.55-0.57,8.7,0.36,12.51,2.84C103.76,96.97,103.75,97.35,101.11,99.57z"/>
	<path class="st7" d="M42.58,46.86c-0.87,1.77-2.18,3.24-3.38,4.78c-5.59-0.07-11.19,0.32-16.76-0.46
		c-0.04-0.22-0.09-0.44-0.13-0.66c0.17-0.43,0.34-0.86,0.51-1.28c0.49-0.18,0.57-0.56,0.49-1.02c0.13-0.3,0.27-0.6,0.4-0.9
		c0.63-0.11,0.72-1.03,1.46-0.99c0.95,0.53,1.98,0.53,3.03,0.53C32.99,46.85,37.78,46.86,42.58,46.86z"/>
	<path class="st5" d="M46.32,109.97c1.18-1.09,2.41-0.27,3.46,0.12c3.09,1.15,6.16,1.48,9.48,1.32c2.81-0.13,5.7,0.42,8.54,0.2
		c4.62-0.36,9.32,0.54,13.89-0.89c1.14-0.36,2.29-1.83,3.67-0.4c-2.97,2.01-6.42,2.71-9.82,3.35c-9.69,1.8-19.13,0.75-28.24-3.06
		C46.95,110.46,46.64,110.18,46.32,109.97z"/>
	<path class="st6" d="M42.58,46.86c-4.8,0-9.59-0.01-14.39,0.01c-1.05,0-2.08,0.01-3.02-0.53c1.03-2.56,3.18-3.95,5.44-5.23
		c-0.09,1.2,0,1.65,1.64,1.56c4.9-0.29,9.83-0.37,14.72,0.36C45.51,44.3,44.04,45.58,42.58,46.86z"/>
	<path class="st6" d="M21.15,62.54c0.9-1.39,2.13-2.26,3.82-2.38c0.45,0.13,0.91,0.17,1.2,0.65c1.93,3.16,3.95,6.26,5.78,9.48
		c0.63,1.1,1.33,1.68,2.55,1.71c-0.78,1.63-1.84,2.94-3.72,3.34c-2.46-0.43-2.88-2.73-3.95-4.39
		C24.99,68.09,23.82,64.82,21.15,62.54z"/>
	<path class="st8" d="M22.12,83.91c-2.21-3.89-2.02-4.24,2.32-4.24c3.17,0,6.37,0.24,9.51-0.07c3.06-0.3,4.58,0.97,5.25,3.74
		c-1.73,0.08-3.46,0.33-5.17,0.21C30.03,83.25,26.07,83.42,22.12,83.91z"/>
	<path class="st9" d="M30.77,75.33c1.88-0.4,2.94-1.71,3.72-3.34c0.77-0.6,0.88-1.49,1-2.35c0.69-4.67-1.51-7.8-5.42-9.98
		c3.3-0.76,5.77,0.65,7.62,3.18c2.14,2.92,2.23,7.05,0.32,9.88c-1.87,2.78-4.37,4.34-7.88,3.64C30.35,76.01,30.56,75.67,30.77,75.33
		z"/>
	<path class="st3" d="M30.08,59.66c3.91,2.19,6.11,5.31,5.42,9.98c-0.13,0.86-0.24,1.75-1,2.35c-1.22-0.03-1.92-0.61-2.55-1.71
		c-1.83-3.21-3.85-6.32-5.78-9.48c-0.29-0.48-0.75-0.52-1.2-0.65C26.56,58.83,28.36,59.6,30.08,59.66z"/>
	<path class="st4" d="M24.96,89.97c2.04,0.67,3.11,2.78,5.14,3.47c3.64,3,8.1,4.05,12.49,5.27c-2.14,0.64-4.22,1.55-6.53,1.42
		c-1.15-0.07-2.04,0.22-2.16,1.57C30.28,98.27,26.91,94.66,24.96,89.97z"/>
	<path class="st8" d="M22.44,51.18c5.57,0.78,11.17,0.39,16.76,0.46c-0.28,1.08-0.87,2-1.53,2.89c-4.76,0.01-9.52-0.04-14.28,0.04
		c-1.69,0.03-2.22-0.48-1.47-2.06C22.11,52.08,22.26,51.62,22.44,51.18z"/>
	<path class="st7" d="M22.12,83.91c3.95-0.49,7.91-0.66,11.9-0.36c1.71,0.13,3.45-0.13,5.17-0.21c0.52,0.79,1.3,1.42,1.5,2.41
		c-5.83,1-11.71,0.15-17.55,0.55C22.43,85.65,22.25,84.79,22.12,83.91z"/>
	<path class="st4" d="M30.61,41.11c-2.26,1.28-4.41,2.66-5.44,5.23c-0.74-0.04-0.83,0.87-1.46,0.98c1.27-3.55,3.37-6.59,5.8-9.42
		c0.91-1.07,1.91-2.06,2.86-3.09c2.28,0.44,4.64,0.65,6.6,2.09c-1.63,1.42-3.82,1.59-5.67,2.54c-0.76,0.39-1.52,0.74-2.21,1.26
		C30.93,40.83,30.77,40.97,30.61,41.11L30.61,41.11z"/>
	<path class="st8" d="M27.22,76.38c-3.48,0.33-5.79-1.59-7.25-4.35c-1.41-2.67-1.68-5.59,0.36-8.26c0.22,1.78,0.99,3.31,1.97,4.79
		C24,71.13,25.59,73.77,27.22,76.38z"/>
	<path class="st7" d="M27.22,76.38c-1.63-2.61-3.22-5.25-4.92-7.81c-0.98-1.48-1.75-3.02-1.97-4.79c0.04-0.56,0.3-0.99,0.82-1.23
		c2.66,2.28,3.83,5.56,5.67,8.4c1.07,1.66,1.5,3.96,3.95,4.39c-0.21,0.34-0.42,0.69-0.63,1.03C29.17,76.15,28.2,76.81,27.22,76.38z"
		/>
	<path class="st4" d="M22.44,51.18c-0.17,0.44-0.32,0.89-0.52,1.32c-0.74,1.58-0.22,2.09,1.47,2.06c4.76-0.08,9.52-0.04,14.28-0.04
		c-0.45,1.13-1.45,0.77-2.26,0.78c-4.13,0.03-8.26,0.02-12.39,0.01c-2.61,0-2.71-0.12-1.85-2.49c0.29-0.8,0.38-1.73,1.15-2.3
		C22.35,50.74,22.39,50.96,22.44,51.18z"/>
	<path class="st4" d="M62.27,99.16c0.44-0.69,1.27-0.35,1.84-0.69c0.55-0.22,1.06-0.17,1.54,0.21C64.57,99.17,63.54,100,62.27,99.16
		z"/>
	<path class="st4" d="M23.31,48.22c0.08,0.46,0,0.84-0.49,1.02C22.61,48.72,22.88,48.43,23.31,48.22z"/>
	<path class="st4" d="M72.84,98.02c-0.21,0.6-0.5,0.82-0.96,0.2C72.15,97.93,72.47,97.86,72.84,98.02z"/>
	<path class="st4" d="M69.47,98.59c-0.28,0.6-0.6,0.68-0.97,0.07C68.81,98.39,69.13,98.36,69.47,98.59z"/>
	<path class="st4" d="M64.2,36.31c-0.69,0.03-1.39,0.16-1.94-0.44C63.16,34.88,63.7,35.5,64.2,36.31z"/>
	<path class="st4" d="M46.9,99.29c1.61,0.02,3.26-0.41,4.81,0.36C50.06,100.21,48.39,100.88,46.9,99.29z"/>
	<path class="st4" d="M55.07,99.65c1.56-0.8,3.2-0.34,4.81-0.34C58.38,100.86,56.72,100.22,55.07,99.65z"/>
	<path class="st4" d="M44.01,98.91c0.38-0.13,0.73-0.11,0.99,0.25C44.47,99.85,44.21,99.51,44.01,98.91z"/>
	<path class="st6" d="M30.61,41.1c0.16-0.13,0.32-0.27,0.48-0.4C30.93,40.84,30.77,40.97,30.61,41.1z"/>
</g>
</svg>
