<?xml version="1.0" encoding="utf-8"?>
<!-- Generator: Adobe Illustrator 23.0.1, SVG Export Plug-In . SVG Version: 6.00 Build 0)  -->
<svg version="1.1" id="katman_1" xmlns="http://www.w3.org/2000/svg" xmlns:xlink="http://www.w3.org/1999/xlink" x="0px" y="0px"
	 viewBox="0 0 283 235" style="enable-background:new 0 0 283 235;" xml:space="preserve">
<style type="text/css">
	.st0{fill:#2BBFE0;}
	.st1{fill:#2685C0;}
	.st2{fill:#254FA3;}
	.st3{fill:#2257A6;}
	.st4{fill:#217CBB;}
	.st5{fill:#2463AD;}
	.st6{fill:#1FA8D4;}
	.st7{fill:#1F6DB2;}
	.st8{fill:#269ACC;}
	.st9{fill:#1B73B5;}
	.st10{fill:#2491C7;}
	.st11{fill:#26A0CF;}
	.st12{fill:#1DB0D8;}
	.st13{fill:#22B8DD;}
</style>
<g>
	<path class="st0" d="M160.28,25.13c0,10.64,0,21.29,0,31.93c0,0.4-0.03,0.8-0.04,1.19c-0.82,0.16-1.63,0.33-2.45,0.47
		c-5.74,1.01-11.48,2.01-17.22,3.02c-4.26,0.75-8.51,1.52-12.76,2.26c-5.7,1-11.41,1.97-17.11,2.97c-5.11,0.9-10.22,1.85-15.33,2.76
		c-0.37,0.07-0.81,0.16-1.11-0.24c1.94-1.24,3.86-2.52,5.83-3.72c6.17-3.76,12.19-7.74,18.18-11.76
		c6.41-4.31,12.76-8.72,19.11-13.12c6.06-4.2,12.1-8.43,18.15-12.67c1.44-1.01,2.84-2.07,4.27-3.1
		C159.96,25.13,160.12,25.13,160.28,25.13z"/>
	<path class="st1" d="M252.88,118.25c-0.06,4.88,0.34,9.77-0.24,14.64c-0.39-0.04-0.79-0.06-1.18-0.13
		c-2.89-0.51-5.78-1.03-8.67-1.54c-4.88-0.86-9.77-1.69-14.65-2.55c-4.65-0.82-9.29-1.67-13.94-2.49
		c-5.35-0.94-10.71-1.85-16.06-2.79c-4.65-0.82-9.29-1.67-13.94-2.49c-5.74-1.01-11.48-2.03-17.23-3c-2.23-0.38-4.43-0.92-6.69-1.08
		c0-4.96,0-9.92,0-14.88c5.31,0.95,10.62,1.92,15.93,2.85c8.91,1.56,17.83,3.07,26.74,4.62c8.64,1.5,17.27,3.03,25.9,4.56
		C236.87,115.38,244.87,116.82,252.88,118.25z"/>
	<path class="st2" d="M106.95,163.97c-4.99,3.13-10.08,6.08-15.2,8.98c-5.85,3.32-11.85,6.34-17.9,9.25
		c-7.55,3.62-15.34,6.66-23.33,9.17c-5.1,1.6-10.3,2.78-15.57,3.63c-2.59,0.42-5.23,0.67-7.87,0.83c-2.11,0.13-4.21,0.27-6.31,0.15
		c-2.4-0.14-4.22-0.92-4.83-3.26c-0.07-0.27-0.15-0.52-0.15-0.8c0.01-4.08,0.02-8.15,0.04-12.23c0.4-0.02,0.8,0.01,1.19-0.05
		c3-0.53,6-1.1,9.01-1.63c5.15-0.91,10.31-1.77,15.46-2.69c4.72-0.84,9.43-1.74,14.15-2.58c5.31-0.94,10.63-1.8,15.94-2.73
		c4.68-0.82,9.36-1.71,14.04-2.55c5.31-0.95,10.61-1.92,15.93-2.77C103.34,164.41,105.09,163.76,106.95,163.97z"/>
	<path class="st3" d="M172.02,62.07c3.14-1.86,6.35-3.6,9.56-5.36c4.01-2.19,8.13-4.14,12.21-6.2c0.17-0.09,0.36-0.13,0.54-0.19
		c0.76,0.5,1.65,0.57,2.5,0.72c5.19,0.92,10.38,1.79,15.57,2.71c4.72,0.84,9.43,1.73,14.14,2.57c5.77,1.03,11.54,2.03,17.32,3.03
		c3,0.52,6.01,1.03,9.02,1.54c0,5.2,0,10.4,0,15.6c-1.37-0.21-2.75-0.39-4.11-0.63c-4.65-0.82-9.29-1.66-13.94-2.48
		c-5.35-0.94-10.7-1.85-16.05-2.79c-4.65-0.82-9.29-1.67-13.94-2.49c-4.88-0.86-9.76-1.7-14.64-2.56
		c-4.77-0.83-9.54-1.63-14.29-2.52C174.6,62.77,173.2,62.85,172.02,62.07z"/>
	<path class="st4" d="M252.88,118.25c-8-1.43-16.01-2.87-24.01-4.29c-8.63-1.53-17.27-3.05-25.9-4.56
		c-8.91-1.55-17.83-3.07-26.74-4.62c-5.31-0.93-10.62-1.9-15.93-2.85c0-3.84,0-7.68,0-11.52c0.56,0.03,1.1,0,1.67,0.1
		c3.39,0.63,6.79,1.22,10.19,1.81c4.84,0.85,9.69,1.67,14.53,2.53c4.69,0.83,9.37,1.68,14.05,2.51c4.84,0.86,9.69,1.68,14.53,2.54
		c4.65,0.82,9.29,1.67,13.94,2.5c4.92,0.87,9.84,1.74,14.76,2.59c2.97,0.51,5.94,1,8.92,1.5
		C252.88,110.41,252.88,114.33,252.88,118.25z"/>
	<path class="st5" d="M172.02,62.07c1.18,0.79,2.58,0.71,3.88,0.95c4.75,0.89,9.53,1.69,14.29,2.52c4.88,0.85,9.76,1.7,14.64,2.56
		c4.65,0.82,9.29,1.67,13.94,2.49c5.35,0.94,10.7,1.85,16.05,2.79c4.65,0.82,9.29,1.66,13.94,2.48c1.36,0.24,2.74,0.42,4.11,0.63
		c0,4.08,0,8.16,0,12.24c-0.39-0.04-0.79-0.06-1.18-0.13c-3.28-0.59-6.56-1.2-9.84-1.78c-4.92-0.87-9.84-1.72-14.76-2.59
		c-4.61-0.81-9.22-1.65-13.82-2.46c-4.88-0.86-9.77-1.69-14.65-2.55c-4.65-0.82-9.29-1.67-13.94-2.49
		c-5.35-0.94-10.7-1.88-16.06-2.78c-2.78-0.46-5.51-1.2-8.34-1.31c-0.14-1.12,0.28-2.29-0.26-3.38c0.09-0.08,0.18-0.17,0.27-0.25
		c2.9-1.74,5.8-3.48,8.7-5.21C169.99,63.22,171.01,62.65,172.02,62.07z"/>
	<path class="st6" d="M15.84,105.05c-0.01-1.76-0.07-3.51-0.03-5.27c0.05-2.11,1.99-3.9,4.28-3.83c2.55,0.08,5.1-0.1,7.62-0.31
		c5.15-0.43,10.24-1.36,15.24-2.72c3.39-0.92,6.74-2,10.07-3.12c0.22-0.07,0.46-0.1,0.69-0.14c0.26,0.36,0.65,0.3,0.99,0.25
		c1.14-0.18,2.26-0.4,3.4-0.6c4.65-0.83,9.29-1.67,13.94-2.49c5.74-1.01,11.49-2.01,17.23-3.02c4.26-0.75,8.51-1.52,12.77-2.27
		c4.88-0.86,9.77-1.7,14.65-2.56c4.65-0.82,9.29-1.66,13.94-2.48c5.74-1.01,11.48-2.04,17.23-3.01c2.3-0.39,4.58-1,6.93-1.07
		c-0.13,0.14-0.24,0.32-0.4,0.42c-5.41,3.36-10.67,6.93-15.95,10.47c-0.32,0.22-0.67,0.44-1.09,0.44c-0.32,0.01-0.64-0.03-0.95,0.02
		c-2.89,0.52-5.77,1.07-8.66,1.57c-7.07,1.23-14.15,2.43-21.22,3.66c-6.76,1.18-13.51,2.39-20.27,3.57
		c-7.77,1.37-15.55,2.72-23.32,4.09c-8.16,1.44-16.32,2.87-24.48,4.32C30.9,102.34,23.37,103.7,15.84,105.05z"/>
	<path class="st0" d="M156.21,174.19c-2.31,1.83-4.86,3.29-7.28,4.97c-8.1,5.62-16.2,11.24-24.31,16.86
		c-5.17,3.58-10.34,7.14-15.51,10.73c-0.26,0.18-0.49,0.39-0.92,0.38c0-0.23,0-0.46,0-0.69c0-13.4,0-26.8,0-40.19
		c0-0.24,0.03-0.48,0.04-0.72c4.49,0.8,8.98,1.6,13.47,2.4c5.35,0.95,10.7,1.91,16.05,2.85c4.34,0.76,8.7,1.4,13.02,2.25
		C152.59,173.38,154.49,173.38,156.21,174.19z"/>
	<path class="st7" d="M15.84,162.65c0-3.36,0-6.72,0-10.08c0.39-0.04,0.79-0.06,1.18-0.13c2.89-0.51,5.78-1.03,8.67-1.54
		c5.78-1.02,11.56-2.03,17.34-3.05c4.61-0.82,9.21-1.65,13.82-2.47c5.78-1.02,11.56-2.02,17.34-3.04c3.75-0.66,7.5-1.34,11.25-2
		c4.92-0.87,9.84-1.76,14.77-2.57c2.66-0.44,5.28-1.11,7.99-1.28c0,3.36,0,6.72,0,10.08c-0.47,0.04-0.96,0.04-1.42,0.12
		c-3.79,0.67-7.57,1.36-11.36,2.03c-4.88,0.86-9.77,1.7-14.65,2.56c-4.65,0.82-9.29,1.66-13.94,2.48
		c-4.84,0.85-9.69,1.67-14.53,2.53c-4.69,0.83-9.37,1.69-14.05,2.51c-4.84,0.86-9.69,1.7-14.53,2.53
		C21.08,161.79,18.46,162.21,15.84,162.65z"/>
	<path class="st8" d="M228.93,138.44c-3.69,1.07-7.44,1.96-11.08,3.23c-5.69,1.98-11.29,4.17-16.71,6.8
		c-0.31,0.15-0.67,0.19-1.01,0.29c-0.14-0.32-0.4-0.45-0.74-0.51c-2.62-0.46-5.23-0.97-7.85-1.42c-7.54-1.31-15.09-2.59-22.63-3.9
		c-6.76-1.18-13.52-2.35-20.27-3.61c-1.01-0.19-2.19,0.02-3-0.88c4.04-2.79,8.09-5.58,12.13-8.36c1.38-0.95,3.06-1.71,2.53-3.89
		c0.28,0.01,0.56-0.02,0.84,0.02c4.1,0.72,8.19,1.44,12.29,2.17c8.15,1.44,16.31,2.87,24.46,4.32c8.5,1.51,17.01,2.99,25.51,4.56
		C225.25,137.58,227.18,137.59,228.93,138.44z"/>
	<path class="st1" d="M15.84,136.73c0-3.28,0-6.56,0-9.84c0.24-0.02,0.48-0.01,0.72-0.05c3.35-0.62,6.7-1.27,10.06-1.86
		c5.31-0.93,10.63-1.8,15.95-2.74c4.69-0.82,9.36-1.71,14.05-2.54c5.78-1.03,11.56-2.02,17.34-3.04c3.75-0.66,7.49-1.34,11.24-2
		c4.92-0.87,9.83-1.77,14.76-2.57c2.74-0.44,5.43-1.18,8.23-1.28c0,3.28,0,6.56,0,9.84c-0.31,0.04-0.63,0.07-0.94,0.12
		c-3.79,0.68-7.57,1.36-11.36,2.03c-4.88,0.86-9.77,1.7-14.65,2.56c-4.65,0.82-9.29,1.66-13.94,2.48
		c-5.74,1.01-11.48,2.01-17.22,3.02c-4.26,0.75-8.51,1.51-12.77,2.26c-4.84,0.85-9.69,1.69-14.53,2.52
		C20.46,136.03,18.19,136.64,15.84,136.73z"/>
	<path class="st9" d="M108.19,136.49c-2.7,0.16-5.33,0.84-7.99,1.28c-4.93,0.81-9.85,1.71-14.77,2.57c-3.75,0.66-7.5,1.34-11.25,2
		c-5.78,1.02-11.56,2.02-17.34,3.04c-4.61,0.81-9.21,1.65-13.82,2.47c-5.78,1.02-11.56,2.03-17.34,3.05
		c-2.89,0.51-5.78,1.03-8.67,1.54c-0.39,0.07-0.79,0.09-1.18,0.13c0-3.2,0-6.4,0-9.6c3.16-0.56,6.33-1.13,9.49-1.68
		c7.86-1.37,15.71-2.73,23.57-4.12c7.07-1.25,14.14-2.53,21.2-3.79c5.35-0.96,10.7-1.91,16.05-2.85c3.87-0.68,7.75-1.31,11.62-1.99
		c3.48-0.61,6.95-1.26,10.42-1.9C108.19,129.93,108.19,133.21,108.19,136.49z"/>
	<path class="st10" d="M108.18,110.81c-2.79,0.1-5.49,0.84-8.23,1.28c-4.93,0.8-9.85,1.7-14.76,2.57c-3.75,0.66-7.49,1.34-11.24,2
		c-5.78,1.02-11.56,2.01-17.34,3.04c-4.69,0.83-9.36,1.72-14.05,2.54c-5.31,0.93-10.63,1.81-15.95,2.74
		c-3.36,0.59-6.71,1.24-10.06,1.86c-0.23,0.04-0.48,0.04-0.72,0.05c0-3.2,0-6.4,0-9.6c1.56,0.04,3.07-0.37,4.59-0.63
		c4.65-0.81,9.29-1.66,13.93-2.48c4.88-0.86,9.76-1.7,14.64-2.56c4.64-0.82,9.29-1.66,13.93-2.48c5.74-1.01,11.48-2.01,17.21-3.02
		c4.25-0.75,8.51-1.52,12.76-2.26c4.88-0.86,9.76-1.71,14.64-2.54c1.75-0.3,3.48-0.79,5.28-0.78c-0.09,0.38-0.38,0.56-0.69,0.76
		c-1.05,0.69-2.07,1.45-3.12,2.14c-0.58,0.38-0.85,0.8-0.83,1.54C108.23,106.92,108.18,108.86,108.18,110.81z"/>
	<path class="st2" d="M252.88,60.89c-3.01-0.51-6.01-1.02-9.02-1.54c-5.77-1-11.55-2.01-17.32-3.03c-4.72-0.84-9.43-1.74-14.14-2.57
		c-5.19-0.92-10.38-1.79-15.57-2.71c-0.85-0.15-1.74-0.22-2.5-0.72c2.32-1.07,4.62-2.21,6.98-3.21c4.77-2,9.58-3.89,14.51-5.47
		c5.12-1.65,10.31-3.01,15.6-3.98c2.77-0.51,5.59-0.81,8.41-1.07c2.91-0.26,5.81-0.15,8.71-0.15c1.95,0,3.97,1.5,4.14,3.87
		C253.18,47.17,252.82,54.03,252.88,60.89z"/>
	<path class="st5" d="M15.84,162.65c2.62-0.44,5.24-0.86,7.86-1.31c4.85-0.83,9.69-1.68,14.53-2.53c4.69-0.83,9.37-1.69,14.05-2.51
		c4.84-0.85,9.69-1.68,14.53-2.53c4.65-0.82,9.29-1.66,13.94-2.48c4.88-0.86,9.77-1.7,14.65-2.56c3.79-0.67,7.57-1.36,11.36-2.03
		c0.47-0.08,0.95-0.08,1.42-0.12c0,2.96,0,5.92,0,8.88c-0.78,0.11-1.57,0.21-2.35,0.35c-3.79,0.68-7.57,1.37-11.36,2.04
		c-4.92,0.87-9.84,1.72-14.76,2.59c-4.61,0.81-9.22,1.64-13.83,2.45c-4.88,0.86-9.77,1.7-14.65,2.56
		c-4.65,0.82-9.29,1.67-13.94,2.48c-4.84,0.85-9.69,1.69-14.54,2.52c-2.31,0.39-4.58,1-6.93,1.09
		C15.84,168.57,15.84,165.61,15.84,162.65z"/>
	<path class="st7" d="M160.28,72.65c2.83,0.11,5.57,0.85,8.34,1.31c5.36,0.89,10.71,1.84,16.06,2.78c4.65,0.82,9.29,1.67,13.94,2.49
		c4.88,0.86,9.77,1.69,14.65,2.55c4.61,0.81,9.22,1.64,13.82,2.46c4.92,0.87,9.84,1.71,14.76,2.59c3.28,0.58,6.56,1.19,9.84,1.78
		c0.39,0.07,0.79,0.09,1.18,0.13c0,2.96,0,5.92,0,8.88c-0.36-0.03-0.72-0.03-1.07-0.09c-3.4-0.6-6.79-1.22-10.19-1.82
		c-4.92-0.87-9.84-1.72-14.76-2.58c-4.61-0.81-9.21-1.65-13.82-2.46c-4.88-0.86-9.77-1.69-14.65-2.55
		c-4.65-0.82-9.29-1.67-13.94-2.49c-5.74-1.01-11.48-2.03-17.23-3c-2.31-0.39-4.58-0.99-6.93-1.08
		C160.28,78.57,160.28,75.61,160.28,72.65z"/>
	<path class="st9" d="M160.28,81.53c2.35,0.09,4.63,0.69,6.93,1.08c5.75,0.97,11.49,1.99,17.23,3c4.65,0.82,9.29,1.67,13.94,2.49
		c4.88,0.86,9.77,1.69,14.65,2.55c4.61,0.81,9.22,1.64,13.82,2.46c4.92,0.87,9.84,1.72,14.76,2.58c3.4,0.6,6.79,1.22,10.19,1.82
		c0.35,0.06,0.71,0.06,1.07,0.09c0,2.96,0,5.92,0,8.88c-2.97-0.5-5.95-0.98-8.92-1.5c-4.92-0.85-9.84-1.72-14.76-2.59
		c-4.65-0.82-9.29-1.68-13.94-2.5c-4.84-0.86-9.69-1.68-14.53-2.54c-4.69-0.83-9.37-1.69-14.05-2.51
		c-4.84-0.85-9.69-1.68-14.53-2.53c-3.4-0.59-6.8-1.18-10.19-1.81c-0.56-0.1-1.11-0.07-1.67-0.1
		C160.28,87.45,160.28,84.49,160.28,81.53z"/>
	<path class="st10" d="M228.93,138.44c-1.75-0.84-3.68-0.85-5.53-1.2c-8.49-1.57-17-3.05-25.51-4.56
		c-8.15-1.44-16.31-2.88-24.46-4.32c-4.1-0.72-8.19-1.45-12.29-2.17c-0.27-0.05-0.56-0.02-0.84-0.02c0-3.12,0-6.24-0.01-9.36
		c2.26,0.16,4.46,0.7,6.69,1.08c5.75,0.98,11.49,1.99,17.23,3c4.65,0.82,9.29,1.67,13.94,2.49c5.35,0.94,10.71,1.85,16.06,2.79
		c4.65,0.82,9.29,1.67,13.94,2.49c4.88,0.86,9.77,1.7,14.65,2.55c2.89,0.51,5.78,1.03,8.67,1.54c0.39,0.07,0.79,0.09,1.18,0.13
		c-0.54,2.39-2.11,3.55-4.91,3.6c-1.12,0.02-2.24-0.01-3.36,0.01c-4.82,0.09-9.56,0.78-14.27,1.8
		C229.72,138.37,229.32,138.39,228.93,138.44z"/>
	<path class="st3" d="M15.83,171.53c2.35-0.09,4.62-0.7,6.93-1.09c4.85-0.82,9.69-1.67,14.54-2.52c4.65-0.82,9.29-1.66,13.94-2.48
		c4.88-0.86,9.77-1.7,14.65-2.56c4.61-0.81,9.22-1.64,13.83-2.45c4.92-0.87,9.84-1.72,14.76-2.59c3.79-0.67,7.57-1.37,11.36-2.04
		c0.78-0.14,1.57-0.23,2.35-0.35c0,2.57,0.01,5.13,0.01,7.7c-0.01,0.08-0.02,0.15-0.03,0.23c-0.53-0.05-0.74,0.55-1.22,0.6
		c-1.86-0.21-3.61,0.44-5.4,0.72c-5.32,0.85-10.62,1.82-15.93,2.77c-4.68,0.84-9.35,1.72-14.04,2.55
		c-5.31,0.93-10.63,1.8-15.94,2.73c-4.72,0.83-9.43,1.74-14.15,2.58c-5.15,0.92-10.31,1.78-15.46,2.69c-3.01,0.53-6,1.09-9.01,1.63
		c-0.39,0.07-0.8,0.04-1.19,0.05C15.84,176.97,15.84,174.25,15.83,171.53z"/>
	<path class="st8" d="M112.82,100.54c-1.8-0.01-3.53,0.48-5.28,0.77c-4.88,0.83-9.76,1.69-14.64,2.54
		c-4.25,0.75-8.51,1.51-12.76,2.26c-5.74,1.01-11.48,2-17.21,3.02c-4.64,0.82-9.29,1.66-13.93,2.48c-4.88,0.86-9.76,1.7-14.64,2.56
		c-4.64,0.82-9.28,1.67-13.93,2.48c-1.52,0.27-3.02,0.68-4.59,0.63c0-2.32,0-4.64,0-6.96c0.32,0,0.65,0.04,0.96-0.02
		c4.72-0.83,9.45-1.68,14.17-2.52c4.64-0.83,9.29-1.68,13.93-2.49c4.84-0.85,9.69-1.66,14.53-2.52c5.15-0.91,10.3-1.85,15.46-2.76
		c4.88-0.86,9.77-1.69,14.65-2.55c4.65-0.82,9.29-1.67,13.93-2.49c4.88-0.86,9.76-1.74,14.65-2.54c2.85-0.47,5.66-1.28,8.58-1.3
		c-0.1,0.12-0.18,0.28-0.3,0.36c-3.45,2.37-6.89,4.75-10.35,7.09C115,99.29,114.06,100.17,112.82,100.54z"/>
	<path class="st11" d="M126.69,91.14c-2.92,0.03-5.72,0.84-8.58,1.3c-4.89,0.8-9.77,1.68-14.65,2.54
		c-4.65,0.82-9.29,1.67-13.93,2.49c-4.88,0.86-9.77,1.69-14.65,2.55c-5.15,0.91-10.3,1.86-15.46,2.76
		c-4.84,0.85-9.69,1.66-14.53,2.52c-4.65,0.82-9.29,1.66-13.93,2.49c-4.72,0.84-9.44,1.69-14.17,2.52
		c-0.31,0.05-0.64,0.01-0.96,0.02c0-1.76,0-3.52,0-5.28c7.53-1.35,15.06-2.71,22.6-4.05c8.16-1.45,16.32-2.89,24.48-4.32
		c7.77-1.37,15.55-2.72,23.32-4.09c6.76-1.19,13.51-2.39,20.27-3.57c7.07-1.23,14.15-2.43,21.22-3.66c2.89-0.5,5.77-1.06,8.66-1.57
		c0.31-0.05,0.63-0.02,0.94-0.02c-0.12,0.43-0.49,0.59-0.82,0.81c-1.34,0.91-2.65,1.85-4,2.75
		C130.58,88.61,128.63,89.86,126.69,91.14z"/>
	<path class="st12" d="M154.77,72.42c-2.35,0.07-4.63,0.68-6.93,1.07c-5.75,0.97-11.49,1.99-17.23,3.01
		c-4.65,0.82-9.29,1.66-13.94,2.48c-4.88,0.86-9.77,1.7-14.65,2.56c-4.26,0.75-8.51,1.52-12.77,2.27c-5.74,1.01-11.49,2-17.23,3.02
		c-4.65,0.82-9.29,1.66-13.94,2.49c-1.13,0.2-2.26,0.42-3.4,0.6c-0.34,0.05-0.73,0.12-0.99-0.25c1.34-0.82,2.87-1.16,4.31-1.74
		c5.89-2.38,11.64-5.05,17.29-7.94c0.24-0.12,0.49-0.22,0.74-0.34c0.66,0.48,1.31,0.07,1.95-0.04c5.39-0.95,10.78-1.9,16.16-2.86
		c4.53-0.8,9.06-1.61,13.59-2.41c5.78-1.02,11.56-2.02,17.34-3.04c4.22-0.74,8.43-1.5,12.65-2.24c4.92-0.86,9.84-1.73,14.76-2.58
		c2.58-0.44,5.16-0.85,7.74-1.27c0.02,1.27,0.04,2.54,0.05,3.81c-0.09,0.08-0.18,0.17-0.27,0.25
		C158.21,70.23,156.65,71.58,154.77,72.42z"/>
	<path class="st13" d="M108.17,163.38c0.01-0.07,0.02-0.15,0.03-0.23c1.95-1.2,3.91-2.4,5.86-3.61c1.81-1.12,3.61-2.26,5.41-3.39
		c0.29,0.39,0.71,0.44,1.15,0.52c7.37,1.28,14.74,2.56,22.11,3.87c7.56,1.34,15.13,2.67,22.68,4.06c1.42,0.26,2.94,0.15,4.23,0.96
		c-1.72,1.47-3.79,2.44-5.64,3.73c-2.36,1.65-4.84,3.14-7.27,4.69c-0.16,0.1-0.35,0.15-0.53,0.22c-1.71-0.81-3.61-0.81-5.42-1.17
		c-4.32-0.85-8.68-1.5-13.02-2.25c-5.35-0.93-10.7-1.9-16.05-2.85c-4.49-0.8-8.98-1.6-13.47-2.4
		C108.22,164.81,108.19,164.09,108.17,163.38z"/>
	<path class="st4" d="M108.19,126.65c-3.47,0.63-6.94,1.28-10.42,1.9c-3.87,0.68-7.75,1.31-11.62,1.99
		c-5.35,0.94-10.7,1.89-16.05,2.85c-7.07,1.26-14.13,2.55-21.2,3.79c-7.85,1.39-15.71,2.74-23.57,4.12
		c-3.16,0.55-6.33,1.12-9.49,1.68c0-2.08,0-4.16,0-6.24c2.35-0.09,4.62-0.7,6.93-1.09c4.85-0.82,9.69-1.67,14.53-2.52
		c4.26-0.74,8.51-1.51,12.77-2.26c5.74-1.01,11.48-2.01,17.22-3.02c4.65-0.82,9.29-1.66,13.94-2.48c4.88-0.86,9.77-1.7,14.65-2.56
		c3.79-0.67,7.57-1.36,11.36-2.03c0.31-0.06,0.63-0.08,0.94-0.12C108.18,122.65,108.19,124.65,108.19,126.65z"/>
	<path class="st13" d="M160.24,65.21c-2.58,0.42-5.17,0.83-7.74,1.27c-4.92,0.85-9.84,1.71-14.76,2.58
		c-4.22,0.74-8.43,1.5-12.65,2.24c-5.78,1.02-11.56,2.02-17.34,3.04c-4.53,0.8-9.06,1.61-13.59,2.41
		c-5.39,0.96-10.77,1.91-16.16,2.86c-0.64,0.11-1.29,0.52-1.95,0.04c4.32-2.37,8.64-4.74,12.95-7.12c1.77-0.98,3.51-2.01,5.27-3.02
		c0.3,0.39,0.73,0.3,1.11,0.24c5.11-0.91,10.22-1.86,15.33-2.76c5.7-1.01,11.4-1.98,17.11-2.97c4.26-0.74,8.51-1.51,12.76-2.26
		c5.74-1.01,11.48-2.01,17.22-3.02c0.82-0.14,1.63-0.31,2.45-0.47C160.24,60.57,160.24,62.89,160.24,65.21z"/>
	<path class="st12" d="M169.65,165.56c-1.3-0.81-2.82-0.7-4.23-0.96c-7.55-1.4-15.12-2.73-22.68-4.06
		c-7.37-1.3-14.74-2.59-22.11-3.87c-0.44-0.08-0.87-0.13-1.15-0.52c0.53-0.67,1.35-0.94,2.03-1.38c2.6-1.71,5.08-3.59,7.81-5.09
		c1.1,0.78,2.43,0.62,3.65,0.86c4.63,0.89,9.28,1.7,13.92,2.52c4.88,0.86,9.76,1.7,14.64,2.55c3.86,0.67,7.74,1.29,11.59,2.05
		c2.48,0.49,5.05,0.6,7.43,1.57c-3.37,1.95-6.75,3.9-10.03,6.01C170.26,165.38,169.94,165.44,169.65,165.56z"/>
	<path class="st6" d="M180.54,159.2c-2.38-0.97-4.95-1.08-7.43-1.57c-3.85-0.76-7.72-1.38-11.59-2.05
		c-4.88-0.85-9.76-1.69-14.64-2.55c-4.64-0.82-9.29-1.63-13.92-2.52c-1.22-0.23-2.55-0.08-3.65-0.86c0.14-0.39,0.52-0.48,0.82-0.66
		c2.49-1.54,4.74-3.45,7.33-4.84c0.27,0.07,0.53,0.17,0.81,0.22c8.44,1.46,16.89,2.9,25.33,4.39c8.44,1.48,16.87,3.01,25.3,4.51
		c0.44,0.08,0.87,0.13,1.16,0.52c-1.22,1.06-2.77,1.53-4.13,2.36C184.17,157.24,182.34,158.19,180.54,159.2z"/>
	<path class="st11" d="M190.05,153.79c-0.29-0.39-0.71-0.44-1.16-0.52c-8.44-1.5-16.86-3.03-25.3-4.51
		c-8.44-1.48-16.88-2.92-25.33-4.39c-0.27-0.05-0.54-0.15-0.81-0.22c2.61-2.07,5.45-3.83,8.18-5.73c0.81,0.91,1.99,0.7,3,0.88
		c6.75,1.26,13.51,2.43,20.27,3.61c7.54,1.31,15.09,2.59,22.63,3.9c2.62,0.45,5.23,0.96,7.85,1.42c0.35,0.06,0.6,0.19,0.74,0.51
		C196.83,150.55,193.47,152.24,190.05,153.79z"/>
	<path class="st2" d="M145.63,138.43c-2.73,1.9-5.57,3.66-8.18,5.73c-2.59,1.4-4.84,3.3-7.33,4.84c-0.29,0.18-0.68,0.28-0.82,0.66
		c-2.73,1.51-5.21,3.39-7.81,5.09c-0.68,0.45-1.5,0.71-2.03,1.38c-1.8,1.13-3.6,2.27-5.41,3.39c-1.95,1.21-3.9,2.41-5.86,3.61
		c0-2.57-0.01-5.13-0.01-7.7c0-2.96,0-5.92,0-8.88c0-3.36,0-6.72,0-10.08c0-3.28,0-6.56,0-9.84c0-2,0-4-0.01-6c0-3.28,0-6.56,0-9.84
		c0.01-1.94,0.05-3.89,0-5.83c-0.02-0.74,0.26-1.16,0.83-1.54c1.06-0.69,2.07-1.44,3.12-2.14c0.31-0.2,0.6-0.38,0.69-0.76
		c1.24-0.37,2.18-1.25,3.21-1.95c3.47-2.34,6.91-4.72,10.35-7.09c0.12-0.09,0.2-0.24,0.3-0.36c1.94-1.27,3.89-2.53,5.82-3.82
		c1.35-0.9,2.66-1.84,4-2.75c0.33-0.22,0.7-0.39,0.82-0.81c0.42,0,0.77-0.23,1.09-0.44c5.29-3.54,10.55-7.12,15.95-10.47
		c0.16-0.1,0.27-0.28,0.4-0.42c1.87-0.84,3.44-2.19,5.25-3.14c0.54,1.09,0.12,2.26,0.26,3.38c0,2.96,0,5.92,0,8.88
		c0,2.96,0,5.92,0,8.88c0,3.84,0,7.68,0,11.52c0,4.96,0,9.92,0,14.88c0,3.12,0,6.24,0.01,9.36c0.53,2.19-1.15,2.94-2.53,3.89
		C153.72,132.85,149.68,135.64,145.63,138.43z"/>
</g>
</svg>
