<?xml version="1.0" encoding="utf-8"?>
<!-- Generator: Adobe Illustrator 23.0.1, SVG Export Plug-In . SVG Version: 6.00 Build 0)  -->
<svg version="1.1" id="katman_1" xmlns="http://www.w3.org/2000/svg" xmlns:xlink="http://www.w3.org/1999/xlink" x="0px" y="0px"
	 viewBox="0 0 186.79 164.67" style="enable-background:new 0 0 186.79 164.67;" xml:space="preserve">
<style type="text/css">
	.st0{fill:#024A7F;}
</style>
<g>
	<path class="st0" d="M55.52,138.36c-12.7,0-23.36-0.01-34.03,0.01c-0.68,0-0.88-0.07-0.7-0.84c3.56-15.12,7.08-30.25,10.61-45.37
		c3.07-13.12,6.14-26.23,9.22-39.34c0.21-0.88,0.09-2.09,0.77-2.54c0.63-0.41,1.72-0.12,2.61-0.12c6.38,0,12.76-0.01,19.15,0.01
		c0.63,0,0.93-0.1,1.09-0.82c1.49-6.51,3.05-13,4.54-19.5c0.14-0.63,0.38-0.75,0.97-0.75c7.04,0.02,14.09,0,21.13,0.03
		c0.71,0,0.95-0.19,1.12-0.89c1.44-6.29,2.94-12.56,4.39-18.84c0.14-0.59,0.37-0.71,0.92-0.72c7.1-0.11,14.21-0.26,21.28,0.32
		c16.05,1.31,30.19,6.92,41.06,19.28c5.88,6.68,9.5,14.51,10.95,23.29c2.06,12.41-0.29,24.16-5.56,35.4
		c-5.32,11.35-13.12,20.79-22.72,28.76c-11.89,9.88-25.36,16.64-40.4,20.25c-4.91,1.18-9.89,1.68-14.91,2.01
		C75.85,138.72,64.66,138.17,55.52,138.36z M57.1,129.8c0-0.03,0-0.05,0-0.08c1.49,0,2.99,0.02,4.48,0
		c9.25-0.14,18.51,0.13,27.73-0.88c4.39-0.48,8.79-0.99,13.06-2.19c9.02-2.54,17.39-6.51,25.19-11.68
		c10.66-7.06,19.67-15.76,26.04-26.95c6.07-10.67,8.82-22.06,6.82-34.33c-1.34-8.25-4.98-15.4-10.77-21.42
		c-6.5-6.75-14.51-10.81-23.5-13.15c-7.06-1.84-14.25-1.97-21.47-1.86c-0.47,0.01-0.56,0.24-0.65,0.61
		c-0.81,3.52-1.61,7.04-2.47,10.55c-0.16,0.65,0.04,0.72,0.59,0.7c1.38-0.04,2.76-0.07,4.14-0.07c4.55,0.01,9.07,0.36,13.47,1.57
		c5.96,1.64,11.15,4.73,15.55,9.02c10.87,10.6,14.47,23.16,9.8,37.8c-3.2,10.04-9.03,18.34-17.07,25.07
		c-11.9,9.95-25.71,15.08-41.18,15.39c-12.61,0.25-25.24,0.06-37.86,0.1c-0.73,0-0.79-0.21-0.64-0.82c1.11-4.68,2.2-9.37,3.3-14.06
		c3.41-14.54,6.81-29.08,10.23-43.61c0.14-0.61,0.03-0.79-0.63-0.79c-3.85,0.03-7.7,0.04-11.56,0c-0.68-0.01-0.91,0.22-1.06,0.86
		c-3.3,14.3-6.62,28.59-9.94,42.88c-2.08,8.96-4.16,17.93-6.25,26.89c-0.16,0.68-0.23,0.98,0.7,0.94c2.84-0.13,5.68-0.15,8.53-0.2
		C46.82,129.98,51.96,129.89,57.1,129.8z M73.68,50.15c0.42,0,0.76,0,1.1,0c10.15,0.01,20.3,0.01,30.44,0.03
		c2.6,0,5.16,0.32,7.57,1.38c4.02,1.76,6.84,4.71,7.57,9.06c1.06,6.39-0.95,11.98-5.4,16.64c-3.61,3.78-8.16,5.97-13.13,7.36
		c-0.51,0.14-0.65,0.25-0.47,0.79c2.07,6.29,4.13,12.58,6.17,18.87c0.18,0.56,0.36,0.69,0.95,0.42c6.8-3.09,12.82-7.3,17.84-12.85
		c6.36-7.03,10.57-15.08,11.03-24.72c0.45-9.43-3.04-17.16-10.54-22.97c-5.75-4.45-12.4-6.4-19.59-6.47
		c-9.92-0.09-19.84-0.01-29.75-0.03c-0.66,0-0.96,0.15-1.07,0.85c-0.17,1.07-0.48,2.12-0.73,3.18C75,44.49,74.35,47.27,73.68,50.15z
		 M59.84,109.31c0.25,0.01,0.42,0.03,0.59,0.03c8.31,0,16.61,0.02,24.92-0.01c3.67-0.02,7.35-0.14,10.98-0.77
		c0.79-0.14,0.79-0.4,0.58-1.04c-2.42-7.34-4.83-14.69-7.21-22.04c-0.19-0.58-0.47-0.71-1.05-0.71c-4.66,0.02-9.31,0-13.97,0.02
		c-0.65,0-0.78-0.18-0.62-0.79c0.57-2.31,1.14-4.62,1.64-6.94c0.16-0.74,0.4-0.98,1.2-0.99c6.61-0.06,13.22,0.29,19.82-0.19
		c2.97-0.22,5.85-0.82,8.4-2.49c2.09-1.36,3.73-3.02,4.18-5.61c0.57-3.35-0.57-6.05-3.31-7.57c-2.08-1.15-4.37-1.34-6.68-1.35
		c-8.91-0.03-17.82,0-26.73-0.03c-0.74,0-1.01,0.22-1.17,0.93c-3.29,14.15-6.6,28.29-9.91,42.44
		C60.96,104.54,60.4,106.91,59.84,109.31z"/>
</g>
</svg>
