<?xml version="1.0" encoding="utf-8"?>
<!-- Generator: Adobe Illustrator 23.0.0, SVG Export Plug-In . SVG Version: 6.00 Build 0)  -->
<svg version="1.1" id="Layer_1" xmlns="http://www.w3.org/2000/svg" xmlns:xlink="http://www.w3.org/1999/xlink" x="0px" y="0px"
	 viewBox="0 0 3000 3000" style="enable-background:new 0 0 3000 3000;" xml:space="preserve">
<style type="text/css">
	.st0{fill:#3B218C;}
</style>
<path class="st0" d="M2660.7,1726.19h-362.93c22.49-148.22,22.49-299.1,0-447.56h362.93c38.45,0,69.64-31.19,69.64-69.64
	s-31.19-69.64-69.64-69.64h-390.98c-65.04-258.72-199-495.19-388.08-683.55C1567.31,141.24,1132.57-13.99,689.36,29.53
	c-5.8,0.73-10.16,6.04-9.43,11.85c0.73,5.08,4.59,8.95,9.43,9.43c335.61,33.37,649.21,181.83,887.86,420.24
	c187.87,187.87,318.2,417.82,382.03,668.56H920.51c-38.45,0-69.64,31.19-69.64,69.64s31.19,69.64,69.64,69.64h1067.03
	c11.36,73.99,16.93,148.94,16.93,223.66c0,74.96-5.56,149.67-16.93,223.66H920.51c-38.45,0-69.64,31.19-69.64,69.64
	c0,38.45,31.19,69.64,69.64,69.64h1038.74c-63.83,250.74-194.16,480.68-382.03,668.56c-238.65,238.41-552.25,386.87-887.86,420.24
	c-5.8,0.48-10.16,5.8-9.67,11.61c0.48,5.08,4.59,9.19,9.67,9.67c443.45,43.52,877.95-111.71,1192.28-426.28
	c188.84-188.6,323.04-424.83,388.08-683.79h390.98c38.45,0,69.64-31.19,69.64-69.64C2730.33,1757.39,2699.14,1726.19,2660.7,1726.19
	L2660.7,1726.19z"/>
</svg>
