<?xml version="1.0" encoding="utf-8"?>
<!-- Generator: Adobe Illustrator 23.0.1, SVG Export Plug-In . SVG Version: 6.00 Build 0)  -->
<svg version="1.1" id="katman_1" xmlns="http://www.w3.org/2000/svg" xmlns:xlink="http://www.w3.org/1999/xlink" x="0px" y="0px"
	 viewBox="0 0 111 95" style="enable-background:new 0 0 111 95;" xml:space="preserve">
<style type="text/css">
	.st0{clip-path:url(#SVGID_3_);}
	.st1{clip-path:url(#SVGID_4_);}
	.st2{clip-path:url(#SVGID_7_);}
	.st3{clip-path:url(#SVGID_8_);}
	.st4{clip-path:url(#SVGID_11_);}
	.st5{clip-path:url(#SVGID_12_);}
	.st6{clip-path:url(#SVGID_15_);}
	.st7{clip-path:url(#SVGID_16_);}
	.st8{clip-path:url(#SVGID_19_);}
	.st9{clip-path:url(#SVGID_20_);}
	.st10{clip-path:url(#SVGID_23_);}
	.st11{clip-path:url(#SVGID_24_);}
	.st12{clip-path:url(#SVGID_27_);}
	.st13{clip-path:url(#SVGID_28_);}
	.st14{clip-path:url(#SVGID_31_);}
	.st15{clip-path:url(#SVGID_32_);}
	.st16{clip-path:url(#SVGID_35_);}
	.st17{clip-path:url(#SVGID_36_);}
	.st18{clip-path:url(#SVGID_39_);}
	.st19{clip-path:url(#SVGID_40_);}
	.st20{clip-path:url(#SVGID_43_);}
	.st21{clip-path:url(#SVGID_44_);}
	.st22{clip-path:url(#SVGID_47_);}
	.st23{clip-path:url(#SVGID_48_);}
	.st24{clip-path:url(#SVGID_51_);}
	.st25{clip-path:url(#SVGID_52_);}
	.st26{clip-path:url(#SVGID_55_);}
	.st27{clip-path:url(#SVGID_56_);}
	.st28{clip-path:url(#SVGID_59_);}
	.st29{clip-path:url(#SVGID_60_);}
	.st30{clip-path:url(#SVGID_63_);}
	.st31{clip-path:url(#SVGID_64_);}
	.st32{clip-path:url(#SVGID_67_);}
	.st33{clip-path:url(#SVGID_68_);}
	.st34{clip-path:url(#SVGID_71_);}
	.st35{clip-path:url(#SVGID_72_);}
	.st36{clip-path:url(#SVGID_75_);}
	.st37{clip-path:url(#SVGID_76_);}
	.st38{clip-path:url(#SVGID_79_);}
	.st39{clip-path:url(#SVGID_80_);}
	.st40{clip-path:url(#SVGID_83_);}
	.st41{clip-path:url(#SVGID_84_);}
	.st42{clip-path:url(#SVGID_87_);}
	.st43{clip-path:url(#SVGID_88_);}
	.st44{clip-path:url(#SVGID_91_);}
	.st45{clip-path:url(#SVGID_92_);}
	.st46{clip-path:url(#SVGID_95_);}
	.st47{clip-path:url(#SVGID_96_);}
	.st48{clip-path:url(#SVGID_99_);}
	.st49{clip-path:url(#SVGID_100_);}
	.st50{clip-path:url(#SVGID_103_);}
	.st51{clip-path:url(#SVGID_104_);}
	.st52{clip-path:url(#SVGID_107_);}
	.st53{clip-path:url(#SVGID_108_);}
	.st54{clip-path:url(#SVGID_111_);}
	.st55{clip-path:url(#SVGID_112_);}
	.st56{clip-path:url(#SVGID_115_);}
	.st57{clip-path:url(#SVGID_116_);}
	.st58{clip-path:url(#SVGID_119_);}
	.st59{clip-path:url(#SVGID_120_);}
	.st60{clip-path:url(#SVGID_123_);}
	.st61{clip-path:url(#SVGID_124_);}
	.st62{clip-path:url(#SVGID_127_);}
	.st63{clip-path:url(#SVGID_128_);}
	.st64{clip-path:url(#SVGID_131_);}
	.st65{clip-path:url(#SVGID_132_);}
</style>
<g>
	<defs>
		<rect id="SVGID_1_" x="24.27" y="15.31" width="200" height="60"/>
	</defs>
	<defs>
		<path id="SVGID_2_" d="M72.57,27.53c-0.23-0.22-0.34-0.51-0.34-0.78c0-0.29,0.12-0.56,0.34-0.79c0.46-0.43,1.2-0.43,1.67,0
			c0.24,0.22,0.35,0.5,0.35,0.79c0,0.28-0.12,0.56-0.35,0.78c-0.23,0.21-0.53,0.32-0.83,0.32C73.11,27.85,72.8,27.74,72.57,27.53"/>
	</defs>
	<clipPath id="SVGID_3_">
		<use xlink:href="#SVGID_1_"  style="overflow:visible;"/>
	</clipPath>
	<clipPath id="SVGID_4_" class="st0">
		<use xlink:href="#SVGID_2_"  style="overflow:visible;"/>
	</clipPath>
	<rect x="67.23" y="20.64" class="st1" width="12.36" height="12.21"/>
</g>
<g>
	<defs>
		<rect id="SVGID_5_" x="24.27" y="15.31" width="200" height="60"/>
	</defs>
	<defs>
		<path id="SVGID_6_" d="M69.6,30.63c-0.21-0.22-0.32-0.51-0.32-0.78c0-0.29,0.11-0.56,0.32-0.79c0.43-0.43,1.14-0.43,1.57,0
			c0.21,0.22,0.32,0.5,0.32,0.79c0,0.28-0.11,0.56-0.32,0.78c-0.22,0.21-0.5,0.32-0.79,0.32C70.1,30.95,69.82,30.84,69.6,30.63"/>
	</defs>
	<clipPath id="SVGID_7_">
		<use xlink:href="#SVGID_5_"  style="overflow:visible;"/>
	</clipPath>
	<clipPath id="SVGID_8_" class="st2">
		<use xlink:href="#SVGID_6_"  style="overflow:visible;"/>
	</clipPath>
	<rect x="64.28" y="23.74" class="st3" width="12.21" height="12.21"/>
</g>
<g>
	<defs>
		<rect id="SVGID_9_" x="24.27" y="15.31" width="200" height="60"/>
	</defs>
	<defs>
		<path id="SVGID_10_" d="M66.35,33.72c-0.21-0.21-0.32-0.5-0.32-0.77c0-0.29,0.11-0.57,0.32-0.78c0.43-0.43,1.14-0.43,1.57,0
			c0.21,0.21,0.32,0.5,0.32,0.78c0,0.28-0.11,0.56-0.32,0.77c-0.22,0.22-0.5,0.33-0.79,0.33C66.85,34.05,66.58,33.94,66.35,33.72"/>
	</defs>
	<clipPath id="SVGID_11_">
		<use xlink:href="#SVGID_9_"  style="overflow:visible;"/>
	</clipPath>
	<clipPath id="SVGID_12_" class="st4">
		<use xlink:href="#SVGID_10_"  style="overflow:visible;"/>
	</clipPath>
	<rect x="61.03" y="26.83" class="st5" width="12.21" height="12.21"/>
</g>
<g>
	<defs>
		<rect id="SVGID_13_" x="24.27" y="15.31" width="200" height="60"/>
	</defs>
	<defs>
		<path id="SVGID_14_" d="M63.28,36.83c-0.22-0.21-0.34-0.5-0.34-0.79c0-0.28,0.12-0.57,0.34-0.78c0.46-0.43,1.22-0.43,1.68,0
			c0.22,0.21,0.34,0.5,0.34,0.78c0,0.29-0.12,0.58-0.34,0.79c-0.24,0.22-0.53,0.32-0.84,0.32C63.82,37.15,63.51,37.05,63.28,36.83"
			/>
	</defs>
	<clipPath id="SVGID_15_">
		<use xlink:href="#SVGID_13_"  style="overflow:visible;"/>
	</clipPath>
	<clipPath id="SVGID_16_" class="st6">
		<use xlink:href="#SVGID_14_"  style="overflow:visible;"/>
	</clipPath>
	<rect x="57.93" y="29.93" class="st7" width="12.36" height="12.21"/>
</g>
<g>
	<defs>
		<rect id="SVGID_17_" x="24.27" y="15.31" width="200" height="60"/>
	</defs>
	<defs>
		<path id="SVGID_18_" d="M60.31,39.93c-0.22-0.21-0.33-0.5-0.33-0.79c0-0.28,0.11-0.56,0.33-0.77c0.42-0.44,1.13-0.44,1.56,0
			c0.22,0.21,0.32,0.5,0.32,0.77c0,0.29-0.1,0.58-0.32,0.79c-0.21,0.22-0.5,0.32-0.79,0.32C60.81,40.25,60.53,40.15,60.31,39.93"/>
	</defs>
	<clipPath id="SVGID_19_">
		<use xlink:href="#SVGID_17_"  style="overflow:visible;"/>
	</clipPath>
	<clipPath id="SVGID_20_" class="st8">
		<use xlink:href="#SVGID_18_"  style="overflow:visible;"/>
	</clipPath>
	<rect x="54.98" y="33.03" class="st9" width="12.21" height="12.21"/>
</g>
<g>
	<defs>
		<rect id="SVGID_21_" x="24.27" y="15.31" width="200" height="60"/>
	</defs>
	<defs>
		<path id="SVGID_22_" d="M56.74,42.24c0-0.28,0.11-0.56,0.33-0.78c0.43-0.43,1.13-0.43,1.56,0c0.22,0.22,0.32,0.51,0.32,0.78
			c0,0.29-0.1,0.56-0.32,0.78c-0.21,0.21-0.5,0.32-0.79,0.32c-0.28,0-0.56-0.11-0.77-0.32C56.85,42.8,56.74,42.53,56.74,42.24"/>
	</defs>
	<clipPath id="SVGID_23_">
		<use xlink:href="#SVGID_21_"  style="overflow:visible;"/>
	</clipPath>
	<clipPath id="SVGID_24_" class="st10">
		<use xlink:href="#SVGID_22_"  style="overflow:visible;"/>
	</clipPath>
	<rect x="51.74" y="36.13" class="st11" width="12.21" height="12.21"/>
</g>
<g>
	<defs>
		<rect id="SVGID_25_" x="24.27" y="15.31" width="200" height="60"/>
	</defs>
	<defs>
		<path id="SVGID_26_" d="M51.01,49.06c-0.21-0.21-0.32-0.5-0.32-0.77c0-0.29,0.11-0.56,0.32-0.79c0.43-0.43,1.14-0.43,1.56,0
			c0.22,0.22,0.33,0.5,0.33,0.79c0,0.28-0.11,0.56-0.33,0.77c-0.21,0.22-0.5,0.33-0.77,0.33C51.5,49.4,51.23,49.29,51.01,49.06"/>
	</defs>
	<clipPath id="SVGID_27_">
		<use xlink:href="#SVGID_25_"  style="overflow:visible;"/>
	</clipPath>
	<clipPath id="SVGID_28_" class="st12">
		<use xlink:href="#SVGID_26_"  style="overflow:visible;"/>
	</clipPath>
	<rect x="45.69" y="42.18" class="st13" width="12.21" height="12.21"/>
</g>
<g>
	<defs>
		<rect id="SVGID_29_" x="24.27" y="15.31" width="200" height="60"/>
	</defs>
	<defs>
		<path id="SVGID_30_" d="M47.78,52.16c-0.22-0.21-0.34-0.5-0.34-0.77c0-0.29,0.12-0.56,0.34-0.79c0.46-0.43,1.21-0.43,1.68,0
			c0.22,0.22,0.34,0.5,0.34,0.79c0,0.28-0.12,0.56-0.34,0.77c-0.24,0.22-0.54,0.33-0.84,0.33C48.31,52.5,48.02,52.39,47.78,52.16"/>
	</defs>
	<clipPath id="SVGID_31_">
		<use xlink:href="#SVGID_29_"  style="overflow:visible;"/>
	</clipPath>
	<clipPath id="SVGID_32_" class="st14">
		<use xlink:href="#SVGID_30_"  style="overflow:visible;"/>
	</clipPath>
	<rect x="42.44" y="45.28" class="st15" width="12.36" height="12.21"/>
</g>
<g>
	<defs>
		<rect id="SVGID_33_" x="24.27" y="15.31" width="200" height="60"/>
	</defs>
	<defs>
		<path id="SVGID_34_" d="M44.81,55.27c-0.21-0.21-0.32-0.5-0.32-0.78c0-0.29,0.11-0.58,0.32-0.79c0.43-0.43,1.14-0.43,1.57,0
			c0.21,0.21,0.32,0.5,0.32,0.79c0,0.28-0.11,0.57-0.32,0.78c-0.22,0.22-0.5,0.32-0.79,0.32S45.03,55.49,44.81,55.27"/>
	</defs>
	<clipPath id="SVGID_35_">
		<use xlink:href="#SVGID_33_"  style="overflow:visible;"/>
	</clipPath>
	<clipPath id="SVGID_36_" class="st16">
		<use xlink:href="#SVGID_34_"  style="overflow:visible;"/>
	</clipPath>
	<rect x="39.49" y="48.38" class="st17" width="12.21" height="12.21"/>
</g>
<g>
	<defs>
		<rect id="SVGID_37_" x="24.27" y="15.31" width="200" height="60"/>
	</defs>
	<defs>
		<path id="SVGID_38_" d="M41.72,58.37c-0.22-0.21-0.33-0.5-0.33-0.79c0-0.28,0.11-0.56,0.33-0.79c0.43-0.42,1.13-0.42,1.56,0
			c0.21,0.22,0.32,0.51,0.32,0.79c0,0.29-0.11,0.58-0.32,0.79c-0.22,0.22-0.5,0.32-0.79,0.32C42.22,58.69,41.93,58.59,41.72,58.37"
			/>
	</defs>
	<clipPath id="SVGID_39_">
		<use xlink:href="#SVGID_37_"  style="overflow:visible;"/>
	</clipPath>
	<clipPath id="SVGID_40_" class="st18">
		<use xlink:href="#SVGID_38_"  style="overflow:visible;"/>
	</clipPath>
	<rect x="36.39" y="51.48" class="st19" width="12.21" height="12.21"/>
</g>
<g>
	<defs>
		<rect id="SVGID_41_" x="24.27" y="15.31" width="200" height="60"/>
	</defs>
	<defs>
		<path id="SVGID_42_" d="M38.5,61.47c-0.24-0.21-0.35-0.5-0.35-0.79c0-0.28,0.12-0.56,0.35-0.79c0.46-0.42,1.2-0.42,1.67,0
			c0.24,0.22,0.34,0.51,0.34,0.79c0,0.29-0.11,0.58-0.34,0.79c-0.23,0.21-0.53,0.32-0.84,0.32C39.03,61.79,38.72,61.68,38.5,61.47"
			/>
	</defs>
	<clipPath id="SVGID_43_">
		<use xlink:href="#SVGID_41_"  style="overflow:visible;"/>
	</clipPath>
	<clipPath id="SVGID_44_" class="st20">
		<use xlink:href="#SVGID_42_"  style="overflow:visible;"/>
	</clipPath>
	<rect x="33.14" y="54.58" class="st21" width="12.36" height="12.21"/>
</g>
<g>
	<defs>
		<rect id="SVGID_45_" x="24.27" y="15.31" width="200" height="60"/>
	</defs>
	<defs>
		<path id="SVGID_46_" d="M35.51,64.57c-0.22-0.22-0.32-0.5-0.32-0.78c0-0.29,0.1-0.56,0.32-0.78c0.43-0.43,1.13-0.43,1.56,0
			c0.22,0.22,0.33,0.5,0.33,0.78c0,0.29-0.11,0.56-0.33,0.78c-0.21,0.21-0.5,0.32-0.78,0.32C36.01,64.89,35.72,64.78,35.51,64.57"/>
	</defs>
	<clipPath id="SVGID_47_">
		<use xlink:href="#SVGID_45_"  style="overflow:visible;"/>
	</clipPath>
	<clipPath id="SVGID_48_" class="st22">
		<use xlink:href="#SVGID_46_"  style="overflow:visible;"/>
	</clipPath>
	<rect x="30.19" y="57.68" class="st23" width="12.21" height="12.21"/>
</g>
<g>
	<defs>
		<rect id="SVGID_49_" x="24.27" y="15.31" width="200" height="60"/>
	</defs>
	<defs>
		<path id="SVGID_50_" d="M37.08,27.53c0.21-0.22,0.32-0.51,0.32-0.78c0-0.29-0.11-0.56-0.32-0.79c-0.43-0.43-1.13-0.43-1.56,0
			c-0.22,0.22-0.33,0.5-0.33,0.79c0,0.28,0.11,0.56,0.33,0.78c0.21,0.21,0.5,0.32,0.78,0.32C36.58,27.85,36.87,27.74,37.08,27.53"/>
	</defs>
	<clipPath id="SVGID_51_">
		<use xlink:href="#SVGID_49_"  style="overflow:visible;"/>
	</clipPath>
	<clipPath id="SVGID_52_" class="st24">
		<use xlink:href="#SVGID_50_"  style="overflow:visible;"/>
	</clipPath>
	<rect x="30.19" y="20.64" class="st25" width="12.21" height="12.21"/>
</g>
<g>
	<defs>
		<rect id="SVGID_53_" x="24.27" y="15.31" width="200" height="60"/>
	</defs>
	<defs>
		<path id="SVGID_54_" d="M40.16,30.63c0.22-0.22,0.34-0.51,0.34-0.78c0-0.29-0.12-0.56-0.34-0.79c-0.46-0.43-1.22-0.43-1.68,0
			c-0.22,0.22-0.34,0.5-0.34,0.79c0,0.28,0.12,0.56,0.34,0.78c0.24,0.21,0.53,0.32,0.84,0.32C39.63,30.95,39.92,30.84,40.16,30.63"
			/>
	</defs>
	<clipPath id="SVGID_55_">
		<use xlink:href="#SVGID_53_"  style="overflow:visible;"/>
	</clipPath>
	<clipPath id="SVGID_56_" class="st26">
		<use xlink:href="#SVGID_54_"  style="overflow:visible;"/>
	</clipPath>
	<rect x="33.14" y="23.74" class="st27" width="12.36" height="12.21"/>
</g>
<g>
	<defs>
		<rect id="SVGID_57_" x="24.27" y="15.31" width="200" height="60"/>
	</defs>
	<defs>
		<path id="SVGID_58_" d="M43.28,33.72c0.21-0.21,0.32-0.5,0.32-0.77c0-0.29-0.11-0.57-0.32-0.78c-0.43-0.43-1.14-0.43-1.57,0
			c-0.21,0.21-0.32,0.5-0.32,0.78c0,0.28,0.11,0.56,0.32,0.77c0.22,0.22,0.5,0.33,0.79,0.33C42.78,34.05,43.06,33.94,43.28,33.72"/>
	</defs>
	<clipPath id="SVGID_59_">
		<use xlink:href="#SVGID_57_"  style="overflow:visible;"/>
	</clipPath>
	<clipPath id="SVGID_60_" class="st28">
		<use xlink:href="#SVGID_58_"  style="overflow:visible;"/>
	</clipPath>
	<rect x="36.39" y="26.83" class="st29" width="12.21" height="12.21"/>
</g>
<g>
	<defs>
		<rect id="SVGID_61_" x="24.27" y="15.31" width="200" height="60"/>
	</defs>
	<defs>
		<path id="SVGID_62_" d="M46.38,36.83c0.21-0.21,0.32-0.5,0.32-0.79c0-0.28-0.11-0.57-0.32-0.78c-0.43-0.43-1.14-0.43-1.57,0
			c-0.21,0.21-0.32,0.5-0.32,0.78c0,0.29,0.11,0.58,0.32,0.79c0.22,0.22,0.5,0.32,0.79,0.32C45.87,37.15,46.16,37.05,46.38,36.83"/>
	</defs>
	<clipPath id="SVGID_63_">
		<use xlink:href="#SVGID_61_"  style="overflow:visible;"/>
	</clipPath>
	<clipPath id="SVGID_64_" class="st30">
		<use xlink:href="#SVGID_62_"  style="overflow:visible;"/>
	</clipPath>
	<rect x="39.49" y="29.93" class="st31" width="12.21" height="12.21"/>
</g>
<g>
	<defs>
		<rect id="SVGID_65_" x="24.27" y="15.31" width="200" height="60"/>
	</defs>
	<defs>
		<path id="SVGID_66_" d="M49.45,39.93c0.24-0.21,0.35-0.5,0.35-0.79c0-0.28-0.12-0.56-0.35-0.77c-0.45-0.44-1.2-0.44-1.66,0
			c-0.24,0.21-0.34,0.5-0.34,0.77c0,0.29,0.11,0.58,0.34,0.79c0.22,0.22,0.53,0.32,0.84,0.32C48.91,40.25,49.22,40.15,49.45,39.93"
			/>
	</defs>
	<clipPath id="SVGID_67_">
		<use xlink:href="#SVGID_65_"  style="overflow:visible;"/>
	</clipPath>
	<clipPath id="SVGID_68_" class="st32">
		<use xlink:href="#SVGID_66_"  style="overflow:visible;"/>
	</clipPath>
	<rect x="42.44" y="33.03" class="st33" width="12.36" height="12.21"/>
</g>
<g>
	<defs>
		<rect id="SVGID_69_" x="24.27" y="15.31" width="200" height="60"/>
	</defs>
	<defs>
		<path id="SVGID_70_" d="M52.9,42.24c0-0.28-0.11-0.56-0.33-0.78c-0.43-0.43-1.13-0.43-1.56,0c-0.22,0.22-0.32,0.51-0.32,0.78
			c0,0.29,0.1,0.56,0.32,0.78c0.21,0.21,0.5,0.32,0.79,0.32c0.28,0,0.56-0.11,0.78-0.32C52.79,42.8,52.9,42.53,52.9,42.24"/>
	</defs>
	<clipPath id="SVGID_71_">
		<use xlink:href="#SVGID_69_"  style="overflow:visible;"/>
	</clipPath>
	<clipPath id="SVGID_72_" class="st34">
		<use xlink:href="#SVGID_70_"  style="overflow:visible;"/>
	</clipPath>
	<rect x="45.69" y="36.13" class="st35" width="12.21" height="12.21"/>
</g>
<g>
	<defs>
		<rect id="SVGID_73_" x="24.27" y="15.31" width="200" height="60"/>
	</defs>
	<defs>
		<path id="SVGID_74_" d="M55.68,46.12C55.9,45.9,56,45.63,56,45.34c0-0.29-0.1-0.56-0.32-0.78c-0.43-0.43-1.13-0.43-1.57,0
			c-0.22,0.22-0.32,0.5-0.32,0.78c0,0.29,0.1,0.56,0.32,0.78c0.21,0.21,0.5,0.32,0.78,0.32C55.18,46.44,55.46,46.33,55.68,46.12"/>
	</defs>
	<clipPath id="SVGID_75_">
		<use xlink:href="#SVGID_73_"  style="overflow:visible;"/>
	</clipPath>
	<clipPath id="SVGID_76_" class="st36">
		<use xlink:href="#SVGID_74_"  style="overflow:visible;"/>
	</clipPath>
	<rect x="48.78" y="39.23" class="st37" width="12.21" height="12.21"/>
</g>
<g>
	<defs>
		<rect id="SVGID_77_" x="24.27" y="15.31" width="200" height="60"/>
	</defs>
	<defs>
		<path id="SVGID_78_" d="M58.75,49.06c0.22-0.21,0.34-0.5,0.34-0.77c0-0.29-0.12-0.56-0.34-0.79c-0.46-0.43-1.22-0.43-1.66,0
			c-0.24,0.22-0.35,0.5-0.35,0.79c0,0.28,0.12,0.56,0.35,0.77c0.22,0.22,0.53,0.33,0.83,0.33C58.22,49.4,58.52,49.29,58.75,49.06"/>
	</defs>
	<clipPath id="SVGID_79_">
		<use xlink:href="#SVGID_77_"  style="overflow:visible;"/>
	</clipPath>
	<clipPath id="SVGID_80_" class="st38">
		<use xlink:href="#SVGID_78_"  style="overflow:visible;"/>
	</clipPath>
	<rect x="51.74" y="42.18" class="st39" width="12.36" height="12.21"/>
</g>
<g>
	<defs>
		<rect id="SVGID_81_" x="24.27" y="15.31" width="200" height="60"/>
	</defs>
	<defs>
		<path id="SVGID_82_" d="M61.87,52.16c0.21-0.21,0.32-0.5,0.32-0.77c0-0.29-0.11-0.56-0.32-0.79c-0.43-0.43-1.14-0.43-1.57,0
			c-0.21,0.22-0.32,0.5-0.32,0.79c0,0.28,0.11,0.56,0.32,0.77c0.22,0.22,0.51,0.33,0.79,0.33C61.38,52.5,61.65,52.39,61.87,52.16"/>
	</defs>
	<clipPath id="SVGID_83_">
		<use xlink:href="#SVGID_81_"  style="overflow:visible;"/>
	</clipPath>
	<clipPath id="SVGID_84_" class="st40">
		<use xlink:href="#SVGID_82_"  style="overflow:visible;"/>
	</clipPath>
	<rect x="54.98" y="45.28" class="st41" width="12.21" height="12.21"/>
</g>
<g>
	<defs>
		<rect id="SVGID_85_" x="24.27" y="15.31" width="200" height="60"/>
	</defs>
	<defs>
		<path id="SVGID_86_" d="M64.97,55.27c0.21-0.21,0.32-0.5,0.32-0.78c0-0.29-0.11-0.58-0.32-0.79c-0.43-0.43-1.14-0.43-1.57,0
			c-0.21,0.21-0.32,0.5-0.32,0.79c0,0.28,0.11,0.57,0.32,0.78c0.22,0.22,0.5,0.32,0.79,0.32C64.48,55.59,64.75,55.49,64.97,55.27"/>
	</defs>
	<clipPath id="SVGID_87_">
		<use xlink:href="#SVGID_85_"  style="overflow:visible;"/>
	</clipPath>
	<clipPath id="SVGID_88_" class="st42">
		<use xlink:href="#SVGID_86_"  style="overflow:visible;"/>
	</clipPath>
	<rect x="58.08" y="48.38" class="st43" width="12.21" height="12.21"/>
</g>
<g>
	<defs>
		<rect id="SVGID_89_" x="24.27" y="15.31" width="200" height="60"/>
	</defs>
	<defs>
		<path id="SVGID_90_" d="M67.92,58.37c0.22-0.21,0.33-0.5,0.33-0.79c0-0.28-0.11-0.56-0.33-0.79c-0.43-0.42-1.13-0.42-1.56,0
			c-0.21,0.22-0.32,0.51-0.32,0.79c0,0.29,0.11,0.58,0.32,0.79c0.22,0.22,0.5,0.32,0.79,0.32C67.42,58.69,67.7,58.59,67.92,58.37"/>
	</defs>
	<clipPath id="SVGID_91_">
		<use xlink:href="#SVGID_89_"  style="overflow:visible;"/>
	</clipPath>
	<clipPath id="SVGID_92_" class="st44">
		<use xlink:href="#SVGID_90_"  style="overflow:visible;"/>
	</clipPath>
	<rect x="61.03" y="51.48" class="st45" width="12.21" height="12.21"/>
</g>
<g>
	<defs>
		<rect id="SVGID_93_" x="24.27" y="15.31" width="200" height="60"/>
	</defs>
	<defs>
		<path id="SVGID_94_" d="M71.16,61.47c0.22-0.21,0.33-0.5,0.33-0.79c0-0.28-0.11-0.56-0.33-0.79c-0.43-0.42-1.13-0.42-1.56,0
			c-0.22,0.22-0.32,0.51-0.32,0.79c0,0.29,0.1,0.58,0.32,0.79c0.21,0.21,0.5,0.32,0.79,0.32C70.66,61.79,70.95,61.68,71.16,61.47"/>
	</defs>
	<clipPath id="SVGID_95_">
		<use xlink:href="#SVGID_93_"  style="overflow:visible;"/>
	</clipPath>
	<clipPath id="SVGID_96_" class="st46">
		<use xlink:href="#SVGID_94_"  style="overflow:visible;"/>
	</clipPath>
	<rect x="64.28" y="54.58" class="st47" width="12.21" height="12.21"/>
</g>
<g>
	<defs>
		<rect id="SVGID_97_" x="24.27" y="15.31" width="200" height="60"/>
	</defs>
	<defs>
		<path id="SVGID_98_" d="M74.25,64.57c0.24-0.22,0.34-0.5,0.34-0.78c0-0.29-0.11-0.56-0.34-0.78c-0.46-0.43-1.2-0.43-1.67,0
			c-0.24,0.22-0.35,0.5-0.35,0.78c0,0.29,0.12,0.56,0.35,0.78c0.22,0.21,0.53,0.32,0.83,0.32C73.72,64.89,74.03,64.78,74.25,64.57"
			/>
	</defs>
	<clipPath id="SVGID_99_">
		<use xlink:href="#SVGID_97_"  style="overflow:visible;"/>
	</clipPath>
	<clipPath id="SVGID_100_" class="st48">
		<use xlink:href="#SVGID_98_"  style="overflow:visible;"/>
	</clipPath>
	<rect x="67.23" y="57.68" class="st49" width="12.36" height="12.21"/>
</g>
<g>
	<defs>
		<rect id="SVGID_101_" x="24.27" y="15.31" width="200" height="60"/>
	</defs>
	<defs>
		<path id="SVGID_102_" d="M44.38,28.36c3.13-2.03,6.59-3.05,10.39-3.06c3.75-0.01,7.22,1.02,10.4,3.08l6.66-6.64
			c-5.18-3.96-10.87-5.94-17.06-5.94c-6.22,0.01-11.9,1.98-17.04,5.93L44.38,28.36L44.38,28.36z"/>
	</defs>
	<clipPath id="SVGID_103_">
		<use xlink:href="#SVGID_101_"  style="overflow:visible;"/>
	</clipPath>
	<clipPath id="SVGID_104_" class="st50">
		<use xlink:href="#SVGID_102_"  style="overflow:visible;"/>
	</clipPath>
	<rect x="32.73" y="10.81" class="st51" width="44.1" height="22.58"/>
</g>
<g>
	<defs>
		<rect id="SVGID_105_" x="24.27" y="15.31" width="200" height="60"/>
	</defs>
	<defs>
		<path id="SVGID_106_" d="M37.73,55.63c-2.1-3.2-3.15-6.66-3.15-10.38c0.01-3.77,1.05-7.23,3.13-10.37l-6.61-6.63
			c-3.88,5.08-5.83,10.74-5.83,17.01c-0.01,6.21,1.95,11.88,5.85,17.01L37.73,55.63L37.73,55.63z"/>
	</defs>
	<clipPath id="SVGID_107_">
		<use xlink:href="#SVGID_105_"  style="overflow:visible;"/>
	</clipPath>
	<clipPath id="SVGID_108_" class="st52">
		<use xlink:href="#SVGID_106_"  style="overflow:visible;"/>
	</clipPath>
	<rect x="20.27" y="23.24" class="st53" width="22.47" height="44.02"/>
</g>
<g>
	<defs>
		<rect id="SVGID_109_" x="24.27" y="15.31" width="200" height="60"/>
	</defs>
	<defs>
		<path id="SVGID_110_" d="M65.21,62.26c-3.16,2.13-6.62,3.21-10.37,3.24c-3.82,0.03-7.31-1.05-10.5-3.22l-6.61,6.62
			c5.14,4,10.86,5.98,17.15,5.93c6.23-0.05,11.88-2.03,16.95-5.95L65.21,62.26L65.21,62.26z"/>
	</defs>
	<clipPath id="SVGID_111_">
		<use xlink:href="#SVGID_109_"  style="overflow:visible;"/>
	</clipPath>
	<clipPath id="SVGID_112_" class="st54">
		<use xlink:href="#SVGID_110_"  style="overflow:visible;"/>
	</clipPath>
	<rect x="32.73" y="57.26" class="st55" width="44.1" height="22.58"/>
</g>
<g>
	<defs>
		<rect id="SVGID_113_" x="24.27" y="15.31" width="200" height="60"/>
	</defs>
	<defs>
		<path id="SVGID_114_" d="M71.7,34.88c2.13,3.21,3.18,6.73,3.14,10.56c-0.04,3.69-1.1,7.09-3.15,10.2l6.65,6.63
			c3.92-5.08,5.9-10.72,5.95-16.91c0.05-6.28-1.93-11.98-5.93-17.11L71.7,34.88L71.7,34.88z"/>
	</defs>
	<clipPath id="SVGID_115_">
		<use xlink:href="#SVGID_113_"  style="overflow:visible;"/>
	</clipPath>
	<clipPath id="SVGID_116_" class="st56">
		<use xlink:href="#SVGID_114_"  style="overflow:visible;"/>
	</clipPath>
	<rect x="66.69" y="23.24" class="st57" width="22.61" height="44.02"/>
</g>
<g>
	<defs>
		<rect id="SVGID_117_" x="24.27" y="15.31" width="200" height="60"/>
	</defs>
	<defs>
		<path id="SVGID_118_" d="M78.65,64.3c2.57,0,4.65,2.08,4.65,4.65c0,2.57-2.08,4.65-4.65,4.65c-2.57,0-4.65-2.08-4.65-4.65
			C74,66.38,76.08,64.3,78.65,64.3"/>
	</defs>
	<clipPath id="SVGID_119_">
		<use xlink:href="#SVGID_117_"  style="overflow:visible;"/>
	</clipPath>
	<clipPath id="SVGID_120_" class="st58">
		<use xlink:href="#SVGID_118_"  style="overflow:visible;"/>
	</clipPath>
	<rect x="69" y="59.3" class="st59" width="19.3" height="19.3"/>
</g>
<g>
	<defs>
		<rect id="SVGID_121_" x="24.27" y="15.31" width="200" height="60"/>
	</defs>
	<defs>
		<path id="SVGID_122_" d="M31.06,64.3c2.53,0,4.58,2.08,4.58,4.65s-2.05,4.65-4.58,4.65c-2.53,0-4.57-2.08-4.57-4.65
			S28.53,64.3,31.06,64.3"/>
	</defs>
	<clipPath id="SVGID_123_">
		<use xlink:href="#SVGID_121_"  style="overflow:visible;"/>
	</clipPath>
	<clipPath id="SVGID_124_" class="st60">
		<use xlink:href="#SVGID_122_"  style="overflow:visible;"/>
	</clipPath>
	<rect x="21.48" y="59.3" class="st61" width="19.15" height="19.3"/>
</g>
<g>
	<defs>
		<rect id="SVGID_125_" x="24.27" y="15.31" width="200" height="60"/>
	</defs>
	<defs>
		<path id="SVGID_126_" d="M78.72,16.78c2.53,0,4.58,2.08,4.58,4.65c0,2.57-2.05,4.65-4.58,4.65c-2.53,0-4.58-2.08-4.58-4.65
			C74.15,18.86,76.2,16.78,78.72,16.78"/>
	</defs>
	<clipPath id="SVGID_127_">
		<use xlink:href="#SVGID_125_"  style="overflow:visible;"/>
	</clipPath>
	<clipPath id="SVGID_128_" class="st62">
		<use xlink:href="#SVGID_126_"  style="overflow:visible;"/>
	</clipPath>
	<rect x="69.15" y="11.78" class="st63" width="19.15" height="19.3"/>
</g>
<g>
	<defs>
		<rect id="SVGID_129_" x="24.27" y="15.31" width="200" height="60"/>
	</defs>
	<defs>
		<path id="SVGID_130_" d="M30.98,16.78c2.57,0,4.65,2.05,4.65,4.57c0,2.53-2.08,4.58-4.65,4.58s-4.65-2.05-4.65-4.58
			C26.34,18.83,28.42,16.78,30.98,16.78"/>
	</defs>
	<clipPath id="SVGID_131_">
		<use xlink:href="#SVGID_129_"  style="overflow:visible;"/>
	</clipPath>
	<clipPath id="SVGID_132_" class="st64">
		<use xlink:href="#SVGID_130_"  style="overflow:visible;"/>
	</clipPath>
	<rect x="21.34" y="11.78" class="st65" width="19.3" height="19.15"/>
</g>
</svg>
