<svg xmlns="http://www.w3.org/2000/svg" viewBox="0 0 32 32" enable-background="new 0 0 32 32"><circle cx="16" cy="16" r="16" fill-rule="evenodd" clip-rule="evenodd" fill="#13b5ec"/><defs><filter id="a" filterUnits="userSpaceOnUse" x="10" y="6" width="11.9" height="20"><feColorMatrix values="1 0 0 0 0 0 1 0 0 0 0 0 1 0 0 0 0 0 1 0"/></filter></defs><mask maskUnits="userSpaceOnUse" x="10" y="6" width="11.9" height="20" id="b"><path d="M10 6h93.1v20H10V6z" fill-rule="evenodd" clip-rule="evenodd" fill="#fff" filter="url(#a)"/></mask><g mask="url(#b)"><path d="M17.2 12.9l3.6-2.1V15l-3.6-2.1zm3.6 9L16 24.7l-4.8-2.8V17l4.8 2.8 4.8-2.8v4.9zm-9.6-11.1l3.6 2.1-3.6 2.1v-4.2zm5.4 3.1l3.6 2.1-3.6 2.1v-4.2zm-1.2 4.2L11.8 16l3.6-2.1v4.2zm4.8-8.3L16 12.2l-4.2-2.4L16 7.3l4.2 2.5zM10 9.4V22.5l6 3.4 6-3.4V9.4L16 6l-6 3.4z" fill-rule="evenodd" clip-rule="evenodd" fill="#fff"/></g></svg>