<?xml version="1.0" encoding="utf-8"?>
<!-- Generator: Adobe Illustrator 23.0.1, SVG Export Plug-In . SVG Version: 6.00 Build 0)  -->
<svg version="1.1" id="katman_1" xmlns="http://www.w3.org/2000/svg" xmlns:xlink="http://www.w3.org/1999/xlink" x="0px" y="0px"
	 viewBox="0 0 173.6 187.76" style="enable-background:new 0 0 173.6 187.76;" xml:space="preserve">
<style type="text/css">
	.st0{fill:#23297C;}
	.st1{fill:#018BCB;}
</style>
<g>
	<path class="st0" d="M102.44,85.53c-7.06,0-14.12,0-21.18,0c-4.91,0-8.8,3.77-8.82,8.52c-0.02,4.94,3.76,8.71,8.79,8.72
		c8.24,0.02,16.48,0,24.72,0.01c1.7,0,2.76,0.82,3.04,2.32c0.12,0.64-0.07,1.22-0.35,1.78c-4.48,9.22-11.7,15.07-21.75,17.07
		c-15.04,2.99-29.74-5.64-34.62-20.08c-5.68-16.79,4.13-34.89,21.36-39.15c9.33-2.3,17.96-0.52,25.66,5.26
		c2.61,1.96,5.36,3.14,8.65,2.75c3.15-0.38,5.6-1.82,6.87-4.83c1.3-3.07,1.05-6.09-0.96-8.77c-1.16-1.55-2.84-2.63-4.4-3.77
		c-8.39-6.09-17.75-9.26-28.13-9.33c-4.18-0.03-7.89-2.85-8.7-6.63c-0.9-4.22,1.06-8.26,4.88-9.98c1.08-0.49,2.23-0.74,3.43-0.75
		c8.28-0.04,16.27,1.48,23.97,4.48c6.28,2.44,12.03,5.82,17.27,10.06c5.33,4.31,9.9,9.31,13.65,15.04
		c4.54,6.93,7.72,14.43,9.37,22.57c0.59,2.9,0.97,5.81,1.2,8.76c0.21,2.64,0.26,5.27,0.11,7.9c-0.43,7.77-2.09,15.27-5.19,22.43
		c-2.14,4.93-4.78,9.57-8.05,13.84c-3.26,4.26-6.96,8.09-11.16,11.45c-3.94,3.16-8.14,5.87-12.67,8.07
		c-5.47,2.65-11.22,4.47-17.21,5.51c-3.93,0.68-7.88,1.06-11.87,0.88c-4.27-0.19-7.85-3.97-7.93-8.26c-0.09-4.72,3.15-8.59,7.6-8.96
		c2.8-0.23,5.61-0.2,8.39-0.65c8.66-1.38,16.4-4.8,23.15-10.37c8.74-7.21,14.3-16.39,16.67-27.47c1-4.64,1.26-9.35,0.77-14.08
		c-0.26-2.48-2.29-4.31-4.79-4.31C116.96,85.53,109.7,85.53,102.44,85.53z"/>
	<path class="st1" d="M62.68,143.48c0,4.51-3.62,8.15-8.12,8.17c-4.5,0.02-8.21-3.69-8.21-8.2c0.01-4.53,3.66-8.15,8.23-8.14
		C59.1,135.32,62.68,138.94,62.68,143.48z"/>
	<path class="st1" d="M34.14,94.08c0,4.56-3.63,8.17-8.2,8.15c-4.48-0.01-8.15-3.7-8.14-8.17c0.01-4.5,3.74-8.2,8.25-8.17
		C30.54,85.92,34.14,89.55,34.14,94.08z"/>
	<path class="st1" d="M42.26,66.19c0,4.53-3.6,8.12-8.13,8.12c-4.5,0-8.15-3.62-8.19-8.12c-0.04-4.51,3.64-8.2,8.18-8.2
		C38.7,57.99,42.27,61.58,42.26,66.19z"/>
	<path class="st1" d="M62.68,44.69c-0.01,4.59-3.59,8.14-8.2,8.13c-4.51-0.01-8.14-3.66-8.12-8.15c0.02-4.53,3.74-8.22,8.23-8.17
		C59.11,36.55,62.69,40.16,62.68,44.69z"/>
	<path class="st1" d="M42.26,122.06c0,4.51-3.65,8.14-8.15,8.12c-4.53-0.02-8.23-3.76-8.16-8.24c0.07-4.55,3.66-8.09,8.2-8.08
		C38.74,113.86,42.27,117.43,42.26,122.06z"/>
</g>
</svg>
