<?xml version="1.0" encoding="utf-8"?>
<!-- Generator: Adobe Illustrator 23.0.1, SVG Export Plug-In . SVG Version: 6.00 Build 0)  -->
<svg version="1.1" id="katman_1" xmlns="http://www.w3.org/2000/svg" xmlns:xlink="http://www.w3.org/1999/xlink" x="0px" y="0px"
	 viewBox="0 0 62.67 62.43" style="enable-background:new 0 0 62.67 62.43;" xml:space="preserve">
<style type="text/css">
	.st0{fill:#F9FCFC;}
	.st1{fill:#2FB0E4;}
	.st2{fill:#91C947;}
</style>
<path class="st0" d="M42.92,9.6c1.03,0.66,2.05,1.32,3.08,1.98c-0.29,0.3-0.59,0.6-0.88,0.9c-1.03-0.63-2.06-1.26-3.08-1.89
	C42.33,10.26,42.63,9.93,42.92,9.6z"/>
<path class="st0" d="M51.01,16.58c0.66,1.02,1.32,2.04,1.98,3.06c-0.33,0.3-0.67,0.6-1,0.89c-0.63-1.03-1.25-2.07-1.88-3.1
	C50.41,17.15,50.71,16.86,51.01,16.58z"/>
<path class="st0" d="M11.66,45.89c-0.66-1.02-1.32-2.04-1.98-3.06c0.34-0.3,0.68-0.6,1.01-0.9c0.63,1.03,1.26,2.06,1.89,3.09
	C12.28,45.31,11.97,45.6,11.66,45.89z"/>
<path class="st0" d="M19.75,52.86c-1.03-0.66-2.05-1.32-3.08-1.98c0.3-0.3,0.59-0.6,0.89-0.9c1.03,0.63,2.06,1.25,3.09,1.88
	C20.35,52.2,20.05,52.53,19.75,52.86z"/>
<path class="st0" d="M46,11.58c0.52,0.47,1.04,0.93,1.56,1.4c-0.27,0.33-0.53,0.65-0.8,0.98c-0.55-0.49-1.1-0.98-1.65-1.47
	C45.41,12.18,45.71,11.88,46,11.58z"/>
<path class="st0" d="M49.59,15c0.48,0.53,0.95,1.06,1.43,1.58c-0.3,0.28-0.61,0.57-0.91,0.85c-0.48-0.53-0.96-1.06-1.45-1.58
	C48.97,15.56,49.28,15.28,49.59,15z"/>
<path class="st0" d="M13.09,47.47c-0.47-0.53-0.95-1.06-1.42-1.58c0.31-0.29,0.62-0.58,0.92-0.87c0.48,0.53,0.96,1.07,1.43,1.6
	C13.71,46.9,13.4,47.19,13.09,47.47z"/>
<path class="st0" d="M16.67,50.89c-0.52-0.47-1.04-0.93-1.57-1.4c0.28-0.32,0.55-0.63,0.83-0.95c0.54,0.48,1.08,0.96,1.62,1.44
	C17.26,50.28,16.96,50.59,16.67,50.89z"/>
<path class="st0" d="M47.57,12.98c0.34,0.34,0.67,0.67,1.01,1.01c-0.29,0.3-0.58,0.61-0.87,0.91c-0.31-0.31-0.63-0.63-0.94-0.94
	C47.03,13.63,47.3,13.3,47.57,12.98z"/>
<path class="st0" d="M48.58,13.98c0.34,0.34,0.67,0.67,1.01,1.01c-0.31,0.28-0.62,0.57-0.93,0.85c-0.32-0.32-0.63-0.64-0.95-0.95
	C48,14.59,48.29,14.29,48.58,13.98z"/>
<path class="st0" d="M14.09,48.48c-0.34-0.34-0.67-0.67-1.01-1.01c0.31-0.28,0.62-0.57,0.93-0.85c0.31,0.32,0.63,0.64,0.94,0.95
	C14.67,47.88,14.38,48.18,14.09,48.48z"/>
<path class="st0" d="M15.1,49.49c-0.34-0.33-0.67-0.67-1.01-1c0.29-0.3,0.58-0.6,0.87-0.91c0.32,0.32,0.65,0.64,0.97,0.96
	C15.66,48.85,15.38,49.17,15.1,49.49z"/>
<path class="st1" d="M15.93,48.54c-0.32-0.32-0.65-0.64-0.97-0.96c-0.31-0.32-0.63-0.64-0.94-0.95c-0.48-0.53-0.96-1.07-1.43-1.6
	c-0.63-1.03-1.26-2.06-1.89-3.09c-7.45-17.6,4.23-30.81,15.79-33.21c5.45-1.13,10.52-0.05,15.55,1.88c1.03,0.63,2.06,1.26,3.08,1.89
	c0.55,0.49,1.1,0.98,1.65,1.47c0.31,0.31,0.63,0.63,0.94,0.94c0.32,0.32,0.63,0.64,0.95,0.95c0.48,0.53,0.96,1.06,1.45,1.58
	c0.63,1.03,1.25,2.07,1.88,3.1c0.86,2.86,2.14,5.6,2.29,8.65c0.1,2.04,0.3,4.45-2.43,4.62c-2.41,0.16-2.44-2.04-2.72-3.94
	c-1.74-11.67-11.44-18.62-22.05-15.9C19.12,16,13.59,22.95,13.49,31.03c-0.1,8.24,5.51,15.43,13.67,17.48
	c0.96,0.24,1.95,0.47,2.94,0.54c1.82,0.13,3.53,0.56,3.36,2.76c-0.19,2.56-2.3,2.42-4.17,2.35c-3.05-0.11-5.79-1.43-8.65-2.29
	c-1.03-0.63-2.06-1.25-3.09-1.88C17.01,49.5,16.47,49.02,15.93,48.54z"/>
<g>
	<path class="st2" d="M34.21,0.29c0,0-3.15-1.26-4.9,1.49c-0.33,0.52-0.48,1.19-0.3,1.8c0.3,1.01,1.47,1.9,5.74,2.1
		C34.94,0.63,34.21,0.29,34.21,0.29z"/>
	<path class="st2" d="M5.39,30.65c0,0,1.26-3.15-1.49-4.9c-0.52-0.33-1.19-0.48-1.8-0.3c-1.01,0.3-1.9,1.47-2.1,5.74
		C5.05,31.38,5.39,30.65,5.39,30.65z"/>
	<path class="st2" d="M32.98,0v5.55c13.47,0.84,24.14,12,24.14,25.64c0,14.19-11.54,25.7-25.78,25.7C17.1,56.9,5.55,45.39,5.55,31.2
		c0-0.43,0.01-0.87,0.03-1.29H0.03C0.02,30.33,0,30.76,0,31.2c0,17.25,14.03,31.24,31.34,31.24c17.31,0,31.34-13.99,31.34-31.24
		C62.67,14.49,49.52,0.85,32.98,0z"/>
</g>
</svg>
