<svg xmlns="http://www.w3.org/2000/svg" width="63.627" height="63.672" viewBox="0 0 63.627 63.672">
  <g id="Group_2762" data-name="Group 2762" transform="translate(-6407.861 20021.904)">
    <path id="Path_1882" data-name="Path 1882" d="M6418.489-20020.9h-9.627v9.672" fill="none" stroke="#28303f" stroke-width="2"/>
    <path id="Path_1885" data-name="Path 1885" d="M6418.489-20011.232h-9.627v-9.672" transform="translate(0 52)" fill="none" stroke="#28303f" stroke-width="2"/>
    <path id="Path_1883" data-name="Path 1883" d="M6408.861-20020.9h9.627v9.672" transform="translate(52)" fill="none" stroke="#28303f" stroke-width="2"/>
    <path id="Path_1884" data-name="Path 1884" d="M6408.861-20011.232h9.627v-9.672" transform="translate(52 52)" fill="none" stroke="#28303f" stroke-width="2"/>
    <path id="Path_1887" data-name="Path 1887" d="M6429.865-19991.992l-.954-2.66a10.51,10.51,0,0,1-.728-2.932,21.287,21.287,0,0,1,.394-3.408,18.9,18.9,0,0,1,.7-2.117,16.947,16.947,0,0,1,1.334-2.008c.23-.2,1.514-1.443,1.514-1.443s3.179-1.641,3.321-1.721,3.028-.9,3.3-.949,6.317,1.143,6.317,1.143,3.713,3.639,4.181,4.336,1.912,3.127,1.855,4.211a13.407,13.407,0,0,1-.935,4.326c-.516.887-2,3.621-2,3.621h-16.374Z" fill="#1ba4e8"/>
    <g id="Group_2762-2" data-name="Group 2762" transform="translate(4691.542 -20183.715)">
      <path id="Path_1881" data-name="Path 1881" d="M1749.316,173.149a5.236,5.236,0,0,0,1.26.277,12.4,12.4,0,0,1,3.153,23.067l-.339.182c.347.12.638.215.926.322q11.234,4.154,13.368,15.932a22.9,22.9,0,0,1,.251,3.619c.006.306-.075.455-.4.406a1.406,1.406,0,0,0-.2,0q-19.425,0-38.85.012c-.495,0-.614-.116-.609-.61q.138-12.2,10.776-18.159a18.845,18.845,0,0,1,3.775-1.506,13.31,13.31,0,0,1-3.018-2.1,12.042,12.042,0,0,1-3.9-9.692,12.353,12.353,0,0,1,9.372-11.4,9.254,9.254,0,0,0,1.563-.35Zm-1.452,41.8h17.374c.12,0,.24-.01.359,0,.24.024.313-.039.286-.309a17.836,17.836,0,0,0-9.754-14.725,16.426,16.426,0,0,0-3.915-1.465,1.678,1.678,0,0,1-1.327-1.4,1.658,1.658,0,0,1,.685-1.709,4.043,4.043,0,0,1,.77-.393,10.406,10.406,0,1,0-14.643-7.322,10.245,10.245,0,0,0,6,7.428,2.276,2.276,0,0,1,.806.526,1.742,1.742,0,0,1-.925,2.867,18.305,18.305,0,0,0-4.047,1.545,17.859,17.859,0,0,0-9.6,14.344c-.055.469.029.626.558.623C1736.281,214.941,1742.072,214.95,1747.864,214.95Z" transform="translate(0 0)" fill="#28303f"/>
    </g>
    <path id="Path_1888" data-name="Path 1888" d="M6418.489-19991.625h43.206" fill="none" stroke="#28303f" stroke-width="2"/>
  </g>
</svg>
