<svg xmlns="http://www.w3.org/2000/svg" width="22.5" height="22.5" viewBox="0 0 22.5 22.5">
  <g id="Group_5804" data-name="Group 5804" transform="translate(-1728.499 -717)">
    <path id="Path_250" data-name="Path 250" d="M-877.063,601.377a4.647,4.647,0,0,0-4.642,4.642V615a4.647,4.647,0,0,0,4.642,4.642h8.983A4.647,4.647,0,0,0-863.439,615v-8.983a4.647,4.647,0,0,0-4.642-4.642Zm8.983,20.383h-8.983A6.766,6.766,0,0,1-883.822,615v-8.983a6.766,6.766,0,0,1,6.759-6.759h8.983a6.766,6.766,0,0,1,6.758,6.759V615a6.766,6.766,0,0,1-6.758,6.759Z" transform="translate(2612.321 117.74)" fill="#9caece"/>
  </g>
</svg>
