<?xml version="1.0" encoding="utf-8"?>
<!-- Generator: Adobe Illustrator 23.0.1, SVG Export Plug-In . SVG Version: 6.00 Build 0)  -->
<svg version="1.1" id="katman_1" xmlns="http://www.w3.org/2000/svg" xmlns:xlink="http://www.w3.org/1999/xlink" x="0px" y="0px"
	 viewBox="0 0 107 133" style="enable-background:new 0 0 107 133;" xml:space="preserve">
<style type="text/css">
	.st0{fill:#FE5751;}
	.st1{fill:#FEDBDA;}
</style>
<g>
	<path class="st0" d="M51.43,56.68c4.6-5.12,8.48-10.8,12.73-16.2c3.25-4.13,6.42-8.33,9.6-12.51c0.48-0.62,0.91-1.1,1.81-1.09
		c4.37,0.04,8.75,0.02,13.24,0.02c-0.12,0.98-0.77,1.52-1.24,2.13c-9.25,12.07-18.5,24.15-27.81,36.18
		c-0.97,1.25-1.01,2.03,0.02,3.33c9.63,12.25,19.18,24.57,28.75,36.88c0.22,0.28,0.41,0.59,0.82,1.18c-4.89,0-9.49,0-14.08,0
		c-0.93,0-1.21-0.82-1.65-1.38c-7.03-9.05-14.03-18.11-21.05-27.16c-0.23-0.3-0.49-0.57-0.73-0.85c-2.46-3.3-4.82-6.68-7.63-9.7
		c-0.02-0.38-0.04-0.75-0.06-1.13C46.76,63.28,49.39,60.2,51.43,56.68z"/>
	<path class="st0" d="M28.27,106.26c-2.45,0.74-4.95,0.25-7.42,0.31c-3.9,0.09-3.9,0.02-3.9-3.88c0-24.53,0.02-49.06-0.04-73.59
		c0-1.81,0.42-2.38,2.25-2.25c2.43,0.17,4.88,0.03,7.32,0.05c0.61,0,1.26-0.16,1.79,0.33c-0.31,6.54-0.24,13.09-0.04,19.64
		c-0.04,0.75-0.1,1.49-0.1,2.24c-0.01,9.95-0.01,19.89,0,29.84c0,2.56,0.07,5.12,0.11,7.68c-0.05,2.68-0.15,5.36-0.12,8.04
		C28.16,98.53,27.88,102.4,28.27,106.26z"/>
	<path class="st1" d="M28.23,46.86c-0.2-6.55-0.27-13.09,0.04-19.64c2.56,2.64,4.58,5.71,6.81,8.61
		c5.05,6.57,10.04,13.18,15.07,19.75c0.33,0.43,0.84,0.73,1.27,1.09c-2.04,3.52-4.67,6.6-7.29,9.68c-0.41,0-0.7-0.19-0.95-0.51
		c-3.31-4.36-6.59-8.76-9.97-13.07C31.63,50.76,30.35,48.46,28.23,46.86z"/>
	<path class="st1" d="M28.27,106.26c-0.39-3.86-0.11-7.73-0.16-11.6c-0.03-2.68,0.08-5.36,0.12-8.04c0.22-0.1,0.51-0.15,0.65-0.32
		c4.12-5.29,8.19-10.63,12.38-15.87c0.85-1.06,1.32-2.61,2.94-2.95c2.82,3.02,5.18,6.4,7.63,9.7c-2.09,0.44-2.74,2.41-3.83,3.8
		c-6.48,8.27-12.84,16.65-19.25,24.98C28.64,106.11,28.43,106.17,28.27,106.26z"/>
</g>
</svg>
