<?xml version="1.0" encoding="UTF-8"?>
<svg width="265px" height="72px" viewBox="0 0 265 72" version="1.1" xmlns="http://www.w3.org/2000/svg" xmlns:xlink="http://www.w3.org/1999/xlink">
    <!-- Generator: Sketch 55.2 (78181) - https://sketchapp.com -->
    <title>Selfkey-logo-horizontal-main-whiteSVG</title>
    <desc>Created with Sketch.</desc>
    <defs>
        <linearGradient x1="50%" y1="97.784%" x2="50%" y2="1.559%" id="linearGradient-1">
            <stop stop-color="#08BCCD" offset="0%"></stop>
            <stop stop-color="#2DA1F8" offset="100%"></stop>
        </linearGradient>
        <linearGradient x1="50%" y1="97.784%" x2="43.6843539%" y2="-16.397%" id="linearGradient-2">
            <stop stop-color="#08BCCD" offset="0%"></stop>
            <stop stop-color="#2DA1F8" offset="100%"></stop>
        </linearGradient>
    </defs>
    <g id="Page-1" stroke="none" stroke-width="1" fill="none" fill-rule="evenodd">
        <g id="Horizontal" transform="translate(-1573.000000, 0.000000)">
            <g id="Selfkey-logo-horizontal-main-white" transform="translate(1573.000000, 0.000000)">
                <g id="logo">
                    <g id="selfkey-logo" fill-rule="nonzero">
                        <ellipse id="Oval" fill="url(#linearGradient-1)" cx="29.9987413" cy="50.4" rx="4.64769231" ry="4.65895385"></ellipse>
                        <path d="M63.3776224,18 L31.6888112,0 L0,18 L0,54 L31.6888112,72 L63.3776224,54 L63.3776224,18 Z M41.8103287,15.5630769 C41.8091225,16.6994479 40.887324,17.6217261 39.7466643,17.6278154 L32.0713007,17.6278154 L32.0713007,22.0740923 L37.733035,22.0740923 C38.2815327,22.0752662 38.8070972,22.2934602 39.1941097,22.6806741 C39.5811221,23.0678879 39.7978801,23.5924028 39.7966993,24.1388308 C39.7985435,25.2762762 38.8747877,26.2000169 37.733035,26.2024615 L32.0713007,26.2024615 L32.0713007,42.0313846 C32.0746364,42.1044923 32.0746364,42.1776 32.0713007,42.2507077 C36.0763217,43.3052308 38.6803636,47.1644308 38.1633357,51.2739692 C37.6451958,55.3835077 34.164986,58.4750769 30.0243147,58.5029567 C25.8825315,58.5304615 22.3611818,55.4865231 21.7885594,51.3836308 C21.2159371,47.2807385 23.7677203,43.3883077 27.7593986,42.2795077 C27.7497557,42.1997327 27.7445589,42.1194865 27.7438322,42.0391385 L27.7438322,15.6705231 C27.742356,15.0972718 27.9696792,14.5469474 28.3757307,14.140766 C28.7817823,13.7345847 29.3332544,13.5058647 29.9086783,13.5049846 C30.0899161,13.5049846 30.270042,13.5293538 30.4457203,13.5747692 C30.6157812,13.5291218 30.7910715,13.5056642 30.9671958,13.5049846 L39.7533357,13.5049846 C40.8939953,13.5110739 41.8157938,14.4333521 41.817,15.5697231 L41.8103287,15.5641846 L41.8103287,15.5630769 Z" id="Shape" fill="url(#linearGradient-2)"></path>
                    </g>
                    <path d="M103.234364,29.088 L103.234364,30.2976 L100.112182,30.2976 L100.112182,29.088 C100.112182,28.9151991 100.049546,28.7664006 99.9242727,28.6416 C99.7989994,28.5167994 99.6496372,28.4544 99.4761818,28.4544 L86.178,28.4544 C86.0045446,28.4544 85.8551824,28.5167994 85.7299091,28.6416 C85.6046357,28.7664006 85.542,28.9151991 85.542,29.088 L85.542,33.5232 C85.542,33.6960009 85.6046357,33.8447994 85.7299091,33.9696 C85.8551824,34.0944006 86.0045446,34.1568 86.178,34.1568 L99.4761818,34.1568 C100.516914,34.1568 101.403451,34.5215964 102.135818,35.2512 C102.868185,35.9808036 103.234364,36.8639948 103.234364,37.9008 L103.234364,42.336 C103.234364,43.3728052 102.868185,44.2559964 102.135818,44.9856 C101.403451,45.7152036 100.516914,46.08 99.4761818,46.08 L86.178,46.08 C85.1372675,46.08 84.2507309,45.7152036 83.5183636,44.9856 C82.7859963,44.2559964 82.4198182,43.3728052 82.4198182,42.336 L82.4198182,41.1264 L85.542,41.1264 L85.542,42.336 C85.542,42.5088009 85.6046357,42.6575994 85.7299091,42.7824 C85.8551824,42.9072006 86.0045446,42.9696 86.178,42.9696 L99.4761818,42.9696 C99.6496372,42.9696 99.7989994,42.9072006 99.9242727,42.7824 C100.049546,42.6575994 100.112182,42.5088009 100.112182,42.336 L100.112182,37.9008 C100.112182,37.7279991 100.049546,37.5792006 99.9242727,37.4544 C99.7989994,37.3295994 99.6496372,37.2672 99.4761818,37.2672 L86.178,37.2672 C85.1372675,37.2672 84.2507309,36.9024036 83.5183636,36.1728 C82.7859963,35.4431964 82.4198182,34.5600052 82.4198182,33.5232 L82.4198182,29.088 C82.4198182,28.0511948 82.7859963,27.1680036 83.5183636,26.4384 C84.2507309,25.7087964 85.1372675,25.344 86.178,25.344 L99.4761818,25.344 C100.516914,25.344 101.403451,25.7087964 102.135818,26.4384 C102.868185,27.1680036 103.234364,28.0511948 103.234364,29.088 Z M129.913007,25.344 L129.913007,28.4544 L113.955189,28.4544 L113.955189,34.1568 L126.790825,34.1568 L126.790825,37.2672 L113.955189,37.2672 L113.955189,42.9696 L129.913007,42.9696 L129.913007,46.08 L110.833007,46.08 L110.833007,25.344 L129.913007,25.344 Z M137.396014,46.08 L137.396014,25.3152 L140.518196,25.3152 L140.518196,42.9696 L158.210559,42.9696 L158.210559,46.08 L137.396014,46.08 Z M164.392657,25.344 L183.472657,25.344 L183.472657,28.4544 L167.514839,28.4544 L167.514839,34.1568 L180.350475,34.1568 L180.350475,37.2672 L167.514839,37.2672 L167.514839,46.08 L164.392657,46.08 L164.392657,25.344 Z M206.046209,25.344 L209.746573,25.344 L209.746573,25.776 L201.391846,35.712 L209.746573,45.648 L209.746573,46.08 L206.046209,46.08 L198.616573,37.2672 L192.834755,37.2672 L192.834755,46.08 L189.712573,46.08 L189.712573,25.344 L192.834755,25.344 L192.834755,34.1568 L198.616573,34.1568 L206.046209,25.344 Z M236.30958,25.344 L236.30958,28.4544 L220.351762,28.4544 L220.351762,34.1568 L233.187398,34.1568 L233.187398,37.2672 L220.351762,37.2672 L220.351762,42.9696 L236.30958,42.9696 L236.30958,46.08 L217.22958,46.08 L217.22958,25.344 L236.30958,25.344 Z M261.253678,25.344 L264.954041,25.344 L255.356223,38.304 L255.356223,46.08 L252.234041,46.08 L252.234041,38.304 L242.636223,25.344 L246.307678,25.344 L253.795132,34.7904 L261.253678,25.344 Z" id="SELFKEY-Copy" fill="#FFFFFF"></path>
                </g>
            </g>
        </g>
    </g>
</svg>