<?xml version="1.0" encoding="utf-8"?>
<!-- Generator: Adobe Illustrator 23.0.1, SVG Export Plug-In . SVG Version: 6.00 Build 0)  -->
<svg version="1.1" id="katman_1" xmlns="http://www.w3.org/2000/svg" xmlns:xlink="http://www.w3.org/1999/xlink" x="0px" y="0px"
	 viewBox="0 0 64 64" style="enable-background:new 0 0 64 64;" xml:space="preserve">
<style type="text/css">
	.st0{fill:#222238;}
	.st1{fill:#FFFFFF;}
</style>
<rect class="st0" width="64" height="64"/>
<g>
	<polygon class="st1" points="15.56,11.8 9.42,23.71 14.55,23.71 	"/>
	<polygon class="st1" points="16.84,11.8 15.92,23.71 27.1,19.31 	"/>
	<polygon class="st1" points="18.49,11.07 28.02,18.31 31.13,15.92 	"/>
	<polygon class="st1" points="9.42,25.63 14.09,25.63 24.81,52.47 21.51,52.47 	"/>
	<polygon class="st1" points="15.92,25.63 27.1,20.6 33.97,52.47 25.91,52.47 	"/>
	<polygon class="st1" points="28.75,19.86 32.72,16.84 35.8,52.93 	"/>
	<polygon class="st1" points="38.18,28.84 45.97,33.24 42.08,52.47 36.63,52.47 	"/>
	<polygon class="st1" points="39.1,27.83 46.79,25.63 46.79,31.95 	"/>
	<polygon class="st1" points="47.89,25.63 47.89,31.95 53.66,31.95 	"/>
	<polygon class="st1" points="47.89,33.69 43.59,52.47 48.63,52.47 54.58,33.69 	"/>
</g>
</svg>
