<svg id="Component_25_1" data-name="Component 25 – 1" xmlns="http://www.w3.org/2000/svg" width="29.799" height="39.069" viewBox="0 0 29.799 39.069">
  <path id="Path_13824" data-name="Path 13824" d="M6594.141,982.527h-2.291V982.1c0-1.4,0-2.794,0-4.191a.558.558,0,0,0-.246-.507,2.2,2.2,0,0,1-.278-3.313,2.3,2.3,0,0,1,3.327-.013,2.22,2.22,0,0,1-.253,3.323.614.614,0,0,0-.269.568c.009,1.371,0,2.743,0,4.115Z" transform="translate(-6578.036 -950.412)" fill="#1ba4e8"/>
  <path id="Path_13825" data-name="Path 13825" d="M6454.564,692.433a3.5,3.5,0,0,0-3.362-3.709c0-.14,0-.287,0-.434-.016-1.7.052-3.409-.068-5.1a10.972,10.972,0,0,0-3.446-7.258,11.229,11.229,0,0,0-5.533-2.968,12.054,12.054,0,0,0-3.687-.214c-.066,0-.131.008-.2.015l-.111.01,0,.006c-.057.009-.113.019-.169.032-.395.089-.79.174-1.181.277a11.326,11.326,0,0,0-8.418,9.623c-.2,1.783-.095,3.6-.128,5.4,0,.189,0,.378,0,.585-.277.042-.527.068-.771.12a3.4,3.4,0,0,0-2.7,3.176c-.03.748-.014,1.5-.014,2.248,0,4.662.007,9.323,0,13.985a3.435,3.435,0,0,0,1.931,3.282,2.35,2.35,0,0,0,1.054.25q11.768.021,23.536.011a3.154,3.154,0,0,0,3.055-2.178,4.373,4.373,0,0,0,.213-1.342Q6454.576,700.34,6454.564,692.433Zm-23.962-8.947a8.7,8.7,0,0,1,2.774-5.924,9.078,9.078,0,0,1,6.25-2.573,9.25,9.25,0,0,1,8.64,5.819,9.961,9.961,0,0,1,.636,3.537q0,1.963,0,3.925v.444h-18.312a2.66,2.66,0,0,1-.029-.276C6430.567,686.788,6430.509,685.133,6430.6,683.486Zm21.667,24.663c0,1.023-.4,1.421-1.436,1.421h-22.352c-1.029,0-1.416-.391-1.416-1.431q0-7.792,0-15.584c0-1.175.338-1.508,1.514-1.508q11.119,0,22.238,0c1.059,0,1.451.389,1.451,1.441Q6452.27,700.319,6452.269,708.149Z" transform="translate(-6424.766 -672.699)" fill="#1ba4e8"/>
</svg>

