<svg xmlns="http://www.w3.org/2000/svg" width="15.141" height="15.055" viewBox="0 0 15.141 15.055">
  <path id="Fog_Night-595b40b65ba036ed117d1c77" data-name="Fog Night-595b40b65ba036ed117d1c77" d="M15.212,4.116c-4.368.065-8,3.357-8,7.452,0,.008,1.52.175,1.52.168a5.932,5.932,0,0,1,4.843-5.985c0-.023-.011,0,0,0-.257,3.679.435,7.211,7.075,7.052.02.008.013,0,0,0a5.946,5.946,0,0,1-5.841,4.843c-6.367-.522-6.078-5.91-6.078-5.91l-1.52-.168s-.436,6.809,7.6,7.6a7.358,7.358,0,0,0,7.535-7.748h0c.009-.013-.016-.035,0,0-2.527,0-9.123.63-7.13-7.3Z" transform="translate(-7.205 -4.116)" fill="#fff"/>
</svg>
