<?xml version="1.0" encoding="utf-8"?>
<!-- Generator: Adobe Illustrator 23.0.1, SVG Export Plug-In . SVG Version: 6.00 Build 0)  -->
<svg version="1.1" id="katman_1" xmlns="http://www.w3.org/2000/svg" xmlns:xlink="http://www.w3.org/1999/xlink" x="0px" y="0px"
	 viewBox="0 0 80.44 78.93" style="enable-background:new 0 0 80.44 78.93;" xml:space="preserve">
<style type="text/css">
	.st0{fill:#3E5194;}
</style>
<path class="st0" d="M41.97,9.95c-17.3,0-31.33,14.03-31.33,31.33s14.03,31.33,31.33,31.33S73.3,58.58,73.3,41.28
	S59.27,9.95,41.97,9.95z M46,19.26c10.68,4.78,4.77,13.41,4.77,13.41C43.56,31.25,45.19,19.59,46,19.26z M35.04,20.18
	c8.31-0.88,7.76,6.57,7.76,6.57C37.84,28.46,34.66,20.67,35.04,20.18z M20.86,46.74c4-11.59,13.55-6.22,13.55-6.22
	C33.6,48.18,21.28,47.55,20.86,46.74z M21.85,57.14c-0.88-8.31,6.57-7.76,6.57-7.76C30.13,54.34,22.35,57.52,21.85,57.14z
	 M33.99,63.3c-9.55-13.33,3.09-20.06,3.09-20.06C44.71,49.97,35.16,63.44,33.99,63.3z M27.04,32.62
	C40.2,21.14,48.2,34.55,48.2,34.55C41.77,43.43,26.99,33.92,27.04,32.62z M59.45,37.23c0.97,10.92-16.43,13.43-17.24,12.42
	C44.62,32.36,59.45,37.23,59.45,37.23z M42.4,53.25c10.93-4.17,12.85,6.11,12.85,6.11C49.16,63.45,42.07,54.05,42.4,53.25z
	 M52.92,50.88c5.59-6.21,10.16-0.3,10.16-0.3C60.54,55.17,52.97,51.5,52.92,50.88z"/>
</svg>
