<svg xmlns="http://www.w3.org/2000/svg" width="19.685" height="21.741" viewBox="0 0 19.685 21.741"><g transform="translate(0 0)"><path d="M65.667-501.933a2.165,2.165,0,0,0-1.3,1.042,2.112,2.112,0,0,0-.11,1.611c.059.153.068.221.034.234a7.236,7.236,0,0,0-1.19.476,5.694,5.694,0,0,0-2.755,3.07,19.819,19.819,0,0,0-.893,4.043,7.879,7.879,0,0,1-1.212,3.835,5.373,5.373,0,0,1-.689.642,2.777,2.777,0,0,0-.948,1.02,3.183,3.183,0,0,0-.272,1.433c0,.8.179,1.246.6,1.463.166.089.221.089,3.338.1l3.172.008.047.336a2.624,2.624,0,0,0,.778,1.577,2.7,2.7,0,0,0,1.072.672,1.939,1.939,0,0,0,.842.11,1.943,1.943,0,0,0,.842-.11,2.722,2.722,0,0,0,1.722-1.735,3.434,3.434,0,0,0,.136-.583l.03-.268,3.172-.008c3.125-.013,3.18-.013,3.346-.1a1.19,1.19,0,0,0,.519-.689,4.342,4.342,0,0,0-.021-1.718,2.478,2.478,0,0,0-1.127-1.514,5.6,5.6,0,0,1-.7-.642,8.231,8.231,0,0,1-1.2-3.831,21.483,21.483,0,0,0-.829-3.9,5.871,5.871,0,0,0-3.669-3.584c-.242-.081-.366-.145-.353-.179a3.333,3.333,0,0,0,.17-.8A2.059,2.059,0,0,0,65.667-501.933Zm.778,1.352a.71.71,0,0,1,.391.77.8.8,0,0,1-.51.514.644.644,0,0,1-.621-.2A.668.668,0,0,1,66.445-500.581Zm.693,2.725a4.937,4.937,0,0,1,2.173.914,4.51,4.51,0,0,1,1.535,2.237,21.043,21.043,0,0,1,.723,3.61,11.515,11.515,0,0,0,.544,2.508,4.872,4.872,0,0,0,1.845,2.679,4.523,4.523,0,0,1,.523.464,2.253,2.253,0,0,1,.2.884v.247H57.657l.026-.37a1.5,1.5,0,0,1,.234-.833,4.12,4.12,0,0,1,.4-.332,5.534,5.534,0,0,0,2.181-3.674,14.056,14.056,0,0,0,.34-2.062,20.207,20.207,0,0,1,.723-3.3,4.5,4.5,0,0,1,3.678-2.968A7.889,7.889,0,0,1,67.138-497.855Zm.378,15.081a1.433,1.433,0,0,1-.761,1.042,1.028,1.028,0,0,1-.583.119.965.965,0,0,1-.629-.145,1.393,1.393,0,0,1-.714-1.016l-.03-.178h2.747Z" transform="translate(-56.33 501.999)" fill="#738091"/></g></svg>