<?xml version="1.0" encoding="utf-8"?>
<!-- Generator: Adobe Illustrator 23.0.1, SVG Export Plug-In . SVG Version: 6.00 Build 0)  -->
<svg version="1.1" id="katman_1" xmlns="http://www.w3.org/2000/svg" xmlns:xlink="http://www.w3.org/1999/xlink" x="0px" y="0px"
	 viewBox="0 0 96.35 98.23" style="enable-background:new 0 0 96.35 98.23;" xml:space="preserve">
<style type="text/css">
	.st0{fill:#1A82FF;}
	.st1{fill:#FFFFFF;}
</style>
<g>
	<rect x="16.85" y="17.78" class="st0" width="62.66" height="62.66"/>
	<g>
		<path class="st1" d="M65.77,38.41l-7.03,6.29c0.36,1.39,0.57,2.87,0.57,4.41c0,7.82-5.04,14.15-11.27,14.15
			c-2.62,0-5.02-1.13-6.93-3.01l17.29-16.72c0.01,0.03,0.02,0.07,0.03,0.1l6.89-6.16c-3.47-6.69-9.85-11.17-17.13-11.17
			c-11,0-19.92,10.21-19.92,22.81c0,4.17,0.98,8.08,2.69,11.44l6.71-6.01c-0.56-1.68-0.88-3.51-0.88-5.44
			c0-7.82,5.04-14.15,11.27-14.15c2.93,0,5.59,1.42,7.6,3.73l-17.57,17c-0.02-0.04-0.03-0.08-0.04-0.12l-6.59,5.9
			c3.55,6.29,9.72,10.46,16.75,10.46c11,0,19.92-10.21,19.92-22.81C68.1,45.24,67.25,41.6,65.77,38.41z"/>
	</g>
</g>
</svg>
