<?xml version="1.0" encoding="utf-8"?>
<!-- Generator: Adobe Illustrator 23.0.1, SVG Export Plug-In . SVG Version: 6.00 Build 0)  -->
<svg version="1.1" id="katman_1" xmlns="http://www.w3.org/2000/svg" xmlns:xlink="http://www.w3.org/1999/xlink" x="0px" y="0px"
	 viewBox="0 0 151.62 166.87" style="enable-background:new 0 0 151.62 166.87;" xml:space="preserve">
<style type="text/css">
	.st0{fill:#131B49;}
	.st1{fill:#050B24;}
	.st2{fill:#323E80;}
	.st3{fill:#46549F;}
	.st4{fill:#020822;}
	.st5{fill:#81D5EA;}
	.st6{fill:#9E7CFB;}
	.st7{fill:#86C4ED;}
	.st8{fill:#929EF5;}
	.st9{fill:#F5989B;}
	.st10{fill:#74F8E1;}
	.st11{fill:#DD8AB6;}
	.st12{fill:#BE81D9;}
	.st13{fill:#965E6A;}
</style>
<g>
	<path class="st0" d="M13.87,81.86c0-1.15,0-2.29,0-3.44c0.35-0.03,0.37-0.28,0.38-0.55c0.03-1.06,0.05-2.11,0.09-3.17
		c0.1-2.56,0.38-5.09,0.79-7.61c0.65-4.04,1.75-7.95,3.21-11.77c0.64-1.68,1.41-3.31,2.13-4.96c0.2-0.39,0.41-0.79,0.61-1.18
		c2.01-3.89,4.43-7.51,7.23-10.87c2.52-3.03,5.33-5.79,8.39-8.29c3.61-2.95,7.51-5.45,11.67-7.51c3.4-1.68,6.96-2.98,10.61-4.01
		c0.08,0,0.17,0.01,0.25-0.01c2.53-0.69,5.09-1.19,7.68-1.54c3.02-0.41,6.04-0.52,9.09-0.51c2.25,0.01,4.48,0.13,6.7,0.41
		c1.21,0.16,2.43,0.26,3.58,0.74c0.7,0.1,1.33,0.44,2.01,0.62c6.23,2.38,11.59,6.04,16.08,10.97c2.02,2.22,3.77,4.64,5.36,7.17
		c0.03,0.05,0.06,0.1,0.1,0.15c-0.01,0.04,0.01,0.08,0.05,0.1c0.63,1.19,1.29,2.37,1.89,3.58c1.27,2.53,2.23,5.19,3.07,7.89
		c0.03,0.19,0.06,0.38,0.2,0.54l-0.01,0.01c0.03,0.17,0.03,0.34,0.08,0.5c0.59,2.11,1.01,4.25,1.3,6.42
		c0.18,1.34,0.28,2.69,0.41,4.03c0.14,3.6,0.05,7.2-0.42,10.78c-0.31,2.33-0.8,4.62-1.36,6.9c-0.06,0.16-0.14,0.31-0.19,0.47
		c-1.2,4.28-3.11,8.24-5.69,11.85c-0.82,1.15-1.75,2.23-2.63,3.34c-0.12,0.11-0.26,0.22-0.37,0.34c-4.03,4.31-8.85,7.49-14.19,9.92
		c-1.83,0.83-3.73,1.49-5.59,2.24c-0.08,0.01-0.17,0.01-0.25,0.04c-4.21,1.39-8.52,2.39-12.9,3.06c-2.84,0.44-5.71,0.77-8.44,1.76
		c-3.18,1.15-6.04,2.78-8.21,5.44c-0.97,1.19-1.76,2.49-2.16,3.99l-0.03,0.02l0.01,0.03c-0.03,0.07-0.06,0.13-0.09,0.2
		c-0.02,0.06-0.03,0.13-0.05,0.19c-0.1,0.08-0.11,0.19-0.09,0.31c-0.58,1.74-0.62,3.54-0.5,5.34c0.21,3.06,1.25,5.77,3.51,7.94
		c1.04,0.99,2.26,1.69,3.5,2.39c-0.06,0-0.13,0.01-0.19,0c-2.94-0.7-5.81-1.66-8.6-2.8c-2.55-1.04-5.02-2.26-7.38-3.68
		c-1.29-0.77-2.6-1.51-3.82-2.38c-1.61-1.16-3.23-2.31-4.72-3.63c-0.16-0.14-0.34-0.26-0.58-0.2l0,0c0.05-0.19-0.05-0.32-0.18-0.44
		c-0.71-0.66-1.41-1.33-2.14-1.97c-0.19-0.17-0.42-0.38-0.73-0.3c-0.98-0.72-1.73-1.68-2.55-2.56c-2.53-2.68-4.73-5.62-6.68-8.75
		c-2.14-3.42-3.95-7-5.36-10.78c-0.66-1.77-1.26-3.57-1.77-5.39c-0.5-1.8-0.9-3.63-1.2-5.47c-0.28-1.7-0.56-3.41-0.64-5.14
		C14.11,82.38,14.15,82.07,13.87,81.86z"/>
	<path class="st1" d="M35.38,123.46c0.24-0.07,0.42,0.06,0.58,0.2c1.49,1.32,3.11,2.47,4.72,3.63c1.22,0.87,2.53,1.61,3.82,2.38
		c2.36,1.42,4.83,2.64,7.38,3.68c2.79,1.15,5.66,2.1,8.6,2.8c0.06,0.01,0.13,0,0.19,0c0.97,0.29,1.95,0.56,2.99,0.6
		c-2.4-1.29-4.18-3.13-5.21-5.65c0.41-0.1,0.62,0.41,1.02,0.35c0.33,0.21,0.7,0.12,1.05,0.11c0.43,0.04,0.78-0.16,1.11-0.38
		c1.04-0.71,1.62-2.5,0.03-3.91c0.2-0.25,0.54-0.35,0.62-0.74c0.17-0.84,0.45-1.66,0.8-2.45c0.54-1.2,1.28-2.24,2.4-2.96
		c0.01,0.21,0.02,0.42,0.04,0.64c0.01,0.08,0.02,0.16,0.02,0.25c-0.01,0.02-0.03,0.04-0.02,0.05c0.02,0.03,0.05,0.06,0.07,0.09
		c0.06,0.23,0.09,0.47,0.28,0.64c0.15,0.46,0.5,0.76,0.91,0.91c0.51,0.18,0.74,0.48,0.74,1.01c0,0.12,0.05,0.25,0.08,0.37
		c0.77,2.88,3.17,4.66,6.34,4.66c4.58,0.01,9.16,0,13.74,0c0.19,0,0.38-0.03,0.57-0.04c0.32,0.06,0.32,0.37,0.42,0.58
		c0.5,1.02,1.58,1.55,2.7,1.3c1.05-0.23,1.83-1.21,1.83-2.31c0.01-1.13-0.75-2.08-1.87-2.35c-1.04-0.25-2.21,0.28-2.63,1.29
		c-0.2,0.49-0.47,0.57-0.94,0.57c-4.92-0.01-9.84-0.01-14.75-0.01c-2.44-0.48-3.99-1.88-4.6-4.33c-0.11-0.45,0-0.5,0.32-0.65
		c1.46-0.72,1.92-2.02,1.2-3.29c-0.18-0.56-0.66-0.79-1.12-1.05c-0.17-0.08-0.35-0.16-0.52-0.25c0.04-0.07,0.11-0.2,0.13-0.19
		c0.54,0.18,0.87-0.01,1.12-0.51c0.09-0.18,0.37-0.24,0.58-0.14c0.37,0.17,0.65,0.03,0.94-0.18c0.19-0.14,0.4-0.21,0.64-0.24
		c2.1-0.32,4.18-0.73,6.29-0.97c1.03-0.12,1.98-0.7,3.07-0.58c0.28,0.03,0.59-0.12,0.62-0.51c0.47,0.29,0.99,0.42,1.52,0.53
		c-0.33,0.34-0.76,0.66-1.19,0.49c-0.68-0.27-1.06,0.48-1.65,0.34c-0.02,0.08-0.07,0.17-0.05,0.23c0.08,0.2-0.02,0.29-0.15,0.43
		c-0.25,0.26-0.14,0.41,0.2,0.43c0.29,0.01,0.56-0.04,0.7-0.33c0.16-0.33,0.44-0.39,0.77-0.45c0.79-0.15,1.64,0.31,2.39-0.23
		c0.11-0.08,0.39,0.02,0.33-0.25c-0.05-0.21-0.29-0.16-0.44-0.12c-0.26,0.08-0.5,0.22-0.75,0.32c-0.1,0.04-0.22,0.03-0.25-0.11
		c-0.03-0.13,0.03-0.21,0.16-0.22c0.67-0.08,1.33-0.71,2,0.1c0.32,0.38,0.81,0.08,1.17-0.1c0.4-0.2,0.09-0.34-0.09-0.47
		c-0.02-0.01-0.02-0.1-0.01-0.11c0.42-0.25,0.26-0.67,0.31-1.03c0.02-0.16,0.1-0.3,0.29-0.25c0.18,0.05,0.17,0.19,0.13,0.36
		c-0.07,0.26-0.18,0.56,0.31,0.27c0.23-0.13,0.26,0.09,0.14,0.27c-0.12,0.18-0.21,0.53,0.03,0.5c0.61-0.08,1.3-0.05,1.77-0.59
		c1.79,0.89,3.13,0.4,3.81-1.39c2.28,0.01,4.57,0.02,6.85,0.01c0.39,0,0.81,0.09,1.18-0.13c2.41-0.27,4.65-2.29,5.09-4.6
		c0.02-0.04,0.03-0.08,0.05-0.12c0.09-0.17,0.1-0.35,0.07-0.53c0.14-0.16,0.03-0.45,0.34-0.54c1.42-0.45,1.85-1.51,1.7-2.89
		c0.14,0.09,0.28,0.19,0.42,0.27c0.13,0.08,0.27,0.14,0.42,0.06c0.19-0.09,0.4-0.16,0.42-0.42c0.01-0.16-0.03-0.3-0.18-0.37
		c-0.41-0.19-0.21,0.4-0.49,0.39c-0.24-0.45,0.03-1.39,0.54-1.74c0.86-0.59,1.44-1.49,2.35-2.05c0.33-0.2,0.43-0.18,0.66,0.03
		c0.24,0.22,0.21,0.5,0.19,0.77c-0.03,0.38,0.1,0.57,0.5,0.51c0.02,2.01,0.13,4.02-0.26,6.02c-0.38,2-1.22,3.82-2.3,5.54
		c-0.09,0.09-0.18,0.18-0.25,0.28c-3.13,4.14-7.3,6.17-12.48,6.14c-3.35-0.02-6.7,0.01-10.05,0.02c-3.09-0.01-6.19-0.03-9.28-0.01
		c-0.53,0-0.8-0.12-1.03-0.62c-0.56-1.2-2.03-1.63-3.2-1.01c-1.16,0.62-1.61,2.03-1.01,3.19c0.44,0.86,1.34,1.37,2.3,1.28
		c1.15-0.11,1.84-0.77,2.15-1.86c0.17-0.01,0.34-0.02,0.51-0.02c6.49,0,12.98,0,19.48,0c1.25,0,2.5-0.05,3.73-0.31
		c4.12-0.88,7.41-3.01,9.81-6.49c0,0-0.01,0-0.01,0c0.04-0.05,0.08-0.1,0.12-0.15c1.67-2.32,2.48-4.94,2.7-7.76
		c0.13-0.22,0.13-0.44,0.03-0.67c0.01-0.33,0.01-0.65,0.02-0.98c0-0.05,0-0.11,0-0.16c-0.01-1.26-0.01-2.52-0.02-3.78
		c0.18-0.26-0.09-0.65,0.34-0.87c1.67-0.84,2.02-2.06,1.12-3.74c0.65-0.04,0.99-0.51,1.33-0.98c0.12-0.16,0.24-0.41,0.47-0.37
		c0.21,0.04,0.08,0.3,0.15,0.44c0.11,0.22,0.32,0.46,0.5,0.43c0.36-0.07,0.57-0.4,0.76-0.71c0.08-0.12,0.16-0.27-0.06-0.36
		c-0.25-0.1-0.23-0.29-0.13-0.47c0.08-0.16,0.26-0.27,0.42-0.24c0.34,0.07-0.06,0.38,0.26,0.62c-0.03-0.39,0.93-0.57-0.01-1
		c-0.03-0.01-0.06-0.07-0.06-0.1c-0.05-0.76,1.01-0.88,0.97-1.66c-0.01-0.15,0.17-0.23,0.34-0.17c0.1,0.03,0.2,0.06,0.3,0.09
		c0.01,0.25,0.02,0.51,0.02,0.76c0.01,2.21,0.01,4.42,0.01,6.63c-0.01,1.12-0.03,2.25-0.01,3.37c0.01,0.35-0.09,0.51-0.43,0.65
		c-1.08,0.44-1.66,1.53-1.45,2.61c0.22,1.14,1.19,1.96,2.33,1.97c1.06,0.01,2.11-0.81,2.33-1.82c0.26-1.19-0.27-2.26-1.4-2.75
		c-0.33-0.14-0.43-0.31-0.43-0.66c0-0.95,0.07-1.91-0.04-2.86c0.02-0.31,0.05-0.63,0.05-0.94c0.01-2.79,0.02-5.57,0.03-8.36
		c0.71-0.64,1.18-1.47,1.51-2.33c0.27-0.68,0.53-1.36,0.81-2.04c1.05-2.55,2.08-5.11,2.54-7.85c0.24-1.42,0.77-2.78,0.78-4.25
		c0-1,0.29-1.97,0.3-2.98c0-0.73,0.18-1.49,0.21-2.25c0.05-1.16,0.16-2.31,0.24-3.47c0.01-0.17,0.05-0.29,0.24-0.32
		c0.01,0.51,0.03,1.02,0.04,1.53c-0.01,1.89-0.02,3.78-0.02,5.67c0,4.69,0.01,9.39,0.02,14.08c-0.01,0.21-0.04,0.43-0.02,0.63
		c0.07,0.59-0.05,0.96-0.7,1.25c-1.05,0.47-1.46,1.72-1.09,2.82c0.36,1.06,1.42,1.73,2.53,1.58c1.17-0.15,2.01-1.02,2.09-2.19
		c0.08-1.35-0.7-2.09-1.85-2.56c-0.01-0.17-0.02-0.34-0.03-0.5c0-0.43,0.06-0.86-0.04-1.28c0.1-3.22,0.04-6.45,0.03-9.68
		c0.1-2.04,0.1-4.09,0-6.13c0-0.16,0-0.33,0-0.49c0.1-1.03,0.1-2.06-0.01-3.08c0-0.16,0-0.32,0-0.48c0.11-0.22,0.06-0.45,0.06-0.68
		c0.01-1.18,0.01-2.35,0.02-3.53c0.19-0.09,0.38-0.16,0.56-0.26c1.23-0.64,1.64-2.18,0.9-3.36c-0.57-0.92-2.1-1.64-3.39-0.6
		c-0.07,0.03-0.14,0.06-0.21,0.08c0.06-0.49-0.71-0.99,0.03-1.47c0.02-0.01-0.04-0.15-0.08-0.22c-0.13-0.24-0.21-0.51-0.25-0.78
		c-0.42-2.41-1.19-4.74-1.85-7.08c-0.45-1.61-1.24-3.15-1.97-4.67c-0.89-1.84-1.84-3.64-2.87-5.41c-0.64-1.09-1.39-2.09-2.07-3.15
		c-0.29-0.44-0.51-0.95-0.88-1.34c-0.44-0.47-0.88-0.95-1.33-1.41c-0.3-0.31-0.49-0.67-0.58-1.08c0.26,0.03,0.39,0.24,0.55,0.4
		c0.89,0.9,1.83,1.76,2.71,2.67c2.54,2.62,4.79,5.48,6.83,8.5c1.23,1.82,2.26,3.77,3.39,5.66c0.13,0.29,0.26,0.58,0.4,0.86
		c2.18,4.42,3.8,9.02,4.87,13.84c0.91,4.08,1.35,8.21,1.47,12.38c0.08,2.73-0.19,5.46-0.4,8.18c-0.17,0.25-0.08,0.53-0.11,0.79l0,0
		c-0.03,0.05-0.05,0.1-0.08,0.14c-0.02,0.25-0.03,0.5-0.05,0.74c-0.17,0.2-0.11,0.43-0.11,0.65c-0.02,0.09-0.04,0.17-0.05,0.26
		c-0.26,1.28-0.5,2.56-0.8,3.84c-1.37,5.89-3.56,11.46-6.61,16.7c-1.63,2.8-3.48,5.46-5.52,7.97c-1.42,1.74-2.97,3.36-4.49,5.01
		c-0.19,0-0.31,0.13-0.43,0.25c-2.96,2.91-6.22,5.44-9.72,7.68c-1.33,0.85-2.7,1.66-4.09,2.4c-3.2,1.71-6.54,3.1-10,4.2
		c-0.22,0.07-0.48,0.1-0.47,0.42c-0.21,0.21-0.51,0.15-0.76,0.24c-1.16,0.4-2.36,0.65-3.55,0.93c-0.89,0.21-1.79,0.36-2.68,0.55
		c-0.9,0.19-1.8,0.32-2.71,0.44c-1.33,0.18-2.67,0.33-4.01,0.37c-0.18,0.01-0.2,0.11-0.21,0.24c-2.63,0-5.27,0-7.9,0
		c-0.03-0.34-0.3-0.22-0.48-0.24c-0.7-0.07-1.42,0.02-2.09-0.09c-1.33-0.23-2.68-0.35-4.01-0.63c-1.85-0.38-3.71-0.72-5.53-1.21
		c-1.79-0.48-3.54-1.09-5.28-1.74c-1.86-0.7-3.69-1.49-5.48-2.33c-1.45-0.68-2.86-1.45-4.21-2.29c-1.46-0.9-2.93-1.8-4.3-2.84
		c-0.81-0.61-1.69-1.13-2.46-1.79C36.61,124.62,35.85,124.19,35.38,123.46z"/>
	<path class="st2" d="M58.57,18.25c0.71-0.35,1.5-0.46,2.26-0.65c1.87-0.46,3.75-0.82,5.66-1.07c1.14-0.15,2.29-0.35,3.45-0.32
		c0.58-0.19,1.22,0.02,1.8-0.24c2.12,0,4.25,0,6.37,0c0.66,0.28,1.39,0.03,2.06,0.24c1.94,0.05,3.84,0.42,5.75,0.73
		c1.71,0.27,3.38,0.68,5.04,1.11c1.76,0.46,3.48,1.05,5.19,1.67c2.46,0.89,4.84,1.94,7.15,3.16c4.14,2.18,7.99,4.78,11.55,7.83
		c2.62,2.24,5.05,4.68,7.25,7.31c2.23,2.66,4.24,5.51,5.94,8.56c0.42,0.75,0.83,1.51,1.25,2.26c-0.24,0.04-0.2,0.23-0.21,0.39
		c-1.13-1.88-2.15-3.83-3.39-5.66c-2.04-3.02-4.29-5.88-6.83-8.5c-0.88-0.91-1.82-1.77-2.71-2.67c-0.16-0.16-0.29-0.37-0.55-0.4
		c0,0-0.01,0-0.01,0c-0.01-0.24-0.24-0.28-0.38-0.4c-0.27-0.37-0.64-0.62-1.01-0.87c-0.05-0.05-0.1-0.09-0.15-0.14
		c-0.04-0.04-0.08-0.08-0.12-0.11c-0.04-0.04-0.09-0.09-0.13-0.13c0,0,0,0,0,0c-0.04-0.04-0.09-0.08-0.13-0.12
		c-0.12-0.09-0.19-0.27-0.37-0.26c-0.05-0.04-0.09-0.09-0.14-0.13c-0.03-0.02-0.06-0.04-0.1-0.04c-0.09-0.07-0.17-0.15-0.26-0.22
		c-0.2-0.28-0.51-0.44-0.79-0.63c-0.04-0.04-0.09-0.08-0.13-0.12c-0.05-0.1-0.13-0.13-0.23-0.14c-0.12-0.21-0.34-0.28-0.52-0.4
		c-0.05-0.03-0.09-0.07-0.14-0.1c-0.06-0.11-0.13-0.2-0.26-0.23c-0.28-0.19-0.52-0.45-0.87-0.54c-0.05-0.04-0.1-0.08-0.15-0.13l0,0
		c-0.05-0.04-0.09-0.08-0.14-0.12c-0.63-0.49-1.29-0.93-2.01-1.29c-0.09-0.15-0.22-0.25-0.4-0.26c-0.08-0.15-0.2-0.23-0.37-0.24
		c-0.05-0.04-0.1-0.09-0.15-0.13c-0.22-0.19-0.46-0.32-0.74-0.38c-0.05-0.04-0.1-0.08-0.15-0.12c-0.52-0.34-1.03-0.7-1.63-0.9
		c-0.05-0.04-0.1-0.08-0.16-0.13c-0.05-0.1-0.15-0.12-0.25-0.12c-0.04-0.04-0.09-0.08-0.13-0.12c-0.8-0.39-1.56-0.87-2.41-1.16
		c-0.22-0.21-0.49-0.31-0.78-0.39c-0.17-0.08-0.34-0.16-0.51-0.24c-0.18-0.17-0.42-0.2-0.64-0.26c-0.7-0.36-1.42-0.65-2.17-0.88
		c-0.87-0.44-1.8-0.72-2.72-1.03c-0.62-0.2-1.2-0.51-1.88-0.49l0.01,0c-0.08-0.19-0.24-0.14-0.39-0.13l0.01,0
		c-0.07-0.19-0.17-0.14-0.28-0.04c-0.99-0.34-1.96-0.74-3-0.88c-0.36-0.21-0.77-0.22-1.16-0.3c-0.46-0.09-0.91-0.37-1.4-0.09
		c-1.14-0.48-2.37-0.59-3.58-0.74c-2.22-0.29-4.46-0.41-6.7-0.41c-3.04-0.01-6.07,0.1-9.09,0.51c-2.6,0.35-5.16,0.85-7.68,1.54
		c-0.08,0.02-0.17,0.01-0.25,0.01C58.97,18.22,58.74,18.28,58.57,18.25z"/>
	<path class="st3" d="M129.09,49.24c0.01-0.16-0.03-0.35,0.21-0.39c1.84,3.45,3.3,7.06,4.4,10.82c0.69,2.36,1.28,4.73,1.69,7.15
		c0.28,1.69,0.59,3.38,0.6,5.1c0.19,0.71-0.01,1.47,0.24,2.17c0,1.95,0,3.91,0,5.86c-0.23,0.74-0.13,1.52-0.24,2.28
		c0.05,1.04-0.11,2.06-0.29,3.08c-0.3,0.34-0.29,0.73-0.15,1.13c-0.03,0.22-0.07,0.43-0.1,0.65c-0.14,0-0.28,0-0.42,0
		c0.02-0.09,0.04-0.17,0.05-0.26c0.2-0.19,0.11-0.43,0.11-0.65c0.02-0.25,0.03-0.5,0.05-0.74c0.03-0.05,0.05-0.1,0.08-0.14
		c0,0,0,0,0,0c0.25-0.23,0.11-0.52,0.11-0.79c0.2-2.72,0.48-5.45,0.4-8.18c-0.12-4.17-0.56-8.3-1.47-12.38
		c-1.07-4.81-2.69-9.42-4.87-13.84C129.34,49.81,129.22,49.52,129.09,49.24z"/>
	<path class="st2" d="M14.12,72.14c0.56-7.69,2.57-14.99,5.99-21.9c0.12,0.04,0.23,0.08,0.35,0.12c-0.72,1.65-1.49,3.27-2.13,4.96
		c-1.46,3.82-2.56,7.73-3.21,11.77c-0.4,2.52-0.69,5.05-0.79,7.61c-0.04,1.06-0.07,2.11-0.09,3.17c-0.01,0.28-0.03,0.52-0.38,0.55
		c0-1.49,0-2.97,0-4.46C14.19,73.38,13.89,72.73,14.12,72.14z"/>
	<path class="st0" d="M135.99,82.23c0.11-0.76,0.01-1.54,0.24-2.28c0,0.72,0,1.44,0,2.17C136.15,82.15,136.07,82.19,135.99,82.23z"
		/>
	<path class="st1" d="M136.23,74.09c-0.25-0.71-0.05-1.46-0.24-2.17c0.08,0,0.16,0,0.24,0.01
		C136.23,72.64,136.23,73.36,136.23,74.09z"/>
	<path class="st1" d="M80.17,16.21c-0.67-0.21-1.4,0.04-2.06-0.24c0.68,0,1.36,0,2.04,0C80.16,16.05,80.16,16.13,80.17,16.21z"/>
	<path class="st1" d="M71.74,15.97c-0.57,0.26-1.21,0.06-1.8,0.24c0-0.08,0.01-0.16,0.01-0.24C70.55,15.97,71.14,15.97,71.74,15.97z
		"/>
	<path class="st4" d="M14.12,72.14c-0.23,0.59,0.07,1.24-0.25,1.82c0-0.59,0-1.19,0-1.78C13.95,72.16,14.04,72.15,14.12,72.14z"/>
	<path class="st5" d="M54.4,119.71c0.4-1.5,1.2-2.8,2.16-3.99c2.17-2.66,5.03-4.29,8.21-5.44c2.73-0.99,5.6-1.32,8.44-1.76
		c4.38-0.68,8.69-1.67,12.9-3.06c0.08-0.03,0.17-0.03,0.25-0.04c0.42-0.15,0.72,0.38,1.12,0.22c0.33-0.14,0.6-0.4,0.96,0.01
		c0.15,0.17,0.52,0.06,0.65-0.2c0.26-0.51,0.57-0.43,0.93-0.16c-0.05,0.21-0.81,0.28-0.18,0.49c0.75,0.26,1.55,0.72,2.39,0.35
		c0.72-0.32,1.49-0.11,2.22-0.29c0.21-0.05,0.21,0.15,0.22,0.3c-0.07,0.02-0.13,0.05-0.2,0.07c-0.13-0.01-0.26,0-0.3,0.16
		c-0.24,0.16-0.49,0.3-0.77,0.34c-0.05-0.18,0.11-0.48-0.23-0.48c-0.27,0-0.29,0.25-0.28,0.47c0,0.06,0.01,0.12,0.02,0.19
		c-0.23,0.13-0.46,0.27-0.7,0.38c-6.19,2.63-12.65,4.21-19.28,5.18c-1.85,0.27-3.72,0.34-5.53,0.88c-1.62,0.34-3.15,0.92-4.57,1.79
		c-0.23-0.03-0.39,0.09-0.57,0.22c-1.82,1.22-3.22,2.8-4.19,4.76c-0.14-0.28-0.09-0.79-0.67-0.54c-0.03,0.01-0.14-0.08-0.18-0.14
		c-0.27-0.43-0.66-0.1-0.95-0.09c-0.24,0.01,0.13,0.36,0.08,0.57c-0.71,0-0.92-0.2-0.86-0.85c0.01-0.1,0.01-0.17-0.09-0.2
		c-0.13-0.03-0.17,0.12-0.24,0.14C54.78,119.11,54.99,119.85,54.4,119.71z"/>
	<path class="st6" d="M115.03,77.26c0.55-2.28,1.05-4.57,1.36-6.9c0.48-3.58,0.56-7.18,0.42-10.78c0.1-0.06,0.16-0.14,0.17-0.25
		c0.04-0.48,0.12-0.67,0.75-0.49c0.62,0.18,1.4,0.36,2.02,0.06c0.52-0.25,0.85,0.25,1.32,0.11c0.2-0.06,0.01,0.43,0.25,0.56
		c0.3,3.43,0.2,6.85-0.19,10.26c-0.18,1.55-0.45,3.09-0.69,4.64c-0.14,0.63-0.29,1.27-0.43,1.9c-0.18,0.37-0.25,0.76-0.33,1.16
		c-0.03,0.05-0.05,0.1-0.08,0.15c-0.68,0.31-1.39-0.05-2.08,0.09c-0.16,0.03-0.36,0.02-0.49-0.05
		C116.41,77.37,115.7,77.42,115.03,77.26z"/>
	<path class="st7" d="M94.68,106.15c-0.01-0.15-0.01-0.35-0.22-0.3c-0.73,0.17-1.5-0.03-2.22,0.29c-0.84,0.37-1.64-0.09-2.39-0.35
		c-0.62-0.22,0.13-0.28,0.18-0.49c-0.37-0.26-0.67-0.35-0.93,0.16c-0.13,0.26-0.5,0.36-0.65,0.2c-0.36-0.4-0.63-0.15-0.96-0.01
		c-0.4,0.17-0.7-0.37-1.12-0.22c1.86-0.75,3.76-1.41,5.59-2.24c5.35-2.43,10.16-5.62,14.19-9.92c0.11-0.12,0.25-0.23,0.37-0.34
		c0.28,0.32,0.59,0.52,1.05,0.32c0.19-0.08,0.41-0.03,0.62,0.03c0.38,0.11,0.77,0.24,1.16,0.29c0.34,0.04,0.75-0.29,1.01,0.04
		c0.21,0.27-0.08,0.68,0.01,1.03c-0.31,0.18-0.46,0.52-0.71,0.76c-1.04,0.98-1.92,2.12-3.09,2.98c-1.01,0.74-1.94,1.6-2.89,2.42
		c-1.01,0.87-2.18,1.5-3.28,2.23C98.59,104.22,96.67,105.27,94.68,106.15z"/>
	<path class="st8" d="M110.36,94.62c-0.08-0.35,0.21-0.76-0.01-1.03c-0.26-0.33-0.67,0-1.01-0.04c-0.39-0.05-0.78-0.18-1.16-0.29
		c-0.21-0.06-0.44-0.11-0.62-0.03c-0.46,0.2-0.76,0-1.05-0.32c0.88-1.11,1.81-2.19,2.63-3.34c2.59-3.61,4.49-7.57,5.69-11.85
		c0.05-0.16,0.13-0.31,0.19-0.47c0.67,0.16,1.38,0.12,2,0.47c0.13,0.07,0.34,0.08,0.49,0.05c0.69-0.15,1.4,0.22,2.08-0.09
		c-0.69,2.58-1.65,5.06-2.82,7.46c-0.85,1.74-1.84,3.39-2.92,4.99C112.8,91.71,111.67,93.23,110.36,94.62z"/>
	<path class="st9" d="M88.85,17.99c1.05,0.14,2.01,0.54,3,0.88c0.09,0.01,0.18,0.02,0.28,0.04c0,0-0.01,0-0.01,0
		c0.09,0.17,0.23,0.17,0.39,0.13c0,0-0.01,0-0.01,0c0.06,0.05,0.1,0.13,0.17,0.16c1.55,0.63,3.04,1.4,4.56,2.13l0,0
		c0.14,0.14,0.3,0.24,0.5,0.28c0.1,0.13,0.23,0.21,0.4,0.23c0.08,0.05,0.17,0.09,0.25,0.14c0.04,0.1,0.13,0.12,0.23,0.13
		c0.09,0.06,0.18,0.11,0.27,0.17c0.18,0.14,0.35,0.29,0.58,0.35c0.06,0.04,0.13,0.09,0.19,0.13c0.03,0.1,0.11,0.11,0.2,0.12
		c0.06,0.04,0.12,0.08,0.19,0.12c0,0-0.01-0.01-0.01-0.01c0.05,0.03,0.09,0.07,0.14,0.1c0.02,0.04,0.05,0.05,0.08,0.04
		c0.06,0.04,0.11,0.08,0.17,0.11c0,0,0,0,0,0c0.04,0.03,0.09,0.06,0.13,0.09c0.02,0.04,0.05,0.05,0.1,0.05
		c0.05,0.04,0.11,0.07,0.16,0.11c0,0,0,0,0,0c0.04,0.03,0.08,0.06,0.12,0.09c0.02,0.04,0.06,0.06,0.1,0.05
		c0.05,0.04,0.1,0.08,0.16,0.12c0.03,0.1,0.11,0.13,0.2,0.14c0.06,0.04,0.12,0.08,0.18,0.13L101.54,24c0.05,0.04,0.1,0.07,0.14,0.11
		c0,0,0.02,0.03,0.02,0.03l0.04,0c0.06,0.05,0.13,0.1,0.19,0.15c0.14,0.16,0.3,0.28,0.5,0.35c0.05,0.04,0.1,0.07,0.15,0.11
		c0,0,0.01,0,0.01,0c0.04,0.03,0.08,0.06,0.11,0.09c0.02,0.04,0.06,0.06,0.1,0.05c0.05,0.04,0.11,0.09,0.16,0.13
		c0.12,0.17,0.28,0.3,0.48,0.38c0.05,0.04,0.1,0.09,0.15,0.13c0,0-0.01-0.01-0.01-0.01c0.05,0.04,0.09,0.08,0.14,0.11
		c0,0,0.01,0.01,0.01,0.01c0.08,0.06,0.15,0.13,0.23,0.19c0.04,0.03,0.08,0.05,0.12,0.08c0.09,0.08,0.19,0.15,0.28,0.23
		c0,0,0.01,0.01,0.01,0.01c0.12,0.21,0.27,0.4,0.5,0.51l0,0c0.13,0.08,0.26,0.16,0.39,0.24l0.01,0.01c0.08,0.13,0.18,0.25,0.34,0.29
		l0.02-0.03l-0.02,0.03c0.08,0.18,0.24,0.28,0.4,0.37c0.04,0.04,0.09,0.08,0.13,0.11c0.05,0.12,0.14,0.2,0.26,0.24
		c0,0,0.01,0.01,0.01,0.01c0.08,0.08,0.17,0.16,0.25,0.24c0,0,0.02,0.01,0.02,0.01c0.08,0.08,0.15,0.15,0.23,0.23
		c0,0.04,0.02,0.06,0.06,0.05c0.1,0.1,0.2,0.2,0.3,0.29c0.4,0.4,0.8,0.81,1.2,1.21c0.04,0.11,0.11,0.2,0.23,0.24l0.01,0.01
		c0.04,0.12,0.12,0.21,0.24,0.26l0,0c0.04,0.05,0.08,0.09,0.12,0.14c0.04,0.04,0.08,0.08,0.12,0.12c0.04,0.05,0.09,0.1,0.13,0.15
		c0.04,0.04,0.07,0.07,0.11,0.11c0.05,0.05,0.1,0.11,0.14,0.16c0.08,0.15,0.18,0.29,0.34,0.35c0.01,0.04,0.03,0.08,0.05,0.11
		c0.47,0.79,1.14,1.43,1.7,2.16c0.77,0.99,1.49,2.02,2.12,3.1c0.01,0.11,0.04,0.19,0.16,0.21c0.04,0.07,0.08,0.14,0.12,0.2
		c-0.44,0.16-0.9,0.18-1.25-0.13c-0.39-0.34-0.68-0.52-0.96,0.08c-0.06,0.14-0.17,0.25-0.35,0.17c-0.11-0.05-0.27-0.09-0.22-0.26
		c0.09-0.35-0.03-0.35-0.27-0.17c-0.21,0.16-0.31-0.03-0.41-0.15c-0.2-0.24-0.45-0.28-0.74-0.26c-0.04-0.02-0.05-0.06-0.05-0.1
		c-0.03-0.05-0.06-0.1-0.1-0.15c-1.6-2.53-3.34-4.95-5.36-7.17c-4.5-4.93-9.85-8.58-16.08-10.96C88.38,17.9,88.65,18.05,88.85,17.99
		z"/>
	<path class="st10" d="M54.4,119.71c0.6,0.14,0.38-0.6,0.77-0.72c0.07-0.02,0.11-0.18,0.24-0.14c0.1,0.03,0.1,0.1,0.09,0.2
		c-0.06,0.65,0.14,0.86,0.86,0.85c0.05-0.22-0.33-0.56-0.08-0.57c0.29-0.01,0.68-0.35,0.95,0.09c0.04,0.06,0.14,0.16,0.18,0.14
		c0.58-0.25,0.53,0.27,0.67,0.54c-0.03,0.04-0.05,0.09-0.08,0.13c-0.59-0.02-0.32,0.26-0.18,0.5c-0.98,2.79-0.8,5.6-0.06,8.4
		c0.14,0.58,0.31,1.14,0.58,1.67c0.01,0.11,0.02,0.22,0.13,0.28l-0.01,0.01c1.03,2.53,2.81,4.36,5.21,5.65
		c-1.04-0.05-2.02-0.31-2.99-0.6c-1.23-0.7-2.46-1.4-3.5-2.39c-2.26-2.17-3.3-4.88-3.51-7.94c-0.13-1.8-0.09-3.6,0.5-5.34
		c0.12-0.08,0.12-0.19,0.09-0.31c0.02-0.06,0.03-0.13,0.05-0.19c0.03-0.07,0.06-0.13,0.09-0.2l-0.01-0.03L54.4,119.71z"/>
	<path class="st11" d="M109.88,36.61c0.28-0.02,0.54,0.02,0.74,0.26c0.09,0.11,0.19,0.31,0.41,0.15c0.23-0.18,0.36-0.18,0.27,0.17
		c-0.04,0.17,0.11,0.21,0.22,0.26c0.18,0.08,0.29-0.03,0.35-0.17c0.28-0.6,0.57-0.43,0.96-0.08c0.36,0.32,0.81,0.29,1.25,0.13
		c1.35,2.1,2.51,4.31,3.48,6.61c0.67,1.59,1.33,3.19,1.73,4.88c-0.1,0.22-0.23,0.29-0.5,0.26c-1.26-0.16-2.52-0.29-3.77-0.43
		c0,0,0.01-0.01,0.01-0.01c0.02-0.21,0.13-0.46-0.2-0.54c-0.84-2.7-1.79-5.36-3.07-7.89C111.17,38.98,110.52,37.8,109.88,36.61z"/>
	<path class="st12" d="M115.03,48.63c1.26,0.14,2.52,0.27,3.77,0.43c0.26,0.03,0.4-0.04,0.5-0.26c0.72,2.04,1.11,4.17,1.53,6.28
		c0.2,1.49,0.47,2.97,0.49,4.48c-0.24-0.13-0.05-0.62-0.25-0.56c-0.47,0.14-0.8-0.36-1.32-0.11c-0.62,0.3-1.4,0.12-2.02-0.06
		c-0.63-0.18-0.7,0.02-0.75,0.49c-0.01,0.11-0.07,0.19-0.17,0.25c-0.13-1.34-0.23-2.69-0.41-4.03c-0.29-2.17-0.71-4.31-1.3-6.42
		C115.06,48.97,115.05,48.8,115.03,48.63z"/>
	<path class="st3" d="M20.47,50.36c-0.12-0.04-0.23-0.08-0.35-0.12c1.02-2.28,2.31-4.4,3.66-6.5c2.86-4.44,6.26-8.42,10.17-11.96
		c4.34-3.93,9.14-7.18,14.42-9.74c2.3-1.11,4.65-2.09,7.06-2.91c1.02-0.35,2.03-0.8,3.14-0.89c0.17,0.03,0.4-0.03,0.42,0.26
		c-3.65,1.03-7.21,2.33-10.61,4.01c-4.17,2.06-8.07,4.56-11.67,7.51c-3.06,2.5-5.87,5.26-8.39,8.29c-2.79,3.36-5.22,6.98-7.23,10.87
		C20.88,49.57,20.67,49.97,20.47,50.36z"/>
	<path class="st1" d="M35.38,123.46c-0.37,0.01-0.52-0.33-0.74-0.53c-0.8-0.7-1.65-1.34-2.31-2.19c0.32-0.07,0.54,0.13,0.73,0.3
		c0.73,0.64,1.43,1.31,2.14,1.97C35.33,123.13,35.43,123.26,35.38,123.46z"/>
	<path class="st11" d="M88.85,17.99c-0.19,0.06-0.47-0.09-0.55,0.23c-0.68-0.18-1.31-0.52-2.01-0.62c0.49-0.28,0.94,0,1.4,0.09
		C88.08,17.77,88.49,17.78,88.85,17.99z"/>
	<path class="st12" d="M114.84,48.08c0.33,0.08,0.21,0.33,0.2,0.54C114.9,48.47,114.87,48.28,114.84,48.08z"/>
	<path class="st5" d="M54.25,120.16c0.02,0.12,0.02,0.23-0.09,0.31C54.14,120.36,54.14,120.25,54.25,120.16z"/>
	<path class="st5" d="M54.38,119.77c-0.03,0.07-0.06,0.13-0.09,0.2C54.32,119.9,54.35,119.84,54.38,119.77z"/>
	<path class="st11" d="M109.74,36.36c0.03,0.05,0.06,0.1,0.1,0.15C109.81,36.46,109.77,36.41,109.74,36.36z"/>
	<path class="st4" d="M109.43,31.02c-0.04-0.04-0.07-0.07-0.11-0.11c-0.04-0.05-0.09-0.1-0.13-0.15c-0.04-0.04-0.08-0.08-0.12-0.12
		c-0.04-0.05-0.08-0.09-0.12-0.14c0,0,0,0,0,0c0-0.16-0.08-0.25-0.24-0.26c0,0-0.01-0.01-0.01-0.01c-0.01-0.14-0.08-0.23-0.23-0.24
		c-0.4-0.4-0.8-0.81-1.2-1.21c0.02-0.22-0.08-0.32-0.3-0.29c-0.04,0-0.06-0.02-0.06-0.05c-0.01-0.15-0.09-0.22-0.23-0.23
		c0,0-0.02-0.01-0.02-0.01c-0.02-0.15-0.1-0.23-0.25-0.24c0,0-0.01-0.01-0.01-0.01c-0.01-0.16-0.1-0.24-0.26-0.24
		c-0.04-0.04-0.09-0.08-0.13-0.11c0.03-0.3-0.09-0.44-0.4-0.37l0.02-0.03c0,0-0.02,0.03-0.02,0.03c0.04-0.28-0.15-0.28-0.34-0.29
		c0,0-0.01-0.01-0.01-0.01c-0.02-0.25-0.21-0.25-0.39-0.24c0,0,0,0,0,0c-0.04-0.29-0.13-0.54-0.5-0.51c0,0-0.01-0.01-0.01-0.01
		c-0.02-0.18-0.12-0.25-0.28-0.23c-0.04-0.03-0.08-0.05-0.12-0.08c-0.01-0.14-0.11-0.18-0.23-0.19c0,0-0.01-0.01-0.01-0.01
		c-0.05-0.04-0.09-0.08-0.14-0.11c0,0,0.01,0.01,0.01,0.01c-0.05-0.04-0.1-0.09-0.15-0.13c-0.19-0.08-0.35-0.21-0.48-0.38
		c-0.05-0.04-0.11-0.09-0.16-0.13c-0.05,0-0.08-0.01-0.1-0.05c-0.04-0.03-0.08-0.06-0.11-0.09c0,0-0.01,0-0.01,0
		c-0.05-0.04-0.1-0.07-0.15-0.11c-0.2-0.07-0.37-0.19-0.5-0.35c-0.03-0.09-0.09-0.14-0.19-0.15l-0.04,0c0,0-0.02-0.03-0.02-0.03
		c-0.05-0.04-0.1-0.07-0.14-0.11c0,0,0.01,0.01,0.01,0.01c-0.06-0.04-0.12-0.08-0.18-0.13c-0.09-0.01-0.17-0.05-0.2-0.14
		c-0.05-0.04-0.1-0.08-0.16-0.12c-0.04,0-0.08-0.01-0.1-0.05c-0.04-0.03-0.08-0.06-0.12-0.09c0,0,0,0,0,0
		c-0.05-0.04-0.11-0.07-0.16-0.11c-0.04,0.01-0.07-0.01-0.1-0.05c-0.04-0.03-0.09-0.06-0.13-0.09c0,0,0,0,0,0
		c-0.06-0.04-0.11-0.08-0.17-0.11c-0.04,0.01-0.07,0-0.08-0.04c-0.05-0.03-0.09-0.07-0.14-0.1c0,0,0.01,0.01,0.01,0.01
		c-0.06-0.04-0.12-0.08-0.19-0.12c-0.09-0.01-0.17-0.03-0.2-0.12c-0.06-0.04-0.13-0.09-0.19-0.13c-0.23-0.05-0.4-0.2-0.58-0.35
		c-0.03-0.15-0.14-0.18-0.27-0.17c-0.1-0.01-0.18-0.03-0.23-0.13c-0.05-0.11-0.14-0.14-0.25-0.14c-0.16-0.02-0.29-0.1-0.4-0.23
		c-0.01-0.37-0.29-0.26-0.5-0.28c0,0,0,0,0,0c0.17-0.29,0-0.52-0.13-0.77c0.75,0.23,1.48,0.52,2.17,0.88
		c-0.02,0.66,0.4,0.25,0.64,0.26c0.17,0.08,0.34,0.16,0.51,0.24c0,0.65,0.49,0.31,0.78,0.39c0.85,0.29,1.6,0.78,2.41,1.16
		c0.04,0.04,0.09,0.08,0.13,0.12c0.1,0,0.2,0.02,0.25,0.12c0.05,0.04,0.1,0.08,0.16,0.13c0.6,0.2,1.11,0.56,1.63,0.9
		c0.05,0.04,0.1,0.08,0.15,0.12c0.28,0.06,0.52,0.2,0.74,0.38c0.05,0.04,0.1,0.09,0.15,0.13c0.17,0.01,0.29,0.09,0.37,0.24
		c0,0.29,0.2,0.28,0.4,0.26c0.72,0.35,1.38,0.79,2.01,1.29c0.05,0.04,0.09,0.08,0.14,0.12c0,0,0,0,0,0c0.05,0.04,0.1,0.08,0.15,0.13
		c0.34,0.09,0.58,0.35,0.87,0.54c0.01,0.16,0.1,0.23,0.26,0.23c0.05,0.03,0.09,0.07,0.14,0.1c-0.06,0.44,0.23,0.42,0.52,0.4
		c0.1,0.01,0.19,0.04,0.23,0.14c0.04,0.04,0.09,0.08,0.13,0.12c0.28,0.19,0.58,0.34,0.78,0.63c-0.12,0.08-0.19,0.2-0.09,0.31
		c0.14,0.15,0.26,0.06,0.35-0.09c0.04,0,0.07,0.02,0.1,0.04c0.05,0.04,0.09,0.09,0.14,0.13c0.19,0,0.25,0.18,0.37,0.26
		c0.04,0.04,0.09,0.08,0.13,0.12c0,0,0,0,0,0c0.04,0.04,0.09,0.09,0.13,0.13c0.04,0.04,0.08,0.08,0.12,0.11
		c0.05,0.05,0.1,0.09,0.15,0.14c0.37,0.25,0.74,0.51,1.01,0.87c-0.04,0.3,0.07,0.45,0.38,0.4c0,0,0.01,0,0.01,0
		c0.1,0.41,0.28,0.77,0.58,1.08c0.45,0.46,0.88,0.94,1.33,1.41c0.37,0.39,0.59,0.9,0.88,1.34c0.68,1.05,1.43,2.06,2.07,3.15
		c1.03,1.77,1.99,3.57,2.87,5.41c0.73,1.52,1.52,3.05,1.97,4.67c0.65,2.35,1.43,4.67,1.85,7.08c0.05,0.27,0.12,0.53,0.25,0.78
		c0.04,0.07,0.09,0.21,0.08,0.22c-0.73,0.48,0.04,0.99-0.03,1.47c-0.13,0.15-0.27,0.29-0.4,0.44c-0.15,0.02-0.36-0.09-0.44,0.09
		c-0.07,0.15,0.18,0.2,0.2,0.34c-0.33,1.16-0.06,2.14,0.89,2.92c0.04,0.12-0.01,0.38,0.25,0.16c0.05,0,0.08,0.01,0.11,0.05
		c0.16,0.61,0.29,1.21,0.23,1.87c-0.04,0.35-0.17,0.8,0.26,1.06c0,0.08,0,0.17,0,0.25c-0.18,0.03-0.23,0.15-0.24,0.32
		c-0.08,1.16-0.2,2.31-0.24,3.47c-0.03,0.76-0.2,1.52-0.21,2.25c-0.01,1.02-0.3,1.99-0.3,2.98c-0.01,1.47-0.54,2.83-0.78,4.25
		c-0.47,2.74-1.5,5.3-2.54,7.85c-0.28,0.68-0.55,1.36-0.81,2.04c-0.33,0.86-0.8,1.69-1.51,2.33c-0.03-0.93-0.06-1.86-0.09-2.78
		c0.17-0.56,0.06-1.13,0.05-1.7c0.05-0.16,0.05-0.32,0-0.48c0.02-0.17,0.03-0.35,0.05-0.52c0.05-0.05,0.1-0.09,0.14-0.14
		c0.49-0.21,0.94-0.48,1.29-0.89c0.04-0.04,0.07-0.09,0.11-0.13c0,0,0,0,0,0c0.38-0.04,0.24-0.32,0.25-0.53
		c0.03-0.37,0.14-0.72,0.09-1.1c0.24-0.15,0.17-0.23-0.06-0.28c-0.21-0.35-0.31-0.76-0.64-1.04c-0.68-0.71-1.49-0.91-2.42-0.6
		c-1.56,0.42-2.34,2.75-0.92,3.93c0.31,0.33,0.67,0.59,1.14,0.64c0.01,0.21,0.03,0.42,0.04,0.64c0,1.02,0.01,2.03,0.01,3.05
		c-0.01,0.3-0.03,0.6-0.04,0.9c-0.41-0.02-0.49,0.26-0.5,0.58c-0.01,0.24-0.05,0.44-0.27,0.59c-0.25,0.17-0.26,0.46-0.32,0.7
		c-0.71,0.96-1.36,1.96-2,2.96c0.1,0.07,0.2,0.13,0.3,0.2c0.4-1.16,1.6-1.8,1.7-3.15c0.52-0.02,0.87-0.19,0.84-0.74
		c-0.01-0.15,0.1-0.22,0.24-0.24c0,0.51,0,1.02,0,1.53c-0.1-0.03-0.2-0.05-0.3-0.09c-0.18-0.06-0.35,0.02-0.34,0.17
		c0.04,0.78-1.02,0.9-0.97,1.66c0,0.04,0.03,0.09,0.06,0.1c0.95,0.43-0.02,0.61,0.01,1c-0.32-0.24,0.08-0.54-0.26-0.62
		c-0.16-0.03-0.34,0.08-0.42,0.24c-0.1,0.18-0.12,0.37,0.13,0.47c0.22,0.08,0.14,0.24,0.06,0.36c-0.19,0.3-0.41,0.64-0.76,0.71
		c-0.17,0.03-0.39-0.21-0.5-0.43c-0.07-0.14,0.07-0.4-0.15-0.44c-0.23-0.04-0.35,0.2-0.47,0.37c-0.34,0.47-0.67,0.94-1.33,0.97
		c0,0,0,0,0,0c-0.04-0.04-0.09-0.09-0.13-0.13c-0.45-0.35-0.9-0.69-1.51-0.72c-1.02-0.17-1.77,0.29-2.29,1.1
		c-0.52,0.82-0.57,1.69-0.02,2.54c0.04,0.08,0.09,0.16,0.13,0.24c0.04,0.05,0.08,0.1,0.13,0.15c0.13,0.11,0.27,0.22,0.4,0.33
		c-0.26,0.46-0.14,0.7,0.4,0.69c0.14,0,0.29,0,0.43,0c0.02,0.21,0.03,0.43,0.05,0.64c-0.01,0.38-0.02,0.76-0.03,1.14
		c-0.4,0.05-0.53-0.14-0.5-0.51c0.02-0.27,0.05-0.55-0.19-0.77c-0.23-0.21-0.33-0.23-0.66-0.03c-0.91,0.55-1.49,1.45-2.35,2.05
		c-0.51,0.35-0.78,1.3-0.54,1.74c0.27,0.01,0.08-0.58,0.49-0.39c0.16,0.07,0.19,0.22,0.18,0.37c-0.02,0.26-0.23,0.33-0.42,0.42
		c-0.15,0.07-0.29,0.01-0.42-0.06c-0.14-0.09-0.28-0.18-0.42-0.27c0,0-0.03,0.02-0.03,0.02c-0.04-0.17-0.08-0.35-0.12-0.52
		c0.14-0.1,0.29-0.26,0.2-0.41c-0.12-0.22-0.38-0.07-0.57-0.11c-0.39-0.28-0.74-0.63-1.26-0.65c-1.47-0.5-2.98,0.76-2.92,2.43
		c0,0.08,0.01,0.17,0.01,0.25c0.02,0.05,0.05,0.11,0.07,0.16c0.07,0.46,0.24,0.86,0.65,1.12l0,0c0.04,0.14,0.13,0.22,0.27,0.23
		c0.37,0.26,0.97,0.36,0.76,1.04l0,0.01l-0.05,0.04l0.02,0.05c-0.71,2.34-2.21,3.78-4.69,4.11c-2.29-0.01-4.58-0.03-6.87-0.01
		c-0.5,0-0.76-0.12-0.99-0.6c-0.52-1.11-1.82-1.56-2.97-1.12c-1.04,0.4-1.83,1.63-1.46,2.74c0.06,0.37,0.29,0.66,0.44,0.98
		c0.05,0.05,0.09,0.11,0.14,0.16c0.04,0.04,0.07,0.07,0.11,0.11c0.04,0.05,0.09,0.1,0.13,0.15l0,0c-0.47,0.54-1.16,0.51-1.77,0.59
		c-0.24,0.03-0.15-0.32-0.03-0.5c0.12-0.19,0.1-0.41-0.14-0.27c-0.5,0.28-0.38-0.02-0.31-0.27c0.04-0.17,0.05-0.31-0.13-0.36
		c-0.19-0.05-0.27,0.1-0.29,0.25c-0.06,0.36,0.1,0.78-0.31,1.03c-0.02,0.01-0.01,0.1,0.01,0.11c0.18,0.13,0.5,0.27,0.09,0.47
		c-0.36,0.18-0.85,0.48-1.17,0.1c-0.67-0.81-1.34-0.18-2-0.1c-0.12,0.01-0.19,0.1-0.16,0.22c0.04,0.13,0.16,0.15,0.25,0.11
		c0.25-0.1,0.49-0.24,0.75-0.32c0.15-0.05,0.38-0.1,0.44,0.12c0.07,0.27-0.21,0.17-0.33,0.25c-0.76,0.54-1.6,0.09-2.39,0.23
		c-0.34,0.06-0.61,0.12-0.77,0.45c-0.14,0.29-0.41,0.34-0.7,0.33c-0.34-0.01-0.45-0.17-0.2-0.43c0.13-0.13,0.23-0.23,0.15-0.43
		c-0.02-0.06,0.03-0.15,0.05-0.23c0.59,0.14,0.97-0.61,1.65-0.34c0.43,0.17,0.86-0.15,1.19-0.49c0,0,0.06-0.01,0.06-0.01l0.06,0.01
		c0.19-0.14,0.53,0.36,0.64-0.14c0.09-0.04,0.18-0.07,0.27-0.11c0.3-0.01,0.63,0.03,0.61-0.42c0.6-0.8,0.9-1.65,0.5-2.64
		c-0.03-0.04-0.06-0.09-0.09-0.13c0,0,0-0.01,0-0.01c-0.02-0.27-0.17-0.48-0.38-0.64c-0.56-0.65-1.29-0.89-2.1-0.7
		c-0.8,0.19-1.49,0.57-1.74,1.45c-0.12,0.3-0.3,0.43-0.66,0.42c-0.83-0.03-1.67-0.01-2.51,0c-3.25,0-6.5,0-9.74-0.01
		c-0.24,0-0.51,0.1-0.72-0.13c1.8-0.54,3.68-0.61,5.53-0.88c6.63-0.97,13.1-2.56,19.28-5.18c0.24-0.1,0.47-0.25,0.7-0.38
		c0.18-0.01,0.36-0.03,0.49-0.18c0.29-0.04,0.54-0.18,0.77-0.34c0.1-0.05,0.2-0.11,0.3-0.16c0.07-0.02,0.13-0.05,0.2-0.07
		c1.99-0.89,3.91-1.93,5.72-3.14c1.1-0.74,2.27-1.37,3.28-2.23c0.95-0.82,1.88-1.67,2.89-2.42c1.17-0.86,2.05-2,3.09-2.98
		c0.25-0.24,0.39-0.58,0.71-0.76c1.31-1.39,2.44-2.91,3.5-4.49c1.08-1.61,2.07-3.26,2.92-4.99c1.17-2.4,2.13-4.88,2.82-7.46
		c0.03-0.05,0.05-0.1,0.08-0.15c0.22,0.01,0.38,0.15,0.56,0.25c0.63,0.33,1.27,0.5,1.95,0.13c1.52-0.36,2.4-2.83,0.65-4.01
		c-0.05-0.07-0.08-0.18-0.14-0.19c-0.73-0.2-0.77-0.72-0.77-1.37c0.02-5.36,0.01-10.71,0.01-16.07c0-0.27-0.03-0.55-0.04-0.82
		c0-0.84,0.11-1.69-0.06-2.53c0.14-1.02,0.01-2.03,0.02-3.05c0.11-0.09,0.09-0.17-0.02-0.24c-0.11-1.12-0.15-2.25-0.48-3.33
		c0.2-0.28,0.02-0.5-0.11-0.73c-0.02-0.13-0.05-0.26-0.07-0.38c0-0.15,0.04-0.31-0.15-0.4c-0.28-0.34-0.22-0.81-0.45-1.16
		c0.19-0.27,0-0.44-0.16-0.63l0-0.01c-0.03-0.17,0.07-0.38-0.15-0.49c0,0,0.01,0.01,0.01,0.01c-0.03-0.05-0.06-0.1-0.09-0.14
		c-0.26-0.55-0.52-1.1-0.78-1.66c0.15-0.44,0.09-0.75-0.46-0.77c-0.02-0.04-0.03-0.08-0.05-0.12c-0.03-0.04-0.06-0.08-0.09-0.12
		c-0.03-0.03-0.04-0.06-0.05-0.1c-0.04-0.06-0.07-0.11-0.11-0.17c-0.1-0.16-0.21-0.32-0.31-0.49c0.31-0.35-0.06-0.24-0.2-0.28
		l-0.01-0.01c-0.02-0.28,0.04-0.62-0.41-0.6l0.01,0c-0.04-0.05-0.08-0.09-0.13-0.14l0,0c0.01-0.16-0.07-0.25-0.22-0.27l-0.01-0.02
		c-0.01-0.1-0.05-0.19-0.15-0.22l0,0.01c0.07-0.38-0.07-0.57-0.47-0.53l-0.02-0.03c-0.02-0.03-0.05-0.06-0.08-0.08
		c-0.06-0.08-0.13-0.16-0.19-0.25c-0.04-0.05-0.09-0.1-0.13-0.14c-0.04-0.04-0.08-0.08-0.12-0.13c-0.23-0.42-0.41-0.89-1-0.9
		l-0.01-0.01c-0.01-0.16-0.1-0.24-0.26-0.24l0,0c-0.01-0.17-0.09-0.25-0.26-0.25l0,0c0-0.12-0.03-0.22-0.17-0.24
		c-0.03-0.03-0.07-0.05-0.1-0.08c-0.11-0.46-0.34-0.76-0.87-0.71c-0.05-0.04-0.1-0.07-0.14-0.11c-0.05-0.04-0.11-0.09-0.16-0.13
		c-0.04,0-0.07-0.01-0.09-0.04c-0.04-0.17-0.09-0.28-0.26-0.09c-0.29-0.24-0.58-0.48-0.88-0.73c-0.05-0.13-0.16-0.17-0.29-0.16
		c-0.04,0-0.08-0.01-0.1-0.04c-0.02-0.18-0.14-0.23-0.3-0.21c-0.37-0.2-0.74-0.39-1.11-0.59c-0.04-0.16-0.15-0.19-0.3-0.18
		c-0.17-0.07-0.26-0.2-0.34-0.35C109.53,31.13,109.48,31.07,109.43,31.02z M85.88,115.45c-0.21,0.11-0.57,0.06-0.62,0.42
		c-0.04,0.3,0.21,0.44,0.41,0.59c0.05,0.04,0.15,0.01,0.23,0.02c-0.2-0.37,0.11-0.61,0.21-0.91c0.03-0.08-0.06-0.15-0.16-0.14
		C85.93,115.43,85.91,115.44,85.88,115.45z M87.86,115.36c0.13-0.01,0.18-0.09,0.18-0.21c0-0.11-0.01-0.23-0.15-0.22
		c-0.11,0.01-0.18,0.1-0.19,0.21C87.68,115.27,87.73,115.34,87.86,115.36z M102.64,23.74c-0.01-0.11-0.1-0.12-0.18-0.12
		c-0.08,0-0.18,0-0.18,0.11c0,0.11,0.1,0.12,0.18,0.12C102.53,23.85,102.62,23.85,102.64,23.74z M105.24,24.85
		c-0.1,0.07-0.14,0.11-0.18,0.14c0.03,0.04,0.06,0.11,0.1,0.12c0.08,0.02,0.17,0.01,0.16-0.1
		C105.32,24.96,105.27,24.91,105.24,24.85z M98.71,21.74c-0.01-0.04-0.02-0.09-0.04-0.1c-0.02-0.01-0.07,0.02-0.11,0.04
		c0.01,0.04,0.02,0.09,0.04,0.1C98.63,21.78,98.67,21.75,98.71,21.74z M101.51,23.01c-0.01-0.04-0.02-0.09-0.04-0.1
		c-0.02-0.01-0.07,0.02-0.11,0.04c0.01,0.04,0.02,0.09,0.04,0.1C101.43,23.06,101.48,23.02,101.51,23.01z M126.89,62.66
		c-0.02,0.04-0.05,0.08-0.04,0.1c0.01,0.03,0.07,0.03,0.1,0.05c0.02-0.04,0.05-0.08,0.04-0.1
		C126.98,62.69,126.93,62.68,126.89,62.66z M126.24,57.17c-0.01-0.04-0.02-0.09-0.04-0.1c-0.02-0.01-0.07,0.02-0.11,0.04
		c0.01,0.04,0.02,0.09,0.04,0.1C126.16,57.22,126.2,57.18,126.24,57.17z M111.55,30.4c0.04,0.02,0.08,0.05,0.1,0.04
		c0.03-0.01,0.03-0.07,0.05-0.1c-0.04-0.02-0.08-0.05-0.1-0.04C111.57,30.31,111.57,30.37,111.55,30.4z"/>
	<path class="st4" d="M81.68,115.88c-0.03,0.38-0.34,0.54-0.62,0.51c-1.09-0.12-2.04,0.46-3.07,0.58c-2.11,0.24-4.19,0.65-6.29,0.97
		c-0.24,0.04-0.45,0.1-0.64,0.24c-0.28,0.21-0.57,0.35-0.94,0.18c-0.21-0.1-0.49-0.04-0.58,0.14c-0.25,0.5-0.59,0.69-1.12,0.51
		c-0.02-0.01-0.08,0.12-0.13,0.19c-0.33,0.01-0.66,0.02-0.99,0.03c-0.05,0.03-0.1,0.05-0.15,0.08c-0.17,0.07-0.33,0.13-0.5,0.2
		c-0.51-0.35-0.5,0.02-0.51,0.37l0,0c-0.38,0-0.41,0.24-0.39,0.53c0,0.04-0.02,0.07-0.04,0.1c-0.03,0.05-0.06,0.1-0.09,0.15
		c-0.05,0.16-0.1,0.32-0.15,0.48c-1.13,0.72-1.86,1.76-2.4,2.96c-0.35,0.79-0.63,1.6-0.8,2.45c-0.08,0.39-0.42,0.5-0.62,0.74
		c-0.04-0.02-0.08-0.04-0.12-0.07c-0.04-0.03-0.08-0.06-0.13-0.09c-0.17-0.05-0.34-0.11-0.5-0.16c-0.04-0.03-0.09-0.06-0.13-0.09
		c-0.01-0.16-0.01-0.33-0.02-0.49c0-0.06,0.01-0.11,0.01-0.17c-0.01-1.73-0.01-3.46-0.02-5.19c0.11-0.99,0.32-1.95,0.84-2.82
		c1.4-2.32,3.35-3.7,6.14-3.71c2.23,0,4.46,0,6.69,0c0.25,0,0.51,0.04,0.74-0.12c0.26,0.11,0.54,0.1,0.81,0.1
		c1.64,0.01,3.29,0.03,4.93,0.04c0.01,0.12,0.02,0.23,0.03,0.35c-0.09,0.2-0.21,0.41,0.19,0.38
		C81.3,115.45,81.49,115.66,81.68,115.88z M61.08,126.51c0.04,0.02,0.08,0.05,0.1,0.04c0.03-0.01,0.03-0.06,0.05-0.1
		c-0.04-0.02-0.08-0.05-0.1-0.04C61.1,126.42,61.09,126.47,61.08,126.51z"/>
	<path class="st7" d="M77.86,122.1c-0.31,1.09-1,1.75-2.15,1.86c-0.96,0.09-1.86-0.42-2.3-1.28c-0.6-1.16-0.15-2.58,1.01-3.19
		c1.17-0.62,2.64-0.19,3.2,1.01c0.24,0.51,0.51,0.63,1.03,0.62c3.09-0.02,6.19,0,9.28,0.01c0.2,0.18,0.45,0.1,0.67,0.1
		c1.68,0.01,3.35,0.02,5.03,0c0.42-0.01,0.75,0.06,0.71,0.54c-0.03,0.45-0.43,0.22-0.65,0.22c-5.03,0.02-10.06,0.01-15.1,0.02
		C78.36,122.01,78.09,121.93,77.86,122.1z M75.5,120.18c-0.78,0.01-1.46,0.68-1.47,1.43c-0.01,0.7,0.76,1.42,1.51,1.41
		c0.79,0,1.45-0.68,1.42-1.48C76.93,120.77,76.28,120.16,75.5,120.18z"/>
	<path class="st5" d="M69.93,120.49c0.72,1.27,0.26,2.58-1.2,3.29c-0.32,0.16-0.43,0.21-0.32,0.65c0.62,2.45,2.16,3.85,4.6,4.33
		c-0.05,0.01-0.14,0-0.11,0.09c0.01,0.03,0.11,0.04,0.17,0.04c3.39,0,6.79,0,10.18,0.01c0.22,0,0.46-0.09,0.65,0.09
		c-0.01,0.12-0.1,0.13-0.17,0.17c-0.17,0.1-0.5,0.11-0.43,0.37c0.07,0.25,0.37,0.12,0.56,0.12c1.46,0.02,2.93,0.02,4.39,0.02
		c-0.19,0.02-0.38,0.04-0.57,0.04c-4.58,0-9.16,0.01-13.74,0c-3.17-0.01-5.56-1.78-6.34-4.66c-0.03-0.12-0.08-0.25-0.08-0.37
		c0-0.52-0.23-0.83-0.74-1.01c-0.42-0.15-0.76-0.45-0.91-0.91c0.07-0.38,0.45-0.37,0.69-0.54c0.58,0.87,1.61,1.05,2.3,0.39
		c0.52-0.5,0.54-1.11,0.32-1.75C69.27,120.46,69.61,120.49,69.93,120.49z"/>
	<path class="st8" d="M77.86,122.1c0.23-0.17,0.49-0.09,0.74-0.09c5.03-0.01,10.06,0,15.1-0.02c0.22,0,0.61,0.22,0.65-0.22
		c0.03-0.48-0.29-0.54-0.71-0.54c-1.68,0.02-3.35,0.01-5.03,0c-0.23,0-0.47,0.08-0.67-0.1c3.35-0.01,6.7-0.03,10.05-0.02
		c5.19,0.03,9.35-2,12.48-6.14c0.08-0.1,0.17-0.19,0.25-0.28c0.13,0.3,0.26,0.6,0.68,0.57c-2.4,3.48-5.69,5.61-9.81,6.49
		c-1.23,0.26-2.48,0.31-3.73,0.31c-6.49,0-12.98,0-19.48,0C78.2,122.08,78.03,122.1,77.86,122.1z"/>
	<path class="st11" d="M128.6,87.08c-0.01-4.69-0.02-9.39-0.02-14.08c0-1.89,0.01-3.78,0.02-5.67c0.44-0.01,0.33,0.66,0.78,0.64
		c0.2,0.84-0.05,1.71,0.14,2.56c0,0.16,0,0.33,0,0.49c-0.14,0.54-0.07,1.09-0.06,1.64c0.02,1.5-0.09,3,0.06,4.49
		c0,3.23,0.07,6.45-0.03,9.68C129.15,86.74,128.91,87.01,128.6,87.08z"/>
	<path class="st8" d="M89.21,115.74c-0.04-0.04-0.07-0.07-0.11-0.11c-0.05-0.05-0.09-0.11-0.14-0.16c-0.15-0.32-0.38-0.61-0.44-0.98
		c0.29-0.16,0.58-0.29,0.91-0.11c0.25,0.62,0.7,1,1.39,1.01c0.72,0.01,1.17-0.4,1.42-1.05c0.63-0.4,1.3-0.73,2.07-0.74
		c1.9-0.01,3.8,0,5.7-0.01c0.27,0,0.55,0.06,0.8-0.11c2.47-0.33,3.97-1.78,4.69-4.11c0.01-0.03,0.02-0.06,0.03-0.09
		c0,0,0-0.01,0-0.01c0.31,0.04,0.59-0.05,0.88-0.13c0.02,0.18,0.02,0.36-0.07,0.53c-0.02,0.04-0.03,0.08-0.05,0.12
		c-0.45,2.31-2.68,4.32-5.09,4.6c-2.53-0.01-5.06-0.02-7.59-0.03c-0.16,0-0.35-0.06-0.44,0.15c-0.69,1.79-2.02,2.27-3.81,1.39
		c0,0,0,0,0,0C89.3,115.83,89.25,115.79,89.21,115.74z"/>
	<path class="st7" d="M88.25,129.68c-1.46-0.01-2.93-0.01-4.39-0.02c-0.2,0-0.5,0.12-0.56-0.12c-0.07-0.26,0.26-0.28,0.43-0.37
		c0.07-0.04,0.16-0.04,0.17-0.17c-0.19-0.19-0.43-0.09-0.65-0.09c-3.39-0.01-6.79-0.01-10.18-0.01c-0.06,0-0.15-0.01-0.17-0.04
		c-0.03-0.08,0.06-0.08,0.11-0.09c4.92,0,9.84-0.01,14.75,0.01c0.47,0,0.73-0.08,0.94-0.57c0.42-1.01,1.6-1.54,2.63-1.29
		c1.12,0.27,1.87,1.22,1.87,2.35c-0.01,1.09-0.79,2.08-1.83,2.31c-1.12,0.25-2.2-0.28-2.7-1.3
		C88.56,130.05,88.57,129.74,88.25,129.68z M89.41,129.23c-0.01,0.78,0.62,1.43,1.39,1.45c0.77,0.01,1.43-0.61,1.46-1.38
		c0.03-0.81-0.61-1.46-1.43-1.46C90.02,127.83,89.41,128.43,89.41,129.23z"/>
	<path class="st2" d="M135.03,87.09c0.14,0,0.28,0,0.42,0c-0.26,1.74-0.62,3.46-1.06,5.16c-0.82,3.19-1.88,6.31-3.21,9.33
		c-2.08,4.71-4.69,9.1-7.86,13.16c-1.61,2.05-3.34,3.98-5.17,5.83c-0.08,0.08-0.13,0.16-0.25,0.16c-0.12,0.02-0.21-0.03-0.27-0.13
		c1.52-1.65,3.07-3.27,4.49-5.01c2.05-2.52,3.89-5.17,5.52-7.97c3.05-5.23,5.24-10.8,6.61-16.7
		C134.53,89.65,134.77,88.37,135.03,87.09z"/>
	<path class="st6" d="M121.85,100.6c0.11,0.95,0.04,1.91,0.04,2.86c0,0.35,0.11,0.52,0.43,0.66c1.13,0.49,1.66,1.57,1.4,2.75
		c-0.22,1.01-1.27,1.83-2.33,1.82c-1.14-0.01-2.11-0.83-2.33-1.97c-0.21-1.08,0.37-2.17,1.45-2.61c0.34-0.14,0.43-0.3,0.43-0.65
		c-0.02-1.12,0-2.25,0.01-3.37C121.35,100.09,121.37,100.74,121.85,100.6z M121.44,107.73c0.77-0.01,1.4-0.67,1.4-1.44
		c0-0.8-0.67-1.42-1.49-1.4c-0.8,0.02-1.38,0.65-1.36,1.45C120.02,107.13,120.66,107.74,121.44,107.73z"/>
	<path class="st6" d="M111.39,115.27c-0.41,0.03-0.54-0.27-0.68-0.57c1.08-1.71,1.91-3.53,2.3-5.54c0.38-1.99,0.28-4.01,0.26-6.02
		c0.01-0.38,0.02-0.76,0.03-1.14c0.31-0.06,0.49-0.68,0.93-0.23c0.01,1.26,0.01,2.52,0.02,3.78c-0.07,0.05-0.07,0.11,0,0.16
		c-0.01,0.33-0.01,0.65-0.02,0.98c-0.08,0.22-0.07,0.44-0.03,0.67c-0.22,2.82-1.03,5.44-2.7,7.76
		C111.46,115.17,111.42,115.22,111.39,115.27C111.38,115.27,111.39,115.27,111.39,115.27z"/>
	<path class="st12" d="M128.6,87.08c0.3-0.07,0.55-0.34,0.9-0.26c0.1,0.43,0.04,0.86,0.04,1.28c-0.08,0.17-0.12,0.35,0.03,0.5
		c1.15,0.46,1.93,1.21,1.85,2.56c-0.07,1.17-0.91,2.04-2.09,2.19c-1.11,0.14-2.17-0.52-2.53-1.58c-0.37-1.09,0.04-2.35,1.09-2.82
		c0.64-0.29,0.77-0.66,0.7-1.25C128.56,87.51,128.6,87.29,128.6,87.08z M127.64,91.03c0.01,0.78,0.65,1.41,1.43,1.4
		c0.77,0,1.41-0.64,1.42-1.42c0.01-0.81-0.65-1.44-1.46-1.42C128.22,89.61,127.63,90.23,127.64,91.03z"/>
	<path class="st0" d="M117.61,120.6c0.06,0.1,0.15,0.15,0.27,0.13c-2.5,2.59-5.33,4.79-8.27,6.85c-2.76,1.93-5.69,3.58-8.74,5
		c-1.97,0.92-3.98,1.75-6.07,2.39c-0.63,0.19-1.24,0.45-1.89,0.58c-0.01-0.32,0.25-0.35,0.47-0.42c3.46-1.1,6.8-2.49,10-4.2
		c1.39-0.74,2.76-1.55,4.09-2.4c3.5-2.24,6.76-4.77,9.72-7.68C117.31,120.73,117.42,120.6,117.61,120.6z"/>
	<path class="st9" d="M129.39,67.97c-0.45,0.02-0.34-0.65-0.78-0.64c-0.01-0.51-0.03-1.02-0.04-1.53c0-0.08,0-0.17,0-0.25
		c0.01-0.76-0.01-1.52,0.03-2.28c0.02-0.35-0.1-0.55-0.4-0.67c-0.17-0.33-0.06-0.65,0.04-0.97c0.54,0.4,1.08,0.3,1.6-0.04
		c0.54-0.35,0.76-0.94,0.6-1.53c-0.23-0.87-1.22-1.4-2.36-0.75c-0.66,0.01-0.5-0.4-0.4-0.78c1.3-1.03,2.82-0.31,3.39,0.6
		c0.74,1.18,0.33,2.72-0.9,3.36c-0.18,0.09-0.38,0.17-0.56,0.26c-0.24,0.14-0.14,0.37-0.14,0.56c-0.02,1-0.02,2-0.02,3.01
		c-0.14,0.17-0.14,0.33,0,0.5c0.03,0.05,0.06,0.1,0.08,0.15c0,0.16,0,0.32,0,0.48C129.39,67.6,129.37,67.78,129.39,67.97z"/>
	<path class="st12" d="M121.85,100.6c-0.48,0.14-0.5-0.51-0.9-0.51c0-2.21-0.01-4.42-0.01-6.63c0-0.25-0.01-0.51-0.02-0.76
		c0-0.51,0-1.02,0-1.53c0-0.3,0-0.6,0-0.89c0.01-0.3,0.03-0.6,0.04-0.9c0.27-0.02,0.29-0.25,0.35-0.44
		c0.09-0.25,0.22-0.44,0.52-0.43c0.03,0.93,0.06,1.86,0.09,2.78c-0.01,2.79-0.01,5.57-0.03,8.36
		C121.9,99.97,121.87,100.28,121.85,100.6z"/>
	<path class="st3" d="M114.23,101.78c-0.44-0.45-0.62,0.16-0.93,0.23c-0.02-0.21-0.03-0.43-0.05-0.64c0.05-0.62-0.58-0.42-0.83-0.69
		c-0.13-0.11-0.27-0.22-0.4-0.33c-0.04-0.05-0.08-0.1-0.13-0.15c-0.04-0.08-0.09-0.16-0.13-0.24c-0.07-0.5,0.21-0.7,0.65-0.77
		c0.54,0.77,1.16,1.05,1.8,0.8c0.63-0.24,1.02-0.86,0.95-1.49c-0.08-0.69-0.53-1.12-1.37-1.27c-0.69-0.53,0.2-0.6,0.26-0.91
		c0.6,0.03,1.06,0.37,1.51,0.72c0.04,0.04,0.09,0.09,0.13,0.13c0,0,0,0,0,0c0.9,1.68,0.55,2.9-1.12,3.74
		C114.14,101.12,114.41,101.52,114.23,101.78z"/>
	<path class="st3" d="M80.92,114.85c-0.01-0.12-0.02-0.23-0.03-0.35c0.13-0.61,0.53-0.35,0.87-0.26c0.15,0.47,0.42,0.82,0.88,1.02
		c1.06,0.46,2.21-0.55,1.94-1.77c0.13-0.29,0.33-0.5,0.66-0.54c0,0,0,0.01,0,0.01c0.03,0.04,0.06,0.09,0.09,0.13
		c0.4,0.99,0.1,1.84-0.5,2.64c-0.2,0.14-0.41,0.28-0.61,0.42c-0.09,0.04-0.18,0.07-0.27,0.11c-0.21,0.05-0.45,0-0.64,0.14
		l-0.06-0.01c0,0-0.06,0.01-0.06,0.01c-0.53-0.1-1.06-0.24-1.52-0.53c-0.19-0.21-0.38-0.43-0.57-0.64
		C81.05,115.11,80.98,114.98,80.92,114.85z"/>
	<path class="st3" d="M60.9,126.95c0.17,0.05,0.34,0.11,0.5,0.16c0.04,0.03,0.08,0.06,0.13,0.09c0.04,0.02,0.08,0.04,0.12,0.07
		c1.6,1.4,1.01,3.2-0.03,3.91c-0.33,0.23-0.68,0.42-1.11,0.38c0-0.29,0-0.59,0-0.88c0.63-0.24,1.09-0.64,1.13-1.36
		c0.03-0.72-0.37-1.17-1-1.46c-0.49-0.58-0.49-1.24,0.01-1.64c0.03,0.05,0.06,0.1,0.09,0.14c0.01,0.16,0.01,0.33,0.02,0.49
		C60.81,126.89,60.86,126.92,60.9,126.95z"/>
	<path class="st6" d="M106.4,109.13c-0.29,0.08-0.58,0.17-0.88,0.13c0.21-0.68-0.38-0.78-0.76-1.04c-0.02-0.17-0.1-0.24-0.27-0.23
		c0,0,0,0,0,0c0.03-0.13,0.07-0.29,0.23-0.24c0.36,0.11,0.71-0.08,1.06-0.03c1.05,0.04,1.5-0.27,1.78-1.26
		c0.17-0.38,0.22-0.9,0.86-0.75l0.03-0.02c0.15,1.39-0.28,2.44-1.7,2.89C106.43,108.69,106.54,108.97,106.4,109.13z"/>
	<path class="st0" d="M58.33,130.81c-0.27-0.53-0.44-1.09-0.58-1.67c0.15-0.16,0.17-0.38,0.24-0.58c0.23-0.68,0.6-1.25,1.34-1.47
		c0.11,0.29-0.1,0.65,0.17,0.91c-0.87,0.75-0.87,1.54-0.01,2.5c-0.01,0.31-0.02,0.63-0.03,0.94c-0.4,0.05-0.6-0.45-1.02-0.35
		c0,0,0.01-0.01,0.01-0.01C58.48,130.96,58.46,130.86,58.33,130.81z"/>
	<path class="st11" d="M127.68,58.53c-0.09,0.38-0.26,0.79,0.4,0.78c-0.65,0.92-0.62,1.49,0.15,2.31c-0.1,0.32-0.21,0.64-0.04,0.97
		c-0.04,0.01-0.08,0.02-0.12,0.03c-0.03-0.04-0.06-0.06-0.11-0.05c-0.08-0.05-0.17-0.11-0.25-0.16c-0.95-0.77-1.21-1.76-0.89-2.92
		c0.13-0.12,0.21-0.27,0.24-0.44c0.13-0.15,0.27-0.29,0.4-0.44C127.54,58.59,127.61,58.56,127.68,58.53z"/>
	<path class="st3" d="M66.65,119.49c0.17-0.07,0.33-0.13,0.5-0.2c0.05-0.03,0.1-0.05,0.15-0.08c0.33-0.01,0.66-0.02,0.99-0.03
		c0.17,0.08,0.35,0.16,0.52,0.25c-0.32,0.01-0.6,0.07-0.87,0.28c-0.31,0.25-0.18,0.36,0.11,0.45c-0.64,0.01-1.15,0.28-1.49,0.83
		c-0.71-0.25-0.79,0.37-1.04,0.76c-0.01-0.21-0.02-0.42-0.04-0.64c0.05-0.16,0.1-0.32,0.15-0.48c0.03-0.05,0.06-0.1,0.09-0.15
		c0.02-0.03,0.04-0.06,0.04-0.1c0.16-0.16,0.32-0.31,0.39-0.53c0,0,0,0,0,0C66.36,119.8,66.5,119.64,66.65,119.49z"/>
	<path class="st7" d="M68.05,120.17c-0.28-0.09-0.42-0.2-0.11-0.45c0.26-0.21,0.55-0.28,0.87-0.28c0.46,0.26,0.94,0.49,1.12,1.05
		c-0.32,0-0.66-0.03-0.75,0.4C68.87,120.54,68.54,120.23,68.05,120.17z"/>
	<path class="st7" d="M65.52,121.75c0.25-0.38,0.33-1,1.04-0.76c-0.02,0.08-0.05,0.17-0.07,0.25c-0.02,0.01-0.05,0.02-0.05,0.03
		c0,0.03,0.01,0.07,0.02,0.1c0.01,0.17,0.01,0.33,0.02,0.5c-0.01,0.01-0.03,0.03-0.03,0.04c0.01,0.03,0.03,0.05,0.05,0.08
		c0.02,0.08,0.04,0.16,0.06,0.24c-0.24,0.17-0.62,0.16-0.69,0.54c-0.2-0.17-0.23-0.41-0.28-0.64c0.01-0.02,0.02-0.04,0.02-0.05
		c-0.02-0.03-0.04-0.06-0.07-0.09C65.53,121.92,65.52,121.83,65.52,121.75z"/>
	<path class="st3" d="M93.15,114.49c0.09-0.21,0.28-0.15,0.44-0.15c2.53,0.01,5.06,0.02,7.59,0.03c-0.37,0.21-0.79,0.12-1.18,0.13
		C97.72,114.51,95.44,114.5,93.15,114.49z"/>
	<path class="st2" d="M59.47,131.45c0.01-0.31,0.02-0.63,0.03-0.94c0.3,0.28,0.68,0.12,1.02,0.17c0,0.29,0,0.59,0,0.88
		C60.16,131.57,59.8,131.66,59.47,131.45z"/>
	<path class="st13" d="M129.53,77.15c-0.15-1.5-0.04-3-0.06-4.49c-0.01-0.54-0.08-1.1,0.06-1.64
		C129.63,73.06,129.63,75.11,129.53,77.15z"/>
	<path class="st13" d="M129.53,66.96c-0.03-0.05-0.06-0.1-0.08-0.15c0-0.17,0-0.33,0-0.5c0.01-1,0.01-2,0.02-3.01
		c0-0.19-0.1-0.43,0.14-0.56c-0.01,1.18-0.01,2.35-0.02,3.53C129.59,66.51,129.63,66.74,129.53,66.96z"/>
	<path class="st13" d="M129.39,67.97c-0.02-0.19,0-0.37,0.14-0.53c0.11,1.03,0.1,2.06,0.01,3.08
		C129.34,69.68,129.59,68.81,129.39,67.97z"/>
	<path class="st2" d="M135.43,84.5c0.01,0.27,0.15,0.56-0.11,0.79C135.34,85.03,135.26,84.75,135.43,84.5z"/>
	<path class="st2" d="M135.2,86.18c0,0.22,0.09,0.46-0.11,0.65C135.08,86.61,135.02,86.37,135.2,86.18z"/>
	<path class="st3" d="M114.2,107.36c-0.04-0.22-0.06-0.45,0.03-0.67C114.33,106.92,114.33,107.14,114.2,107.36z"/>
	<path class="st13" d="M129.57,88.61c-0.16-0.16-0.12-0.33-0.03-0.5C129.55,88.28,129.56,88.44,129.57,88.61z"/>
	<path class="st2" d="M135.32,85.29c-0.03,0.05-0.05,0.1-0.08,0.14C135.27,85.39,135.3,85.34,135.32,85.29z"/>
	<path class="st3" d="M114.24,105.71c-0.07-0.05-0.07-0.11,0-0.16C114.25,105.6,114.24,105.66,114.24,105.71z"/>
	<path class="st6" d="M106.28,109.78c0.02-0.04,0.03-0.08,0.05-0.12C106.31,109.7,106.29,109.74,106.28,109.78z"/>
	<path class="st8" d="M111.38,115.27c0.04-0.05,0.08-0.1,0.12-0.15C111.46,115.17,111.42,115.22,111.38,115.27z"/>
	<path class="st3" d="M65.54,122c0.02,0.03,0.05,0.06,0.07,0.09c0.01,0.01-0.01,0.04-0.02,0.05c-0.02-0.03-0.05-0.05-0.07-0.09
		C65.51,122.04,65.53,122.02,65.54,122z"/>
	<path class="st2" d="M135.55,86.44c-0.15-0.4-0.15-0.78,0.15-1.13C135.76,85.7,135.59,86.06,135.55,86.44z"/>
	<path class="st1" d="M97.1,20.55c0.12,0.24,0.29,0.48,0.13,0.77c-1.51-0.73-3-1.5-4.56-2.13c-0.07-0.03-0.11-0.1-0.17-0.16
		c0.67-0.02,1.26,0.29,1.88,0.49C95.3,19.83,96.23,20.11,97.1,20.55z"/>
	<path class="st1" d="M101.2,22.33c-0.29-0.08-0.78,0.26-0.78-0.39C100.7,22.02,100.98,22.12,101.2,22.33z"/>
	<path class="st1" d="M99.91,21.7c-0.24-0.02-0.66,0.4-0.64-0.26C99.49,21.5,99.73,21.53,99.91,21.7z"/>
	<path class="st1" d="M113.06,29.81c-0.09,0.14-0.21,0.24-0.35,0.09c-0.1-0.11-0.03-0.23,0.09-0.31
		C112.89,29.66,112.97,29.74,113.06,29.81z"/>
	<path class="st1" d="M111.65,28.7c-0.29,0.02-0.58,0.05-0.52-0.4C111.32,28.42,111.54,28.49,111.65,28.7z"/>
	<path class="st1" d="M115.6,32.01c-0.32,0.05-0.43-0.1-0.38-0.4C115.35,31.73,115.58,31.77,115.6,32.01z"/>
	<path class="st1" d="M107.58,25.89c-0.2,0.02-0.4,0.03-0.4-0.26C107.36,25.65,107.49,25.74,107.58,25.89z"/>
	<path class="st1" d="M92.51,19.04c-0.16,0.04-0.3,0.03-0.39-0.13C92.27,18.89,92.43,18.85,92.51,19.04z"/>
	<path class="st1" d="M111,28.2c-0.16,0-0.25-0.07-0.26-0.23C110.86,28,110.94,28.09,111,28.2z"/>
	<path class="st1" d="M92.13,18.91c-0.09-0.01-0.18-0.02-0.28-0.04C91.96,18.77,92.06,18.72,92.13,18.91z"/>
	<path class="st1" d="M114.2,30.74c-0.05-0.05-0.1-0.09-0.15-0.14C114.11,30.65,114.15,30.7,114.2,30.74z"/>
	<path class="st1" d="M113.93,30.49c-0.04-0.04-0.09-0.09-0.13-0.13C113.84,30.4,113.89,30.45,113.93,30.49z"/>
	<path class="st1" d="M113.8,30.36c-0.04-0.04-0.09-0.08-0.13-0.12C113.71,30.29,113.76,30.33,113.8,30.36z"/>
	<path class="st1" d="M113.3,29.98c-0.05-0.04-0.09-0.09-0.14-0.13C113.2,29.89,113.25,29.94,113.3,29.98z"/>
	<path class="st1" d="M112.02,28.96c-0.04-0.04-0.09-0.08-0.13-0.12C111.93,28.88,111.97,28.92,112.02,28.96z"/>
	<path class="st1" d="M104.14,23.86c-0.05-0.04-0.1-0.08-0.16-0.13C104.04,23.77,104.09,23.81,104.14,23.86z"/>
	<path class="st1" d="M109.87,27.43c-0.05-0.04-0.1-0.08-0.15-0.13C109.77,27.34,109.82,27.38,109.87,27.43z"/>
	<path class="st1" d="M109.73,27.3c-0.05-0.04-0.09-0.08-0.14-0.12C109.64,27.22,109.68,27.26,109.73,27.3z"/>
	<path class="st1" d="M105.92,24.88c-0.05-0.04-0.1-0.08-0.15-0.12C105.82,24.8,105.87,24.84,105.92,24.88z"/>
	<path class="st1" d="M106.81,25.39c-0.05-0.04-0.1-0.09-0.15-0.13C106.71,25.3,106.76,25.35,106.81,25.39z"/>
	<path class="st1" d="M103.74,23.61c-0.04-0.04-0.09-0.08-0.13-0.12C103.65,23.53,103.69,23.57,103.74,23.61z"/>
	<path class="st4" d="M59.33,127.1c-0.75,0.21-1.12,0.78-1.34,1.47c-0.07,0.2-0.09,0.41-0.24,0.58c-0.74-2.81-0.91-5.61,0.06-8.4
		c0.06-0.17,0.12-0.33,0.18-0.5c0.03-0.04,0.05-0.09,0.08-0.13c0.97-1.96,2.37-3.54,4.19-4.76c0.18-0.12,0.34-0.25,0.57-0.22
		c0.41,0.15,0.12,0.38-0.02,0.41c-0.63,0.15-0.93,0.72-1.27,1.12c-1.25,1.45-1.83,3.18-1.76,5.11c-0.01,1.53-0.01,3.06-0.03,4.59
		c0,0.23,0.13,0.54-0.26,0.62c-0.04,0.03-0.08,0.06-0.12,0.08L59.33,127.1z"/>
	<path class="st0" d="M59.78,121.77c-0.07-1.93,0.51-3.66,1.76-5.11c0.35-0.4,0.64-0.97,1.27-1.12c0.14-0.03,0.43-0.25,0.02-0.41
		c1.41-0.87,2.95-1.45,4.57-1.79c0.21,0.23,0.48,0.13,0.72,0.13c3.25,0.01,6.5,0.01,9.74,0.01c-0.04,0.24-0.19,0.35-0.43,0.37
		c-0.44,0.03-0.88,0.03-1.3,0.14c-0.33,0.09-0.79-0.08-0.98,0.38c-0.23,0.16-0.49,0.12-0.74,0.12c-2.23,0-4.46,0-6.69,0
		c-2.79,0-4.74,1.39-6.14,3.71c-0.53,0.88-0.73,1.83-0.84,2.82C60.28,121.08,60.27,121.73,59.78,121.77z"/>
	<path class="st7" d="M93.41,106.72c-0.13,0.15-0.31,0.17-0.49,0.18c-0.01-0.06-0.01-0.12-0.02-0.19c-0.01-0.22,0.01-0.47,0.28-0.47
		C93.51,106.24,93.36,106.54,93.41,106.72z"/>
	<path class="st7" d="M94.48,106.22c-0.1,0.05-0.2,0.11-0.3,0.16C94.23,106.22,94.35,106.21,94.48,106.22z"/>
	<path class="st0" d="M121.9,55.44c0.02,0.27,0.04,0.55,0.05,0.82c0,5.36,0.01,10.71-0.01,16.07c0,0.65,0.05,1.17,0.77,1.37
		c0.06,0.02,0.09,0.13,0.14,0.19c-0.05,0.36-0.11,0.72-0.16,1.08c-0.61-0.79-1.4-0.77-2.25-0.52c0.23-1.55,0.51-3.09,0.69-4.64
		c0.39-3.41,0.49-6.84,0.19-10.26c-0.02-1.51-0.29-2.99-0.49-4.48c0.24-0.5,0.02-1.03,0.14-1.54c0.49,0.23,0.48,0.67,0.49,1.12
		C121.46,54.99,121.34,55.42,121.9,55.44z"/>
	<path class="st4" d="M120.44,74.47c0.85-0.25,1.64-0.28,2.25,0.52c0.32,0.8,0.11,1.47-0.52,2.02c-0.51,0.13-1.02,0.24-1.49-0.08
		c-0.24-0.16-0.44-0.37-0.66-0.55C120.15,75.74,120.3,75.1,120.44,74.47z"/>
	<path class="st0" d="M120.01,76.37c0.22,0.19,0.43,0.39,0.66,0.55c0.47,0.32,0.99,0.21,1.5,0.08c0.01,0.3,0.02,0.6,0.02,0.9
		c-0.68,0.37-1.32,0.2-1.95-0.13c-0.18-0.1-0.34-0.24-0.56-0.25C119.76,77.14,119.83,76.74,120.01,76.37z"/>
	<path class="st1" d="M120.96,53.55c-0.12,0.51,0.11,1.04-0.14,1.54c-0.43-2.11-0.81-4.24-1.53-6.28c-0.41-1.69-1.06-3.29-1.73-4.88
		c-0.97-2.3-2.14-4.5-3.48-6.61c-0.04-0.07-0.08-0.14-0.12-0.2c-0.02-0.09-0.04-0.19-0.16-0.21c-0.63-1.09-1.35-2.11-2.12-3.1
		c0.18-0.01,0.32,0.08,0.46,0.18c3.29,2.35,5.73,5.38,7.28,9.12c1.08,2.62,1.56,5.35,1.57,8.18
		C120.98,52.04,120.97,52.79,120.96,53.55z"/>
	<path class="st13" d="M120.99,51.28c-0.01-2.83-0.48-5.56-1.57-8.18c-1.55-3.74-3.99-6.77-7.28-9.12c-0.14-0.1-0.28-0.19-0.46-0.18
		c-0.56-0.72-1.23-1.36-1.7-2.16c0.08,0.02,0.16,0.05,0.24,0.07c0.37,0.2,0.74,0.39,1.11,0.59c0.1,0.07,0.2,0.14,0.3,0.21
		c0.03,0.03,0.06,0.04,0.1,0.04c0.07,0.11,0.17,0.15,0.29,0.16c0.29,0.24,0.58,0.48,0.88,0.73c0.05,0.12,0.16,0.1,0.26,0.09
		c0.02,0.03,0.05,0.04,0.09,0.04c0.05,0.04,0.11,0.09,0.16,0.13c0.05,0.04,0.1,0.07,0.14,0.11c0.29,0.24,0.58,0.47,0.87,0.71
		c0.03,0.03,0.07,0.05,0.1,0.08c0.06,0.08,0.11,0.16,0.17,0.24c0,0,0,0,0,0c0.09,0.08,0.17,0.16,0.26,0.25c0,0,0,0,0,0
		c0.05,0.12,0.13,0.2,0.26,0.24c0,0,0.01,0.01,0.01,0.01c0.29,0.35,0.55,0.74,1,0.9c0.04,0.04,0.08,0.08,0.12,0.13
		c0.04,0.05,0.09,0.1,0.13,0.14c0.06,0.08,0.13,0.16,0.19,0.25c0,0.05,0.03,0.07,0.08,0.08c0,0,0.02,0.03,0.02,0.03
		c0.11,0.22,0.27,0.39,0.47,0.53c0,0,0-0.01,0-0.01c0.05,0.07,0.1,0.15,0.15,0.22c0,0,0.01,0.02,0.01,0.02
		c0.04,0.12,0.11,0.21,0.22,0.27c0,0,0,0,0,0c0.04,0.05,0.08,0.09,0.13,0.14c0,0-0.01,0-0.01,0c0.08,0.24,0.23,0.43,0.41,0.6
		c0,0,0.01,0.01,0.01,0.01c0.07,0.09,0.13,0.19,0.2,0.28c0.1,0.16,0.21,0.32,0.31,0.49c0.04,0.06,0.07,0.11,0.11,0.17
		c0,0.04,0.02,0.07,0.05,0.1c0.03,0.04,0.06,0.08,0.09,0.12c0.02,0.04,0.03,0.08,0.05,0.12c0.15,0.26,0.31,0.51,0.46,0.77
		c0.26,0.55,0.52,1.1,0.78,1.66c0.03,0.05,0.06,0.1,0.09,0.14c0,0-0.01-0.01-0.01-0.01c0.04,0.17-0.01,0.36,0.15,0.49
		c0,0,0,0.01,0,0.01c0.05,0.21,0.1,0.42,0.16,0.63c0.23,0.36,0.16,0.83,0.45,1.16c0.04,0.14,0.02,0.29,0.15,0.4
		c0.02,0.13,0.05,0.26,0.07,0.38c-0.12,0.27,0.13,0.48,0.11,0.73c0.33,1.09,0.38,2.21,0.48,3.33c0.01,0.08,0.01,0.16,0.02,0.24
		c0,1.02,0.13,2.04-0.01,3.05c-0.32,0.01-0.32-0.26-0.4-0.47C121.29,52.06,121.35,51.59,120.99,51.28z"/>
	<path class="st1" d="M104.38,26.16c0.37-0.02,0.45,0.22,0.5,0.51C104.65,26.56,104.5,26.37,104.38,26.16z"/>
	<path class="st1" d="M97.23,21.32c0.21,0.02,0.49-0.09,0.5,0.28C97.53,21.56,97.36,21.46,97.23,21.32z"/>
	<path class="st1" d="M105.61,27.21c0.32-0.08,0.43,0.07,0.4,0.37C105.85,27.49,105.7,27.39,105.61,27.21z"/>
	<path class="st1" d="M105.27,26.92c0.19,0.01,0.38,0.01,0.34,0.29C105.45,27.17,105.35,27.06,105.27,26.92z"/>
	<path class="st1" d="M104.87,26.67c0.18,0,0.36-0.01,0.39,0.24C105.13,26.83,105,26.75,104.87,26.67z"/>
	<path class="st1" d="M108.71,30.24c0.16,0.01,0.24,0.1,0.24,0.26C108.83,30.45,108.75,30.36,108.71,30.24z"/>
	<path class="st1" d="M108.47,29.99c0.15,0.01,0.22,0.1,0.23,0.24C108.58,30.19,108.52,30.1,108.47,29.99z"/>
	<path class="st1" d="M106.97,28.48c0.22-0.02,0.32,0.07,0.3,0.29C107.17,28.67,107.07,28.58,106.97,28.48z"/>
	<path class="st1" d="M106.68,28.19c0.14,0.02,0.22,0.09,0.23,0.23C106.84,28.35,106.76,28.27,106.68,28.19z"/>
	<path class="st1" d="M106.42,27.94c0.15,0.01,0.23,0.09,0.25,0.24C106.58,28.1,106.5,28.02,106.42,27.94z"/>
	<path class="st1" d="M106.15,27.69c0.16,0,0.25,0.08,0.26,0.24C106.28,27.9,106.2,27.81,106.15,27.69z"/>
	<path class="st1" d="M104.08,25.92c0.17-0.01,0.27,0.06,0.28,0.23C104.27,26.07,104.18,26,104.08,25.92z"/>
	<path class="st1" d="M98.12,21.83c0.11,0,0.2,0.03,0.25,0.14C98.29,21.92,98.2,21.88,98.12,21.83z"/>
	<path class="st1" d="M98.6,22.1c0.13-0.01,0.24,0.02,0.27,0.17C98.78,22.21,98.69,22.15,98.6,22.1z"/>
	<path class="st11" d="M113.8,36.9c0.12,0.02,0.14,0.12,0.16,0.21C113.84,37.09,113.8,37.01,113.8,36.9z"/>
	<path class="st1" d="M110.22,31.71c-0.08-0.02-0.16-0.05-0.24-0.07c-0.03-0.03-0.05-0.07-0.05-0.11
		C110.06,31.52,110.18,31.55,110.22,31.71z"/>
	<path class="st1" d="M103.74,25.65c0.12,0.01,0.22,0.05,0.23,0.19C103.89,25.78,103.81,25.71,103.74,25.65z"/>
	<path class="st1" d="M109.43,31.02c0.05,0.05,0.1,0.11,0.14,0.16C109.53,31.13,109.48,31.07,109.43,31.02z"/>
	<path class="st1" d="M109.19,30.76c0.04,0.05,0.09,0.1,0.13,0.15C109.28,30.86,109.24,30.81,109.19,30.76z"/>
	<path class="st1" d="M108.95,30.5c0.04,0.05,0.08,0.09,0.12,0.14C109.03,30.59,108.99,30.55,108.95,30.5z"/>
	<path class="st1" d="M99.45,22.61c0.06,0.04,0.13,0.09,0.19,0.13C99.58,22.7,99.51,22.66,99.45,22.61z"/>
	<path class="st1" d="M99.84,22.87c0.06,0.04,0.12,0.08,0.19,0.12C99.96,22.95,99.9,22.91,99.84,22.87z"/>
	<path class="st1" d="M100.02,22.98c0.05,0.03,0.09,0.07,0.14,0.1C100.11,23.05,100.06,23.02,100.02,22.98z"/>
	<path class="st1" d="M100.24,23.12c0.06,0.04,0.11,0.08,0.17,0.11C100.35,23.2,100.3,23.16,100.24,23.12z"/>
	<path class="st1" d="M100.41,23.23c0.04,0.03,0.09,0.06,0.13,0.09C100.49,23.29,100.45,23.26,100.41,23.23z"/>
	<path class="st1" d="M100.63,23.37c0.05,0.04,0.11,0.07,0.16,0.11C100.74,23.45,100.69,23.41,100.63,23.37z"/>
	<path class="st1" d="M100.8,23.48c0.04,0.03,0.08,0.06,0.12,0.09C100.88,23.54,100.84,23.51,100.8,23.48z"/>
	<path class="st1" d="M101.02,23.63c0.05,0.04,0.1,0.08,0.16,0.12C101.12,23.7,101.07,23.67,101.02,23.63z"/>
	<path class="st1" d="M101.38,23.89c0.06,0.04,0.12,0.08,0.18,0.13C101.5,23.97,101.44,23.93,101.38,23.89z"/>
	<path class="st1" d="M101.54,24c0.05,0.04,0.1,0.07,0.14,0.11C101.64,24.08,101.59,24.04,101.54,24z"/>
	<path class="st1" d="M101.74,24.14c0.09,0.01,0.16,0.06,0.19,0.15C101.87,24.24,101.81,24.19,101.74,24.14z"/>
	<path class="st1" d="M102.43,24.64c0.05,0.04,0.1,0.07,0.15,0.11C102.53,24.72,102.48,24.68,102.43,24.64z"/>
	<path class="st1" d="M102.59,24.76c0.04,0.03,0.08,0.06,0.11,0.09C102.66,24.82,102.63,24.79,102.59,24.76z"/>
	<path class="st1" d="M102.81,24.9c0.05,0.04,0.11,0.09,0.16,0.13C102.91,24.99,102.86,24.94,102.81,24.9z"/>
	<path class="st1" d="M103.59,25.53c0.05,0.04,0.09,0.08,0.14,0.11C103.68,25.61,103.64,25.57,103.59,25.53z"/>
	<path class="st1" d="M103.44,25.41c0.05,0.04,0.1,0.09,0.15,0.13C103.54,25.49,103.49,25.45,103.44,25.41z"/>
	<path class="st5" d="M57.99,120.23c-0.06,0.17-0.12,0.33-0.18,0.5C57.67,120.49,57.4,120.21,57.99,120.23z"/>
	<path class="st1" d="M58.33,130.81c0.13,0.05,0.15,0.16,0.13,0.28C58.35,131.03,58.34,130.92,58.33,130.81z"/>
	<path class="st3" d="M89.43,114.37c-0.33-0.18-0.62-0.05-0.91,0.11c-0.37-1.12,0.41-2.34,1.46-2.74c1.15-0.44,2.44,0,2.97,1.12
		c0.23,0.48,0.49,0.61,0.99,0.6c2.29-0.02,4.58,0,6.87,0.01c-0.25,0.17-0.53,0.11-0.8,0.11c-1.9,0.01-3.8,0-5.7,0.01
		c-0.77,0-1.44,0.33-2.07,0.74c0-0.19,0.01-0.38-0.01-0.57c-0.08-0.61-0.57-1.12-1.14-1.2c-0.7-0.1-1.29,0.21-1.56,0.81
		C89.37,113.7,89.48,114.04,89.43,114.37z"/>
	<path class="st13" d="M121.84,88.51c-0.3-0.01-0.43,0.18-0.52,0.43c-0.07,0.18-0.09,0.41-0.35,0.44c0-1.02-0.01-2.03-0.01-3.05
		c0.39-0.1,0.76-0.27,0.66-0.74c-0.06-0.29,0.04-0.53,0.07-0.79c1.14-0.51,1.4-1.18,0.89-2.3c0.07-0.33-0.02-0.78,0.53-0.78
		c0.32,0.28,0.43,0.69,0.64,1.04c0.02,0.09,0.04,0.18,0.06,0.28c0.06,0.37-0.05,0.73-0.09,1.1c-0.08,0.18-0.17,0.35-0.25,0.53
		c0,0,0,0,0,0c-0.04,0.04-0.07,0.09-0.11,0.13c-0.35,0.41-0.8,0.68-1.29,0.89c-0.05,0-0.09,0-0.14,0c-0.02,0.04-0.04,0.08-0.06,0.12
		l0.05,0.02c-0.02,0.17-0.03,0.35-0.05,0.52c-0.1,0.16-0.1,0.32,0,0.48C121.9,87.38,122.01,87.95,121.84,88.51z"/>
	<path class="st2" d="M75.16,114.37c0.19-0.46,0.65-0.29,0.98-0.38c0.42-0.11,0.86-0.11,1.3-0.14c0.25-0.02,0.39-0.12,0.43-0.37
		c0.84,0,1.67-0.03,2.51,0c0.35,0.01,0.54-0.12,0.66-0.42c0.35-0.08,0.7-0.13,1.06-0.11c-0.4,0.36-0.25,0.85-0.32,1.29
		c-0.34-0.09-0.74-0.35-0.87,0.26c-1.64-0.01-3.29-0.03-4.93-0.04C75.69,114.47,75.42,114.48,75.16,114.37z"/>
	<path class="st2" d="M112.41,99.18c-0.44,0.07-0.72,0.27-0.65,0.77c-0.55-0.85-0.51-1.72,0.02-2.54c0.52-0.81,1.26-1.28,2.29-1.1
		c-0.06,0.31-0.95,0.39-0.26,0.91C112.76,97.32,112.21,97.95,112.41,99.18z"/>
	<path class="st2" d="M122.2,77.91c-0.01-0.3-0.02-0.6-0.02-0.9c0.63-0.56,0.84-1.22,0.52-2.02c0.05-0.36,0.11-0.72,0.16-1.08
		C124.6,75.08,123.71,77.55,122.2,77.91z"/>
	<path class="st0" d="M119.78,85.05c-1.42-1.19-0.64-3.51,0.92-3.93c0,0.29-0.01,0.59-0.01,0.88c-0.54,0.59-0.86,1.24-0.53,2.05
		C119.51,84.18,119.83,84.68,119.78,85.05z"/>
	<path class="st0" d="M82.09,112.95c-0.36-0.02-0.71,0.03-1.06,0.11c0.25-0.88,0.95-1.27,1.74-1.45c0.81-0.19,1.54,0.06,2.1,0.7
		c-0.38,0.02-0.8-0.06-1.01,0.38C83.22,112.45,82.63,112.55,82.09,112.95z"/>
	<path class="st2" d="M103.75,106.46c-0.06-1.67,1.45-2.93,2.92-2.43c-0.24,0.3-0.83,0.29-0.76,0.86c-0.59,0.13-1,0.47-1.18,1.06
		c-0.11-0.07-0.13-0.31-0.38-0.15C104.09,105.98,103.91,106.2,103.75,106.46z"/>
	<path class="st3" d="M105.9,104.89c-0.07-0.57,0.52-0.57,0.76-0.86c0.52,0.02,0.87,0.37,1.26,0.65c0.12,0.17,0.25,0.34,0.37,0.52
		c0.04,0.17,0.08,0.35,0.12,0.52c-0.64-0.15-0.68,0.37-0.86,0.75C107.4,105.3,107.03,104.95,105.9,104.89z"/>
	<path class="st2" d="M120.99,51.28c0.36,0.31,0.31,0.78,0.46,1.17c0.08,0.21,0.08,0.47,0.4,0.47c0.17,0.84,0.06,1.69,0.06,2.53
		c-0.56-0.02-0.45-0.45-0.45-0.78c-0.01-0.45,0-0.89-0.49-1.12C120.97,52.79,120.98,52.04,120.99,51.28z"/>
	<path class="st2" d="M120.68,81.99c0-0.29,0.01-0.59,0.01-0.88c0.93-0.3,1.74-0.1,2.42,0.6c-0.56,0-0.46,0.45-0.53,0.78
		C122.07,81.89,121.38,81.93,120.68,81.99z"/>
	<path class="st3" d="M103.75,106.46c0.16-0.25,0.34-0.48,0.61-0.65c0.25-0.16,0.26,0.08,0.38,0.15c0,0.21,0,0.42,0,0.63
		c-0.01,0.01-0.04,0.04-0.03,0.04c0.01,0.03,0.04,0.06,0.06,0.08c0.18,0.5,0.58,0.78,1.02,1.01c-0.35-0.05-0.7,0.15-1.06,0.03
		c-0.16-0.05-0.2,0.11-0.23,0.24c-0.42-0.26-0.58-0.66-0.65-1.12c-0.02-0.05-0.05-0.11-0.07-0.16
		C103.75,106.63,103.75,106.54,103.75,106.46z"/>
	<path class="st1" d="M119.78,92.09c-0.03,1.4-1.23,2.04-1.63,3.2c-0.1-0.07-0.2-0.13-0.3-0.2
		C118.49,94.09,119.13,93.09,119.78,92.09z"/>
	<path class="st2" d="M119.78,85.05c0.05-0.37-0.27-0.87,0.38-1.01c0.13,0.39,0.53,0.48,0.79,0.73c-0.7,0.29,0.01,0.61-0.02,0.92
		C120.45,85.64,120.09,85.38,119.78,85.05z"/>
	<path class="st3" d="M120.92,85.69c0.03-0.3-0.68-0.63,0.02-0.92c0.25,0.01,0.5,0.02,0.76,0.03c-0.04,0.26-0.13,0.49-0.07,0.79
		c0.09,0.46-0.28,0.64-0.66,0.74C120.95,86.11,120.93,85.9,120.92,85.69z"/>
	<path class="st1" d="M120.93,90.27c0,0.3,0,0.6,0,0.89c-0.14,0.02-0.24,0.09-0.24,0.24c0.03,0.54-0.32,0.71-0.77,0.78
		c-0.01-0.28,0-0.57,0.25-0.74c0.22-0.16,0.26-0.35,0.27-0.59C120.44,90.54,120.52,90.25,120.93,90.27z"/>
	<path class="st2" d="M83.85,112.7c0.22-0.44,0.64-0.36,1.01-0.38c0.21,0.16,0.36,0.36,0.38,0.64c-0.33,0.04-0.53,0.25-0.66,0.54
		C84.38,113.19,84.19,112.88,83.85,112.7z"/>
	<path class="st1" d="M128.07,62.62c0.04-0.01,0.08-0.02,0.12-0.03c0.3,0.12,0.42,0.32,0.4,0.67c-0.04,0.76-0.03,1.52-0.03,2.28
		c-0.44-0.26-0.3-0.71-0.26-1.06C128.37,63.84,128.23,63.23,128.07,62.62z"/>
	<path class="st1" d="M85.88,115.45c0.04-0.01,0.06-0.02,0.08-0.02c0.1-0.01,0.19,0.06,0.16,0.14c-0.1,0.3-0.42,0.54-0.21,0.91
		c-0.08,0-0.18,0.02-0.23-0.02c-0.2-0.15-0.44-0.3-0.41-0.59C85.3,115.51,85.66,115.56,85.88,115.45z"/>
	<path class="st1" d="M112.42,100.68c0.25,0.26,0.88,0.06,0.83,0.69c-0.14,0-0.29,0-0.43,0
		C112.28,101.37,112.16,101.13,112.42,100.68z"/>
	<path class="st1" d="M116.22,36.24c-0.45-0.17-0.71-0.56-1-0.9C115.8,35.35,115.99,35.82,116.22,36.24z"/>
	<path class="st1" d="M114.42,34.51c-0.29-0.24-0.58-0.47-0.87-0.71C114.08,33.75,114.31,34.05,114.42,34.51z"/>
	<path class="st1" d="M119.4,40.7c-0.15-0.26-0.31-0.51-0.46-0.77C119.49,39.95,119.55,40.26,119.4,40.7z"/>
	<path class="st1" d="M108.3,105.19c-0.12-0.17-0.25-0.34-0.37-0.52c0.2,0.03,0.45-0.11,0.57,0.11
		C108.58,104.94,108.44,105.09,108.3,105.19z"/>
	<path class="st1" d="M87.86,115.36c-0.12-0.02-0.18-0.09-0.16-0.22c0.02-0.11,0.08-0.21,0.19-0.21c0.14-0.01,0.15,0.11,0.15,0.22
		C88.04,115.27,87.98,115.34,87.86,115.36z"/>
	<path class="st1" d="M117.23,37.39c-0.2-0.14-0.36-0.31-0.47-0.53C117.16,36.82,117.3,37.01,117.23,37.39z"/>
	<path class="st1" d="M84.24,116.15c0.2-0.14,0.41-0.28,0.61-0.42C84.86,116.18,84.53,116.14,84.24,116.15z"/>
	<path class="st1" d="M118.14,38.64c-0.18-0.17-0.33-0.36-0.41-0.6C118.17,38.02,118.12,38.35,118.14,38.64z"/>
	<path class="st1" d="M102.64,23.74c-0.02,0.11-0.1,0.11-0.18,0.11c-0.08,0-0.18-0.01-0.18-0.12c0-0.11,0.1-0.11,0.18-0.11
		C102.54,23.62,102.62,23.63,102.64,23.74z"/>
	<path class="st1" d="M127.07,59.05c-0.04,0.17-0.12,0.32-0.24,0.44c-0.02-0.14-0.27-0.19-0.2-0.34
		C126.71,58.97,126.92,59.07,127.07,59.05z"/>
	<path class="st1" d="M121.36,46.28c0.02-0.25-0.23-0.46-0.11-0.73C121.38,45.78,121.55,46.01,121.36,46.28z"/>
	<path class="st1" d="M83.32,116.4c0.19-0.14,0.43-0.09,0.64-0.14C83.85,116.76,83.52,116.26,83.32,116.4z"/>
	<path class="st1" d="M120.59,43.61c-0.05-0.21-0.1-0.42-0.16-0.63C120.59,43.17,120.78,43.34,120.59,43.61z"/>
	<path class="st1" d="M105.24,24.85c0.03,0.05,0.07,0.1,0.07,0.15c0.01,0.11-0.08,0.13-0.16,0.1c-0.04-0.01-0.06-0.08-0.1-0.12
		C105.1,24.96,105.15,24.93,105.24,24.85z"/>
	<path class="st1" d="M123.47,84.66c0.08-0.18,0.17-0.35,0.25-0.53C123.71,84.34,123.85,84.62,123.47,84.66z"/>
	<path class="st1" d="M118.34,38.93c-0.07-0.09-0.13-0.19-0.2-0.28C118.28,38.69,118.65,38.57,118.34,38.93z"/>
	<path class="st1" d="M113.16,33.52c-0.1,0-0.2,0.03-0.26-0.09C113.07,33.24,113.12,33.35,113.16,33.52z"/>
	<path class="st1" d="M98.71,21.74c-0.04,0.01-0.08,0.05-0.11,0.04c-0.03-0.01-0.03-0.07-0.04-0.1c0.04-0.01,0.08-0.05,0.11-0.04
		C98.69,21.64,98.69,21.7,98.71,21.74z"/>
	<path class="st1" d="M123.81,83.03c-0.02-0.09-0.04-0.18-0.06-0.28C123.98,82.8,124.06,82.88,123.81,83.03z"/>
	<path class="st1" d="M101.51,23.01c-0.04,0.01-0.08,0.05-0.11,0.04c-0.03-0.01-0.03-0.07-0.04-0.1c0.04-0.01,0.08-0.05,0.11-0.04
		C101.49,22.92,101.5,22.97,101.51,23.01z"/>
	<path class="st1" d="M126.89,62.66c0.04,0.02,0.09,0.02,0.1,0.05c0.01,0.02-0.03,0.07-0.04,0.1c-0.04-0.02-0.09-0.02-0.1-0.05
		C126.84,62.74,126.87,62.7,126.89,62.66z"/>
	<path class="st1" d="M126.24,57.17c-0.04,0.01-0.08,0.05-0.11,0.04c-0.03-0.01-0.03-0.07-0.04-0.1c0.04-0.01,0.08-0.05,0.11-0.04
		C126.22,57.08,126.23,57.13,126.24,57.17z"/>
	<path class="st1" d="M120.43,42.98c-0.17-0.13-0.12-0.32-0.15-0.49C120.5,42.6,120.4,42.81,120.43,42.98z"/>
	<path class="st1" d="M111.55,30.4c0.02-0.04,0.02-0.09,0.05-0.1c0.02-0.01,0.07,0.03,0.1,0.04c-0.02,0.04-0.02,0.09-0.05,0.1
		C111.63,30.45,111.59,30.42,111.55,30.4z"/>
	<path class="st3" d="M121.89,86.81c-0.1-0.16-0.1-0.32,0-0.48C121.95,86.5,121.95,86.66,121.89,86.81z"/>
	<path class="st1" d="M111.63,32.5c-0.1-0.07-0.2-0.14-0.3-0.21C111.49,32.28,111.61,32.32,111.63,32.5z"/>
	<path class="st3" d="M104.49,108c0.17-0.01,0.26,0.07,0.27,0.23C104.61,108.21,104.53,108.13,104.49,108z"/>
	<path class="st1" d="M127.71,62.41c0.08,0.05,0.17,0.11,0.25,0.16C127.7,62.79,127.76,62.52,127.71,62.41z"/>
	<path class="st1" d="M114.95,35.08c-0.09-0.08-0.17-0.16-0.26-0.25C114.85,34.83,114.94,34.91,114.95,35.08z"/>
	<path class="st1" d="M115.2,35.33c-0.12-0.04-0.21-0.12-0.26-0.24C115.11,35.09,115.19,35.17,115.2,35.33z"/>
	<path class="st1" d="M121.18,45.17c-0.12-0.1-0.11-0.26-0.15-0.4C121.22,44.86,121.18,45.02,121.18,45.17z"/>
	<path class="st1" d="M117.61,37.9c-0.12-0.06-0.19-0.15-0.22-0.27C117.55,37.65,117.62,37.74,117.61,37.9z"/>
	<path class="st1" d="M117.38,37.61c-0.05-0.07-0.1-0.15-0.15-0.22C117.33,37.42,117.36,37.51,117.38,37.61z"/>
	<path class="st1" d="M112.03,32.71c-0.12-0.01-0.22-0.05-0.29-0.16C111.87,32.54,111.97,32.57,112.03,32.71z"/>
	<path class="st1" d="M114.69,34.83c-0.06-0.08-0.11-0.16-0.17-0.24C114.66,34.61,114.68,34.71,114.69,34.83z"/>
	<path class="st0" d="M121.86,49.86c-0.01-0.08-0.01-0.16-0.02-0.24C121.95,49.69,121.97,49.77,121.86,49.86z"/>
	<path class="st1" d="M118.89,39.8c-0.03-0.04-0.06-0.08-0.09-0.12C118.83,39.72,118.86,39.76,118.89,39.8z"/>
	<path class="st1" d="M113.41,33.7c-0.05-0.04-0.11-0.09-0.16-0.13C113.3,33.61,113.36,33.65,113.41,33.7z"/>
	<path class="st1" d="M116.47,36.51c-0.04-0.05-0.09-0.1-0.13-0.14C116.38,36.41,116.42,36.46,116.47,36.51z"/>
	<path class="st2" d="M103.76,106.71c0.02,0.05,0.05,0.1,0.07,0.16C103.81,106.82,103.78,106.77,103.76,106.71z"/>
	<path class="st6" d="M105.51,109.27c0,0.03-0.01,0.06-0.03,0.09c0,0-0.02-0.05-0.02-0.05L105.51,109.27z"/>
	<path class="st2" d="M85.35,113.09c-0.03-0.04-0.06-0.09-0.09-0.13C85.29,113,85.32,113.04,85.35,113.09z"/>
	<path class="st1" d="M111.89,100.19c0.04,0.05,0.08,0.1,0.13,0.15C111.98,100.29,111.93,100.24,111.89,100.19z"/>
	<path class="st1" d="M115.7,97.16c-0.04-0.04-0.09-0.09-0.13-0.13C115.61,97.08,115.66,97.12,115.7,97.16z"/>
	<path class="st1" d="M116.73,36.83c-0.05,0-0.08-0.03-0.08-0.08C116.69,36.77,116.71,36.8,116.73,36.83z"/>
	<path class="st1" d="M88.96,115.46c0.05,0.05,0.09,0.11,0.14,0.16C89.05,115.57,89,115.52,88.96,115.46z"/>
	<path class="st1" d="M89.21,115.74c0.04,0.05,0.09,0.1,0.13,0.15C89.3,115.83,89.25,115.79,89.21,115.74z"/>
	<path class="st1" d="M117.74,38.03c-0.04-0.05-0.08-0.09-0.13-0.14C117.65,37.94,117.69,37.99,117.74,38.03z"/>
	<path class="st1" d="M118.76,39.58c-0.04-0.06-0.07-0.11-0.11-0.17C118.68,39.47,118.72,39.53,118.76,39.58z"/>
	<path class="st1" d="M121.95,85.68c0.05,0,0.09,0,0.14,0c-0.05,0.05-0.1,0.09-0.14,0.14c0,0-0.05-0.02-0.05-0.02
		C121.9,85.76,121.93,85.72,121.95,85.68z"/>
	<path class="st1" d="M120.28,42.5c-0.03-0.05-0.06-0.1-0.09-0.14C120.22,42.4,120.25,42.45,120.28,42.5z"/>
	<path class="st1" d="M123.37,84.79c0.04-0.04,0.07-0.09,0.11-0.13C123.44,84.7,123.4,84.74,123.37,84.79z"/>
	<path class="st2" d="M59.78,121.77c0.49-0.04,0.5-0.69,0.97-0.76c0,1.73,0.01,3.46,0.02,5.19c-0.03,0.01-0.07,0.01-0.1,0.02
		c-0.5,0.39-0.5,1.05-0.01,1.64c-0.39,0.03-0.79-0.08-1.15,0.15c-0.27-0.26-0.06-0.62-0.17-0.91c0,0,0.05-0.03,0.05-0.03
		c0.04-0.03,0.08-0.06,0.12-0.08c0.38-0.08,0.25-0.39,0.26-0.62C59.77,124.83,59.77,123.3,59.78,121.77z"/>
	<path class="st1" d="M66.65,119.49c-0.15,0.15-0.29,0.31-0.51,0.37C66.15,119.51,66.14,119.14,66.65,119.49z"/>
	<path class="st1" d="M66.15,119.86c-0.07,0.22-0.23,0.37-0.39,0.53C65.73,120.1,65.77,119.85,66.15,119.86z"/>
	<path class="st1" d="M80.92,114.85c0.06,0.13,0.12,0.25,0.19,0.38C80.72,115.27,80.83,115.06,80.92,114.85z"/>
	<path class="st1" d="M61.08,126.5c0.02-0.04,0.02-0.09,0.05-0.1c0.02-0.01,0.07,0.03,0.1,0.04c-0.02,0.04-0.02,0.09-0.05,0.1
		C61.16,126.56,61.11,126.52,61.08,126.5z"/>
	<path class="st1" d="M67.3,119.22c-0.05,0.03-0.1,0.05-0.15,0.08C67.21,119.27,67.25,119.24,67.3,119.22z"/>
	<path class="st1" d="M65.72,120.49c-0.03,0.05-0.06,0.1-0.09,0.15C65.66,120.58,65.69,120.53,65.72,120.49z"/>
	<path class="st0" d="M60.66,126.23c0.03-0.01,0.07-0.01,0.1-0.02c0,0.06-0.01,0.11-0.01,0.17
		C60.72,126.32,60.69,126.27,60.66,126.23z"/>
	<path class="st0" d="M60.9,126.95c-0.04-0.03-0.09-0.06-0.13-0.09C60.81,126.89,60.86,126.92,60.9,126.95z"/>
	<path class="st1" d="M61.53,127.2c-0.04-0.03-0.08-0.06-0.13-0.09C61.45,127.14,61.49,127.17,61.53,127.2z"/>
	<path class="st1" d="M75.5,120.18c0.78-0.01,1.43,0.59,1.45,1.37c0.03,0.79-0.62,1.47-1.42,1.48c-0.75,0-1.52-0.71-1.51-1.41
		C74.04,120.86,74.73,120.19,75.5,120.18z"/>
	<path class="st1" d="M66.49,121.25c0.02-0.08,0.05-0.17,0.07-0.25c0.35-0.55,0.85-0.81,1.49-0.83c0.49,0.06,0.82,0.37,1.12,0.72
		c0.22,0.64,0.21,1.25-0.32,1.75c-0.69,0.66-1.72,0.48-2.3-0.39c-0.02-0.08-0.04-0.16-0.06-0.24c-0.01-0.04-0.01-0.08-0.02-0.12
		c-0.01-0.17-0.01-0.33-0.02-0.5C66.47,121.34,66.48,121.29,66.49,121.25z"/>
	<path class="st1" d="M89.43,114.37c0.06-0.33-0.05-0.67,0.09-1c0.27-0.6,0.86-0.91,1.56-0.81c0.57,0.08,1.06,0.58,1.14,1.2
		c0.03,0.19,0.01,0.38,0.01,0.57c-0.25,0.65-0.7,1.06-1.42,1.05C90.13,115.38,89.68,115,89.43,114.37z"/>
	<path class="st1" d="M89.41,129.23c0.01-0.8,0.62-1.4,1.42-1.4c0.82,0,1.45,0.65,1.43,1.46c-0.02,0.77-0.68,1.4-1.46,1.38
		C90.02,130.66,89.4,130.01,89.41,129.23z"/>
	<path class="st1" d="M121.44,107.73c-0.78,0.01-1.42-0.6-1.44-1.39c-0.02-0.8,0.56-1.43,1.36-1.45c0.82-0.03,1.48,0.6,1.49,1.4
		C122.84,107.06,122.21,107.72,121.44,107.73z"/>
	<path class="st1" d="M127.64,91.03c-0.01-0.8,0.58-1.42,1.38-1.44c0.82-0.02,1.47,0.62,1.46,1.42c-0.01,0.78-0.64,1.42-1.42,1.42
		C128.29,92.44,127.66,91.81,127.64,91.03z"/>
	<path class="st1" d="M128.24,61.62c-0.77-0.83-0.8-1.39-0.15-2.31c1.14-0.65,2.13-0.12,2.36,0.75c0.15,0.59-0.06,1.18-0.6,1.53
		C129.32,61.92,128.78,62.02,128.24,61.62z"/>
	<path class="st11" d="M129.44,66.32c0,0.17,0,0.33,0,0.5C129.31,66.65,129.31,66.48,129.44,66.32z"/>
	<path class="st1" d="M112.41,99.18c-0.2-1.24,0.35-1.87,1.39-1.96c0.83,0.15,1.29,0.58,1.37,1.27c0.07,0.63-0.33,1.25-0.95,1.49
		C113.57,100.23,112.95,99.96,112.41,99.18z"/>
	<path class="st4" d="M83.85,112.7c0.34,0.18,0.52,0.5,0.73,0.79c0.28,1.22-0.87,2.23-1.94,1.77c-0.46-0.2-0.74-0.55-0.88-1.02
		c0.07-0.44-0.08-0.93,0.32-1.29C82.63,112.55,83.22,112.45,83.85,112.7z"/>
	<path class="st4" d="M59.5,128.01c0.36-0.23,0.76-0.12,1.15-0.15c0.62,0.29,1.03,0.74,1,1.46c-0.03,0.72-0.49,1.12-1.13,1.36
		c-0.34-0.06-0.72,0.11-1.02-0.17C58.63,129.55,58.63,128.76,59.5,128.01z"/>
	<path class="st1" d="M105.77,107.72c-0.44-0.23-0.85-0.51-1.02-1.01c-0.01-0.04-0.02-0.08-0.02-0.13c0-0.21,0-0.42,0-0.63
		c0.18-0.59,0.58-0.93,1.18-1.06c1.13,0.06,1.5,0.41,1.65,1.57C107.27,107.45,106.83,107.77,105.77,107.72z"/>
	<path class="st3" d="M66.49,121.25c-0.01,0.04-0.02,0.09-0.03,0.13c-0.01-0.03-0.02-0.07-0.02-0.1
		C66.44,121.27,66.47,121.26,66.49,121.25z"/>
	<path class="st3" d="M66.48,121.88c0.01,0.04,0.01,0.08,0.02,0.12c-0.02-0.03-0.04-0.05-0.05-0.08
		C66.45,121.91,66.47,121.89,66.48,121.88z"/>
	<path class="st0" d="M59.49,126.98c-0.04,0.03-0.08,0.06-0.12,0.08C59.41,127.04,59.45,127.01,59.49,126.98z"/>
	<path class="st4" d="M121.7,84.8c-0.25-0.01-0.5-0.02-0.76-0.03c-0.25-0.25-0.66-0.35-0.79-0.73c-0.33-0.81-0.02-1.46,0.53-2.05
		c0.7-0.06,1.39-0.1,1.9,0.51C123.09,83.62,122.84,84.29,121.7,84.8z"/>
	<path class="st3" d="M121.95,85.68c-0.02,0.04-0.04,0.08-0.06,0.12C121.9,85.76,121.92,85.72,121.95,85.68z"/>
	<path class="st2" d="M104.73,106.59c0.01,0.04,0.02,0.08,0.02,0.13c-0.02-0.03-0.04-0.05-0.06-0.08
		C104.69,106.62,104.71,106.6,104.73,106.59z"/>
</g>
</svg>
