<?xml version="1.0" encoding="utf-8"?>
<!-- Generator: Adobe Illustrator 23.0.1, SVG Export Plug-In . SVG Version: 6.00 Build 0)  -->
<svg version="1.1" id="katman_1" xmlns="http://www.w3.org/2000/svg" xmlns:xlink="http://www.w3.org/1999/xlink" x="0px" y="0px"
	 viewBox="0 0 192.29 154.78" style="enable-background:new 0 0 192.29 154.78;" xml:space="preserve">
<style type="text/css">
	.st0{fill:#E92D25;}
</style>
<g>
	<path class="st0" d="M13.59,16.14c1.82,1.26,3.45,2.38,5.06,3.51c4.42,3.07,8.84,6.14,13.25,9.22c5.66,3.95,11.32,7.9,16.99,11.84
		c6.08,4.22,12.18,8.42,18.26,12.65c3.69,2.57,7.36,5.17,11.06,7.73c0.46,0.32,0.75,0.73,1,1.17c0.95,1.69,1.85,3.4,2.76,5.11
		c0.15,0.29,0.26,0.6,0.23,1.07c-1.2-0.65-2.4-1.29-3.59-1.95c-3.62-2.01-7.23-4.04-10.85-6.05C58.39,55.25,49,50.06,39.62,44.87
		c-6.28-3.48-12.55-6.97-18.84-10.44c-0.58-0.32-0.95-0.75-1.17-1.36c-1.71-4.66-3.44-9.31-5.13-13.97
		C14.16,18.23,13.68,17.4,13.59,16.14z"/>
	<path class="st0" d="M177.65,16.44c-0.64,1.75-1.28,3.5-1.92,5.25c-1.36,3.68-2.78,7.34-4.04,11.06c-0.39,1.15-1.21,1.59-2.09,2.09
		c-1.92,1.08-3.87,2.13-5.8,3.2c-6.68,3.7-13.36,7.4-20.03,11.11c-6.71,3.73-13.41,7.47-20.12,11.19
		c-4.77,2.65-9.54,5.29-14.31,7.93c-0.12,0.06-0.26,0.08-0.47,0.15c-0.08-0.79,0.44-1.31,0.73-1.88c0.75-1.48,1.58-2.91,2.38-4.37
		c0.25-0.47,0.6-0.84,1.04-1.14c6.43-4.45,12.85-8.91,19.27-13.37c7.37-5.13,14.73-10.26,22.09-15.39
		c7.41-5.16,14.82-10.33,22.23-15.49c0.27-0.19,0.56-0.32,0.85-0.48C177.53,16.33,177.59,16.38,177.65,16.44z"/>
	<path class="st0" d="M162.56,56.93c0,1.15-0.62,2.11-0.96,3.14c-0.61,1.81-1.33,3.57-1.96,5.37c-0.17,0.48-0.51,0.64-0.89,0.79
		c-8.28,3.24-16.56,6.46-24.84,9.7c-7.66,3-15.31,6.03-22.97,9.05c-3.64,1.43-7.27,2.88-10.92,4.25c-0.66,0.25-0.78,0.57-0.65,1.16
		c0.47,2.13,0.92,4.27,1.4,6.4c0.64,2.84,1.31,5.68,1.96,8.52c0.65,2.8,1.3,5.61,1.94,8.41c0.63,2.78,1.11,5.59,1.89,8.32
		c0.45,1.59-0.04,2.49-1.26,3.35c-0.87,0.62-1.62,1.41-2.41,2.13c-0.2,0.18-0.38,0.52-0.67,0.35c-0.16-0.09-0.21-0.42-0.24-0.66
		c-0.3-2.1-0.58-4.2-0.86-6.31c-0.52-3.86-1.02-7.72-1.54-11.58c-0.59-4.3-1.26-8.6-1.76-12.91c-0.21-1.87-0.55-3.71-0.81-5.56
		c-0.08-0.6-0.03-1.14,0.29-1.69c1.09-1.92,2.17-3.86,3.18-5.83c0.5-0.98,1.5-1.1,2.31-1.45c7.26-3.09,14.55-6.09,21.83-9.14
		c7.33-3.07,14.64-6.18,21.98-9.23c5.24-2.18,10.51-4.31,15.7-6.61C162.33,56.89,162.41,56.92,162.56,56.93z"/>
	<path class="st0" d="M28.66,56.9c1.97,0.82,3.95,1.64,5.92,2.46c3.16,1.32,6.32,2.66,9.49,3.98c5.82,2.44,11.64,4.87,17.46,7.3
		c7.26,3.03,14.52,6.05,21.78,9.08c2.04,0.85,4.07,1.74,6.13,2.57c0.73,0.3,1.17,0.81,1.52,1.47c0.96,1.79,1.94,3.57,2.91,5.36
		c0.25,0.46,0.37,0.89,0.28,1.46c-0.53,3.68-0.99,7.37-1.48,11.06c-0.42,3.1-0.85,6.2-1.27,9.3c-0.47,3.41-0.93,6.82-1.4,10.23
		c-0.28,2.06-0.59,4.13-0.85,6.19c-0.09,0.72-0.32,0.64-0.75,0.25c-1.21-1.09-2.42-2.18-3.64-3.25c-0.39-0.34-0.5-0.72-0.38-1.2
		c0.47-2.06,0.94-4.13,1.41-6.19c0.51-2.27,1.01-4.54,1.53-6.8c0.48-2.1,0.97-4.19,1.45-6.29c0.64-2.8,1.26-5.61,1.89-8.42
		c0.36-1.59,0.73-3.18,1.12-4.76c0.19-0.75,0.21-1.2-0.73-1.56c-6.05-2.29-12.07-4.68-18.09-7.05c-6.18-2.43-12.35-4.87-18.53-7.29
		c-5.2-2.04-10.41-4.06-15.62-6.08c-2.18-0.85-4.36-1.7-6.53-2.56c-0.29-0.12-0.53-0.29-0.65-0.62c-1.04-2.83-2.09-5.65-3.14-8.47
		C28.54,57.03,28.6,56.97,28.66,56.9z"/>
	<path class="st0" d="M169.25,38.96c-0.13,1.04-0.63,1.97-0.96,2.93c-1.16,3.31-2.43,6.58-3.62,9.87c-0.16,0.44-0.41,0.69-0.82,0.86
		c-6.08,2.62-12.16,5.24-18.23,7.89c-4.05,1.77-8.08,3.59-12.12,5.36c-6.37,2.79-12.75,5.56-19.12,8.34
		c-3.74,1.63-7.48,3.28-11.22,4.91c-0.08,0.04-0.19,0.02-0.4,0.04c1.22-2.24,2.42-4.4,3.57-6.57c0.36-0.69,1.04-0.9,1.62-1.22
		c3.93-2.12,7.88-4.18,11.82-6.28c9.09-4.83,18.18-9.67,27.27-14.51c7.13-3.8,14.26-7.62,21.4-11.42
		C168.65,39.04,168.88,38.85,169.25,38.96z"/>
	<path class="st0" d="M21.77,38.68c2.19,1.16,4.17,2.21,6.15,3.27c6.85,3.65,13.71,7.29,20.56,10.95c2.53,1.36,5,2.85,7.57,4.12
		c6.19,3.08,12.21,6.48,18.34,9.67c3.22,1.68,6.42,3.39,9.63,5.1c0.26,0.14,0.56,0.34,0.7,0.59c1.14,2.05,2.26,4.12,3.37,6.19
		c0.06,0.11,0.07,0.26,0.13,0.51c-1.45-0.37-2.67-1.06-3.95-1.61c-6.31-2.73-12.61-5.5-18.92-8.25c-7.17-3.13-14.34-6.27-21.51-9.4
		c-1.37-0.6-2.73-1.19-4.1-1.79c-4.05-1.75-8.09-3.49-12.13-5.25c-0.5-0.22-0.92-0.46-1.12-1.11c-0.5-1.68-1.12-3.34-1.73-4.97
		c-0.86-2.26-1.66-4.55-2.58-6.79C22.03,39.59,21.94,39.23,21.77,38.68z"/>
	<path class="st0" d="M92.26,129.35c0.4-4.16,0.83-8.38,1.22-12.6c0.38-4.08,0.71-8.17,1.07-12.26c0.21-2.46,0.44-4.91,0.66-7.37
		c0.03-0.28-0.1-0.7,0.38-0.71c0.47,0,0.4,0.4,0.42,0.7c0.32,5.76,1.02,11.49,1.5,17.24c0.42,5.02,0.91,10.03,1.42,15.04
		c0.11,1.12-0.02,2-1.05,2.67c-0.68,0.44-1.26,1.07-1.83,1.66c-0.32,0.33-0.54,0.32-0.87,0.03c-0.86-0.8-1.75-1.56-2.62-2.35
		C91.93,130.81,92.35,130.07,92.26,129.35z"/>
	<path class="st0" d="M95.61,75.36c1.15-2.47,2.27-4.8,3.32-7.16c0.33-0.74,0.57-0.76,1.04-0.17c0.68,0.85,1.36,1.71,2.1,2.51
		c0.46,0.49,0.47,0.94,0.21,1.5c-1.87,4.04-3.72,8.09-5.61,12.13c-0.33,0.7-0.48,1.51-1.16,2.16c-1.07-2.28-2.13-4.48-3.15-6.7
		c-1.19-2.6-2.33-5.23-3.55-7.82c-0.22-0.47-0.22-0.7,0.11-1.07c0.78-0.88,1.54-1.78,2.25-2.71c0.49-0.64,0.78-0.49,1.05,0.13
		c1.01,2.27,2.02,4.54,3.04,6.81C95.31,75.08,95.4,75.14,95.61,75.36z"/>
	<path class="st0" d="M95.5,69.28c-1.1-2-2.12-3.88-3.15-5.75c-0.2-0.37-0.1-0.65,0.18-0.93c0.82-0.8,1.63-1.6,2.42-2.43
		c0.48-0.51,0.91-0.41,1.33,0.02c0.8,0.82,1.58,1.66,2.37,2.48c0.23,0.24,0.4,0.45,0.19,0.81C97.72,65.35,96.86,67.36,95.5,69.28z"
		/>
</g>
</svg>
