<svg xmlns="http://www.w3.org/2000/svg" width="16.488" height="15.833" viewBox="0 0 16.488 15.833"><path d="M15.126,7.76a1.109,1.109,0,0,0-.615-1.891l-3.744-.544a.489.489,0,0,1-.368-.268L8.725,1.665a1.109,1.109,0,0,0-1.989,0L5.063,5.057a.489.489,0,0,1-.369.268L.95,5.869A1.109,1.109,0,0,0,.336,7.76L3.044,10.4a.49.49,0,0,1,.141.433l-.639,3.728a1.109,1.109,0,0,0,1.609,1.169L7.5,13.971a.49.49,0,0,1,.456,0l3.348,1.76a1.109,1.109,0,0,0,1.609-1.169l-.64-3.728a.49.49,0,0,1,.141-.433Zm-3.46,3.179.639,3.728a.49.49,0,0,1-.71.516L8.247,13.423a1.109,1.109,0,0,0-1.032,0l-3.348,1.76a.49.49,0,0,1-.711-.516L3.8,10.939a1.109,1.109,0,0,0-.319-.981L.768,7.317a.49.49,0,0,1,.271-.835l3.743-.544a1.107,1.107,0,0,0,.835-.607L7.291,1.939a.49.49,0,0,1,.878,0L9.844,5.331a1.107,1.107,0,0,0,.835.607l3.744.544a.49.49,0,0,1,.271.835l-2.709,2.64A1.108,1.108,0,0,0,11.666,10.939Z" transform="translate(0.513 -0.547)" fill="#1ba4e8" stroke="#1ba4e8" stroke-width="1"/></svg>