<svg id="Calque_1" data-name="Calque 1" xmlns="http://www.w3.org/2000/svg" viewBox="0 0 30 30"><title>blockstack-stx-logo</title><path d="M.4,2.7C0,3.6,0,4.7,0,6.8V23.2c0,2.2,0,3.3.4,4.1a4.31,4.31,0,0,0,2.3,2.3c.9.4,2,.4,4.1.4H23.2c2.2,0,3.3,0,4.1-.4a4.31,4.31,0,0,0,2.3-2.3c.4-.9.4-1.9.4-4.1V6.8c0-2.2,0-3.3-.4-4.1A4.31,4.31,0,0,0,27.3.4c-.9-.4-2-.4-4.1-.4H6.8C4.7,0,3.6,0,2.7.4A4.32,4.32,0,0,0,.4,2.7ZM19.8,12.9a2.7,2.7,0,1,1,2.7-2.7A2.69,2.69,0,0,1,19.8,12.9Zm-6.9-2.7a2.7,2.7,0,1,1-2.7-2.7A2.69,2.69,0,0,1,12.9,10.2Zm6.9,6.9a2.7,2.7,0,1,0,2.7,2.7A2.69,2.69,0,0,0,19.8,17.1Zm-9.6,0a2.7,2.7,0,1,1-2.7,2.7A2.69,2.69,0,0,1,10.2,17.1Z" style="fill:#211f6d"/></svg>