<svg xmlns="http://www.w3.org/2000/svg" width="20.079" height="20.004" viewBox="0 0 20.079 20.004">
  <path id="sun" d="M9.878.186a.833.833,0,0,0-.729.833V2.686a.833.833,0,1,0,1.667,0V1.019A.833.833,0,0,0,9.878.186ZM3.317,2.842A.833.833,0,0,0,2.9,4.274L4.072,5.446A.833.833,0,1,0,5.243,4.274L4.072,3.1a.833.833,0,0,0-.6-.26q-.039,0-.078,0t-.078,0Zm13.071,0a.833.833,0,0,0-.495.26L14.721,4.274a.833.833,0,1,0,1.172,1.172l1.172-1.172a.833.833,0,0,0-.6-1.432q-.039,0-.078,0ZM9.982,4.352a5.833,5.833,0,1,0,5.833,5.833A5.855,5.855,0,0,0,9.982,4.352Zm0,1.666a4.166,4.166,0,1,1-4.166,4.166A4.173,4.173,0,0,1,9.982,6.019ZM.661,9.352a.837.837,0,1,0,.156,1.666H2.483a.833.833,0,1,0,0-1.667H.817q-.039,0-.078,0t-.078,0Zm16.664,0a.837.837,0,0,0,.156,1.666h1.666a.833.833,0,1,0,0-1.667H17.481q-.039,0-.078,0t-.078,0ZM4.54,14.689a.833.833,0,0,0-.469.26L2.9,16.1a.838.838,0,1,0,1.172,1.2l1.172-1.172a.833.833,0,0,0-.7-1.432Zm10.6,0a.833.833,0,0,0-.417,1.432l1.172,1.172a.838.838,0,1,0,1.172-1.2L15.893,14.95a.833.833,0,0,0-.677-.26q-.039,0-.078,0Zm-5.26,2.161a.833.833,0,0,0-.729.833V19.35a.833.833,0,1,0,1.667,0V17.684a.833.833,0,0,0-.937-.833Z" transform="translate(0.098 -0.18)" fill="#fff"/>
</svg>
