<?xml version="1.0" encoding="utf-8"?>
<!-- Generator: Adobe Illustrator 23.0.1, SVG Export Plug-In . SVG Version: 6.00 Build 0)  -->
<svg version="1.1" id="katman_1" xmlns="http://www.w3.org/2000/svg" xmlns:xlink="http://www.w3.org/1999/xlink" x="0px" y="0px"
	 viewBox="0 0 26.85 26" style="enable-background:new 0 0 26.85 26;" xml:space="preserve">
<style type="text/css">
	.st0{fill-rule:evenodd;clip-rule:evenodd;fill:#5681FC;}
</style>
<title>分组 27 copy 3@2x</title>
<desc>Created with Sketch.</desc>
<path id="合并形状" class="st0" d="M13.42,2.21c5.86,0,10.61,4.83,10.61,10.79s-4.75,10.79-10.61,10.79S2.81,18.96,2.81,13
	S7.56,2.21,13.42,2.21z M13.42,0.72v0.72C7.15,1.44,2.06,6.62,2.06,13c0,6.38,5.09,11.56,11.36,11.56S24.79,19.38,24.79,13
	c0-6.38-5.09-11.56-11.36-11.56V0.72z M13.42,0.72V0c7.06,0,12.79,5.82,12.79,13s-5.72,13-12.79,13S0.64,20.18,0.64,13
	S6.36,0,13.42,0V0.72z M16.33,10.92V8.84h2.81V6.76H7.51v2.08h2.68v2.08l-1.06,0c-1.68,0.02-3.04,1.41-3.04,3.12
	c0,1.72,1.38,3.12,3.07,3.12h1.02v2.08h2.05v-2.08h2.05v2.08h2.05v-2.08h2.04c0.57,0,1.04-0.47,1.04-1.04
	c0-0.57-0.47-1.04-1.04-1.04h-2.04V13h2.03c0.57,0,1.04-0.47,1.04-1.04s-0.47-1.04-1.04-1.04L16.33,10.92z M14.29,15.08h-2.05V13
	h2.05V15.08z M14.29,10.92l-2.05,0V8.84h2.05V10.92z M10.19,15.08H9.19c-0.57,0-1.04-0.47-1.04-1.04S8.61,13,9.19,13h1.01V15.08z"/>
<g id="分组-25" transform="translate(5.404569, 6.760000)">
</g>
</svg>
