<?xml version="1.0" encoding="utf-8"?>
<!-- Generator: Adobe Illustrator 23.0.1, SVG Export Plug-In . SVG Version: 6.00 Build 0)  -->
<svg version="1.1" id="katman_1" xmlns="http://www.w3.org/2000/svg" xmlns:xlink="http://www.w3.org/1999/xlink" x="0px" y="0px"
	 viewBox="0 0 105.42 104" style="enable-background:new 0 0 105.42 104;" xml:space="preserve">
<style type="text/css">
	.st0{fill:url(#SVGID_1_);}
	.st1{fill:#FFFFFF;}
</style>
<g>
	<linearGradient id="SVGID_1_" gradientUnits="userSpaceOnUse" x1="17.3058" y1="24.9471" x2="88.1141" y2="79.0496">
		<stop  offset="0" style="stop-color:#FF4F0F"/>
		<stop  offset="0.1741" style="stop-color:#FF5910"/>
		<stop  offset="0.4656" style="stop-color:#FF7211"/>
		<stop  offset="0.8364" style="stop-color:#FF9C14"/>
		<stop  offset="1" style="stop-color:#FFB115"/>
	</linearGradient>
	<rect x="20.92" y="20.21" class="st0" width="63.57" height="63.57"/>
	<g>
		<path class="st1" d="M64.61,32.49c0,0-0.57,2.83-1.72,4.01c-0.62,0.64-1.13,1.4-1.26,2.28c-0.19,1.3,0.14,2.92,2.66,4.2
			c0.89-0.64,1.26-1.59,1.75-2.3c0.82-1.19,1.14-2.66,0.95-4.09C66.79,35.14,66.18,33.58,64.61,32.49z"/>
		<path class="st1" d="M64.97,45.68c0,2.61-1.79,4.9-4.49,4.81c-0.69,0-2.12-0.32-3.2-1.63c-0.98-1.19-1.2-2.83-0.77-4.31
			c0.08-0.28,0.17-0.55,0.26-0.79c0.47-1.3,0.75-2.66,0.78-4.05c0.07-3.45-0.83-6.86-2.72-9.75c-1.4-2.15-3.2-4.12-5.07-4.16
			l0.01,0.37c0.14,3.86-1.12,7.64-3.54,10.64c-1.69,2.09-3.7,4.62-5.54,7.01c-3.71,4.83-5.65,10.79-5.39,16.88c0,0.03,0,0.06,0,0.09
			c0.11,2.59,0.89,5.12,2.35,7.26c2.26,3.3,7.54,8.1,15.72,10.14c1.47-1.9,6.17-6.04,10.65-8.53c2.79-1.55,4.9-4.16,5.79-7.23
			c0.18-0.61,0.28-1.15,0.27-1.55C70.13,59.01,70.75,51.31,64.97,45.68z M62.56,59.59h-7.24v6.87h-6.55v-6.94h-7.05v-6.94h20.84
			V59.59z"/>
	</g>
</g>
</svg>
