<?xml version="1.0" encoding="utf-8"?>
<!-- Generator: Adobe Illustrator 23.0.1, SVG Export Plug-In . SVG Version: 6.00 Build 0)  -->
<svg version="1.1" id="katman_1" xmlns="http://www.w3.org/2000/svg" xmlns:xlink="http://www.w3.org/1999/xlink" x="0px" y="0px"
	 viewBox="0 0 235 99" style="enable-background:new 0 0 235 99;" xml:space="preserve">
<style type="text/css">
	.st0{fill:#8BE0FE;}
	.st1{fill:#87DFFE;}
	.st2{fill:#FDFEFE;}
</style>
<g>
	<path class="st0" d="M93.6,51.42c5.01,4.72,9.48,8.85,13.82,13.1c1.16,1.14,3.6,2.33,1.71,4.4c-1.83,2.01-3.61,0.51-5.09-0.97
		c-5.31-5.28-10.62-10.56-15.93-15.84c-1.21-1.2-2.42-2.42-1.73-4.33c0.81-2.23,2.78-2.03,4.61-2.04c3.49-0.02,6.99-0.06,10.48,0
		c2.48,0.04,3.66-0.99,3.66-3.55c-0.03-13.8,1.18-11.19-10.33-11.37c-6.49-0.1-12.99,0.15-19.47-0.08
		c-3.83-0.14-5.34,1.06-5.25,5.09c0.24,9.81,0.11,19.64,0.05,29.45c-0.01,1.68,0.72,4.11-2,4.34c-2.91,0.24-2.91-2.12-2.91-4.16
		c-0.01-10.48-0.08-20.97,0.02-31.45c0.05-5.21,2.84-8.03,8.06-8.09c9.48-0.12,18.97-0.11,28.46-0.01c5.48,0.06,8.11,2.87,8.29,8.4
		C110.54,48.75,110.54,48.75,93.6,51.42z"/>
	<path class="st1" d="M141.97,26.65c3.99,0,7.99-0.03,11.98,0c6.72,0.05,9.66,2.44,9.92,9.08c0.33,8.31,0.3,16.64,0.01,24.95
		c-0.21,6.02-3.69,9.06-9.56,9.09c-8.32,0.05-16.64,0.07-24.96-0.01c-6.25-0.06-9.14-2.94-9.2-9.18c-0.08-8.32-0.09-16.64,0-24.96
		c0.07-5.99,2.97-8.88,8.82-8.97C133.32,26.6,137.65,26.65,141.97,26.65z M141.69,64.89c3.99,0,7.99-0.09,11.98,0.02
		c3.79,0.11,5.48-1.59,5.44-5.38c-0.08-7.49-0.14-14.98,0.02-22.46c0.09-3.97-1.7-6.05-5.5-6.12c-7.98-0.14-15.97-0.15-23.95,0.01
		c-3.07,0.06-4.72,1.77-4.66,5.18c0.15,7.98,0.13,15.97,0.01,23.96c-0.05,3.37,1.22,4.92,4.68,4.81
		C133.7,64.79,137.69,64.89,141.69,64.89z"/>
	<path class="st1" d="M218.16,36.81c0,1.17,0,2.33,0,3.5c-0.03,6.89-2.66,9.76-9.35,10.26c-9.65,0.72-9.65,0.72-9.65,10.27
		c0,1.83,0.02,3.66-0.01,5.5c-0.03,1.5,0.11,3.22-2.01,3.38c-2.21,0.17-2.86-1.34-2.89-3.2c-0.05-4-0.18-8,0.02-11.99
		c0.16-3.09-1.04-4.19-4.05-3.98c-2.48,0.17-5.01,0.17-7.49-0.06c-3.95-0.36-7.5-2.14-8.08-6.22c-0.7-4.9-0.37-9.95-0.34-14.93
		c0.01-1.46,0.98-2.56,2.6-2.37c1.59,0.19,2.15,1.45,2.17,2.89c0.05,3.5,0.14,7,0.01,10.49c-0.15,3.87,1.66,5.39,5.42,5.34
		c7.83-0.1,15.66-0.1,23.48,0c3.75,0.05,5.54-1.37,5.29-5.33c-0.22-3.48-0.08-6.99,0-10.49c0.04-1.64,0.72-3.04,2.64-2.91
		c1.61,0.11,2.17,1.4,2.2,2.85c0.05,2.33,0.01,4.66,0.01,7C218.14,36.81,218.15,36.81,218.16,36.81z"/>
	<path class="st0" d="M32.92,25.89c6.33,0,12.66-0.01,18.99,0c1.89,0,4,0.04,4.15,2.51c0.17,2.84-2.2,2.37-3.95,2.4
		c-4.33,0.06-8.67,0.18-12.99-0.03c-3.05-0.15-4.06,0.9-4.01,3.98c0.16,10.16,0.09,20.32,0.03,30.48c-0.01,1.82,0.76,4.56-2.41,4.42
		c-2.81-0.13-2.48-2.65-2.49-4.62c-0.02-10-0.12-19.99,0.05-29.99c0.06-3.26-0.94-4.47-4.25-4.28c-4.15,0.24-8.33,0.07-12.49,0.04
		c-1.82-0.01-4.12,0.2-4.16-2.36c-0.04-2.5,2.16-2.54,4.04-2.55C19.92,25.89,26.42,25.89,32.92,25.89z"/>
	<path class="st2" d="M141.69,64.89c-3.99,0-7.99-0.1-11.98,0.03c-3.45,0.11-4.73-1.44-4.68-4.81c0.12-7.98,0.14-15.97-0.01-23.96
		c-0.06-3.41,1.59-5.11,4.66-5.18c7.98-0.16,15.97-0.15,23.95-0.01c3.79,0.06,5.58,2.14,5.5,6.12c-0.16,7.48-0.1,14.97-0.02,22.46
		c0.04,3.78-1.65,5.48-5.44,5.38C149.67,64.81,145.68,64.89,141.69,64.89z"/>
</g>
</svg>
