<svg xmlns="http://www.w3.org/2000/svg" width="18" height="18.001" viewBox="0 0 18 18.001"><path d="M18.227,4a1.467,1.467,0,0,0-.352.047L5.688,7.258A2.27,2.27,0,0,0,4,9.438V19.75A2.262,2.262,0,0,0,6.25,22h13.5A2.262,2.262,0,0,0,22,19.75V10a2.262,2.262,0,0,0-2.25-2.25H9.719L18.25,5.5V7h1.5V5.5A1.518,1.518,0,0,0,18.227,4ZM6.25,9.25h13.5a.738.738,0,0,1,.75.75v9.75a.738.738,0,0,1-.75.75H6.25a.738.738,0,0,1-.75-.75V10A.738.738,0,0,1,6.25,9.25Zm11.625,4.5A1.125,1.125,0,1,0,19,14.875,1.125,1.125,0,0,0,17.875,13.75Z" transform="translate(-4 -4)" fill="#b5b9bc"/></svg>