<?xml version="1.0" encoding="utf-8"?>
<!-- Generator: Adobe Illustrator 23.0.1, SVG Export Plug-In . SVG Version: 6.00 Build 0)  -->
<svg version="1.1" id="katman_1" xmlns="http://www.w3.org/2000/svg" xmlns:xlink="http://www.w3.org/1999/xlink" x="0px" y="0px"
	 viewBox="0 0 167.25 144.39" style="enable-background:new 0 0 167.25 144.39;" xml:space="preserve">
<style type="text/css">
	.st0{fill:#001B56;}
	.st1{fill:#D1A913;}
	.st2{fill:#D1A914;}
	.st3{fill:#D1AA16;}
	.st4{fill:#FFFFFF;}
	.st5{fill:none;stroke:#FFFFFF;stroke-width:10;stroke-miterlimit:10;}
</style>
<rect x="21.33" y="22.92" class="st0" width="126.09" height="99.11"/>
<g>
	<path class="st1" d="M55.72,73.67c-1,3.06-2.01,6.12-2.98,9.2c-0.64,2.01-1.65,2.88-3.47,2.86c-1.69-0.02-2.86-1.04-3.36-2.83
		c-1.78-6.27-3.58-12.53-5.36-18.8c-0.5-1.75,0.01-3.22,1.33-4.06c1.97-1.26,4.37-0.33,5.13,2.07c0.84,2.68,1.58,5.4,2.41,8.27
		c0.73-1.03,0.88-2.11,1.22-3.1c0.58-1.7,1.11-3.42,1.68-5.12c0.59-1.74,1.76-2.67,3.34-2.71c1.66-0.04,2.87,0.84,3.53,2.67
		c0.92,2.55,1.79,5.11,2.98,7.67c0.54-2.19,1.08-4.37,1.62-6.56c0.11-0.45,0.19-0.91,0.34-1.34c0.58-1.68,2.24-2.68,3.86-2.33
		c1.76,0.38,2.98,1.92,2.66,3.75c-0.44,2.47-1.08,4.91-1.67,7.35c-0.97,4.04-1.97,8.08-2.96,12.12c-0.47,1.94-1.5,2.89-3.21,2.95
		c-1.8,0.06-2.99-0.86-3.61-2.73c-1.03-3.11-2.1-6.22-3.15-9.32C55.94,73.67,55.83,73.67,55.72,73.67z"/>
	<path class="st2" d="M86.33,75.85c0.15-2.07-0.24-4.6,0.26-7.1c1.2-6.01,5.4-9.67,10.94-9.47c5.98,0.21,10.29,4.11,11,10.22
		c0.5,4.35,0.22,8.73,0.14,13.09c-0.04,1.95-1.62,3.3-3.42,3.25c-1.85-0.05-3.27-1.46-3.31-3.56c-0.08-3.34-0.02-6.68-0.03-10.02
		c0-0.98-0.02-1.95-0.33-2.9c-0.75-2.35-2.03-3.29-4.43-3.23c-2.07,0.05-3.11,1-3.76,3.38c-0.22,0.81-0.29,1.61-0.29,2.44
		c0,3.39,0.02,6.79-0.01,10.18c-0.02,2.2-1.51,3.77-3.47,3.72c-1.95-0.05-3.28-1.53-3.3-3.7C86.32,80.2,86.33,78.24,86.33,75.85z"/>
	<path class="st3" d="M75.06,72.71c0-3.13-0.03-6.26,0.01-9.39c0.02-2.07,1.02-3.39,2.72-3.78c2.19-0.5,4.07,1.2,4.09,3.79
		c0.04,4.62,0.01,9.24,0.01,13.86c0,1.64,0.04,3.29-0.01,4.93c-0.06,2.17-1.43,3.59-3.4,3.58c-1.98,0-3.34-1.39-3.38-3.59
		c-0.05-3.13-0.01-6.26-0.01-9.39C75.08,72.71,75.07,72.71,75.06,72.71z"/>
	<circle class="st4" cx="78.48" cy="48.97" r="4.27"/>
	<path class="st4" d="M108.73,44.46l-5,2.76c-0.22,0.12-0.41,0.29-0.55,0.51c-0.34,0.51-0.78,1.5,0.01,2.46
		c0.14,0.16,0.31,0.3,0.49,0.4c1.72,0.99,4.23,2.45,4.87,2.81c0.11,0.06,0.23,0.11,0.35,0.14c0.33,0.07,0.99,0.16,1.45-0.14
		c0.15-0.09,0.24-0.25,0.29-0.42c0.1-0.41,0.05-0.77-0.29-1.27c-0.13-0.19-0.31-0.34-0.52-0.45c-1.31-0.7-4.02-2.27-4.02-2.27
		l4.43-2.58c0.18-0.1,0.31-0.26,0.38-0.46c0.06-0.16,0.09-0.37,0.05-0.62c-0.05-0.25-0.2-0.47-0.4-0.63
		c-0.25-0.2-0.68-0.43-1.22-0.37C108.94,44.36,108.83,44.41,108.73,44.46z"/>
	<path class="st4" d="M122.44,58.43c-0.62,0.19-1.15,0.61-1.53,1.14l-7.16,10.08c0,0-1.57,2.42,0,4.03
		c1.14,1.77,5.64,8.07,6.81,9.71c0.23,0.32,0.52,0.57,0.87,0.74c0.77,0.38,2.2,0.8,3.74-0.14c1.02-0.89,2.08-2.55,0.89-4.54
		c-1.32-1.99-5.35-7.69-5.35-7.69l5.81-8.56c0.2-0.29,0.32-0.62,0.35-0.97c0.08-0.79,0.04-2.22-0.98-3.27
		C125.24,58.42,123.87,57.99,122.44,58.43z"/>
	<g>
		<path class="st5" d="M70.7,93.77c0,0,24.51,15.7,45.91-2.5"/>
		<circle class="st4" cx="116.72" cy="91.15" r="1.54"/>
		<circle class="st4" cx="70.58" cy="93.71" r="1.54"/>
	</g>
</g>
</svg>
