<svg xmlns="http://www.w3.org/2000/svg" xmlns:xlink="http://www.w3.org/1999/xlink" width="700" height="349" viewBox="0 0 700 349">
  <defs>
    <linearGradient id="linear-gradient" x1="0.859" y1="0.085" x2="0.469" y2="0.903" gradientUnits="objectBoundingBox">
      <stop offset="0" stop-color="#1264c6"/>
      <stop offset="0.172" stop-color="#0f5ab3"/>
      <stop offset="0.394" stop-color="#0076ff"/>
      <stop offset="0.808" stop-color="#03356b"/>
      <stop offset="1" stop-color="#002a55"/>
    </linearGradient>
    <linearGradient id="linear-gradient-2" x1="0.304" y1="0.768" x2="0.832" y2="0.489" gradientUnits="objectBoundingBox">
      <stop offset="0" stop-color="#1264c6"/>
      <stop offset="1" stop-color="#002a55"/>
    </linearGradient>
    <filter id="Bitcoin_Ethereum_Ripple_ve_Litecoin_için_günlük_kripto_para_bültenini_buradan_takip_edebilirsiniz._" x="32.5" y="219.5" width="407" height="113" filterUnits="userSpaceOnUse">
      <feOffset dy="3" input="SourceAlpha"/>
      <feGaussianBlur stdDeviation="7.5" result="blur"/>
      <feFlood/>
      <feComposite operator="in" in2="blur"/>
      <feComposite in="SourceGraphic"/>
    </filter>
    <linearGradient id="linear-gradient-3" x1="0.549" y1="0.188" x2="0.86" y2="1" gradientUnits="objectBoundingBox">
      <stop offset="0" stop-color="#e5e9ff" stop-opacity="0"/>
      <stop offset="0.438" stop-color="#1d75c7"/>
      <stop offset="1" stop-color="#0081de"/>
    </linearGradient>
    <clipPath id="clip-Artboard_14">
      <rect width="700" height="349"/>
    </clipPath>
  </defs>
  <g id="Artboard_14" data-name="Artboard – 14" clip-path="url(#clip-Artboard_14)">
    <rect width="700" height="349" fill="#fff"/>
    <path id="Path_1540" data-name="Path 1540" d="M259.876-259.9,262.865-614.4H962.89V-265Z" transform="translate(-263 614)" fill="url(#linear-gradient)"/>
    <path id="Path_1372" data-name="Path 1372" d="M580.516,513.664c1.839-.109,3.678-.311,5.517-.312q42.286-.029,84.571-.01h3.773c-.463,1.034-.712,1.757-1.087,2.407q-28.526,49.434-57.034,98.881c-1.048,1.822-2.131,2.7-4.324,2.552-3.163-.211-6.351-.054-10.276-.054l53.253-92.3H580.516Z" transform="translate(-666.552 -445.62)" fill="#fff" opacity="0.086"/>
    <path id="Path_1373" data-name="Path 1373" d="M1802.841,344.643h-74.333l53.185,92.2c-4.45,0-8.241.206-11.982-.134-1.027-.093-2.154-1.673-2.817-2.813q-14.546-25.007-28.967-50.087-13.459-23.313-26.914-46.628c-.664-1.152-1.271-2.337-2.268-4.176h4.578q43.059,0,86.117-.009c1.134,0,2.268-.086,3.4-.132Z" transform="translate(-1095.299 -377.036)" fill="#fff" opacity="0.08"/>
    <path id="Path_1374" data-name="Path 1374" d="M774.113,321.863c-5.756,10.118-11.472,20.259-17.276,30.348q-18.588,32.308-37.25,64.574c-.3.527-.645,1.033-1.262,2.016-1.838-3.192-3.5-6.094-5.18-8.993q-25-43.273-50-86.546a14.584,14.584,0,0,1-.63-1.4h13.02c14.2,24.635,28.4,49.271,42.809,74.275,4.026-6.957,7.7-13.276,11.346-19.614q15.712-27.324,31.4-54.661Z" transform="translate(-697.714 -372.855)" fill="#fff" opacity="0.086"/>
    <path id="Path_1377" data-name="Path 1377" d="M1803.022,704.934h-74.452l53.248,92.272c-4.479,0-8.429.126-12.358-.109-.771-.047-1.627-1.4-2.157-2.314q-21.527-37.222-42.986-74.485-6.8-11.794-13.614-23.581c-.493-.856-.906-1.758-1.48-2.882,1.044-.09,1.735-.2,2.426-.2q44.921-.008,89.842.009c.511,0,1.022.086,1.532.132Z" transform="translate(-1095.48 -514.134)" fill="#fff" opacity="0.177"/>
    <path id="Path_1378" data-name="Path 1378" d="M1823.522,809.18c-3.2-.021-6.415.12-9.595-.146a4.812,4.812,0,0,1-3.366-1.813q-23.35-40.123-46.488-80.368c-.293-.509-.492-1.073-.9-1.99h60.353v11.16h-40.953c5.8,10.067,11.067,19.272,16.388,28.447q12.256,21.132,24.565,42.231Z" transform="translate(-1115.981 -526.002)" fill="#fff" opacity="0.177"/>
    <path id="Path_1381" data-name="Path 1381" d="M1823.565,449.071c-3.093-.055-6.191-.236-9.277-.117a3.783,3.783,0,0,1-3.905-2.221q-15.757-27.509-31.648-54.941-6.958-12.056-13.937-24.1c-.5-.864-.927-1.77-1.518-2.907,1.028-.089,1.711-.2,2.393-.2q28.028-.018,56.054-.007c.613,0,1.225.114,1.838.175v11.16h-40.729c.561,1.112.846,1.755,1.2,2.36q13.965,24.23,27.96,48.441c3.762,6.475,7.71,12.841,11.573,19.257Z" transform="translate(-1116.023 -389.087)" fill="#fff" opacity="0.08"/>
    <path id="Path_1382" data-name="Path 1382" d="M1814.823,948.882c-5.186,8.781-10.4,17.544-15.546,26.349q-6.869,11.761-13.575,23.617c-.86,1.526-1.752,2.261-3.606,2.165-3.379-.175-6.774-.05-10.766-.05l30.692-53.282h-61.745c2.274-3.953,4.062-7.409,6.238-10.6.543-.8,2.334-1.03,3.554-1.033,20.348-.055,40.7-.029,61.045-.033,1.236,0,2.472-.1,3.708-.152Z" transform="translate(-1107.282 -606.187)" fill="#fff" opacity="0.476"/>
    <path id="Path_1384" data-name="Path 1384" d="M1814.943,588.88c-3.133,5.179-6.337,10.318-9.384,15.547q-9.89,16.972-19.609,34.043a4.2,4.2,0,0,1-4.4,2.478c-3.171-.168-6.358-.044-10.175-.044l30.918-53.634h-61.7c2.224-3.872,3.966-7.252,6.093-10.369.534-.782,2.3-1,3.506-1q32.375-.084,64.751-.037Z" transform="translate(-1107.402 -469.378)" fill="#fff" opacity="0.101"/>
    <path id="Path_1387" data-name="Path 1387" d="M1342.233,1007.322c-4.45-7.888-8.873-15.79-13.357-23.658-3.725-6.536-7.585-13-11.218-19.582a4.395,4.395,0,0,1,.025-3.529c1.544-3.11,3.411-6.061,5.438-9.565l30.883,53.4,30.859-53.415c2.227,3.857,4.325,7.322,6.192,10.906.281.539-.393,1.706-.829,2.466q-11.544,20.123-23.135,40.218c-.505.879-.869,1.838-1.3,2.76Z" transform="translate(-946.543 -611.928)" fill="#fff" opacity="0.248"/>
    <path id="Path_1389" data-name="Path 1389" d="M698.516,321.863h13.02l20.521,35.522,20.4-35.522h13.02a12.4,12.4,0,0,1-.6,1.4Q754,342.155,743.1,361.033c-3.586,6.205-7.209,12.39-11.115,19.1Z" transform="translate(-711.394 -372.855)" fill="#fff" opacity="0.086"/>
    <path id="Path_1390" data-name="Path 1390" d="M1821.741,916.642c-1.222-.112-2.445-.319-3.667-.32q-27.842-.024-55.686,0h-3.907c2.22-3.832,4.037-7.257,6.188-10.46.487-.725,2.13-.933,3.243-.937q26.914-.095,53.829-.063Z" transform="translate(-1114.2 -594.405)" fill="#fff" opacity="0.476"/>
    <path id="Path_1392" data-name="Path 1392" d="M1821.793,555.965h-63.175c2.205-3.784,4.151-7.22,6.23-10.573a2.5,2.5,0,0,1,1.867-.681q27.539.008,55.077.095Z" transform="translate(-1114.252 -457.542)" fill="#fff" opacity="0.101"/>
    <path id="Path_1395" data-name="Path 1395" d="M1844.039,802.361c-4.943-8.4-9.912-16.783-14.821-25.2-3.675-6.3-7.274-12.65-10.9-18.983-.336-.588-.611-1.211-1.162-2.312h26.882v11.78h-7.3l7.3,11.78Z" transform="translate(-1136.498 -537.783)" fill="#fff" opacity="0.177"/>
    <path id="Path_1397" data-name="Path 1397" d="M1844.292,442.362q-13.22-22.813-26.429-45.632c-.083-.144-.01-.379-.01-.867h26.439v11.16H1836.8l7.488,12.4Z" transform="translate(-1136.751 -400.977)" fill="#fff" opacity="0.08"/>
    <path id="Path_1399" data-name="Path 1399" d="M1828.627,524.643H1776.6c2.231-3.88,4.1-7.391,6.279-10.7.429-.654,2.021-.75,3.079-.755,13.314-.053,26.629-.035,39.943-.057.909,0,1.816-.172,2.725-.264Z" transform="translate(-1121.085 -445.439)" fill="#fff" opacity="0.101"/>
    <path id="Path_1401" data-name="Path 1401" d="M1828.658,885h-51.975c2.186-3.788,4.081-7.244,6.194-10.562.339-.533,1.646-.622,2.507-.624q21.638-.029,43.275.026Z" transform="translate(-1121.117 -582.605)" fill="#fff" opacity="0.476"/>
    <path id="Path_1407" data-name="Path 1407" d="M1847.487,644.8c-2.316,3.88-4.525,7.832-7.023,11.591a4.958,4.958,0,0,1-3.343,1.887c-3.376.251-6.784.089-10.89.089l21.256-36.505Z" transform="translate(-1139.946 -486.861)" fill="#fff" opacity="0.476"/>
    <path id="Path_1419" data-name="Path 1419" d="M893.864,436.923l53.2-92.163H840.537c2.378-4.081,4.306-7.641,6.54-11,.425-.638,2.057-.649,3.133-.651q35.64-.051,71.28-.027,20.764,0,41.528-.024h3.692c-.66,1.34-1.073,2.314-1.6,3.225q-28.32,49.061-56.618,98.133c-1.058,1.839-2.188,2.684-4.36,2.554C900.979,436.783,897.8,436.923,893.864,436.923Z" transform="translate(-765.365 -377.11)" fill="#fff" opacity="0.086"/>
    <path id="Path_1424" data-name="Path 1424" d="M974.951,833.3l53.25,92.243,53.275-92.252c2.146,3.7,4.191,6.889,5.822,10.275.425.881-.158,2.542-.75,3.575q-17.319,30.189-34.763,60.306-10.983,19.026-21.967,38.05c-.447.774-.948,1.516-1.664,2.657-3.229-5.547-6.282-10.756-9.3-15.983Q994.4,889.824,969.913,847.5c-1.171-2.017-1.424-3.565-.03-5.585C971.673,839.319,973.1,836.479,974.951,833.3Z" transform="translate(-814.157 -567.206)" fill="#fff" opacity="0.029"/>
    <path id="Path_1430" data-name="Path 1430" d="M1522.976,884.933H1416.5l53.316,92.4c-4.431,0-8.3.1-12.158-.089-.73-.036-1.611-1.1-2.072-1.9q-23.724-40.967-47.37-81.981-4.949-8.573-9.874-17.161c-.393-.685-.713-1.412-1.235-2.455h3.378q56.542,0,113.084-.057c2.245-.005,3.6.569,4.592,2.624C1519.5,879.077,1521.141,881.688,1522.976,884.933Z" transform="translate(-976.87 -582.561)" fill="#fff" opacity="0.476"/>
    <path id="Path_1431" data-name="Path 1431" d="M1278.877,873.776c-4.347,7.56-8.378,14.6-12.434,21.62q-22.9,39.663-45.766,79.346c-1.111,1.936-2.243,2.858-4.544,2.7-3.161-.211-6.345-.053-10.155-.053l53.295-92.382H1152.762c2.144-3.722,3.908-7.077,6-10.212.487-.728,2.1-.978,3.194-.983,15.8-.06,31.6-.041,47.4-.041h69.512Z" transform="translate(-884.016 -582.591)" fill="#fff" opacity="0.147"/>
    <path id="Path_1433" data-name="Path 1433" d="M1590.844,693.639c-4.112,7.152-7.892,13.746-11.691,20.329q-23.121,40.072-46.2,80.167c-1.347,2.35-2.773,3.456-5.557,3.184-2.858-.28-5.765-.062-9.467-.062l53.251-92.3H1464.735c2.153-3.748,3.914-7.107,6.008-10.243.493-.739,2.105-1.015,3.206-1.022,12.082-.07,24.165-.042,36.248-.044l76.525-.012Z" transform="translate(-1002.571 -514.137)" fill="#fff" opacity="0.626"/>
    <path id="Path_1434" data-name="Path 1434" d="M1077.08,441.727c2.169,3.746,4.1,6.8,5.7,10.02a4.108,4.108,0,0,1-.321,3.294q-13.2,23.1-26.562,46.1c-6.854,11.871-13.7,23.745-20.755,35.973-.614-.865-1.1-1.45-1.48-2.1Q1010.6,495.1,987.529,455.191c-.862-1.488-1.094-2.619-.048-4.192,1.871-2.815,3.437-5.832,5.424-9.272L1035,514.59Z" transform="translate(-820.942 -418.406)" fill="#fff" opacity="0.099"/>
    <path id="Path_1437" data-name="Path 1437" d="M1035.044,874.909l42.072-72.858c2.178,3.737,4.258,7.013,5.974,10.47.385.775-.278,2.311-.835,3.28q-19.271,33.54-38.639,67.025c-2.73,4.729-5.47,9.453-8.438,14.58-.646-.919-1.185-1.573-1.6-2.3Q1010.433,855.072,987.356,815a3.41,3.41,0,0,1-.23-2.78c1.709-3.275,3.653-6.427,5.833-10.173Z" transform="translate(-820.994 -555.333)" fill="#fff" opacity="0.029"/>
    <path id="Path_1440" data-name="Path 1440" d="M1134.588,916.376c2.139-3.763,3.784-6.865,5.661-9.818a3.7,3.7,0,0,1,2.6-1.568q47.245-.107,94.49-.032c.171,0,.341.149.855.388-3.012,5.272-5.987,10.523-9,15.749-12.477,21.618-25,43.208-37.4,64.87-1.385,2.421-2.88,3.6-5.764,3.32-2.856-.28-5.762-.062-9.318-.062l42.016-72.849Z" transform="translate(-877.109 -594.436)" fill="#fff" opacity="0.147"/>
    <path id="Path_1442" data-name="Path 1442" d="M1451.525,904.871h13.92q40.12,0,80.239-.046c2.019-.006,3.183.513,4.095,2.375,1.43,2.915,3.186,5.671,5.119,9.044h-84.1l42.029,72.873c-4.476,0-8.5.052-12.528-.065-.5-.014-1.1-.844-1.435-1.423q-23.531-40.72-47.008-81.471A6.821,6.821,0,0,1,1451.525,904.871Z" transform="translate(-997.551 -594.392)" fill="#fff" opacity="0.476"/>
    <path id="Path_1445" data-name="Path 1445" d="M906.822,375.95H822.727c2.267-3.915,4.243-7.434,6.367-10.861.258-.416,1.311-.472,2-.472q47.259-.006,94.519.039a3.072,3.072,0,0,1,.563.186c-.4.818-.729,1.635-1.166,2.392q-22.734,39.417-45.438,78.851c-1.239,2.161-2.6,3.074-5.092,2.889-2.955-.219-5.938-.051-9.747-.051Z" transform="translate(-758.597 -389.104)" fill="#fff" opacity="0.086"/>
    <path id="Path_1450" data-name="Path 1450" d="M1446.7,736.166c2.248-3.9,4.128-7.284,6.175-10.565a2.879,2.879,0,0,1,2.137-.752q47.243-.021,94.485.039a3.987,3.987,0,0,1,.571.133,20.411,20.411,0,0,1-.935,2.148q-22.97,39.792-45.919,79.593c-1.011,1.76-2.068,2.508-4.112,2.4-3.248-.177-6.513-.047-10.382-.047l42.066-72.946Z" transform="translate(-995.716 -525.996)" fill="#fff" opacity="0.626"/>
    <path id="Path_1452" data-name="Path 1452" d="M1147.4,1001.068l30.732-53.31h-61.8c2.366-4.058,4.368-7.592,6.511-11.038.271-.434,1.282-.57,1.951-.57,24.151-.028,48.3-.024,73.01-.024-.647,1.271-1.086,2.241-1.616,3.16q-17.223,29.878-34.532,59.706a4.756,4.756,0,0,1-3.273,1.983C1154.932,1001.235,1151.456,1001.068,1147.4,1001.068Z" transform="translate(-870.168 -606.286)" fill="#fff" opacity="0.147"/>
    <path id="Path_1453" data-name="Path 1453" d="M1586.793,947.575h-61.777l30.811,53.445c-4.457,0-8.326.064-12.189-.066-.613-.021-1.4-.8-1.763-1.422q-17.969-31.054-35.852-62.157a6.472,6.472,0,0,1-.34-1.115c1.1-.071,2.072-.188,3.047-.189,22.916-.016,45.832.006,68.747-.066a3.9,3.9,0,0,1,4.073,2.455C1583.006,941.386,1584.8,944.147,1586.793,947.575Z" transform="translate(-1018.132 -606.24)" fill="#fff" opacity="0.476"/>
    <path id="Path_1455" data-name="Path 1455" d="M1459.413,820.948l30.788-53.4h-61.693c2.334-4.052,4.245-7.5,6.329-10.846.311-.5,1.425-.7,2.168-.7q35.791-.042,71.583,0a7.807,7.807,0,0,1,1.207.259c-1.38,2.446-2.661,4.755-3.979,7.041q-15.85,27.484-31.671,54.983c-1.1,1.924-2.262,2.867-4.568,2.714C1466.426,820.791,1463.251,820.948,1459.413,820.948Z" transform="translate(-988.804 -537.83)" fill="#fff" opacity="0.626"/>
    <path id="Path_1460" data-name="Path 1460" d="M1041.956,486.774c-3.956-6.836-7.61-13.141-11.255-19.451-8.259-14.3-16.472-28.62-24.819-42.864-1.147-1.958-1.2-3.436.021-5.3,1.743-2.658,3.25-5.469,5.122-8.667l30.882,53.465c10.368-17.949,20.5-35.492,30.883-53.463,2.162,3.706,4.224,7.114,6.113,10.615a2.9,2.9,0,0,1-.433,2.233q-17.913,31.126-35.9,62.214C1042.425,485.811,1042.3,486.084,1041.956,486.774Z" transform="translate(-827.865 -406.536)" fill="#fff" opacity="0.099"/>
    <path id="Path_1461" data-name="Path 1461" d="M760.872,590.6c2.123,3.682,4.014,6.745,5.646,9.941a3.713,3.713,0,0,1-.095,3.035c-12,20.944-24.075,41.843-36.378,63.163-.7-1.081-1.268-1.878-1.755-2.721q-17.1-29.619-34.227-59.223c-1.167-2.007-1.461-3.555-.052-5.583,1.756-2.525,3.14-5.308,5.048-8.612l30.909,53.482Z" transform="translate(-709.323 -474.979)" fill="#fff" opacity="0.086"/>
    <path id="Path_1463" data-name="Path 1463" d="M1072.78,770.746c2.128,3.7,4.084,6.942,5.852,10.289a3.034,3.034,0,0,1-.188,2.484q-18.04,31.374-36.19,62.682c-.041.071-.162.1-.476.272-.475-.7-1.012-1.4-1.45-2.159q-17.342-30-34.7-60a3.733,3.733,0,0,1,.042-4.481c1.83-2.821,3.417-5.8,5.32-9.078l30.875,53.482C1052.209,806.337,1062.33,788.826,1072.78,770.746Z" transform="translate(-827.826 -543.439)" fill="#fff" opacity="0.029"/>
    <path id="Path_1464" data-name="Path 1464" d="M835.462,460.784l30.813-53.469H804.557c2.345-4.049,4.288-7.5,6.371-10.874.265-.429,1.26-.57,1.918-.57,24.175-.028,48.35-.024,73.106-.024-.619,1.14-1.054,1.985-1.528,2.808q-17.084,29.634-34.131,59.289c-1.229,2.15-2.6,3.092-5.108,2.894C842.213,460.605,839.21,460.784,835.462,460.784Z" transform="translate(-751.692 -400.972)" fill="#fff" opacity="0.086"/>
    <path id="Path_1470" data-name="Path 1470" d="M1469.4,787.552l-20.715,35.883c-.207.357-.412.714-.619,1.071-5.446,9.388-6.052,9.67-17.7,7.953l19.36-33.609h-39.343c2.314-3.993,4.248-7.456,6.347-10.816a2.862,2.862,0,0,1,2.134-.8q24.616-.047,49.232.012A7.874,7.874,0,0,1,1469.4,787.552Z" transform="translate(-981.917 -549.697)" fill="#fff" opacity="0.626"/>
    <path id="Path_1475" data-name="Path 1475" d="M1722.331,618.713c2.323-4.026,4.153-7.348,6.167-10.555a3.059,3.059,0,0,1,2.267-1.07q24.771-.071,49.542,0a4.5,4.5,0,0,1,.957.354c-2.815,4.928-5.582,9.808-8.384,14.669-5.458,9.468-10.98,18.9-16.36,28.412a3.714,3.714,0,0,1-3.854,2.259c-3.293-.148-6.6-.042-10.582-.042l19.569-34.032Z" transform="translate(-1100.462 -481.237)" fill="#fff" opacity="0.101"/>
    <path id="Path_1476" data-name="Path 1476" d="M845.483,427.321c-5.494,9.537-10.842,18.823-16.193,28.108-2.834,4.916-5.769,9.779-8.464,14.77a4.123,4.123,0,0,1-4.393,2.469c-3.164-.164-6.343-.042-10.189-.042l19.665-34.151h-39.35c2.307-3.993,4.19-7.38,6.237-10.664a2.836,2.836,0,0,1,2.111-.795q24.789-.058,49.579-.011A5.4,5.4,0,0,1,845.483,427.321Z" transform="translate(-744.852 -412.807)" fill="#fff" opacity="0.086"/>
    <path id="Path_1484" data-name="Path 1484" d="M717.074,559.4l19.69,34.021,19.715-34.032c2.136,3.7,4.093,6.935,5.861,10.274a3.042,3.042,0,0,1-.189,2.486q-12.215,21.341-24.555,42.611c-.185.32-.445.6-.933,1.244-3.785-6.533-7.39-12.743-10.983-18.96-4.643-8.033-9.228-16.1-13.952-24.084a3.71,3.71,0,0,1-.014-4.47C713.539,565.659,715.152,562.691,717.074,559.4Z" transform="translate(-716.128 -463.12)" fill="#fff" opacity="0.086"/>
    <path id="Path_1485" data-name="Path 1485" d="M1360.694,953.735l19.708-34.08c2.229,3.906,4.271,7.381,6.165,10.934.235.442-.186,1.376-.52,1.957-8.321,14.467-16.673,28.917-25.235,43.747-.656-.953-1.19-1.629-1.618-2.367-7.848-13.56-15.658-27.142-23.552-40.676a3.672,3.672,0,0,1,.037-4.457c1.849-2.81,3.418-5.8,5.324-9.1Z" transform="translate(-953.234 -600.027)" fill="#fff" opacity="0.248"/>
    <path id="Path_1486" data-name="Path 1486" d="M1652.942,739.477l19.682,34.077,19.746-34.074c2.155,3.748,4.178,7.141,6.032,10.625a2.847,2.847,0,0,1-.379,2.225q-12.4,21.6-24.887,43.143c-.084.146-.332.2-.745.425q-4.7-8.115-9.389-16.227c-5.108-8.84-10.177-17.7-15.35-26.505-.937-1.593-1.131-2.853-.086-4.483C1649.385,745.843,1650.984,742.862,1652.942,739.477Z" transform="translate(-1071.782 -531.557)" fill="#fff" opacity="0.177"/>
    <path id="Path_1488" data-name="Path 1488" d="M1048.7,435.986c-8.69-15.049-17.051-29.5-25.345-43.985a3.06,3.06,0,0,1-.191-2.5c1.759-3.355,3.708-6.61,5.841-10.337l19.743,34.108,19.715-34.111c2.2,3.825,4.252,7.293,6.16,10.839.245.456-.11,1.4-.44,1.974q-12.349,21.427-24.761,42.818C1049.276,435.048,1049.119,435.3,1048.7,435.986Z" transform="translate(-834.695 -394.631)" fill="#fff" opacity="0.099"/>
    <path id="Path_1496" data-name="Path 1496" d="M705.718,484.453c-4.3,0-7.989.053-11.675-.048a2.719,2.719,0,0,1-1.987-1.037c-4.791-8.158-9.495-16.366-14.43-24.928,1.229-.114,2-.247,2.777-.248,8.16-.013,16.322.074,24.48-.059a3.989,3.989,0,0,1,4.142,2.394c1.511,2.9,3.2,5.716,5.055,9H697.19Z" transform="translate(-703.456 -424.641)" fill="#fff" opacity="0.086"/>
    <path id="Path_1497" data-name="Path 1497" d="M776.989,484.481l8.406-14.656H768.435c2.354-4.075,4.291-7.527,6.362-10.9a2.532,2.532,0,0,1,1.882-.69c9.28-.043,18.56-.03,28.521-.03-1.009,1.76-1.789,3.119-2.569,4.477-3.753,6.525-7.544,13.029-11.232,19.591a3.76,3.76,0,0,1-3.905,2.251C784.218,484.358,780.927,484.481,776.989,484.481Z" transform="translate(-737.965 -424.669)" fill="#fff" opacity="0.086"/>
    <path id="Path_1498" data-name="Path 1498" d="M1679.461,722.917c2.98-5.1,5.66-9.683,8.561-14.646,2.134,3.69,4.117,7.033,5.983,10.439a2.332,2.332,0,0,1-.091,1.93c-4.675,8.209-9.411,16.382-14.431,25.08-1.5-2.588-2.752-4.753-4-6.92-3.3-5.7-6.557-11.43-9.921-17.094a3.474,3.474,0,0,1,.007-4.2c1.834-2.823,3.409-5.814,5.374-9.225Z" transform="translate(-1078.619 -519.697)" fill="#fff" opacity="0.476"/>
    <path id="Path_1500" data-name="Path 1500" d="M1047.2,347.964l8.5,14.62c2.9-4.926,5.61-9.544,8.569-14.577,2.171,3.734,4.179,7.06,6.017,10.477a2.82,2.82,0,0,1-.322,2.246c-4.592,8.056-9.248,16.076-14.051,24.385a17.4,17.4,0,0,1-1.338-1.721c-4.3-7.4-8.632-14.775-12.8-22.248a4.423,4.423,0,0,1-.053-3.561C1043.273,354.463,1045.151,351.508,1047.2,347.964Z" transform="translate(-841.69 -382.774)" fill="#fff" opacity="0.476"/>
    <path id="Path_1501" data-name="Path 1501" d="M743.583,565.6c-5.025-8.713-9.762-16.892-14.436-25.108a2.344,2.344,0,0,1-.083-1.944c1.875-3.4,3.869-6.739,6.008-10.414l8.494,14.615,8.531-14.584c2.17,3.719,4.207,7.115,6.11,10.586a2.461,2.461,0,0,1-.313,1.942C753.259,548.833,748.573,556.94,743.583,565.6Z" transform="translate(-722.937 -451.243)" fill="#fff" opacity="0.086"/>
    <path id="Path_1502" data-name="Path 1502" d="M1679.511,385.459c-4.973-8.656-9.656-16.753-14.246-24.9a3.019,3.019,0,0,1-.062-2.477c1.722-3.251,3.622-6.406,5.776-10.145l8.518,14.653,8.563-14.615c2.105,3.651,4.075,6.985,5.934,10.38a2.329,2.329,0,0,1-.018,1.931C1689.3,368.507,1684.564,376.692,1679.511,385.459Z" transform="translate(-1078.662 -382.764)" fill="#fff" opacity="0.08"/>
    <path id="Path_1505" data-name="Path 1505" d="M1359.243,888.5c2.938,5.045,5.566,9.557,8.479,14.558l8.53-14.538c2.158,3.732,4.171,7.145,6.086,10.612a2.062,2.062,0,0,1-.149,1.692c-4.683,8.2-9.413,16.37-14.418,25.042-1.84-3.146-3.432-5.85-5.006-8.564-3-5.165-6.068-10.288-8.893-15.544a4.8,4.8,0,0,1-.03-3.815C1355.365,894.823,1357.265,891.889,1359.243,888.5Z" transform="translate(-960.285 -588.187)" fill="#fff" opacity="0.248"/>
    <path id="Path_1507" data-name="Path 1507" d="M1741.053,638.474c-2.353,4.1-4.43,7.737-6.518,11.366-2.468,4.289-4.845,8.635-7.492,12.81a4.887,4.887,0,0,1-3.3,1.954c-3.384.259-6.8.092-10.819.092l8.364-14.772h-16.9c2.231-3.854,4.132-7.231,6.155-10.534a2.4,2.4,0,0,1,1.777-.877C1721.692,638.457,1731.068,638.474,1741.053,638.474Z" transform="translate(-1093.641 -493.173)" fill="#fff" opacity="0.476"/>
    <path id="Path_1509" data-name="Path 1509" d="M1409.462,829.959h-16.945c2.231-3.859,4.142-7.233,6.148-10.549a2.055,2.055,0,0,1,1.526-.747c9.468-.044,18.935-.032,28.961-.032l-9.418,16.4c-.1.179-.21.355-.316.532-1.807,2.995-2.967,7.483-5.581,8.615-3.458,1.5-8.053.369-12.636.369,1.408-2.519,2.722-4.891,4.058-7.251C1406.562,834.993,1407.887,832.7,1409.462,829.959Z" transform="translate(-975.126 -561.636)" fill="#fff" opacity="0.476"/>
    <path id="Path_1516" data-name="Path 1516" d="M1650.341,649.873h-16.894l8.376,14.732c-4.405,0-8.352.036-12.3-.048a2.13,2.13,0,0,1-1.359-1.061q-6.987-12.026-13.885-24.1c-.084-.146.007-.393.035-.973h8.522c6.088,0,12.177.1,18.261-.053a3.918,3.918,0,0,1,4.1,2.424C1646.7,643.692,1648.406,646.484,1650.341,649.873Z" transform="translate(-1059.389 -493.132)" fill="#fff" opacity="0.476"/>
    <path id="Path_1520" data-name="Path 1520" d="M1686.226,697.868c-4.658-7.689-4.832-5.092-.012-12.512C1690.716,690.833,1690.726,691.531,1686.226,697.868Z" transform="translate(-1085.388 -510.989)" fill="#fff" opacity="0.476"/>
    <path id="Path_1523" data-name="Path 1523" d="M1702.349,670.009c-4.125,7.66-1.975,6.814-10.525,6.318C1693.252,670.221,1694.842,669.243,1702.349,670.009Z" transform="translate(-1088.869 -505.072)" fill="#fff" opacity="0.476"/>
    <path id="Path_1525" data-name="Path 1525" d="M750.706,504.842c4.167,6.623,4.167,6.623.076,12.429C746.2,513.028,746.151,510.742,750.706,504.842Z" transform="translate(-729.939 -442.391)" fill="#fff" opacity="0.086"/>
    <path id="Path_1528" data-name="Path 1528" d="M732.313,489.835c7.2-.9,8.422-.169,10.541,6.132C736.422,497.347,735.286,496.706,732.313,489.835Z" transform="translate(-724.238 -436.568)" fill="#fff" opacity="0.086"/>
    <path id="Path_1534" data-name="Path 1534" d="M1390.354,850.054c-2.456,6.682-2.963,6.991-10.345,6.463C1380.933,850.763,1382.775,849.581,1390.354,850.054Z" transform="translate(-970.374 -573.542)" fill="#fff" opacity="0.476"/>
    <path id="Path_1535" data-name="Path 1535" d="M1356.247,850.017c7.794-.5,8.256-.226,10.527,6.185C1360.264,857.578,1358.852,856.771,1356.247,850.017Z" transform="translate(-961.344 -573.5)" fill="#fff" opacity="0.476"/>
    <path id="Path_1537" data-name="Path 1537" d="M1668.432,670.048c6.756-1.125,8.455-.123,10.395,6.132C1672.24,677.38,1670.56,676.389,1668.432,670.048Z" transform="translate(-1079.979 -505.02)" fill="#fff" opacity="0.476"/>
    <path id="Path_1538" data-name="Path 1538" d="M1374.356,878.055c-4.306-6.47-4.3-6.686.033-12.323C1378.832,870.694,1378.848,872.162,1374.356,878.055Z" transform="translate(-967 -579.535)" fill="#fff" opacity="0.476"/>
    <path id="Path_1539" data-name="Path 1539" d="M766.259,489.849c-1.969,6.3-3.755,7.36-10.347,6.161C757.792,489.776,759.489,488.765,766.259,489.849Z" transform="translate(-733.206 -436.55)" fill="#fff" opacity="0.086"/>
    <g id="Group_660" data-name="Group 660" transform="translate(595 10086)">
      <path id="Path_39" data-name="Path 39" d="M2527.148-101.645s5.542-111.294,95.879-162.72S2888.5-307.351,2888.5-307.351l6.66,206.094Z" transform="translate(-2781 -9635.117)" fill="url(#linear-gradient-2)"/>
      <g id="Group_334" data-name="Group 334" transform="translate(-2025 -8305)" opacity="0.274">
        <path id="Path_836" data-name="Path 836" d="M128,321.956c-.311,1.824-2.444,2.7-2.824,2.845a.023.023,0,0,0,0,.042c.38.142,2.513,1.016,2.824,2.839a.021.021,0,0,0,.042,0c.312-1.823,2.463-2.7,2.846-2.839a.022.022,0,0,0,0-.042c-.383-.143-2.534-1.021-2.846-2.845A.021.021,0,0,0,128,321.956Z" transform="translate(1861 -1772)" fill="#c3dcf2"/>
        <path id="Path_837" data-name="Path 837" d="M136.2,321.956c-.311,1.824-2.444,2.7-2.824,2.845a.023.023,0,0,0,0,.042c.38.142,2.513,1.016,2.824,2.839a.021.021,0,0,0,.042,0c.312-1.823,2.463-2.7,2.846-2.839a.022.022,0,0,0,0-.042c-.383-.143-2.534-1.021-2.846-2.845A.021.021,0,0,0,136.2,321.956Z" transform="translate(1861 -1772)" fill="#c3dcf2"/>
        <path id="Path_838" data-name="Path 838" d="M144.4,321.956c-.311,1.824-2.444,2.7-2.824,2.845a.022.022,0,0,0,0,.042c.38.142,2.513,1.016,2.824,2.839a.021.021,0,0,0,.042,0c.312-1.823,2.463-2.7,2.846-2.839a.022.022,0,0,0,0-.042c-.383-.143-2.534-1.021-2.846-2.845A.021.021,0,0,0,144.4,321.956Z" transform="translate(1861 -1772)" fill="#c3dcf2"/>
        <path id="Path_839" data-name="Path 839" d="M152.6,321.956c-.31,1.824-2.443,2.7-2.823,2.845a.022.022,0,0,0,0,.042c.38.142,2.513,1.016,2.823,2.839a.022.022,0,0,0,.043,0c.312-1.823,2.462-2.7,2.846-2.839a.023.023,0,0,0,0-.042c-.383-.143-2.534-1.021-2.846-2.845A.022.022,0,0,0,152.6,321.956Z" transform="translate(1861 -1772)" fill="#c3dcf2"/>
        <path id="Path_840" data-name="Path 840" d="M160.8,321.956c-.31,1.824-2.443,2.7-2.823,2.845a.022.022,0,0,0,0,.042c.38.142,2.513,1.016,2.823,2.839a.022.022,0,0,0,.043,0c.311-1.823,2.462-2.7,2.846-2.839a.023.023,0,0,0,0-.042c-.384-.143-2.535-1.021-2.846-2.845A.022.022,0,0,0,160.8,321.956Z" transform="translate(1861 -1772)" fill="#c3dcf2"/>
        <path id="Path_841" data-name="Path 841" d="M169.005,321.956c-.311,1.824-2.444,2.7-2.823,2.845a.022.022,0,0,0,0,.042c.38.142,2.512,1.016,2.823,2.839a.022.022,0,0,0,.043,0c.311-1.823,2.462-2.7,2.845-2.839a.022.022,0,0,0,0-.042c-.384-.143-2.535-1.021-2.846-2.845A.022.022,0,0,0,169.005,321.956Z" transform="translate(1861 -1772)" fill="#c3dcf2"/>
        <path id="Path_842" data-name="Path 842" d="M177.207,321.956c-.311,1.824-2.444,2.7-2.824,2.845a.023.023,0,0,0,0,.042c.38.142,2.513,1.016,2.824,2.839a.021.021,0,0,0,.042,0c.312-1.823,2.463-2.7,2.846-2.839a.022.022,0,0,0,0-.042c-.383-.143-2.534-1.021-2.846-2.845A.021.021,0,0,0,177.207,321.956Z" transform="translate(1861 -1772)" fill="#c3dcf2"/>
        <path id="Path_843" data-name="Path 843" d="M185.409,321.956c-.311,1.824-2.444,2.7-2.824,2.845a.023.023,0,0,0,0,.042c.38.142,2.513,1.016,2.824,2.839a.021.021,0,0,0,.042,0c.312-1.823,2.463-2.7,2.846-2.839a.022.022,0,0,0,0-.042c-.383-.143-2.534-1.021-2.846-2.845A.021.021,0,0,0,185.409,321.956Z" transform="translate(1861 -1772)" fill="#c3dcf2"/>
        <path id="Path_844" data-name="Path 844" d="M193.611,321.956c-.311,1.824-2.444,2.7-2.824,2.845a.023.023,0,0,0,0,.042c.38.142,2.513,1.016,2.824,2.839a.021.021,0,0,0,.042,0c.312-1.823,2.463-2.7,2.846-2.839a.022.022,0,0,0,0-.042c-.383-.143-2.534-1.021-2.846-2.845A.021.021,0,0,0,193.611,321.956Z" transform="translate(1861 -1772)" fill="#c3dcf2"/>
        <path id="Path_845" data-name="Path 845" d="M201.812,321.956c-.31,1.824-2.443,2.7-2.823,2.845a.022.022,0,0,0,0,.042c.38.142,2.513,1.016,2.823,2.839a.022.022,0,0,0,.043,0c.312-1.823,2.462-2.7,2.846-2.839a.022.022,0,0,0,0-.042c-.383-.143-2.534-1.021-2.846-2.845A.022.022,0,0,0,201.812,321.956Z" transform="translate(1861 -1772)" fill="#c3dcf2"/>
        <path id="Path_846" data-name="Path 846" d="M45.977,321.956c-.31,1.824-2.443,2.7-2.823,2.845a.022.022,0,0,0,0,.042c.38.142,2.513,1.016,2.823,2.839a.022.022,0,0,0,.043,0c.312-1.823,2.462-2.7,2.846-2.839a.022.022,0,0,0,0-.042c-.383-.143-2.534-1.021-2.846-2.845A.022.022,0,0,0,45.977,321.956Z" transform="translate(1861 -1772)" fill="#c3dcf2"/>
        <path id="Path_847" data-name="Path 847" d="M54.179,321.956c-.31,1.824-2.443,2.7-2.823,2.845a.022.022,0,0,0,0,.042c.38.142,2.513,1.016,2.823,2.839a.022.022,0,0,0,.043,0c.311-1.823,2.462-2.7,2.846-2.839a.023.023,0,0,0,0-.042c-.384-.143-2.535-1.021-2.846-2.845A.022.022,0,0,0,54.179,321.956Z" transform="translate(1861 -1772)" fill="#c3dcf2"/>
        <path id="Path_848" data-name="Path 848" d="M62.381,321.956c-.311,1.824-2.443,2.7-2.823,2.845a.022.022,0,0,0,0,.042c.38.142,2.512,1.016,2.823,2.839a.022.022,0,0,0,.043,0c.311-1.823,2.462-2.7,2.846-2.839a.023.023,0,0,0,0-.042c-.384-.143-2.535-1.021-2.846-2.845A.022.022,0,0,0,62.381,321.956Z" transform="translate(1861 -1772)" fill="#c3dcf2"/>
        <path id="Path_849" data-name="Path 849" d="M70.583,321.956c-.311,1.824-2.444,2.7-2.823,2.845a.022.022,0,0,0,0,.042c.38.142,2.512,1.016,2.823,2.839a.022.022,0,0,0,.043,0c.311-1.823,2.462-2.7,2.845-2.839a.022.022,0,0,0,0-.042c-.383-.143-2.534-1.021-2.845-2.845A.022.022,0,0,0,70.583,321.956Z" transform="translate(1861 -1772)" fill="#c3dcf2"/>
        <path id="Path_850" data-name="Path 850" d="M78.785,321.956c-.311,1.824-2.444,2.7-2.824,2.845a.023.023,0,0,0,0,.042c.38.142,2.513,1.016,2.824,2.839a.021.021,0,0,0,.042,0c.312-1.823,2.463-2.7,2.846-2.839a.022.022,0,0,0,0-.042c-.383-.143-2.534-1.021-2.846-2.845A.021.021,0,0,0,78.785,321.956Z" transform="translate(1861 -1772)" fill="#c3dcf2"/>
        <path id="Path_851" data-name="Path 851" d="M86.987,321.956c-.311,1.824-2.444,2.7-2.824,2.845a.023.023,0,0,0,0,.042c.38.142,2.513,1.016,2.824,2.839a.021.021,0,0,0,.042,0c.312-1.823,2.463-2.7,2.846-2.839a.022.022,0,0,0,0-.042c-.383-.143-2.534-1.021-2.846-2.845A.021.021,0,0,0,86.987,321.956Z" transform="translate(1861 -1772)" fill="#c3dcf2"/>
        <path id="Path_852" data-name="Path 852" d="M95.189,321.956c-.311,1.824-2.444,2.7-2.824,2.845a.023.023,0,0,0,0,.042c.38.142,2.513,1.016,2.824,2.839a.021.021,0,0,0,.042,0c.312-1.823,2.463-2.7,2.846-2.839a.022.022,0,0,0,0-.042c-.383-.143-2.534-1.021-2.846-2.845A.021.021,0,0,0,95.189,321.956Z" transform="translate(1861 -1772)" fill="#c3dcf2"/>
        <path id="Path_853" data-name="Path 853" d="M103.39,321.956c-.31,1.824-2.443,2.7-2.823,2.845a.022.022,0,0,0,0,.042c.38.142,2.513,1.016,2.823,2.839a.022.022,0,0,0,.043,0c.311-1.823,2.462-2.7,2.846-2.839a.023.023,0,0,0,0-.042c-.384-.143-2.535-1.021-2.846-2.845A.022.022,0,0,0,103.39,321.956Z" transform="translate(1861 -1772)" fill="#c3dcf2"/>
        <path id="Path_854" data-name="Path 854" d="M111.592,321.956c-.31,1.824-2.443,2.7-2.823,2.845a.022.022,0,0,0,0,.042c.38.142,2.513,1.016,2.823,2.839a.022.022,0,0,0,.043,0c.311-1.823,2.462-2.7,2.846-2.839a.023.023,0,0,0,0-.042c-.384-.143-2.535-1.021-2.846-2.845A.022.022,0,0,0,111.592,321.956Z" transform="translate(1861 -1772)" fill="#c3dcf2"/>
        <path id="Path_855" data-name="Path 855" d="M119.794,321.956c-.311,1.824-2.444,2.7-2.823,2.845a.022.022,0,0,0,0,.042c.38.142,2.512,1.016,2.823,2.839a.022.022,0,0,0,.043,0c.311-1.823,2.462-2.7,2.845-2.839a.022.022,0,0,0,0-.042c-.383-.143-2.534-1.021-2.845-2.845A.022.022,0,0,0,119.794,321.956Z" transform="translate(1861 -1772)" fill="#c3dcf2"/>
        <path id="Path_856" data-name="Path 856" d="M128,313.72c-.311,1.824-2.444,2.7-2.824,2.845a.023.023,0,0,0,0,.042c.38.142,2.513,1.015,2.824,2.839a.021.021,0,0,0,.042,0c.312-1.823,2.463-2.7,2.846-2.839a.022.022,0,0,0,0-.042c-.383-.143-2.534-1.021-2.846-2.845A.021.021,0,0,0,128,313.72Z" transform="translate(1861 -1772)" fill="#c3dcf2"/>
        <path id="Path_857" data-name="Path 857" d="M136.2,313.72c-.311,1.824-2.444,2.7-2.824,2.845a.023.023,0,0,0,0,.042c.38.142,2.513,1.015,2.824,2.839a.021.021,0,0,0,.042,0c.312-1.823,2.463-2.7,2.846-2.839a.022.022,0,0,0,0-.042c-.383-.143-2.534-1.021-2.846-2.845A.021.021,0,0,0,136.2,313.72Z" transform="translate(1861 -1772)" fill="#c3dcf2"/>
        <path id="Path_858" data-name="Path 858" d="M144.4,313.72c-.311,1.824-2.444,2.7-2.824,2.845a.022.022,0,0,0,0,.042c.38.142,2.513,1.015,2.824,2.839a.021.021,0,0,0,.042,0c.312-1.823,2.463-2.7,2.846-2.839a.022.022,0,0,0,0-.042c-.383-.143-2.534-1.021-2.846-2.845A.021.021,0,0,0,144.4,313.72Z" transform="translate(1861 -1772)" fill="#c3dcf2"/>
        <path id="Path_859" data-name="Path 859" d="M152.6,313.72c-.31,1.824-2.443,2.7-2.823,2.845a.022.022,0,0,0,0,.042c.38.142,2.513,1.015,2.823,2.839a.022.022,0,0,0,.043,0c.312-1.823,2.462-2.7,2.846-2.839a.023.023,0,0,0,0-.042c-.383-.143-2.534-1.021-2.846-2.845A.022.022,0,0,0,152.6,313.72Z" transform="translate(1861 -1772)" fill="#c3dcf2"/>
        <path id="Path_860" data-name="Path 860" d="M160.8,313.72c-.31,1.824-2.443,2.7-2.823,2.845a.022.022,0,0,0,0,.042c.38.142,2.513,1.015,2.823,2.839a.022.022,0,0,0,.043,0c.311-1.823,2.462-2.7,2.846-2.839a.023.023,0,0,0,0-.042c-.384-.143-2.535-1.021-2.846-2.845A.022.022,0,0,0,160.8,313.72Z" transform="translate(1861 -1772)" fill="#c3dcf2"/>
        <path id="Path_861" data-name="Path 861" d="M169.005,313.72c-.311,1.824-2.444,2.7-2.823,2.845a.022.022,0,0,0,0,.042c.38.142,2.512,1.015,2.823,2.839a.022.022,0,0,0,.043,0c.311-1.823,2.462-2.7,2.845-2.839a.022.022,0,0,0,0-.042c-.384-.143-2.535-1.021-2.846-2.845A.022.022,0,0,0,169.005,313.72Z" transform="translate(1861 -1772)" fill="#c3dcf2"/>
        <path id="Path_862" data-name="Path 862" d="M177.207,313.72c-.311,1.824-2.444,2.7-2.824,2.845a.023.023,0,0,0,0,.042c.38.142,2.513,1.015,2.824,2.839a.021.021,0,0,0,.042,0c.312-1.823,2.463-2.7,2.846-2.839a.022.022,0,0,0,0-.042c-.383-.143-2.534-1.021-2.846-2.845A.021.021,0,0,0,177.207,313.72Z" transform="translate(1861 -1772)" fill="#c3dcf2"/>
        <path id="Path_863" data-name="Path 863" d="M185.409,313.72c-.311,1.824-2.444,2.7-2.824,2.845a.023.023,0,0,0,0,.042c.38.142,2.513,1.015,2.824,2.839a.021.021,0,0,0,.042,0c.312-1.823,2.463-2.7,2.846-2.839a.022.022,0,0,0,0-.042c-.383-.143-2.534-1.021-2.846-2.845A.021.021,0,0,0,185.409,313.72Z" transform="translate(1861 -1772)" fill="#c3dcf2"/>
        <path id="Path_864" data-name="Path 864" d="M193.611,313.72c-.311,1.824-2.444,2.7-2.824,2.845a.023.023,0,0,0,0,.042c.38.142,2.513,1.015,2.824,2.839a.021.021,0,0,0,.042,0c.312-1.823,2.463-2.7,2.846-2.839a.022.022,0,0,0,0-.042c-.383-.143-2.534-1.021-2.846-2.845A.021.021,0,0,0,193.611,313.72Z" transform="translate(1861 -1772)" fill="#c3dcf2"/>
        <path id="Path_865" data-name="Path 865" d="M201.812,313.72c-.31,1.824-2.443,2.7-2.823,2.845a.022.022,0,0,0,0,.042c.38.142,2.513,1.015,2.823,2.839a.022.022,0,0,0,.043,0c.312-1.823,2.462-2.7,2.846-2.839a.022.022,0,0,0,0-.042c-.383-.143-2.534-1.021-2.846-2.845A.022.022,0,0,0,201.812,313.72Z" transform="translate(1861 -1772)" fill="#c3dcf2"/>
        <path id="Path_866" data-name="Path 866" d="M45.977,313.72c-.31,1.824-2.443,2.7-2.823,2.845a.022.022,0,0,0,0,.042c.38.142,2.513,1.015,2.823,2.839a.022.022,0,0,0,.043,0c.312-1.823,2.462-2.7,2.846-2.839a.022.022,0,0,0,0-.042c-.383-.143-2.534-1.021-2.846-2.845A.022.022,0,0,0,45.977,313.72Z" transform="translate(1861 -1772)" fill="#c3dcf2"/>
        <path id="Path_867" data-name="Path 867" d="M54.179,313.72c-.31,1.824-2.443,2.7-2.823,2.845a.022.022,0,0,0,0,.042c.38.142,2.513,1.015,2.823,2.839a.022.022,0,0,0,.043,0c.311-1.823,2.462-2.7,2.846-2.839a.023.023,0,0,0,0-.042c-.384-.143-2.535-1.021-2.846-2.845A.022.022,0,0,0,54.179,313.72Z" transform="translate(1861 -1772)" fill="#c3dcf2"/>
        <path id="Path_868" data-name="Path 868" d="M62.381,313.72c-.311,1.824-2.443,2.7-2.823,2.845a.022.022,0,0,0,0,.042c.38.142,2.512,1.015,2.823,2.839a.022.022,0,0,0,.043,0c.311-1.823,2.462-2.7,2.846-2.839a.023.023,0,0,0,0-.042c-.384-.143-2.535-1.021-2.846-2.845A.022.022,0,0,0,62.381,313.72Z" transform="translate(1861 -1772)" fill="#c3dcf2"/>
        <path id="Path_869" data-name="Path 869" d="M70.583,313.72c-.311,1.824-2.444,2.7-2.823,2.845a.022.022,0,0,0,0,.042c.38.142,2.512,1.015,2.823,2.839a.022.022,0,0,0,.043,0c.311-1.823,2.462-2.7,2.845-2.839a.022.022,0,0,0,0-.042c-.383-.143-2.534-1.021-2.845-2.845A.022.022,0,0,0,70.583,313.72Z" transform="translate(1861 -1772)" fill="#c3dcf2"/>
        <path id="Path_870" data-name="Path 870" d="M78.785,313.72c-.311,1.824-2.444,2.7-2.824,2.845a.023.023,0,0,0,0,.042c.38.142,2.513,1.015,2.824,2.839a.021.021,0,0,0,.042,0c.312-1.823,2.463-2.7,2.846-2.839a.022.022,0,0,0,0-.042c-.383-.143-2.534-1.021-2.846-2.845A.021.021,0,0,0,78.785,313.72Z" transform="translate(1861 -1772)" fill="#c3dcf2"/>
        <path id="Path_871" data-name="Path 871" d="M86.987,313.72c-.311,1.824-2.444,2.7-2.824,2.845a.023.023,0,0,0,0,.042c.38.142,2.513,1.015,2.824,2.839a.021.021,0,0,0,.042,0c.312-1.823,2.463-2.7,2.846-2.839a.022.022,0,0,0,0-.042c-.383-.143-2.534-1.021-2.846-2.845A.021.021,0,0,0,86.987,313.72Z" transform="translate(1861 -1772)" fill="#c3dcf2"/>
        <path id="Path_872" data-name="Path 872" d="M95.189,313.72c-.311,1.824-2.444,2.7-2.824,2.845a.023.023,0,0,0,0,.042c.38.142,2.513,1.015,2.824,2.839a.021.021,0,0,0,.042,0c.312-1.823,2.463-2.7,2.846-2.839a.022.022,0,0,0,0-.042c-.383-.143-2.534-1.021-2.846-2.845A.021.021,0,0,0,95.189,313.72Z" transform="translate(1861 -1772)" fill="#c3dcf2"/>
        <path id="Path_873" data-name="Path 873" d="M103.39,313.72c-.31,1.824-2.443,2.7-2.823,2.845a.022.022,0,0,0,0,.042c.38.142,2.513,1.015,2.823,2.839a.022.022,0,0,0,.043,0c.311-1.823,2.462-2.7,2.846-2.839a.023.023,0,0,0,0-.042c-.384-.143-2.535-1.021-2.846-2.845A.022.022,0,0,0,103.39,313.72Z" transform="translate(1861 -1772)" fill="#c3dcf2"/>
        <path id="Path_874" data-name="Path 874" d="M111.592,313.72c-.31,1.824-2.443,2.7-2.823,2.845a.022.022,0,0,0,0,.042c.38.142,2.513,1.015,2.823,2.839a.022.022,0,0,0,.043,0c.311-1.823,2.462-2.7,2.846-2.839a.023.023,0,0,0,0-.042c-.384-.143-2.535-1.021-2.846-2.845A.022.022,0,0,0,111.592,313.72Z" transform="translate(1861 -1772)" fill="#c3dcf2"/>
        <path id="Path_875" data-name="Path 875" d="M119.794,313.72c-.311,1.824-2.444,2.7-2.823,2.845a.022.022,0,0,0,0,.042c.38.142,2.512,1.015,2.823,2.839a.022.022,0,0,0,.043,0c.311-1.823,2.462-2.7,2.845-2.839a.022.022,0,0,0,0-.042c-.383-.143-2.534-1.021-2.845-2.845A.022.022,0,0,0,119.794,313.72Z" transform="translate(1861 -1772)" fill="#c3dcf2"/>
        <path id="Path_876" data-name="Path 876" d="M128,305.484c-.311,1.824-2.444,2.7-2.824,2.845a.023.023,0,0,0,0,.042c.38.142,2.513,1.016,2.824,2.839a.021.021,0,0,0,.042,0c.312-1.823,2.463-2.7,2.846-2.839a.022.022,0,0,0,0-.042c-.383-.143-2.534-1.021-2.846-2.845A.021.021,0,0,0,128,305.484Z" transform="translate(1861 -1772)" fill="#c3dcf2"/>
        <path id="Path_877" data-name="Path 877" d="M136.2,305.484c-.311,1.824-2.444,2.7-2.824,2.845a.023.023,0,0,0,0,.042c.38.142,2.513,1.016,2.824,2.839a.021.021,0,0,0,.042,0c.312-1.823,2.463-2.7,2.846-2.839a.022.022,0,0,0,0-.042c-.383-.143-2.534-1.021-2.846-2.845A.021.021,0,0,0,136.2,305.484Z" transform="translate(1861 -1772)" fill="#c3dcf2"/>
        <path id="Path_878" data-name="Path 878" d="M144.4,305.484c-.311,1.824-2.444,2.7-2.824,2.845a.022.022,0,0,0,0,.042c.38.142,2.513,1.016,2.824,2.839a.021.021,0,0,0,.042,0c.312-1.823,2.463-2.7,2.846-2.839a.022.022,0,0,0,0-.042c-.383-.143-2.534-1.021-2.846-2.845A.021.021,0,0,0,144.4,305.484Z" transform="translate(1861 -1772)" fill="#c3dcf2"/>
        <path id="Path_879" data-name="Path 879" d="M152.6,305.484c-.31,1.824-2.443,2.7-2.823,2.845a.022.022,0,0,0,0,.042c.38.142,2.513,1.016,2.823,2.839a.022.022,0,0,0,.043,0c.312-1.823,2.462-2.7,2.846-2.839a.023.023,0,0,0,0-.042c-.383-.143-2.534-1.021-2.846-2.845A.022.022,0,0,0,152.6,305.484Z" transform="translate(1861 -1772)" fill="#c3dcf2"/>
        <path id="Path_880" data-name="Path 880" d="M160.8,305.484c-.31,1.824-2.443,2.7-2.823,2.845a.022.022,0,0,0,0,.042c.38.142,2.513,1.016,2.823,2.839a.022.022,0,0,0,.043,0c.311-1.823,2.462-2.7,2.846-2.839a.023.023,0,0,0,0-.042c-.384-.143-2.535-1.021-2.846-2.845A.022.022,0,0,0,160.8,305.484Z" transform="translate(1861 -1772)" fill="#c3dcf2"/>
        <path id="Path_881" data-name="Path 881" d="M169.005,305.484c-.311,1.824-2.444,2.7-2.823,2.845a.022.022,0,0,0,0,.042c.38.142,2.512,1.016,2.823,2.839a.022.022,0,0,0,.043,0c.311-1.823,2.462-2.7,2.845-2.839a.022.022,0,0,0,0-.042c-.384-.143-2.535-1.021-2.846-2.845A.022.022,0,0,0,169.005,305.484Z" transform="translate(1861 -1772)" fill="#c3dcf2"/>
        <path id="Path_882" data-name="Path 882" d="M177.207,305.484c-.311,1.824-2.444,2.7-2.824,2.845a.023.023,0,0,0,0,.042c.38.142,2.513,1.016,2.824,2.839a.021.021,0,0,0,.042,0c.312-1.823,2.463-2.7,2.846-2.839a.022.022,0,0,0,0-.042c-.383-.143-2.534-1.021-2.846-2.845A.021.021,0,0,0,177.207,305.484Z" transform="translate(1861 -1772)" fill="#c3dcf2"/>
        <path id="Path_883" data-name="Path 883" d="M185.409,305.484c-.311,1.824-2.444,2.7-2.824,2.845a.023.023,0,0,0,0,.042c.38.142,2.513,1.016,2.824,2.839a.021.021,0,0,0,.042,0c.312-1.823,2.463-2.7,2.846-2.839a.022.022,0,0,0,0-.042c-.383-.143-2.534-1.021-2.846-2.845A.021.021,0,0,0,185.409,305.484Z" transform="translate(1861 -1772)" fill="#c3dcf2"/>
        <path id="Path_884" data-name="Path 884" d="M193.611,305.484c-.311,1.824-2.444,2.7-2.824,2.845a.023.023,0,0,0,0,.042c.38.142,2.513,1.016,2.824,2.839a.021.021,0,0,0,.042,0c.312-1.823,2.463-2.7,2.846-2.839a.022.022,0,0,0,0-.042c-.383-.143-2.534-1.021-2.846-2.845A.021.021,0,0,0,193.611,305.484Z" transform="translate(1861 -1772)" fill="#c3dcf2"/>
        <path id="Path_885" data-name="Path 885" d="M201.812,305.484c-.31,1.824-2.443,2.7-2.823,2.845a.022.022,0,0,0,0,.042c.38.142,2.513,1.016,2.823,2.839a.022.022,0,0,0,.043,0c.312-1.823,2.462-2.7,2.846-2.839a.022.022,0,0,0,0-.042c-.383-.143-2.534-1.021-2.846-2.845A.022.022,0,0,0,201.812,305.484Z" transform="translate(1861 -1772)" fill="#c3dcf2"/>
        <path id="Path_886" data-name="Path 886" d="M210.014,321.956c-.31,1.824-2.443,2.7-2.823,2.845a.022.022,0,0,0,0,.042c.38.142,2.513,1.016,2.823,2.839a.022.022,0,0,0,.043,0c.311-1.823,2.462-2.7,2.846-2.839a.023.023,0,0,0,0-.042c-.384-.143-2.535-1.021-2.846-2.845A.022.022,0,0,0,210.014,321.956Z" transform="translate(1861 -1772)" fill="#c3dcf2"/>
        <path id="Path_887" data-name="Path 887" d="M218.216,321.956c-.311,1.824-2.443,2.7-2.823,2.845a.022.022,0,0,0,0,.042c.38.142,2.512,1.016,2.823,2.839a.022.022,0,0,0,.043,0c.311-1.823,2.462-2.7,2.846-2.839a.023.023,0,0,0,0-.042c-.384-.143-2.535-1.021-2.846-2.845A.022.022,0,0,0,218.216,321.956Z" transform="translate(1861 -1772)" fill="#c3dcf2"/>
        <path id="Path_888" data-name="Path 888" d="M226.418,321.956c-.311,1.824-2.444,2.7-2.824,2.845a.022.022,0,0,0,0,.042c.38.142,2.512,1.016,2.823,2.839a.021.021,0,0,0,.042,0c.312-1.823,2.463-2.7,2.846-2.839a.022.022,0,0,0,0-.042c-.383-.143-2.534-1.021-2.846-2.845A.021.021,0,0,0,226.418,321.956Z" transform="translate(1861 -1772)" fill="#c3dcf2"/>
        <path id="Path_889" data-name="Path 889" d="M234.62,321.956c-.311,1.824-2.444,2.7-2.824,2.845a.023.023,0,0,0,0,.042c.38.142,2.513,1.016,2.824,2.839a.021.021,0,0,0,.042,0c.312-1.823,2.463-2.7,2.846-2.839a.022.022,0,0,0,0-.042c-.383-.143-2.534-1.021-2.846-2.845A.021.021,0,0,0,234.62,321.956Z" transform="translate(1861 -1772)" fill="#c3dcf2"/>
        <path id="Path_890" data-name="Path 890" d="M210.014,313.72c-.31,1.824-2.443,2.7-2.823,2.845a.022.022,0,0,0,0,.042c.38.142,2.513,1.015,2.823,2.839a.022.022,0,0,0,.043,0c.311-1.823,2.462-2.7,2.846-2.839a.023.023,0,0,0,0-.042c-.384-.143-2.535-1.021-2.846-2.845A.022.022,0,0,0,210.014,313.72Z" transform="translate(1861 -1772)" fill="#c3dcf2"/>
        <path id="Path_891" data-name="Path 891" d="M218.216,313.72c-.311,1.824-2.443,2.7-2.823,2.845a.022.022,0,0,0,0,.042c.38.142,2.512,1.015,2.823,2.839a.022.022,0,0,0,.043,0c.311-1.823,2.462-2.7,2.846-2.839a.023.023,0,0,0,0-.042c-.384-.143-2.535-1.021-2.846-2.845A.022.022,0,0,0,218.216,313.72Z" transform="translate(1861 -1772)" fill="#c3dcf2"/>
        <path id="Path_892" data-name="Path 892" d="M226.418,313.72c-.311,1.824-2.444,2.7-2.824,2.845a.022.022,0,0,0,0,.042c.38.142,2.512,1.015,2.823,2.839a.021.021,0,0,0,.042,0c.312-1.823,2.463-2.7,2.846-2.839a.022.022,0,0,0,0-.042c-.383-.143-2.534-1.021-2.846-2.845A.021.021,0,0,0,226.418,313.72Z" transform="translate(1861 -1772)" fill="#c3dcf2"/>
        <path id="Path_893" data-name="Path 893" d="M234.62,313.72c-.311,1.824-2.444,2.7-2.824,2.845a.023.023,0,0,0,0,.042c.38.142,2.513,1.015,2.824,2.839a.021.021,0,0,0,.042,0c.312-1.823,2.463-2.7,2.846-2.839a.022.022,0,0,0,0-.042c-.383-.143-2.534-1.021-2.846-2.845A.021.021,0,0,0,234.62,313.72Z" transform="translate(1861 -1772)" fill="#c3dcf2"/>
        <path id="Path_894" data-name="Path 894" d="M210.014,305.484c-.31,1.824-2.443,2.7-2.823,2.845a.022.022,0,0,0,0,.042c.38.142,2.513,1.016,2.823,2.839a.022.022,0,0,0,.043,0c.311-1.823,2.462-2.7,2.846-2.839a.023.023,0,0,0,0-.042c-.384-.143-2.535-1.021-2.846-2.845A.022.022,0,0,0,210.014,305.484Z" transform="translate(1861 -1772)" fill="#c3dcf2"/>
        <path id="Path_895" data-name="Path 895" d="M218.216,305.484c-.311,1.824-2.443,2.7-2.823,2.845a.022.022,0,0,0,0,.042c.38.142,2.512,1.016,2.823,2.839a.022.022,0,0,0,.043,0c.311-1.823,2.462-2.7,2.846-2.839a.023.023,0,0,0,0-.042c-.384-.143-2.535-1.021-2.846-2.845A.022.022,0,0,0,218.216,305.484Z" transform="translate(1861 -1772)" fill="#c3dcf2"/>
        <path id="Path_896" data-name="Path 896" d="M45.977,305.484c-.31,1.824-2.443,2.7-2.823,2.845a.022.022,0,0,0,0,.042c.38.142,2.513,1.016,2.823,2.839a.022.022,0,0,0,.043,0c.312-1.823,2.462-2.7,2.846-2.839a.022.022,0,0,0,0-.042c-.383-.143-2.534-1.021-2.846-2.845A.022.022,0,0,0,45.977,305.484Z" transform="translate(1861 -1772)" fill="#c3dcf2"/>
        <path id="Path_897" data-name="Path 897" d="M54.179,305.484c-.31,1.824-2.443,2.7-2.823,2.845a.022.022,0,0,0,0,.042c.38.142,2.513,1.016,2.823,2.839a.022.022,0,0,0,.043,0c.311-1.823,2.462-2.7,2.846-2.839a.023.023,0,0,0,0-.042c-.384-.143-2.535-1.021-2.846-2.845A.022.022,0,0,0,54.179,305.484Z" transform="translate(1861 -1772)" fill="#c3dcf2"/>
        <path id="Path_898" data-name="Path 898" d="M62.381,305.484c-.311,1.824-2.443,2.7-2.823,2.845a.022.022,0,0,0,0,.042c.38.142,2.512,1.016,2.823,2.839a.022.022,0,0,0,.043,0c.311-1.823,2.462-2.7,2.846-2.839a.023.023,0,0,0,0-.042c-.384-.143-2.535-1.021-2.846-2.845A.022.022,0,0,0,62.381,305.484Z" transform="translate(1861 -1772)" fill="#c3dcf2"/>
        <path id="Path_899" data-name="Path 899" d="M70.583,305.484c-.311,1.824-2.444,2.7-2.823,2.845a.022.022,0,0,0,0,.042c.38.142,2.512,1.016,2.823,2.839a.022.022,0,0,0,.043,0c.311-1.823,2.462-2.7,2.845-2.839a.022.022,0,0,0,0-.042c-.383-.143-2.534-1.021-2.845-2.845A.022.022,0,0,0,70.583,305.484Z" transform="translate(1861 -1772)" fill="#c3dcf2"/>
        <path id="Path_900" data-name="Path 900" d="M78.785,305.484c-.311,1.824-2.444,2.7-2.824,2.845a.023.023,0,0,0,0,.042c.38.142,2.513,1.016,2.824,2.839a.021.021,0,0,0,.042,0c.312-1.823,2.463-2.7,2.846-2.839a.022.022,0,0,0,0-.042c-.383-.143-2.534-1.021-2.846-2.845A.021.021,0,0,0,78.785,305.484Z" transform="translate(1861 -1772)" fill="#c3dcf2"/>
        <path id="Path_901" data-name="Path 901" d="M86.987,305.484c-.311,1.824-2.444,2.7-2.824,2.845a.023.023,0,0,0,0,.042c.38.142,2.513,1.016,2.824,2.839a.021.021,0,0,0,.042,0c.312-1.823,2.463-2.7,2.846-2.839a.022.022,0,0,0,0-.042c-.383-.143-2.534-1.021-2.846-2.845A.021.021,0,0,0,86.987,305.484Z" transform="translate(1861 -1772)" fill="#c3dcf2"/>
        <path id="Path_902" data-name="Path 902" d="M95.189,305.484c-.311,1.824-2.444,2.7-2.824,2.845a.023.023,0,0,0,0,.042c.38.142,2.513,1.016,2.824,2.839a.021.021,0,0,0,.042,0c.312-1.823,2.463-2.7,2.846-2.839a.022.022,0,0,0,0-.042c-.383-.143-2.534-1.021-2.846-2.845A.021.021,0,0,0,95.189,305.484Z" transform="translate(1861 -1772)" fill="#c3dcf2"/>
        <path id="Path_903" data-name="Path 903" d="M103.39,305.484c-.31,1.824-2.443,2.7-2.823,2.845a.022.022,0,0,0,0,.042c.38.142,2.513,1.016,2.823,2.839a.022.022,0,0,0,.043,0c.311-1.823,2.462-2.7,2.846-2.839a.023.023,0,0,0,0-.042c-.384-.143-2.535-1.021-2.846-2.845A.022.022,0,0,0,103.39,305.484Z" transform="translate(1861 -1772)" fill="#c3dcf2"/>
        <path id="Path_904" data-name="Path 904" d="M111.592,305.484c-.31,1.824-2.443,2.7-2.823,2.845a.022.022,0,0,0,0,.042c.38.142,2.513,1.016,2.823,2.839a.022.022,0,0,0,.043,0c.311-1.823,2.462-2.7,2.846-2.839a.023.023,0,0,0,0-.042c-.384-.143-2.535-1.021-2.846-2.845A.022.022,0,0,0,111.592,305.484Z" transform="translate(1861 -1772)" fill="#c3dcf2"/>
        <path id="Path_905" data-name="Path 905" d="M119.794,305.484c-.311,1.824-2.444,2.7-2.823,2.845a.022.022,0,0,0,0,.042c.38.142,2.512,1.016,2.823,2.839a.022.022,0,0,0,.043,0c.311-1.823,2.462-2.7,2.845-2.839a.022.022,0,0,0,0-.042c-.383-.143-2.534-1.021-2.845-2.845A.022.022,0,0,0,119.794,305.484Z" transform="translate(1861 -1772)" fill="#c3dcf2"/>
      </g>
      <g id="Group_337" data-name="Group 337" transform="translate(-426.861 -10070.535)">
        <path id="Path_836-2" data-name="Path 836" d="M128.061,321.956c.311,1.824,2.444,2.7,2.824,2.845a.023.023,0,0,1,0,.042c-.38.142-2.513,1.016-2.824,2.839a.021.021,0,0,1-.042,0c-.312-1.823-2.463-2.7-2.846-2.839a.022.022,0,0,1,0-.042c.383-.143,2.534-1.021,2.846-2.845A.021.021,0,0,1,128.061,321.956Z" transform="translate(-18.534 -305.464)" fill="#6ca1dd"/>
        <path id="Path_837-2" data-name="Path 837" d="M136.263,321.956c.311,1.824,2.444,2.7,2.824,2.845a.023.023,0,0,1,0,.042c-.38.142-2.513,1.016-2.824,2.839a.021.021,0,0,1-.042,0c-.312-1.823-2.463-2.7-2.846-2.839a.022.022,0,0,1,0-.042c.383-.143,2.534-1.021,2.846-2.845A.021.021,0,0,1,136.263,321.956Z" transform="translate(-34.938 -305.464)" fill="#6ca1dd"/>
        <path id="Path_838-2" data-name="Path 838" d="M144.464,321.956c.311,1.824,2.444,2.7,2.824,2.845a.022.022,0,0,1,0,.042c-.38.142-2.513,1.016-2.824,2.839a.021.021,0,0,1-.042,0c-.312-1.823-2.463-2.7-2.846-2.839a.022.022,0,0,1,0-.042c.383-.143,2.534-1.021,2.846-2.845A.021.021,0,0,1,144.464,321.956Z" transform="translate(-51.341 -305.464)" fill="#6ca1dd"/>
        <path id="Path_839-2" data-name="Path 839" d="M152.666,321.956c.31,1.824,2.443,2.7,2.823,2.845a.022.022,0,0,1,0,.042c-.38.142-2.513,1.016-2.823,2.839a.022.022,0,0,1-.043,0c-.312-1.823-2.462-2.7-2.846-2.839a.023.023,0,0,1,0-.042c.383-.143,2.534-1.021,2.846-2.845A.022.022,0,0,1,152.666,321.956Z" transform="translate(-67.744 -305.464)" fill="#6ca1dd"/>
        <path id="Path_840-2" data-name="Path 840" d="M160.868,321.956c.31,1.824,2.443,2.7,2.823,2.845a.022.022,0,0,1,0,.042c-.38.142-2.513,1.016-2.823,2.839a.022.022,0,0,1-.043,0c-.311-1.823-2.462-2.7-2.846-2.839a.023.023,0,0,1,0-.042c.384-.143,2.535-1.021,2.846-2.845A.022.022,0,0,1,160.868,321.956Z" transform="translate(-84.148 -305.464)" fill="#6ca1dd"/>
        <path id="Path_841-2" data-name="Path 841" d="M169.07,321.956c.311,1.824,2.444,2.7,2.823,2.845a.022.022,0,0,1,0,.042c-.38.142-2.512,1.016-2.823,2.839a.022.022,0,0,1-.043,0c-.311-1.823-2.462-2.7-2.845-2.839a.022.022,0,0,1,0-.042c.384-.143,2.535-1.021,2.846-2.845A.022.022,0,0,1,169.07,321.956Z" transform="translate(-100.552 -305.464)" fill="#6ca1dd"/>
        <path id="Path_842-2" data-name="Path 842" d="M177.272,321.956c.311,1.824,2.444,2.7,2.824,2.845a.023.023,0,0,1,0,.042c-.38.142-2.513,1.016-2.824,2.839a.021.021,0,0,1-.042,0c-.312-1.823-2.463-2.7-2.846-2.839a.022.022,0,0,1,0-.042c.383-.143,2.534-1.021,2.846-2.845A.021.021,0,0,1,177.272,321.956Z" transform="translate(-116.956 -305.464)" fill="#6ca1dd"/>
        <path id="Path_843-2" data-name="Path 843" d="M185.474,321.956c.311,1.824,2.444,2.7,2.824,2.845a.023.023,0,0,1,0,.042c-.38.142-2.513,1.016-2.824,2.839a.021.021,0,0,1-.042,0c-.312-1.823-2.463-2.7-2.846-2.839a.022.022,0,0,1,0-.042c.383-.143,2.534-1.021,2.846-2.845A.021.021,0,0,1,185.474,321.956Z" transform="translate(-133.36 -305.464)" fill="#6ca1dd"/>
        <path id="Path_844-2" data-name="Path 844" d="M193.676,321.956c.311,1.824,2.444,2.7,2.824,2.845a.023.023,0,0,1,0,.042c-.38.142-2.513,1.016-2.824,2.839a.021.021,0,0,1-.042,0c-.312-1.823-2.463-2.7-2.846-2.839a.022.022,0,0,1,0-.042c.383-.143,2.534-1.021,2.846-2.845A.021.021,0,0,1,193.676,321.956Z" transform="translate(-149.764 -305.464)" fill="#6ca1dd"/>
        <path id="Path_845-2" data-name="Path 845" d="M201.878,321.956c.31,1.824,2.443,2.7,2.823,2.845a.022.022,0,0,1,0,.042c-.38.142-2.513,1.016-2.823,2.839a.022.022,0,0,1-.043,0c-.312-1.823-2.462-2.7-2.846-2.839a.022.022,0,0,1,0-.042c.383-.143,2.534-1.021,2.846-2.845A.022.022,0,0,1,201.878,321.956Z" transform="translate(-166.167 -305.464)" fill="#6ca1dd"/>
        <path id="Path_848-2" data-name="Path 848" d="M62.446,321.956c.311,1.824,2.443,2.7,2.823,2.845a.022.022,0,0,1,0,.042c-.38.142-2.512,1.016-2.823,2.839a.022.022,0,0,1-.043,0c-.311-1.823-2.462-2.7-2.846-2.839a.023.023,0,0,1,0-.042c.384-.143,2.535-1.021,2.846-2.845A.022.022,0,0,1,62.446,321.956Z" transform="translate(112.696 -305.464)" fill="#6ca1dd"/>
        <path id="Path_849-2" data-name="Path 849" d="M70.648,321.956c.311,1.824,2.444,2.7,2.823,2.845a.022.022,0,0,1,0,.042c-.38.142-2.512,1.016-2.823,2.839a.022.022,0,0,1-.043,0c-.311-1.823-2.462-2.7-2.845-2.839a.022.022,0,0,1,0-.042c.383-.143,2.534-1.021,2.845-2.845A.022.022,0,0,1,70.648,321.956Z" transform="translate(96.292 -305.464)" fill="#6ca1dd"/>
        <path id="Path_850-2" data-name="Path 850" d="M78.85,321.956c.311,1.824,2.444,2.7,2.824,2.845a.023.023,0,0,1,0,.042c-.38.142-2.513,1.016-2.824,2.839a.021.021,0,0,1-.042,0c-.312-1.823-2.463-2.7-2.846-2.839a.022.022,0,0,1,0-.042c.383-.143,2.534-1.021,2.846-2.845A.021.021,0,0,1,78.85,321.956Z" transform="translate(79.888 -305.464)" fill="#6ca1dd"/>
        <path id="Path_851-2" data-name="Path 851" d="M87.052,321.956c.311,1.824,2.444,2.7,2.824,2.845a.023.023,0,0,1,0,.042c-.38.142-2.513,1.016-2.824,2.839a.021.021,0,0,1-.042,0c-.312-1.823-2.463-2.7-2.846-2.839a.022.022,0,0,1,0-.042c.383-.143,2.534-1.021,2.846-2.845A.021.021,0,0,1,87.052,321.956Z" transform="translate(63.484 -305.464)" fill="#6ca1dd"/>
        <path id="Path_852-2" data-name="Path 852" d="M95.254,321.956c.311,1.824,2.444,2.7,2.824,2.845a.023.023,0,0,1,0,.042c-.38.142-2.513,1.016-2.824,2.839a.021.021,0,0,1-.042,0c-.312-1.823-2.463-2.7-2.846-2.839a.022.022,0,0,1,0-.042c.383-.143,2.534-1.021,2.846-2.845A.021.021,0,0,1,95.254,321.956Z" transform="translate(47.08 -305.464)" fill="#6ca1dd"/>
        <path id="Path_853-2" data-name="Path 853" d="M103.455,321.956c.31,1.824,2.443,2.7,2.823,2.845a.022.022,0,0,1,0,.042c-.38.142-2.513,1.016-2.823,2.839a.022.022,0,0,1-.043,0c-.311-1.823-2.462-2.7-2.846-2.839a.023.023,0,0,1,0-.042c.384-.143,2.535-1.021,2.846-2.845A.022.022,0,0,1,103.455,321.956Z" transform="translate(30.678 -305.464)" fill="#6ca1dd"/>
        <path id="Path_854-2" data-name="Path 854" d="M111.657,321.956c.31,1.824,2.443,2.7,2.823,2.845a.022.022,0,0,1,0,.042c-.38.142-2.513,1.016-2.823,2.839a.022.022,0,0,1-.043,0c-.311-1.823-2.462-2.7-2.846-2.839a.023.023,0,0,1,0-.042c.384-.143,2.535-1.021,2.846-2.845A.022.022,0,0,1,111.657,321.956Z" transform="translate(14.274 -305.464)" fill="#6ca1dd"/>
        <path id="Path_855-2" data-name="Path 855" d="M119.859,321.956c.311,1.824,2.444,2.7,2.823,2.845a.022.022,0,0,1,0,.042c-.38.142-2.512,1.016-2.823,2.839a.022.022,0,0,1-.043,0c-.311-1.823-2.462-2.7-2.845-2.839a.022.022,0,0,1,0-.042c.383-.143,2.534-1.021,2.845-2.845A.022.022,0,0,1,119.859,321.956Z" transform="translate(-2.13 -305.464)" fill="#6ca1dd"/>
        <path id="Path_856-2" data-name="Path 856" d="M128.061,313.72c.311,1.824,2.444,2.7,2.824,2.845a.023.023,0,0,1,0,.042c-.38.142-2.513,1.015-2.824,2.839a.021.021,0,0,1-.042,0c-.312-1.823-2.463-2.7-2.846-2.839a.022.022,0,0,1,0-.042c.383-.143,2.534-1.021,2.846-2.845A.021.021,0,0,1,128.061,313.72Z" transform="translate(-18.534 -305.464)" fill="#6ca1dd"/>
        <path id="Path_857-2" data-name="Path 857" d="M136.263,313.72c.311,1.824,2.444,2.7,2.824,2.845a.023.023,0,0,1,0,.042c-.38.142-2.513,1.015-2.824,2.839a.021.021,0,0,1-.042,0c-.312-1.823-2.463-2.7-2.846-2.839a.022.022,0,0,1,0-.042c.383-.143,2.534-1.021,2.846-2.845A.021.021,0,0,1,136.263,313.72Z" transform="translate(-34.938 -305.464)" fill="#6ca1dd"/>
        <path id="Path_858-2" data-name="Path 858" d="M144.464,313.72c.311,1.824,2.444,2.7,2.824,2.845a.022.022,0,0,1,0,.042c-.38.142-2.513,1.015-2.824,2.839a.021.021,0,0,1-.042,0c-.312-1.823-2.463-2.7-2.846-2.839a.022.022,0,0,1,0-.042c.383-.143,2.534-1.021,2.846-2.845A.021.021,0,0,1,144.464,313.72Z" transform="translate(-51.341 -305.464)" fill="#6ca1dd"/>
        <path id="Path_859-2" data-name="Path 859" d="M152.666,313.72c.31,1.824,2.443,2.7,2.823,2.845a.022.022,0,0,1,0,.042c-.38.142-2.513,1.015-2.823,2.839a.022.022,0,0,1-.043,0c-.312-1.823-2.462-2.7-2.846-2.839a.023.023,0,0,1,0-.042c.383-.143,2.534-1.021,2.846-2.845A.022.022,0,0,1,152.666,313.72Z" transform="translate(-67.744 -305.464)" fill="#6ca1dd"/>
        <path id="Path_860-2" data-name="Path 860" d="M160.868,313.72c.31,1.824,2.443,2.7,2.823,2.845a.022.022,0,0,1,0,.042c-.38.142-2.513,1.015-2.823,2.839a.022.022,0,0,1-.043,0c-.311-1.823-2.462-2.7-2.846-2.839a.023.023,0,0,1,0-.042c.384-.143,2.535-1.021,2.846-2.845A.022.022,0,0,1,160.868,313.72Z" transform="translate(-84.148 -305.464)" fill="#6ca1dd"/>
        <path id="Path_861-2" data-name="Path 861" d="M169.07,313.72c.311,1.824,2.444,2.7,2.823,2.845a.022.022,0,0,1,0,.042c-.38.142-2.512,1.015-2.823,2.839a.022.022,0,0,1-.043,0c-.311-1.823-2.462-2.7-2.845-2.839a.022.022,0,0,1,0-.042c.384-.143,2.535-1.021,2.846-2.845A.022.022,0,0,1,169.07,313.72Z" transform="translate(-100.552 -305.464)" fill="#6ca1dd"/>
        <path id="Path_862-2" data-name="Path 862" d="M177.272,313.72c.311,1.824,2.444,2.7,2.824,2.845a.023.023,0,0,1,0,.042c-.38.142-2.513,1.015-2.824,2.839a.021.021,0,0,1-.042,0c-.312-1.823-2.463-2.7-2.846-2.839a.022.022,0,0,1,0-.042c.383-.143,2.534-1.021,2.846-2.845A.021.021,0,0,1,177.272,313.72Z" transform="translate(-116.956 -305.464)" fill="#6ca1dd"/>
        <path id="Path_863-2" data-name="Path 863" d="M185.474,313.72c.311,1.824,2.444,2.7,2.824,2.845a.023.023,0,0,1,0,.042c-.38.142-2.513,1.015-2.824,2.839a.021.021,0,0,1-.042,0c-.312-1.823-2.463-2.7-2.846-2.839a.022.022,0,0,1,0-.042c.383-.143,2.534-1.021,2.846-2.845A.021.021,0,0,1,185.474,313.72Z" transform="translate(-133.36 -305.464)" fill="#6ca1dd"/>
        <path id="Path_864-2" data-name="Path 864" d="M193.676,313.72c.311,1.824,2.444,2.7,2.824,2.845a.023.023,0,0,1,0,.042c-.38.142-2.513,1.015-2.824,2.839a.021.021,0,0,1-.042,0c-.312-1.823-2.463-2.7-2.846-2.839a.022.022,0,0,1,0-.042c.383-.143,2.534-1.021,2.846-2.845A.021.021,0,0,1,193.676,313.72Z" transform="translate(-149.764 -305.464)" fill="#6ca1dd"/>
        <path id="Path_865-2" data-name="Path 865" d="M201.878,313.72c.31,1.824,2.443,2.7,2.823,2.845a.022.022,0,0,1,0,.042c-.38.142-2.513,1.015-2.823,2.839a.022.022,0,0,1-.043,0c-.312-1.823-2.462-2.7-2.846-2.839a.022.022,0,0,1,0-.042c.383-.143,2.534-1.021,2.846-2.845A.022.022,0,0,1,201.878,313.72Z" transform="translate(-166.167 -305.464)" fill="#6ca1dd"/>
        <path id="Path_867-2" data-name="Path 867" d="M54.244,313.72c.31,1.824,2.443,2.7,2.823,2.845a.022.022,0,0,1,0,.042c-.38.142-2.513,1.015-2.823,2.839a.022.022,0,0,1-.043,0c-.311-1.823-2.462-2.7-2.846-2.839a.023.023,0,0,1,0-.042c.384-.143,2.535-1.021,2.846-2.845A.022.022,0,0,1,54.244,313.72Z" transform="translate(129.1 -305.464)" fill="#6ca1dd"/>
        <path id="Path_868-2" data-name="Path 868" d="M62.446,313.72c.311,1.824,2.443,2.7,2.823,2.845a.022.022,0,0,1,0,.042c-.38.142-2.512,1.015-2.823,2.839a.022.022,0,0,1-.043,0c-.311-1.823-2.462-2.7-2.846-2.839a.023.023,0,0,1,0-.042c.384-.143,2.535-1.021,2.846-2.845A.022.022,0,0,1,62.446,313.72Z" transform="translate(112.696 -305.464)" fill="#6ca1dd"/>
        <path id="Path_869-2" data-name="Path 869" d="M70.648,313.72c.311,1.824,2.444,2.7,2.823,2.845a.022.022,0,0,1,0,.042c-.38.142-2.512,1.015-2.823,2.839a.022.022,0,0,1-.043,0c-.311-1.823-2.462-2.7-2.845-2.839a.022.022,0,0,1,0-.042c.383-.143,2.534-1.021,2.845-2.845A.022.022,0,0,1,70.648,313.72Z" transform="translate(96.292 -305.464)" fill="#6ca1dd"/>
        <path id="Path_870-2" data-name="Path 870" d="M78.85,313.72c.311,1.824,2.444,2.7,2.824,2.845a.023.023,0,0,1,0,.042c-.38.142-2.513,1.015-2.824,2.839a.021.021,0,0,1-.042,0c-.312-1.823-2.463-2.7-2.846-2.839a.022.022,0,0,1,0-.042c.383-.143,2.534-1.021,2.846-2.845A.021.021,0,0,1,78.85,313.72Z" transform="translate(79.888 -305.464)" fill="#6ca1dd"/>
        <path id="Path_871-2" data-name="Path 871" d="M87.052,313.72c.311,1.824,2.444,2.7,2.824,2.845a.023.023,0,0,1,0,.042c-.38.142-2.513,1.015-2.824,2.839a.021.021,0,0,1-.042,0c-.312-1.823-2.463-2.7-2.846-2.839a.022.022,0,0,1,0-.042c.383-.143,2.534-1.021,2.846-2.845A.021.021,0,0,1,87.052,313.72Z" transform="translate(63.484 -305.464)" fill="#6ca1dd"/>
        <path id="Path_872-2" data-name="Path 872" d="M95.254,313.72c.311,1.824,2.444,2.7,2.824,2.845a.023.023,0,0,1,0,.042c-.38.142-2.513,1.015-2.824,2.839a.021.021,0,0,1-.042,0c-.312-1.823-2.463-2.7-2.846-2.839a.022.022,0,0,1,0-.042c.383-.143,2.534-1.021,2.846-2.845A.021.021,0,0,1,95.254,313.72Z" transform="translate(47.08 -305.464)" fill="#6ca1dd"/>
        <path id="Path_873-2" data-name="Path 873" d="M103.455,313.72c.31,1.824,2.443,2.7,2.823,2.845a.022.022,0,0,1,0,.042c-.38.142-2.513,1.015-2.823,2.839a.022.022,0,0,1-.043,0c-.311-1.823-2.462-2.7-2.846-2.839a.023.023,0,0,1,0-.042c.384-.143,2.535-1.021,2.846-2.845A.022.022,0,0,1,103.455,313.72Z" transform="translate(30.678 -305.464)" fill="#6ca1dd"/>
        <path id="Path_874-2" data-name="Path 874" d="M111.657,313.72c.31,1.824,2.443,2.7,2.823,2.845a.022.022,0,0,1,0,.042c-.38.142-2.513,1.015-2.823,2.839a.022.022,0,0,1-.043,0c-.311-1.823-2.462-2.7-2.846-2.839a.023.023,0,0,1,0-.042c.384-.143,2.535-1.021,2.846-2.845A.022.022,0,0,1,111.657,313.72Z" transform="translate(14.274 -305.464)" fill="#6ca1dd"/>
        <path id="Path_875-2" data-name="Path 875" d="M119.859,313.72c.311,1.824,2.444,2.7,2.823,2.845a.022.022,0,0,1,0,.042c-.38.142-2.512,1.015-2.823,2.839a.022.022,0,0,1-.043,0c-.311-1.823-2.462-2.7-2.845-2.839a.022.022,0,0,1,0-.042c.383-.143,2.534-1.021,2.845-2.845A.022.022,0,0,1,119.859,313.72Z" transform="translate(-2.13 -305.464)" fill="#6ca1dd"/>
        <path id="Path_876-2" data-name="Path 876" d="M128.061,305.484c.311,1.824,2.444,2.7,2.824,2.845a.023.023,0,0,1,0,.042c-.38.142-2.513,1.016-2.824,2.839a.021.021,0,0,1-.042,0c-.312-1.823-2.463-2.7-2.846-2.839a.022.022,0,0,1,0-.042c.383-.143,2.534-1.021,2.846-2.845A.021.021,0,0,1,128.061,305.484Z" transform="translate(-18.534 -305.464)" fill="#6ca1dd"/>
        <path id="Path_877-2" data-name="Path 877" d="M136.263,305.484c.311,1.824,2.444,2.7,2.824,2.845a.023.023,0,0,1,0,.042c-.38.142-2.513,1.016-2.824,2.839a.021.021,0,0,1-.042,0c-.312-1.823-2.463-2.7-2.846-2.839a.022.022,0,0,1,0-.042c.383-.143,2.534-1.021,2.846-2.845A.021.021,0,0,1,136.263,305.484Z" transform="translate(-34.938 -305.464)" fill="#6ca1dd"/>
        <path id="Path_878-2" data-name="Path 878" d="M144.464,305.484c.311,1.824,2.444,2.7,2.824,2.845a.022.022,0,0,1,0,.042c-.38.142-2.513,1.016-2.824,2.839a.021.021,0,0,1-.042,0c-.312-1.823-2.463-2.7-2.846-2.839a.022.022,0,0,1,0-.042c.383-.143,2.534-1.021,2.846-2.845A.021.021,0,0,1,144.464,305.484Z" transform="translate(-51.341 -305.464)" fill="#6ca1dd"/>
        <path id="Path_879-2" data-name="Path 879" d="M152.666,305.484c.31,1.824,2.443,2.7,2.823,2.845a.022.022,0,0,1,0,.042c-.38.142-2.513,1.016-2.823,2.839a.022.022,0,0,1-.043,0c-.312-1.823-2.462-2.7-2.846-2.839a.023.023,0,0,1,0-.042c.383-.143,2.534-1.021,2.846-2.845A.022.022,0,0,1,152.666,305.484Z" transform="translate(-67.744 -305.464)" fill="#6ca1dd"/>
        <path id="Path_880-2" data-name="Path 880" d="M160.868,305.484c.31,1.824,2.443,2.7,2.823,2.845a.022.022,0,0,1,0,.042c-.38.142-2.513,1.016-2.823,2.839a.022.022,0,0,1-.043,0c-.311-1.823-2.462-2.7-2.846-2.839a.023.023,0,0,1,0-.042c.384-.143,2.535-1.021,2.846-2.845A.022.022,0,0,1,160.868,305.484Z" transform="translate(-84.148 -305.464)" fill="#6ca1dd"/>
        <path id="Path_881-2" data-name="Path 881" d="M169.07,305.484c.311,1.824,2.444,2.7,2.823,2.845a.022.022,0,0,1,0,.042c-.38.142-2.512,1.016-2.823,2.839a.022.022,0,0,1-.043,0c-.311-1.823-2.462-2.7-2.845-2.839a.022.022,0,0,1,0-.042c.384-.143,2.535-1.021,2.846-2.845A.022.022,0,0,1,169.07,305.484Z" transform="translate(-100.552 -305.464)" fill="#6ca1dd"/>
        <path id="Path_882-2" data-name="Path 882" d="M177.272,305.484c.311,1.824,2.444,2.7,2.824,2.845a.023.023,0,0,1,0,.042c-.38.142-2.513,1.016-2.824,2.839a.021.021,0,0,1-.042,0c-.312-1.823-2.463-2.7-2.846-2.839a.022.022,0,0,1,0-.042c.383-.143,2.534-1.021,2.846-2.845A.021.021,0,0,1,177.272,305.484Z" transform="translate(-116.956 -305.464)" fill="#6ca1dd"/>
        <path id="Path_883-2" data-name="Path 883" d="M185.474,305.484c.311,1.824,2.444,2.7,2.824,2.845a.023.023,0,0,1,0,.042c-.38.142-2.513,1.016-2.824,2.839a.021.021,0,0,1-.042,0c-.312-1.823-2.463-2.7-2.846-2.839a.022.022,0,0,1,0-.042c.383-.143,2.534-1.021,2.846-2.845A.021.021,0,0,1,185.474,305.484Z" transform="translate(-133.36 -305.464)" fill="#6ca1dd"/>
        <path id="Path_884-2" data-name="Path 884" d="M193.676,305.484c.311,1.824,2.444,2.7,2.824,2.845a.023.023,0,0,1,0,.042c-.38.142-2.513,1.016-2.824,2.839a.021.021,0,0,1-.042,0c-.312-1.823-2.463-2.7-2.846-2.839a.022.022,0,0,1,0-.042c.383-.143,2.534-1.021,2.846-2.845A.021.021,0,0,1,193.676,305.484Z" transform="translate(-149.764 -305.464)" fill="#6ca1dd"/>
        <path id="Path_885-2" data-name="Path 885" d="M201.878,305.484c.31,1.824,2.443,2.7,2.823,2.845a.022.022,0,0,1,0,.042c-.38.142-2.513,1.016-2.823,2.839a.022.022,0,0,1-.043,0c-.312-1.823-2.462-2.7-2.846-2.839a.022.022,0,0,1,0-.042c.383-.143,2.534-1.021,2.846-2.845A.022.022,0,0,1,201.878,305.484Z" transform="translate(-166.167 -305.464)" fill="#6ca1dd"/>
        <path id="Path_886-2" data-name="Path 886" d="M210.079,321.956c.31,1.824,2.443,2.7,2.823,2.845a.022.022,0,0,1,0,.042c-.38.142-2.513,1.016-2.823,2.839a.022.022,0,0,1-.043,0c-.311-1.823-2.462-2.7-2.846-2.839a.023.023,0,0,1,0-.042c.384-.143,2.535-1.021,2.846-2.845A.022.022,0,0,1,210.079,321.956Z" transform="translate(-182.57 -305.464)" fill="#6ca1dd"/>
        <path id="Path_887-2" data-name="Path 887" d="M218.281,321.956c.311,1.824,2.443,2.7,2.823,2.845a.022.022,0,0,1,0,.042c-.38.142-2.512,1.016-2.823,2.839a.022.022,0,0,1-.043,0c-.311-1.823-2.462-2.7-2.846-2.839a.023.023,0,0,1,0-.042c.384-.143,2.535-1.021,2.846-2.845A.022.022,0,0,1,218.281,321.956Z" transform="translate(-198.974 -305.464)" fill="#6ca1dd"/>
        <path id="Path_888-2" data-name="Path 888" d="M226.483,321.956c.311,1.824,2.444,2.7,2.824,2.845a.022.022,0,0,1,0,.042c-.38.142-2.512,1.016-2.823,2.839a.021.021,0,0,1-.042,0c-.312-1.823-2.463-2.7-2.846-2.839a.022.022,0,0,1,0-.042c.383-.143,2.534-1.021,2.846-2.845A.021.021,0,0,1,226.483,321.956Z" transform="translate(-215.378 -305.464)" fill="#6ca1dd"/>
        <path id="Path_889-2" data-name="Path 889" d="M234.685,321.956c.311,1.824,2.444,2.7,2.824,2.845a.023.023,0,0,1,0,.042c-.38.142-2.513,1.016-2.824,2.839a.021.021,0,0,1-.042,0c-.312-1.823-2.463-2.7-2.846-2.839a.022.022,0,0,1,0-.042c.383-.143,2.534-1.021,2.846-2.845A.021.021,0,0,1,234.685,321.956Z" transform="translate(-231.782 -305.464)" fill="#6ca1dd"/>
        <path id="Path_890-2" data-name="Path 890" d="M210.079,313.72c.31,1.824,2.443,2.7,2.823,2.845a.022.022,0,0,1,0,.042c-.38.142-2.513,1.015-2.823,2.839a.022.022,0,0,1-.043,0c-.311-1.823-2.462-2.7-2.846-2.839a.023.023,0,0,1,0-.042c.384-.143,2.535-1.021,2.846-2.845A.022.022,0,0,1,210.079,313.72Z" transform="translate(-182.57 -305.464)" fill="#6ca1dd"/>
        <path id="Path_891-2" data-name="Path 891" d="M218.281,313.72c.311,1.824,2.443,2.7,2.823,2.845a.022.022,0,0,1,0,.042c-.38.142-2.512,1.015-2.823,2.839a.022.022,0,0,1-.043,0c-.311-1.823-2.462-2.7-2.846-2.839a.023.023,0,0,1,0-.042c.384-.143,2.535-1.021,2.846-2.845A.022.022,0,0,1,218.281,313.72Z" transform="translate(-198.974 -305.464)" fill="#6ca1dd"/>
        <path id="Path_892-2" data-name="Path 892" d="M226.483,313.72c.311,1.824,2.444,2.7,2.824,2.845a.022.022,0,0,1,0,.042c-.38.142-2.512,1.015-2.823,2.839a.021.021,0,0,1-.042,0c-.312-1.823-2.463-2.7-2.846-2.839a.022.022,0,0,1,0-.042c.383-.143,2.534-1.021,2.846-2.845A.021.021,0,0,1,226.483,313.72Z" transform="translate(-215.378 -305.464)" fill="#6ca1dd"/>
        <path id="Path_893-2" data-name="Path 893" d="M234.685,313.72c.311,1.824,2.444,2.7,2.824,2.845a.023.023,0,0,1,0,.042c-.38.142-2.513,1.015-2.824,2.839a.021.021,0,0,1-.042,0c-.312-1.823-2.463-2.7-2.846-2.839a.022.022,0,0,1,0-.042c.383-.143,2.534-1.021,2.846-2.845A.021.021,0,0,1,234.685,313.72Z" transform="translate(-231.782 -305.464)" fill="#6ca1dd"/>
        <path id="Path_894-2" data-name="Path 894" d="M210.079,305.484c.31,1.824,2.443,2.7,2.823,2.845a.022.022,0,0,1,0,.042c-.38.142-2.513,1.016-2.823,2.839a.022.022,0,0,1-.043,0c-.311-1.823-2.462-2.7-2.846-2.839a.023.023,0,0,1,0-.042c.384-.143,2.535-1.021,2.846-2.845A.022.022,0,0,1,210.079,305.484Z" transform="translate(-182.57 -305.464)" fill="#6ca1dd"/>
        <path id="Path_895-2" data-name="Path 895" d="M218.281,305.484c.311,1.824,2.443,2.7,2.823,2.845a.022.022,0,0,1,0,.042c-.38.142-2.512,1.016-2.823,2.839a.022.022,0,0,1-.043,0c-.311-1.823-2.462-2.7-2.846-2.839a.023.023,0,0,1,0-.042c.384-.143,2.535-1.021,2.846-2.845A.022.022,0,0,1,218.281,305.484Z" transform="translate(-198.974 -305.464)" fill="#6ca1dd"/>
        <path id="Path_896-2" data-name="Path 896" d="M46.043,305.484c.31,1.824,2.443,2.7,2.823,2.845a.022.022,0,0,1,0,.042c-.38.142-2.513,1.016-2.823,2.839a.022.022,0,0,1-.043,0c-.312-1.823-2.462-2.7-2.846-2.839a.022.022,0,0,1,0-.042c.383-.143,2.534-1.021,2.846-2.845A.022.022,0,0,1,46.043,305.484Z" transform="translate(145.503 -305.464)" fill="#6ca1dd"/>
        <path id="Path_897-2" data-name="Path 897" d="M54.244,305.484c.31,1.824,2.443,2.7,2.823,2.845a.022.022,0,0,1,0,.042c-.38.142-2.513,1.016-2.823,2.839a.022.022,0,0,1-.043,0c-.311-1.823-2.462-2.7-2.846-2.839a.023.023,0,0,1,0-.042c.384-.143,2.535-1.021,2.846-2.845A.022.022,0,0,1,54.244,305.484Z" transform="translate(129.1 -305.464)" fill="#6ca1dd"/>
        <path id="Path_898-2" data-name="Path 898" d="M62.446,305.484c.311,1.824,2.443,2.7,2.823,2.845a.022.022,0,0,1,0,.042c-.38.142-2.512,1.016-2.823,2.839a.022.022,0,0,1-.043,0c-.311-1.823-2.462-2.7-2.846-2.839a.023.023,0,0,1,0-.042c.384-.143,2.535-1.021,2.846-2.845A.022.022,0,0,1,62.446,305.484Z" transform="translate(112.696 -305.464)" fill="#6ca1dd"/>
        <path id="Path_899-2" data-name="Path 899" d="M70.648,305.484c.311,1.824,2.444,2.7,2.823,2.845a.022.022,0,0,1,0,.042c-.38.142-2.512,1.016-2.823,2.839a.022.022,0,0,1-.043,0c-.311-1.823-2.462-2.7-2.845-2.839a.022.022,0,0,1,0-.042c.383-.143,2.534-1.021,2.845-2.845A.022.022,0,0,1,70.648,305.484Z" transform="translate(96.292 -305.464)" fill="#6ca1dd"/>
        <path id="Path_900-2" data-name="Path 900" d="M78.85,305.484c.311,1.824,2.444,2.7,2.824,2.845a.023.023,0,0,1,0,.042c-.38.142-2.513,1.016-2.824,2.839a.021.021,0,0,1-.042,0c-.312-1.823-2.463-2.7-2.846-2.839a.022.022,0,0,1,0-.042c.383-.143,2.534-1.021,2.846-2.845A.021.021,0,0,1,78.85,305.484Z" transform="translate(79.888 -305.464)" fill="#6ca1dd"/>
        <path id="Path_901-2" data-name="Path 901" d="M87.052,305.484c.311,1.824,2.444,2.7,2.824,2.845a.023.023,0,0,1,0,.042c-.38.142-2.513,1.016-2.824,2.839a.021.021,0,0,1-.042,0c-.312-1.823-2.463-2.7-2.846-2.839a.022.022,0,0,1,0-.042c.383-.143,2.534-1.021,2.846-2.845A.021.021,0,0,1,87.052,305.484Z" transform="translate(63.484 -305.464)" fill="#6ca1dd"/>
        <path id="Path_902-2" data-name="Path 902" d="M95.254,305.484c.311,1.824,2.444,2.7,2.824,2.845a.023.023,0,0,1,0,.042c-.38.142-2.513,1.016-2.824,2.839a.021.021,0,0,1-.042,0c-.312-1.823-2.463-2.7-2.846-2.839a.022.022,0,0,1,0-.042c.383-.143,2.534-1.021,2.846-2.845A.021.021,0,0,1,95.254,305.484Z" transform="translate(47.08 -305.464)" fill="#6ca1dd"/>
        <path id="Path_903-2" data-name="Path 903" d="M103.455,305.484c.31,1.824,2.443,2.7,2.823,2.845a.022.022,0,0,1,0,.042c-.38.142-2.513,1.016-2.823,2.839a.022.022,0,0,1-.043,0c-.311-1.823-2.462-2.7-2.846-2.839a.023.023,0,0,1,0-.042c.384-.143,2.535-1.021,2.846-2.845A.022.022,0,0,1,103.455,305.484Z" transform="translate(30.678 -305.464)" fill="#6ca1dd"/>
        <path id="Path_904-2" data-name="Path 904" d="M111.657,305.484c.31,1.824,2.443,2.7,2.823,2.845a.022.022,0,0,1,0,.042c-.38.142-2.513,1.016-2.823,2.839a.022.022,0,0,1-.043,0c-.311-1.823-2.462-2.7-2.846-2.839a.023.023,0,0,1,0-.042c.384-.143,2.535-1.021,2.846-2.845A.022.022,0,0,1,111.657,305.484Z" transform="translate(14.274 -305.464)" fill="#6ca1dd"/>
        <path id="Path_905-2" data-name="Path 905" d="M119.859,305.484c.311,1.824,2.444,2.7,2.823,2.845a.022.022,0,0,1,0,.042c-.38.142-2.512,1.016-2.823,2.839a.022.022,0,0,1-.043,0c-.311-1.823-2.462-2.7-2.845-2.839a.022.022,0,0,1,0-.042c.383-.143,2.534-1.021,2.845-2.845A.022.022,0,0,1,119.859,305.484Z" transform="translate(-2.13 -305.464)" fill="#6ca1dd"/>
      </g>
      <text id="Günlük_Kripto_Para_Bülteni" data-name="Günlük Kripto
Para Bülteni" transform="translate(-544.414 -9934.5)" fill="#fff" font-size="55" font-family="OpenSans-Bold, Open Sans" font-weight="700"><tspan x="0" y="0">Günlük Kripto</tspan><tspan x="0" y="64">Para Bülteni</tspan></text>
      <g id="Group_845" data-name="Group 845" transform="translate(-1646.337 -10963.351)">
        <path id="Path_24" data-name="Path 24" d="M1969.186,962.45a4.741,4.741,0,0,0,.339-3.573,5.357,5.357,0,0,0-4.474-4.078.269.269,0,0,1-.306.128.269.269,0,0,0,.306-.128,2.872,2.872,0,0,0-.437-.066q-5.443,0-10.887.007c-.331-.067-.56-.073-.559.4q.022,6.793,0,13.587c0,.36.138.436.463.431,1.007-.016,2.014,0,3.021-.006.1,0,.228.042.294-.09l.069-3.439.041.012.033-.027q1.905.073,3.81,0a2.7,2.7,0,0,1,.916.8c.615.755,1.34,1.4,2.008,2.1.224.26.392.637.781.642,1.661.021,3.322.009,5.04.009a1.073,1.073,0,0,0-.459-.532l-3.154-3.249A5.353,5.353,0,0,0,1969.186,962.45Zm-14.767,6.593c-.074,0-.149.011-.223.013.074,0,.149-.008.223-.013a3.74,3.74,0,0,1,1.364-.087A3.744,3.744,0,0,0,1954.419,969.043Zm11.844-7.991-.113.161s0,0,0,0h0l-.226.232h0l-.12.1s0,0,0-.007h0l-.486.239-.031-.013-.021.025a.408.408,0,0,1-.1.133.408.408,0,0,0,.1-.133,9.8,9.8,0,0,1-1.831.1q-3.177.006-6.354.018l-.118-.113c-.07-.016-.14-.033-.165-.094.025.061.094.078.165.093q.021-1.788.042-3.576a.064.064,0,0,0,.079-.017.27.27,0,0,1,.044-.044.27.27,0,0,0-.044.044c2.287.007,4.575.034,6.862.011a2.534,2.534,0,0,1,2.2.945A2.367,2.367,0,0,1,1966.263,961.052Z" transform="translate(-739.213 -12.007)" fill="#fff"/>
        <path id="Path_25" data-name="Path 25" d="M1427.657,957.828a6.26,6.26,0,0,0-3.561-2.6,4.15,4.15,0,0,0-1.728-.332c-1.914-.005-3.829,0-5.743,0a3.1,3.1,0,0,0-1.3.217,7.033,7.033,0,0,0-5.268,5.839,5.824,5.824,0,0,0,.224,3.253,6.789,6.789,0,0,0,3.028,4.024,5.179,5.179,0,0,0,2.679,1.012c2.16.183,4.327.075,6.49.056a2.053,2.053,0,0,0,1.274-.274l-.007.005a2.417,2.417,0,0,0,1.345-.462,6.462,6.462,0,0,0,2.676-2.373,1.25,1.25,0,0,0,.339-.543v0a.37.37,0,0,0,.134-.321c.04-.033.092-.06.111-.1a6.976,6.976,0,0,0-.232-6.654C1428.091,958.243,1427.817,958.059,1427.657,957.828Zm-13.546,6.245a.183.183,0,0,1-.079-.056.183.183,0,0,0,.079.056Zm7.886,1.569c-1.472.038-2.947-.016-4.418.026a4.077,4.077,0,0,1-3.214-1.262.253.253,0,0,1-.193-.052.252.252,0,0,0,.193.052l-.252-.335-.123-.21v0c-.027,0-.057,0-.086,0,.029,0,.059,0,.086,0a3.911,3.911,0,0,1-.235-3.029,3.814,3.814,0,0,1,2.944-2.318h0l5.576-.007a3.769,3.769,0,0,1,2.847,2.091A3.553,3.553,0,0,1,1422,965.642Z" transform="translate(-256.855 -12.168)" fill="#fff"/>
        <path id="Path_26" data-name="Path 26" d="M1271.991,965.757q-4.2.033-8.4,0a3.751,3.751,0,0,1-1.5-7.206,5.391,5.391,0,0,1,2.034-.281c2.683.006,5.366.008,8.049.026.309,0,.371-.107.366-.385-.015-.875-.028-1.751.005-2.625.016-.406-.121-.483-.5-.481-3.037.016-6.075.013-9.113.008a4.719,4.719,0,0,0-1.378.161,6.811,6.811,0,0,0-3.554,2.126,7.125,7.125,0,0,0-1.84,3.77h0a5.2,5.2,0,0,0-.083,1.9,5.743,5.743,0,0,0,.752,2.468h0a.259.259,0,0,0,.117.237,6.429,6.429,0,0,0,5.329,3.669c3.3.238,6.607.046,9.912.09.329,0,.357-.149.354-.409-.01-.84-.029-1.681.006-2.519C1272.559,965.873,1272.437,965.754,1271.991,965.757Z" transform="translate(-120.201 -12.098)" fill="#fff"/>
        <path id="Path_27" data-name="Path 27" d="M2299.247,965.709c-3.435.019-6.87,0-10.3.023-.5,0-.617-.136-.614-.623.023-3.283.005-6.567.02-9.85,0-.38-.078-.516-.484-.5-.932.031-1.867.028-2.8,0-.381-.011-.506.082-.505.486q.023,6.716,0,13.432c0,.436.135.52.541.517,2.334-.019,4.667-.009,7-.009,2.389,0,4.78-.008,7.169.009.39,0,.513-.1.5-.5-.029-.82-.033-1.643,0-2.462C2299.787,965.815,2299.67,965.706,2299.247,965.709Z" transform="translate(-1033.463 -12.049)" fill="#fff"/>
        <path id="Path_28" data-name="Path 28" d="M1595.758,954.8c-1.06-.013-2.122,0-3.181-.052-.46-.021-.538.139-.536.558.015,4.433.009,8.867.011,13.3,0,.166.025.331.038.5,1.068.165,2.145.009,3.214.083.468.032.544-.149.543-.568-.013-4.448-.006-8.9-.01-13.345C1595.835,955.112,1595.907,954.933,1595.758,954.8Z" transform="translate(-418.558 -12.038)" fill="#fff"/>
        <path id="Path_29" data-name="Path 29" d="M1653.442,962.773q0-3.773,0-7.547c0-.252.032-.465-.354-.456-1.025.025-2.051.013-3.077.006-.222,0-.337.036-.336.3.017,2.664.023,5.328.032,7.992-.1.15.061.372-.149.509l-.39-.3a.029.029,0,0,1,0,0l-.12-.141c-.2-.22-.389-.447-.595-.658-2.327-2.392-4.628-4.809-7.027-7.13.025-.09-.03-.125-.1-.148h0l-.1-.1h0l-.122-.12h.007c-.1-.265-.33-.2-.525-.2-1.006-.005-2.014.024-3.019-.018-.461-.019-.538.136-.537.555.015,4.433.009,8.865.011,13.3,0,.165.026.331.04.5l.3-.034c0-.025,0-.051,0-.076a.511.511,0,0,1-.065-.036.36.36,0,0,1-.091-.086.36.36,0,0,0,.091.086.511.511,0,0,0,.065.036h0c0,.025,0,.051,0,.076l-.3.033c1.091.15,2.188.011,3.28.076.414.024.488-.146.486-.517-.014-2.5-.006-5-.011-7.5,0-.157.073-.339-.089-.469.063-.123.035-.287.1-.338.581.552,1.154,1.084,1.714,1.629,1.49,1.449,2.913,2.965,4.412,4.408.821.79,1.594,1.649,2.388,2.477a.326.326,0,0,0,.332.259,24.8,24.8,0,0,0,3.676-.015,1.071,1.071,0,0,0,.059-.6Q1653.446,965.653,1653.442,962.773Zm-.727,5.839-.012.024.012-.024.025.009Zm.053.134h0a.626.626,0,0,0,.035-.072A.7.7,0,0,1,1652.768,968.746Z" transform="translate(-458.511 -12.061)" fill="#fff"/>
        <path id="Path_30" data-name="Path 30" d="M1811.307,955.326c.023-.463-.145-.536-.561-.535-3.809.015-7.617.009-11.426.009-1.363,0-2.726.009-4.089-.007-.326,0-.462.056-.45.422.028.895.006,1.791.012,2.686,0,.165-.076.413.253.358,1.867.006,3.733.025,5.6.01.4,0,.49.115.487.5-.018,2.444-.009,4.888-.009,7.332q0,1.343,0,2.687c0,.2-.046.434.281.426,1.152-.031,2.306.072,3.457-.054a1.27,1.27,0,0,0,.05-.6q.006-5.13,0-10.26a.512.512,0,0,0-.069-.009.512.512,0,0,1,.069.009l6.246-.036c.24-.076.124-.278.126-.416C1811.3,957.005,1811.264,956.164,1811.307,955.326Z" transform="translate(-598.576 -12.081)" fill="#fff"/>
        <path id="Path_31" data-name="Path 31" d="M2124.937,968.51a.781.781,0,0,0-.235-.448.075.075,0,0,0-.031-.086l-.088-.147c-.93-1.8-1.853-3.6-2.794-5.4-1.3-2.486-2.622-4.966-3.934-7.448a.14.14,0,0,0-.154-.122c-1.333,0-2.667,0-4-.007-.244,0-.312.151-.357.342-.714,1.343-1.435,2.682-2.14,4.029q-2.286,4.369-4.558,8.744a9.238,9.238,0,0,0-.23.441,2.842,2.842,0,0,0-.456.875c1.391,0,2.724,0,4.057,0a.353.353,0,0,0,.344-.229c.331-.663.667-1.323,1-1.984a1.008,1.008,0,0,0-.109.012,1.008,1.008,0,0,1,.109-.012l.106-.223v0a1.188,1.188,0,0,0,.177-.276c.159-.533.5-.652,1.045-.639,1.752.04,3.508.071,5.258-.007.969-.043,1.7.1,1.98,1.14,0,.014.029.022.045.032a12.248,12.248,0,0,0,1.137,2.106,25.241,25.241,0,0,0,2.944.065c.414.013.828,0,1.28,0a2.338,2.338,0,0,0-.4-.759Zm-7.533-6.474-3.565-.019c.515-1.21,1.2-2.33,1.814-3.583.619,1.187,1.2,2.3,1.775,3.406C2117.462,961.906,2117.483,961.98,2117.4,962.037Z" transform="translate(-874.881 -12.137)" fill="#fff"/>
        <path id="Path_33" data-name="Path 33" d="M1117.523,989.475a1.331,1.331,0,0,1-.467.915c-1.395,1.4-2.783,2.8-4.19,4.185-.651.641-1.081.626-1.727-.017q-2.072-2.06-4.13-4.135c-.745-.752-.735-1.12.029-1.888q2.006-2.016,4.021-4.022c.751-.747,1.151-.749,1.9-.007,1.345,1.336,2.683,2.68,4.027,4.017A1.443,1.443,0,0,1,1117.523,989.475Z" transform="translate(0 -39.757)" fill="#1aa4df"/>
        <path id="Path_34" data-name="Path 34" d="M1164.642,942.356a1.331,1.331,0,0,1-.468.915c-1.395,1.4-2.783,2.8-4.19,4.185-.651.641-1.081.626-1.727-.017q-2.072-2.06-4.13-4.135c-.745-.752-.735-1.12.029-1.888q2.006-2.016,4.021-4.023c.751-.747,1.152-.749,1.9-.007,1.345,1.336,2.683,2.68,4.027,4.017A1.443,1.443,0,0,1,1164.642,942.356Z" transform="translate(-39.758 0)" fill="#fff"/>
        <path id="Path_35" data-name="Path 35" d="M1164.642,1037.035a1.33,1.33,0,0,1-.468.915c-1.395,1.4-2.783,2.8-4.19,4.184-.651.641-1.081.626-1.727-.016q-2.072-2.06-4.13-4.135c-.745-.752-.735-1.12.029-1.888q2.006-2.016,4.021-4.023c.751-.747,1.152-.749,1.9-.007,1.345,1.336,2.683,2.68,4.027,4.017A1.444,1.444,0,0,1,1164.642,1037.035Z" transform="translate(-39.758 -79.887)" fill="#fff"/>
      </g>
    </g>
    <g transform="matrix(1, 0, 0, 1, 0, 0)" filter="url(#Bitcoin_Ethereum_Ripple_ve_Litecoin_için_günlük_kripto_para_bültenini_buradan_takip_edebilirsiniz._)">
      <text id="Bitcoin_Ethereum_Ripple_ve_Litecoin_için_günlük_kripto_para_bültenini_buradan_takip_edebilirsiniz._2" data-name="Bitcoin, Ethereum, Ripple ve Litecoin için günlük kripto para bültenini buradan takip edebilirsiniz.
" transform="translate(55 239)" fill="#fff" font-size="18" font-family="HelveticaNeue, Helvetica Neue"><tspan x="0" y="17">Bitcoin, Ethereum, Ripple ve Litecoin için </tspan><tspan x="0" y="39">günlük kripto para bültenini buradan takip </tspan><tspan x="0" y="61">edebilirsiniz.</tspan></text>
    </g>
    <g id="Group_661" data-name="Group 661" transform="translate(-551.856 -394.078)">
      <path id="Path_1356" data-name="Path 1356" d="M1165.774,647.44a17.8,17.8,0,0,1,2.918,1.246c2.342,1.522,4.6,2.718,7.246.567.867-.7,1.664-.04,2.32.622,3.626,3.658,7.236,7.333,10.885,10.968,1.4,1.4,1.119,2.338-.527,3.276q-18.278,10.42-36.519,20.907c-1.67.958-2.979.927-4.426-.667-3.221-3.548-6.661-6.9-10.008-10.33-.365-.374-.656-.963-1.252-.848-.663.128-.631.792-.633,1.306-.009,2.853-1.394,1.934-2.848,1.094q-23.288-13.465-46.592-26.906-38.859-22.455-77.733-44.881a4.258,4.258,0,0,1-2.426-4.23q.1-73.014.115-146.029c0-1.478-.556-3.431,2.389-2.657,1.618.426,1.139-1.115.9-1.97-1.189-4.277-2.338-8.568-3.693-12.792-.75-2.336-.286-3.592,1.987-4.873q18.094-10.191,35.96-20.787c2.036-1.2,2.59-.547,3.1,1.284q1.991,7.188,4.09,14.347c.405,1.374.315,2.508-1.069,3.151-2.407,1.12-2.78,3.084-2.775,5.5q.107,50.63.1,101.261c0,1.673.192,3.385-.635,4.958-1.8-1.218-3.354-.962-5.256.184-7.463,4.5-15.065,8.761-22.593,13.15-.888.517-1.991.8-2.5,1.853-.307,10.737-.293,21.475-.024,32.212-.072,3.281-.079,6.564-.24,9.841a3.507,3.507,0,0,0,2.062,3.608c7.49,4.243,14.92,8.593,22.38,12.89.666.383,1.309,1,2.2.541,4.929-2.341,9.468-5.378,14.249-7.981,2.217-1.207,4.182-2.945,6.777-3.4q.063,1.829.126,3.658c-.038,6.289-.046,12.58-.136,18.868a2.755,2.755,0,0,0,1.648,2.711c8.006,4.551,15.983,9.156,23.968,13.744,1.02.646,1.647-.263,2.348-.66q9.772-5.534,19.505-11.135.047,11.054.089,22.108c0,1.26-.019,2.435,1.34,3.2,8.264,4.667,16.5,9.384,24.743,14.084,1.073.11,1.825-.592,2.654-1.071,6.364-3.677,12.6-7.6,19.12-10.975,4.439-2.3,7.748-4.81,6.594-10.422A1.6,1.6,0,0,1,1165.774,647.44Z" transform="translate(0)" fill="url(#linear-gradient-3)"/>
      <path id="Path_1357" data-name="Path 1357" d="M1280.388,655.643c.7.408.451,1.1.451,1.672q.014,32.578,0,65.156a7.82,7.82,0,0,1-.078.793c-1.1.558-2.227,1.068-3.3,1.68-8.2,4.692-16.219,9.692-24.635,14-.059-.885-.169-1.77-.17-2.655q-.014-30.75-.008-61.5a6.444,6.444,0,0,1,.576-3.107q11.4-6.541,22.8-13.095C1277.538,657.708,1279.282,657.14,1280.388,655.643Z" transform="translate(-115.315 -114.712)" fill="#a0c7f3"/>
      <path id="Path_1358" data-name="Path 1358" d="M1230.336,673.013a6.445,6.445,0,0,0-.576,3.107q0,30.75.009,61.5c0,.885.111,1.77.17,2.655l-.07.019c-.871-.434-1.77-.82-2.609-1.307-6.891-4-13.712-8.121-20.692-11.956a4.936,4.936,0,0,1-2.962-5c.081-14.442.027-28.884.018-43.327q-.006-3.982-.013-7.964c.054-.427.108-.854.169-1.27.008.011.111-.1.111-.1a68.026,68.026,0,0,1,.046-10.877c3.84,2.169,7.629,4.436,11.533,6.481C1220.459,667.594,1225.028,670.991,1230.336,673.013Z" transform="translate(-92.426 -116.044)" fill="#c3dcf2"/>
      <path id="Path_1359" data-name="Path 1359" d="M1252.822,798.118c8.416-4.307,16.438-9.307,24.635-14,1.069-.612,2.2-1.123,3.3-1.68q.044,17.871.1,35.742c0,1.049.153,2.1.234,3.148a1.6,1.6,0,0,0-.076.523c1.154,5.612-2.156,8.125-6.594,10.422-6.52,3.375-12.756,7.3-19.121,10.975-.829.479-1.582,1.181-2.655,1.071q.056-23.09.113-46.18Z" transform="translate(-115.311 -173.886)" fill="#75a4d2"/>
      <path id="Path_1360" data-name="Path 1360" d="M1230.625,658.835c-5.308-2.023-9.876-5.419-14.867-8.034-3.9-2.046-7.693-4.312-11.533-6.481.228-.79.989-.965,1.575-1.3q12.29-7.125,24.6-14.224c.932-.54,1.7-1.026,2.876-.326,8.145,4.822,16.338,9.564,24.516,14.331-1.105,1.5-2.849,2.066-4.366,2.944Q1242.044,652.323,1230.625,658.835Z" transform="translate(-92.716 -101.865)" fill="#e3eef6"/>
      <path id="Path_1361" data-name="Path 1361" d="M1025.692,670.174c.509-1.051,1.611-1.336,2.5-1.853,7.528-4.389,15.13-8.653,22.592-13.15,1.9-1.146,3.455-1.4,5.256-.184q10.755,6.3,21.5,12.62c.725.428,1.73.575,1.943,1.635-2.15.95-4.446,1.678-5.805,3.829l.022-.02c-1.54-.148-2.673.8-3.882,1.49q-8.977,5.134-17.925,10.317c-.877-.419-1.783-.786-2.626-1.264Q1037.472,676.9,1025.692,670.174Z" transform="translate(-9.396 -114.031)" fill="#e3eef6"/>
      <path id="Path_1362" data-name="Path 1362" d="M1162.573,672.139q.006,3.982.013,7.964l-21.214,11.942a7.481,7.481,0,0,1-1.506-.485c-6.343-3.641-12.7-7.254-18.985-11-1.8-1.072-3.85-1.832-5.207-3.569l.024-.535-.022.02c2.289-.524,4.066-1.977,5.927-3.275,6.475-3.664,12.982-7.272,19.4-11.031a3.659,3.659,0,0,1,4.284.012C1151,665.582,1156.8,668.832,1162.573,672.139Z" transform="translate(-51.389 -117.437)" fill="#e3eef6"/>
      <path id="Path_1363" data-name="Path 1363" d="M1121.605,682.971c-1.862,1.3-3.638,2.751-5.927,3.275,1.359-2.15,3.655-2.878,5.805-3.829Z" transform="translate(-51.391 -127.207)" fill="#a0c7f3"/>
      <path id="Path_1364" data-name="Path 1364" d="M1204.042,678.894s-.1.11-.111.1S1204.042,678.894,1204.042,678.894Z" transform="translate(-92.578 -125.563)" fill="#e3eef6"/>
      <path id="Path_1365" data-name="Path 1365" d="M1163.728,708.339l21.214-11.942c.008,14.442.062,28.884-.018,43.326a4.936,4.936,0,0,0,2.962,5c6.98,3.835,13.8,7.96,20.692,11.956.839.487,1.737.872,2.609,1.307q-.055,23.092-.112,46.182c-8.244-4.7-16.479-9.417-24.743-14.084-1.359-.767-1.336-1.942-1.34-3.2q-.035-11.054-.089-22.108c.031-5.758.088-11.516.08-17.274,0-3.114-.455-3.324-3.162-1.835-6.05,3.326-11.811,7.168-18.059,10.14l-.184-.179c.014-2.391.034-4.781.04-7.172Q1163.676,728.394,1163.728,708.339Z" transform="translate(-73.746 -133.731)" fill="#a0c7f3"/>
      <path id="Path_1366" data-name="Path 1366" d="M1140.848,705.616q-.055,20.055-.111,40.109c-.007,2.391-.027,4.781-.04,7.172-1.965-.392-3.536-1.587-5.224-2.551q-10.382-5.932-20.784-11.83-.062-1.829-.126-3.658-.006-6.629-.012-13.259.038-13.7.084-27.4c0-1.23-.174-2.5.515-3.635,1.357,1.737,3.41,2.5,5.207,3.569,6.281,3.746,12.642,7.36,18.985,11A7.472,7.472,0,0,0,1140.848,705.616Z" transform="translate(-50.866 -131.008)" fill="#c3dcf2"/>
      <path id="Path_1367" data-name="Path 1367" d="M1073.442,690.079c-.69,1.138-.51,2.405-.515,3.635q-.056,13.7-.084,27.4-9.7,5.552-19.4,11.1c-1.046.6-1.922,1.276-1.882,2.649.107,3.63-.324,7.274.271,10.893-.888.46-1.532-.158-2.2-.541-7.46-4.3-14.89-8.647-22.38-12.89a3.507,3.507,0,0,1-2.062-3.608c.161-3.277.168-6.56.24-9.841a20.208,20.208,0,0,1,5.28,2.483q8.743,5.079,17.465,10.194c1.794,1.054,2.971,1.135,3.022-1.459.037-1.859.34-3.713.357-5.57.069-7.725.076-15.451.1-23.177q8.96-5.163,17.926-10.317c1.208-.691,2.342-1.638,3.882-1.49Z" transform="translate(-9.158 -130.526)" fill="#a0c7f3"/>
      <path id="Path_1368" data-name="Path 1368" d="M1051.7,698.849c-.029,7.726-.035,15.452-.1,23.177-.016,1.857-.32,3.712-.357,5.57-.051,2.594-1.229,2.514-3.022,1.459q-8.717-5.124-17.465-10.193a20.211,20.211,0,0,0-5.28-2.483c-.269-10.738-.283-21.475.024-32.212q11.786,6.713,23.578,13.419C1049.914,698.063,1050.82,698.43,1051.7,698.849Z" transform="translate(-9.196 -128.023)" fill="#c3dcf2"/>
      <path id="Path_1369" data-name="Path 1369" d="M1114.69,780.482q10.394,5.912,20.784,11.83c1.688.965,3.259,2.159,5.224,2.551l.184.178c-.047,5.725-.085,11.449-.144,17.174-.013,1.22.184,2.484-.567,3.591-7.986-4.588-15.962-9.193-23.968-13.744a2.755,2.755,0,0,1-1.648-2.711C1114.644,793.062,1114.652,786.771,1114.69,780.482Z" transform="translate(-50.866 -172.973)" fill="#a0c7f3"/>
      <path id="Path_1370" data-name="Path 1370" d="M1162.588,818.889c.751-1.107.555-2.372.567-3.591.059-5.724.1-11.449.144-17.173,6.249-2.971,12.009-6.813,18.059-10.14,2.708-1.489,3.158-1.279,3.162,1.835.008,5.758-.05,11.516-.08,17.274q-9.748,5.576-19.506,11.135C1164.235,818.625,1163.608,819.535,1162.588,818.889Z" transform="translate(-73.284 -176.057)" fill="#75a4d2"/>
      <path id="Path_1371" data-name="Path 1371" d="M1074.865,773.4c-.6-3.618-.164-7.263-.271-10.893-.04-1.374.836-2.052,1.882-2.649q9.706-5.544,19.4-11.1.005,6.63.012,13.26c-2.6.459-4.56,2.2-6.777,3.4C1084.334,768.026,1079.794,771.063,1074.865,773.4Z" transform="translate(-32.194 -158.169)" fill="#75a4d2"/>
    </g>
  </g>
</svg>
