<svg xmlns="http://www.w3.org/2000/svg" xmlns:xlink="http://www.w3.org/1999/xlink" width="700" height="349" viewBox="0 0 700 349">
  <defs>
    <linearGradient id="linear-gradient" x1="0.209" y1="0.021" x2="0.842" y2="0.442" gradientUnits="objectBoundingBox">
      <stop offset="0" stop-color="#444a52"/>
      <stop offset="1" stop-color="#0b0e11"/>
    </linearGradient>
    <linearGradient id="linear-gradient-2" x1="0.791" y1="0.021" x2="0.158" y2="0.442" xlink:href="#linear-gradient"/>
    <linearGradient id="linear-gradient-3" x1="0.304" y1="0.768" x2="0.832" y2="0.489" gradientUnits="objectBoundingBox">
      <stop offset="0" stop-color="#272c32"/>
      <stop offset="1" stop-color="#0b0e11"/>
    </linearGradient>
    <filter id="Referans_kodunu_arkadaşlarınla_paylaşarak_25_referans_geliri_kazanabilirsin_" x="32.5" y="236.5" width="407" height="113" filterUnits="userSpaceOnUse">
      <feOffset dy="3" input="SourceAlpha"/>
      <feGaussianBlur stdDeviation="7.5" result="blur"/>
      <feFlood/>
      <feComposite operator="in" in2="blur"/>
      <feComposite in="SourceGraphic"/>
    </filter>
    <clipPath id="clip-Artboard_17">
      <rect width="700" height="349"/>
    </clipPath>
  </defs>
  <g id="Artboard_17" data-name="Artboard – 17" clip-path="url(#clip-Artboard_17)">
    <rect width="700" height="349" fill="#fff"/>
    <path id="Path_37" data-name="Path 37" d="M292.074-265,566.452-614.4H962.89V-265Z" transform="translate(-263 614)" fill="url(#linear-gradient)"/>
    <path id="Path_38" data-name="Path 38" d="M615.112-265,962.89-614.4H566.452V-265Z" transform="translate(-566 614)" fill="url(#linear-gradient-2)"/>
    <path id="Path_39" data-name="Path 39" d="M2527.148-265.58l183.685-184.3,184.324,184.509Z" transform="translate(-2478 614)" fill="url(#linear-gradient-3)"/>
    <path id="Path_45" data-name="Path 45" d="M1050.922,996.226c7.559,0,15.119-.064,22.677.04a3.784,3.784,0,0,0,3.855-2.16c7.76-13.409,15.65-26.742,23.435-40.137a3.865,3.865,0,0,1,3.8-2.331c8.611.107,17.223.088,25.836.024a3.877,3.877,0,0,1,3.89,2.2q6.457,11.345,13.194,22.529a4.124,4.124,0,0,1,.043,4.912c-7.817,13.154-15.468,26.4-23.266,39.569a4.191,4.191,0,0,0-.022,4.935q10.344,17.383,20.437,34.914a3.771,3.771,0,0,0,3.82,2.21c6.888-.113,13.781-.117,20.666.041a4.375,4.375,0,0,1,3.092,1.738c3.61,5.636,7.141,11.332,10.437,17.156,1.185,2.094,2.6,2.633,4.816,2.593,6.505-.118,13.013,0,19.519-.085a3.832,3.832,0,0,1,3.895,2.155q6.6,11.595,13.482,23.027a3.48,3.48,0,0,1-.1,4.137q-10,16.578-19.857,33.235a69.516,69.516,0,0,0-4.13,7.844,4.269,4.269,0,0,0,.431,3.291q11.615,20.1,23.43,40.086a3.932,3.932,0,0,1,.048,4.65q-6.883,11.429-13.488,23.023a3.319,3.319,0,0,1-3.43,1.825c-8.707-.054-17.416-.091-26.122.024a3.809,3.809,0,0,1-3.813-2.251c-7.736-13.313-15.583-26.562-23.3-39.884a4.013,4.013,0,0,0-4-2.41q-19.95.145-39.9,0a3.852,3.852,0,0,0-3.824,2.288c-3.4,5.987-6.96,11.885-10.356,17.875a3.547,3.547,0,0,1-3.594,2.1c-6.792-.114-13.588.016-20.38-.086a3.8,3.8,0,0,0-3.871,2.191c-3.43,6.078-7.067,12.041-10.51,18.112a3.567,3.567,0,0,1-3.613,2.065c-8.707-.094-17.416-.108-26.122.008a3.79,3.79,0,0,1-3.787-2.27c-7.671-13.24-15.458-26.413-23.112-39.663a4.456,4.456,0,0,0-4.475-2.633c-14.735.129-29.472.036-44.207.136a5.152,5.152,0,0,1-5.226-2.95c-4.181-7.5-8.561-14.89-12.985-22.25a3.506,3.506,0,0,1,.057-4.164c3.574-5.952,7.008-11.989,10.54-17.968a57.012,57.012,0,0,1,4.046-6.219c.477-.609,1.789-.781,2.721-.784,14.927-.044,29.855-.073,44.782.023a4.707,4.707,0,0,0,4.775-2.646q9.916-17.3,20.127-34.426c1.057-1.778,1.187-3.1.03-4.907-3.5-5.481-6.723-11.139-10.207-16.63a3.975,3.975,0,0,1-.082-4.881c3.612-5.861,6.968-11.879,10.535-17.769a3.537,3.537,0,0,0-.011-4.175c-3.6-5.982-7.041-12.059-10.65-18.035a3.506,3.506,0,0,1-.046-4.156q6.866-11.439,13.5-23.015a3.594,3.594,0,0,1,3.606-2.1C1035.611,996.281,1043.266,996.229,1050.922,996.226Zm76.49,132.66c7.654,0,15.31.076,22.961-.08a4.649,4.649,0,0,0,3.4-1.77q10.69-17.841,21.033-35.888a4.234,4.234,0,0,0,0-3.543c-2.468-4.424-5.1-8.768-7.9-12.985a4.832,4.832,0,0,0-3.355-1.847c-5.063-.2-10.143-.2-15.206,0a4.775,4.775,0,0,0-3.312,1.911q-5.348,8.325-10.288,16.91a4.718,4.718,0,0,1-4.757,2.726c-8.225-.159-16.457-.145-24.683-.006a4.467,4.467,0,0,1-4.544-2.52c-7.708-13.106-15.57-26.121-23.313-39.206a3.514,3.514,0,0,0-3.636-2.075c-2.656.164-5.33.056-8,.056-10.6,0-21.206.066-31.808-.058a4.186,4.186,0,0,0-4.28,2.477c-2.35,4.272-4.839,8.472-7.4,12.622a3.365,3.365,0,0,0-.062,4.137q3.957,6.151,7.576,12.516a3.868,3.868,0,0,0,3.9,2.182c6.7-.094,13.4.026,20.091-.065a4.073,4.073,0,0,1,4.1,2.335q6.463,11.34,13.209,22.516a3.912,3.912,0,0,1-.042,4.644c-7.854,13.242-15.595,26.55-23.4,39.821-.808,1.373-1.3,2.465-.3,4.142q10.57,17.743,20.879,35.642a3.613,3.613,0,0,0,3.62,2.108c5.069-.107,10.145.066,15.209-.115a4.413,4.413,0,0,0,3.093-1.761c2.814-4.439,5.324-9.07,8.09-13.541a3.262,3.262,0,0,0-.041-3.9c-3.593-5.984-7.045-12.052-10.65-18.028a3.718,3.718,0,0,1-.036-4.421q6.814-11.3,13.336-22.775a3.8,3.8,0,0,1,3.848-2.216C1112.294,1128.948,1119.854,1128.88,1127.412,1128.886ZM979.87,1173.3c7.366,0,14.734.079,22.1-.048a4.636,4.636,0,0,1,4.769,2.627c7.673,13.346,15.534,26.583,23.266,39.9a3.541,3.541,0,0,0,3.57,2.126c5.066-.132,10.143.057,15.206-.129a4.417,4.417,0,0,0,3.083-1.788c2.764-4.357,5.209-8.916,7.942-13.294a3.661,3.661,0,0,0-.013-4.405c-7.839-13.248-15.544-26.575-23.4-39.813a4.1,4.1,0,0,1-.04-4.885c7.866-13.232,15.572-26.559,23.416-39.8a3.637,3.637,0,0,0,.055-4.395c-2.689-4.292-5.229-8.682-7.679-13.116a3.562,3.562,0,0,0-3.657-2.042c-4.973.094-9.95.1-14.923-.006a3.591,3.591,0,0,0-3.608,2.108q-11.781,20.331-23.757,40.548a3.747,3.747,0,0,1-2.57,1.678c-4.861.167-9.73.112-14.6.084-10.6-.062-21.2-.122-31.792-.266a3.686,3.686,0,0,0-3.684,2.027c-2.3,3.934-4.759,7.773-7.144,11.656-1.545,2.516-1.892,4.806.052,7.539a105.356,105.356,0,0,1,6.7,11.354,3.949,3.949,0,0,0,4.035,2.391C964.754,1173.242,972.312,1173.3,979.87,1173.3Zm153.175,0c7.465,0,14.932.092,22.394-.056a4.437,4.437,0,0,1,4.506,2.609c7.7,13.337,15.543,26.59,23.273,39.909a3.578,3.578,0,0,0,3.584,2.148c5.07-.123,10.148.058,15.213-.127a4.4,4.4,0,0,0,3.066-1.777c2.721-4.274,5.113-8.755,7.817-13.042a4.048,4.048,0,0,0,.01-4.9q-11.857-19.96-23.448-40.076a4.246,4.246,0,0,1-.248-3.521c3.849-6.892,7.9-13.67,11.9-20.48,4.007-6.833,7.973-13.69,12.062-20.474a3.233,3.233,0,0,0,.021-3.875c-2.742-4.488-5.253-9.12-8.062-13.564a4.438,4.438,0,0,0-3.125-1.745c-4.874-.181-9.763.052-14.637-.121-2.23-.079-3.4.709-4.495,2.615q-10.962,19.018-22.22,37.864a7.894,7.894,0,0,1-4.3,3.542c-2.833.643-5.882.4-8.842.411-12.411.029-24.823.046-37.234-.027a3.632,3.632,0,0,0-3.652,2.082c-2.527,4.5-5.293,8.878-7.719,13.433a4.7,4.7,0,0,0,.039,3.81c2.38,4.472,5.128,8.747,7.56,13.193a3.769,3.769,0,0,0,3.861,2.21C1117.923,1173.245,1125.484,1173.3,1133.045,1173.294Zm-76.5-167.3c-7.652,0-15.3.031-22.957-.026a3.353,3.353,0,0,0-3.46,1.83c-2.6,4.677-5.449,9.22-8.01,13.918a4.032,4.032,0,0,0,.014,3.306c2.367,4.369,5.074,8.553,7.428,12.929a4.608,4.608,0,0,0,4.711,2.754c14.922-.1,29.844-.018,44.765-.1a4.008,4.008,0,0,1,4.109,2.288c2.037,3.76,4.253,7.426,6.448,11.1,5.64,9.438,11.353,18.834,16.925,28.312a3.818,3.818,0,0,0,3.891,2.147c4.875-.12,9.757-.1,14.634-.01a3.622,3.622,0,0,0,3.715-1.968c2.469-4.312,5.236-8.457,7.633-12.808a4.59,4.59,0,0,0,.017-3.813q-11.627-20.556-23.568-40.935a3.146,3.146,0,0,1,.076-3.8c7.812-13.26,15.535-26.573,23.36-39.825.983-1.664,1.2-2.977.124-4.705-2.728-4.38-5.2-8.923-7.956-13.284a4.122,4.122,0,0,0-2.9-1.641c-4.968-.167-9.948.025-14.917-.125a4.207,4.207,0,0,0-4.283,2.476c-7.658,13.241-15.469,26.394-23.112,39.643a4.2,4.2,0,0,1-4.306,2.385C1071.468,1005.925,1064.006,1006,1056.545,1006Z" transform="translate(-588.804 -925.062) rotate(14)" fill="#2b2f36"/>
    <g id="Group_334" data-name="Group 334" transform="translate(-1310 1784)">
      <path id="Path_836" data-name="Path 836" d="M128,321.956c-.311,1.824-2.444,2.7-2.824,2.845a.023.023,0,0,0,0,.042c.38.142,2.513,1.016,2.824,2.839a.021.021,0,0,0,.042,0c.312-1.823,2.463-2.7,2.846-2.839a.022.022,0,0,0,0-.042c-.383-.143-2.534-1.021-2.846-2.845A.021.021,0,0,0,128,321.956Z" transform="translate(1861 -1772)" fill="#2b2f36"/>
      <path id="Path_837" data-name="Path 837" d="M136.2,321.956c-.311,1.824-2.444,2.7-2.824,2.845a.023.023,0,0,0,0,.042c.38.142,2.513,1.016,2.824,2.839a.021.021,0,0,0,.042,0c.312-1.823,2.463-2.7,2.846-2.839a.022.022,0,0,0,0-.042c-.383-.143-2.534-1.021-2.846-2.845A.021.021,0,0,0,136.2,321.956Z" transform="translate(1861 -1772)" fill="#2b2f36"/>
      <path id="Path_838" data-name="Path 838" d="M144.4,321.956c-.311,1.824-2.444,2.7-2.824,2.845a.022.022,0,0,0,0,.042c.38.142,2.513,1.016,2.824,2.839a.021.021,0,0,0,.042,0c.312-1.823,2.463-2.7,2.846-2.839a.022.022,0,0,0,0-.042c-.383-.143-2.534-1.021-2.846-2.845A.021.021,0,0,0,144.4,321.956Z" transform="translate(1861 -1772)" fill="#2b2f36"/>
      <path id="Path_839" data-name="Path 839" d="M152.6,321.956c-.31,1.824-2.443,2.7-2.823,2.845a.022.022,0,0,0,0,.042c.38.142,2.513,1.016,2.823,2.839a.022.022,0,0,0,.043,0c.312-1.823,2.462-2.7,2.846-2.839a.023.023,0,0,0,0-.042c-.383-.143-2.534-1.021-2.846-2.845A.022.022,0,0,0,152.6,321.956Z" transform="translate(1861 -1772)" fill="#2b2f36"/>
      <path id="Path_840" data-name="Path 840" d="M160.8,321.956c-.31,1.824-2.443,2.7-2.823,2.845a.022.022,0,0,0,0,.042c.38.142,2.513,1.016,2.823,2.839a.022.022,0,0,0,.043,0c.311-1.823,2.462-2.7,2.846-2.839a.023.023,0,0,0,0-.042c-.384-.143-2.535-1.021-2.846-2.845A.022.022,0,0,0,160.8,321.956Z" transform="translate(1861 -1772)" fill="#2b2f36"/>
      <path id="Path_841" data-name="Path 841" d="M169.005,321.956c-.311,1.824-2.444,2.7-2.823,2.845a.022.022,0,0,0,0,.042c.38.142,2.512,1.016,2.823,2.839a.022.022,0,0,0,.043,0c.311-1.823,2.462-2.7,2.845-2.839a.022.022,0,0,0,0-.042c-.384-.143-2.535-1.021-2.846-2.845A.022.022,0,0,0,169.005,321.956Z" transform="translate(1861 -1772)" fill="#2b2f36"/>
      <path id="Path_842" data-name="Path 842" d="M177.207,321.956c-.311,1.824-2.444,2.7-2.824,2.845a.023.023,0,0,0,0,.042c.38.142,2.513,1.016,2.824,2.839a.021.021,0,0,0,.042,0c.312-1.823,2.463-2.7,2.846-2.839a.022.022,0,0,0,0-.042c-.383-.143-2.534-1.021-2.846-2.845A.021.021,0,0,0,177.207,321.956Z" transform="translate(1861 -1772)" fill="#2b2f36"/>
      <path id="Path_843" data-name="Path 843" d="M185.409,321.956c-.311,1.824-2.444,2.7-2.824,2.845a.023.023,0,0,0,0,.042c.38.142,2.513,1.016,2.824,2.839a.021.021,0,0,0,.042,0c.312-1.823,2.463-2.7,2.846-2.839a.022.022,0,0,0,0-.042c-.383-.143-2.534-1.021-2.846-2.845A.021.021,0,0,0,185.409,321.956Z" transform="translate(1861 -1772)" fill="#2b2f36"/>
      <path id="Path_844" data-name="Path 844" d="M193.611,321.956c-.311,1.824-2.444,2.7-2.824,2.845a.023.023,0,0,0,0,.042c.38.142,2.513,1.016,2.824,2.839a.021.021,0,0,0,.042,0c.312-1.823,2.463-2.7,2.846-2.839a.022.022,0,0,0,0-.042c-.383-.143-2.534-1.021-2.846-2.845A.021.021,0,0,0,193.611,321.956Z" transform="translate(1861 -1772)" fill="#2b2f36"/>
      <path id="Path_845" data-name="Path 845" d="M201.812,321.956c-.31,1.824-2.443,2.7-2.823,2.845a.022.022,0,0,0,0,.042c.38.142,2.513,1.016,2.823,2.839a.022.022,0,0,0,.043,0c.312-1.823,2.462-2.7,2.846-2.839a.022.022,0,0,0,0-.042c-.383-.143-2.534-1.021-2.846-2.845A.022.022,0,0,0,201.812,321.956Z" transform="translate(1861 -1772)" fill="#2b2f36"/>
      <path id="Path_846" data-name="Path 846" d="M45.977,321.956c-.31,1.824-2.443,2.7-2.823,2.845a.022.022,0,0,0,0,.042c.38.142,2.513,1.016,2.823,2.839a.022.022,0,0,0,.043,0c.312-1.823,2.462-2.7,2.846-2.839a.022.022,0,0,0,0-.042c-.383-.143-2.534-1.021-2.846-2.845A.022.022,0,0,0,45.977,321.956Z" transform="translate(1861 -1772)" fill="#2b2f36"/>
      <path id="Path_847" data-name="Path 847" d="M54.179,321.956c-.31,1.824-2.443,2.7-2.823,2.845a.022.022,0,0,0,0,.042c.38.142,2.513,1.016,2.823,2.839a.022.022,0,0,0,.043,0c.311-1.823,2.462-2.7,2.846-2.839a.023.023,0,0,0,0-.042c-.384-.143-2.535-1.021-2.846-2.845A.022.022,0,0,0,54.179,321.956Z" transform="translate(1861 -1772)" fill="#2b2f36"/>
      <path id="Path_848" data-name="Path 848" d="M62.381,321.956c-.311,1.824-2.443,2.7-2.823,2.845a.022.022,0,0,0,0,.042c.38.142,2.512,1.016,2.823,2.839a.022.022,0,0,0,.043,0c.311-1.823,2.462-2.7,2.846-2.839a.023.023,0,0,0,0-.042c-.384-.143-2.535-1.021-2.846-2.845A.022.022,0,0,0,62.381,321.956Z" transform="translate(1861 -1772)" fill="#2b2f36"/>
      <path id="Path_849" data-name="Path 849" d="M70.583,321.956c-.311,1.824-2.444,2.7-2.823,2.845a.022.022,0,0,0,0,.042c.38.142,2.512,1.016,2.823,2.839a.022.022,0,0,0,.043,0c.311-1.823,2.462-2.7,2.845-2.839a.022.022,0,0,0,0-.042c-.383-.143-2.534-1.021-2.845-2.845A.022.022,0,0,0,70.583,321.956Z" transform="translate(1861 -1772)" fill="#2b2f36"/>
      <path id="Path_850" data-name="Path 850" d="M78.785,321.956c-.311,1.824-2.444,2.7-2.824,2.845a.023.023,0,0,0,0,.042c.38.142,2.513,1.016,2.824,2.839a.021.021,0,0,0,.042,0c.312-1.823,2.463-2.7,2.846-2.839a.022.022,0,0,0,0-.042c-.383-.143-2.534-1.021-2.846-2.845A.021.021,0,0,0,78.785,321.956Z" transform="translate(1861 -1772)" fill="#2b2f36"/>
      <path id="Path_851" data-name="Path 851" d="M86.987,321.956c-.311,1.824-2.444,2.7-2.824,2.845a.023.023,0,0,0,0,.042c.38.142,2.513,1.016,2.824,2.839a.021.021,0,0,0,.042,0c.312-1.823,2.463-2.7,2.846-2.839a.022.022,0,0,0,0-.042c-.383-.143-2.534-1.021-2.846-2.845A.021.021,0,0,0,86.987,321.956Z" transform="translate(1861 -1772)" fill="#2b2f36"/>
      <path id="Path_852" data-name="Path 852" d="M95.189,321.956c-.311,1.824-2.444,2.7-2.824,2.845a.023.023,0,0,0,0,.042c.38.142,2.513,1.016,2.824,2.839a.021.021,0,0,0,.042,0c.312-1.823,2.463-2.7,2.846-2.839a.022.022,0,0,0,0-.042c-.383-.143-2.534-1.021-2.846-2.845A.021.021,0,0,0,95.189,321.956Z" transform="translate(1861 -1772)" fill="#2b2f36"/>
      <path id="Path_853" data-name="Path 853" d="M103.39,321.956c-.31,1.824-2.443,2.7-2.823,2.845a.022.022,0,0,0,0,.042c.38.142,2.513,1.016,2.823,2.839a.022.022,0,0,0,.043,0c.311-1.823,2.462-2.7,2.846-2.839a.023.023,0,0,0,0-.042c-.384-.143-2.535-1.021-2.846-2.845A.022.022,0,0,0,103.39,321.956Z" transform="translate(1861 -1772)" fill="#2b2f36"/>
      <path id="Path_854" data-name="Path 854" d="M111.592,321.956c-.31,1.824-2.443,2.7-2.823,2.845a.022.022,0,0,0,0,.042c.38.142,2.513,1.016,2.823,2.839a.022.022,0,0,0,.043,0c.311-1.823,2.462-2.7,2.846-2.839a.023.023,0,0,0,0-.042c-.384-.143-2.535-1.021-2.846-2.845A.022.022,0,0,0,111.592,321.956Z" transform="translate(1861 -1772)" fill="#2b2f36"/>
      <path id="Path_855" data-name="Path 855" d="M119.794,321.956c-.311,1.824-2.444,2.7-2.823,2.845a.022.022,0,0,0,0,.042c.38.142,2.512,1.016,2.823,2.839a.022.022,0,0,0,.043,0c.311-1.823,2.462-2.7,2.845-2.839a.022.022,0,0,0,0-.042c-.383-.143-2.534-1.021-2.845-2.845A.022.022,0,0,0,119.794,321.956Z" transform="translate(1861 -1772)" fill="#2b2f36"/>
      <path id="Path_856" data-name="Path 856" d="M128,313.72c-.311,1.824-2.444,2.7-2.824,2.845a.023.023,0,0,0,0,.042c.38.142,2.513,1.015,2.824,2.839a.021.021,0,0,0,.042,0c.312-1.823,2.463-2.7,2.846-2.839a.022.022,0,0,0,0-.042c-.383-.143-2.534-1.021-2.846-2.845A.021.021,0,0,0,128,313.72Z" transform="translate(1861 -1772)" fill="#2b2f36"/>
      <path id="Path_857" data-name="Path 857" d="M136.2,313.72c-.311,1.824-2.444,2.7-2.824,2.845a.023.023,0,0,0,0,.042c.38.142,2.513,1.015,2.824,2.839a.021.021,0,0,0,.042,0c.312-1.823,2.463-2.7,2.846-2.839a.022.022,0,0,0,0-.042c-.383-.143-2.534-1.021-2.846-2.845A.021.021,0,0,0,136.2,313.72Z" transform="translate(1861 -1772)" fill="#2b2f36"/>
      <path id="Path_858" data-name="Path 858" d="M144.4,313.72c-.311,1.824-2.444,2.7-2.824,2.845a.022.022,0,0,0,0,.042c.38.142,2.513,1.015,2.824,2.839a.021.021,0,0,0,.042,0c.312-1.823,2.463-2.7,2.846-2.839a.022.022,0,0,0,0-.042c-.383-.143-2.534-1.021-2.846-2.845A.021.021,0,0,0,144.4,313.72Z" transform="translate(1861 -1772)" fill="#2b2f36"/>
      <path id="Path_859" data-name="Path 859" d="M152.6,313.72c-.31,1.824-2.443,2.7-2.823,2.845a.022.022,0,0,0,0,.042c.38.142,2.513,1.015,2.823,2.839a.022.022,0,0,0,.043,0c.312-1.823,2.462-2.7,2.846-2.839a.023.023,0,0,0,0-.042c-.383-.143-2.534-1.021-2.846-2.845A.022.022,0,0,0,152.6,313.72Z" transform="translate(1861 -1772)" fill="#2b2f36"/>
      <path id="Path_860" data-name="Path 860" d="M160.8,313.72c-.31,1.824-2.443,2.7-2.823,2.845a.022.022,0,0,0,0,.042c.38.142,2.513,1.015,2.823,2.839a.022.022,0,0,0,.043,0c.311-1.823,2.462-2.7,2.846-2.839a.023.023,0,0,0,0-.042c-.384-.143-2.535-1.021-2.846-2.845A.022.022,0,0,0,160.8,313.72Z" transform="translate(1861 -1772)" fill="#2b2f36"/>
      <path id="Path_861" data-name="Path 861" d="M169.005,313.72c-.311,1.824-2.444,2.7-2.823,2.845a.022.022,0,0,0,0,.042c.38.142,2.512,1.015,2.823,2.839a.022.022,0,0,0,.043,0c.311-1.823,2.462-2.7,2.845-2.839a.022.022,0,0,0,0-.042c-.384-.143-2.535-1.021-2.846-2.845A.022.022,0,0,0,169.005,313.72Z" transform="translate(1861 -1772)" fill="#2b2f36"/>
      <path id="Path_862" data-name="Path 862" d="M177.207,313.72c-.311,1.824-2.444,2.7-2.824,2.845a.023.023,0,0,0,0,.042c.38.142,2.513,1.015,2.824,2.839a.021.021,0,0,0,.042,0c.312-1.823,2.463-2.7,2.846-2.839a.022.022,0,0,0,0-.042c-.383-.143-2.534-1.021-2.846-2.845A.021.021,0,0,0,177.207,313.72Z" transform="translate(1861 -1772)" fill="#2b2f36"/>
      <path id="Path_863" data-name="Path 863" d="M185.409,313.72c-.311,1.824-2.444,2.7-2.824,2.845a.023.023,0,0,0,0,.042c.38.142,2.513,1.015,2.824,2.839a.021.021,0,0,0,.042,0c.312-1.823,2.463-2.7,2.846-2.839a.022.022,0,0,0,0-.042c-.383-.143-2.534-1.021-2.846-2.845A.021.021,0,0,0,185.409,313.72Z" transform="translate(1861 -1772)" fill="#2b2f36"/>
      <path id="Path_864" data-name="Path 864" d="M193.611,313.72c-.311,1.824-2.444,2.7-2.824,2.845a.023.023,0,0,0,0,.042c.38.142,2.513,1.015,2.824,2.839a.021.021,0,0,0,.042,0c.312-1.823,2.463-2.7,2.846-2.839a.022.022,0,0,0,0-.042c-.383-.143-2.534-1.021-2.846-2.845A.021.021,0,0,0,193.611,313.72Z" transform="translate(1861 -1772)" fill="#2b2f36"/>
      <path id="Path_865" data-name="Path 865" d="M201.812,313.72c-.31,1.824-2.443,2.7-2.823,2.845a.022.022,0,0,0,0,.042c.38.142,2.513,1.015,2.823,2.839a.022.022,0,0,0,.043,0c.312-1.823,2.462-2.7,2.846-2.839a.022.022,0,0,0,0-.042c-.383-.143-2.534-1.021-2.846-2.845A.022.022,0,0,0,201.812,313.72Z" transform="translate(1861 -1772)" fill="#2b2f36"/>
      <path id="Path_866" data-name="Path 866" d="M45.977,313.72c-.31,1.824-2.443,2.7-2.823,2.845a.022.022,0,0,0,0,.042c.38.142,2.513,1.015,2.823,2.839a.022.022,0,0,0,.043,0c.312-1.823,2.462-2.7,2.846-2.839a.022.022,0,0,0,0-.042c-.383-.143-2.534-1.021-2.846-2.845A.022.022,0,0,0,45.977,313.72Z" transform="translate(1861 -1772)" fill="#2b2f36"/>
      <path id="Path_867" data-name="Path 867" d="M54.179,313.72c-.31,1.824-2.443,2.7-2.823,2.845a.022.022,0,0,0,0,.042c.38.142,2.513,1.015,2.823,2.839a.022.022,0,0,0,.043,0c.311-1.823,2.462-2.7,2.846-2.839a.023.023,0,0,0,0-.042c-.384-.143-2.535-1.021-2.846-2.845A.022.022,0,0,0,54.179,313.72Z" transform="translate(1861 -1772)" fill="#2b2f36"/>
      <path id="Path_868" data-name="Path 868" d="M62.381,313.72c-.311,1.824-2.443,2.7-2.823,2.845a.022.022,0,0,0,0,.042c.38.142,2.512,1.015,2.823,2.839a.022.022,0,0,0,.043,0c.311-1.823,2.462-2.7,2.846-2.839a.023.023,0,0,0,0-.042c-.384-.143-2.535-1.021-2.846-2.845A.022.022,0,0,0,62.381,313.72Z" transform="translate(1861 -1772)" fill="#2b2f36"/>
      <path id="Path_869" data-name="Path 869" d="M70.583,313.72c-.311,1.824-2.444,2.7-2.823,2.845a.022.022,0,0,0,0,.042c.38.142,2.512,1.015,2.823,2.839a.022.022,0,0,0,.043,0c.311-1.823,2.462-2.7,2.845-2.839a.022.022,0,0,0,0-.042c-.383-.143-2.534-1.021-2.845-2.845A.022.022,0,0,0,70.583,313.72Z" transform="translate(1861 -1772)" fill="#2b2f36"/>
      <path id="Path_870" data-name="Path 870" d="M78.785,313.72c-.311,1.824-2.444,2.7-2.824,2.845a.023.023,0,0,0,0,.042c.38.142,2.513,1.015,2.824,2.839a.021.021,0,0,0,.042,0c.312-1.823,2.463-2.7,2.846-2.839a.022.022,0,0,0,0-.042c-.383-.143-2.534-1.021-2.846-2.845A.021.021,0,0,0,78.785,313.72Z" transform="translate(1861 -1772)" fill="#2b2f36"/>
      <path id="Path_871" data-name="Path 871" d="M86.987,313.72c-.311,1.824-2.444,2.7-2.824,2.845a.023.023,0,0,0,0,.042c.38.142,2.513,1.015,2.824,2.839a.021.021,0,0,0,.042,0c.312-1.823,2.463-2.7,2.846-2.839a.022.022,0,0,0,0-.042c-.383-.143-2.534-1.021-2.846-2.845A.021.021,0,0,0,86.987,313.72Z" transform="translate(1861 -1772)" fill="#2b2f36"/>
      <path id="Path_872" data-name="Path 872" d="M95.189,313.72c-.311,1.824-2.444,2.7-2.824,2.845a.023.023,0,0,0,0,.042c.38.142,2.513,1.015,2.824,2.839a.021.021,0,0,0,.042,0c.312-1.823,2.463-2.7,2.846-2.839a.022.022,0,0,0,0-.042c-.383-.143-2.534-1.021-2.846-2.845A.021.021,0,0,0,95.189,313.72Z" transform="translate(1861 -1772)" fill="#2b2f36"/>
      <path id="Path_873" data-name="Path 873" d="M103.39,313.72c-.31,1.824-2.443,2.7-2.823,2.845a.022.022,0,0,0,0,.042c.38.142,2.513,1.015,2.823,2.839a.022.022,0,0,0,.043,0c.311-1.823,2.462-2.7,2.846-2.839a.023.023,0,0,0,0-.042c-.384-.143-2.535-1.021-2.846-2.845A.022.022,0,0,0,103.39,313.72Z" transform="translate(1861 -1772)" fill="#2b2f36"/>
      <path id="Path_874" data-name="Path 874" d="M111.592,313.72c-.31,1.824-2.443,2.7-2.823,2.845a.022.022,0,0,0,0,.042c.38.142,2.513,1.015,2.823,2.839a.022.022,0,0,0,.043,0c.311-1.823,2.462-2.7,2.846-2.839a.023.023,0,0,0,0-.042c-.384-.143-2.535-1.021-2.846-2.845A.022.022,0,0,0,111.592,313.72Z" transform="translate(1861 -1772)" fill="#2b2f36"/>
      <path id="Path_875" data-name="Path 875" d="M119.794,313.72c-.311,1.824-2.444,2.7-2.823,2.845a.022.022,0,0,0,0,.042c.38.142,2.512,1.015,2.823,2.839a.022.022,0,0,0,.043,0c.311-1.823,2.462-2.7,2.845-2.839a.022.022,0,0,0,0-.042c-.383-.143-2.534-1.021-2.845-2.845A.022.022,0,0,0,119.794,313.72Z" transform="translate(1861 -1772)" fill="#2b2f36"/>
      <path id="Path_876" data-name="Path 876" d="M128,305.484c-.311,1.824-2.444,2.7-2.824,2.845a.023.023,0,0,0,0,.042c.38.142,2.513,1.016,2.824,2.839a.021.021,0,0,0,.042,0c.312-1.823,2.463-2.7,2.846-2.839a.022.022,0,0,0,0-.042c-.383-.143-2.534-1.021-2.846-2.845A.021.021,0,0,0,128,305.484Z" transform="translate(1861 -1772)" fill="#2b2f36"/>
      <path id="Path_877" data-name="Path 877" d="M136.2,305.484c-.311,1.824-2.444,2.7-2.824,2.845a.023.023,0,0,0,0,.042c.38.142,2.513,1.016,2.824,2.839a.021.021,0,0,0,.042,0c.312-1.823,2.463-2.7,2.846-2.839a.022.022,0,0,0,0-.042c-.383-.143-2.534-1.021-2.846-2.845A.021.021,0,0,0,136.2,305.484Z" transform="translate(1861 -1772)" fill="#2b2f36"/>
      <path id="Path_878" data-name="Path 878" d="M144.4,305.484c-.311,1.824-2.444,2.7-2.824,2.845a.022.022,0,0,0,0,.042c.38.142,2.513,1.016,2.824,2.839a.021.021,0,0,0,.042,0c.312-1.823,2.463-2.7,2.846-2.839a.022.022,0,0,0,0-.042c-.383-.143-2.534-1.021-2.846-2.845A.021.021,0,0,0,144.4,305.484Z" transform="translate(1861 -1772)" fill="#2b2f36"/>
      <path id="Path_879" data-name="Path 879" d="M152.6,305.484c-.31,1.824-2.443,2.7-2.823,2.845a.022.022,0,0,0,0,.042c.38.142,2.513,1.016,2.823,2.839a.022.022,0,0,0,.043,0c.312-1.823,2.462-2.7,2.846-2.839a.023.023,0,0,0,0-.042c-.383-.143-2.534-1.021-2.846-2.845A.022.022,0,0,0,152.6,305.484Z" transform="translate(1861 -1772)" fill="#2b2f36"/>
      <path id="Path_880" data-name="Path 880" d="M160.8,305.484c-.31,1.824-2.443,2.7-2.823,2.845a.022.022,0,0,0,0,.042c.38.142,2.513,1.016,2.823,2.839a.022.022,0,0,0,.043,0c.311-1.823,2.462-2.7,2.846-2.839a.023.023,0,0,0,0-.042c-.384-.143-2.535-1.021-2.846-2.845A.022.022,0,0,0,160.8,305.484Z" transform="translate(1861 -1772)" fill="#2b2f36"/>
      <path id="Path_881" data-name="Path 881" d="M169.005,305.484c-.311,1.824-2.444,2.7-2.823,2.845a.022.022,0,0,0,0,.042c.38.142,2.512,1.016,2.823,2.839a.022.022,0,0,0,.043,0c.311-1.823,2.462-2.7,2.845-2.839a.022.022,0,0,0,0-.042c-.384-.143-2.535-1.021-2.846-2.845A.022.022,0,0,0,169.005,305.484Z" transform="translate(1861 -1772)" fill="#2b2f36"/>
      <path id="Path_882" data-name="Path 882" d="M177.207,305.484c-.311,1.824-2.444,2.7-2.824,2.845a.023.023,0,0,0,0,.042c.38.142,2.513,1.016,2.824,2.839a.021.021,0,0,0,.042,0c.312-1.823,2.463-2.7,2.846-2.839a.022.022,0,0,0,0-.042c-.383-.143-2.534-1.021-2.846-2.845A.021.021,0,0,0,177.207,305.484Z" transform="translate(1861 -1772)" fill="#2b2f36"/>
      <path id="Path_883" data-name="Path 883" d="M185.409,305.484c-.311,1.824-2.444,2.7-2.824,2.845a.023.023,0,0,0,0,.042c.38.142,2.513,1.016,2.824,2.839a.021.021,0,0,0,.042,0c.312-1.823,2.463-2.7,2.846-2.839a.022.022,0,0,0,0-.042c-.383-.143-2.534-1.021-2.846-2.845A.021.021,0,0,0,185.409,305.484Z" transform="translate(1861 -1772)" fill="#2b2f36"/>
      <path id="Path_884" data-name="Path 884" d="M193.611,305.484c-.311,1.824-2.444,2.7-2.824,2.845a.023.023,0,0,0,0,.042c.38.142,2.513,1.016,2.824,2.839a.021.021,0,0,0,.042,0c.312-1.823,2.463-2.7,2.846-2.839a.022.022,0,0,0,0-.042c-.383-.143-2.534-1.021-2.846-2.845A.021.021,0,0,0,193.611,305.484Z" transform="translate(1861 -1772)" fill="#2b2f36"/>
      <path id="Path_885" data-name="Path 885" d="M201.812,305.484c-.31,1.824-2.443,2.7-2.823,2.845a.022.022,0,0,0,0,.042c.38.142,2.513,1.016,2.823,2.839a.022.022,0,0,0,.043,0c.312-1.823,2.462-2.7,2.846-2.839a.022.022,0,0,0,0-.042c-.383-.143-2.534-1.021-2.846-2.845A.022.022,0,0,0,201.812,305.484Z" transform="translate(1861 -1772)" fill="#2b2f36"/>
      <path id="Path_886" data-name="Path 886" d="M210.014,321.956c-.31,1.824-2.443,2.7-2.823,2.845a.022.022,0,0,0,0,.042c.38.142,2.513,1.016,2.823,2.839a.022.022,0,0,0,.043,0c.311-1.823,2.462-2.7,2.846-2.839a.023.023,0,0,0,0-.042c-.384-.143-2.535-1.021-2.846-2.845A.022.022,0,0,0,210.014,321.956Z" transform="translate(1861 -1772)" fill="#2b2f36"/>
      <path id="Path_887" data-name="Path 887" d="M218.216,321.956c-.311,1.824-2.443,2.7-2.823,2.845a.022.022,0,0,0,0,.042c.38.142,2.512,1.016,2.823,2.839a.022.022,0,0,0,.043,0c.311-1.823,2.462-2.7,2.846-2.839a.023.023,0,0,0,0-.042c-.384-.143-2.535-1.021-2.846-2.845A.022.022,0,0,0,218.216,321.956Z" transform="translate(1861 -1772)" fill="#2b2f36"/>
      <path id="Path_888" data-name="Path 888" d="M226.418,321.956c-.311,1.824-2.444,2.7-2.824,2.845a.022.022,0,0,0,0,.042c.38.142,2.512,1.016,2.823,2.839a.021.021,0,0,0,.042,0c.312-1.823,2.463-2.7,2.846-2.839a.022.022,0,0,0,0-.042c-.383-.143-2.534-1.021-2.846-2.845A.021.021,0,0,0,226.418,321.956Z" transform="translate(1861 -1772)" fill="#2b2f36"/>
      <path id="Path_889" data-name="Path 889" d="M234.62,321.956c-.311,1.824-2.444,2.7-2.824,2.845a.023.023,0,0,0,0,.042c.38.142,2.513,1.016,2.824,2.839a.021.021,0,0,0,.042,0c.312-1.823,2.463-2.7,2.846-2.839a.022.022,0,0,0,0-.042c-.383-.143-2.534-1.021-2.846-2.845A.021.021,0,0,0,234.62,321.956Z" transform="translate(1861 -1772)" fill="#2b2f36"/>
      <path id="Path_890" data-name="Path 890" d="M210.014,313.72c-.31,1.824-2.443,2.7-2.823,2.845a.022.022,0,0,0,0,.042c.38.142,2.513,1.015,2.823,2.839a.022.022,0,0,0,.043,0c.311-1.823,2.462-2.7,2.846-2.839a.023.023,0,0,0,0-.042c-.384-.143-2.535-1.021-2.846-2.845A.022.022,0,0,0,210.014,313.72Z" transform="translate(1861 -1772)" fill="#2b2f36"/>
      <path id="Path_891" data-name="Path 891" d="M218.216,313.72c-.311,1.824-2.443,2.7-2.823,2.845a.022.022,0,0,0,0,.042c.38.142,2.512,1.015,2.823,2.839a.022.022,0,0,0,.043,0c.311-1.823,2.462-2.7,2.846-2.839a.023.023,0,0,0,0-.042c-.384-.143-2.535-1.021-2.846-2.845A.022.022,0,0,0,218.216,313.72Z" transform="translate(1861 -1772)" fill="#2b2f36"/>
      <path id="Path_892" data-name="Path 892" d="M226.418,313.72c-.311,1.824-2.444,2.7-2.824,2.845a.022.022,0,0,0,0,.042c.38.142,2.512,1.015,2.823,2.839a.021.021,0,0,0,.042,0c.312-1.823,2.463-2.7,2.846-2.839a.022.022,0,0,0,0-.042c-.383-.143-2.534-1.021-2.846-2.845A.021.021,0,0,0,226.418,313.72Z" transform="translate(1861 -1772)" fill="#2b2f36"/>
      <path id="Path_893" data-name="Path 893" d="M234.62,313.72c-.311,1.824-2.444,2.7-2.824,2.845a.023.023,0,0,0,0,.042c.38.142,2.513,1.015,2.824,2.839a.021.021,0,0,0,.042,0c.312-1.823,2.463-2.7,2.846-2.839a.022.022,0,0,0,0-.042c-.383-.143-2.534-1.021-2.846-2.845A.021.021,0,0,0,234.62,313.72Z" transform="translate(1861 -1772)" fill="#2b2f36"/>
      <path id="Path_894" data-name="Path 894" d="M210.014,305.484c-.31,1.824-2.443,2.7-2.823,2.845a.022.022,0,0,0,0,.042c.38.142,2.513,1.016,2.823,2.839a.022.022,0,0,0,.043,0c.311-1.823,2.462-2.7,2.846-2.839a.023.023,0,0,0,0-.042c-.384-.143-2.535-1.021-2.846-2.845A.022.022,0,0,0,210.014,305.484Z" transform="translate(1861 -1772)" fill="#2b2f36"/>
      <path id="Path_895" data-name="Path 895" d="M218.216,305.484c-.311,1.824-2.443,2.7-2.823,2.845a.022.022,0,0,0,0,.042c.38.142,2.512,1.016,2.823,2.839a.022.022,0,0,0,.043,0c.311-1.823,2.462-2.7,2.846-2.839a.023.023,0,0,0,0-.042c-.384-.143-2.535-1.021-2.846-2.845A.022.022,0,0,0,218.216,305.484Z" transform="translate(1861 -1772)" fill="#2b2f36"/>
      <path id="Path_896" data-name="Path 896" d="M45.977,305.484c-.31,1.824-2.443,2.7-2.823,2.845a.022.022,0,0,0,0,.042c.38.142,2.513,1.016,2.823,2.839a.022.022,0,0,0,.043,0c.312-1.823,2.462-2.7,2.846-2.839a.022.022,0,0,0,0-.042c-.383-.143-2.534-1.021-2.846-2.845A.022.022,0,0,0,45.977,305.484Z" transform="translate(1861 -1772)" fill="#2b2f36"/>
      <path id="Path_897" data-name="Path 897" d="M54.179,305.484c-.31,1.824-2.443,2.7-2.823,2.845a.022.022,0,0,0,0,.042c.38.142,2.513,1.016,2.823,2.839a.022.022,0,0,0,.043,0c.311-1.823,2.462-2.7,2.846-2.839a.023.023,0,0,0,0-.042c-.384-.143-2.535-1.021-2.846-2.845A.022.022,0,0,0,54.179,305.484Z" transform="translate(1861 -1772)" fill="#2b2f36"/>
      <path id="Path_898" data-name="Path 898" d="M62.381,305.484c-.311,1.824-2.443,2.7-2.823,2.845a.022.022,0,0,0,0,.042c.38.142,2.512,1.016,2.823,2.839a.022.022,0,0,0,.043,0c.311-1.823,2.462-2.7,2.846-2.839a.023.023,0,0,0,0-.042c-.384-.143-2.535-1.021-2.846-2.845A.022.022,0,0,0,62.381,305.484Z" transform="translate(1861 -1772)" fill="#2b2f36"/>
      <path id="Path_899" data-name="Path 899" d="M70.583,305.484c-.311,1.824-2.444,2.7-2.823,2.845a.022.022,0,0,0,0,.042c.38.142,2.512,1.016,2.823,2.839a.022.022,0,0,0,.043,0c.311-1.823,2.462-2.7,2.845-2.839a.022.022,0,0,0,0-.042c-.383-.143-2.534-1.021-2.845-2.845A.022.022,0,0,0,70.583,305.484Z" transform="translate(1861 -1772)" fill="#2b2f36"/>
      <path id="Path_900" data-name="Path 900" d="M78.785,305.484c-.311,1.824-2.444,2.7-2.824,2.845a.023.023,0,0,0,0,.042c.38.142,2.513,1.016,2.824,2.839a.021.021,0,0,0,.042,0c.312-1.823,2.463-2.7,2.846-2.839a.022.022,0,0,0,0-.042c-.383-.143-2.534-1.021-2.846-2.845A.021.021,0,0,0,78.785,305.484Z" transform="translate(1861 -1772)" fill="#2b2f36"/>
      <path id="Path_901" data-name="Path 901" d="M86.987,305.484c-.311,1.824-2.444,2.7-2.824,2.845a.023.023,0,0,0,0,.042c.38.142,2.513,1.016,2.824,2.839a.021.021,0,0,0,.042,0c.312-1.823,2.463-2.7,2.846-2.839a.022.022,0,0,0,0-.042c-.383-.143-2.534-1.021-2.846-2.845A.021.021,0,0,0,86.987,305.484Z" transform="translate(1861 -1772)" fill="#2b2f36"/>
      <path id="Path_902" data-name="Path 902" d="M95.189,305.484c-.311,1.824-2.444,2.7-2.824,2.845a.023.023,0,0,0,0,.042c.38.142,2.513,1.016,2.824,2.839a.021.021,0,0,0,.042,0c.312-1.823,2.463-2.7,2.846-2.839a.022.022,0,0,0,0-.042c-.383-.143-2.534-1.021-2.846-2.845A.021.021,0,0,0,95.189,305.484Z" transform="translate(1861 -1772)" fill="#2b2f36"/>
      <path id="Path_903" data-name="Path 903" d="M103.39,305.484c-.31,1.824-2.443,2.7-2.823,2.845a.022.022,0,0,0,0,.042c.38.142,2.513,1.016,2.823,2.839a.022.022,0,0,0,.043,0c.311-1.823,2.462-2.7,2.846-2.839a.023.023,0,0,0,0-.042c-.384-.143-2.535-1.021-2.846-2.845A.022.022,0,0,0,103.39,305.484Z" transform="translate(1861 -1772)" fill="#2b2f36"/>
      <path id="Path_904" data-name="Path 904" d="M111.592,305.484c-.31,1.824-2.443,2.7-2.823,2.845a.022.022,0,0,0,0,.042c.38.142,2.513,1.016,2.823,2.839a.022.022,0,0,0,.043,0c.311-1.823,2.462-2.7,2.846-2.839a.023.023,0,0,0,0-.042c-.384-.143-2.535-1.021-2.846-2.845A.022.022,0,0,0,111.592,305.484Z" transform="translate(1861 -1772)" fill="#2b2f36"/>
      <path id="Path_905" data-name="Path 905" d="M119.794,305.484c-.311,1.824-2.444,2.7-2.823,2.845a.022.022,0,0,0,0,.042c.38.142,2.512,1.016,2.823,2.839a.022.022,0,0,0,.043,0c.311-1.823,2.462-2.7,2.845-2.839a.022.022,0,0,0,0-.042c-.383-.143-2.534-1.021-2.845-2.845A.022.022,0,0,0,119.794,305.484Z" transform="translate(1861 -1772)" fill="#2b2f36"/>
    </g>
    <g id="Group_337" data-name="Group 337" transform="translate(168.139 14.464)">
      <path id="Path_836-2" data-name="Path 836" d="M128.061,321.956c.311,1.824,2.444,2.7,2.824,2.845a.023.023,0,0,1,0,.042c-.38.142-2.513,1.016-2.824,2.839a.021.021,0,0,1-.042,0c-.312-1.823-2.463-2.7-2.846-2.839a.022.022,0,0,1,0-.042c.383-.143,2.534-1.021,2.846-2.845A.021.021,0,0,1,128.061,321.956Z" transform="translate(-18.534 -305.464)" fill="#2b2f36"/>
      <path id="Path_837-2" data-name="Path 837" d="M136.263,321.956c.311,1.824,2.444,2.7,2.824,2.845a.023.023,0,0,1,0,.042c-.38.142-2.513,1.016-2.824,2.839a.021.021,0,0,1-.042,0c-.312-1.823-2.463-2.7-2.846-2.839a.022.022,0,0,1,0-.042c.383-.143,2.534-1.021,2.846-2.845A.021.021,0,0,1,136.263,321.956Z" transform="translate(-34.938 -305.464)" fill="#2b2f36"/>
      <path id="Path_838-2" data-name="Path 838" d="M144.464,321.956c.311,1.824,2.444,2.7,2.824,2.845a.022.022,0,0,1,0,.042c-.38.142-2.513,1.016-2.824,2.839a.021.021,0,0,1-.042,0c-.312-1.823-2.463-2.7-2.846-2.839a.022.022,0,0,1,0-.042c.383-.143,2.534-1.021,2.846-2.845A.021.021,0,0,1,144.464,321.956Z" transform="translate(-51.341 -305.464)" fill="#2b2f36"/>
      <path id="Path_839-2" data-name="Path 839" d="M152.666,321.956c.31,1.824,2.443,2.7,2.823,2.845a.022.022,0,0,1,0,.042c-.38.142-2.513,1.016-2.823,2.839a.022.022,0,0,1-.043,0c-.312-1.823-2.462-2.7-2.846-2.839a.023.023,0,0,1,0-.042c.383-.143,2.534-1.021,2.846-2.845A.022.022,0,0,1,152.666,321.956Z" transform="translate(-67.744 -305.464)" fill="#2b2f36"/>
      <path id="Path_840-2" data-name="Path 840" d="M160.868,321.956c.31,1.824,2.443,2.7,2.823,2.845a.022.022,0,0,1,0,.042c-.38.142-2.513,1.016-2.823,2.839a.022.022,0,0,1-.043,0c-.311-1.823-2.462-2.7-2.846-2.839a.023.023,0,0,1,0-.042c.384-.143,2.535-1.021,2.846-2.845A.022.022,0,0,1,160.868,321.956Z" transform="translate(-84.148 -305.464)" fill="#2b2f36"/>
      <path id="Path_841-2" data-name="Path 841" d="M169.07,321.956c.311,1.824,2.444,2.7,2.823,2.845a.022.022,0,0,1,0,.042c-.38.142-2.512,1.016-2.823,2.839a.022.022,0,0,1-.043,0c-.311-1.823-2.462-2.7-2.845-2.839a.022.022,0,0,1,0-.042c.384-.143,2.535-1.021,2.846-2.845A.022.022,0,0,1,169.07,321.956Z" transform="translate(-100.552 -305.464)" fill="#2b2f36"/>
      <path id="Path_842-2" data-name="Path 842" d="M177.272,321.956c.311,1.824,2.444,2.7,2.824,2.845a.023.023,0,0,1,0,.042c-.38.142-2.513,1.016-2.824,2.839a.021.021,0,0,1-.042,0c-.312-1.823-2.463-2.7-2.846-2.839a.022.022,0,0,1,0-.042c.383-.143,2.534-1.021,2.846-2.845A.021.021,0,0,1,177.272,321.956Z" transform="translate(-116.956 -305.464)" fill="#2b2f36"/>
      <path id="Path_843-2" data-name="Path 843" d="M185.474,321.956c.311,1.824,2.444,2.7,2.824,2.845a.023.023,0,0,1,0,.042c-.38.142-2.513,1.016-2.824,2.839a.021.021,0,0,1-.042,0c-.312-1.823-2.463-2.7-2.846-2.839a.022.022,0,0,1,0-.042c.383-.143,2.534-1.021,2.846-2.845A.021.021,0,0,1,185.474,321.956Z" transform="translate(-133.36 -305.464)" fill="#2b2f36"/>
      <path id="Path_844-2" data-name="Path 844" d="M193.676,321.956c.311,1.824,2.444,2.7,2.824,2.845a.023.023,0,0,1,0,.042c-.38.142-2.513,1.016-2.824,2.839a.021.021,0,0,1-.042,0c-.312-1.823-2.463-2.7-2.846-2.839a.022.022,0,0,1,0-.042c.383-.143,2.534-1.021,2.846-2.845A.021.021,0,0,1,193.676,321.956Z" transform="translate(-149.764 -305.464)" fill="#2b2f36"/>
      <path id="Path_845-2" data-name="Path 845" d="M201.878,321.956c.31,1.824,2.443,2.7,2.823,2.845a.022.022,0,0,1,0,.042c-.38.142-2.513,1.016-2.823,2.839a.022.022,0,0,1-.043,0c-.312-1.823-2.462-2.7-2.846-2.839a.022.022,0,0,1,0-.042c.383-.143,2.534-1.021,2.846-2.845A.022.022,0,0,1,201.878,321.956Z" transform="translate(-166.167 -305.464)" fill="#2b2f36"/>
      <path id="Path_848-2" data-name="Path 848" d="M62.446,321.956c.311,1.824,2.443,2.7,2.823,2.845a.022.022,0,0,1,0,.042c-.38.142-2.512,1.016-2.823,2.839a.022.022,0,0,1-.043,0c-.311-1.823-2.462-2.7-2.846-2.839a.023.023,0,0,1,0-.042c.384-.143,2.535-1.021,2.846-2.845A.022.022,0,0,1,62.446,321.956Z" transform="translate(112.696 -305.464)" fill="#2b2f36"/>
      <path id="Path_849-2" data-name="Path 849" d="M70.648,321.956c.311,1.824,2.444,2.7,2.823,2.845a.022.022,0,0,1,0,.042c-.38.142-2.512,1.016-2.823,2.839a.022.022,0,0,1-.043,0c-.311-1.823-2.462-2.7-2.845-2.839a.022.022,0,0,1,0-.042c.383-.143,2.534-1.021,2.845-2.845A.022.022,0,0,1,70.648,321.956Z" transform="translate(96.292 -305.464)" fill="#2b2f36"/>
      <path id="Path_850-2" data-name="Path 850" d="M78.85,321.956c.311,1.824,2.444,2.7,2.824,2.845a.023.023,0,0,1,0,.042c-.38.142-2.513,1.016-2.824,2.839a.021.021,0,0,1-.042,0c-.312-1.823-2.463-2.7-2.846-2.839a.022.022,0,0,1,0-.042c.383-.143,2.534-1.021,2.846-2.845A.021.021,0,0,1,78.85,321.956Z" transform="translate(79.888 -305.464)" fill="#2b2f36"/>
      <path id="Path_851-2" data-name="Path 851" d="M87.052,321.956c.311,1.824,2.444,2.7,2.824,2.845a.023.023,0,0,1,0,.042c-.38.142-2.513,1.016-2.824,2.839a.021.021,0,0,1-.042,0c-.312-1.823-2.463-2.7-2.846-2.839a.022.022,0,0,1,0-.042c.383-.143,2.534-1.021,2.846-2.845A.021.021,0,0,1,87.052,321.956Z" transform="translate(63.484 -305.464)" fill="#2b2f36"/>
      <path id="Path_852-2" data-name="Path 852" d="M95.254,321.956c.311,1.824,2.444,2.7,2.824,2.845a.023.023,0,0,1,0,.042c-.38.142-2.513,1.016-2.824,2.839a.021.021,0,0,1-.042,0c-.312-1.823-2.463-2.7-2.846-2.839a.022.022,0,0,1,0-.042c.383-.143,2.534-1.021,2.846-2.845A.021.021,0,0,1,95.254,321.956Z" transform="translate(47.08 -305.464)" fill="#2b2f36"/>
      <path id="Path_853-2" data-name="Path 853" d="M103.455,321.956c.31,1.824,2.443,2.7,2.823,2.845a.022.022,0,0,1,0,.042c-.38.142-2.513,1.016-2.823,2.839a.022.022,0,0,1-.043,0c-.311-1.823-2.462-2.7-2.846-2.839a.023.023,0,0,1,0-.042c.384-.143,2.535-1.021,2.846-2.845A.022.022,0,0,1,103.455,321.956Z" transform="translate(30.678 -305.464)" fill="#2b2f36"/>
      <path id="Path_854-2" data-name="Path 854" d="M111.657,321.956c.31,1.824,2.443,2.7,2.823,2.845a.022.022,0,0,1,0,.042c-.38.142-2.513,1.016-2.823,2.839a.022.022,0,0,1-.043,0c-.311-1.823-2.462-2.7-2.846-2.839a.023.023,0,0,1,0-.042c.384-.143,2.535-1.021,2.846-2.845A.022.022,0,0,1,111.657,321.956Z" transform="translate(14.274 -305.464)" fill="#2b2f36"/>
      <path id="Path_855-2" data-name="Path 855" d="M119.859,321.956c.311,1.824,2.444,2.7,2.823,2.845a.022.022,0,0,1,0,.042c-.38.142-2.512,1.016-2.823,2.839a.022.022,0,0,1-.043,0c-.311-1.823-2.462-2.7-2.845-2.839a.022.022,0,0,1,0-.042c.383-.143,2.534-1.021,2.845-2.845A.022.022,0,0,1,119.859,321.956Z" transform="translate(-2.13 -305.464)" fill="#2b2f36"/>
      <path id="Path_856-2" data-name="Path 856" d="M128.061,313.72c.311,1.824,2.444,2.7,2.824,2.845a.023.023,0,0,1,0,.042c-.38.142-2.513,1.015-2.824,2.839a.021.021,0,0,1-.042,0c-.312-1.823-2.463-2.7-2.846-2.839a.022.022,0,0,1,0-.042c.383-.143,2.534-1.021,2.846-2.845A.021.021,0,0,1,128.061,313.72Z" transform="translate(-18.534 -305.464)" fill="#2b2f36"/>
      <path id="Path_857-2" data-name="Path 857" d="M136.263,313.72c.311,1.824,2.444,2.7,2.824,2.845a.023.023,0,0,1,0,.042c-.38.142-2.513,1.015-2.824,2.839a.021.021,0,0,1-.042,0c-.312-1.823-2.463-2.7-2.846-2.839a.022.022,0,0,1,0-.042c.383-.143,2.534-1.021,2.846-2.845A.021.021,0,0,1,136.263,313.72Z" transform="translate(-34.938 -305.464)" fill="#2b2f36"/>
      <path id="Path_858-2" data-name="Path 858" d="M144.464,313.72c.311,1.824,2.444,2.7,2.824,2.845a.022.022,0,0,1,0,.042c-.38.142-2.513,1.015-2.824,2.839a.021.021,0,0,1-.042,0c-.312-1.823-2.463-2.7-2.846-2.839a.022.022,0,0,1,0-.042c.383-.143,2.534-1.021,2.846-2.845A.021.021,0,0,1,144.464,313.72Z" transform="translate(-51.341 -305.464)" fill="#2b2f36"/>
      <path id="Path_859-2" data-name="Path 859" d="M152.666,313.72c.31,1.824,2.443,2.7,2.823,2.845a.022.022,0,0,1,0,.042c-.38.142-2.513,1.015-2.823,2.839a.022.022,0,0,1-.043,0c-.312-1.823-2.462-2.7-2.846-2.839a.023.023,0,0,1,0-.042c.383-.143,2.534-1.021,2.846-2.845A.022.022,0,0,1,152.666,313.72Z" transform="translate(-67.744 -305.464)" fill="#2b2f36"/>
      <path id="Path_860-2" data-name="Path 860" d="M160.868,313.72c.31,1.824,2.443,2.7,2.823,2.845a.022.022,0,0,1,0,.042c-.38.142-2.513,1.015-2.823,2.839a.022.022,0,0,1-.043,0c-.311-1.823-2.462-2.7-2.846-2.839a.023.023,0,0,1,0-.042c.384-.143,2.535-1.021,2.846-2.845A.022.022,0,0,1,160.868,313.72Z" transform="translate(-84.148 -305.464)" fill="#2b2f36"/>
      <path id="Path_861-2" data-name="Path 861" d="M169.07,313.72c.311,1.824,2.444,2.7,2.823,2.845a.022.022,0,0,1,0,.042c-.38.142-2.512,1.015-2.823,2.839a.022.022,0,0,1-.043,0c-.311-1.823-2.462-2.7-2.845-2.839a.022.022,0,0,1,0-.042c.384-.143,2.535-1.021,2.846-2.845A.022.022,0,0,1,169.07,313.72Z" transform="translate(-100.552 -305.464)" fill="#2b2f36"/>
      <path id="Path_862-2" data-name="Path 862" d="M177.272,313.72c.311,1.824,2.444,2.7,2.824,2.845a.023.023,0,0,1,0,.042c-.38.142-2.513,1.015-2.824,2.839a.021.021,0,0,1-.042,0c-.312-1.823-2.463-2.7-2.846-2.839a.022.022,0,0,1,0-.042c.383-.143,2.534-1.021,2.846-2.845A.021.021,0,0,1,177.272,313.72Z" transform="translate(-116.956 -305.464)" fill="#2b2f36"/>
      <path id="Path_863-2" data-name="Path 863" d="M185.474,313.72c.311,1.824,2.444,2.7,2.824,2.845a.023.023,0,0,1,0,.042c-.38.142-2.513,1.015-2.824,2.839a.021.021,0,0,1-.042,0c-.312-1.823-2.463-2.7-2.846-2.839a.022.022,0,0,1,0-.042c.383-.143,2.534-1.021,2.846-2.845A.021.021,0,0,1,185.474,313.72Z" transform="translate(-133.36 -305.464)" fill="#2b2f36"/>
      <path id="Path_864-2" data-name="Path 864" d="M193.676,313.72c.311,1.824,2.444,2.7,2.824,2.845a.023.023,0,0,1,0,.042c-.38.142-2.513,1.015-2.824,2.839a.021.021,0,0,1-.042,0c-.312-1.823-2.463-2.7-2.846-2.839a.022.022,0,0,1,0-.042c.383-.143,2.534-1.021,2.846-2.845A.021.021,0,0,1,193.676,313.72Z" transform="translate(-149.764 -305.464)" fill="#2b2f36"/>
      <path id="Path_865-2" data-name="Path 865" d="M201.878,313.72c.31,1.824,2.443,2.7,2.823,2.845a.022.022,0,0,1,0,.042c-.38.142-2.513,1.015-2.823,2.839a.022.022,0,0,1-.043,0c-.312-1.823-2.462-2.7-2.846-2.839a.022.022,0,0,1,0-.042c.383-.143,2.534-1.021,2.846-2.845A.022.022,0,0,1,201.878,313.72Z" transform="translate(-166.167 -305.464)" fill="#2b2f36"/>
      <path id="Path_867-2" data-name="Path 867" d="M54.244,313.72c.31,1.824,2.443,2.7,2.823,2.845a.022.022,0,0,1,0,.042c-.38.142-2.513,1.015-2.823,2.839a.022.022,0,0,1-.043,0c-.311-1.823-2.462-2.7-2.846-2.839a.023.023,0,0,1,0-.042c.384-.143,2.535-1.021,2.846-2.845A.022.022,0,0,1,54.244,313.72Z" transform="translate(129.1 -305.464)" fill="#2b2f36"/>
      <path id="Path_868-2" data-name="Path 868" d="M62.446,313.72c.311,1.824,2.443,2.7,2.823,2.845a.022.022,0,0,1,0,.042c-.38.142-2.512,1.015-2.823,2.839a.022.022,0,0,1-.043,0c-.311-1.823-2.462-2.7-2.846-2.839a.023.023,0,0,1,0-.042c.384-.143,2.535-1.021,2.846-2.845A.022.022,0,0,1,62.446,313.72Z" transform="translate(112.696 -305.464)" fill="#2b2f36"/>
      <path id="Path_869-2" data-name="Path 869" d="M70.648,313.72c.311,1.824,2.444,2.7,2.823,2.845a.022.022,0,0,1,0,.042c-.38.142-2.512,1.015-2.823,2.839a.022.022,0,0,1-.043,0c-.311-1.823-2.462-2.7-2.845-2.839a.022.022,0,0,1,0-.042c.383-.143,2.534-1.021,2.845-2.845A.022.022,0,0,1,70.648,313.72Z" transform="translate(96.292 -305.464)" fill="#2b2f36"/>
      <path id="Path_870-2" data-name="Path 870" d="M78.85,313.72c.311,1.824,2.444,2.7,2.824,2.845a.023.023,0,0,1,0,.042c-.38.142-2.513,1.015-2.824,2.839a.021.021,0,0,1-.042,0c-.312-1.823-2.463-2.7-2.846-2.839a.022.022,0,0,1,0-.042c.383-.143,2.534-1.021,2.846-2.845A.021.021,0,0,1,78.85,313.72Z" transform="translate(79.888 -305.464)" fill="#2b2f36"/>
      <path id="Path_871-2" data-name="Path 871" d="M87.052,313.72c.311,1.824,2.444,2.7,2.824,2.845a.023.023,0,0,1,0,.042c-.38.142-2.513,1.015-2.824,2.839a.021.021,0,0,1-.042,0c-.312-1.823-2.463-2.7-2.846-2.839a.022.022,0,0,1,0-.042c.383-.143,2.534-1.021,2.846-2.845A.021.021,0,0,1,87.052,313.72Z" transform="translate(63.484 -305.464)" fill="#2b2f36"/>
      <path id="Path_872-2" data-name="Path 872" d="M95.254,313.72c.311,1.824,2.444,2.7,2.824,2.845a.023.023,0,0,1,0,.042c-.38.142-2.513,1.015-2.824,2.839a.021.021,0,0,1-.042,0c-.312-1.823-2.463-2.7-2.846-2.839a.022.022,0,0,1,0-.042c.383-.143,2.534-1.021,2.846-2.845A.021.021,0,0,1,95.254,313.72Z" transform="translate(47.08 -305.464)" fill="#2b2f36"/>
      <path id="Path_873-2" data-name="Path 873" d="M103.455,313.72c.31,1.824,2.443,2.7,2.823,2.845a.022.022,0,0,1,0,.042c-.38.142-2.513,1.015-2.823,2.839a.022.022,0,0,1-.043,0c-.311-1.823-2.462-2.7-2.846-2.839a.023.023,0,0,1,0-.042c.384-.143,2.535-1.021,2.846-2.845A.022.022,0,0,1,103.455,313.72Z" transform="translate(30.678 -305.464)" fill="#2b2f36"/>
      <path id="Path_874-2" data-name="Path 874" d="M111.657,313.72c.31,1.824,2.443,2.7,2.823,2.845a.022.022,0,0,1,0,.042c-.38.142-2.513,1.015-2.823,2.839a.022.022,0,0,1-.043,0c-.311-1.823-2.462-2.7-2.846-2.839a.023.023,0,0,1,0-.042c.384-.143,2.535-1.021,2.846-2.845A.022.022,0,0,1,111.657,313.72Z" transform="translate(14.274 -305.464)" fill="#2b2f36"/>
      <path id="Path_875-2" data-name="Path 875" d="M119.859,313.72c.311,1.824,2.444,2.7,2.823,2.845a.022.022,0,0,1,0,.042c-.38.142-2.512,1.015-2.823,2.839a.022.022,0,0,1-.043,0c-.311-1.823-2.462-2.7-2.845-2.839a.022.022,0,0,1,0-.042c.383-.143,2.534-1.021,2.845-2.845A.022.022,0,0,1,119.859,313.72Z" transform="translate(-2.13 -305.464)" fill="#2b2f36"/>
      <path id="Path_876-2" data-name="Path 876" d="M128.061,305.484c.311,1.824,2.444,2.7,2.824,2.845a.023.023,0,0,1,0,.042c-.38.142-2.513,1.016-2.824,2.839a.021.021,0,0,1-.042,0c-.312-1.823-2.463-2.7-2.846-2.839a.022.022,0,0,1,0-.042c.383-.143,2.534-1.021,2.846-2.845A.021.021,0,0,1,128.061,305.484Z" transform="translate(-18.534 -305.464)" fill="#2b2f36"/>
      <path id="Path_877-2" data-name="Path 877" d="M136.263,305.484c.311,1.824,2.444,2.7,2.824,2.845a.023.023,0,0,1,0,.042c-.38.142-2.513,1.016-2.824,2.839a.021.021,0,0,1-.042,0c-.312-1.823-2.463-2.7-2.846-2.839a.022.022,0,0,1,0-.042c.383-.143,2.534-1.021,2.846-2.845A.021.021,0,0,1,136.263,305.484Z" transform="translate(-34.938 -305.464)" fill="#2b2f36"/>
      <path id="Path_878-2" data-name="Path 878" d="M144.464,305.484c.311,1.824,2.444,2.7,2.824,2.845a.022.022,0,0,1,0,.042c-.38.142-2.513,1.016-2.824,2.839a.021.021,0,0,1-.042,0c-.312-1.823-2.463-2.7-2.846-2.839a.022.022,0,0,1,0-.042c.383-.143,2.534-1.021,2.846-2.845A.021.021,0,0,1,144.464,305.484Z" transform="translate(-51.341 -305.464)" fill="#2b2f36"/>
      <path id="Path_879-2" data-name="Path 879" d="M152.666,305.484c.31,1.824,2.443,2.7,2.823,2.845a.022.022,0,0,1,0,.042c-.38.142-2.513,1.016-2.823,2.839a.022.022,0,0,1-.043,0c-.312-1.823-2.462-2.7-2.846-2.839a.023.023,0,0,1,0-.042c.383-.143,2.534-1.021,2.846-2.845A.022.022,0,0,1,152.666,305.484Z" transform="translate(-67.744 -305.464)" fill="#2b2f36"/>
      <path id="Path_880-2" data-name="Path 880" d="M160.868,305.484c.31,1.824,2.443,2.7,2.823,2.845a.022.022,0,0,1,0,.042c-.38.142-2.513,1.016-2.823,2.839a.022.022,0,0,1-.043,0c-.311-1.823-2.462-2.7-2.846-2.839a.023.023,0,0,1,0-.042c.384-.143,2.535-1.021,2.846-2.845A.022.022,0,0,1,160.868,305.484Z" transform="translate(-84.148 -305.464)" fill="#2b2f36"/>
      <path id="Path_881-2" data-name="Path 881" d="M169.07,305.484c.311,1.824,2.444,2.7,2.823,2.845a.022.022,0,0,1,0,.042c-.38.142-2.512,1.016-2.823,2.839a.022.022,0,0,1-.043,0c-.311-1.823-2.462-2.7-2.845-2.839a.022.022,0,0,1,0-.042c.384-.143,2.535-1.021,2.846-2.845A.022.022,0,0,1,169.07,305.484Z" transform="translate(-100.552 -305.464)" fill="#2b2f36"/>
      <path id="Path_882-2" data-name="Path 882" d="M177.272,305.484c.311,1.824,2.444,2.7,2.824,2.845a.023.023,0,0,1,0,.042c-.38.142-2.513,1.016-2.824,2.839a.021.021,0,0,1-.042,0c-.312-1.823-2.463-2.7-2.846-2.839a.022.022,0,0,1,0-.042c.383-.143,2.534-1.021,2.846-2.845A.021.021,0,0,1,177.272,305.484Z" transform="translate(-116.956 -305.464)" fill="#2b2f36"/>
      <path id="Path_883-2" data-name="Path 883" d="M185.474,305.484c.311,1.824,2.444,2.7,2.824,2.845a.023.023,0,0,1,0,.042c-.38.142-2.513,1.016-2.824,2.839a.021.021,0,0,1-.042,0c-.312-1.823-2.463-2.7-2.846-2.839a.022.022,0,0,1,0-.042c.383-.143,2.534-1.021,2.846-2.845A.021.021,0,0,1,185.474,305.484Z" transform="translate(-133.36 -305.464)" fill="#2b2f36"/>
      <path id="Path_884-2" data-name="Path 884" d="M193.676,305.484c.311,1.824,2.444,2.7,2.824,2.845a.023.023,0,0,1,0,.042c-.38.142-2.513,1.016-2.824,2.839a.021.021,0,0,1-.042,0c-.312-1.823-2.463-2.7-2.846-2.839a.022.022,0,0,1,0-.042c.383-.143,2.534-1.021,2.846-2.845A.021.021,0,0,1,193.676,305.484Z" transform="translate(-149.764 -305.464)" fill="#2b2f36"/>
      <path id="Path_885-2" data-name="Path 885" d="M201.878,305.484c.31,1.824,2.443,2.7,2.823,2.845a.022.022,0,0,1,0,.042c-.38.142-2.513,1.016-2.823,2.839a.022.022,0,0,1-.043,0c-.312-1.823-2.462-2.7-2.846-2.839a.022.022,0,0,1,0-.042c.383-.143,2.534-1.021,2.846-2.845A.022.022,0,0,1,201.878,305.484Z" transform="translate(-166.167 -305.464)" fill="#2b2f36"/>
      <path id="Path_886-2" data-name="Path 886" d="M210.079,321.956c.31,1.824,2.443,2.7,2.823,2.845a.022.022,0,0,1,0,.042c-.38.142-2.513,1.016-2.823,2.839a.022.022,0,0,1-.043,0c-.311-1.823-2.462-2.7-2.846-2.839a.023.023,0,0,1,0-.042c.384-.143,2.535-1.021,2.846-2.845A.022.022,0,0,1,210.079,321.956Z" transform="translate(-182.57 -305.464)" fill="#2b2f36"/>
      <path id="Path_887-2" data-name="Path 887" d="M218.281,321.956c.311,1.824,2.443,2.7,2.823,2.845a.022.022,0,0,1,0,.042c-.38.142-2.512,1.016-2.823,2.839a.022.022,0,0,1-.043,0c-.311-1.823-2.462-2.7-2.846-2.839a.023.023,0,0,1,0-.042c.384-.143,2.535-1.021,2.846-2.845A.022.022,0,0,1,218.281,321.956Z" transform="translate(-198.974 -305.464)" fill="#2b2f36"/>
      <path id="Path_888-2" data-name="Path 888" d="M226.483,321.956c.311,1.824,2.444,2.7,2.824,2.845a.022.022,0,0,1,0,.042c-.38.142-2.512,1.016-2.823,2.839a.021.021,0,0,1-.042,0c-.312-1.823-2.463-2.7-2.846-2.839a.022.022,0,0,1,0-.042c.383-.143,2.534-1.021,2.846-2.845A.021.021,0,0,1,226.483,321.956Z" transform="translate(-215.378 -305.464)" fill="#2b2f36"/>
      <path id="Path_889-2" data-name="Path 889" d="M234.685,321.956c.311,1.824,2.444,2.7,2.824,2.845a.023.023,0,0,1,0,.042c-.38.142-2.513,1.016-2.824,2.839a.021.021,0,0,1-.042,0c-.312-1.823-2.463-2.7-2.846-2.839a.022.022,0,0,1,0-.042c.383-.143,2.534-1.021,2.846-2.845A.021.021,0,0,1,234.685,321.956Z" transform="translate(-231.782 -305.464)" fill="#2b2f36"/>
      <path id="Path_890-2" data-name="Path 890" d="M210.079,313.72c.31,1.824,2.443,2.7,2.823,2.845a.022.022,0,0,1,0,.042c-.38.142-2.513,1.015-2.823,2.839a.022.022,0,0,1-.043,0c-.311-1.823-2.462-2.7-2.846-2.839a.023.023,0,0,1,0-.042c.384-.143,2.535-1.021,2.846-2.845A.022.022,0,0,1,210.079,313.72Z" transform="translate(-182.57 -305.464)" fill="#2b2f36"/>
      <path id="Path_891-2" data-name="Path 891" d="M218.281,313.72c.311,1.824,2.443,2.7,2.823,2.845a.022.022,0,0,1,0,.042c-.38.142-2.512,1.015-2.823,2.839a.022.022,0,0,1-.043,0c-.311-1.823-2.462-2.7-2.846-2.839a.023.023,0,0,1,0-.042c.384-.143,2.535-1.021,2.846-2.845A.022.022,0,0,1,218.281,313.72Z" transform="translate(-198.974 -305.464)" fill="#2b2f36"/>
      <path id="Path_892-2" data-name="Path 892" d="M226.483,313.72c.311,1.824,2.444,2.7,2.824,2.845a.022.022,0,0,1,0,.042c-.38.142-2.512,1.015-2.823,2.839a.021.021,0,0,1-.042,0c-.312-1.823-2.463-2.7-2.846-2.839a.022.022,0,0,1,0-.042c.383-.143,2.534-1.021,2.846-2.845A.021.021,0,0,1,226.483,313.72Z" transform="translate(-215.378 -305.464)" fill="#2b2f36"/>
      <path id="Path_893-2" data-name="Path 893" d="M234.685,313.72c.311,1.824,2.444,2.7,2.824,2.845a.023.023,0,0,1,0,.042c-.38.142-2.513,1.015-2.824,2.839a.021.021,0,0,1-.042,0c-.312-1.823-2.463-2.7-2.846-2.839a.022.022,0,0,1,0-.042c.383-.143,2.534-1.021,2.846-2.845A.021.021,0,0,1,234.685,313.72Z" transform="translate(-231.782 -305.464)" fill="#2b2f36"/>
      <path id="Path_894-2" data-name="Path 894" d="M210.079,305.484c.31,1.824,2.443,2.7,2.823,2.845a.022.022,0,0,1,0,.042c-.38.142-2.513,1.016-2.823,2.839a.022.022,0,0,1-.043,0c-.311-1.823-2.462-2.7-2.846-2.839a.023.023,0,0,1,0-.042c.384-.143,2.535-1.021,2.846-2.845A.022.022,0,0,1,210.079,305.484Z" transform="translate(-182.57 -305.464)" fill="#2b2f36"/>
      <path id="Path_895-2" data-name="Path 895" d="M218.281,305.484c.311,1.824,2.443,2.7,2.823,2.845a.022.022,0,0,1,0,.042c-.38.142-2.512,1.016-2.823,2.839a.022.022,0,0,1-.043,0c-.311-1.823-2.462-2.7-2.846-2.839a.023.023,0,0,1,0-.042c.384-.143,2.535-1.021,2.846-2.845A.022.022,0,0,1,218.281,305.484Z" transform="translate(-198.974 -305.464)" fill="#2b2f36"/>
      <path id="Path_896-2" data-name="Path 896" d="M46.043,305.484c.31,1.824,2.443,2.7,2.823,2.845a.022.022,0,0,1,0,.042c-.38.142-2.513,1.016-2.823,2.839a.022.022,0,0,1-.043,0c-.312-1.823-2.462-2.7-2.846-2.839a.022.022,0,0,1,0-.042c.383-.143,2.534-1.021,2.846-2.845A.022.022,0,0,1,46.043,305.484Z" transform="translate(145.503 -305.464)" fill="#2b2f36"/>
      <path id="Path_897-2" data-name="Path 897" d="M54.244,305.484c.31,1.824,2.443,2.7,2.823,2.845a.022.022,0,0,1,0,.042c-.38.142-2.513,1.016-2.823,2.839a.022.022,0,0,1-.043,0c-.311-1.823-2.462-2.7-2.846-2.839a.023.023,0,0,1,0-.042c.384-.143,2.535-1.021,2.846-2.845A.022.022,0,0,1,54.244,305.484Z" transform="translate(129.1 -305.464)" fill="#2b2f36"/>
      <path id="Path_898-2" data-name="Path 898" d="M62.446,305.484c.311,1.824,2.443,2.7,2.823,2.845a.022.022,0,0,1,0,.042c-.38.142-2.512,1.016-2.823,2.839a.022.022,0,0,1-.043,0c-.311-1.823-2.462-2.7-2.846-2.839a.023.023,0,0,1,0-.042c.384-.143,2.535-1.021,2.846-2.845A.022.022,0,0,1,62.446,305.484Z" transform="translate(112.696 -305.464)" fill="#2b2f36"/>
      <path id="Path_899-2" data-name="Path 899" d="M70.648,305.484c.311,1.824,2.444,2.7,2.823,2.845a.022.022,0,0,1,0,.042c-.38.142-2.512,1.016-2.823,2.839a.022.022,0,0,1-.043,0c-.311-1.823-2.462-2.7-2.845-2.839a.022.022,0,0,1,0-.042c.383-.143,2.534-1.021,2.845-2.845A.022.022,0,0,1,70.648,305.484Z" transform="translate(96.292 -305.464)" fill="#2b2f36"/>
      <path id="Path_900-2" data-name="Path 900" d="M78.85,305.484c.311,1.824,2.444,2.7,2.824,2.845a.023.023,0,0,1,0,.042c-.38.142-2.513,1.016-2.824,2.839a.021.021,0,0,1-.042,0c-.312-1.823-2.463-2.7-2.846-2.839a.022.022,0,0,1,0-.042c.383-.143,2.534-1.021,2.846-2.845A.021.021,0,0,1,78.85,305.484Z" transform="translate(79.888 -305.464)" fill="#2b2f36"/>
      <path id="Path_901-2" data-name="Path 901" d="M87.052,305.484c.311,1.824,2.444,2.7,2.824,2.845a.023.023,0,0,1,0,.042c-.38.142-2.513,1.016-2.824,2.839a.021.021,0,0,1-.042,0c-.312-1.823-2.463-2.7-2.846-2.839a.022.022,0,0,1,0-.042c.383-.143,2.534-1.021,2.846-2.845A.021.021,0,0,1,87.052,305.484Z" transform="translate(63.484 -305.464)" fill="#2b2f36"/>
      <path id="Path_902-2" data-name="Path 902" d="M95.254,305.484c.311,1.824,2.444,2.7,2.824,2.845a.023.023,0,0,1,0,.042c-.38.142-2.513,1.016-2.824,2.839a.021.021,0,0,1-.042,0c-.312-1.823-2.463-2.7-2.846-2.839a.022.022,0,0,1,0-.042c.383-.143,2.534-1.021,2.846-2.845A.021.021,0,0,1,95.254,305.484Z" transform="translate(47.08 -305.464)" fill="#2b2f36"/>
      <path id="Path_903-2" data-name="Path 903" d="M103.455,305.484c.31,1.824,2.443,2.7,2.823,2.845a.022.022,0,0,1,0,.042c-.38.142-2.513,1.016-2.823,2.839a.022.022,0,0,1-.043,0c-.311-1.823-2.462-2.7-2.846-2.839a.023.023,0,0,1,0-.042c.384-.143,2.535-1.021,2.846-2.845A.022.022,0,0,1,103.455,305.484Z" transform="translate(30.678 -305.464)" fill="#2b2f36"/>
      <path id="Path_904-2" data-name="Path 904" d="M111.657,305.484c.31,1.824,2.443,2.7,2.823,2.845a.022.022,0,0,1,0,.042c-.38.142-2.513,1.016-2.823,2.839a.022.022,0,0,1-.043,0c-.311-1.823-2.462-2.7-2.846-2.839a.023.023,0,0,1,0-.042c.384-.143,2.535-1.021,2.846-2.845A.022.022,0,0,1,111.657,305.484Z" transform="translate(14.274 -305.464)" fill="#2b2f36"/>
      <path id="Path_905-2" data-name="Path 905" d="M119.859,305.484c.311,1.824,2.444,2.7,2.823,2.845a.022.022,0,0,1,0,.042c-.38.142-2.512,1.016-2.823,2.839a.022.022,0,0,1-.043,0c-.311-1.823-2.462-2.7-2.845-2.839a.022.022,0,0,1,0-.042c.383-.143,2.534-1.021,2.845-2.845A.022.022,0,0,1,119.859,305.484Z" transform="translate(-2.13 -305.464)" fill="#2b2f36"/>
    </g>
    <rect id="Rectangle_1091" data-name="Rectangle 1091" width="57" height="64" transform="translate(393 144)" fill="#0090ff" style="mix-blend-mode: hue;isolation: isolate"/>
    <rect id="Rectangle_1092" data-name="Rectangle 1092" width="57" height="64" transform="translate(432 197)" fill="#0090ff" style="mix-blend-mode: hue;isolation: isolate"/>
    <rect id="Rectangle_1093" data-name="Rectangle 1093" width="57" height="47" transform="translate(600 141)" fill="#0090ff" style="mix-blend-mode: hue;isolation: isolate"/>
    <text id="Referans_Kodu" data-name="Referans
Kodu" transform="translate(50.586 158.5)" fill="#fff" font-size="55" font-family="OpenSans-Bold, Open Sans" font-weight="700"><tspan x="0" y="0">Referans</tspan><tspan x="0" y="64">Kodu</tspan></text>
    <g transform="matrix(1, 0, 0, 1, 0, 0)" filter="url(#Referans_kodunu_arkadaşlarınla_paylaşarak_25_referans_geliri_kazanabilirsin_)">
      <text id="Referans_kodunu_arkadaşlarınla_paylaşarak_25_referans_geliri_kazanabilirsin_2" data-name="Referans kodunu arkadaşlarınla paylaşarak %25 referans geliri kazanabilirsin!
" transform="translate(55 256)" fill="#fff" font-size="18" font-family="HelveticaNeue, Helvetica Neue"><tspan x="0" y="17">Referans kodunu arkadaşlarınla paylaşarak </tspan><tspan x="0" y="39">%25 referans geliri kazanabilirsin!</tspan><tspan x="0" y="61"></tspan></text>
    </g>
    <g id="Group_561" data-name="Group 561" transform="translate(-1847 11135)">
      <rect id="Rectangle_956" data-name="Rectangle 956" width="70.862" height="70.862" rx="6" transform="matrix(0.695, -0.719, 0.719, 0.695, 2287.384, -10917.648)" fill="#fff"/>
      <rect id="Rectangle_957" data-name="Rectangle 957" width="70.862" height="70.862" rx="6" transform="matrix(0.695, -0.719, 0.719, 0.695, 2227.311, -10975.66)" fill="#1aa4df"/>
      <rect id="Rectangle_958" data-name="Rectangle 958" width="70.862" height="70.862" rx="6" transform="matrix(0.695, -0.719, 0.719, 0.695, 2285.323, -11035.733)" fill="#fff"/>
    </g>
    <g id="Group_562" data-name="Group 562" transform="translate(-1729.964 11223.576)">
      <rect id="Rectangle_956-2" data-name="Rectangle 956" width="13.352" height="13.352" rx="2" transform="matrix(0.695, -0.719, 0.719, 0.695, 2238.631, -11054.852)" fill="#fff"/>
      <rect id="Rectangle_957-2" data-name="Rectangle 957" width="13.352" height="13.352" rx="2" transform="matrix(0.695, -0.719, 0.719, 0.695, 2227.311, -11065.782)" fill="#1aa4df"/>
      <rect id="Rectangle_958-2" data-name="Rectangle 958" width="13.352" height="13.352" rx="2" transform="matrix(0.695, -0.719, 0.719, 0.695, 2238.242, -11077.103)" fill="#fff"/>
    </g>
    <g id="Group_566" data-name="Group 566" transform="translate(-1703.964 11195.576)" opacity="0.37" style="mix-blend-mode: soft-light;isolation: isolate">
      <rect id="Rectangle_956-3" data-name="Rectangle 956" width="13.352" height="13.352" rx="0.5" transform="matrix(0.695, -0.719, 0.719, 0.695, 2238.631, -11054.852)" fill="#fff"/>
      <rect id="Rectangle_957-3" data-name="Rectangle 957" width="13.352" height="13.352" rx="0.5" transform="matrix(0.695, -0.719, 0.719, 0.695, 2227.311, -11065.782)" fill="#1aa4df"/>
      <rect id="Rectangle_958-3" data-name="Rectangle 958" width="13.352" height="13.352" rx="0.5" transform="matrix(0.695, -0.719, 0.719, 0.695, 2238.242, -11077.103)" fill="#fff"/>
    </g>
    <g id="Group_567" data-name="Group 567" transform="translate(-1703.964 11255.576)" opacity="0.37" style="mix-blend-mode: soft-light;isolation: isolate">
      <rect id="Rectangle_956-4" data-name="Rectangle 956" width="7.834" height="7.834" rx="0.5" transform="matrix(0.695, -0.719, 0.719, 0.695, 2233.952, -11068.018)" fill="#fff"/>
      <rect id="Rectangle_957-4" data-name="Rectangle 957" width="7.834" height="7.834" rx="0.5" transform="matrix(0.695, -0.719, 0.719, 0.695, 2227.311, -11074.431)" fill="#1aa4df"/>
      <rect id="Rectangle_958-4" data-name="Rectangle 958" width="7.834" height="7.834" rx="0.5" transform="matrix(0.695, -0.719, 0.719, 0.695, 2233.724, -11081.072)" fill="#fff"/>
    </g>
    <g id="Group_569" data-name="Group 569" transform="translate(-1828.172 11370.588)" opacity="0.194" style="mix-blend-mode: luminosity;isolation: isolate">
      <rect id="Rectangle_956-5" data-name="Rectangle 956" width="19.513" height="19.513" rx="2" transform="matrix(0.695, -0.719, 0.719, 0.695, 2243.853, -11040.153)" fill="#fff"/>
      <rect id="Rectangle_957-5" data-name="Rectangle 957" width="19.513" height="19.513" rx="2" transform="matrix(0.695, -0.719, 0.719, 0.695, 2227.311, -11056.128)" fill="#1aa4df"/>
      <rect id="Rectangle_958-5" data-name="Rectangle 958" width="19.513" height="19.513" rx="2" transform="matrix(0.695, -0.719, 0.719, 0.695, 2243.285, -11072.672)" fill="#fff"/>
    </g>
    <g id="Group_564" data-name="Group 564" transform="translate(-1678.964 11255.576)">
      <rect id="Rectangle_956-6" data-name="Rectangle 956" width="29.259" height="29.259" rx="3" transform="matrix(0.695, -0.719, 0.719, 0.695, 2252.116, -11016.901)" fill="#fff"/>
      <rect id="Rectangle_957-6" data-name="Rectangle 957" width="29.259" height="29.259" rx="3" transform="matrix(0.695, -0.719, 0.719, 0.695, 2227.311, -11040.854)" fill="#1aa4df"/>
      <rect id="Rectangle_958-6" data-name="Rectangle 958" width="29.259" height="29.259" rx="3" transform="matrix(0.695, -0.719, 0.719, 0.695, 2251.265, -11065.66)" fill="#fff"/>
    </g>
    <g id="Group_571" data-name="Group 571" transform="translate(-1885.172 11170.588)" opacity="0.194" style="mix-blend-mode: luminosity;isolation: isolate">
      <rect id="Rectangle_956-7" data-name="Rectangle 956" width="19.513" height="19.513" rx="2" transform="matrix(0.695, -0.719, 0.719, 0.695, 2243.853, -11040.153)" fill="#fff"/>
      <rect id="Rectangle_957-7" data-name="Rectangle 957" width="19.513" height="19.513" rx="2" transform="matrix(0.695, -0.719, 0.719, 0.695, 2227.311, -11056.128)" fill="#1aa4df"/>
      <rect id="Rectangle_958-7" data-name="Rectangle 958" width="19.513" height="19.513" rx="2" transform="matrix(0.695, -0.719, 0.719, 0.695, 2243.285, -11072.672)" fill="#fff"/>
    </g>
    <g id="Group_572" data-name="Group 572" transform="translate(-1636.676 11119.228)" opacity="0.105" style="mix-blend-mode: luminosity;isolation: isolate">
      <rect id="Rectangle_956-8" data-name="Rectangle 956" width="13.215" height="13.215" rx="2" transform="matrix(0.695, -0.719, 0.719, 0.695, 2238.514, -11055.178)" fill="#fff"/>
      <rect id="Rectangle_957-8" data-name="Rectangle 957" width="13.215" height="13.215" rx="2" transform="matrix(0.695, -0.719, 0.719, 0.695, 2227.311, -11065.997)" fill="#1aa4df"/>
      <rect id="Rectangle_958-8" data-name="Rectangle 958" width="13.215" height="13.215" rx="2" transform="matrix(0.695, -0.719, 0.719, 0.695, 2238.13, -11077.202)" fill="#fff"/>
    </g>
    <g id="Group_573" data-name="Group 573" transform="translate(-1605.134 11197.708)" opacity="0.105" style="mix-blend-mode: luminosity;isolation: isolate">
      <rect id="Rectangle_956-9" data-name="Rectangle 956" width="20.694" height="20.694" rx="2" transform="matrix(0.695, -0.719, 0.719, 0.695, 2244.855, -11037.334)" fill="#fff"/>
      <rect id="Rectangle_957-9" data-name="Rectangle 957" width="20.694" height="20.694" rx="2" transform="matrix(0.695, -0.719, 0.719, 0.695, 2227.311, -11054.276)" fill="#1aa4df"/>
      <rect id="Rectangle_958-9" data-name="Rectangle 958" width="20.694" height="20.694" rx="2" transform="matrix(0.695, -0.719, 0.719, 0.695, 2244.253, -11071.822)" fill="#fff"/>
    </g>
    <g id="Group_574" data-name="Group 574" transform="translate(-1699.498 11362.194)" opacity="0.105" style="mix-blend-mode: luminosity;isolation: isolate">
      <rect id="Rectangle_956-10" data-name="Rectangle 956" width="11.29" height="11.29" rx="2" transform="matrix(0.695, -0.719, 0.719, 0.695, 2236.882, -11059.772)" fill="#fff"/>
      <rect id="Rectangle_957-10" data-name="Rectangle 957" width="11.29" height="11.29" rx="2" transform="matrix(0.695, -0.719, 0.719, 0.695, 2227.311, -11069.016)" fill="#1aa4df"/>
      <rect id="Rectangle_958-10" data-name="Rectangle 958" width="11.29" height="11.29" rx="2" transform="matrix(0.695, -0.719, 0.719, 0.695, 2236.553, -11078.588)" fill="#fff"/>
    </g>
    <g id="Group_847" data-name="Group 847" transform="translate(-1051.337 -870.351)">
      <path id="Path_24" data-name="Path 24" d="M1969.186,962.45a4.741,4.741,0,0,0,.339-3.573,5.357,5.357,0,0,0-4.474-4.078.269.269,0,0,1-.306.128.269.269,0,0,0,.306-.128,2.872,2.872,0,0,0-.437-.066q-5.443,0-10.887.007c-.331-.067-.56-.073-.559.4q.022,6.793,0,13.587c0,.36.138.436.463.431,1.007-.016,2.014,0,3.021-.006.1,0,.228.042.294-.09l.069-3.439.041.012.033-.027q1.905.073,3.81,0a2.7,2.7,0,0,1,.916.8c.615.755,1.34,1.4,2.008,2.1.224.26.392.637.781.642,1.661.021,3.322.009,5.04.009a1.073,1.073,0,0,0-.459-.532l-3.154-3.249A5.353,5.353,0,0,0,1969.186,962.45Zm-14.767,6.593c-.074,0-.149.011-.223.013.074,0,.149-.008.223-.013a3.74,3.74,0,0,1,1.364-.087A3.744,3.744,0,0,0,1954.419,969.043Zm11.844-7.991-.113.161s0,0,0,0h0l-.226.232h0l-.12.1s0,0,0-.007h0l-.486.239-.031-.013-.021.025a.408.408,0,0,1-.1.133.408.408,0,0,0,.1-.133,9.8,9.8,0,0,1-1.831.1q-3.177.006-6.354.018l-.118-.113c-.07-.016-.14-.033-.165-.094.025.061.094.078.165.093q.021-1.788.042-3.576a.064.064,0,0,0,.079-.017.27.27,0,0,1,.044-.044.27.27,0,0,0-.044.044c2.287.007,4.575.034,6.862.011a2.534,2.534,0,0,1,2.2.945A2.367,2.367,0,0,1,1966.263,961.052Z" transform="translate(-739.213 -12.007)" fill="#fff"/>
      <path id="Path_25" data-name="Path 25" d="M1427.657,957.828a6.26,6.26,0,0,0-3.561-2.6,4.15,4.15,0,0,0-1.728-.332c-1.914-.005-3.829,0-5.743,0a3.1,3.1,0,0,0-1.3.217,7.033,7.033,0,0,0-5.268,5.839,5.824,5.824,0,0,0,.224,3.253,6.789,6.789,0,0,0,3.028,4.024,5.179,5.179,0,0,0,2.679,1.012c2.16.183,4.327.075,6.49.056a2.053,2.053,0,0,0,1.274-.274l-.007.005a2.417,2.417,0,0,0,1.345-.462,6.462,6.462,0,0,0,2.676-2.373,1.25,1.25,0,0,0,.339-.543v0a.37.37,0,0,0,.134-.321c.04-.033.092-.06.111-.1a6.976,6.976,0,0,0-.232-6.654C1428.091,958.243,1427.817,958.059,1427.657,957.828Zm-13.546,6.245a.183.183,0,0,1-.079-.056.183.183,0,0,0,.079.056Zm7.886,1.569c-1.472.038-2.947-.016-4.418.026a4.077,4.077,0,0,1-3.214-1.262.253.253,0,0,1-.193-.052.252.252,0,0,0,.193.052l-.252-.335-.123-.21v0c-.027,0-.057,0-.086,0,.029,0,.059,0,.086,0a3.911,3.911,0,0,1-.235-3.029,3.814,3.814,0,0,1,2.944-2.318h0l5.576-.007a3.769,3.769,0,0,1,2.847,2.091A3.553,3.553,0,0,1,1422,965.642Z" transform="translate(-256.855 -12.168)" fill="#fff"/>
      <path id="Path_26" data-name="Path 26" d="M1271.991,965.757q-4.2.033-8.4,0a3.751,3.751,0,0,1-1.5-7.206,5.391,5.391,0,0,1,2.034-.281c2.683.006,5.366.008,8.049.026.309,0,.371-.107.366-.385-.015-.875-.028-1.751.005-2.625.016-.406-.121-.483-.5-.481-3.037.016-6.075.013-9.113.008a4.719,4.719,0,0,0-1.378.161,6.811,6.811,0,0,0-3.554,2.126,7.125,7.125,0,0,0-1.84,3.77h0a5.2,5.2,0,0,0-.083,1.9,5.743,5.743,0,0,0,.752,2.468h0a.259.259,0,0,0,.117.237,6.429,6.429,0,0,0,5.329,3.669c3.3.238,6.607.046,9.912.09.329,0,.357-.149.354-.409-.01-.84-.029-1.681.006-2.519C1272.559,965.873,1272.437,965.754,1271.991,965.757Z" transform="translate(-120.201 -12.098)" fill="#fff"/>
      <path id="Path_27" data-name="Path 27" d="M2299.247,965.709c-3.435.019-6.87,0-10.3.023-.5,0-.617-.136-.614-.623.023-3.283.005-6.567.02-9.85,0-.38-.078-.516-.484-.5-.932.031-1.867.028-2.8,0-.381-.011-.506.082-.505.486q.023,6.716,0,13.432c0,.436.135.52.541.517,2.334-.019,4.667-.009,7-.009,2.389,0,4.78-.008,7.169.009.39,0,.513-.1.5-.5-.029-.82-.033-1.643,0-2.462C2299.787,965.815,2299.67,965.706,2299.247,965.709Z" transform="translate(-1033.463 -12.049)" fill="#fff"/>
      <path id="Path_28" data-name="Path 28" d="M1595.758,954.8c-1.06-.013-2.122,0-3.181-.052-.46-.021-.538.139-.536.558.015,4.433.009,8.867.011,13.3,0,.166.025.331.038.5,1.068.165,2.145.009,3.214.083.468.032.544-.149.543-.568-.013-4.448-.006-8.9-.01-13.345C1595.835,955.112,1595.907,954.933,1595.758,954.8Z" transform="translate(-418.558 -12.038)" fill="#fff"/>
      <path id="Path_29" data-name="Path 29" d="M1653.442,962.773q0-3.773,0-7.547c0-.252.032-.465-.354-.456-1.025.025-2.051.013-3.077.006-.222,0-.337.036-.336.3.017,2.664.023,5.328.032,7.992-.1.15.061.372-.149.509l-.39-.3a.029.029,0,0,1,0,0l-.12-.141c-.2-.22-.389-.447-.595-.658-2.327-2.392-4.628-4.809-7.027-7.13.025-.09-.03-.125-.1-.148h0l-.1-.1h0l-.122-.12h.007c-.1-.265-.33-.2-.525-.2-1.006-.005-2.014.024-3.019-.018-.461-.019-.538.136-.537.555.015,4.433.009,8.865.011,13.3,0,.165.026.331.04.5l.3-.034c0-.025,0-.051,0-.076a.511.511,0,0,1-.065-.036.36.36,0,0,1-.091-.086.36.36,0,0,0,.091.086.511.511,0,0,0,.065.036h0c0,.025,0,.051,0,.076l-.3.033c1.091.15,2.188.011,3.28.076.414.024.488-.146.486-.517-.014-2.5-.006-5-.011-7.5,0-.157.073-.339-.089-.469.063-.123.035-.287.1-.338.581.552,1.154,1.084,1.714,1.629,1.49,1.449,2.913,2.965,4.412,4.408.821.79,1.594,1.649,2.388,2.477a.326.326,0,0,0,.332.259,24.8,24.8,0,0,0,3.676-.015,1.071,1.071,0,0,0,.059-.6Q1653.446,965.653,1653.442,962.773Zm-.727,5.839-.012.024.012-.024.025.009Zm.053.134h0a.626.626,0,0,0,.035-.072A.7.7,0,0,1,1652.768,968.746Z" transform="translate(-458.511 -12.061)" fill="#fff"/>
      <path id="Path_30" data-name="Path 30" d="M1811.307,955.326c.023-.463-.145-.536-.561-.535-3.809.015-7.617.009-11.426.009-1.363,0-2.726.009-4.089-.007-.326,0-.462.056-.45.422.028.895.006,1.791.012,2.686,0,.165-.076.413.253.358,1.867.006,3.733.025,5.6.01.4,0,.49.115.487.5-.018,2.444-.009,4.888-.009,7.332q0,1.343,0,2.687c0,.2-.046.434.281.426,1.152-.031,2.306.072,3.457-.054a1.27,1.27,0,0,0,.05-.6q.006-5.13,0-10.26a.512.512,0,0,0-.069-.009.512.512,0,0,1,.069.009l6.246-.036c.24-.076.124-.278.126-.416C1811.3,957.005,1811.264,956.164,1811.307,955.326Z" transform="translate(-598.576 -12.081)" fill="#fff"/>
      <path id="Path_31" data-name="Path 31" d="M2124.937,968.51a.781.781,0,0,0-.235-.448.075.075,0,0,0-.031-.086l-.088-.147c-.93-1.8-1.853-3.6-2.794-5.4-1.3-2.486-2.622-4.966-3.934-7.448a.14.14,0,0,0-.154-.122c-1.333,0-2.667,0-4-.007-.244,0-.312.151-.357.342-.714,1.343-1.435,2.682-2.14,4.029q-2.286,4.369-4.558,8.744a9.238,9.238,0,0,0-.23.441,2.842,2.842,0,0,0-.456.875c1.391,0,2.724,0,4.057,0a.353.353,0,0,0,.344-.229c.331-.663.667-1.323,1-1.984a1.008,1.008,0,0,0-.109.012,1.008,1.008,0,0,1,.109-.012l.106-.223v0a1.188,1.188,0,0,0,.177-.276c.159-.533.5-.652,1.045-.639,1.752.04,3.508.071,5.258-.007.969-.043,1.7.1,1.98,1.14,0,.014.029.022.045.032a12.248,12.248,0,0,0,1.137,2.106,25.241,25.241,0,0,0,2.944.065c.414.013.828,0,1.28,0a2.338,2.338,0,0,0-.4-.759Zm-7.533-6.474-3.565-.019c.515-1.21,1.2-2.33,1.814-3.583.619,1.187,1.2,2.3,1.775,3.406C2117.462,961.906,2117.483,961.98,2117.4,962.037Z" transform="translate(-874.881 -12.137)" fill="#fff"/>
      <path id="Path_33" data-name="Path 33" d="M1117.523,989.475a1.331,1.331,0,0,1-.467.915c-1.395,1.4-2.783,2.8-4.19,4.185-.651.641-1.081.626-1.727-.017q-2.072-2.06-4.13-4.135c-.745-.752-.735-1.12.029-1.888q2.006-2.016,4.021-4.022c.751-.747,1.151-.749,1.9-.007,1.345,1.336,2.683,2.68,4.027,4.017A1.443,1.443,0,0,1,1117.523,989.475Z" transform="translate(0 -39.757)" fill="#1aa4df"/>
      <path id="Path_34" data-name="Path 34" d="M1164.642,942.356a1.331,1.331,0,0,1-.468.915c-1.395,1.4-2.783,2.8-4.19,4.185-.651.641-1.081.626-1.727-.017q-2.072-2.06-4.13-4.135c-.745-.752-.735-1.12.029-1.888q2.006-2.016,4.021-4.023c.751-.747,1.152-.749,1.9-.007,1.345,1.336,2.683,2.68,4.027,4.017A1.443,1.443,0,0,1,1164.642,942.356Z" transform="translate(-39.758 0)" fill="#fff"/>
      <path id="Path_35" data-name="Path 35" d="M1164.642,1037.035a1.33,1.33,0,0,1-.468.915c-1.395,1.4-2.783,2.8-4.19,4.184-.651.641-1.081.626-1.727-.016q-2.072-2.06-4.13-4.135c-.745-.752-.735-1.12.029-1.888q2.006-2.016,4.021-4.023c.751-.747,1.152-.749,1.9-.007,1.345,1.336,2.683,2.68,4.027,4.017A1.444,1.444,0,0,1,1164.642,1037.035Z" transform="translate(-39.758 -79.887)" fill="#fff"/>
    </g>
  </g>
</svg>
