<svg xmlns="http://www.w3.org/2000/svg" width="20" height="20" viewBox="0 0 20 20">
  <g id="Group_5282" data-name="Group 5282" transform="translate(-223.094 -126.094)">
    <circle id="Ellipse_620" data-name="Ellipse 620" cx="10" cy="10" r="10" transform="translate(223.094 126.094)" fill="#d1f2e7"/>
    <path id="Path_8550" data-name="Path 8550" d="M-690.425,169.017l1-1,4.991-4.991a.423.423,0,0,1,.609-.013.423.423,0,0,1-.01.614l-5.788,5.788c-.162.162-.323.324-.485.486a.422.422,0,0,1-.618,0l-2.949-2.949a.41.41,0,0,1-.115-.433.4.4,0,0,1,.337-.295.416.416,0,0,1,.381.13c.436.437,2.135,2.135,2.571,2.573A1.046,1.046,0,0,1-690.425,169.017Z" transform="translate(921.856 -30.486)" fill="#5ad4ac" stroke="#5ad4ac" stroke-width="1"/>
  </g>
</svg>
